<svg version="1.0" xmlns="http://www.w3.org/2000/svg" viewBox="0 0 554 820"><path d="m188.4 87.2-1.9 2.3 2.3-1.9c2.2-1.9 2.2-1.9 4.5 0l2.2 1.9-1.9-2.3c-1.1-1.2-2.2-2.2-2.6-2.2-.4 0-1.5 1-2.6 2.2zM422.5 117c1 1.1 2 2 2.3 2 .3 0-.3-.9-1.3-2s-2-2-2.3-2c-.3 0 .3.9 1.3 2zM173.3 285.5c0 .7.8 1 1.9.7 1-.2 1.8-.6 1.8-.7 0-.1-.8-.5-1.8-.7-1.1-.3-1.9 0-1.9.7zm134.4.2c-.3.5 3 .8 7.3.8s7.6-.3 7.3-.8c-.2-.4-3.5-.7-7.3-.7s-7.1.3-7.3.7zm-44 4c-.3.5 1.6.7 4.1.5 7.3-.5 8.2-1 2-1.1-3.1 0-5.9.2-6.1.6zm77.8 0c1.7.2 3.9.8 5 1.3 3.2 1.4 6.6 1.9 5.9.9-.3-.5-1.6-.9-2.9-.9-1.3 0-2.7-.5-3-1-.3-.6-2.3-.9-4.3-.9-3.3.2-3.4.2-.7.6zm78.7.7c-3.3 1.9-3.3 2.1-.3 2.1 1.9 0 2.7-.5 2.7-1.8 0-.9 0-1.7-.1-1.6 0 .1-1 .7-2.3 1.3zm-164.6 1.4c-.2.4 1.1.6 3 .4 1.9-.2 3.4-.6 3.4-.8 0-.8-5.9-.4-6.4.4zm-78 6.1c-.4.5.3.7 1.4.4 2.3-.6 2.6-1.3.6-1.3-.8 0-1.7.4-2 .9zm68.2 5.8c.6.2 1.8.2 2.5 0 .6-.3.1-.5-1.3-.5-1.4 0-1.9.2-1.2.5zm160.5 4c.9.2 2.5.2 3.5 0 .9-.3.1-.5-1.8-.5-1.9 0-2.7.2-1.7.5zm-108.6 2c-.3.5.8.8 2.3.8 1.5 0 2.6-.3 2.3-.8-.2-.4-1.3-.7-2.3-.7-1 0-2.1.3-2.3.7zM398.5 322c-.7 1.1.9 1.1 4.5 0 2.4-.8 2.4-.8-.7-.9-1.7-.1-3.5.3-3.8.9zm-208.6 2.4c1.1 1.2 5.1 2.9 5.1 2.1 0-.2-1.4-1-3.1-1.9-2.3-1.2-2.8-1.2-2-.2zm7.1 3c0 .2.9.6 2 .9 1.1.3 1.8.1 1.4-.4-.5-.9-3.4-1.3-3.4-.5zm206.5 6.6c-.2.3.9.6 2.5.5 1.5 0 2.6-.3 2.4-.7-.5-.8-4.4-.6-4.9.2zm-210.1 1.7c.4.7 2.2 1.9 3.9 2.8 3.6 1.7 8.4 2.8 7.3 1.8-.4-.4-1.7-.8-2.9-1-1.2-.2-2.3-.8-2.5-1.3-.2-.6-1.1-1-2.1-1-.9 0-2.3-.6-3-1.3-1.1-.9-1.2-.9-.7 0zm200.2 2.2c-.4.5.3.7 1.4.4 2.3-.6 2.6-1.3.6-1.3-.8 0-1.7.4-2 .9zm-9.8 1.8c1.2.2 3 .2 4 0 .9-.3-.1-.5-2.3-.4-2.2 0-3 .2-1.7.4zM211 343.4c0 .2.9.6 2 .9 1.1.3 1.8.1 1.4-.4-.5-.9-3.4-1.3-3.4-.5zm105.5 1.6c1 1.1 2 2 2.3 2 .3 0-.3-.9-1.3-2s-2-2-2.3-2c-.3 0 .3.9 1.3 2zm79 1.1c-.3.4.2.6 1 .5 2.1-.3 2.8-1.3 1-1.3-.9 0-1.8.4-2 .8zM198 350.5c.7.8 1.7 1.5 2.3 1.5.6 0 2 .8 3.1 1.7 1.9 1.7 2 1.7.7.1-.7-1-2.7-2.4-4.3-3.3-2.6-1.3-2.8-1.3-1.8 0zm187.6-.6c-.4.5.3.7 1.4.4 2.3-.6 2.6-1.3.6-1.3-.8 0-1.7.4-2 .9zm-12.6 1.9c0 .4 1.7.6 3.8.4 6.4-.6 6.9-1 1.5-1.1-2.9 0-5.3.3-5.3.7zm-165 2.5c.8.9 2.5 1.8 3.7 2 1.2.2 2.6.6 2.9 1 .4.4 1.7.7 2.8.6 1.4 0 1.6-.2.6-.6-.8-.2-2.2-.7-3-1-.8-.3-2.4-.8-3.4-1-1.1-.2-2.7-.9-3.5-1.5-1.4-1.1-1.4-1-.1.5zm-19.6 8.9-1.9 2.3 2.3-1.9c2.1-1.8 2.7-2.6 1.9-2.6-.2 0-1.2 1-2.3 2.2zm224.1-.2c1 1.1 2 2 2.3 2 .3 0-.3-.9-1.3-2s-2-2-2.3-2c-.3 0 .3.9 1.3 2zm-80 6c1 1.1 2 2 2.3 2 .3 0-.3-.9-1.3-2s-2-2-2.3-2c-.3 0 .3.9 1.3 2zm84 0c1 1.1 2 2 2.3 2 .3 0-.3-.9-1.3-2s-2-2-2.3-2c-.3 0 .3.9 1.3 2zm-204 12c1 1.1 2 2 2.3 2 .3 0-.3-.9-1.3-2s-2-2-2.3-2c-.3 0 .3.9 1.3 2zm49.7-.6c-3.2 1.8-3.7 2.5-1.3 1.9 1.1-.3 2.6-1.1 3.2-1.9 1.3-1.6 1.2-1.6-1.9 0zm-8.7 5.6c-.3.5-1.7 1-3 1s-2.6.4-2.9.9c-.7 1.1 4.1.1 7.3-1.5 1.8-1 2.1-1.4.9-1.4-.9 0-2 .4-2.3 1zm95.5-.6c0 .2.9.6 2 .9 1.1.3 1.8.1 1.4-.4-.5-.9-3.4-1.3-3.4-.5zm29.2 1c-3.2 1.8-3.7 2.5-1.3 1.9 1.1-.3 2.6-1.1 3.2-1.9 1.3-1.6 1.2-1.6-1.9 0zm-23.2 1c0 .2.9.6 2 .9 1.1.3 1.8.1 1.4-.4-.5-.9-3.4-1.3-3.4-.5zm-120.2 4.3c1.2.2 3.2.2 4.5 0 1.2-.2.2-.4-2.3-.4s-3.5.2-2.2.4zm164.5 3.9c.3.3-.4 1.6-1.7 2.8-1.2 1.1-1.4 1.5-.4.7 1-.7 3.1-1.1 4.8-.9 3.8.6 3.8.3-.2-1.6-1.7-.9-2.9-1.3-2.5-1zm-205.6 2.1c-.3.5 1.7.6 4.5.4 3.7-.2 5.5.2 7.1 1.5l2.2 1.9-1.9-2.3c-1.5-1.7-3-2.2-6.7-2.2-2.6 0-5 .3-5.2.7zm16.3 6c.8.3 2.4 1.3 3.5 2.2 2 1.6 2 1.6.1-.7-1.1-1.2-2.6-2.2-3.5-2.1-1.4 0-1.4.1-.1.6zm180.4 1.5-1.9 2.3 2.3-1.9c1.2-1.1 2.2-2.1 2.2-2.3 0-.8-.8-.2-2.6 1.9zM194.5 411c1 1.1 2 2 2.3 2 .3 0-.3-.9-1.3-2s-2-2-2.3-2c-.3 0 .3.9 1.3 2zm25.4-.6c1.1 1.2 5.1 2.9 5.1 2.1 0-.2-1.4-1-3.1-1.9-2.3-1.2-2.8-1.2-2-.2zm162.5.8-1.9 2.3 2.3-1.9c2.1-1.8 2.7-2.6 1.9-2.6-.2 0-1.2 1-2.3 2.2zM230 415.7c.8.3 2.4 1.3 3.5 2.2 2 1.6 2 1.6.1-.7-1.1-1.2-2.6-2.2-3.5-2.1-1.4 0-1.4.1-.1.6zm11.6.2c-.4.5.3.7 1.4.4 2.3-.6 2.6-1.3.6-1.3-.8 0-1.7.4-2 .9zm13.4-.5c0 .2.9.6 2 .9 1.1.3 1.8.1 1.4-.4-.5-.9-3.4-1.3-3.4-.5zm85.4 1.8-1.9 2.3 2.3-1.9c2.1-1.8 2.7-2.6 1.9-2.6-.2 0-1.2 1-2.3 2.2zm16.1-.2c1 1.1 2 2 2.3 2 .3 0-.3-.9-1.3-2s-2-2-2.3-2c-.3 0 .3.9 1.3 2zm11.7-.6c-3.1 1.8-4.1 2.9-1.7 2 3.8-1.5 7-3.4 5.5-3.3-.8.1-2.5.7-3.8 1.3zm-31.8 6.8-1.9 2.3 2.3-1.9c1.2-1.1 2.2-2.1 2.2-2.3 0-.8-.8-.2-2.6 1.9zm-96.8 28.7c-.4.5.3.7 1.4.4 1.2-.3 3 .2 4.3 1.3l2.2 1.9-1.9-2.3c-1.9-2.2-5-2.9-6-1.3zm8.9 7.1c1 1.1 2 2 2.3 2 .3 0-.3-.9-1.3-2s-2-2-2.3-2c-.3 0 .3.9 1.3 2zm4 6c1 1.1 2 2 2.3 2 .3 0-.3-.9-1.3-2s-2-2-2.3-2c-.3 0 .3.9 1.3 2zm64 0c1 1.1 2 2 2.3 2 .3 0-.3-.9-1.3-2s-2-2-2.3-2c-.3 0 .3.9 1.3 2zm77.9.2-1.9 2.3 2.3-1.9c1.2-1.1 2.2-2.1 2.2-2.3 0-.8-.8-.2-2.6 1.9zM208.5 471c1 1.1 2 2 2.3 2 .3 0-.3-.9-1.3-2s-2-2-2.3-2c-.3 0 .3.9 1.3 2zm181.9.2-1.9 2.3 2.3-1.9c1.2-1.1 2.2-2.1 2.2-2.3 0-.8-.8-.2-2.6 1.9zM214.5 477c1 1.1 2 2 2.3 2 .3 0-.3-.9-1.3-2s-2-2-2.3-2c-.3 0 .3.9 1.3 2zm51.9.2-1.9 2.3 2.3-1.9c2.1-1.8 2.7-2.6 1.9-2.6-.2 0-1.2 1-2.3 2.2zm42 0-1.9 2.3 2.3-1.9c2.1-1.8 2.7-2.6 1.9-2.6-.2 0-1.2 1-2.3 2.2zm21.2-1.1c1.5 2.5 5.5 2.9 9.7.9 2.3-1 3.7-1.9 3.1-2-.6 0-2.5.7-4.2 1.6-2.9 1.4-3.5 1.4-6.2 0-1.7-.8-2.8-1-2.4-.5zm54.8 1.1-1.9 2.3 2.3-1.9c2.1-1.8 2.7-2.6 1.9-2.6-.2 0-1.2 1-2.3 2.2zM220.5 483c1 1.1 2 2 2.3 2 .3 0-.3-.9-1.3-2s-2-2-2.3-2c-.3 0 .3.9 1.3 2zm157.9.2-1.9 2.3 2.3-1.9c2.1-1.8 2.7-2.6 1.9-2.6-.2 0-1.2 1-2.3 2.2zM224.5 489c1 1.1 2 2 2.3 2 .3 0-.3-.9-1.3-2s-2-2-2.3-2c-.3 0 .3.9 1.3 2zm6 6c1 1.1 2 2 2.3 2 .3 0-.3-.9-1.3-2s-2-2-2.3-2c-.3 0 .3.9 1.3 2zm137.9.2-1.9 2.3 2.3-1.9c2.1-1.8 2.7-2.6 1.9-2.6-.2 0-1.2 1-2.3 2.2zm-32 54-1.9 2.3 2.3-1.9c2.1-1.8 2.7-2.6 1.9-2.6-.2 0-1.2 1-2.3 2.2zm-64.8 10.7c-.4.5.3.7 1.4.4 1.2-.3 3 .2 4.3 1.3l2.2 1.9-1.9-2.3c-1.9-2.2-5-2.9-6-1.3zm52.6.5c-1.2.7-2.6 1.6-2.9 2-1 1 2.9-.5 4.5-1.7.8-.7 1.9-.4 3.5.9l2.2 1.9-1.9-2.3c-2.1-2.5-2.2-2.5-5.4-.8zm-11.8 12.8-1.9 2.3 2.3-1.9c1.2-1.1 2.2-2.1 2.2-2.3 0-.8-.8-.2-2.6 1.9zm-14.7 120.5c-.3.5.8.8 2.3.8 1.5 0 2.6-.3 2.3-.8-.2-.4-1.3-.7-2.3-.7-1 0-2.1.3-2.3.7zm-7.3 11.5-1.9 2.3 2.3-1.9c2.1-1.8 2.7-2.6 1.9-2.6-.2 0-1.2 1-2.3 2.2zm-10.3 5.1c1.4 1.6 1.8 1.6 4.5.2 1.6-.8 2.2-1.5 1.4-1.5-.9 0-2.1.5-2.8 1.2-.8.8-1.5.8-2.9-.2-1.7-1.3-1.7-1.3-.2.3zm31.8-.1c.8 1.1 2.5 1.7 4.5 1.7l3.1-.2-3-.4c-1.6-.3-3.7-1-4.5-1.6-1.3-1-1.3-1-.1.5z" fill="none"/><path d="M311.3 286.7c2 .2 5.4.2 7.5 0 2-.2.3-.4-3.8-.4s-5.8.2-3.7.4zm-44.5 4c1.8.2 4.5.2 6 0s0-.4-3.3-.4-4.5.2-2.7.4zm74 0c1.2.2 3 .2 4 0 .9-.3-.1-.5-2.3-.4-2.2 0-3 .2-1.7.4zm-83.5 2c.9.2 2.3.2 3 0 .6-.3-.1-.5-1.8-.5-1.6 0-2.2.2-1.2.5zm91 0c.9.2 2.3.2 3 0 .6-.3-.1-.5-1.8-.5-1.6 0-2.2.2-1.2.5zm-169.5 6c.7.3 1.6.2 1.9-.1.4-.3-.2-.6-1.3-.5-1.1 0-1.4.3-.6.6zm67 6c.6.2 1.8.2 2.5 0 .6-.3.1-.5-1.3-.5-1.4 0-1.9.2-1.2.5zm165.7 1.4c-.4.6-.5 1.2-.2 1.5.2.3.7-.2 1-1.1.7-1.7.1-2-.8-.4zm-5.2 2.6c.9.2 2.3.2 3 0 .6-.3-.1-.5-1.8-.5-1.6 0-2.2.2-1.2.5zm-107.5 2c.6.2 1.8.2 2.5 0 .6-.3.1-.5-1.3-.5-1.4 0-1.9.2-1.2.5zm103 12c.7.3 1.6.2 1.9-.1.4-.3-.2-.6-1.3-.5-1.1 0-1.4.3-.6.6zm-205.9 4.5c1.5 2 3.6 2.3 4.6.8.3-.6-.1-.7-1-.4-.8.4-2.3 0-3.3-.7-1.5-1.3-1.6-1.2-.3.3zM396 337.6c-1.7.9-2 1.4-.9 1.4.9 0 2.2-.7 2.9-1.5 1.5-1.8 1.3-1.8-2 .1zm-200.2 1.1c.7.3 1.6.2 1.9-.1.4-.3-.2-.6-1.3-.5-1.1 0-1.4.3-.6.6zm186.1 1.6c.5.5 1.9.7 3.2.5 2-.3 1.9-.5-.9-.9-2-.3-2.9-.2-2.3.4zm-170.1 4.4c.7.3 1.6.2 1.9-.1.4-.3-.2-.6-1.3-.5-1.1 0-1.4.3-.6.6zm187.1 1c-1.3 1.6-1.2 1.7.4.4 1.6-1.3 2.1-2.1 1.3-2.1-.2 0-1 .8-1.7 1.7zm-12.1 5c.7.3 1.6.2 1.9-.1.4-.3-.2-.6-1.3-.5-1.1 0-1.4.3-.6.6zm-187 2c.7.3 1.6.2 1.9-.1.4-.3-.2-.6-1.3-.5-1.1 0-1.4.3-.6.6zm176 0c1.2.2 3 .2 4 0 .9-.3-.1-.5-2.3-.4-2.2 0-3 .2-1.7.4zm-115 30c.7.3 1.6.2 1.9-.1.4-.3-.2-.6-1.3-.5-1.1 0-1.4.3-.6.6zm-6 4c.7.3 1.6.2 1.9-.1.4-.3-.2-.6-1.3-.5-1.1 0-1.4.3-.6.6zm95 0c.7.3 1.6.2 1.9-.1.4-.3-.2-.6-1.3-.5-1.1 0-1.4.3-.6.6zm-100.5 2c.9.2 2.3.2 3 0 .6-.3-.1-.5-1.8-.5-1.6 0-2.2.2-1.2.5zm106.5 0c.7.3 1.6.2 1.9-.1.4-.3-.2-.6-1.3-.5-1.1 0-1.4.3-.6.6zm21 0c.7.3 1.6.2 1.9-.1.4-.3-.2-.6-1.3-.5-1.1 0-1.4.3-.6.6zm-142 4c1.2.2 3.2.2 4.5 0 1.2-.2.2-.4-2.3-.4s-3.5.2-2.2.4zm-38.5 6c1.5.2 3.9.2 5.5 0 1.5-.2.2-.4-2.8-.4s-4.3.2-2.7.4zm203 0c.9.2 2.5.2 3.5 0 .9-.3.1-.5-1.8-.5-1.9 0-2.7.2-1.7.5zm-189.5 6c.7.3 1.6.2 1.9-.1.4-.3-.2-.6-1.3-.5-1.1 0-1.4.3-.6.6zm12 8c.7.3 1.6.2 1.9-.1.4-.3-.2-.6-1.3-.5-1.1 0-1.4.3-.6.6zm8 4c.7.3 1.6.2 1.9-.1.4-.3-.2-.6-1.3-.5-1.1 0-1.4.3-.6.6zm13 0c.7.3 1.6.2 1.9-.1.4-.3-.2-.6-1.3-.5-1.1 0-1.4.3-.6.6zm13 0c.7.3 1.6.2 1.9-.1.4-.3-.2-.6-1.3-.5-1.1 0-1.4.3-.6.6zm115 0c.7.3 1.6.2 1.9-.1.4-.3-.2-.6-1.3-.5-1.1 0-1.4.3-.6.6zm-4 2c.7.3 1.6.2 1.9-.1.4-.3-.2-.6-1.3-.5-1.1 0-1.4.3-.6.6zm-126 34c.6.2 1.8.2 2.5 0 .6-.3.1-.5-1.3-.5-1.4 0-1.9.2-1.2.5zm100 24c.7.3 1.6.2 1.9-.1.4-.3-.2-.6-1.3-.5-1.1 0-1.4.3-.6.6zm-9 2c.7.3 1.6.2 1.9-.1.4-.3-.2-.6-1.3-.5-1.1 0-1.4.3-.6.6zm5 0c.7.3 1.6.2 1.9-.1.4-.3-.2-.6-1.3-.5-1.1 0-1.4.3-.6.6zm-64 82c.6.2 1.8.2 2.5 0 .6-.3.1-.5-1.3-.5-1.4 0-1.9.2-1.2.5zm50 2c.7.3 1.6.2 1.9-.1.4-.3-.2-.6-1.3-.5-1.1 0-1.4.3-.6.6zm-24 132c.6.2 1.8.2 2.5 0 .6-.3.1-.5-1.3-.5-1.4 0-1.9.2-1.2.5zm-14 16c.7.3 1.6.2 1.9-.1.4-.3-.2-.6-1.3-.5-1.1 0-1.4.3-.6.6zm29.5 2c.9.2 2.5.2 3.5 0 .9-.3.1-.5-1.8-.5-1.9 0-2.7.2-1.7.5z" fill="#FFF" fill-opacity=".01"/><path d="M189.6 87.8c-.2.4.4.8 1.4.8 1 0 1.6-.4 1.4-.8-.3-.4-.9-.8-1.4-.8-.5 0-1.1.4-1.4.8zm201.3 384.9c-1.3 1.6-1.2 1.7.4.4.9-.7 1.7-1.5 1.7-1.7 0-.8-.8-.3-2.1 1.3zm-5 5c-1.3 1.6-1.2 1.7.4.4 1.6-1.3 2.1-2.1 1.3-2.1-.2 0-1 .8-1.7 1.7zm-60.3 84.1c-.2.4.4.8 1.4.8 1 0 1.6-.4 1.4-.8-.3-.4-.9-.8-1.4-.8-.5 0-1.1.4-1.4.8z" fill="#FFF" fill-opacity=".2"/><g fill="#FFF" stroke-width="0"><path d="M189.3 89.5c-.7.8-1.3 2.1-1.3 3 0 .8-.4 1.5-1 1.5-.5 0-1 .9-1 1.9 0 1.1-.3 2.1-.7 2.3-1 .4-4.2 5.7-5 8-.3 1-.9 1.8-1.4 1.8-.5 0-.9.9-.9 2s-.4 2-1 2c-.5 0-1 .9-1 2s-.4 2-1 2c-.5 0-1 1.1-1 2.4 0 1.4-.4 2.8-1 3.1-.5.3-1 1.5-1 2.6 0 1-.4 1.9-1 1.9-.5 0-1 .9-1 2s-.4 2-1 2c-.5 0-1 1.1-1 2.4 0 1.4-.4 2.8-1 3.1-.5.3-1 1.5-1 2.6 0 1-.4 1.9-1 1.9-.5 0-1 1.3-1 3 0 1.6-.4 3-1 3-.5 0-1 1.3-1 3 0 1.6-.4 3-1 3-.5 0-1 1.3-1 3 0 1.6-.4 3-1 3-.5 0-1 2.2-1 5 0 2.7-.4 5-1 5s-1 6.3-1 16.9c0 10.3.4 17.2 1 17.6.6.3 1 4.4 1 9.1 0 4.9.4 8.4 1 8.4s1 2.6 1 5.9c0 3.3.5 6.3 1 6.6.6.3 1 2.6 1 5.1 0 2.4.5 4.4 1 4.4.6 0 1 1.8 1 4s.5 4 1 4c.6 0 1 1.8 1 3.9 0 2.2.5 4.3 1 4.6.6.3 1 2.2 1 4.1 0 2.7.4 3.4 2 3.4 1.3 0 2 .7 2 2 0 1.1-.4 2-1 2-.5 0-1 1.3-1 3 0 1.6.5 3 1 3 .6 0 1 1.1 1 2.5 0 1.5.7 2.8 1.8 3.2 4.3 1.7 5.9 6.3 2.1 6.3-1.3 0-1.9.5-1.5 1.2.3.7.9 2.1 1.2 3 .4 1 1.2 1.8 1.8 1.8.7 0 2.4.6 3.9 1.2 3.8 1.8 3.4 5.4-.5 5-2.2-.2-2.8.2-2.8 1.6 0 2.9 7 8.2 10.8 8.2 2.4 0 5.6 3.5 4.7 5-.7 1.1-2.3 1-8.7-.6-2.2-.5-2.8-.3-2.8 1.1 0 2 1.6 3.6 5.5 5.4 1.7.7 3.8 1.7 4.7 2.2 1 .5 2.7.9 3.8.9 1.1 0 2 .4 2 .9s1 1.1 2.3 1.3c1.4.2 2.2 1 2.2 2.3 0 1.7-.6 2-4 1.7-2.2-.2-4.1-.8-4.3-1.3-.2-.5-1.4-.9-2.7-.9-1.3 0-2.7-.5-3-1-1-1.7-2.5-1.1-2.5.9 0 1.2 1.2 2.5 3 3.3 1.7.7 3 1.6 3 2 0 .5.7.8 1.5.8s2.3.4 3.3.9c.9.5 3.1 1.4 4.7 2.1 1.7.7 3.8 1.6 4.7 2.1 1 .5 2.7.9 3.7.9 1.1 0 2.3.4 2.6 1 .3.5 2 1 3.6 1 3.4 0 4.9 2.4 2.8 4.6-1.5 1.4-5.1.8-10.1-1.7-1-.5-2.5-.9-3.3-.9-.8 0-2.3-.4-3.3-.9-.9-.5-3-1.4-4.7-2.1-1.6-.7-3.8-1.7-4.8-2.2-1.1-.5-2.2-.6-2.5-.2-.4.4-.1.9.6 1.1.6.3 1.2 1.5 1.2 2.8 0 1.9 1.1 2.9 5.8 5 7.6 3.6 9 4.2 13.7 5.6 2.2.6 4.8 1.5 5.7 2 1 .5 2.5.9 3.3.9.8 0 1.5.9 1.5 2 0 1.6-.7 2-3.2 2-3.8 0-11.6-2.3-17-5.1-2.7-1.4-3.8-1.1-3.8 1.1 0 1.1.5 2 1 2 .6 0 1 .9 1 2s.5 2 1 2c.6 0 1 .8 1 1.8s.9 2.4 2 3.2c1.1.8 2 2 2 2.8 0 1.8 14.8 16.2 16.6 16.2.8 0 1.4.4 1.4 1s3.7 1 9 1 9-.4 9-1 .7-1 1.5-1c1.8 0 5.1-1.8 7.9-4.3 1.1-.9 2.4-1.7 2.8-1.7 1.3 0 7.1-6.2 8.7-9.3.8-1.5 1.8-2.7 2.3-2.7.4 0 .8-5.4.8-12 0-7.3-.4-12-1-12-.5 0-1-1.4-1-3 0-1.7-.4-3-1-3-.5 0-1-.9-1-2s-.4-2-1-2c-.5 0-1-.9-1-2s-.4-2-1-2c-.5 0-1-.9-1-2s-.4-2-1-2c-.5 0-1-.8-1-1.8s-.9-2.4-2-3.2c-1.1-.8-2-2.2-2-3.2s-.4-1.8-1-1.8c-.5 0-1-.9-1-1.9 0-1.1-.6-2.2-1.2-2.5-1-.5-1-.7 0-1.2.6-.3 1.2-1.4 1.2-2.5 0-1.4-.7-1.9-3-1.9-2 0-3-.5-3-1.5 0-.9-.9-2.5-2-3.7-1.1-1.2-2-2.8-2-3.5 0-.7-.4-1.3-1-1.3-.5 0-1-.9-1-2s-.4-2-1-2c-.5 0-1-.7-1-1.5 0-.9-.9-2.5-2-3.7-1.1-1.2-2-2.8-2-3.5 0-.7-.4-1.3-1-1.3-.5 0-1-.9-1-2s-.4-2-1-2c-.5 0-1-.9-1-2s-.4-2-1-2c-.5 0-1-.9-1-2s-.4-2-1-2c-.5 0-1-.9-1-2s-.4-2-1-2c-.5 0-1-.9-1-2s-.4-2-1-2c-.5 0-1-.9-1-2s-.4-2-1-2c-.5 0-1-.9-1-2s-.4-2-1-2c-.5 0-1-.7-1-1.6 0-.9-1.3-4.1-3-7.1-1.6-3-3-6.3-3-7.4 0-1-.4-1.9-1-1.9-.5 0-1-.9-1-2s-.4-2-1-2c-.5 0-1-.9-1-2s-.4-2-1-2c-.5 0-1-1.4-1-3 0-1.7-.4-3-1-3-.5 0-1-1.3-1-2.9 0-1.7-.4-3.3-1-3.6-.5-.3-1-2.1-1-4s-.4-3.7-1-4c-.5-.3-1-2.8-1-5.5s-.4-5.2-1-5.5c-.5-.3-1-3.7-1-7.5s-.4-7.2-1-7.5c-.6-.4-1-5.7-1-12.5s-.4-12.1-1-12.5c-.6-.4-1-5.7-1-12.5s-.4-12.1-1-12.5c-.5-.3-1-4.2-1-8.5s.5-8.2 1-8.5c.6-.3 1-3.9 1-8s.5-7.7 1-8c1.5-.9 1.2-7.4-.4-9.1-1.7-1.7-1.8-1.7-3.3.1zM400 93c0 .5.5 1 1 1 .6 0 1 1.3 1 3 0 1.6.5 3 1 3 .6 0 1 1.3 1 3 0 1.6.5 3 1 3 .6 0 1 2.2 1 5 0 2.7.5 5 1 5 .6 0 1 3.3 1 8s.4 8 1 8 1 3.7 1 9 .4 9 1 9 1 6.7 1 18-.4 18-1 18c-.5 0-1 2.2-1 5 0 2.7-.4 5-1 5-.5 0-1 1.8-1 4s-.4 4-1 4c-.5 0-1 1.3-1 3 0 1.6-.4 3-1 3-.5 0-1 1.3-1 3 0 1.6-.4 3-1 3-.5 0-1 .9-1 2s-.4 2-1 2c-.5 0-1 .9-1 2s-.4 2-1 2c-.5 0-1 .9-1 2s-.4 2-1 2c-.5 0-1 .9-1 2s-.4 2-1 2c-.5 0-1 .9-1 2s-.4 2-1 2c-.5 0-1 .9-1 2s-.4 2-1 2c-.5 0-1 .9-1 2s-.4 2-1 2c-.5 0-1 .9-1 2s-.4 2-1 2c-.5 0-1 1.3-1 3 0 1.6-.4 3-1 3-.5 0-1 .9-1 2s-.4 2-1 2c-.5 0-1 .9-1 2s-.4 2-1 2c-.5 0-1 .9-1 2s-.4 2-1 2c-.5 0-1 .9-1 2s-.4 2-1 2c-.5 0-1 .9-1 2s-.4 2-1 2c-.5 0-1 .8-1 1.8s-.9 2.4-2 3.2c-1.1.8-2 2.2-2 3.2s-.4 1.8-1 1.8c-.5 0-1 .9-1 2s-.4 2-1 2c-.5 0-1 .9-1 2s-.4 2-1 2c-.5 0-1 .7-1 1.5 0 .9-.9 2.5-2 3.7-1.1 1.2-2 2.8-2 3.5 0 .7-.4 1.3-1 1.3-.5 0-1 .9-1 2s-.4 2-1 2c-.5 0-1 .8-1 1.8s-.9 2.4-2 3.2c-1.1.8-2 2.2-2 3.2s-.4 1.8-.9 1.8-1.4 1.3-2.1 3c-.7 1.6-1.6 3-2.1 3s-.9.8-.9 1.8-.9 2.4-2 3.2c-1.1.8-2 2.2-2 3.2s-.4 1.8-1 1.8c-.5 0-1 .9-1 2s-.4 2-1 2c-.5 0-1 1.8-1 4s-.4 4-1 4-1 3.9-1 9.8c0 8.6.2 9.9 2 11.2 1.1.8 2 2.1 2 3 0 .9.9 2.2 2 3 1.1.8 2 2.1 2 2.9 0 1.3 3.6 5.1 5 5.1.4 0 2 1.1 3.6 2.5s3.5 2.5 4.2 2.5c.6 0 1.2.4 1.2 1s3 1 7 1 7-.4 7-1 .9-1 2-1 2-.5 2-1c0-.6.7-1 1.6-1 2.1 0 14.4-12.3 14.4-14.4 0-.9.4-1.6.9-1.6s1.4-1.4 2.1-3c.7-1.7 1.6-3 2.1-3s.9-.9.9-2 .5-2 1-2c.6 0 1-.9 1-2s.5-2 1-2c.6 0 1-.9 1-2 0-2.2-1.9-2.6-5-1-1.1.5-2.9 1.4-4 2-1.1.5-3 1-4.3 1-1.3 0-2.7.4-3.2.9-1.4 1.2-12.9 2.1-14.6 1.1-2.2-1.4.9-4 4.7-4 1.8 0 3.6-.5 3.9-1 .3-.6 2.1-1 4-1s3.7-.5 4-1c.3-.6 1.5-1 2.6-1 1 0 2.8-.4 3.9-1s2.9-1.5 4-2c1.1-.6 3.3-1 5-1 2.3 0 3-.5 3-1.9 0-1.1.6-2.1 1.3-2.4.6-.2.9-.7.5-1.1-.3-.4-1.5-.3-2.7.3-1.2.6-3 1.5-4.1 2.1-1.1.5-3.1 1-4.4 1-1.4 0-2.8.4-3.1 1-.3.5-3.5 1-7.1 1-5.6 0-6.4-.2-6.4-1.9 0-1.9 1.8-2.6 10.5-3.8 2.2-.3 4.4-.9 5-1.4.5-.5 1.7-.9 2.7-.9 1 0 2.6-.4 3.6-.9.9-.5 3.1-1.5 4.7-2.2 3.9-1.8 5.5-3.4 5.5-5.3 0-.9.5-1.6 1-1.6.6 0 1-.9 1-2 0-2.4.1-2.4-4.7-.1-2.1 1-5.5 2.4-7.6 3.1-3.3 1-4.1 1-5.8-.6-2.3-2.1-.9-4.4 2.8-4.4 1.4 0 6.3-1.8 10.9-4.1 6.4-3.1 8.4-4.6 8.4-6.1 0-1.6-.4-1.8-1.7-1.2-1 .4-4.4 1-7.5 1.2-4.8.3-5.8.1-5.8-1.2 0-.9.8-1.9 1.8-2.2.9-.3 2.5-1 3.4-1.5 1-.5 3.2-.9 5-.9 4.3 0 8.8-3.8 8.8-7.4 0-1.9-.5-2.6-2-2.6-1.1 0-2 .4-2 1 0 1.5-4.7 1.2-5.3-.4-.6-1.5 2.2-4.6 4-4.6 2.1 0 7.3-3.2 7.3-4.6 0-.8.5-1.4 1-1.4.6 0 1-1.4 1-3 0-1.7-.4-3-1-3-1.8 0-1-4 1-5.2 1.1-.7 2-2.3 2-3.5 0-1.2.5-2.5 1-2.8.6-.3 1-2.8 1-5.6 0-2.7.5-4.9 1-4.9.6 0 1-1.8 1-4s.5-4 1-4c.6 0 1-2.3 1-5 0-2.8.5-5 1-5 .6 0 1-2 1-4.4 0-2.5.5-4.8 1-5.1.6-.3 1-3.3 1-6.6 0-3.2.4-5.9.9-5.9.9 0 2-18.2 2.1-33 .1-8.6-1.2-21-2.1-21-.5 0-.9-1.8-.9-4s-.4-4-1-4c-.5 0-1-.9-1-2 0-2.8-2.3-10-3.2-10-.5 0-.8-1.4-.8-3 0-1.7-.4-3-1-3-.5 0-1-.9-1-2s-.4-2-1-2c-.5 0-1-.9-1-2s-.4-2-1-2c-.5 0-1-.9-1-2s-.4-2-1-2c-.5 0-1-.8-1-1.8s-.9-2.4-2-3.2c-1.1-.8-2-2.2-2-3.2s-.4-1.8-1-1.8c-.5 0-1-.9-1-2s-.4-2-1-2c-.5 0-1-.9-1-2s-.4-2-1-2c-.5 0-1-.9-1-2s-.4-2-1-2c-.5 0-1-.9-1-2s-.3-2-.8-2c-.4 0-1.3-1.4-2-3-1.2-2.6-1.9-3-5.3-3-2.1 0-3.9.4-3.9 1z"/><path d="M310.7 288.7c-.5.4-8.1 1.1-17 1.5-21.4 1-29.7 1.8-29.7 2.9 0 .5-1.8.9-4 .9s-4 .4-4 1c0 .5-.7 1-1.6 1-5.1 0-6 7.7-1.4 12 1.7 1.5 3 3.4 3 4.2 0 .7.9 2 2 2.8 1.1.8 2 2.2 2 3.2s.5 1.8 1 1.8c.6 0 1 .9 1 2s.5 2 1 2c.6 0 1 .9 1 2s.5 2 1 2c.6 0 1 .9 1 2s.5 2 1 2c.6 0 1 .9 1 2s.5 2 1 2c.6 0 1 1.3 1 3 0 1.6.5 3 1 3 .6 0 1 4.8 1 12.4 0 7.3-.4 12.7-1 13.1-.5.3-1 2.4-1 4.6 0 2.1-.4 3.9-1 3.9-.5 0-1 .7-1 1.5 0 1.9-4.4 6.5-6.2 6.5-.8 0-2 .9-2.8 2-.8 1.1-2.2 2-3.2 2s-1.8.4-1.8 1c0 .5-1.1 1-2.4 1-1.4 0-2.8.4-3.1 1-.3.5-1.9 1-3.6 1-1.6 0-2.9.4-2.9 1 0 .5-2.2 1-5 1-2.7 0-5-.5-5-1 0-.6-1.6-1-3.5-1-2.2 0-4.4-.8-5.7-2-1.2-1.1-2.8-2-3.5-2-.7 0-1.3-.5-1.3-1 0-.6-.6-1-1.3-1-1.9 0-8.7-6.5-8.7-8.4 0-.9-.4-1.6-1-1.6-.5 0-1-.7-1-1.5 0-.9-.9-2.5-2-3.7-1.1-1.2-2-2.8-2-3.5 0-.7-.4-1.3-1-1.3-.5 0-1-.9-1-2s-.6-2-1.4-2c-.8 0-2.1-.2-2.9-.6-1.5-.6-9.7 6.6-9.7 8.6 0 .6-.7 1.8-1.5 2.7-.9.8-1.9 2.8-2.2 4.4-.3 1.6-.9 2.9-1.4 2.9-.5 0-.9.9-.9 2s-.4 2-1 2c-.5 0-1 1.3-1 3 0 1.6-.4 3-1 3-.5 0-1 1.5-1 3.4s-.4 3.8-1 4.1c-.5.3-1 4.2-1 8.6 0 4.6.4 7.9 1 7.9s1 .8 1 1.8.9 2.4 2 3.2c1.1.8 2 2.1 2 3 0 .9.9 2.2 2 3 1.1.8 2 2.4 2 3.7 0 1.2.5 2.5 1 2.8.6.3 1 3.3 1 6.6s-.4 5.9-1 5.9-1 5.7-1 15 .4 15 1 15 1 .7 1 1.6c0 .8 2.6 4.1 5.8 7.2 3.2 3.1 6.8 7.3 8.2 9.2 1.3 1.9 4.1 5.2 6.2 7.2 2.1 2 3.8 4.1 3.8 4.6s1.8 2.8 4 5.1c2.2 2.2 4 4.5 4 5s2.3 3.2 5 6l5 5.1v20.4c0 12.6-.4 20.7-1 21.1-.5.3-1 2.2-1 4.1 0 1.9.5 3.4 1 3.4.6 0 1 1.3 1 3 0 1.6.5 3 1 3 .6 0 1 .9 1 2s.5 2 1 2c.6 0 1 .8 1 1.8s.9 2.4 2 3.2c1.1.8 2 2.2 2 3.2s.5 1.8 1 1.8c.6 0 1 1.3 1 3 0 1.6.5 3 1 3 .6 0 1 1.8 1 4s.5 4 1 4c.6 0 1 .9 1 2s-.4 2-1 2-1 2.8-1 6.4c0 3.6-.4 6.8-1 7.1-.5.3-1 3.7-1 7.6 0 3.9.4 6.9 1 6.9s1 1.3 1 3c0 1.6.5 3 1 3 .6 0 1 .9 1 2s.5 2 1 2c.6 0 1 .7 1 1.5 0 .9.9 2.5 2 3.7 1.1 1.2 2 2.8 2 3.5 0 .7.5 1.3 1 1.3.6 0 1 .9 1 2s.5 2 1 2c.6 0 1 1.3 1 3 0 1.6.5 3 1 3 .6 0 1 2.2 1 5 0 2.7.5 5 1 5 .6 0 1 2.7 1 6s.4 6 1 6 1 4.7 1 12c0 6.6.4 12 .9 12s1.1 1.3 1.4 2.8c.7 3.4 5.8 9.2 8.1 9.2.9 0 1.6.4 1.6 1 0 .5.9 1 2 1s2 .4 2 1 3.7 1 9 1 9-.4 9-1 .6-1 1.3-1c.7 0 2.3-.9 3.5-2 2.2-2.1 5.2-2.7 5.2-1 0 .5.9 1 2 1s2 .4 2 1c0 .5.9 1 2 1s2 .4 2 1 3.7 1 9 1 9-.4 9-1 .9-1 2-1 2-.5 2-1c0-.6.8-1 1.8-1 1.2 0 2.6-1.6 4-4.8 1.2-2.7 2.2-5.4 2.2-6 0-.7.5-1.2 1-1.2.6 0 1-2.3 1-5 0-2.8.5-5 1-5 .6 0 1-2.7 1-6s.4-6 1-6 1-3.3 1-8 .4-8 1-8 1-1.8 1-4 .5-4 1-4c.6 0 1-.6 1-1.3 0-1.8 2.4-6.7 3.3-6.7.4 0 .7-.9.7-2s.5-2 1-2c.6 0 1-.9 1-2s.5-2 1-2c.6 0 1-.9 1-2s.5-2 1-2c.6 0 1-1.4 1-3 0-1.7.5-3 1-3 .6 0 1-1.3 1-2.9 0-1.7.4-3.3 1-3.6 1.3-.8 1.3-14.2 0-15-.5-.3-1-3-1-5.9 0-2.9-.5-6.7-1.1-8.5-.8-2.4-.8-4.2.2-7.6.7-2.5 1.7-4.5 2.1-4.5.4 0 .8-1.1.8-2.5s.9-3.5 2-4.7c1.1-1.2 2-2.8 2-3.5 0-.7.5-1.3 1-1.3.6 0 1-2.3 1-5 0-2.8.5-5 1-5 .6 0 1-8.3 1-23s.4-23 1-23 1-1.4 1-3c0-1.7.5-3 1-3 .6 0 1-1.1 1-2.6 0-1.8 2.4-4.9 9-11.6 5-5.1 10.2-10.7 11.7-12.6 1.4-1.9 4.5-5.4 6.9-7.8 2.4-2.4 4.4-5 4.4-5.9 0-.8.4-1.5.8-1.5.5 0 1.5-2.3 2.2-5 .7-2.7 1.7-5 2.2-5 .4 0 .8-1.9.8-4.3s.5-4.8 1.1-5.4c.8-.8.8-1.7 0-3.1-1.4-2.7-1.5-29.2-.1-29.2.6 0 1-.6 1-1.3 0-.6 1.1-2.5 2.5-4.1 1.3-1.6 2.7-3.7 3-4.7.4-1.1 1.1-1.9 1.6-1.9s.9-.9.9-1.9c0-1.1.5-2.1 1.2-2.3 1.5-.5 1.4-19.1-.2-19.6-1.4-.5-1.3-5.9.3-6.5.8-.4.8-.8.2-1.4-.6-.4-1.6-2-2.4-3.6-.8-1.5-1.8-2.7-2.3-2.7-.4 0-.8-.7-.8-1.6 0-.9-1.3-2.9-3-4.4-1.6-1.5-3-3.3-3-3.9 0-2-4.8-6.1-7-6.1-2.5 0-5 2.2-5 4.4 0 .9-.4 1.6-1 1.6-.5 0-1 .6-1 1.4 0 1.6-6.7 8.6-8.2 8.6-.5 0-3.6 2.7-6.8 6-3.2 3.3-6.6 6-7.4 6-.9 0-1.6.4-1.6 1s-3.5 1-8.4 1c-4.7 0-8.8-.5-9.1-1-.3-.6-1.7-1-3-1s-2.7-.5-3-1c-.3-.6-1.4-1-2.3-1-1 0-2.4-.9-3.2-2-.8-1.1-2-2-2.6-2-1.4 0-7.4-5.7-7.4-7 0-.5-2-3-4.5-5.4-4.2-4.3-5.8-7.6-3.5-7.6.6 0 1-2.7 1-6s.4-6 1-6 1-1.4 1-3c0-1.7.5-3 1-3 .6 0 1-.9 1-2s.5-2 1-2c.6 0 1-1.4 1-3 0-1.7.5-3 1-3 .6 0 1-.9 1-2s.5-2 1-2c.6 0 1-1.4 1-3 0-1.7.5-3 1-3 .6 0 1-.8 1-1.8s.9-2.4 2-3.2c1.1-.8 2-2.2 2-3.2s.5-1.8 1-1.8c.6 0 1-.6 1-1.3 0-.7.9-2.3 2-3.5 1.1-1.2 2-3.3 2-4.7 0-1.4.5-2.5 1-2.5 1.5 0 1.2-7-.4-8.6-.8-.8-2.6-1.4-4-1.4s-2.6-.5-2.6-1c0-.6-1.8-1-4-1s-4-.4-4-.9-3.7-1.1-8.2-1.4c-4.6-.4-10.5-.9-13.3-1.3-2.7-.3-5.4-.2-5.8.3zm13.2 18.8c3 .4 6.1 1.3 6.8 2 1.5 1.6 1.7 6.1.3 7-.5.3-1 2.2-1 4.1 0 1.9-.4 3.4-1 3.4-.5 0-1 1.3-1 3 0 1.6-.4 3-1 3-.5 0-1 1.8-1 4s-.4 4-1 4c-.5 0-1 1.8-1 4s-.4 4-1 4c-.5 0-1 2.2-1 5 0 2.7-.4 5-1 5-.5 0-1-.9-1-2s-.4-2-1-2c-.5 0-1-.6-1-1.3 0-.7-.9-2.3-2-3.5-1.1-1.2-2-2.8-2-3.7 0-.8-.4-1.5-1-1.5-.5 0-1-.9-1-2s-.4-2-1-2c-.5 0-1-.9-1-2s-.4-2-1-2c-.5 0-1-1.4-1-3 0-1.7-.4-3-1-3-.5 0-1-1.4-1-3 0-1.7-.4-3-1-3-.5 0-1-.9-1-2s-.4-2-1-2c-.5 0-1-1.4-1-3 0-2.1-.5-3-1.6-3-2.6 0-4.4 2.6-4.4 6.4 0 1.9-.4 3.8-1 4.1-.5.3-1 2.2-1 4.1 0 1.9-.4 3.4-1 3.4-.5 0-1 1.3-1 3 0 1.6-.4 3-1 3-.5 0-1 .9-1 1.9 0 1.1-.4 2.3-1 2.6-.5.3-1 1.7-1 3.1 0 1.3-.4 2.4-1 2.4-.5 0-1 1.3-1 3 0 1.6-.4 3-1 3-.5 0-1 .9-1 2s-.4 2-1 2c-.5 0-1 .9-1 2s-.4 2-1 2c-.5 0-1-1.3-1-2.9 0-1.7.5-3.3 1-3.6.6-.3 1-1.9 1-3.5s-.4-3.2-1-3.5c-.5-.3-1-2.4-1-4.6 0-2.1-.4-3.9-1-3.9-.5 0-1-1.4-1-3 0-1.7-.4-3-1-3-.5 0-1-1.4-1-3 0-1.7-.4-3-1-3-.5 0-1-.9-1-2s-.4-2-1-2c-.5 0-1-.9-1-2s-.4-2-1-2c-.5 0-1-.9-1-1.9 0-1.1-.5-2.1-1.2-2.3-.6-.2-.9-1.2-.5-2.1.5-1.3 1.9-1.7 6.1-1.7 3 0 5.8-.5 6.1-1 .3-.6 4.2-1 8.5-1 4.5 0 8.2-.5 8.5-1.1.7-1 15.4-.7 26.4.6zM302 328c0 1.1.5 2 1 2 .6 0 1 1.3 1 3 0 1.6.5 3 1 3 .6 0 1 .9 1 2s.5 2 1 2c.6 0 1 .9 1 2s.5 2 1 2c.6 0 1 .9 1 2s.5 2 1 2c.6 0 1 .8 1 1.8s.9 2.4 2 3.2c2.1 1.5 2.7 5.4 1 6.5-.5.3-1 1.5-1 2.6 0 1-.3 1.9-.8 1.9-.9 0-3.2 7.2-3.2 10 0 1.1-.4 2-1 2s-1 2.8-1 6.3-.4 6.7-.9 7.3c-1.7 1.6-3.7 59.2-2.1 60.8.5.5 1 2.5 1 4.3 0 1.8.5 3.3 1 3.3.6 0 1 1.3 1 3 0 1.6.5 3 1 3 .6 0 1 .8 1 1.8s.9 2.4 2 3.2c2.8 2 2.5 4.9-1 9-2.9 3.4-3 3.8-3 14.1 0 5.8-.4 10.9-.9 11.5-1 1-1.8 16.1-2.7 51.7-.4 18.9-.3 22 1.1 23.3 1.2 1.3 1.9 1.4 3 .4 1.7-1.4 2-5 .5-5-.6 0-1-6.3-1-17s.4-17 1-17 1-5.8 1-15.4c0-9.3.4-15.7 1-16.1.6-.4 1-5.3 1-11.6 0-6.6.4-10.9 1-10.9s1-1.1 1-2.5 1.1-3.7 2.5-5.1c2.5-2.5 2.6-2.6 4.3-.7.9 1.1 2.5 2.2 3.5 2.6 1.5.6 1.7 2.2 1.7 14.2 0 8.3-.4 13.5-1 13.5-.5 0-1 .9-1 2s-.4 2-1 2c-.5 0-1 .9-1 2s-.4 2-1 2c-.5 0-1 1.8-1 4s-.4 4-1 4-1 6.2-1 16.5c0 14 .2 16.7 1.5 17.2.9.3 1.9.3 2.2-.1.3-.3.5-7.1.4-15.1-.2-9.7.1-14.5.8-14.5.6 0 1.1-1.8 1.1-4s.5-4 1-4c.6 0 1-1.4 1-3 0-1.7.5-3 1-3 .6 0 1-.9 1-2s.5-2 1-2c.6 0 1-4.8 1-12.5 0-6.9.2-12.5.4-12.5 2.3 0 3.6 1.7 3.6 4.5 0 1.9.5 3.7 1 4 .6.4 1 6.3 1 14.6 0 8.6.4 13.9 1 13.9s1 2.7 1 6 .4 6 1 6 1 2.2 1 4.9c0 2.8.5 5.1 1.1 5.3 1.3.4-.4 4.1-3.1 6.8-2.6 2.6-5 7.8-4.4 9.4.3.9.8 1.6 1 1.6 1.1 0 7.4-7.1 7.4-8.2 0-.8.9-2 2-2.8 1.5-1 2-2.6 2-5.7 0-2.3-.4-4.5-1-4.8-.5-.3-1-2.6-1-5s-.4-4.7-1-5c-.5-.3-1-3-1-6s-.4-5.7-1-6c-.6-.4-1-7.3-1-17.6 0-16.2.1-16.9 2-16.9 1.1 0 2-.5 2-1 0-.6.8-1 1.8-1s2.5-1.2 3.3-2.7c.8-1.5 2.6-4.1 4.2-5.7 1.5-1.6 2.7-3.5 2.7-4.2 0-.8.5-1.4 1-1.4.6 0 1-.9 1-2s.5-2 1-2c.6 0 1-1.4 1-3 0-2.1-.5-3-1.6-3-2 0-4.4 2.4-4.4 4.4 0 .9-.4 1.6-1 1.6-.5 0-1 .8-1 1.8s-.9 2.4-2 3.2c-1.1.8-2 2-2 2.8 0 3-13 11.7-13.8 9.3-.2-.6-1.1-1.1-2.1-1.1-.9 0-2.3-.9-3.1-2-.8-1.1-2-2-2.8-2-1.8 0-4.2-2.5-4.2-4.4 0-.9-.7-1.6-1.5-1.6-2 0-6.5-4.5-6.5-6.5 0-.8-.4-1.5-1-1.5-.5 0-1-1.4-1-3 0-1.7-.4-3-.9-3-1.2 0-2.3-8.8-2.2-18.5.1-15.8 1.2-33 2.1-35 .5-1.1 1.1-6.3 1.4-11.5.5-11.3 1.5-17.8 2.7-18.6.5-.3.9-1.4.9-2.5 0-1 .6-2.9 1.3-4.2.6-1.2 1.2-2.3 1.3-2.5.4-.9 3.4 1.3 3.4 2.5 0 .9.8 2.3 1.9 3.2 1.2 1.1 1.8 2.9 1.8 5.7 0 2.9.7 4.9 2.2 6.5 1.1 1.2 2.1 2.7 2.1 3.2s1.3 2.1 2.8 3.5c1.6 1.5 3.1 3.5 3.5 4.4.3 1 1.2 1.8 1.9 1.8.8 0 2 .9 2.8 2 .8 1.1 2.2 2 3.2 2s1.8.4 1.8 1c0 .5 1.1 1 2.4 1 1.4 0 2.8.4 3.1 1 .4.6 6.2 1 14 1s13.6-.4 14-1c.3-.6 2.1-1 4-1 2.7 0 4.3-.9 7.6-4.2 2.6-2.6 4.4-3.8 4.7-3 .2.6 1.7 1.2 3.3 1.2 1.6 0 2.9.4 2.9 1 0 .5.7 1 1.5 1s2.6 1 4 2.2c3.3 2.8 3.5 9.8.5 13-1.1 1.2-2 2.8-2 3.5 0 .7-.4 1.3-1 1.3-.5 0-1 .7-1 1.5s-.4 1.5-1 1.5c-.5 0-1-.7-1-1.5s.5-1.5 1-1.5c.6 0 1-1.4 1-3 0-1.7.5-3 1-3 1.4 0 1.2-7.4-.2-8.8-2.5-2.5-5.9-1.3-10.8 3.8-2.7 2.7-5.3 5-5.9 5-.6 0-2.4 1.3-3.9 3-2 2.1-3.9 3-6 3-1.7 0-3.4.4-3.7 1-.3.5-1.5 1-2.6 1-1 0-1.9.4-1.9 1 0 .5-.7 1-1.6 1-2 0-4.4 2.4-4.4 4.4 0 .9-.4 1.6-1 1.6-.5 0-1 1.3-1 3 0 1.6.5 3 1 3 .6 0 1 7.5 1 20.6 0 16.5.3 20.8 1.4 22 1.7 1.6 10.6 2 10.6.4 0-.6.8-1 1.8-1s2.4-.9 3.2-2c.8-1.1 2-2 2.6-2 1.8 0 12.4-10.6 12.4-12.4 0-.9.5-1.6 1-1.6.6 0 1-5.8 1-15.3 0-10.1.4-16.2 1.3-18 1.4-3.2 2.7-3.5 2.7-.7 0 1.1-.4 2-1 2-.5 0-1.1 7.2-1.3 17.2-.5 19.2-1.1 23.5-3.8 25.9-1.1.9-1.9 2.2-1.9 2.8 0 .6-4 5.2-9 10.1-4.9 4.9-9 9.3-9 9.8s-1.8 2.8-4 5.1c-2.2 2.2-4 4.5-4 5 0 .4-1.3 2.2-3 3.9-1.7 1.8-3 3.9-3 4.7 0 .8-.4 1.5-1 1.5-.5 0-1 .9-1 2s-.4 2-1 2-1 8.6-1 23.9c0 14.9-.4 24.2-1 24.6-.5.3-1 1.7-1 3.1 0 1.3-.4 2.4-1 2.4-.5 0-1 .8-1 1.8s-.9 2.4-2 3.2c-1.1.8-2 2.1-2 3 0 .9-.9 2.2-2 3-1.1.8-2 2.2-2 3.2s-.4 1.8-1 1.8c-.5 0-1 .9-1 2s-.4 2-.9 2c-1.1 0-2.1 5.4-2.8 14.7-.3 4.9-.1 7.3.6 7.3.6 0 1.1 1.3 1.1 3 0 1.6.5 3 1 3 .6 0 1 1.3 1 2.9 0 1.7.5 3.3 1 3.6.6.3 1 4.4 1 9.1 0 4.9-.4 8.4-1 8.4-.5 0-1 1-1 2.3 0 2.6-2.1 7.7-3.2 7.7-.5 0-.8.7-.8 1.6 0 .9-1.3 2.9-3 4.4-1.6 1.5-3 3.4-3 4.2 0 .7-.9 2-2 2.8-1.2.8-2 2.6-2 4.2 0 1.5-.4 2.8-1 2.8s-1 4.5-1 11.4c0 6.6-.4 11.7-1 12.1-.5.3-1 1.9-1 3.6 0 1.6-.4 2.9-1 2.9-.5 0-1 1.3-1 3 0 1.6-.4 3-1 3-.5 0-1 1-1 2.2-.1 3.6-2.4 5.8-6 5.8-2.5 0-4-.9-6.6-3.7-1.9-2-3.4-4.3-3.4-5 0-.7-.4-1.3-1-1.3-.5 0-1-1.2-1-2.6 0-1.4-.6-3.2-1.4-4-2.1-2.1-4.6-1.7-4.6.6 0 1.1-.4 2-1 2-.5 0-1 .7-1 1.5 0 2-8.5 10.5-10.5 10.5-.8 0-1.5.4-1.5 1 0 1.8-3 1.1-5.5-1.3-2-1.9-2.5-3.5-2.9-10.7-.4-4.7-.9-12.2-1.2-16.7-.3-4.6-1-8.3-1.5-8.3s-.9-1.3-.9-2.9c0-1.7-.4-3.3-1-3.6-.5-.3-1-1.7-1-3.1 0-1.3-.4-2.4-1-2.4-.5 0-1-.9-1-2s-.4-2-1-2c-.5 0-1-.9-1-2s-.4-2-1-2c-.5 0-1-1-1-2.3 0-1.3-.3-2.7-.7-3.1-1.1-1.1-3.3-7.9-3.3-10.4 0-1.2-.4-2.2-1-2.2s-1-5-1-13 .4-13 1-13 1-1.8 1-4-.4-4-1-4c-.5 0-1-2.3-1-5 0-2.8-.4-5-1-5-.5 0-1-1.4-1-3 0-1.7-.4-3-1-3-.5 0-1-1.4-1-3 0-1.7-.4-3-1-3-.5 0-1-.9-1-2s-.4-2-1-2c-.5 0-1-.9-1-1.9 0-1.1-.4-2.3-1-2.6-.5-.3-1-1.7-1-3.1 0-1.3-.4-2.4-1-2.4s-1-7.7-1-21-.4-21-1-21c-.5 0-1-1.1-1-2.4 0-1.4-.4-2.8-1-3.1-.5-.3-1-1.9-1-3.6 0-1.6-.4-2.9-1-2.9-.5 0-1-.9-1-2s-.4-2-1-2c-.5 0-1-.7-1-1.5s-1.3-2.9-3-4.7c-1.6-1.7-3-3.5-3-4s-2.2-3.1-5-5.8c-2.7-2.7-5-5.4-5-6 0-.6-4.5-5.5-10-11l-10-9.9v-6.6c0-3.7.4-6.5 1-6.5s1 .7 1 1.5c0 1.7 4.3 6.5 5.8 6.5.5 0 2.8 1.8 5.1 4 2.2 2.2 4.7 4 5.4 4 .7 0 1.9.9 2.7 2 .8 1.1 2.2 2 3.2 2s1.8.4 1.8 1c0 .5.9 1 2 1s2 .4 2 1c0 1.5 2.9 1.2 4.6-.4 1.1-1.2 1.4-6.1 1.4-26 0-15.7-.4-24.6-1-24.6-.5 0-1-.7-1-1.5 0-2-4.5-6.5-6.5-6.5-.8 0-1.5-.5-1.5-1 0-.6-.9-1-2-1s-2-.5-2-1c0-.6-.9-1-2-1s-2-.5-2-1c0-.6-.7-1-1.5-1s-2.9-1.3-4.7-3c-1.7-1.7-3.5-3-4-3-.6 0-2.3-1.4-3.8-3-2.3-2.5-3.6-3-7.4-3-3.9 0-4.6.3-4.6 2 0 1.1.5 2 1 2 .6 0 1 1.3 1 3 0 1.6.5 3 1 3 .6 0 1 .9 1 2s.5 2 1 2c.6 0 1 .9 1 2s.4 2 .8 2c1.5 0 3.2 5 3.2 9.5 0 2.5-.4 4.5-1 4.5s-1 4.2-1 10.5-.4 10.5-1 10.5-1-5.5-1-14.5-.4-14.5-1-14.5c-.5 0-1-1.4-1-3 0-1.7-.4-3-1-3-.5 0-1-.8-1-1.8s-.9-2.4-2-3.2c-1.1-.8-2-2.2-2-3.2s-.4-1.8-1-1.8c-.5 0-1-1.8-1-4s.5-4 1-4c.6 0 1-.7 1-1.5 0-2 4.5-6.5 6.5-6.5.8 0 1.5-.4 1.5-.8 0-.5 1.1-1.5 2.4-2.2 2.3-1.2 2.8-1 6.5 2.9 2.2 2.2 4.7 4.1 5.5 4.1.9 0 1.6.4 1.6 1 0 .5.9 1 1.9 1 1.1 0 2.3.4 2.6 1 .3.5 2.2 1 4.1 1 1.9 0 3.4.4 3.4 1s4.3 1 11 1 11-.4 11-1 1.4-1 3-1c1.7 0 3-.4 3-.8 0-.5 1.2-1.5 2.7-2.3 3.8-1.9 11.3-9.5 11.3-11.4 0-.8.3-1.5.8-1.5.7 0 3.2-4.8 3.2-6.3 0-.5 1.4-2.2 3-3.7 1.7-1.5 3-3.3 3-4 0-1.2 2.4-4 3.4-4 .3 0 .6 3.1.6 7 0 4 .4 7 1 7s1 2.7 1 6 .4 6 1 6 1 2.7 1 6 .4 6 1 6 1 6.3 1 17-.4 17-1 17c-.5 0-1 2-1 4.4 0 2.5-.4 4.8-1 5.1-.5.3-1 1.5-1 2.6 0 1-.4 1.9-1 1.9-.5 0-1 .9-1 2s-.4 2-1 2c-.5 0-1 .9-1 2s-.4 2-1 2c-.5 0-1 .9-1 2s-.4 2-1 2c-.5 0-1 .8-1 1.8s-.9 2.4-2 3.2c-1.1.8-2 1.9-2 2.6 0 1.5-8.5 10.4-10 10.4-1.6 0-4-2.5-4-4.2 0-.8-.9-2-2-2.8-1.1-.8-2-2.1-2-2.8 0-.8-1.3-2.7-3-4.2-1.6-1.5-3-3.4-3-4.2 0-.7-.9-2-2-2.8-1.1-.8-2-2-2-2.8 0-1.8-2.5-4.2-4.4-4.2-.9 0-1.6.8-1.6 2 0 1.1.5 2 1 2 .6 0 1 .8 1 1.8s.9 2.4 2 3.2c1.1.8 2 2.1 2 2.8 0 .8 1.4 2.7 3 4.2 1.7 1.5 3 3.4 3 4.2 0 .7.9 2 2 2.8 1.1.8 2 2.2 2 3.2s.5 1.8 1 1.8c.6 0 1 3.1 1 7.4 0 4.1.5 7.8 1 8.1.6.4 1 5.5 1 12.1 0 11.2 0 11.5-2.9 14.5-3.2 3.3-3.9 7.6-3.3 20.2.3 5.7.7 6.9 3.7 10.1 3.4 3.7 6.5 4.7 6.5 2.1 0-.8-1.3-2.9-3-4.7-2.9-3-3-3.5-3-12 0-8.7.1-9.1 3-11.8 1.8-1.7 3-3.8 3-5.4 0-1.4.5-2.6 1-2.6 1.3 0 1.3-10.3.1-11.6-1.2-1.2-1.9-20.4-.8-20.4.5 0 1.5-.7 2.4-1.5 1.8-1.8 3.3-1.1 3.3 1.5 0 1 .5 2.2 1 2.5.6.3 1 2.2 1 4.1 0 1.9.5 3.4 1 3.4.6 0 1 1.8 1 4s.5 4 1 4c.6 0 1 1.8 1 4s.5 4 1 4c.6 0 1 1.8 1 4s.5 4 1 4c.6 0 1 6.9 1 18.6 0 15.3.3 18.8 1.5 20.1.9.8 2.2 1.2 3 .9 1.7-.6 2.1-3.6.5-3.6-.6 0-1-7-1-19s-.4-19-1-19c-.5 0-1-1.8-1-4s-.4-4-1-4c-.5 0-1-1.8-1-4s-.4-4-1-4c-.5 0-1-1.8-1-4s-.4-4-1-4c-.5 0-1-1.8-1-4s-.4-4-1-4c-.5 0-1-2-1-4.4 0-3.4.6-4.9 3-7.4 1.7-1.8 3-3.9 3-4.7 0-.8.3-1.5.6-1.5 1.5 0 3.3 3.7 3.4 6.7 0 1.8.5 3.3 1 3.3.6 0 1 1.8 1 4s.5 4 1 4c.6 0 1 1.3 1 3 0 1.6.5 3 1 3 .6 0 1 4 1 10s.4 10 1 10 1 8.3 1 22.9c0 14.3.4 23.2 1 23.6.6.3 1 3 1 6s.5 5.7 1 6c.6.3 1 2.2 1 4.1 0 2.7.4 3.4 2 3.4 1.7 0 2-.7 2-5 0-2.8-.4-5-1-5s-1-2.6-1-5.9c0-3.3-.4-6.3-1-6.6-.6-.4-1-9.8-1-25.1 0-15.6-.4-24.4-1-24.4s-1-3.3-1-8-.4-8-1-8c-.5 0-1-1.4-1-3 0-1.7-.4-3-1-3-.5 0-1-1.8-1-4s-.4-4-1-4c-.5 0-1-1.8-1-3.9 0-2.2-.4-4.3-1-4.6-.5-.3-1-2.6-1-5.1 0-2.4.5-4.4 1-4.4.6 0 1-.9 1-1.9 0-1.1.5-2.3 1-2.6.6-.3 1-1.7 1-3.1 0-1.3.5-2.4 1-2.4.6 0 1-1.8 1-4s.5-4 1-4c.6 0 1-7.3 1-20s-.4-20-1-20-1-2.6-1-5.9c0-3.3-.4-6.3-1-6.6-.5-.3-1-3.3-1-6.5s-.4-6.2-1-6.5c-.5-.3-1-3.3-1-6.6 0-5.2-.2-5.9-2-5.9-1.1 0-2-.5-2-1 0-.6.5-1 1-1 .6 0 1-.9 1-2s.5-2 1-2c.6 0 1-.9 1-2s.5-2 1-2c.6 0 1-1.4 1-3 0-1.7.5-3 1-3 .6 0 1-.9 1-2s.5-2 1-2c.6 0 1-1.4 1-3 0-1.7.5-3 1-3 .6 0 1-1.4 1-3 0-1.7.5-3 1-3 .6 0 1-1.4 1-3 0-2.3.4-3 2-3 1.3 0 2 .7 2 2z"/><path d="M246 417c0 .5-.9 1-2 1-1.8 0-2 .7-2 5.5v5.5l7.5 7.5c7.6 7.6 10.3 8.9 13.1 6 1.1-1.1 1.2-1.9.4-3.4-.5-1.1-1-4.5-1-7.5 0-3.1-.4-5.6-1-5.6-.5 0-1-.9-1-2s-.4-2-1-2c-.5 0-1-.9-1-2 0-1.3-.7-2-2-2-1.1 0-2-.5-2-1 0-.6-1.8-1-4-1s-4 .4-4 1zm97.3 1.6c-1.8 1.4-3.3 3.1-3.3 3.8 0 .6-.9 1.8-2 2.6s-2 2.4-2 3.7c0 1.2-.4 2.5-1 2.8-.5.3-1 2.6-1 5.1 0 6.7 3.9 9.7 7 5.4.8-1.1 1.9-2 2.6-2 1.4 0 9.5-7.8 11.2-10.8.6-1.2 1.2-2.9 1.2-3.7 0-.8.5-1.5 1-1.5 2 0 .9-3.3-1.7-5.6-3.6-3.1-8-3-12 .2zm-72.2 144.7c-.8 1-.6 1.9.9 3.5 1.1 1.2 2 3 2 4.1 0 1.1.5 2.3 1 2.6.6.3 1 3.7 1 7.5s-.4 7.2-1 7.5c-.5.3-1 2.2-1 4.1 0 1.9-.4 3.4-1 3.4-.5 0-1 1.3-1 3 0 1.6-.4 3-1 3-.5 0-1 .9-1 2s-.4 2-1 2c-.5 0-1 .9-1 2s-.4 2-1 2c-.5 0-1 1.3-1 2.9 0 1.7-.4 3.3-1 3.6-.5.3-1 2.2-1 4.1 0 1.9.5 3.4 1 3.4.6 0 1 2.2 1 5 0 2.7.5 5 1 5 .6 0 1 1.3 1 3 0 1.6.5 3 1 3 .6 0 1 .9 1 2s.5 2 1 2c.6 0 1 1.3 1 2.9 0 1.7.5 3.3 1 3.6.6.3 1 2.2 1 4.1 0 1.9.5 3.4 1 3.4.6 0 1 2.2 1 5 0 2.7.5 5 1 5 .6 0 1 2.2 1 5 0 2.7.5 5 1 5 .6 0 1 1.3 1 3 0 1.6.5 3 1 3 .6 0 1 1.3 1 2.8 0 1.6.8 3.4 2 4.2 1.1.8 2 2.2 2 3.2 0 2.7 5.8 2.4 9.3-.6 2.4-2.1 2.7-3 2.7-8.4 0-3.3-.4-6.4-1-6.7-.5-.3-1-1.9-1-3.6 0-1.6-.4-2.9-1-2.9-.5 0-1-1.8-1-4s-.4-4-1-4c-.5 0-1-2.3-1-5 0-2.8-.4-5-1-5-.5 0-1-1.4-1-3 0-1.7-.4-3-1-3-.5 0-1-.9-1-2s-.4-2-1-2c-.5 0-1-1.4-1-3 0-1.7.5-3 1-3 .6 0 1-.9 1-2s.5-2 1-2c.6 0 1-.9 1-2s.5-2 1-2c.6 0 1-.9 1-2s.5-2 1-2c.6 0 1-1.4 1-3 0-1.7.5-3 1-3 .6 0 1-1.8 1-4s-.4-4-1-4c-.5 0-1-1.8-1-4s-.4-4-1-4c-.5 0-1-1.4-1-3 0-1.7-.4-3-1-3-.5 0-1-1.4-1-3 0-1.7-.4-3-1-3-.5 0-1-1.1-1-2.4 0-1.4-.4-2.8-1-3.1-.5-.3-1-1.5-1-2.6 0-1-.4-1.9-1-1.9-.5 0-1-.9-1-2s-.4-2-1-2c-.5 0-1-.9-1-2s-.4-2-1-2c-.5 0-1-.9-1-2s-.4-2-1-2c-.5 0-1-1.2-1-2.6 0-4.4-4.4-7.1-6.9-4.1zm54.9-.3c0 .5-.7 1-1.5 1-1.7 0-6.5 4.3-6.5 5.8 0 .5-1.3 2.3-3 4-1.6 1.8-3 3.9-3 4.7 0 .8-.4 1.5-1 1.5-.5 0-1 1.5-1 3.4s-.4 3.8-1 4.1c-.5.3-1 3.5-1 7s-.4 6.7-1 7c-.5.3-1 1.9-1 3.6 0 1.6-.4 2.9-1 2.9s-1 2.7-1 6 .4 6 1 6 1 .9 1 1.9c0 1.1.5 2.3 1 2.6.6.3 1 1.7 1 3.1 0 1.3.5 2.4 1 2.4.6 0 1 1.8 1 4s.5 4 1 4c.6 0 1 3 1 7s-.4 7-1 7-1 2.7-1 6-.4 6-1 6-1 3.1-1 7.4c0 4.1-.4 7.8-1 8.1-.5.3-1 2.8-1 5.6 0 2.7.5 4.9 1 4.9.6 0 1 1.3 1 3 0 2 .5 3 1.5 3 1.7 0 6.5-4.3 6.5-5.8 0-.5 1.4-2.3 3-4 1.7-1.8 3-3.9 3-4.7 0-.8.5-1.5 1-1.5.6 0 1-.9 1-2s.5-2 1-2c.6 0 1-1.8 1-4s.5-4 1-4c.6 0 1-2.2 1-4.9 0-2.8.5-5.3 1-5.6.6-.3 1-2.8 1-5.5s.5-5.2 1-5.5c.6-.3 1-2.8 1-5.6 0-2.7.5-4.9 1-4.9.6 0 1-2.6 1-5.9 0-3.3.5-6.3 1-6.6.6-.3 1-2.6 1-5s-.4-4.7-1-5c-.5-.3-1-1.7-1-3.1 0-1.3-.4-2.4-1-2.4-.5 0-1-.9-1-2s-.4-2-1-2c-.5 0-1-.9-1-2s-.4-2-1-2c-.5 0-1-.9-1-2s-.4-2-1-2-1-3.3-1-8c0-4.4.4-8 .9-8s1.2-1.7 1.5-3.8c1.8-10.1 1.8-11.1.3-12.7-1.8-1.7-2.7-1.9-2.7-.5z"/></g><path d="M195.4 352.1c-.3.6-.1 1.6.6 2.2 1 .9 1.1.9.5-.2-.4-.8-.2-1.7.6-2.2.9-.6 1-.9.2-.9-.6 0-1.5.5-1.9 1.1z" fill="#FFF" fill-opacity=".06"/><path d="M352 294.4c0 .2.8 1 1.8 1.7 1.5 1.3 1.6 1.2.3-.4s-2.1-2.1-2.1-1.3zm-56.1 19.3c-1.3 1.6-1.2 1.7.4.4 1.6-1.3 2.1-2.1 1.3-2.1-.2 0-1 .8-1.7 1.7zm-40.9-.3c0 .2.8 1 1.8 1.7 1.5 1.3 1.6 1.2.3-.4s-2.1-2.1-2.1-1.3zm-69.1 54.3c-1.3 1.6-1.2 1.7.4.4.9-.7 1.7-1.5 1.7-1.7 0-.8-.8-.3-2.1 1.3zm148.1 4.7c0 .2.8 1 1.8 1.7 1.5 1.3 1.6 1.2.3-.4s-2.1-2.1-2.1-1.3zm-57.1 2.3c-1.3 1.6-1.2 1.7.4.4 1.6-1.3 2.1-2.1 1.3-2.1-.2 0-1 .8-1.7 1.7zm148.7 11c-.6 1.4-.5 1.5.5.6.7-.7 1-1.5.7-1.8-.3-.3-.9.2-1.2 1.2zM234 420.4c0 .2.8 1 1.8 1.7 1.5 1.3 1.6 1.2.3-.4s-2.1-2.1-2.1-1.3zm129.9 1.3c-1.3 1.6-1.2 1.7.4.4 1.6-1.3 2.1-2.1 1.3-2.1-.2 0-1 .8-1.7 1.7zM254 468.4c0 .2.8 1 1.8 1.7 1.5 1.3 1.6 1.2.3-.4s-2.1-2.1-2.1-1.3zm19.9 1.3c-1.3 1.6-1.2 1.7.4.4 1.6-1.3 2.1-2.1 1.3-2.1-.2 0-1 .8-1.7 1.7zm74 0c-1.3 1.6-1.2 1.7.4.4 1.6-1.3 2.1-2.1 1.3-2.1-.2 0-1 .8-1.7 1.7zm-89.9 4.7c0 .2.8 1 1.8 1.7 1.5 1.3 1.6 1.2.3-.4s-2.1-2.1-2.1-1.3zm117.9 13.3c-1.3 1.6-1.2 1.7.4.4 1.6-1.3 2.1-2.1 1.3-2.1-.2 0-1 .8-1.7 1.7zM236 504.4c0 .2.8 1 1.8 1.7 1.5 1.3 1.6 1.2.3-.4s-2.1-2.1-2.1-1.3zm125.9 1.3c-1.3 1.6-1.2 1.7.4.4 1.6-1.3 2.1-2.1 1.3-2.1-.2 0-1 .8-1.7 1.7zM262 552.4c0 .2.8 1 1.8 1.7 1.5 1.3 1.6 1.2.3-.4s-2.1-2.1-2.1-1.3z" fill="#FFF" fill-opacity=".19"/><path d="M194.2 94c0 1.9.2 2.7.5 1.7.2-.9.2-2.5 0-3.5-.3-.9-.5-.1-.5 1.8zm209.1-2.3c.9.2 2.3.2 3 0 .6-.3-.1-.5-1.8-.5-1.6 0-2.2.2-1.2.5zm-2.2 4.9c0 1.1.3 1.4.6.6.3-.7.2-1.6-.1-1.9-.3-.4-.6.2-.5 1.3zm-208.8 9.9c0 3.3.2 4.5.4 2.7.2-1.8.2-4.5 0-6s-.4 0-.4 3.3zm210.8-3.9c0 1.1.3 1.4.6.6.3-.7.2-1.6-.1-1.9-.3-.4-.6.2-.5 1.3zm2.1 7.4c0 1.9.2 2.7.5 1.7.2-.9.2-2.5 0-3.5-.3-.9-.5-.1-.5 1.8zm-214.9 13c0 3.6.2 5 .4 3.2.2-1.7.2-4.7 0-6.5-.2-1.7-.4-.3-.4 3.3zm217 0c0 3.6.2 5 .4 3.2.2-1.7.2-4.7 0-6.5-.2-1.7-.4-.3-.4 3.3zm2 17.5c0 4.4.2 6.1.4 3.7.2-2.3.2-5.9 0-8-.2-2-.4-.1-.4 4.3zm-216.9 4c0 5.5.1 7.6.3 4.7.2-2.9.2-7.4 0-10-.2-2.6-.3-.2-.3 5.3zm239.7-5.9c0 1.1.3 1.4.6.6.3-.7.2-1.6-.1-1.9-.3-.4-.6.2-.5 1.3zM163.2 143c0 1.4.2 1.9.5 1.2.2-.6.2-1.8 0-2.5-.3-.6-.5-.1-.5 1.3zm-2 6c0 1.4.2 1.9.5 1.2.2-.6.2-1.8 0-2.5-.3-.6-.5-.1-.5 1.3zm250.2 18.5c0 9.3.2 13.3.3 8.8.2-4.5.2-12.2 0-17-.1-4.8-.3-1.2-.3 8.2zM159.2 155c0 1.4.2 1.9.5 1.2.2-.6.2-1.8 0-2.5-.3-.6-.5-.1-.5 1.3zm279 2.5c0 1.6.2 2.2.5 1.2.2-.9.2-2.3 0-3-.3-.6-.5.1-.5 1.8zM194.4 169c0 5.8.1 8.1.3 5.2.2-2.8.2-7.6 0-10.5-.2-2.8-.3-.5-.3 5.3zm-37.2-5.5c0 1.6.2 2.2.5 1.2.2-.9.2-2.3 0-3-.3-.6-.5.1-.5 1.8zm283.1 5.5c0 3.6.2 5 .4 3.2.2-1.7.2-4.7 0-6.5-.2-1.7-.4-.3-.4 3.3zm-284.9 16.5c0 8.2.2 11.5.3 7.2.2-4.3.2-11 0-15-.1-4-.3-.5-.3 7.8zm40.9 3c0 3.3.2 4.5.4 2.7.2-1.8.2-4.5 0-6s-.4 0-.4 3.3zm213 2c0 2.2.2 3 .4 1.7.2-1.2.2-3 0-4-.3-.9-.5.1-.4 2.3zm31.1 12.5c0 5.8.1 8.1.3 5.2.2-2.8.2-7.6 0-10.5-.2-2.8-.3-.5-.3 5.3zm-33.2-3.5c0 1.6.2 2.2.5 1.2.2-.9.2-2.3 0-3-.3-.6-.5.1-.5 1.8zm-209 2.5c0 1.9.2 2.7.5 1.7.2-.9.2-2.5 0-3.5-.3-.9-.5-.1-.5 1.8zm-40.9 9.5c0 3.8.2 5.3.4 3.2.2-2 .2-5.2 0-7-.2-1.7-.4-.1-.4 3.8zm247.8-4.9c0 1.1.3 1.4.6.6.3-.7.2-1.6-.1-1.9-.3-.4-.6.2-.5 1.3zM200.2 211c0 1.4.2 1.9.5 1.2.2-.6.2-1.8 0-2.5-.3-.6-.5-.1-.5 1.3zm202.9 1.6c0 1.1.3 1.4.6.6.3-.7.2-1.6-.1-1.9-.3-.4-.6.2-.5 1.3zm-201 6c0 1.1.3 1.4.6.6.3-.7.2-1.6-.1-1.9-.3-.4-.6.2-.5 1.3zm236.2 3.9c0 2.2.2 3 .4 1.7.2-1.2.2-3 0-4-.3-.9-.5.1-.4 2.3zm-279 3c0 2.7.2 3.8.4 2.2.2-1.5.2-3.7 0-5-.2-1.2-.4 0-.4 2.8zm44.8-.9c0 1.1.3 1.4.6.6.3-.7.2-1.6-.1-1.9-.3-.4-.6.2-.5 1.3zm232.1 8.9c0 1.6.2 2.2.5 1.2.2-.9.2-2.3 0-3-.3-.6-.5.1-.5 1.8zm-275 4.5c0 1.9.2 2.7.5 1.7.2-.9.2-2.5 0-3.5-.3-.9-.5-.1-.5 1.8zm273 6c0 1.9.2 2.7.5 1.7.2-.9.2-2.5 0-3.5-.3-.9-.5-.1-.5 1.8zm-271 1.5c0 1.6.2 2.2.5 1.2.2-.9.2-2.3 0-3-.3-.6-.5.1-.5 1.8zm269 6c0 1.6.2 2.2.5 1.2.2-.9.2-2.3 0-3-.3-.6-.5.1-.5 1.8zm-267.1 3.1c0 1.1.3 1.4.6.6.3-.7.2-1.6-.1-1.9-.3-.4-.6.2-.5 1.3zm265.2 6.4c0 2.5.2 3.5.4 2.2.2-1.2.2-3.2 0-4.5-.2-1.2-.4-.2-.4 2.3zm-145 28.7c3.7.2 9.7.2 13.5 0 3.7-.2.6-.3-6.8-.3-7.4 0-10.5.1-6.7.3zm44 0c1.5.2 3.9.2 5.5 0 1.5-.2.2-.4-2.8-.4s-4.3.2-2.7.4zm92.8 6.9c0 1.1.3 1.4.6.6.3-.7.2-1.6-.1-1.9-.3-.4-.6.2-.5 1.3zm-67.9 2.9c0 1.6.2 2.2.5 1.2.2-.9.2-2.3 0-3-.3-.6-.5.1-.5 1.8zm-105 2c0 1.6.2 2.2.5 1.2.2-.9.2-2.3 0-3-.3-.6-.5.1-.5 1.8zm102.9 5.1c0 1.1.3 1.4.6.6.3-.7.2-1.6-.1-1.9-.3-.4-.6.2-.5 1.3zm-66.3 2.1c1.7.2 4.7.2 6.5 0 1.7-.2.3-.4-3.3-.4-3.6 0-5 .2-3.2.4zm37 0c1.2.2 3.2.2 4.5 0 1.2-.2.2-.4-2.3-.4s-3.5.2-2.2.4zm8.3 3.9c0 1.1.3 1.4.6.6.3-.7.2-1.6-.1-1.9-.3-.4-.6.2-.5 1.3zm-29 2c0 1.1.3 1.4.6.6.3-.7.2-1.6-.1-1.9-.3-.4-.6.2-.5 1.3zm-6.9 2.9c0 1.6.2 2.2.5 1.2.2-.9.2-2.3 0-3-.3-.6-.5.1-.5 1.8zm33.9 3.1c0 1.1.3 1.4.6.6.3-.7.2-1.6-.1-1.9-.3-.4-.6.2-.5 1.3zm-23 4c0 1.1.3 1.4.6.6.3-.7.2-1.6-.1-1.9-.3-.4-.6.2-.5 1.3zm-13 2c0 1.1.3 1.4.6.6.3-.7.2-1.6-.1-1.9-.3-.4-.6.2-.5 1.3zm34 0c0 1.1.3 1.4.6.6.3-.7.2-1.6-.1-1.9-.3-.4-.6.2-.5 1.3zm-50.9 2.4c0 1.4.2 1.9.5 1.2.2-.6.2-1.8 0-2.5-.3-.6-.5-.1-.5 1.3zm22 0c0 1.4.2 1.9.5 1.2.2-.6.2-1.8 0-2.5-.3-.6-.5-.1-.5 1.3zm42 0c0 1.4.2 1.9.5 1.2.2-.6.2-1.8 0-2.5-.3-.6-.5-.1-.5 1.3zm-32.1 1.6c0 1.1.3 1.4.6.6.3-.7.2-1.6-.1-1.9-.3-.4-.6.2-.5 1.3zm-17 2c0 1.1.3 1.4.6.6.3-.7.2-1.6-.1-1.9-.3-.4-.6.2-.5 1.3zm12 0c0 1.1.3 1.4.6.6.3-.7.2-1.6-.1-1.9-.3-.4-.6.2-.5 1.3zm22.1 1.4c0 1.9.2 2.7.5 1.7.2-.9.2-2.5 0-3.5-.3-.9-.5-.1-.5 1.8zm-47 1c0 1.4.2 1.9.5 1.2.2-.6.2-1.8 0-2.5-.3-.6-.5-.1-.5 1.3zm18 0c0 1.4.2 1.9.5 1.2.2-.6.2-1.8 0-2.5-.3-.6-.5-.1-.5 1.3zm-27.1 3.6c0 1.1.3 1.4.6.6.3-.7.2-1.6-.1-1.9-.3-.4-.6.2-.5 1.3zm67-.4c0 .7.4 2.2.9 3.3.7 1.7.9 1.5.9-1.3.1-1.7-.3-3.2-.9-3.2-.5 0-1 .6-.9 1.2zm-71.9 2.8c0 1.4.2 1.9.5 1.2.2-.6.2-1.8 0-2.5-.3-.6-.5-.1-.5 1.3zm16 .5c0 1.6.2 2.2.5 1.2.2-.9.2-2.3 0-3-.3-.6-.5.1-.5 1.8zm43 0c0 1.6.2 2.2.5 1.2.2-.9.2-2.3 0-3-.3-.6-.5.1-.5 1.8zm-51.8 13c0 6 .1 8.4.3 5.2.2-3.2.2-8.1 0-11-.2-2.9-.3-.3-.3 5.8zm-5 1.5c0 6.3.1 8.9.3 5.7.2-3.1.2-8.3 0-11.5-.2-3.1-.3-.5-.3 5.8zm68.9-3c0 4.7.2 6.6.4 4.2.2-2.3.2-6.1 0-8.5-.2-2.3-.4-.4-.4 4.3zm-50.2-4.4c0 1.1.3 1.4.6.6.3-.7.2-1.6-.1-1.9-.3-.4-.6.2-.5 1.3zm35.8 1.9c-.6 4-.4 5.3.7 4.3.3-.3.4-2.3.2-4.4l-.3-3.9-.6 4zm11.2-1.9c0 1.1.3 1.4.6.6.3-.7.2-1.6-.1-1.9-.3-.4-.6.2-.5 1.3zm-42 2c0 1.1.3 1.4.6.6.3-.7.2-1.6-.1-1.9-.3-.4-.6.2-.5 1.3zm-93 4c0 1.1.3 1.4.6.6.3-.7.2-1.6-.1-1.9-.3-.4-.6.2-.5 1.3zm133.2 2.9c0 2.7.2 3.8.4 2.2.2-1.5.2-3.7 0-5-.2-1.2-.4 0-.4 2.8zm-50.3-1c0 .8.4 1.5 1 1.5.5 0 .7-.7.4-1.5-.4-.8-.8-1.5-1-1.5-.2 0-.4.7-.4 1.5zm-81.8 4.1c-.7.8-.8 1.4-.3 1.4 1 0 2.5-1.9 2-2.5-.2-.1-1 .3-1.7 1.1zm207.6 1.1c.6.2 1.8.2 2.5 0 .6-.3.1-.5-1.3-.5-1.4 0-1.9.2-1.2.5zM200.5 364c.3.5.8 1 1.1 1 .2 0 .4-.5.4-1 0-.6-.5-1-1.1-1-.5 0-.7.4-.4 1zm87.8 5.5c0 2.7.2 3.8.4 2.2.2-1.5.2-3.7 0-5-.2-1.2-.4 0-.4 2.8zm-5 3c0 3.3.2 4.5.4 2.7.2-1.8.2-4.5 0-6s-.4 0-.4 3.3zm-14.1-1c0 1.6.2 2.2.5 1.2.2-.9.2-2.3 0-3-.3-.6-.5.1-.5 1.8zm39.9 1.1c0 1.1.3 1.4.6.6.3-.7.2-1.6-.1-1.9-.3-.4-.6.2-.5 1.3zm5.1 4.4c0 1.4.2 1.9.5 1.2.2-.6.2-1.8 0-2.5-.3-.6-.5-.1-.5 1.3zm-6.9 5c0 3 .2 4.3.4 2.7.2-1.5.2-3.9 0-5.5-.2-1.5-.4-.2-.4 2.8zm-17 1c0 2.5.2 3.5.4 2.2.2-1.2.2-3.2 0-4.5-.2-1.2-.4-.2-.4 2.3zm-5 3c0 3 .2 4.3.4 2.7.2-1.5.2-3.9 0-5.5-.2-1.5-.4-.2-.4 2.8zm27 5c0 4.7.2 6.6.4 4.2.2-2.3.2-6.1 0-8.5-.2-2.3-.4-.4-.4 4.3zm-135.2-4.4c0 1.1.3 1.4.6.6.3-.7.2-1.6-.1-1.9-.3-.4-.6.2-.5 1.3zm184.7.1c1.7.2 4.7.2 6.5 0 1.7-.2.3-.4-3.3-.4-3.6 0-5 .2-3.2.4zm62.4 2.3c0 1.4.2 1.9.5 1.2.2-.6.2-1.8 0-2.5-.3-.6-.5-.1-.5 1.3zm-249 4c0 1.4.2 1.9.5 1.2.2-.6.2-1.8 0-2.5-.3-.6-.5-.1-.5 1.3zm51.1-1.3c.9.2 2.3.2 3 0 .6-.3-.1-.5-1.8-.5-1.6 0-2.2.2-1.2.5zm17.5 0c.6.2 1.8.2 2.5 0 .6-.3.1-.5-1.3-.5-1.4 0-1.9.2-1.2.5zm48.5 3.8c0 2.7.2 3.8.4 2.2.2-1.5.2-3.7 0-5-.2-1.2-.4 0-.4 2.8zm13.1 7.5c0 6.9.1 9.7.3 6.2.2-3.4.2-9 0-12.5-.2-3.4-.3-.6-.3 6.3zm58.9-11.3c2 .2 5.4.2 7.5 0 2-.2.3-.4-3.8-.4s-5.8.2-3.7.4zm-77 6.3c0 3 .2 4.3.4 2.7.2-1.5.2-3.9 0-5.5-.2-1.5-.4-.2-.4 2.8zm138.9-.5c0 1.6.2 2.2.5 1.2.2-.9.2-2.3 0-3-.3-.6-.5.1-.5 1.8zm-131.8 24c0 10.4.2 14.6.3 9.2.2-5.4.2-13.9 0-19-.1-5.1-.3-.7-.3 9.8zM406.2 406c0 1.9.2 2.7.5 1.7.2-.9.2-2.5 0-3.5-.3-.9-.5-.1-.5 1.8zm-232.9 2.5c0 2.2.2 3 .4 1.7.2-1.2.2-3 0-4-.3-.9-.5.1-.4 2.3zm21.9-1.5c0 1.4.2 1.9.5 1.2.2-.6.2-1.8 0-2.5-.3-.6-.5-.1-.5 1.3zm94.2 13c0 8.5.2 12 .3 7.7.2-4.2.2-11.2 0-15.5-.1-4.2-.3-.7-.3 7.8zm21-5c0 5.8.1 8.1.3 5.2.2-2.8.2-7.6 0-10.5-.2-2.8-.3-.5-.3 5.3zm115.7-6.4c0 1.1.3 1.4.6.6.3-.7.2-1.6-.1-1.9-.3-.4-.6.2-.5 1.3zm-177.8 7.1c.9.2 2.5.2 3.5 0 .9-.3.1-.5-1.8-.5-1.9 0-2.7.2-1.7.5zm99.5 0c.6.2 1.8.2 2.5 0 .6-.3.1-.5-1.3-.5-1.4 0-1.9.2-1.2.5zm30 0c.6.2 1.8.2 2.5 0 .6-.3.1-.5-1.3-.5-1.4 0-1.9.2-1.2.5zm-179.7 4.9c0 1.1.3 1.4.6.6.3-.7.2-1.6-.1-1.9-.3-.4-.6.2-.5 1.3zm43.2 2.9c0 2.7.2 3.8.4 2.2.2-1.5.2-3.7 0-5-.2-1.2-.4 0-.4 2.8zm62.1 10c0 8.2.2 11.5.3 7.2.2-4.3.2-11 0-15-.1-4-.3-.5-.3 7.8zm-100.1-7c0 2.2.2 3 .4 1.7.2-1.2.2-3 0-4-.3-.9-.5.1-.4 2.3zm-3.2 11.2c0 8.3.3 13.3.9 13.3 1.1 0 1.2-11.4 0-20.5-.6-5-.7-3.7-.9 7.2zm198 1.5c0 7.9.4 15.2.9 16.3.5 1.2.9-4.2.9-14.3.1-10.2-.3-16.2-.9-16.2-.6 0-1 5.4-.9 14.2zM238.4 451c0 14.9.2 20.6.5 14.5.3-5.5.4-16.5 0-24.5-.4-11.9-.5-10.2-.5 10zm23.9-19c0 3 .2 4.3.4 2.7.2-1.5.2-3.9 0-5.5-.2-1.5-.4-.2-.4 2.8zm98.8-3.4c0 1.1.3 1.4.6.6.3-.7.2-1.6-.1-1.9-.3-.4-.6.2-.5 1.3zm53.3 13.4c0 7.4.1 10.5.3 6.7.2-3.7.2-9.7 0-13.5-.2-3.7-.3-.6-.3 6.8zm-229.1-4.5c0 2.7.2 3.8.4 2.2.2-1.5.2-3.7 0-5-.2-1.2-.4 0-.4 2.8zm123 .5c0 3 .2 4.3.4 2.7.2-1.5.2-3.9 0-5.5-.2-1.5-.4-.2-.4 2.8zm25-1.5c0 2.2.2 3 .4 1.7.2-1.2.2-3 0-4-.3-.9-.5.1-.4 2.3zm30.1 16c0 11 .2 15.6.3 10.3.2-5.3.2-14.3 0-20-.1-5.7-.3-1.3-.3 9.7zM287.2 442c0 1.9.2 2.7.5 1.7.2-.9.2-2.5 0-3.5-.3-.9-.5-.1-.5 1.8zm5 3.5c0 1.6.2 2.2.5 1.2.2-.9.2-2.3 0-3-.3-.6-.5.1-.5 1.8zm-108.8 14c0 7.1.1 9.9.3 6.2.2-3.7.2-9.6 0-13-.2-3.4-.3-.4-.3 6.8zm126.8-8c0 1.6.2 2.2.5 1.2.2-.9.2-2.3 0-3-.3-.6-.5.1-.5 1.8zm-5 3.5c0 1.4.2 1.9.5 1.2.2-.6.2-1.8 0-2.5-.3-.6-.5-.1-.5 1.3zm6.9 3.6c0 1.1.3 1.4.6.6.3-.7.2-1.6-.1-1.9-.3-.4-.6.2-.5 1.3zm-109.8 3.9c0 2.2.2 3 .4 1.7.2-1.2.2-3 0-4-.3-.9-.5.1-.4 2.3zm104.9-1.5c0 1.4.2 1.9.5 1.2.2-.6.2-1.8 0-2.5-.3-.6-.5-.1-.5 1.3zm53 0c0 1.4.2 1.9.5 1.2.2-.6.2-1.8 0-2.5-.3-.6-.5-.1-.5 1.3zm-74 3c0 1.9.2 2.7.5 1.7.2-.9.2-2.5 0-3.5-.3-.9-.5-.1-.5 1.8zm110.9-1.4c0 1.1.3 1.4.6.6.3-.7.2-1.6-.1-1.9-.3-.4-.6.2-.5 1.3zm17.1 3.4c0 1.9.2 2.7.5 1.7.2-.9.2-2.5 0-3.5-.3-.9-.5-.1-.5 1.8zm-126 7.5c0 1.6.2 2.2.5 1.2.2-.9.2-2.3 0-3-.3-.6-.5.1-.5 1.8zm-5.1 3.1c0 1.1.3 1.4.6.6.3-.7.2-1.6-.1-1.9-.3-.4-.6.2-.5 1.3zm85.7.1c1.2.2 3.2.2 4.5 0 1.2-.2.2-.4-2.3-.4s-3.5.2-2.2.4zm-78.6 4.8c0 1.6.2 2.2.5 1.2.2-.9.2-2.3 0-3-.3-.6-.5.1-.5 1.8zm-16 2.5c0 1.9.2 2.7.5 1.7.2-.9.2-2.5 0-3.5-.3-.9-.5-.1-.5 1.8zm11 0c0 1.9.2 2.7.5 1.7.2-.9.2-2.5 0-3.5-.3-.9-.5-.1-.5 1.8zm-27.9 5c0 3.6.2 5 .4 3.2.2-1.7.2-4.7 0-6.5-.2-1.7-.4-.3-.4 3.3zm50.1 3c0 5.2.1 7.4.3 4.7.2-2.6.2-6.8 0-9.5-.2-2.6-.3-.4-.3 4.8zm18 2.5c0 6.6.1 9.2.3 5.7.2-3.4.2-8.8 0-12-.2-3.1-.3-.3-.3 6.3zm15 6.5c0 9.1.2 12.8.3 8.2.2-4.5.2-11.9 0-16.5-.1-4.5-.3-.8-.3 8.3zm-48.3-12.4c0 1.1.3 1.4.6.6.3-.7.2-1.6-.1-1.9-.3-.4-.6.2-.5 1.3zm20.3 7.9c0 5.5.1 7.6.3 4.7.2-2.9.2-7.4 0-10-.2-2.6-.3-.2-.3 5.3zm18 1c0 6 .1 8.4.3 5.2.2-3.2.2-8.1 0-11-.2-2.9-.3-.3-.3 5.8zm-54.2-6c0 1.6.2 2.2.5 1.2.2-.9.2-2.3 0-3-.3-.6-.5.1-.5 1.8zm11-.5c0 1.4.2 1.9.5 1.2.2-.6.2-1.8 0-2.5-.3-.6-.5-.1-.5 1.3zm-22.9 7.5c0 4.4.2 6.1.4 3.7.2-2.3.2-5.9 0-8-.2-2-.4-.1-.4 4.3zm6.8-3.9c0 1.1.3 1.4.6.6.3-.7.2-1.6-.1-1.9-.3-.4-.6.2-.5 1.3zm23.2 4.4c0 3.6.2 5 .4 3.2.2-1.7.2-4.7 0-6.5-.2-1.7-.4-.3-.4 3.3zm-5 4c0 4.7.2 6.6.4 4.2.2-2.3.2-6.1 0-8.5-.2-2.3-.4-.4-.4 4.3zm-11.1-3.5c0 1.6.2 2.2.5 1.2.2-.9.2-2.3 0-3-.3-.6-.5.1-.5 1.8zm57.2 9c0 6.6.1 9.2.3 5.7.2-3.4.2-8.8 0-12-.2-3.1-.3-.3-.3 6.3zm-76 1c0 6 .1 8.4.3 5.2.2-3.2.2-8.1 0-11-.2-2.9-.3-.3-.3 5.8zm13.8-7.5c0 1.9.2 2.7.5 1.7.2-.9.2-2.5 0-3.5-.3-.9-.5-.1-.5 1.8zm7 6c0 1.9.2 2.7.5 1.7.2-.9.2-2.5 0-3.5-.3-.9-.5-.1-.5 1.8zm-5 1.5c0 1.6.2 2.2.5 1.2.2-.9.2-2.3 0-3-.3-.6-.5.1-.5 1.8zm30.2 9c0 6.6.1 9.2.3 5.7.2-3.4.2-8.8 0-12-.2-3.1-.3-.3-.3 6.3zm-9 13.5c0 12.9.2 18.2.3 11.7.2-6.4.2-17 0-23.5-.1-6.4-.3-1.1-.3 11.8zm-30.1-17.5c0 2.2.2 3 .4 1.7.2-1.2.2-3 0-4-.3-.9-.5.1-.4 2.3zm44.1 10c0 7.7.2 10.7.3 6.7.2-4 .2-10.3 0-14-.2-3.7-.3-.4-.3 7.3zm-28.2-9c0 1.6.2 2.2.5 1.2.2-.9.2-2.3 0-3-.3-.6-.5.1-.5 1.8zm-40.1 1.1c0 1.1.3 1.4.6.6.3-.7.2-1.6-.1-1.9-.3-.4-.6.2-.5 1.3zm35.1.9c0 1.6.2 2.2.5 1.2.2-.9.2-2.3 0-3-.3-.6-.5.1-.5 1.8zm14.2 19.5c0 12.4.2 17.4.3 11.2.2-6.1.2-16.3 0-22.5-.1-6.1-.3-1.1-.3 11.3zm66 .5c0 12.6.2 17.7.3 11.2.2-6.5.2-16.8 0-23-.1-6.2-.3-.9-.3 11.8zM319.2 520c0 1.9.2 2.7.5 1.7.2-.9.2-2.5 0-3.5-.3-.9-.5-.1-.5 1.8zm-34.8 18.5c0 9.9.2 13.8.3 8.7.2-5.1.2-13.2 0-18-.1-4.8-.3-.6-.3 9.3zm39.8-15c0 1.6.2 2.2.5 1.2.2-.9.2-2.3 0-3-.3-.6-.5.1-.5 1.8zm18.1 1.5c0 2.5.2 3.5.4 2.2.2-1.2.2-3.2 0-4.5-.2-1.2-.4-.2-.4 2.3zm-62.9 16c0 10.2.2 14.3.3 9.2.2-5 .2-13.4 0-18.5-.1-5-.3-.9-.3 9.3zm57.9-14c0 2.5.2 3.5.4 2.2.2-1.2.2-3.2 0-4.5-.2-1.2-.4-.2-.4 2.3zm36.8-2.4c0 1.1.3 1.4.6.6.3-.7.2-1.6-.1-1.9-.3-.4-.6.2-.5 1.3zM227.4 545c0 11.3.2 15.9.3 10.2.2-5.6.2-14.8 0-20.5-.1-5.6-.3-1-.3 10.3zm90-5c0 8.5.2 12 .3 7.7.2-4.2.2-11.2 0-15.5-.1-4.2-.3-.7-.3 7.8zm-71 6.5c0 11 .2 15.6.3 10.3.2-5.3.2-14.3 0-20-.1-5.7-.3-1.3-.3 9.7zm6.8-15.5c0 1.4.2 1.9.5 1.2.2-.6.2-1.8 0-2.5-.3-.6-.5-.1-.5 1.3zm119.1 6c0 4.7.2 6.6.4 4.2.2-2.3.2-6.1 0-8.5-.2-2.3-.4-.4-.4 4.3zm-114 2c0 4.7.2 6.6.4 4.2.2-2.3.2-6.1 0-8.5-.2-2.3-.4-.4-.4 4.3zm64.1 3c0 6.3.1 8.9.3 5.7.2-3.1.2-8.3 0-11.5-.2-3.1-.3-.5-.3 5.8zm21.8-6.5c0 1.6.2 2.2.5 1.2.2-.9.2-2.3 0-3-.3-.6-.5.1-.5 1.8zm-4.9 3c0 2.2.2 3 .4 1.7.2-1.2.2-3 0-4-.3-.9-.5.1-.4 2.3zM303.4 557c0 11.3.2 15.9.3 10.2.2-5.6.2-14.8 0-20.5-.1-5.6-.3-1-.3 10.3zm-50.1-12c0 2.5.2 3.5.4 2.2.2-1.2.2-3.2 0-4.5-.2-1.2-.4-.2-.4 2.3zm55.1 11.5c0 8.8.2 12.3.3 7.7.2-4.6.2-11.8 0-16-.1-4.2-.3-.5-.3 8.3zm37.8-11c0 1.6.2 2.2.5 1.2.2-.9.2-2.3 0-3-.3-.6-.5.1-.5 1.8zm26.2 16c0 6 .1 8.4.3 5.2.2-3.2.2-8.1 0-11-.2-2.9-.3-.3-.3 5.8zm-74.1 2c0 2.7.2 3.8.4 2.2.2-1.5.2-3.7 0-5-.2-1.2-.4 0-.4 2.8zm-5 3.5c0 2.5.2 3.5.4 2.2.2-1.2.2-3.2 0-4.5-.2-1.2-.4-.2-.4 2.3zm-15.2-.4c0 1.1.3 1.4.6.6.3-.7.2-1.6-.1-1.9-.3-.4-.6.2-.5 1.3zm52.1 1.4c0 1.9.2 2.7.5 1.7.2-.9.2-2.5 0-3.5-.3-.9-.5-.1-.5 1.8zm-105.1 2.6c0 1.1.3 1.4.6.6.3-.7.2-1.6-.1-1.9-.3-.4-.6.2-.5 1.3zm75.2 3.9c0 2.2.2 3 .4 1.7.2-1.2.2-3 0-4-.3-.9-.5.1-.4 2.3zm-25 6c0 3.3.2 4.5.4 2.7.2-1.8.2-4.5 0-6s-.4 0-.4 3.3zm19.8-3.9c0 1.1.3 1.4.6.6.3-.7.2-1.6-.1-1.9-.3-.4-.6.2-.5 1.3zm75.2 2.4c0 2.5.2 3.5.4 2.2.2-1.2.2-3.2 0-4.5-.2-1.2-.4-.2-.4 2.3zm-61.1 4c0 1.4.2 1.9.5 1.2.2-.6.2-1.8 0-2.5-.3-.6-.5-.1-.5 1.3zm17.1 5c0 4.1.2 5.8.4 3.7.2-2 .2-5.4 0-7.5-.2-2-.4-.3-.4 3.8zm-72.2-3.4c0 1.1.3 1.4.6.6.3-.7.2-1.6-.1-1.9-.3-.4-.6.2-.5 1.3zm53.2 9.4c0 3 .2 4.3.4 2.7.2-1.5.2-3.9 0-5.5-.2-1.5-.4-.2-.4 2.8zm33.9-3c0 1.4.2 1.9.5 1.2.2-.6.2-1.8 0-2.5-.3-.6-.5-.1-.5 1.3zm-68 2c0 1.4.2 1.9.5 1.2.2-.6.2-1.8 0-2.5-.3-.6-.5-.1-.5 1.3zm16.9 1.6c0 1.1.3 1.4.6.6.3-.7.2-1.6-.1-1.9-.3-.4-.6.2-.5 1.3zm-53 2c0 1.1.3 1.4.6.6.3-.7.2-1.6-.1-1.9-.3-.4-.6.2-.5 1.3zm21.2 1.9c0 2.2.2 3 .4 1.7.2-1.2.2-3 0-4-.3-.9-.5.1-.4 2.3zm12.9.5c0 1.4.2 1.9.5 1.2.2-.6.2-1.8 0-2.5-.3-.6-.5-.1-.5 1.3zm68.1 3.5c0 3.3.2 4.5.4 2.7.2-1.8.2-4.5 0-6s-.4 0-.4 3.3zm-47.2-1.9c0 1.1.3 1.4.6.6.3-.7.2-1.6-.1-1.9-.3-.4-.6.2-.5 1.3zm-52.9 3.4c0 1.9.2 2.7.5 1.7.2-.9.2-2.5 0-3.5-.3-.9-.5-.1-.5 1.8zm66 1c0 1.4.2 1.9.5 1.2.2-.6.2-1.8 0-2.5-.3-.6-.5-.1-.5 1.3zm-11 2.5c0 1.6.2 2.2.5 1.2.2-.9.2-2.3 0-3-.3-.6-.5.1-.5 1.8zm-34.1 1.1c0 1.1.3 1.4.6.6.3-.7.2-1.6-.1-1.9-.3-.4-.6.2-.5 1.3zm43.2 5.4c0 3 .2 4.3.4 2.7.2-1.5.2-3.9 0-5.5-.2-1.5-.4-.2-.4 2.8zm-38.2-1.4c0 1.1.3 1.4.6.6.3-.7.2-1.6-.1-1.9-.3-.4-.6.2-.5 1.3zm76 0c0 1.1.3 1.4.6.6.3-.7.2-1.6-.1-1.9-.3-.4-.6.2-.5 1.3zm21.2 2.9c0 2.7.2 3.8.4 2.2.2-1.5.2-3.7 0-5-.2-1.2-.4 0-.4 2.8zm-123 2.5c0 3 .2 4.3.4 2.7.2-1.5.2-3.9 0-5.5-.2-1.5-.4-.2-.4 2.8zm19.1 7c0 6.9.1 9.7.3 6.2.2-3.4.2-9 0-12.5-.2-3.4-.3-.6-.3 6.3zm37.8-9c0 1.9.2 2.7.5 1.7.2-.9.2-2.5 0-3.5-.3-.9-.5-.1-.5 1.8zm40 2c0 1.9.2 2.7.5 1.7.2-.9.2-2.5 0-3.5-.3-.9-.5-.1-.5 1.8zm6.9.6c0 1.1.3 1.4.6.6.3-.7.2-1.6-.1-1.9-.3-.4-.6.2-.5 1.3zm-48.9 4.4c0 1.4.2 1.9.5 1.2.2-.6.2-1.8 0-2.5-.3-.6-.5-.1-.5 1.3zm-28.9 5.5c0 2.2.2 3 .4 1.7.2-1.2.2-3 0-4-.3-.9-.5.1-.4 2.3zm69 1c0 2.7.2 3.8.4 2.2.2-1.5.2-3.7 0-5-.2-1.2-.4 0-.4 2.8zm11 1.5c0 3.6.2 5 .4 3.2.2-1.7.2-4.7 0-6.5-.2-1.7-.4-.3-.4 3.3zm19-1c0 3 .2 4.3.4 2.7.2-1.5.2-3.9 0-5.5-.2-1.5-.4-.2-.4 2.8zm-127 2.5c0 3.3.2 4.5.4 2.7.2-1.8.2-4.5 0-6s-.4 0-.4 3.3zm71.9 1.5c0 1.9.2 2.7.5 1.7.2-.9.2-2.5 0-3.5-.3-.9-.5-.1-.5 1.8zm-42.1 2.6c0 1.1.3 1.4.6.6.3-.7.2-1.6-.1-1.9-.3-.4-.6.2-.5 1.3zm65.2 3.9c0 2.2.2 3 .4 1.7.2-1.2.2-3 0-4-.3-.9-.5.1-.4 2.3zm-72.1.5c0 1.4.2 1.9.5 1.2.2-.6.2-1.8 0-2.5-.3-.6-.5-.1-.5 1.3zm26 0c0 1.4.2 1.9.5 1.2.2-.6.2-1.8 0-2.5-.3-.6-.5-.1-.5 1.3zm25.1 3c0 3 .2 4.3.4 2.7.2-1.5.2-3.9 0-5.5-.2-1.5-.4-.2-.4 2.8zm50.9-3c0 1.4.2 1.9.5 1.2.2-.6.2-1.8 0-2.5-.3-.6-.5-.1-.5 1.3zm-123.1 1.6c0 1.1.3 1.4.6.6.3-.7.2-1.6-.1-1.9-.3-.4-.6.2-.5 1.3zm104 0c0 1.1.3 1.4.6.6.3-.7.2-1.6-.1-1.9-.3-.4-.6.2-.5 1.3zm17.1 4.4c0 1.4.2 1.9.5 1.2.2-.6.2-1.8 0-2.5-.3-.6-.5-.1-.5 1.3zm-70.1 3.6c0 1.1.3 1.4.6.6.3-.7.2-1.6-.1-1.9-.3-.4-.6.2-.5 1.3zm40.1 1.4c0 1.9.2 2.7.5 1.7.2-.9.2-2.5 0-3.5-.3-.9-.5-.1-.5 1.8zm-57.1 2.6c0 1.1.3 1.4.6.6.3-.7.2-1.6-.1-1.9-.3-.4-.6.2-.5 1.3zm36.2 2.4c0 2.5.2 3.5.4 2.2.2-1.2.2-3.2 0-4.5-.2-1.2-.4-.2-.4 2.3zm-17 1.5c0 2.2.2 3 .4 1.7.2-1.2.2-3 0-4-.3-.9-.5.1-.4 2.3zm-17 4.5c0 2.5.2 3.5.4 2.2.2-1.2.2-3.2 0-4.5-.2-1.2-.4-.2-.4 2.3zm53-.5c0 2.2.2 3 .4 1.7.2-1.2.2-3 0-4-.3-.9-.5.1-.4 2.3zm-77.2 4.1c0 1.1.3 1.4.6.6.3-.7.2-1.6-.1-1.9-.3-.4-.6.2-.5 1.3zm43.1.9c0 1.6.2 2.2.5 1.2.2-.9.2-2.3 0-3-.3-.6-.5.1-.5 1.8zm13.1 3.5c0 3.6.2 5 .4 3.2.2-1.7.2-4.7 0-6.5-.2-1.7-.4-.3-.4 3.3zm-30 1.5c0 2.2.2 3 .4 1.7.2-1.2.2-3 0-4-.3-.9-.5.1-.4 2.3zm49.4 7.1c.3 6 .7 11.1.9 11.3.8.9.3-19.5-.5-20.8-.5-.8-.7 3-.4 9.5zm-73.4-4.6c0 2.5.2 3.5.4 2.2.2-1.2.2-3.2 0-4.5-.2-1.2-.4-.2-.4 2.3zm18.8-2.4c0 1.1.3 1.4.6.6.3-.7.2-1.6-.1-1.9-.3-.4-.6.2-.5 1.3zm76.1.9c0 1.6.2 2.2.5 1.2.2-.9.2-2.3 0-3-.3-.6-.5.1-.5 1.8zm-52.1 1.1c0 1.1.3 1.4.6.6.3-.7.2-1.6-.1-1.9-.3-.4-.6.2-.5 1.3zm-21.8 8.4c0 3.6.2 5 .4 3.2.2-1.7.2-4.7 0-6.5-.2-1.7-.4-.3-.4 3.3zm4.8-2.4c0 1.1.3 1.4.6.6.3-.7.2-1.6-.1-1.9-.3-.4-.6.2-.5 1.3zm19.2 5.4c0 3 .2 4.3.4 2.7.2-1.5.2-3.9 0-5.5-.2-1.5-.4-.2-.4 2.8zm7-1.5c0 2.2.2 3 .4 1.7.2-1.2.2-3 0-4-.3-.9-.5.1-.4 2.3zm41 2c0 3.3.2 4.5.4 2.7.2-1.8.2-4.5 0-6s-.4 0-.4 3.3zm-91 .5c0 2.5.2 3.5.4 2.2.2-1.2.2-3.2 0-4.5-.2-1.2-.4-.2-.4 2.3zm51.8 5.6c0 1.1.3 1.4.6.6.3-.7.2-1.6-.1-1.9-.3-.4-.6.2-.5 1.3zM257.4 704c0 6.3.1 8.9.3 5.7.2-3.1.2-8.3 0-11.5-.2-3.1-.3-.5-.3 5.8zm67.7-7.4c0 1.1.3 1.4.6.6.3-.7.2-1.6-.1-1.9-.3-.4-.6.2-.5 1.3zm19.2 2.9c0 2.7.2 3.8.4 2.2.2-1.5.2-3.7 0-5-.2-1.2-.4 0-.4 2.8zm-68 4c0 3.3.2 4.5.4 2.7.2-1.8.2-4.5 0-6s-.4 0-.4 3.3zm46.8-.9c0 1.1.3 1.4.6.6.3-.7.2-1.6-.1-1.9-.3-.4-.6.2-.5 1.3zm19.1 9.4c0 1.9.2 2.7.5 1.7.2-.9.2-2.5 0-3.5-.3-.9-.5-.1-.5 1.8z" fill="#FFF" fill-opacity=".25"/><path d="M399.4 92.1c-.3.6-.2 1.5.3 2s.9.1.9-1.1c0-2.3-.2-2.4-1.2-.9zm-209.9 246c-.4.6-.5 1.2-.2 1.5.2.3.7-.2 1-1.1.7-1.7.1-2-.8-.4zm123 14.9c1 1.1 2 2 2.3 2 .3 0-.3-.9-1.3-2s-2-2-2.3-2c-.3 0 .3.9 1.3 2zm28 18c1 1.1 2 2 2.3 2 .3 0-.3-.9-1.3-2s-2-2-2.3-2c-.3 0 .3.9 1.3 2zm-130 6c1 1.1 2 2 2.3 2 .3 0-.3-.9-1.3-2s-2-2-2.3-2c-.3 0 .3.9 1.3 2zm46.9 1.2-2.9 3.3 3.3-2.9c1.7-1.7 3.2-3.1 3.2-3.3 0-.8-.8-.1-3.6 2.9zm-40.9 4.8c1 1.1 2 2 2.3 2 .3 0-.3-.9-1.3-2s-2-2-2.3-2c-.3 0 .3.9 1.3 2zm51.9 6.2-1.9 2.3 2.3-1.9c1.2-1.1 2.2-2.1 2.2-2.3 0-.8-.8-.2-2.6 1.9zm64.1-.2c1 1.1 2 2 2.3 2 .3 0-.3-.9-1.3-2s-2-2-2.3-2c-.3 0 .3.9 1.3 2zm-138.1 6.2-1.9 2.3 2.3-1.9c2.1-1.8 2.7-2.6 1.9-2.6-.2 0-1.2 1-2.3 2.2zm68 0-1.9 2.3 2.3-1.9c1.2-1.1 2.2-2.1 2.2-2.3 0-.8-.8-.2-2.6 1.9zm130 0-1.9 2.3 2.2-1.8c1.2-1.1 2.7-1.6 3.4-1.1.8.4 1 .3.5-.4-1-1.7-2.1-1.5-4.2 1zM176.5 419c1 1.1 2 2 2.3 2 .3 0-.3-.9-1.3-2s-2-2-2.3-2c-.3 0 .3.9 1.3 2zm66 12c1 1.1 2 2 2.3 2 .3 0-.3-.9-1.3-2s-2-2-2.3-2c-.3 0 .3.9 1.3 2zm6 6c1 1.1 2 2 2.3 2 .3 0-.3-.9-1.3-2s-2-2-2.3-2c-.3 0 .3.9 1.3 2zm99.9.2-1.9 2.3 2.3-1.9c1.2-1.1 2.2-2.1 2.2-2.3 0-.8-.8-.2-2.6 1.9zm-93.9 5.8c1 1.1 2 2 2.3 2 .3 0-.3-.9-1.3-2s-2-2-2.3-2c-.3 0 .3.9 1.3 2zm7.9.2-1.9 2.3 2.3-1.9c1.2-1.1 2.2-2.1 2.2-2.3 0-.8-.8-.2-2.6 1.9zm72.1-.2c1 1.1 2 2 2.3 2 .3 0-.3-.9-1.3-2s-2-2-2.3-2c-.3 0 .3.9 1.3 2zm5.9.2-1.9 2.3 2.3-1.9c1.2-1.1 2.2-2.1 2.2-2.3 0-.8-.8-.2-2.6 1.9zM206.5 461c1 1.1 2 2 2.3 2 .3 0-.3-.9-1.3-2s-2-2-2.3-2c-.3 0 .3.9 1.3 2zm187.9.2-1.9 2.3 2.3-1.9c1.2-1.1 2.2-2.1 2.2-2.3 0-.8-.8-.2-2.6 1.9zM214.5 467c1 1.1 2 2 2.3 2 .3 0-.3-.9-1.3-2s-2-2-2.3-2c-.3 0 .3.9 1.3 2zm173.9.2-1.9 2.3 2.3-1.9c2.1-1.8 2.7-2.6 1.9-2.6-.2 0-1.2 1-2.3 2.2zM222.5 473c1 1.1 2 2 2.3 2 .3 0-.3-.9-1.3-2s-2-2-2.3-2c-.3 0 .3.9 1.3 2zm157.9.2-1.9 2.3 2.3-1.9c2.1-1.8 2.7-2.6 1.9-2.6-.2 0-1.2 1-2.3 2.2zM186.5 479c1 1.1 2 2 2.3 2 .3 0-.3-.9-1.3-2s-2-2-2.3-2c-.3 0 .3.9 1.3 2zm129.9.2-1.9 2.3 2.3-1.9c2.2-1.9 2.2-1.9 4.5 0l2.2 1.9-1.9-2.3c-1.1-1.2-2.2-2.2-2.6-2.2-.4 0-1.5 1-2.6 2.2zM192.5 485c1 1.1 2 2 2.3 2 .3 0-.3-.9-1.3-2s-2-2-2.3-2c-.3 0 .3.9 1.3 2zm213.9.2-1.9 2.3 2.3-1.9c2.1-1.8 2.7-2.6 1.9-2.6-.2 0-1.2 1-2.3 2.2zM202.5 497c1 1.1 2 2 2.3 2 .3 0-.3-.9-1.3-2s-2-2-2.3-2c-.3 0 .3.9 1.3 2zm10 12c1 1.1 2 2 2.3 2 .3 0-.3-.9-1.3-2s-2-2-2.3-2c-.3 0 .3.9 1.3 2zm10 12c1 1.1 2 2 2.3 2 .3 0-.3-.9-1.3-2s-2-2-2.3-2c-.3 0 .3.9 1.3 2zm39.9 6.2-1.9 2.3 2.3-1.9c1.2-1.1 2.2-2.1 2.2-2.3 0-.8-.8-.2-2.6 1.9zm-3.9 29.8c1 1.1 2 2 2.3 2 .3 0-.3-.9-1.3-2s-2-2-2.3-2c-.3 0 .3.9 1.3 2zm81.9.2-1.9 2.3 2.3-1.9c1.2-1.1 2.2-2.1 2.2-2.3 0-.8-.8-.2-2.6 1.9zm-6.4 5.2c.7.7 1.3.7 2 0 .6-.6.3-1-1-1s-1.6.4-1 1zm-21.6 132.8-1.9 2.3 2.3-1.9c2.1-1.8 2.7-2.6 1.9-2.6-.2 0-1.2 1-2.3 2.2zM262.5 725c1 1.1 2 2 2.3 2 .3 0-.3-.9-1.3-2s-2-2-2.3-2c-.3 0 .3.9 1.3 2z" fill="#FFF" fill-opacity=".18"/><path d="M304.8 306.7c2.3.2 6.1.2 8.5 0 2.3-.2.4-.4-4.3-.4s-6.6.2-4.2.4zm-32 4c1.2.2 3.2.2 4.5 0 1.2-.2.2-.4-2.3-.4s-3.5.2-2.2.4zm-44 78c2.3.2 6.1.2 8.5 0 2.3-.2.4-.4-4.3-.4s-6.6.2-4.2.4zm-5 12c.6.2 1.8.2 2.5 0 .6-.3.1-.5-1.3-.5-1.4 0-1.9.2-1.2.5zm28 0c.6.2 1.8.2 2.5 0 .6-.3.1-.5-1.3-.5-1.4 0-1.9.2-1.2.5zm130 0c.6.2 1.8.2 2.5 0 .6-.3.1-.5-1.3-.5-1.4 0-1.9.2-1.2.5zm-151 2c1.2.2 3.2.2 4.5 0 1.2-.2.2-.4-2.3-.4s-3.5.2-2.2.4zm12 0c1.2.2 3.2.2 4.5 0 1.2-.2.2-.4-2.3-.4s-3.5.2-2.2.4zm112 0c1.2.2 3.2.2 4.5 0 1.2-.2.2-.4-2.3-.4s-3.5.2-2.2.4zm13 0c1.7.2 4.7.2 6.5 0 1.7-.2.3-.4-3.3-.4-3.6 0-5 .2-3.2.4zm-110 42c.6.2 1.8.2 2.5 0 .6-.3.1-.5-1.3-.5-1.4 0-1.9.2-1.2.5zm30 252c.6.2 1.8.2 2.5 0 .6-.3.1-.5-1.3-.5-1.4 0-1.9.2-1.2.5zm-9 36c2.3.2 6.1.2 8.5 0 2.3-.2.4-.4-4.3-.4s-6.6.2-4.2.4zm36 0c2.3.2 6.1.2 8.5 0 2.3-.2.4-.4-4.3-.4s-6.6.2-4.2.4z" fill="#FFF" fill-opacity=".25"/><path d="M403.4 347c0 1.3.4 1.6 1 1 .7-.7.7-1.3 0-2-.6-.6-1-.3-1 1z" fill="#FFF" fill-opacity=".04"/><path d="M193.6 359.8c-.2.4.4.8 1.4.8 1 0 1.6-.4 1.4-.8-.3-.4-.9-.8-1.4-.8-.5 0-1.1.4-1.4.8z" fill="#FFF" fill-opacity=".09"/><path d="M442.2 183c0 1.4.2 1.9.5 1.2.2-.6.2-1.8 0-2.5-.3-.6-.5-.1-.5 1.3z" fill="#FFF" fill-opacity=".2"/><path d="M385.6 407.8c-.2.4.4.8 1.4.8 1 0 1.6-.4 1.4-.8-.3-.4-.9-.8-1.4-.8-.5 0-1.1.4-1.4.8z" fill="#FFF" fill-opacity=".06"/><path d="M397.5 335.9c-.3.5-.2 1.2.3 1.5.5.3.9-.1.9-.9 0-1.7-.3-1.9-1.2-.6z" fill="#FFF" fill-opacity=".02"/><path d="M181.6 311.8c-.2.4.4.8 1.4.8 1 0 1.6-.4 1.4-.8-.3-.4-.9-.8-1.4-.8-.5 0-1.1.4-1.4.8zM388 340c-.9.6-1 1-.3 1 .6 0 1.5-.5 1.8-1 .8-1.2.4-1.2-1.5 0z" fill="#FFF" fill-opacity=".01"/><path d="M323.4 374.1c-.3.6-.2 1.5.3 2s.9.1.9-1.1c0-2.3-.2-2.4-1.2-.9z" fill="#FFF" fill-opacity=".1"/><path d="M183.4 324.1c-.3.6-.1 1.6.5 2.2.9.9 1 .7.5-.7-.6-1.6-.4-1.8 1-1.3 1 .4 1.5.3 1.1-.3-.8-1.3-2.2-1.3-3.1.1z" fill="#FFF" fill-opacity=".02"/><path d="M184 325.1c0 .5.5.7 1 .4.6-.3 1-.8 1-1.1 0-.2-.4-.4-1-.4-.5 0-1 .5-1 1.1zm54 79.3c.7.7 1.3.7 2 0 .6-.6.3-1-1-1s-1.6.4-1 1z" fill="#FFF" fill-opacity=".05"/><path d="M331 558.9c0 .6.4 1.3 1 1.6.6.3.7-.1.4-.9-.7-1.8-1.4-2.1-1.4-.7z" fill="#FFF" fill-opacity=".15"/><path d="M386 402.4c.7.7 1.3.7 2 0 .6-.6.3-1-1-1s-1.6.4-1 1z" fill="#FFF" fill-opacity=".02"/><path d="M362 404.4c.7.7 1.3.7 2 0 .6-.6.3-1-1-1s-1.6.4-1 1z" fill="#FFF" fill-opacity=".07"/><path d="M267.3 291.7c1.5.2 3.9.2 5.5 0 1.5-.2.2-.4-2.8-.4s-4.3.2-2.7.4zm73 0c.9.2 2.5.2 3.5 0 .9-.3.1-.5-1.8-.5-1.9 0-2.7.2-1.7.5zm-82.5 2c.6.2 1.8.2 2.5 0 .6-.3.1-.5-1.3-.5-1.4 0-1.9.2-1.2.5zm90 0c.6.2 1.8.2 2.5 0 .6-.3.1-.5-1.3-.5-1.4 0-1.9.2-1.2.5zm-102 12c.6.2 1.8.2 2.5 0 .6-.3.1-.5-1.3-.5-1.4 0-1.9.2-1.2.5zm-11 88c1.2.2 3.2.2 4.5 0 1.2-.2.2-.4-2.3-.4s-3.5.2-2.2.4zm-36.5 6c.9.2 2.5.2 3.5 0 .9-.3.1-.5-1.8-.5-1.9 0-2.7.2-1.7.5zm201.5 0c.6.2 1.8.2 2.5 0 .6-.3.1-.5-1.3-.5-1.4 0-1.9.2-1.2.5zm-80.1 159.4c.7.7 1.5 1 1.8.7.3-.3-.2-.9-1.2-1.2-1.4-.6-1.5-.5-.6.5zm-5.4 154.6c.9.2 2.5.2 3.5 0 .9-.3.1-.5-1.8-.5-1.9 0-2.7.2-1.7.5z" fill="#FFF" fill-opacity=".26"/><path d="M320 560.4c.7.7 1.3.7 2 0 .6-.6.3-1-1-1s-1.6.4-1 1z" fill="#FFF" fill-opacity=".09"/><path d="M171.4 402.1c-.3.6-.2 1.5.3 2s.9.1.9-1.1c0-2.3-.2-2.4-1.2-.9z" fill="#FFF" fill-opacity=".04"/></svg>