<svg version="1.0" xmlns="http://www.w3.org/2000/svg" viewBox="0 0 716 622"><path d="M336.3 60.7c9.2.2 24.2.2 33.5 0 9.2-.1 1.6-.3-16.8-.3-18.4 0-26 .2-16.7.3zm-29.6 2c1.8.2 5 .2 7 0 2.1-.2.7-.4-3.2-.4-3.8 0-5.5.2-3.8.4zm85 0c1.8.2 5 .2 7 0 2.1-.2.7-.4-3.2-.4-3.8 0-5.5.2-3.8.4zm-100.9 4c.7.3 1.6.2 1.9-.1.4-.3-.2-.6-1.3-.5-1.1 0-1.4.3-.6.6zm125.5 0c.9.2 2.3.2 3 0 .6-.3-.1-.5-1.8-.5-1.6 0-2.2.2-1.2.5zm-129.5 2c.7.3 1.6.2 1.9-.1.4-.3-.2-.6-1.3-.5-1.1 0-1.4.3-.6.6zm135.5 0c.9.2 2.3.2 3 0 .6-.3-.1-.5-1.8-.5-1.6 0-2.2.2-1.2.5zm-145.5 4c.7.3 1.6.2 1.9-.1.4-.3-.2-.6-1.3-.5-1.1 0-1.4.3-.6.6zm155 0c.7.3 1.6.2 1.9-.1.4-.3-.2-.6-1.3-.5-1.1 0-1.4.3-.6.6zm-159 2c.7.3 1.6.2 1.9-.1.4-.3-.2-.6-1.3-.5-1.1 0-1.4.3-.6.6zm163 0c.7.3 1.6.2 1.9-.1.4-.3-.2-.6-1.3-.5-1.1 0-1.4.3-.6.6zm8 4c.7.3 1.6.2 1.9-.1.4-.3-.2-.6-1.3-.5-1.1 0-1.4.3-.6.6zm-193 8c.7.3 1.6.2 1.9-.1.4-.3-.2-.6-1.3-.5-1.1 0-1.4.3-.6.6zm12 36c.7.3 1.6.2 1.9-.1.4-.3-.2-.6-1.3-.5-1.1 0-1.4.3-.6.6zm-6 4c.7.3 1.6.2 1.9-.1.4-.3-.2-.6-1.3-.5-1.1 0-1.4.3-.6.6zm-8 6c.7.3 1.6.2 1.9-.1.4-.3-.2-.6-1.3-.5-1.1 0-1.4.3-.6.6zm209 2c.7.3 1.6.2 1.9-.1.4-.3-.2-.6-1.3-.5-1.1 0-1.4.3-.6.6zm-370.5 4c.9.2 2.5.2 3.5 0 .9-.3.1-.5-1.8-.5-1.9 0-2.7.2-1.7.5zm32.5 0c.7.3 1.6.2 1.9-.1.4-.3-.2-.6-1.3-.5-1.1 0-1.4.3-.6.6zm34 0c.7.3 1.6.2 1.9-.1.4-.3-.2-.6-1.3-.5-1.1 0-1.4.3-.6.6zm87 0c.7.3 1.6.2 1.9-.1.4-.3-.2-.6-1.3-.5-1.1 0-1.4.3-.6.6zm-147 2c.7.3 1.6.2 1.9-.1.4-.3-.2-.6-1.3-.5-1.1 0-1.4.3-.6.6zm457.5 10c.9.2 2.5.2 3.5 0 .9-.3.1-.5-1.8-.5-1.9 0-2.7.2-1.7.5zm-6 2c.9.2 2.3.2 3 0 .6-.3-.1-.5-1.8-.5-1.6 0-2.2.2-1.2.5zm12.5 0c.7.3 1.6.2 1.9-.1.4-.3-.2-.6-1.3-.5-1.1 0-1.4.3-.6.6zm12 10c.7.3 1.6.2 1.9-.1.4-.3-.2-.6-1.3-.5-1.1 0-1.4.3-.6.6zm-485 18c2.8.2 7.6.2 10.5 0 2.8-.2.5-.3-5.3-.3s-8.1.1-5.2.3zm24 0c.7.3 1.6.2 1.9-.1.4-.3-.2-.6-1.3-.5-1.1 0-1.4.3-.6.6zm53.5 0c.9.2 2.5.2 3.5 0 .9-.3.1-.5-1.8-.5-1.9 0-2.7.2-1.7.5zm60.5 0c2.3.2 6.1.2 8.5 0 2.3-.2.4-.4-4.3-.4s-6.6.2-4.2.4zm291.5 0c3.7.2 9.7.2 13.5 0 3.7-.2.6-.3-6.8-.3-7.4 0-10.5.1-6.7.3zm79.5 0c.7.3 1.6.2 1.9-.1.4-.3-.2-.6-1.3-.5-1.1 0-1.4.3-.6.6zm-491 1.5c.6.6 1.8.8 2.8.6 1.4-.3 1.2-.5-.9-1-1.9-.3-2.5-.2-1.9.4zm433.5 0c.7.4 7.5.7 15.2.6 15.4-.2 13.4-.6-4.7-1-6.4-.2-11.1 0-10.5.4zm-60.5.5c1.7.2 4.7.2 6.5 0 1.7-.2.3-.4-3.3-.4-3.6 0-5 .2-3.2.4zm26 0c.6.2 1.8.2 2.5 0 .6-.3.1-.5-1.3-.5-1.4 0-1.9.2-1.2.5zm104 6c.7.3 1.6.2 1.9-.1.4-.3-.2-.6-1.3-.5-1.1 0-1.4.3-.6.6zm-270.5 22c.9.2 2.5.2 3.5 0 .9-.3.1-.5-1.8-.5-1.9 0-2.7.2-1.7.5zm6.5 2c.7.3 1.6.2 1.9-.1.4-.3-.2-.6-1.3-.5-1.1 0-1.4.3-.6.6zm17 0c.7.3 1.6.2 1.9-.1.4-.3-.2-.6-1.3-.5-1.1 0-1.4.3-.6.6zm-92 6c2.8.2 7.6.2 10.5 0 2.8-.2.5-.3-5.3-.3s-8.1.1-5.2.3zm-21 4c.6.2 1.8.2 2.5 0 .6-.3.1-.5-1.3-.5-1.4 0-1.9.2-1.2.5zm50.5 0c.9.2 2.3.2 3 0 .6-.3-.1-.5-1.8-.5-1.6 0-2.2.2-1.2.5zm118 0c1.5.2 3.7.2 5 0 1.2-.2 0-.4-2.8-.4-2.7 0-3.8.2-2.2.4zm37.5 0c1.8.2 4.5.2 6 0s0-.4-3.3-.4-4.5.2-2.7.4zm-149.5 2c.9.2 2.3.2 3 0 .6-.3-.1-.5-1.8-.5-1.6 0-2.2.2-1.2.5zm104.5 0c.7.3 1.6.2 1.9-.1.4-.3-.2-.6-1.3-.5-1.1 0-1.4.3-.6.6zm-10 4c.7.3 1.6.2 1.9-.1.4-.3-.2-.6-1.3-.5-1.1 0-1.4.3-.6.6zm-83 2c.7.3 1.6.2 1.9-.1.4-.3-.2-.6-1.3-.5-1.1 0-1.4.3-.6.6zm24 10c1.2.2 3.2.2 4.5 0 1.2-.2.2-.4-2.3-.4s-3.5.2-2.2.4zm23.5 0c.9.2 2.3.2 3 0 .6-.3-.1-.5-1.8-.5-1.6 0-2.2.2-1.2.5zm-79 12c1.5.2 3.9.2 5.5 0 1.5-.2.2-.4-2.8-.4s-4.3.2-2.7.4zm-10.5 2c1.2.2 3 .2 4 0 .9-.3-.1-.5-2.3-.4-2.2 0-3 .2-1.7.4zm21.5 0c1.5.2 3.7.2 5 0 1.2-.2 0-.4-2.8-.4-2.7 0-3.8.2-2.2.4zm128 0c2 .2 5.4.2 7.5 0 2-.2.3-.4-3.8-.4s-5.8.2-3.7.4zm-111.5 4c.7.3 1.6.2 1.9-.1.4-.3-.2-.6-1.3-.5-1.1 0-1.4.3-.6.6zm93.5 0c.9.2 2.3.2 3 0 .6-.3-.1-.5-1.8-.5-1.6 0-2.2.2-1.2.5zm36.5 0c.7.3 1.6.2 1.9-.1.4-.3-.2-.6-1.3-.5-1.1 0-1.4.3-.6.6zm-204 2c.7.3 1.6.2 1.9-.1.4-.3-.2-.6-1.3-.5-1.1 0-1.4.3-.6.6zm23 0c.7.3 1.6.2 1.9-.1.4-.3-.2-.6-1.3-.5-1.1 0-1.4.3-.6.6zm140 0c.7.3 1.6.2 1.9-.1.4-.3-.2-.6-1.3-.5-1.1 0-1.4.3-.6.6zm45 0c.7.3 1.6.2 1.9-.1.4-.3-.2-.6-1.3-.5-1.1 0-1.4.3-.6.6zm9 3.5c.5.5 1.6.8 2.3.6.8-.3.3-.7-1-1.1-1.7-.4-2.1-.3-1.3.5zm-203 .5c.6.2 1.8.2 2.5 0 .6-.3.1-.5-1.3-.5-1.4 0-1.9.2-1.2.5zm68.5 0c.9.2 2.3.2 3 0 .6-.3-.1-.5-1.8-.5-1.6 0-2.2.2-1.2.5zm15 0c.9.2 2.3.2 3 0 .6-.3-.1-.5-1.8-.5-1.6 0-2.2.2-1.2.5zm57.5 0c.7.3 1.6.2 1.9-.1.4-.3-.2-.6-1.3-.5-1.1 0-1.4.3-.6.6zm69 0c1.2.2 3 .2 4 0 .9-.3-.1-.5-2.3-.4-2.2 0-3 .2-1.7.4zm-134.9 1.6c.5.5 2.1.7 3.7.5 2.7-.3 2.6-.4-.8-.9-2.2-.3-3.4-.1-2.9.4zm50.4.4c1.5.2 3.7.2 5 0 1.2-.2 0-.4-2.8-.4-2.7 0-3.8.2-2.2.4zm11.5 0c.7.3 1.6.2 1.9-.1.4-.3-.2-.6-1.3-.5-1.1 0-1.4.3-.6.6zm-36.5 28c1.5.2 3.9.2 5.5 0 1.5-.2.2-.4-2.8-.4s-4.3.2-2.7.4zm-113.5 8c.7.3 1.6.2 1.9-.1.4-.3-.2-.6-1.3-.5-1.1 0-1.4.3-.6.6zm7 28c.7.3 1.6.2 1.9-.1.4-.3-.2-.6-1.3-.5-1.1 0-1.4.3-.6.6zm217 0c.7.3 1.6.2 1.9-.1.4-.3-.2-.6-1.3-.5-1.1 0-1.4.3-.6.6zm-213 2c.7.3 1.6.2 1.9-.1.4-.3-.2-.6-1.3-.5-1.1 0-1.4.3-.6.6zm64 0c1.2.2 3.2.2 4.5 0 1.2-.2.2-.4-2.3-.4s-3.5.2-2.2.4zm145 0c.7.3 1.6.2 1.9-.1.4-.3-.2-.6-1.3-.5-1.1 0-1.4.3-.6.6zm-197.1 4c1.8.2 5 .2 7 0 2.1-.2.7-.4-3.2-.4-3.8 0-5.5.2-3.8.4zm24.1 0c2.3.2 5.9.2 8 0 2-.2.1-.4-4.3-.4-4.4 0-6.1.2-3.7.4zm111.5 0c1.5.2 3.7.2 5 0 1.2-.2 0-.4-2.8-.4-2.7 0-3.8.2-2.2.4zm41 0c1.5.2 3.7.2 5 0 1.2-.2 0-.4-2.8-.4-2.7 0-3.8.2-2.2.4zm-162.5 2c.6.2 1.8.2 2.5 0 .6-.3.1-.5-1.3-.5-1.4 0-1.9.2-1.2.5zm136.5 0c4.2.2 11.2.2 15.5 0 4.2-.1.7-.3-7.8-.3s-12 .2-7.7.3zm-176.5 16c.7.3 1.6.2 1.9-.1.4-.3-.2-.6-1.3-.5-1.1 0-1.4.3-.6.6zm4.5 2c.9.2 2.3.2 3 0 .6-.3-.1-.5-1.8-.5-1.6 0-2.2.2-1.2.5zm223.5 0c1.2.2 3 .2 4 0 .9-.3-.1-.5-2.3-.4-2.2 0-3 .2-1.7.4zm-197.5 4c5.4.2 13.9.2 19 0 5.1-.1.7-.3-9.8-.3-10.4 0-14.6.2-9.2.3zm157 0c.9.2 2.3.2 3 0 .6-.3-.1-.5-1.8-.5-1.6 0-2.2.2-1.2.5zm-111 66c.9.2 2.5.2 3.5 0 .9-.3.1-.5-1.8-.5-1.9 0-2.7.2-1.7.5zm24 2c.9.2 2.5.2 3.5 0 .9-.3.1-.5-1.8-.5-1.9 0-2.7.2-1.7.5zm11.5 0c.6.2 1.8.2 2.5 0 .6-.3.1-.5-1.3-.5-1.4 0-1.9.2-1.2.5zm15.5 0c2.6.2 6.8.2 9.5 0 2.6-.2.4-.3-4.8-.3s-7.4.1-4.7.3zm32 0c.9.2 2.3.2 3 0 .6-.3-.1-.5-1.8-.5-1.6 0-2.2.2-1.2.5zm4.5 34c1.2.2 3.2.2 4.5 0 1.2-.2.2-.4-2.3-.4s-3.5.2-2.2.4zm-132 6c.7.3 1.6.2 1.9-.1.4-.3-.2-.6-1.3-.5-1.1 0-1.4.3-.6.6zm53.5 0c3.7.2 9.6.2 13 0 3.4-.2.4-.3-6.8-.3-7.1 0-9.9.1-6.2.3zm54.5 0c3.4.2 8.8.2 12 0 3.1-.2.3-.3-6.3-.3s-9.2.1-5.7.3zm-30 6c.7.3 1.6.2 1.9-.1.4-.3-.2-.6-1.3-.5-1.1 0-1.4.3-.6.6zm13.5 0c.9.2 2.3.2 3 0 .6-.3-.1-.5-1.8-.5-1.6 0-2.2.2-1.2.5zm-81.5 2c.7.3 1.6.2 1.9-.1.4-.3-.2-.6-1.3-.5-1.1 0-1.4.3-.6.6zm73 0c1.2.2 3.2.2 4.5 0 1.2-.2.2-.4-2.3-.4s-3.5.2-2.2.4zm-42 6c.6.2 1.8.2 2.5 0 .6-.3.1-.5-1.3-.5-1.4 0-1.9.2-1.2.5zm-19 4c.7.3 1.6.2 1.9-.1.4-.3-.2-.6-1.3-.5-1.1 0-1.4.3-.6.6zm107 0c.7.3 1.6.2 1.9-.1.4-.3-.2-.6-1.3-.5-1.1 0-1.4.3-.6.6zm-4 2c.7.3 1.6.2 1.9-.1.4-.3-.2-.6-1.3-.5-1.1 0-1.4.3-.6.6zm-69 28c.7.3 1.6.2 1.9-.1.4-.3-.2-.6-1.3-.5-1.1 0-1.4.3-.6.6zm4.5 2c.9.2 2.3.2 3 0 .6-.3-.1-.5-1.8-.5-1.6 0-2.2.2-1.2.5zm33 0c4.3.2 11 .2 15 0 4-.1.5-.3-7.8-.3-8.2 0-11.5.2-7.2.3z" fill="none"/><path d="M303.4 484.1c-.3.6-.2 1.5.3 2s.9.1.9-1.1c0-2.3-.2-2.4-1.2-.9z" fill="#FFF" fill-opacity=".07"/><path d="M337.8 61.7c8.3.2 22.1.2 30.5 0 8.3-.1 1.5-.3-15.3-.3s-23.6.2-15.2.3zm-29 2c1.8.2 4.5.2 6 0s0-.4-3.3-.4-4.5.2-2.7.4zm82.5 0c1.5.2 3.9.2 5.5 0 1.5-.2.2-.4-2.8-.4s-4.3.2-2.7.4zm-303.5 76c.6.2 1.8.2 2.5 0 .6-.3.1-.5-1.3-.5-1.4 0-1.9.2-1.2.5zm464 12c.6.2 1.8.2 2.5 0 .6-.3.1-.5-1.3-.5-1.4 0-1.9.2-1.2.5zm-6 2c.6.2 1.8.2 2.5 0 .6-.3.1-.5-1.3-.5-1.4 0-1.9.2-1.2.5zM231 181l-4.5.7 4.2.1c2.3.1 4.5-.3 4.8-.8.3-.6.5-.9.3-.8-.2 0-2.3.4-4.8.8zm-147.2.7c1.7.2 4.7.2 6.5 0 1.7-.2.3-.4-3.3-.4-3.6 0-5 .2-3.2.4zm79 0c1.2.2 3.2.2 4.5 0 1.2-.2.2-.4-2.3-.4s-3.5.2-2.2.4zm351.5 0c3.1.2 8.3.2 11.5 0 3.1-.2.5-.3-5.8-.3s-8.9.1-5.7.3zm-41.6 1.5c.2.5 3.1.8 6.3.8 3.2 0 6.1-.3 6.3-.8.3-.4-2.6-.7-6.3-.7-3.7 0-6.6.3-6.3.7zm28.1 0c.6.6 1.8.8 2.8.6 1.4-.3 1.2-.5-.9-1-1.9-.3-2.5-.2-1.9.4zm-397 .5c.6.2 1.8.2 2.5 0 .6-.3.1-.5-1.3-.5-1.4 0-1.9.2-1.2.5zm440.5 0c4.2.2 11.2.2 15.5 0 4.2-.1.7-.3-7.8-.3s-12 .2-7.7.3zm-208.5 28c.6.2 1.8.2 2.5 0 .6-.3.1-.5-1.3-.5-1.4 0-1.9.2-1.2.5zm-69 8c2.3.2 6.1.2 8.5 0 2.3-.2.4-.4-4.3-.4s-6.6.2-4.2.4zm-21 4c.6.2 1.8.2 2.5 0 .6-.3.1-.5-1.3-.5-1.4 0-1.9.2-1.2.5zm50 0c.6.2 1.8.2 2.5 0 .6-.3.1-.5-1.3-.5-1.4 0-1.9.2-1.2.5zm119 0c1.2.2 3.2.2 4.5 0 1.2-.2.2-.4-2.3-.4s-3.5.2-2.2.4zm36.5 0c1.5.2 3.9.2 5.5 0 1.5-.2.2-.4-2.8-.4s-4.3.2-2.7.4zM462 225c-.9.6-1 1-.3 1 .6 0 1.5-.5 1.8-1 .8-1.2.4-1.2-1.5 0zm-160.2.7c.6.2 1.8.2 2.5 0 .6-.3.1-.5-1.3-.5-1.4 0-1.9.2-1.2.5zm36.5 16c.9.2 2.5.2 3.5 0 .9-.3.1-.5-1.8-.5-1.9 0-2.7.2-1.7.5zm24.5 0c.7.3 1.6.2 1.9-.1.4-.3-.2-.6-1.3-.5-1.1 0-1.4.3-.6.6zm-79 12c.6.2 1.8.2 2.5 0 .6-.3.1-.5-1.3-.5-1.4 0-1.9.2-1.2.5zm-10 2c.6.2 1.8.2 2.5 0 .6-.3.1-.5-1.3-.5-1.4 0-1.9.2-1.2.5zm19 0c1.2.2 3.2.2 4.5 0 1.2-.2.2-.4-2.3-.4s-3.5.2-2.2.4zm130 0c1.2.2 3.2.2 4.5 0 1.2-.2.2-.4-2.3-.4s-3.5.2-2.2.4zm-173 10c.6.2 1.8.2 2.5 0 .6-.3.1-.5-1.3-.5-1.4 0-1.9.2-1.2.5zm68 0c.6.2 1.8.2 2.5 0 .6-.3.1-.5-1.3-.5-1.4 0-1.9.2-1.2.5zm16 0c.6.2 1.8.2 2.5 0 .6-.3.1-.5-1.3-.5-1.4 0-1.9.2-1.2.5zm126.5 0c.9.2 2.5.2 3.5 0 .9-.3.1-.5-1.8-.5-1.9 0-2.7.2-1.7.5zm-134 2c.9.2 2.5.2 3.5 0 .9-.3.1-.5-1.8-.5-1.9 0-2.7.2-1.7.5zm48.5 0c1.2.2 3.2.2 4.5 0 1.2-.2.2-.4-2.3-.4s-3.5.2-2.2.4zm-24 28c1.2.2 3.2.2 4.5 0 1.2-.2.2-.4-2.3-.4s-3.5.2-2.2.4zm-37 38c.6.2 1.8.2 2.5 0 .6-.3.1-.5-1.3-.5-1.4 0-1.9.2-1.2.5zm-54.5 4c1.5.2 3.9.2 5.5 0 1.5-.2.2-.4-2.8-.4s-4.3.2-2.7.4zm26.5 0c1.7.2 4.7.2 6.5 0 1.7-.2.3-.4-3.3-.4-3.6 0-5 .2-3.2.4zm109 0c1.2.2 3.2.2 4.5 0 1.2-.2.2-.4-2.3-.4s-3.5.2-2.2.4zm42 0c1.2.2 3.2.2 4.5 0 1.2-.2.2-.4-2.3-.4s-3.5.2-2.2.4zm-163 2c.6.2 1.8.2 2.5 0 .6-.3.1-.5-1.3-.5-1.4 0-1.9.2-1.2.5zm136.5 0c4.2.2 11.2.2 15.5 0 4.2-.1.7-.3-7.8-.3s-12 .2-7.7.3zm-172.5 18c.6.2 1.8.2 2.5 0 .6-.3.1-.5-1.3-.5-1.4 0-1.9.2-1.2.5zm224.5 0c.9.2 2.5.2 3.5 0 .9-.3.1-.5-1.8-.5-1.9 0-2.7.2-1.7.5zm-198.5 4c5 .2 13.4.2 18.5 0 5-.1.9-.3-9.3-.3-10.2 0-14.3.2-9.2.3zm158 0c.6.2 1.8.2 2.5 0 .6-.3.1-.5-1.3-.5-1.4 0-1.9.2-1.2.5zM301 427.4c.7.7 1.3.7 2 0 .6-.6.3-1-1-1s-1.6.4-1 1zm7.7-.2c.2.5 1.7.8 3.3.8 1.6 0 3.1-.3 3.3-.8.3-.4-1.2-.7-3.3-.7-2.1 0-3.6.3-3.3.7zM326 429c-.9.6-1 1-.3 1 .6 0 1.5-.5 1.8-1 .8-1.2.4-1.2-1.5 0zm10 0-3.5.7 3.2.2c1.7 0 3.5-.4 3.8-.9.3-.6.5-.9.3-.9-.2.1-1.9.5-3.8.9zm8.8.2c.6.6 1.8.8 2.8.6 1.4-.3 1.2-.5-.9-1-1.9-.3-2.5-.2-1.9.4zm20.2-.2-10.5.6 10.2.2c5.9.1 10.4-.2 10.8-.8.3-.6.5-.9.3-.8-.2.1-5 .5-10.8.8zm28.8.7c.6.2 1.8.2 2.5 0 .6-.3.1-.5-1.3-.5-1.4 0-1.9.2-1.2.5zm4.5 34c.9.2 2.5.2 3.5 0 .9-.3.1-.5-1.8-.5-1.9 0-2.7.2-1.7.5zm-79.5 6c3.4.2 9 .2 12.5 0 3.4-.2.6-.3-6.3-.3-6.9 0-9.7.1-6.2.3zm57 0c2.8.2 7.6.2 10.5 0 2.8-.2.5-.3-5.3-.3s-8.1.1-5.2.3zm-27 8c1.2.2 3.2.2 4.5 0 1.2-.2.2-.4-2.3-.4s-3.5.2-2.2.4zm-23 42c.6.2 1.8.2 2.5 0 .6-.3.1-.5-1.3-.5-1.4 0-1.9.2-1.2.5zm35.5 0c3.7.2 9.7.2 13.5 0 3.7-.2.6-.3-6.8-.3-7.4 0-10.5.1-6.7.3zm-63-454c.9.2 2.5.2 3.5 0 .9-.3.1-.5-1.8-.5-1.9 0-2.7.2-1.7.5zm108 0c.9.2 2.5.2 3.5 0 .9-.3.1-.5-1.8-.5-1.9 0-2.7.2-1.7.5zm-104 13c.9.2 2.5.2 3.5 0 .9-.3.1-.5-1.8-.5-1.9 0-2.7.2-1.7.5zm94.5 0c1.2.2 3.2.2 4.5 0 1.2-.2.2-.4-2.3-.4s-3.5.2-2.2.4zm-120.7 39.9c0 1.1.3 1.4.6.6.3-.7.2-1.6-.1-1.9-.3-.4-.6.2-.5 1.3zm159.7 1.1c.6.2 1.8.2 2.5 0 .6-.3.1-.5-1.3-.5-1.4 0-1.9.2-1.2.5zM111.2 144c0 1.9.2 2.7.5 1.7.2-.9.2-2.5 0-3.5-.3-.9-.5-.1-.5 1.8zm30-.5c0 1.6.2 2.2.5 1.2.2-.9.2-2.3 0-3-.3-.6-.5.1-.5 1.8zm-60 3.5c0 1.4.2 1.9.5 1.2.2-.6.2-1.8 0-2.5-.3-.6-.5-.1-.5 1.3zm417.1 4c0 3.6.2 5 .4 3.2.2-1.7.2-4.7 0-6.5-.2-1.7-.4-.3-.4 3.3zm-265 1.5c0 2.2.2 3 .4 1.7.2-1.2.2-3 0-4-.3-.9-.5.1-.4 2.3zm239.1 13c0 9.3.2 13.3.3 8.8.2-4.5.2-12.2 0-17-.1-4.8-.3-1.2-.3 8.2zm10.9-12.5c0 2.5.2 3.5.4 2.2.2-1.2.2-3.2 0-4.5-.2-1.2-.4-.2-.4 2.3zm-274.1 2c0 1.4.2 1.9.5 1.2.2-.6.2-1.8 0-2.5-.3-.6-.5-.1-.5 1.3zm244.2 11.5c0 6.6.1 9.2.3 5.7.2-3.4.2-8.8 0-12-.2-3.1-.3-.3-.3 6.3zm89.8-8.5c0 1.9.2 2.7.5 1.7.2-.9.2-2.5 0-3.5-.3-.9-.5-.1-.5 1.8zm-321 3.5c0 1.6.2 2.2.5 1.2.2-.9.2-2.3 0-3-.3-.6-.5.1-.5 1.8zm28.1 3c0 3.3.2 4.5.4 2.7.2-1.8.2-4.5 0-6s-.4 0-.4 3.3zm-14.9 6c0 5.5.1 7.6.3 4.7.2-2.9.2-7.4 0-10-.2-2.6-.3-.2-.3 5.3zm-28.2-5.5c0 1.4.2 1.9.5 1.2.2-.6.2-1.8 0-2.5-.3-.6-.5-.1-.5 1.3zm278.2 7.5c0 5.5.1 7.6.3 4.7.2-2.9.2-7.4 0-10-.2-2.6-.3-.2-.3 5.3zm14.9 2c0 4.4.2 6.1.4 3.7.2-2.3.2-5.9 0-8-.2-2-.4-.1-.4 4.3zM220.2 171c0 1.4.2 1.9.5 1.2.2-.6.2-1.8 0-2.5-.3-.6-.5-.1-.5 1.3zm-14.9 4c0 2.5.2 3.5.4 2.2.2-1.2.2-3.2 0-4.5-.2-1.2-.4-.2-.4 2.3zm46.9 1c0 1.9.2 2.7.5 1.7.2-.9.2-2.5 0-3.5-.3-.9-.5-.1-.5 1.8zm-57.4 3.7c1.2.2 3.2.2 4.5 0 1.2-.2.2-.4-2.3-.4s-3.5.2-2.2.4zm59.4 3.3c0 1.4.2 1.9.5 1.2.2-.6.2-1.8 0-2.5-.3-.6-.5-.1-.5 1.3zm197.2 9.5c0 6.6.1 9.2.3 5.7.2-3.4.2-8.8 0-12-.2-3.1-.3-.3-.3 6.3zm-374.1.5c0 3.6.2 5 .4 3.2.2-1.7.2-4.7 0-6.5-.2-1.7-.4-.3-.4 3.3zm178.8-2.4c0 1.1.3 1.4.6.6.3-.7.2-1.6-.1-1.9-.3-.4-.6.2-.5 1.3zm-1.9 6.9c0 1.6.2 2.2.5 1.2.2-.9.2-2.3 0-3-.3-.6-.5.1-.5 1.8zm-35.9 13c0 4.4.2 6.1.4 3.7.2-2.3.2-5.9 0-8-.2-2-.4-.1-.4 4.3zm12.9-4.5c0 1.9.2 2.7.5 1.7.2-.9.2-2.5 0-3.5-.3-.9-.5-.1-.5 1.8zm20.9-1.4c0 1.1.3 1.4.6.6.3-.7.2-1.6-.1-1.9-.3-.4-.6.2-.5 1.3zm-87.3.1c1.2.2 3 .2 4 0 .9-.3-.1-.5-2.3-.4-2.2 0-3 .2-1.7.4zm27.8.1c-.2.4 1.4.6 3.7.4 6.8-.5 7.6-1 2-1.1-2.8 0-5.4.2-5.7.7zm286.2-.1c1.8.2 4.5.2 6 0s0-.4-3.3-.4-4.5.2-2.7.4zm28 0c1.2.2 3.2.2 4.5 0 1.2-.2.2-.4-2.3-.4s-3.5.2-2.2.4zm-17.6 4.3c0 1.4.2 1.9.5 1.2.2-.6.2-1.8 0-2.5-.3-.6-.5-.1-.5 1.3zm15 .5c0 1.6.2 2.2.5 1.2.2-.9.2-2.3 0-3-.3-.6-.5.1-.5 1.8zm-301 4c0 1.6.2 2.2.5 1.2.2-.9.2-2.3 0-3-.3-.6-.5.1-.5 1.8zm169-.5c0 1.4.2 1.9.5 1.2.2-.6.2-1.8 0-2.5-.3-.6-.5-.1-.5 1.3zm-39.1 1.6c0 1.1.3 1.4.6.6.3-.7.2-1.6-.1-1.9-.3-.4-.6.2-.5 1.3zm173 2c0 1.1.3 1.4.6.6.3-.7.2-1.6-.1-1.9-.3-.4-.6.2-.5 1.3zm-251.8 5.1c.9.2 2.5.2 3.5 0 .9-.3.1-.5-1.8-.5-1.9 0-2.7.2-1.7.5zm31 0c1.5.2 3.9.2 5.5 0 1.5-.2.2-.4-2.8-.4s-4.3.2-2.7.4zm143 0c3.1.2 8.3.2 11.5 0 3.1-.2.5-.3-5.8-.3s-8.9.1-5.7.3zm64.8.9c0 1.1.3 1.4.6.6.3-.7.2-1.6-.1-1.9-.3-.4-.6.2-.5 1.3zm15 0c0 1.1.3 1.4.6.6.3-.7.2-1.6-.1-1.9-.3-.4-.6.2-.5 1.3zm-151.5.3c-.3.4.6.6 1.9.3 1.4-.2 2.5-.6 2.5-.8 0-.8-3.9-.4-4.4.5zm192.7 5.1c0 3 .2 4.3.4 2.7.2-1.5.2-3.9 0-5.5-.2-1.5-.4-.2-.4 2.8zm-400 9c0 3.6.2 5 .4 3.2.2-1.7.2-4.7 0-6.5-.2-1.7-.4-.3-.4 3.3zm362.8-2.4c0 1.1.3 1.4.6.6.3-.7.2-1.6-.1-1.9-.3-.4-.6.2-.5 1.3zm-244.8.1c3.7.2 9.7.2 13.5 0 3.7-.2.6-.3-6.8-.3-7.4 0-10.5.1-6.7.3zM85.2 237c0 1.4.2 1.9.5 1.2.2-.6.2-1.8 0-2.5-.3-.6-.5-.1-.5 1.3zm405.2 10.5c0 6 .1 8.4.3 5.2.2-3.2.2-8.1 0-11-.2-2.9-.3-.3-.3 5.8zm8.7-6.9c0 1.1.3 1.4.6.6.3-.7.2-1.6-.1-1.9-.3-.4-.6.2-.5 1.3zm15.1.4c0 1.4.2 1.9.5 1.2.2-.6.2-1.8 0-2.5-.3-.6-.5-.1-.5 1.3zm-111.4-.3c1.2.2 3.2.2 4.5 0 1.2-.2.2-.4-2.3-.4s-3.5.2-2.2.4zm57 0c.6.2 1.8.2 2.5 0 .6-.3.1-.5-1.3-.5-1.4 0-1.9.2-1.2.5zM115.2 243c0 1.4.2 1.9.5 1.2.2-.6.2-1.8 0-2.5-.3-.6-.5-.1-.5 1.3zm100 0c0 1.4.2 1.9.5 1.2.2-.6.2-1.8 0-2.5-.3-.6-.5-.1-.5 1.3zm155 0c0 1.4.2 1.9.5 1.2.2-.6.2-1.8 0-2.5-.3-.6-.5-.1-.5 1.3zm-35 2.5c0 1.6.2 2.2.5 1.2.2-.9.2-2.3 0-3-.3-.6-.5.1-.5 1.8zm-122 4c0 1.6.2 2.2.5 1.2.2-.9.2-2.3 0-3-.3-.6-.5.1-.5 1.8zm288.1 2.5c0 3 .2 4.3.4 2.7.2-1.5.2-3.9 0-5.5-.2-1.5-.4-.2-.4 2.8zm15 2c0 4.1.2 5.8.4 3.7.2-2 .2-5.4 0-7.5-.2-2-.4-.3-.4 3.8zm-166.2-3.4c0 1.1.3 1.4.6.6.3-.7.2-1.6-.1-1.9-.3-.4-.6.2-.5 1.3zm5 0c0 1.1.3 1.4.6.6.3-.7.2-1.6-.1-1.9-.3-.4-.6.2-.5 1.3zM189.2 254c0 1.9.2 2.7.5 1.7.2-.9.2-2.5 0-3.5-.3-.9-.5-.1-.5 1.8zm41 0c0 1.9.2 2.7.5 1.7.2-.9.2-2.5 0-3.5-.3-.9-.5-.1-.5 1.8zm-26 1.5c0 1.6.2 2.2.5 1.2.2-.9.2-2.3 0-3-.3-.6-.5.1-.5 1.8zm137 0c0 1.6.2 2.2.5 1.2.2-.9.2-2.3 0-3-.3-.6-.5.1-.5 1.8zm11 2c0 1.6.2 2.2.5 1.2.2-.9.2-2.3 0-3-.3-.6-.5.1-.5 1.8zm-49.9.2c.9.2 2.5.2 3.5 0 .9-.3.1-.5-1.8-.5-1.9 0-2.7.2-1.7.5zm108.5 0c1.2.2 3.2.2 4.5 0 1.2-.2.2-.4-2.3-.4s-3.5.2-2.2.4zm23 0c.6.2 1.8.2 2.5 0 .6-.3.1-.5-1.3-.5-1.4 0-1.9.2-1.2.5zm-78.7 4.9c0 1.1.3 1.4.6.6.3-.7.2-1.6-.1-1.9-.3-.4-.6.2-.5 1.3zm133.1.9c0 1.6.2 2.2.5 1.2.2-.9.2-2.3 0-3-.3-.6-.5.1-.5 1.8zm-247.4.2c1.2.2 3.2.2 4.5 0 1.2-.2.2-.4-2.3-.4s-3.5.2-2.2.4zm227 0c.6.2 1.8.2 2.5 0 .6-.3.1-.5-1.3-.5-1.4 0-1.9.2-1.2.5zm46.4 3.3c0 1.4.2 1.9.5 1.2.2-.6.2-1.8 0-2.5-.3-.6-.5-.1-.5 1.3zm-288.9 9.5c0 3.3.2 4.5.4 2.7.2-1.8.2-4.5 0-6s-.4 0-.4 3.3zm12.9 5c0 1.6.2 2.2.5 1.2.2-.9.2-2.3 0-3-.3-.6-.5.1-.5 1.8zm225.9-.9c0 1.1.3 1.4.6.6.3-.7.2-1.6-.1-1.9-.3-.4-.6.2-.5 1.3zm5.2 3.9c0 3.3.2 4.5.4 2.7.2-1.8.2-4.5 0-6s-.4 0-.4 3.3zm14.8-1.9c0 1.1.3 1.4.6.6.3-.7.2-1.6-.1-1.9-.3-.4-.6.2-.5 1.3zM241.2 285c0 1.4.2 1.9.5 1.2.2-.6.2-1.8 0-2.5-.3-.6-.5-.1-.5 1.3zm88.9 1.6c0 1.1.3 1.4.6.6.3-.7.2-1.6-.1-1.9-.3-.4-.6.2-.5 1.3zm136.1.4c0 1.4.2 1.9.5 1.2.2-.6.2-1.8 0-2.5-.3-.6-.5-.1-.5 1.3zm-88.9 7.5c0 4.4.2 6.1.4 3.7.2-2.3.2-5.9 0-8-.2-2-.4-.1-.4 4.3zm-138 1c0 3.8.2 5.3.4 3.2.2-2 .2-5.2 0-7-.2-1.7-.4-.1-.4 3.8zm93-.5c0 2.5.2 3.5.4 2.2.2-1.2.2-3.2 0-4.5-.2-1.2-.4-.2-.4 2.3zm136 2c0 2.5.2 3.5.4 2.2.2-1.2.2-3.2 0-4.5-.2-1.2-.4-.2-.4 2.3zm2.8-2.4c0 1.1.3 1.4.6.6.3-.7.2-1.6-.1-1.9-.3-.4-.6.2-.5 1.3zM209.2 299c0 1.4.2 1.9.5 1.2.2-.6.2-1.8 0-2.5-.3-.6-.5-.1-.5 1.3zm151 3c0 1.9.2 2.7.5 1.7.2-.9.2-2.5 0-3.5-.3-.9-.5-.1-.5 1.8zm-30 1c0 1.4.2 1.9.5 1.2.2-.6.2-1.8 0-2.5-.3-.6-.5-.1-.5 1.3zm32 6c0 1.4.2 1.9.5 1.2.2-.6.2-1.8 0-2.5-.3-.6-.5-.1-.5 1.3zm136 0c0 1.4.2 1.9.5 1.2.2-.6.2-1.8 0-2.5-.3-.6-.5-.1-.5 1.3zm-294.9 6c0 2.5.2 3.5.4 2.2.2-1.2.2-3.2 0-4.5-.2-1.2-.4-.2-.4 2.3zm265.3 1.7c.9 7.8 1.4 7.9 1.4.5 0-3.5-.4-6.2-1-6.2s-.8 2.1-.4 5.7zm5.7.3c0 3.6.2 5 .4 3.2.2-1.7.2-4.7 0-6.5-.2-1.7-.4-.3-.4 3.3zm-255.9 8c0 5.8.1 8.1.3 5.2.2-2.8.2-7.6 0-10.5-.2-2.8-.3-.5-.3 5.3zm281.7-8.4c0 1.1.3 1.4.6.6.3-.7.2-1.6-.1-1.9-.3-.4-.6.2-.5 1.3zm-266 2c0 1.1.3 1.4.6.6.3-.7.2-1.6-.1-1.9-.3-.4-.6.2-.5 1.3zm253.1.4c0 1.4.2 1.9.5 1.2.2-.6.2-1.8 0-2.5-.3-.6-.5-.1-.5 1.3zm-256.1 5.6c0 1.1.3 1.4.6.6.3-.7.2-1.6-.1-1.9-.3-.4-.6.2-.5 1.3zm271.2 2.4c0 2.5.2 3.5.4 2.2.2-1.2.2-3.2 0-4.5-.2-1.2-.4-.2-.4 2.3zm-299 5.5c0 2.2.2 3 .4 1.7.2-1.2.2-3 0-4-.3-.9-.5.1-.4 2.3zm62-1.8c1.5.2 3.9.2 5.5 0 1.5-.2.2-.4-2.8-.4s-4.3.2-2.7.4zm156.5 0c5 .2 13.4.2 18.5 0 5-.1.9-.3-9.3-.3-10.2 0-14.3.2-9.2.3zm-90.7 3.9c0 1.1.3 1.4.6.6.3-.7.2-1.6-.1-1.9-.3-.4-.6.2-.5 1.3zm-79.3 1.1c.6.2 1.8.2 2.5 0 .6-.3.1-.5-1.3-.5-1.4 0-1.9.2-1.2.5zm49.5 0c1.5.2 3.9.2 5.5 0 1.5-.2.2-.4-2.8-.4s-4.3.2-2.7.4zm18.5 0c.6.2 1.8.2 2.5 0 .6-.3.1-.5-1.3-.5-1.4 0-1.9.2-1.2.5zm66.5 0c.9.2 2.5.2 3.5 0 .9-.3.1-.5-1.8-.5-1.9 0-2.7.2-1.7.5zm62 0c.9.2 2.5.2 3.5 0 .9-.3.1-.5-1.8-.5-1.9 0-2.7.2-1.7.5zm-65 4.8c0 2.2.2 3 .4 1.7.2-1.2.2-3 0-4-.3-.9-.5.1-.4 2.3zm-54.1.5c0 1.4.2 1.9.5 1.2.2-.6.2-1.8 0-2.5-.3-.6-.5-.1-.5 1.3zm-72.9 1.7c.9.2 2.5.2 3.5 0 .9-.3.1-.5-1.8-.5-1.9 0-2.7.2-1.7.5zm35 0c1.5.2 3.9.2 5.5 0 1.5-.2.2-.4-2.8-.4s-4.3.2-2.7.4zm101 0c.9.2 2.5.2 3.5 0 .9-.3.1-.5-1.8-.5-1.9 0-2.7.2-1.7.5zm46.5 0c1.2.2 3.2.2 4.5 0 1.2-.2.2-.4-2.3-.4s-3.5.2-2.2.4zM319.2 345c0 1.4.2 1.9.5 1.2.2-.6.2-1.8 0-2.5-.3-.6-.5-.1-.5 1.3zm5 0c0 1.4.2 1.9.5 1.2.2-.6.2-1.8 0-2.5-.3-.6-.5-.1-.5 1.3zm3 5c0 1.9.2 2.7.5 1.7.2-.9.2-2.5 0-3.5-.3-.9-.5-.1-.5 1.8zm53 1c0 1.4.2 1.9.5 1.2.2-.6.2-1.8 0-2.5-.3-.6-.5-.1-.5 1.3zm14.2 17c0 10.7.2 15.1.3 9.7.2-5.3.2-14.1 0-19.5-.1-5.3-.3-.9-.3 9.8zm-5 0c0 9.6.2 13.6.3 8.7.2-4.8.2-12.6 0-17.5-.1-4.8-.3-.8-.3 8.8zm-74.1-8c0 4.1.2 5.8.4 3.7.2-2 .2-5.4 0-7.5-.2-2-.4-.3-.4 3.8zm5 0c0 4.1.2 5.8.4 3.7.2-2 .2-5.4 0-7.5-.2-2-.4-.3-.4 3.8zm-75.5-.3c1.2.2 3.2.2 4.5 0 1.2-.2.2-.4-2.3-.4s-3.5.2-2.2.4zm135.4 2.3c0 1.9.2 2.7.5 1.7.2-.9.2-2.5 0-3.5-.3-.9-.5-.1-.5 1.8zm54.1-2.3c4.2.2 11.2.2 15.5 0 4.2-.1.7-.3-7.8-.3s-12 .2-7.7.3zm-107.2 4.9c0 1.1.3 1.4.6.6.3-.7.2-1.6-.1-1.9-.3-.4-.6.2-.5 1.3zm-32.8 3.9c0 2.2.2 3 .4 1.7.2-1.2.2-3 0-4-.3-.9-.5.1-.4 2.3zm22.9 5.5c0 1.9.2 2.7.5 1.7.2-.9.2-2.5 0-3.5-.3-.9-.5-.1-.5 1.8zm5 0c0 1.9.2 2.7.5 1.7.2-.9.2-2.5 0-3.5-.3-.9-.5-.1-.5 1.8zm89.1 4c0 3 .2 4.3.4 2.7.2-1.5.2-3.9 0-5.5-.2-1.5-.4-.2-.4 2.8zm-115 3c0 3.6.2 5 .4 3.2.2-1.7.2-4.7 0-6.5-.2-1.7-.4-.3-.4 3.3zm-43.8-1.9c-1.1 1.6-.1 1.9 1.3.3.7-.8.8-1.4.3-1.4s-1.3.5-1.6 1.1zm67.7 1.9c0 1.4.2 1.9.5 1.2.2-.6.2-1.8 0-2.5-.3-.6-.5-.1-.5 1.3zm93.1 9c0 3 .2 4.3.4 2.7.2-1.5.2-3.9 0-5.5-.2-1.5-.4-.2-.4 2.8zm35.8-1.4c0 1.1.3 1.4.6.6.3-.7.2-1.6-.1-1.9-.3-.4-.6.2-.5 1.3zm-193 2c0 1.1.3 1.4.6.6.3-.7.2-1.6-.1-1.9-.3-.4-.6.2-.5 1.3zm55.2 1.9c0 2.2.2 3 .4 1.7.2-1.2.2-3 0-4-.3-.9-.5.1-.4 2.3zm4.9-.5c0 1.9.2 2.7.5 1.7.2-.9.2-2.5 0-3.5-.3-.9-.5-.1-.5 1.8zm-17.8 12c0 7.4.1 10.5.3 6.7.2-3.7.2-9.7 0-13.5-.2-3.7-.3-.6-.3 6.8zm148.7-9.4c0 1.1.3 1.4.6.6.3-.7.2-1.6-.1-1.9-.3-.4-.6.2-.5 1.3zM263.3 399c0 2.5.2 3.5.4 2.2.2-1.2.2-3.2 0-4.5-.2-1.2-.4-.2-.4 2.3zm-20 4c0 3.6.2 5 .4 3.2.2-1.7.2-4.7 0-6.5-.2-1.7-.4-.3-.4 3.3zm15 0c0 3.6.2 5 .4 3.2.2-1.7.2-4.7 0-6.5-.2-1.7-.4-.3-.4 3.3zm152.9-4c0 1.4.2 1.9.5 1.2.2-.6.2-1.8 0-2.5-.3-.6-.5-.1-.5 1.3zm29.2 17c0 9.6.2 13.6.3 8.7.2-4.8.2-12.6 0-17.5-.1-4.8-.3-.8-.3 8.8zm5 15c0 17.3.2 24.4.3 15.7.2-8.6.2-22.8 0-31.5-.1-8.6-.3-1.5-.3 15.8zm-36.1-20c0 4.7.2 6.6.4 4.2.2-2.3.2-6.1 0-8.5-.2-2.3-.4-.4-.4 4.3zm-143.9 11.5c0 8.8.2 12.3.3 7.7.2-4.6.2-11.8 0-16-.1-4.2-.3-.5-.3 8.3zm193-6.5c0 5.2.1 7.4.3 4.7.2-2.6.2-6.8 0-9.5-.2-2.6-.3-.4-.3 4.8zm-153.1-1.5c0 3.3.2 4.5.4 2.7.2-1.8.2-4.5 0-6s-.4 0-.4 3.3zm5-.5c0 3 .2 4.3.4 2.7.2-1.5.2-3.9 0-5.5-.2-1.5-.4-.2-.4 2.8zm89 5c0 4.7.2 6.6.4 4.2.2-2.3.2-6.1 0-8.5-.2-2.3-.4-.4-.4 4.3zm-79 .5c0 3.8.2 5.3.4 3.2.2-2 .2-5.2 0-7-.2-1.7-.4-.1-.4 3.8zm12 0c0 3.8.2 5.3.4 3.2.2-2 .2-5.2 0-7-.2-1.7-.4-.1-.4 3.8zm24-.5c0 3.6.2 5 .4 3.2.2-1.7.2-4.7 0-6.5-.2-1.7-.4-.3-.4 3.3zm48 .5c0 3.8.2 5.3.4 3.2.2-2 .2-5.2 0-7-.2-1.7-.4-.1-.4 3.8zm-60 2c0 3.8.2 5.3.4 3.2.2-2 .2-5.2 0-7-.2-1.7-.4-.1-.4 3.8zm7-1.5c0 3 .2 4.3.4 2.7.2-1.5.2-3.9 0-5.5-.2-1.5-.4-.2-.4 2.8zm29-1c0 2.5.2 3.5.4 2.2.2-1.2.2-3.2 0-4.5-.2-1.2-.4-.2-.4 2.3zm-120 .5c0 2.2.2 3 .4 1.7.2-1.2.2-3 0-4-.3-.9-.5.1-.4 2.3zm67 3c0 3.3.2 4.5.4 2.7.2-1.8.2-4.5 0-6s-.4 0-.4 3.3zm48 0c0 3.3.2 4.5.4 2.7.2-1.8.2-4.5 0-6s-.4 0-.4 3.3zm15 .5c0 3.6.2 5 .4 3.2.2-1.7.2-4.7 0-6.5-.2-1.7-.4-.3-.4 3.3zm-75-.5c0 2.2.2 3 .4 1.7.2-1.2.2-3 0-4-.3-.9-.5.1-.4 2.3zm69.9 2.2c-.2 5.5-.4 6.3-2.1 6.3-1.1 0-2.1-.8-2.4-1.8-.3-1.3-.4-1.2-.3.3.1 2.4 4.3 3.4 5.2 1.2.3-.8.3-3.9.1-6.8l-.3-5.4-.2 6.2zm-85.1-.1c0 1.1.3 1.4.6.6.3-.7.2-1.6-.1-1.9-.3-.4-.6.2-.5 1.3zm8 0c0 1.1.3 1.4.6.6.3-.7.2-1.6-.1-1.9-.3-.4-.6.2-.5 1.3zm31.1.9c0 1.6.2 2.2.5 1.2.2-.9.2-2.3 0-3-.3-.6-.5.1-.5 1.8zm-95.9 7c0 3.3.2 4.5.4 2.7.2-1.8.2-4.5 0-6s-.4 0-.4 3.3zm14.9 3.5c0 1.9.2 2.7.5 1.7.2-.9.2-2.5 0-3.5-.3-.9-.5-.1-.5 1.8zm179.9 2.6c0 1.1.3 1.4.6.6.3-.7.2-1.6-.1-1.9-.3-.4-.6.2-.5 1.3zm22.1.4c0 1.4.2 1.9.5 1.2.2-.6.2-1.8 0-2.5-.3-.6-.5-.1-.5 1.3zm-150.5-.3 5.2.4.4 10 .3 9.9v-10.2l-.1-10.3-5.5-.1-5.5-.1 5.2.4zm10.7.7c-.3.7-.4 3.3-.1 5.7l.4 4.4.1-5.2c.2-4 .6-5.3 2-5.6 1.6-.4 1.6-.5-.1-.6-1 0-2 .5-2.3 1.3zm2.9 7.6c0 3.6.2 5 .4 3.2.2-1.7.2-4.7 0-6.5-.2-1.7-.4-.3-.4 3.3zm5-.5c0 3.3.2 4.5.4 2.7.2-1.8.2-4.5 0-6s-.4 0-.4 3.3zm5-1.5c0 2.5.2 3.5.4 2.2.2-1.2.2-3.2 0-4.5-.2-1.2-.4-.2-.4 2.3zm5 0c0 2.5.2 3.5.4 2.2.2-1.2.2-3.2 0-4.5-.2-1.2-.4-.2-.4 2.3zm9 1c0 3 .2 4.3.4 2.7.2-1.5.2-3.9 0-5.5-.2-1.5-.4-.2-.4 2.8zm5 2c0 4.1.2 5.8.4 3.7.2-2 .2-5.4 0-7.5-.2-2-.4-.3-.4 3.8zm15.8-5.4c0 1.1.3 1.4.6.6.3-.7.2-1.6-.1-1.9-.3-.4-.6.2-.5 1.3zm11.2 5.4c0 4.1.2 5.8.4 3.7.2-2 .2-5.4 0-7.5-.2-2-.4-.3-.4 3.8zm5 .5c0 4.4.2 6.1.4 3.7.2-2.3.2-5.9 0-8-.2-2-.4-.1-.4 4.3zm5-.5c0 4.1.2 5.8.4 3.7.2-2 .2-5.4 0-7.5-.2-2-.4-.3-.4 3.8zm5 0c0 4.1.2 5.8.4 3.7.2-2 .2-5.4 0-7.5-.2-2-.4-.3-.4 3.8zm7 .5c0 4.4.2 6.1.4 3.7.2-2.3.2-5.9 0-8-.2-2-.4-.1-.4 4.3zM241.4 452c0 5.2.1 7.4.3 4.7.2-2.6.2-6.8 0-9.5-.2-2.6-.3-.4-.3 4.8zm60.9-1.5c0 3.3.2 4.5.4 2.7.2-1.8.2-4.5 0-6s-.4 0-.4 3.3zm63 0c0 3.3.2 4.5.4 2.7.2-1.8.2-4.5 0-6s-.4 0-.4 3.3zm-109 1.5c0 3 .2 4.3.4 2.7.2-1.5.2-3.9 0-5.5-.2-1.5-.4-.2-.4 2.8zm79 2.5c0 2.2.2 3 .4 1.7.2-1.2.2-3 0-4-.3-.9-.5.1-.4 2.3zm34.9-1c0 1.6.2 2.2.5 1.2.2-.9.2-2.3 0-3-.3-.6-.5.1-.5 1.8zm-30 2c0 1.6.2 2.2.5 1.2.2-.9.2-2.3 0-3-.3-.6-.5.1-.5 1.8zm-25.9 19.2c.9.2 2.5.2 3.5 0 .9-.3.1-.5-1.8-.5-1.9 0-2.7.2-1.7.5zm58 0c.9.2 2.5.2 3.5 0 .9-.3.1-.5-1.8-.5-1.9 0-2.7.2-1.7.5zm27.5 11c.7.3 1.6.2 1.9-.1.4-.3-.2-.6-1.3-.5-1.1 0-1.4.3-.6.6zm-79.6 11.8c0 1.6.2 2.2.5 1.2.2-.9.2-2.3 0-3-.3-.6-.5.1-.5 1.8zm15.6 24.2c2.8.2 7.6.2 10.5 0 2.8-.2.5-.3-5.3-.3s-8.1.1-5.2.3zm35.5 13c2.6.2 6.8.2 9.5 0 2.6-.2.4-.3-4.8-.3s-7.4.1-4.7.3z" fill="#FFF" fill-opacity=".25"/><path d="M122.7 167c.7.8 2 1.5 2.9 1.6.9.1 1.3-.1.9-.4-.4-.4-1-.7-1.3-.7-.4 0-1.4-.4-2.2-.9-1.2-.7-1.3-.6-.3.4zm7.8 8c1 1.1 2 2 2.3 2 .3 0-.3-.9-1.3-2s-2-2-2.3-2c-.3 0 .3.9 1.3 2zM608 190.4c0 .2.8 1 1.8 1.7 1.5 1.3 1.6 1.2.3-.4s-2.1-2.1-2.1-1.3zm-473.6 14.8-1.9 2.3 2.3-1.9c2.1-1.8 2.7-2.6 1.9-2.6-.2 0-1.2 1-2.3 2.2zm235.6 3.2c0 .2.8 1 1.8 1.7 1.5 1.3 1.6 1.2.3-.4s-2.1-2.1-2.1-1.3zm-213.1 2.3c-1.3 1.6-1.2 1.7.4.4.9-.7 1.7-1.5 1.7-1.7 0-.8-.8-.3-2.1 1.3zm393 11c-1.3 1.6-1.2 1.7.4.4.9-.7 1.7-1.5 1.7-1.7 0-.8-.8-.3-2.1 1.3zm-158 12c-1.3 1.6-1.2 1.7.4.4 1.6-1.3 2.1-2.1 1.3-2.1-.2 0-1 .8-1.7 1.7zM116 246.4c.7.7 1.3.7 2 0 .6-.6.3-1-1-1s-1.6.4-1 1zm276 100c0 .2.8 1 1.8 1.7 1.5 1.3 1.6 1.2.3-.4s-2.1-2.1-2.1-1.3zm-40.1 67.3c-1.3 1.6-1.2 1.7.4.4 1.6-1.3 2.1-2.1 1.3-2.1-.2 0-1 .8-1.7 1.7zm-10.3.1c-.2.4.4.8 1.4.8 1 0 1.6-.4 1.4-.8-.3-.4-.9-.8-1.4-.8-.5 0-1.1.4-1.4.8zm36.4-.4c0 .2.7.7 1.6 1 .8.3 1.2.2.9-.4-.6-1-2.5-1.4-2.5-.6zm-28 43c.7.7 1.3.7 2 0 .6-.6.3-1-1-1s-1.6.4-1 1z" fill="#FFF" fill-opacity=".19"/><path d="M123.5 167c1 1.1 2 2 2.3 2 .3 0-.3-.9-1.3-2s-2-2-2.3-2c-.3 0 .3.9 1.3 2z" fill="#FFF" fill-opacity=".06"/><g fill="#FFF" stroke-width="0"><path d="M320.5 63c-.3.5-4.2 1-8.6 1-4.6 0-7.9.4-7.9 1 0 .5-1.8 1-3.9 1-2.2 0-4.3.4-4.6 1-.3.5-1.7 1-3.1 1-1.3 0-2.4.4-2.4 1 0 .5-.9 1-1.9 1-1.1 0-2.3.4-2.6 1-.3.5-1.7 1-3.1 1-1.3 0-2.4.4-2.4 1 0 .5-.9 1-2 1s-2 .4-2 1c0 .5-.6 1-1.4 1-1.7 0-14 6.1-14.4 7.2-.2.4-1.1.8-2.1.8-.9 0-2.3.9-3.1 2-.8 1.1-2 2-2.6 2-1.5 0-15.2 13.4-18.4 18-1.3 1.9-3.7 4.7-5.2 6.2-1.5 1.4-2.8 3.2-2.8 4 0 .7-.9 2-2 2.8-1.1.8-2 2.2-2 3.2s-.4 1.8-1 1.8c-.5 0-1 .9-1 2s-.4 2-1 2c-.5 0-1 .9-1 2s-.4 2.9-1 4c-.5 1.1-1.4 2.9-2 4-.5 1.1-1 2.7-1 3.5 0 .8-.4 2.3-.9 3.3-1.7 3.3-3.1 8.9-3.1 12 0 1.8-.4 3.2-1 3.2-.5 0-1 2-1 4.4 0 2.5-.4 4.8-1 5.1-.5.3-1 3-1 5.9v5.2l-6.7-.4c-6.3-.4-9.3-1.7-9.3-4.1 0-1.6-34.8-36.1-36.4-36.1-.8 0-1.8-.5-2.1-1-.8-1.4-3.5-1.3-6.8.2-2.1 1-2.7 2-2.7 4.5 0 5.1 3.9 11.1 14 21.3 5.2 5.2 10.1 10.7 10.9 12.3.8 1.5 1.8 2.7 2.3 2.7.4 0 .8.4.8 1 0 .5-2 1-4.5 1-4.2 0-5-.5-10-5.5-3-3-5.5-5.9-5.5-6.5 0-.6-4.1-5.1-9-10-5-4.9-9-9.4-9-10 0-1.5-4.6-6-6.2-6-.8 0-2-.9-2.8-2-.8-1.1-2.2-2-3.2-2s-1.8-.5-1.8-1c0-1.5-2.9-1.2-4.6.4-.8.8-1.4 3.2-1.4 5.3 0 3.1.8 4.7 3.5 7.7 1.9 2.1 3.5 4.2 3.5 4.6 0 .4 1.1 2 2.5 3.6s2.5 3.4 2.5 3.9c0 .6.9 1.7 2 2.5s2 2 2 2.6c0 .7 1.8 3 4 5.2 4.4 4.2 4.8 5.2 2.5 5.2-1.7 0-10.5-8.4-10.5-10 0-1.4-12.7-14-14-14-.6 0-4.2-3.2-8-7-3.8-3.9-7.6-7-8.5-7-.8 0-1.5-.5-1.5-1 0-2-5.6-1-7.8 1.3-2.2 2.4-3 7.7-1.2 7.7.6 0 1 .7 1 1.5 0 1.7 22.3 24.5 24 24.5 1 0 6 4.4 6 5.3 0 1.2-9.3 2.9-12.2 2.2-1.8-.4-7.5-.9-12.5-1.2-8.9-.4-9.3-.3-9.3 1.6 0 1.2-.4 2.1-1 2.1s-1 3.3-1 8v8h12.4c7.3 0 12.7-.4 13.1-1 .3-.6 3.3-1 6.6-1s5.9.4 5.9 1c0 .5-.4 1-1 1-.5 0-1 .7-1 1.5s-6.3 7.7-14 15.5c-11.9 11.9-14 14.5-14 17.1 0 1.7.6 3.7 1.4 4.5 1.7 1.6 10.6 2 10.6.4 0-.6.7-1 1.6-1 1.8 0 4.4-2.3 4.4-3.9 0-1.7 32.8-34.1 34.5-34.1 2.2 0 1.9.9-1.5 4-1.6 1.5-3 3.2-3 3.7 0 .6-2.7 3.8-6 7.3s-6 6.7-6 7.3c0 .5-1.3 2.2-3 3.7-1.6 1.5-3 3.5-3 4.4 0 .9-.4 1.6-1 1.6-1.3 0-1.3 3.7 0 4.5.6.3 1 2.2 1 4.1 0 1.9.5 3.4 1 3.4.6 0 1-.5 1-1 0-.6 1.6-1 3.6-1 3.2 0 4.8-1.2 18-14.5 7.9-8 14.4-15 14.4-15.5 0-.6 2-3.1 4.5-5.5 4-4 4.9-4.5 9-4.5 2.5 0 4.5.3 4.5.6s-1.8 2.3-4 4.4c-2.2 2.1-4 4.4-4 5 0 .6-2.2 3.3-5 6-2.7 2.7-5 5.4-5 6.1 0 .6-.9 2-2 2.9-1.8 1.6-2.1 2.8-1.8 8.7l.3 6.8 3.5-.3c1.9-.2 3.7-.8 3.8-1.3.2-.5 1.5-.9 2.8-.9 2.5 0 11.4-7.9 11.4-10.1 0-.6 1.4-2.4 3-3.9 1.7-1.5 3-3.3 3-3.9 0-.6 1.8-3 4-5.2 2.2-2.3 4-4.6 4-5.1 0-.6 1.4-2.3 3-3.8 1.7-1.5 3-3.5 3-4.4 0-1.3 1.2-1.6 6.4-1.6h6.4l-.6 6.7c-.2 3.8-.9 6.9-1.3 7.1-.5.2-.9 1.7-.9 3.3 0 1.6-.4 2.9-1 2.9-.5 0-1 1.1-1 2.4 0 1.4-.4 2.8-1 3.1-.5.3-1 1.5-1 2.6 0 1-.4 1.9-1 1.9-.5 0-1 .9-1 2s-.4 2-1 2c-.5 0-1 .7-1 1.5s-.4 2.3-.9 3.3c-2.9 5.7-4.1 15.5-2.1 16.7.6.3 1 1.5 1 2.6 0 1 .5 1.9 1 1.9.6 0 1 .9 1 2s.5 2 1 2c.6 0 1 .7 1 1.5 0 .9.9 2.5 2 3.7 1.1 1.2 2 2.8 2 3.5 0 .7.5 1.3 1 1.3.6 0 1 .9 1 2s.3 2 .8 2c.8 0 3.2 4.9 3.2 6.7 0 .7.5 1.3 1 1.3.6 0 1 1.3 1 3 0 1.6.5 3 1 3 1.7 0 1.1 7.1-.7 8.9-3.8 3.5-4.4 6-4.4 18.7-.1 11.7 1.2 18.4 3.3 18.4.5 0 .8.9.8 2s.4 2 .9 2 1.4 1.3 2.1 3c.7 1.7 1.6 3 2.1 3s.9.6.9 1.4c0 .7 3.6 5.1 8 9.6s8 8.6 8 9.1 1.4 2.3 3 4.1c1.7 1.7 3 3.7 3 4.4 0 .8.4 1.4.8 1.4 1.2 0 5.2 7.8 5.2 10 0 1.1.5 2.2 1 2.5.6.3 1 4.8 1 10 0 5.7.4 9.6 1.1 10.1.7.4.8 2 .4 4.3-.4 2-.9 7.4-1.2 12.1-.2 4.7-.9 8.9-1.4 9.5-1.2 1.3-1.2 23.5.1 23.5.6 0 1 1.1 1 2.3 0 2.3 7.8 11.7 9.7 11.7.5 0 2.6 1.6 4.7 3.5s4.2 3.5 4.6 3.5c.5 0 3.4 2.5 6.5 5.5 3.2 3 6.2 5.5 6.7 5.5s3 2.1 5.6 4.8c2.6 2.6 6.3 5.9 8.2 7.2 1.9 1.4 6.4 5.4 10 9 3.6 3.6 8.1 7.6 10 9 1.9 1.3 4.4 3.2 5.4 4.2 1.1 1 3.5 1.8 5.3 1.8 1.8 0 3.3.4 3.3.8s1.5 1.3 3.3 2c4.1 1.5 28.3 1.6 29.2.2.4-.6 6.3-1 14.6-1 13.7 0 16.1-.5 19.7-3.7.7-.7 1.7-1.3 2.2-1.3.5 0 2.5-1.6 4.4-3.5 2-1.9 3.9-3.5 4.4-3.5.5 0 2.8-1.8 5.1-4 2.2-2.2 4.5-4 5-4 .4 0 3.4-2.5 6.6-5.5 3.1-3 6.1-5.5 6.5-5.5.5 0 4.3-3.4 8.5-7.5 4.3-4.1 8.1-7.5 8.7-7.5 1.8 0 14.8-14.1 15.3-16.8.3-1.5.9-4.1 1.3-5.7.8-3.3.7-26.9-.3-46.4-.4-8.2-.3-12.7.4-13.4.6-.6 1.1-2.1 1.1-3.3 0-1.3.5-2.6 1-2.9.6-.3 1-1.7 1-3s.5-2.7 1-3c.6-.3 1-1.9 1-3.5s.4-3.2 1-3.5c.6-.3 1-1.5 1-2.6 0-1 .5-1.9 1-1.9.6 0 1-1.1 1-2.4 0-1.6 2.7-5.1 8.5-11.1 4.7-4.9 8.5-9.2 8.5-9.6 0-.5 1.5-2.3 3.3-4.1 1.7-1.8 3.8-4.5 4.6-6.1.8-1.5 1.8-2.7 2.3-2.7.4 0 .8-.6.8-1.3 0-.6.9-2.3 2-3.7 1.1-1.4 2-3.5 2-4.8 0-1.2.5-2.2 1-2.2.6 0 1-2.8 1-6.4 0-3.6-.4-6.8-1-7.1-.5-.3-1-2.4-1-4.6 0-2.1-.4-3.9-1-3.9-.5 0-1-1.4-1-3 0-1.7-.4-3-1-3-.5 0-1-.9-1-1.9 0-1.1-.6-2.2-1.2-2.5-1-.5-1-.7 0-1.2.6-.3 1.2-1.4 1.2-2.5 0-1 .4-1.9.9-1.9s1.1-1.2 1.4-2.8c.3-1.5 1.7-4.1 3.1-5.7 1.4-1.7 2.6-3.3 2.6-3.8 0-.4 1.4-2.1 3-3.9 1.7-1.7 3-3.7 3-4.4 0-.8.5-1.4 1-1.4.6 0 1-.9 1-2s.5-2 1-2c.6 0 1-1.3 1-2.9 0-1.7.5-3.3 1-3.6.6-.3 1-4.4 1-9s-.4-8.7-1-9c-.5-.3-1-2.2-1-4.1 0-1.9-.4-3.4-1-3.4-.5 0-1-1.4-1-3 0-1.7-.4-3-1-3-.5 0-1-1.1-1-2.4 0-1.4-.4-2.8-1-3.1-.5-.3-1-1.9-1-3.6 0-1.6-.4-2.9-1-2.9-.5 0-1-1.3-1-2.9 0-1.6-.4-3.1-.9-3.3-.4-.2-1-2.4-1.3-5.1l-.6-4.7h6.9c3.7 0 7.1-.5 7.4-1 1-1.6 46.9-1.3 49.8.2 1.2.7 2.4 1.4 2.6 1.5.6.3-4.8 5.3-5.9 5.3-.6 0-4 2.9-7.5 6.5-6.3 6.3-6.5 6.6-6.5 11.6 0 3 .6 5.6 1.4 6.5 1.7 1.6 12.6 2 12.6.4 0-.6.7-1 1.5-1 .9 0 5.6-4.1 10.5-9 4.9-5 9.4-9 9.9-9s3.7-2.7 7-6c3.4-3.3 6.6-6 7.1-6 1.4 0 10-8.7 10-10 0-1.6-2.6-4-4.2-4-.8 0-2-.9-2.8-2-.8-1.1-2.1-2-3-2-.9 0-2.2-.9-3-2-.8-1.1-2.1-2-3-2-.9 0-2.2-.9-3-2-.8-1.1-2.1-2-2.8-2-.8 0-2.7-1.4-4.2-3-1.5-1.7-3.3-3-4-3-.6 0-2.9-1.8-5-4s-4.4-4-5-4c-.6 0-3.3-2.3-6-5-2.7-2.8-5.6-5-6.4-5-.9 0-1.6-.5-1.6-1 0-.6-1.3-1-3-1-1.6 0-3 .4-3 1 0 .5-1.3 1-3 1-2.8 0-3 .2-3 4 0 2.2.5 4 1 4 .6 0 1 .7 1 1.5 0 1.8 4.4 6.5 6 6.5.7 0 2.9 1.8 5 4s4.2 4 4.7 4c1 0 6.3 4.5 6.3 5.4 0 1.1-33.5.7-34.7-.5-1.1-1.1-22.8-.7-29.5.6l-3.7.7-.5-11.3c-1-21-1.7-28.9-2.7-28.9-.5 0-.9-1.1-.9-2.4 0-1.4-.4-2.8-1-3.1-.5-.3-1-1.5-1-2.6 0-1-.4-1.9-1-1.9-.5 0-1-.9-1-2s-.4-2-1-2c-.5 0-1-.9-1-2s-.4-2-1-2c-.5 0-1-.8-1-1.8s-.9-2.4-2-3.2c-1.1-.8-2-2.1-2-3 0-.9-.9-2.2-2-3-1.1-.8-2-2-2-2.8 0-1.5-22.1-24.2-23.6-24.2-.6 0-1.9-.8-3-1.8-2.5-2.2-7.4-5.2-9.6-5.9-1-.3-1.8-.9-1.8-1.4 0-.5-.9-.9-2-.9s-2-.5-2-1c0-.6-.9-1-2-1s-2-.5-2-1c0-.6-.9-1-2-1s-2-.5-2-1c0-.6-.9-1-1.9-1-1.1 0-2.3-.5-2.6-1-.3-.6-1.7-1-3-1s-2.7-.5-3-1c-.3-.6-2.2-1-4.1-1-1.9 0-3.4-.5-3.4-1 0-.6-2.2-1-4.9-1-2.8 0-5.3-.5-5.6-1-.3-.6-3.7-1-7.5-1s-7.2-.5-7.5-1c-.4-.6-12.5-1-33-1s-32.6.4-33 1zM380 75.6c5.8.3 10.9 1 11.4 1.5.6.5 3.6.9 6.8.9 3.2 0 5.8.4 5.8 1 0 .5 1.5 1 3.4 1s3.8.4 4.1 1c.3.5 1.9 1 3.6 1 1.6 0 2.9.4 2.9 1 0 .5.9 1 2 1s2 .4 2 1c0 .5.9 1 2 1s2 .4 2 1c0 .5.9 1 2 1s2 .4 2 1c0 .5.9 1 2 1s2 .4 2 1c0 .5.9 1 2 1s2 .4 2 .8c0 .5 1.2 1.5 2.8 2.3 1.5.8 3.6 2.2 4.6 3.1 1.1 1 2.3 1.8 2.8 1.8 1.2 0 16.9 15.9 19.8 20 1.3 1.9 2.7 3.7 3 4 .4.3 1.7 2.5 3.1 5 1.3 2.5 2.6 4.7 2.9 5 .3.3 1 1.6 1.6 3 .6 1.4 2.1 4.5 3.3 6.8 1.3 2.8 2.1 6.3 2.1 9.7 0 3 .5 5.7 1 6 .6.4 1 5.7 1 12.6V184h-14v-35l-6.5-6.5c-3.5-3.6-6.9-6.5-7.5-6.5-.6 0-3.7-2.6-6.8-5.8-3.1-3.1-6.9-6.3-8.4-7.1-1.6-.8-2.8-1.8-2.8-2.3 0-.4-1.3-.8-3-.8-2.3 0-3 .4-3 2 0 1.1.5 2 1 2 .6 0 1 .9 1 2s.5 2 1 2c.6 0 1 .8 1 1.8s.9 2.4 2 3.2c1.1.8 2 2.1 2 2.8 0 .8 1.4 2.7 3 4.2 1.7 1.5 3 3.5 3 4.4 0 .9.5 1.6 1 1.6.6 0 1 .9 1 2s.5 2 1 2c.6 0 1 .9 1 2s.5 2 1 2c.6 0 1 5 1 13s-.4 13-1 13-1 4.9-1 12.8c0 11.6.2 12.9 2 14.2 1.1.8 2 2.2 2 3.2s.5 1.8 1 1.8c.6 0 1 .8 1 1.8s.9 2.4 2 3.2c1.1.8 2 2.2 2 3.2s.5 1.8 1 1.8c.6 0 1 .9 1 2 0 1.3-.7 2-2 2-1.1 0-2-.5-2-1 0-.6-2.6-1-5.9-1-3.3 0-6.3-.5-6.6-1-.4-.6-5.8-1-13.1-1-7.6 0-12.4.4-12.4 1 0 .5-1.9 1-4.2 1-4.1 0-11 1.9-12.4 3.3-.4.4-1.8.7-3.1.7-1.2 0-2.3.4-2.3 1 0 .5-.7 1-1.5 1-.9 0-2.7 1.1-4 2.5-2.5 2.4-3.3 5.5-1.5 5.5.6 0 1 .9 1 2 0 1.6.7 2 3 2 1.7 0 3-.5 3-1 0-.6 2.3-1 5-1 2.8 0 5-.5 5-1 0-.6 2.6-1 5.9-1 3.3 0 6.3-.5 6.6-1 .4-.6 5.5-1 12-1s11.6.4 12 1c.3.5 3.1 1 6.1 1 3 0 5.4.4 5.4 1 0 .5 1.4 1 3 1 1.7 0 3 .4 3 1 0 .5.9 1 2 1s2 .4 2 1c0 .5.7 1 1.5 1 2.9 0 8.5 6.7 8.5 10 0 3.9-5.8 10-9.4 10-1.3 0-2.6.5-2.8 1.1-.5 1.4-15.1 1.5-15.6 0-.2-.6-1.2-1.1-2.3-1.1-1 0-1.9-.5-1.9-1 0-.6-.9-1-2-1s-2-.5-2-1c0-.6-.9-1-2-1s-2-.5-2-1c0-.6-1.3-1-2.9-1-1.7 0-3.3-.5-3.6-1-.3-.6-3.3-1-6.5-1s-6.2.4-6.5 1c-.3.5-2.8 1-5.6 1-2.7 0-4.9.4-4.9 1 0 .5-1.1 1-2.4 1-1.4 0-2.8.4-3.1 1-.3.5-1.5 1-2.6 1-1 0-1.9.4-1.9 1 0 .5-.9 1-2 1s-2 .4-2 1c0 .5-.9 1-2 1s-2 .4-2 1c0 .5-.9 1-1.9 1-1.1 0-2.1.6-2.4 1.2-.3 1-.9 1-2.6 0-1.1-.6-3.9-1.2-6.2-1.2-3.3 0-4.7-.6-7.5-3.4-1.9-1.9-3.4-4.1-3.4-4.9 0-.9-.6-1.8-1.2-2.1-1-.5-1-.7 0-1.2.6-.3 1.2-1.6 1.2-2.9 0-2.8 2-7.5 3.2-7.5.4 0 .8-1.4.8-3 0-2.3-.4-3-2-3-1.1 0-2 .4-2 1 0 .5-1.2 1-2.6 1-2.9 0-5.4 2.1-5.4 4.4 0 .9-.4 1.6-1 1.6-.5 0-1 1.1-1 2.5s-.6 3.4-1.2 4.5c-1 1.6-1 2.4 0 4 .6 1.1 1.2 2.9 1.2 4 0 2.3 7 9.7 11.3 11.9 1.5.8 2.7 1.8 2.7 2.3 0 .4 1.4.8 3 .8 1.7 0 3 .4 3 1 0 .5.9 1 2 1 1.6 0 2 .7 2 3 0 1.6-.4 3-1 3s-1 3.7-1 9 .4 9 1 9 1 .8 1 1.8.9 2.4 2 3.2c1.1.8 2 2 2 2.7 0 1.9 8.6 10.3 10.5 10.3.8 0 1.5.4 1.5 1 0 .5.9 1 2 1s2 .4 2 1c0 .5.9 1 2 1s2 .4 2 1c0 .5 1.4 1 3 1 1.7 0 3 .4 3 1s7.7 1 21 1 21-.4 21-1 .9-1 2-1 2-.5 2-1c0-.6.9-1 2-1s2-.5 2-1c0-.6.9-1 2-1 1.3 0 2-.7 2-2 0-1.1.4-2 .8-2 1.2 0 3.2-4.7 3.2-7.5 0-1.4.5-2.5 1-2.5.6 0 1 3.2 1 7.5 0 7.3-.1 7.7-3.5 11-1.9 1.9-4.1 3.5-5 3.5-.8 0-1.5.4-1.5 1 0 .5-.9 1-1.9 1-1.1 0-2.3.4-2.6 1-.3.5-3.1 1-6.1 1-3 0-5.4.4-5.4 1 0 .5-2.2 1-5 1-2.7 0-5 .4-5 1s-6 1-16 1-16-.4-16-1-2.2-1-5-1c-2.7 0-5-.5-5-1 0-.6-1.8-1-4-1h-4v4.6c0 3.8.5 5.1 3 7.4l3 2.8v18c0 11 .4 18.3 1 18.7.6.3 1 1.5 1 2.6 0 1 .5 1.9 1 1.9.6 0 1-7.9 1-21.6v-21.6l-3-2.8c-2.9-2.7-4-6-2-6 .6 0 1 .4 1 1 0 .5 1.7 1 3.8 1 2.1 0 4.2.4 4.7.9.6.5 4.4 1.2 8.5 1.5 4.1.2 9.4.8 11.6 1.1 2.6.4 4.4.3 4.8-.4.4-.6 3.4-1.1 6.7-1.1 3.3 0 5.9-.4 5.9-1s2.4-1 5.4-1c3 0 5.8-.5 6.1-1 .3-.6 2.8-1 5.6-1 2.7 0 4.9-.5 4.9-1 0-.6.9-1 2-1s2-.5 2-1c0-.6.7-1 1.5-1 2.2 0 8.5-6.6 8.5-8.9 0-1.1.5-2.3 1-2.6.6-.3 1-3.7 1-7.6 0-3.9-.4-6.9-1-6.9-.5 0-1-.8-1-1.8s-.9-2.4-2-3.2c-1.6-1.2-2-2.6-2-7.2 0-3.1-.4-6-1-6.3-.5-.3-1-2.2-1-4.1 0-1.9-.4-3.4-1-3.4-1.6 0-1.2-5 .5-6.6 2.7-2.7 4.5.5 4.5 8 0 3.7.4 6.6 1 6.6s1 1.3 1 3c0 1.6.5 3 1 3 .6 0 1 .7 1 1.5 0 2 8.5 10.5 10.5 10.5 1 0 1.5 1 1.5 3 0 1.6.5 3 1 3 .6 0 1 1.8 1 3.9 0 2.2.5 4.1 1.3 4.4 1 .3 1 .9 0 2.6-.7 1.1-1.3 2.8-1.3 3.6 0 .8-.4 1.5-1 1.5-.5 0-1 .8-1 1.8s-.9 2.4-2 3.2c-1.1.8-2 1.9-2 2.6 0 .6-2 3.2-4.5 5.8-2.5 2.7-4.5 5.1-4.5 5.5 0 .3-1.3 2.1-2.9 3.8-2.2 2.6-3.7 3.3-6.5 3.3-2 0-3.6.4-3.6 1s-6.3 1-17 1-17 .4-17 1c0 .5-1.2 1-2.6 1-1.8 0-4 1.4-7 4.6-4.3 4.4-4.4 4.7-4.4 11 0 3.6.4 6.4 1 6.4s1 2.7 1 6-.4 6-1 6c-.5 0-1 1.3-1 3 0 1.6-.4 3-1 3s-1 3.8-1 9.4c0 5.3-.4 9.8-1 10.1-.5.3-1 1.3-1 2.1 0 1.5-2.3 4.4-3.4 4.4-.3 0-.6-3.4-.6-7.6 0-6.9-1.1-10.4-3.4-10.4-.3 0-.6 4.2-.6 9.4s-.3 9.7-.7 9.9c-.5.3-2.6.7-4.8.9l-4 .3-.3-9.3c-.1-5-.7-9.2-1.2-9.2-.6 0-1 .9-1 1.9 0 1.1-.4 2.3-1 2.6-.5.3-1 4-1 8.1v7.4h-6v-9c0-5-.3-9-.6-9-2.1 0-3.4 3.5-3.4 9.4v6.6h-11c-8.9 0-11-.3-11-1.4 0-.8.5-1.8 1-2.1 1-.6 1.4-14.5.4-14.5-2.1 0-3.4 3.5-3.4 9 0 6.8-1.3 9-5.4 9-2.6 0-2.6-.1-2.6-8 0-4.4-.4-8-.8-8-1.1 0-3.2 8.3-3.2 12.5 0 3.4-.1 3.5-4.2 3.5h-4.3l.3-9c.3-6.1 0-9-.7-9-.6 0-1.1.9-1.1 2s-.4 2-1 2-1 3-1 7c0 6.9-.1 7-2.6 7-4.3 0-5.4-2.1-5.4-10.4 0-4.4-.4-7.6-1-7.6-.5 0-1 .9-1 2s-.4 2-1 2-1 2.7-1 6v6h-8.2l.7-3.8c.3-2 .9-6.5 1.2-10 .4-5.8.3-6.2-1.6-6.2-1.9 0-2.1.6-2.1 6 0 7.8-1.9 14-4.2 14-1.4 0-1.8-.8-1.8-3.4 0-1.9-.4-3.8-1-4.1-.6-.4-1-6.7-1-15.5s-.4-15.1-1-15.5c-.5-.3-1-4-1-8.1 0-4.3-.4-7.4-1-7.4-.5 0-1-2.1-1-4.6 0-2.5-.6-5.2-1.4-5.9-1-1.1-6-1.5-20.2-1.9-21-.5-30.4-1.3-30.4-2.7 0-.5-1.3-.9-3-.9-1.6 0-3-.5-3-1 0-.6-.7-1-1.5-1-1.9 0-7.5-5.5-9.4-9.3-.8-1.5-1.8-2.7-2.3-2.7-.4 0-.8-.9-.8-2s-.3-2-.7-2c-2 0-3.3-6.1-3.3-15.4v-10l5-4.7c2.8-2.6 5-5.4 5-6.3 0-.9.5-1.6 1-1.6.6 0 1-.9 1-2s.5-2 1-2c.6 0 1-.9 1-2s.5-2 1-2c.6 0 1-.9 1-2s.5-2 1-2c.6 0 1-.9 1-2s.5-2 1-2c.6 0 1-1.6 1-3.6 0-1.9.7-4.2 1.5-5 1.3-1.4 1.7-1.4 3 0 1.7 1.7 2 4.6.5 4.6-.5 0-1 1.3-1 3 0 1.6-.4 3-1 3s-1 3.3-1 7.9c0 7-.2 7.9-2 8.4-1.1.3-2 1.2-2 2.1 0 .9-.4 1.6-1 1.6-.5 0-1 .9-1 2s-.4 2-1 2c-.5 0-1 1.1-1 2.4 0 1.4-.4 2.8-1 3.1-.5.3-1 1.5-1 2.6 0 1 .5 1.9 1 1.9.6 0 1 1.1 1 2.5 0 2.9 7.9 11.5 10.5 11.5.8 0 1.5.4 1.5 1 0 .5.9 1 2 1s2 .4 2 1c0 .5 1.1 1 2.4 1 1.4 0 2.8.5 3.1 1 .3.5 2.3 1 4.4 1 2 0 4.2.5 4.8 1.1 1.6 1.6 37.3-.5 37.3-2.2 0-.5 4.5-.9 10-.9h10v4c0 2.2-.4 4-1 4-.5 0-1 .9-1 2s-.4 2-1 2c-1.3 0-1.3 16.7 0 17.5.6.3 1 2.4 1 4.6 0 2.1-.4 3.9-1 3.9-.5 0-1 .9-1 2s-.4 2-1 2c-.5 0-1 1.3-1 3 0 1.6-.4 3-1 3-.5 0-1 2.2-1 5 0 2.7.3 5 .6 5 1.6 0 3.4-3.3 3.4-6.4 0-2 .5-3.6 1-3.6.6 0 1-.9 1-2s.5-2 1-2c.6 0 1-1.4 1-3 0-1.7.5-3 1-3 .6 0 1-1.8 1-4s-.4-4-1-4-1-3.7-1-9 .4-9 1-9 1-.9 1-2 .5-2 1-2c.6 0 1-2.7 1-6v-6h-3c-1.6 0-3-.5-3-1 0-.6-1.8-1-4-1s-4 .4-4 1-2.6 1-5.8 1c-3.2 0-6.2.4-6.7.9-.6.5-4.4 1.2-8.5 1.5-4.1.3-9.7.8-12.3 1.2-3.1.4-5.3.2-6-.5-.6-.6-4.2-1.1-7.9-1.1-3.9 0-6.8-.4-6.8-1s-1.3-1-3-1c-1.6 0-3-.5-3-1 0-.6-.9-1-2-1s-2-.5-2-1c0-.6-.7-1-1.5-1-2 0-8.5-6.5-8.5-8.5 0-.8-.4-1.5-1-1.5-.5 0-1-1.4-1-3 0-1.7.5-3 1-3 .6 0 1-.9 1-2s.5-2 1-2c.6 0 1-.7 1-1.5 0-3.2 3.4-1.1 4.3 2.7 1.1 4.4 10.1 12.7 16 14.9 5.5 2 15.2 2.6 16.2.9.4-.6 5.3-1 11.5-1s11.1-.4 11.5-1c.3-.6 2.8-1 5.6-1 2.7 0 4.9-.5 4.9-1 0-.6.9-1 2-1s2-.5 2-1c0-.6.9-1 2-1s2-.5 2-1c0-.6.7-1 1.5-1 1.9 0 5.5-3.5 7.4-7.3.8-1.5 1.8-2.7 2.3-2.7.4 0 .8-.9.8-2s.5-2 1-2c.6 0 1-1.4 1-3 0-1.7.5-3 1-3 .6 0 1-2.3 1-5 0-2.8-.4-5-1-5-.5 0-1-1.2-1-2.6 0-1.5-.9-3.5-2.1-4.5-1.9-1.6-2-2-.6-3.4.9-.8 2.7-1.5 4.1-1.5 1.4 0 2.6-.5 2.6-1 0-.6.6-1 1.3-1 1.8 0 6.7-2.4 6.7-3.3 0-.4.7-.7 1.6-.7 2.1 0 6.4-4.9 6.4-7.2 0-.9.5-2 1-2.3.6-.3 1-2.4 1-4.6 0-2.1-.4-3.9-1-3.9-.5 0-1-1.1-1-2.5 0-4-6.1-9.5-10.5-9.5-3.4 0-3.5.1-3.5 3.8 0 3.2.4 3.9 3 5 2.5 1.1 3 1.9 3 4.8 0 5.7-3.4 10.4-7.4 10.4-1.4 0-2.6.4-2.6 1 0 .5-2.2 1-5 1-2.7 0-5-.5-5-1 0-.6-1.2-1-2.6-1-1.6 0-3.7-1.2-5.4-3-1.5-1.7-3.5-3-4.4-3-.9 0-1.6-.5-1.6-1 0-.6-1.8-1-4-1s-4-.5-4-1c0-.6-2.2-1-4.9-1-2.8 0-5.3-.5-5.6-1-.3-.6-2.6-1-5-1s-4.7.4-5 1c-.3.5-2.2 1-4.1 1-1.9 0-4.2.4-5.2.9-.9.5-3.2 1.6-4.9 2.3-1.8.7-3.3 1.6-3.3 2 0 .5-.9.8-2 .8s-2 .4-2 .8c0 1.2-4.7 3.2-7.5 3.2-1.4 0-2.5-.5-2.5-1 0-.6-2.2-1-5-1-2.7 0-5-.5-5-1 0-.6-.7-1-1.5-1-2.7 0-6.5-4.7-6.5-8 0-2.4 1.2-4.3 5.5-8.5 3-3 6.1-5.5 7-5.5.8 0 1.5-.5 1.5-1 0-.6 1.4-1 3-1 1.7 0 3-.4 3-.9 0-1.3 7.6-2.2 23.4-2.7 9-.3 14.3-.1 14.9.5.6.6 3.5 1.1 6.3 1.1 2.9 0 5.6.4 5.9 1 .3.5 2.6 1 5.1 1 2.4 0 4.4.4 4.4 1 0 .5 1.8 1 4 1 3.4 0 4-.3 4-2.2 0-2.3-2.6-5.8-4.4-5.8-.7 0-1.8-.9-2.6-2s-2.2-2-3.2-2-1.8-.5-1.8-1c0-.6-1.3-1-3-1-1.6 0-3-.5-3-1 0-.6-1.3-1-3-1-1.6 0-3-.5-3-1 0-.6-2.6-1-5.9-1-3.3 0-6.3-.5-6.6-1-.3-.6-4.8-1-10-1s-9.7.4-10 1c-.3.5-2.8 1-5.5 1s-5.2.4-5.5 1c-.3.5-1.9 1-3.5 1-1.5 0-3 .6-3.3 1.2-.2.8-.8.9-1.3.4s-.4-1.1.4-1.3c.6-.3 1.2-1.3 1.2-2.4 0-1 .4-1.9.8-1.9 1.2 0 5.2-7.8 5.2-10.1 0-1 .5-1.9 1-1.9.6 0 1-1.4 1-3 0-1.7.5-3 1-3 .6 0 1-1.8 1-4s.5-4 1-4c.6 0 1-1.5 1-3.4s-.4-3.8-1-4.1c-.5-.3-1-1.9-1-3.6 0-1.6-.4-2.9-1-2.9-.5 0-1-1.8-1-4s-.4-4-1-4-1-3-1-7 .4-7 1-7 1-.9 1-2 .5-2 1-2c.6 0 1-.9 1-2s.5-2 1-2c.6 0 1-.9 1-2s.5-2 1-2c.6 0 1-.7 1-1.5s1.4-2.9 3-4.7c1.7-1.7 3-3.5 3-3.9 0-.5 1.8-2.8 4-5 2.2-2.3 4-4.7 4-5.3 0-.6.9-1.8 2-2.6 2.1-1.5 2.8-7 1-7-.5 0-1 .4-1 .8 0 .5-1.2 1.5-2.7 2.3-1.6.8-3.5 2.2-4.4 3.1-.9 1-2.3 1.8-3 1.8-.8 0-2.1.9-2.9 2-.8 1.1-2.1 2-2.8 2-.8 0-2.7 1.3-4.2 3-1.5 1.6-3.3 3-4 3-.7 0-2.5 1.3-4 3-1.5 1.6-3.2 3-3.7 3-1.6 0-6.3 4.7-6.3 6.4 0 .9-.4 1.6-1 1.6-1.3 0-1.3 9.7 0 10.5.6.4 1 5.5 1 11.9v11.3l-7.6.6c-4.2.3-8.2.3-9 0-1.6-.6-1.9-4.9-.4-5.8.6-.3 1-2.6 1-5s.5-4.7 1-5c.6-.3 1-2.2 1-4.1 0-1.9.4-4.2.9-5.2.5-.9 1.5-3.7 2.2-6.2.7-2.5 1.6-4.9 2.1-5.4.4-.6.8-2 .8-3.3 0-1.3.5-2.3 1-2.3.6 0 1-1.4 1-3 0-1.7.5-3 1-3 .6 0 1-.6 1-1.3 0-.6 1.1-2.5 2.5-4.1 1.4-1.6 2.5-3.3 2.5-3.7 0-.5 1.5-2.3 3.3-4.1 1.8-1.8 4.3-4.9 5.7-6.8 3.3-4.8 13-14 14.6-14 .8 0 1.4-.4 1.4-.8 0-.5 1.2-1.5 2.8-2.3 1.5-.8 2.9-1.6 3.2-1.9 1.1-1.1 13.4-7 14.6-7 .8 0 1.4-.5 1.4-1 0-.6.7-1 1.5-1s2.5-.5 3.8-1.2c4.6-2.3 5.7-2.8 7-2.8.7 0 1.9-.9 2.7-2 1.1-1.5 2.6-2 6.2-2 2.6 0 5-.5 5.3-1 .3-.6 5.3-1 11.3-1.1 5.9 0 11.6-.4 12.7-.9 1.9-.9 24-.6 45.5.6zM231.8 206.2c.2 3.6-.1 5.8-.8 5.8-.5 0-1 .9-1 2s-.4 2-1 2c-.5 0-1 .9-1 2s-.4 2-1 2c-.5 0-1 .9-1 2s-.4 2-1 2c-.5 0-1 .9-1 2s-.4 2-1 2c-.5 0-1 .9-1 2s-.4 2-1 2c-.5 0-1 .9-1 2s-.4 2-1 2c-.5 0-1 .9-1 2s-.4 2-1 2c-.5 0-1 1.3-1 3 0 1.6-.4 3-1 3-.5 0-1 1.8-1 4s.5 4 1 4c.6 0 1 .8 1 1.8s.9 2.4 2 3.2c1.1.8 2 2.1 2 3 0 .9.9 2.2 2 3 1.1.8 2 2.2 2 3.2s.5 1.8 1 1.8c.6 0 1 3 1 7s-.4 7-1 7c-.5 0-1 .7-1 1.6 0 1.5-2.3 4.4-3.4 4.4-.3 0-.6-.5-.6-1.2 0-1.9-4.3-10.8-5.2-10.8-.4 0-.8-.9-.8-2s-.4-2-1-2c-.5 0-1-.8-1-1.8s-.9-2.4-2-3.2c-1.1-.8-2-2.2-2-3.2s-.4-1.8-1-1.8c-.5 0-1-.9-1-2s-.4-2-1-2c-.5 0-1-1.8-1-4s.5-4 1-4c.6 0 1-1.1 1-2.4 0-1.4.5-2.8 1-3.1.6-.3 1-1.5 1-2.6 0-1 .5-1.9 1-1.9.6 0 1-.9 1-2s.5-2 1-2c.6 0 1-.9 1-1.9 0-1.1.5-2.3 1-2.6.6-.3 1-1.7 1-3s.5-2.7 1-3c.6-.3 1-1.9 1-3.5s.5-3.2 1-3.5c.6-.3 1-5 1-10.6v-10l6.8.3 6.7.3.3 5.7zm258 2.3c.2 2.2.8 4.4 1.3 5 .5.5.9 2.2.9 3.7s.5 2.8 1 2.8c.6 0 1 1.3 1 2.9 0 1.7.5 3.3 1 3.6.6.3 1 1.7 1 3.1 0 1.3.5 2.4 1 2.4.6 0 1 1.3 1 3 0 1.6.5 3 1 3 .6 0 1 1.3 1 2.9 0 1.7.5 3.3 1 3.6.6.3 1 3.7 1 7.5s-.4 7.2-1 7.5c-.5.3-1 1.5-1 2.5 0 2.1-3.3 8.4-5.5 10.7-.8.7-2.2 2.7-3.2 4.3-.9 1.7-2 3-2.4 3-.4 0-1.2 1.3-1.9 3-.7 1.6-1.6 3-2.1 3-1.6 0-1.4-13.3.2-13.8.5-.2.9-1.2.9-2.3 0-1 .5-1.9 1-1.9.6 0 1-1.8 1-4s.5-4 1-4c.6 0 1-4.7 1-12s-.4-12-1-12c-.5 0-1-.6-1-1.3 0-1.8-2.4-6.7-3.2-6.7-.5 0-.8-.9-.8-1.9 0-1.1-.4-2.3-1-2.6-.5-.3-1-1.7-1-3.1 0-1.3-.4-2.4-1-2.4-.5 0-1-.9-1-2s-.4-2-1-2c-.5 0-1-.9-1-2s-.4-2-1-2c-.5 0-1-.9-1-2s-.4-2-1-2c-.5 0-1-.5-1-1 0-.7 2.9-1 7.8-.8l7.7.3.3 4zM480 299c0 .5-.4 1-1 1-.5 0-1-.5-1-1 0-.6.5-1 1-1 .6 0 1 .4 1 1zm-26 79c0 1.1-.4 2-1 2-.5 0-1 1.3-1 3 0 1.6-.4 3-1 3-.5 0-1 1.3-1 3 0 1.6-.4 3-1 3-.5 0-1 1.3-1 3 0 1.6-.5 3-1 3-.7 0-1 11.2-1 34l.2 34.1-2.9 2.2c-1.5 1.2-3.9 3.3-5.3 4.7-1.4 1.4-4.5 4.1-7 6-2.5 1.9-6.9 5.9-9.8 8.7-2.9 2.9-5.6 5.3-6 5.3-.4 0-2.3 1.5-4.2 3.3-1.9 1.7-5.1 4.3-7 5.7-1.9 1.3-4.7 3.7-6.2 5.2-1.4 1.5-3 2.8-3.5 2.8s-2.9 1.8-5.3 4-5 4-5.7 4c-.7 0-1.3.4-1.3 1s-5.5 1-14.4 1c-8.6 0-14.7.4-15.1 1-.4.6-5.3 1-11.6 1-6.6 0-10.9-.4-10.9-1s-1.1-1-2.5-1c-3.6 0-5.9-1.6-14.2-9.8-4-3.9-7.7-7.2-8.1-7.2-.5 0-4.4-3.4-8.7-7.5-4.3-4.1-8.2-7.5-8.7-7.5s-3.1-2.3-5.8-5c-2.7-2.8-5.3-5-5.9-5-.6 0-3-1.8-5.2-4-2.3-2.2-4.6-4-5.1-4-1.1 0-6.9-5.9-8.5-8.8-1.5-2.5-1.8-17.3-.4-18.7 2.8-2.9 2.8-48.5 0-48.5-.5 0-.9-1.1-.9-2.5 0-1.3-.9-4-2-6-2.4-4.3-2.6-7.5-.5-7.5 2.5 0 6.5 4.6 6.5 7.5 0 1.4.5 2.5 1 2.5.6 0 1 1 1 2.3 0 1.3.4 2.7.9 3.2 1.4 1.5 2.2 10.3 2.7 29.2.3 10 .9 17.3 1.4 17.3.6 0 1 .7 1 1.5 0 .9 1.6 3.1 3.5 5s4.1 3.5 5 3.5c.8 0 1.5.4 1.5 1 0 .5.9 1 2 1s2 .4 2 1c0 .5.9 1 2 1s2 .4 2 1c0 .5.9 1 2 1s2 .4 2 1c0 .5 1.4 1 3 1 1.7 0 3 .4 3 1 0 1.5 2.9 1.2 4.6-.4 1.6-1.7 2-14.6.4-14.6s-1.1-3.2.8-4.6c1-.8 4.3-1.3 8-1.4h6.2v11.5c0 7 .4 11.5 1 11.5s1.1-.6 1.1-1.3c.1-.6.3-2.3.5-3.7.2-1.4.7-6 1-10.3.6-7.7.6-7.7 3.5-7.7 1.6 0 2.9.4 2.9 1 0 .5-.4 1-1 1-1.4 0-1.3 12.3.2 15.5.6 1.4 1.9 2.5 3 2.5 1.9 0 2.5-2.5.8-3.5-.5-.3-1-3.5-1-7.1 0-6.9 1.3-9.4 4.7-9.4 1.7 0 1.9.6 1.5 6-.3 4-.1 6 .7 6 .7 0 1.1 2 1.1 5 0 4.3.3 5 2 5s2-.7 2-3.9c0-2.2-.4-4.3-1-4.6-1.7-1.1-1.2-10.4.7-12.3 1.2-1.2 1.8-1.3 2.1-.4.2.6 1.7 1.2 3.3 1.2 2.9 0 2.9 0 2.9 6.2.1 5.7 1.5 9.8 3.4 9.8.3 0 .6-3.6.6-8v-8h5.8c5.3 0 6 .2 7 2.5.7 1.4 1.2 5.5 1.2 9 0 5.9.2 6.5 2.1 6.5 1.9 0 2-.4 1.6-5.3-.3-2.8-.9-6.9-1.2-9l-.7-3.7H380v7.6c0 6.9 1.1 10.4 3.4 10.4.3 0 .6-4.1.6-9v-9h6v8c0 7.3.2 8 2 8s2-.7 2-8v-8h8v8.6c0 6.1.4 9 1.4 10 1.5 1.5 10.2 2 10.8.6.2-.4 2.4-1.8 5.1-3.1 2.6-1.3 4.7-2.8 4.7-3.3 0-.4.9-.8 2-.8s2-.5 2-1c0-.6.7-1 1.5-1 2 0 6.5-4.5 6.5-6.5 0-.8.5-1.5 1-1.5.6 0 1-1.3 1-2.9 0-1.7.5-3.3 1-3.6.6-.4 1-8 1-19.5s.4-19.1 1-19.5c.6-.3 1-1.5 1-2.6 0-1 .5-1.9 1-1.9.6 0 1-.9 1-2s.4-2 .8-2 1.4-2.1 2.1-4.8c.7-2.6 1.4-5.3 1.7-6 .2-.6 1.5-1.2 2.9-1.2 1.8 0 2.5.5 2.5 2z"/><path d="M368 209c0 .5-.8 1-1.8 1s-2.4.9-3.2 2c-.8 1.1-2 2-2.8 2-1.8 0-6.2 4.6-6.2 6.5 0 2.2-.8 1.9-4-1.5-1.5-1.7-3.5-3-4.4-3-.9 0-1.6-.5-1.6-1 0-.6-.9-1-2-1s-2-.5-2-1c0-.6-1.3-1-3-1-2.6 0-3 .4-3 2.6 0 3.3 4.6 7.4 8.5 7.4.8 0 1.5.4 1.5 1 0 .5 1.2 1 2.6 1 1.5 0 3.4 1 4.4 2.2 1.6 2 1.9 2.1 3.4.6.9-.9 1.6-2.4 1.6-3.2 0-1.2 1-1.6 3.4-1.6 1.9 0 3.8-.5 4.1-1 .3-.6 1.3-1 2.1-1 2.2 0 6.4-4.6 6.4-7 0-1.2-.6-2.8-1.4-3.6-1.7-1.6-2.6-1.8-2.6-.4zm-20 90c0 1.6-.4 3-1 3-.5 0-1 .9-1 2s-.4 2-1 2c-.5 0-1 .9-1 2s-.4 2-1 2c-.5 0-1 .9-1 2s-.4 2-1 2c-.5 0-1 .9-1 2s-.4 2-1 2c-.5 0-1 .9-1 2s-.4 2-1 2c-.5 0-1 1.1-1 2.4 0 1.4-.4 2.8-1 3.1-.5.3-1 1.5-1 2.6 0 1-.4 1.9-1 1.9-.5 0-1 1.3-1 3 0 1.6-.4 3-1 3-.5 0-1 1.5-1 3.4s-.4 3.8-1 4.1c-.5.3-1 2.4-1 4.5s-.4 4.2-1 4.5c-.5.3-1 2.2-1 4.1 0 1.9.5 3.4 1 3.4.6 0 1 1.1 1 2.5 0 1.6 1.4 3.9 3.6 6.1 3.2 3.3 4.1 3.6 9.4 3.7 4.9.1 6.2-.2 7.8-2.1 2.4-2.7 6.3-2.8 8.2-.2 1.2 1.7 2.6 2 8.2 2 3.9 0 6.8-.4 6.8-1s.7-1 1.6-1c2 0 4.4-2.4 4.4-4.4 0-.9.5-1.6 1-1.6.6 0 1-1.8 1-4s.5-4 1-4c.6 0 1-.9 1-2s-.4-2-1-2c-.5 0-1-1.4-1-3 0-1.7-.4-3-1-3-.5 0-1-.9-1-2s-.4-2-1-2c-.5 0-1-.9-1-2s-.4-2-1-2c-.5 0-1-.9-1-1.9 0-1.1-.4-2.3-1-2.6-.5-.3-1-1.7-1-3.1 0-1.3-.4-2.4-1-2.4-.5 0-1-.9-1-2s-.4-2-.8-2c-.5 0-1.5-2.3-2.2-5-.7-2.8-1.7-5-2.2-5-.4 0-.8-.9-.8-2s-.4-2-1-2c-.5 0-1-1.4-1-3 0-1.7-.4-3-1-3-.5 0-1-1.6-1-3.6 0-4.8-1.9-6.4-7.4-6.4-4.4 0-4.6.1-4.6 3zm46.1 168-2.3 3h-11.2c-9.8 0-11.5.2-13.4 2-1.2 1.1-2.8 2-3.7 2-.8 0-1.5.4-1.5 1 0 .5-1.1 1-2.4 1-1.4 0-2.8.4-3.1 1-.3.5-2.8 1-5.6 1-2.7 0-4.9-.5-4.9-1 0-.6-.7-1-1.6-1-.9 0-2.9-1.4-4.4-3l-2.8-3h-12.1c-11.7 0-12.3-.1-14.7-2.5-1.4-1.4-3-2.3-3.5-2-1.6 1.1-1 3.5 1.6 6 1.9 2 3.4 2.5 7.4 2.5 2.7 0 5.3.4 5.6 1 .9 1.4 10.8 1.3 12.3-.2.8-.8 1.8-.3 4.1 2 1.6 1.8 3.6 3.2 4.5 3.2.9 0 1.6.4 1.6 1s3.3 1 8 1 8-.4 8-1 .7-1 1.5-1c.9 0 2.5-.9 3.7-2 1.2-1.1 2.8-2 3.5-2 .7 0 1.3-.5 1.3-1 0-.6 1.8-1 4-1s4 .4 4 1c0 .5 2.2 1 4.9 1 2.8 0 5.3-.5 5.6-1 .3-.6 1.6-1 2.8-1 1.3 0 2.9-.9 3.7-2 .8-1.1 2.4-2 3.5-2 2.6-.1 5.5-2.3 5.5-4.4 0-1.2-.9-1.6-3.7-1.6-3 0-4.3.6-6.2 3zM306 486c0 1.1.5 2 1 2 .6 0 1 .9 1 2s.5 2 1 2c.6 0 1 1 1 2.2 0 3.4 4.2 7.8 7.4 7.8 2.3 0 2.6-.4 2.6-3.5 0-3-.9-4.5-5.5-9-5.7-5.8-8.5-6.9-8.5-3.5zm92 1c0 .5-.9 1-2 1s-2 .4-2 1c0 .5-.7 1-1.5 1-1.8 0-8.5 6.4-8.5 8 0 1.8 2.7 4 4.7 4 2.2 0 9.3-6.1 9.3-8 0-.7 1.4-2.5 3-4 1.7-1.5 3-3.1 3-3.4 0-.3-1.3-.6-3-.6-1.6 0-3 .4-3 1z"/></g><path d="M222.8 181.7c.7.3 1.6.2 1.9-.1.4-.3-.2-.6-1.3-.5-1.1 0-1.4.3-.6.6z" fill="#FFF" fill-opacity=".15"/><path d="m298.4 81.2-1.9 2.3 2.3-1.9c2.1-1.8 2.7-2.6 1.9-2.6-.2 0-1.2 1-2.3 2.2zm-44 24-1.9 2.3 2.3-1.9c2.1-1.8 2.7-2.6 1.9-2.6-.2 0-1.2 1-2.3 2.2zm198.1-.2c1 1.1 2 2 2.3 2 .3 0-.3-.9-1.3-2s-2-2-2.3-2c-.3 0 .3.9 1.3 2zm6 6c1 1.1 2 2 2.3 2 .3 0-.3-.9-1.3-2s-2-2-2.3-2c-.3 0 .3.9 1.3 2zm-184.1 12.2-1.9 2.3 2.3-1.9c1.2-1.1 2.2-2.1 2.2-2.3 0-.8-.8-.2-2.6 1.9zm-14 18-1.9 2.3 2.3-1.9c1.2-1.1 2.2-2.1 2.2-2.3 0-.8-.8-.2-2.6 1.9zm184.1-.2c1 1.1 2 2 2.3 2 .3 0-.3-.9-1.3-2s-2-2-2.3-2c-.3 0 .3.9 1.3 2zm-330 12c1 1.1 2 2 2.3 2 .3 0-.3-.9-1.3-2s-2-2-2.3-2c-.3 0 .3.9 1.3 2zm34 6c1 1.1 2 2 2.3 2 .3 0-.3-.9-1.3-2s-2-2-2.3-2c-.3 0 .3.9 1.3 2zm6 6c1 1.1 2 2 2.3 2 .3 0-.3-.9-1.3-2s-2-2-2.3-2c-.3 0 .3.9 1.3 2zm-54 6c1 1.1 2 2 2.3 2 .3 0-.3-.9-1.3-2s-2-2-2.3-2c-.3 0 .3.9 1.3 2zm60 0c1 1.1 2 2 2.3 2 .3 0-.3-.9-1.3-2s-2-2-2.3-2c-.3 0 .3.9 1.3 2zm398 6c1 1.1 2 2 2.3 2 .3 0-.3-.9-1.3-2s-2-2-2.3-2c-.3 0 .3.9 1.3 2zm45.9 24.2-1.9 2.3 2.3-1.9c2.1-1.8 2.7-2.6 1.9-2.6-.2 0-1.2 1-2.3 2.2zm-444 6-1.9 2.3 2.3-1.9c2.1-1.8 2.7-2.6 1.9-2.6-.2 0-1.2 1-2.3 2.2zm292.1-.2c1 1.1 2 2 2.3 2 .3 0-.3-.9-1.3-2s-2-2-2.3-2c-.3 0 .3.9 1.3 2zm143.9.2-1.9 2.3 2.3-1.9c2.1-1.8 2.7-2.6 1.9-2.6-.2 0-1.2 1-2.3 2.2zm-470 6-1.9 2.3 2.3-1.9c2.1-1.8 2.7-2.6 1.9-2.6-.2 0-1.2 1-2.3 2.2zm464 0-1.9 2.3 2.3-1.9c1.2-1.1 2.2-2.1 2.2-2.3 0-.8-.8-.2-2.6 1.9zm-470 6-1.9 2.3 2.3-1.9c1.2-1.1 2.2-2.1 2.2-2.3 0-.8-.8-.2-2.6 1.9zm62 0-1.9 2.3 2.3-1.9c2.1-1.8 2.7-2.6 1.9-2.6-.2 0-1.2 1-2.3 2.2zm152.1-.2c1 1.1 2 2 2.3 2 .3 0-.3-.9-1.3-2s-2-2-2.3-2c-.3 0 .3.9 1.3 2zm33.9.2-1.9 2.3 2.3-1.9c2.1-1.8 2.7-2.6 1.9-2.6-.2 0-1.2 1-2.3 2.2zm214 0-1.9 2.3 2.3-1.9c1.2-1.1 2.2-2.1 2.2-2.3 0-.8-.8-.2-2.6 1.9zm-468 6-1.9 2.3 2.3-1.9c2.1-1.8 2.7-2.6 1.9-2.6-.2 0-1.2 1-2.3 2.2zm30 0-1.9 2.3 2.3-1.9c2.1-1.8 2.7-2.6 1.9-2.6-.2 0-1.2 1-2.3 2.2zm432 0-1.9 2.3 2.3-1.9c1.2-1.1 2.2-2.1 2.2-2.3 0-.8-.8-.2-2.6 1.9zm-468 6-1.9 2.3 2.3-1.9c2.1-1.8 2.7-2.6 1.9-2.6-.2 0-1.2 1-2.3 2.2zm30 0-1.9 2.3 2.3-1.9c2.1-1.8 2.7-2.6 1.9-2.6-.2 0-1.2 1-2.3 2.2zm432 0-1.9 2.3 2.3-1.9c2.1-1.8 2.7-2.6 1.9-2.6-.2 0-1.2 1-2.3 2.2zm-438 6-1.9 2.3 2.3-1.9c2.1-1.8 2.7-2.6 1.9-2.6-.2 0-1.2 1-2.3 2.2zm36 0-1.9 2.3 2.3-1.9c2.1-1.8 2.7-2.6 1.9-2.6-.2 0-1.2 1-2.3 2.2zm70 6-1.9 2.3 2.3-1.9c2.1-1.8 2.7-2.6 1.9-2.6-.2 0-1.2 1-2.3 2.2zm-6 6-1.9 2.3 2.3-1.9c2.1-1.8 2.7-2.6 1.9-2.6-.2 0-1.2 1-2.3 2.2zm242.1-.2c1 1.1 2 2 2.3 2 .3 0-.3-.9-1.3-2s-2-2-2.3-2c-.3 0 .3.9 1.3 2zm-118 18c1 1.1 2 2 2.3 2 .3 0-.3-.9-1.3-2s-2-2-2.3-2c-.3 0 .3.9 1.3 2zm6 6c1 1.1 2 2 2.3 2 .3 0-.3-.9-1.3-2s-2-2-2.3-2c-.3 0 .3.9 1.3 2zm-122.9 4.8c-.2.4.4.8 1.4.8 1 0 1.6-.4 1.4-.8-.3-.4-.9-.8-1.4-.8-.5 0-1.1.4-1.4.8zm226 0c-.2.4.4.8 1.4.8 1 0 1.6-.4 1.4-.8-.3-.4-.9-.8-1.4-.8-.5 0-1.1.4-1.4.8zm8.9 25.2c1 1.1 2 2 2.3 2 .3 0-.3-.9-1.3-2s-2-2-2.3-2c-.3 0 .3.9 1.3 2zm-250.1 6.2-1.9 2.3 2.3-1.9c2.1-1.8 2.7-2.6 1.9-2.6-.2 0-1.2 1-2.3 2.2zm156.1-.2c1 1.1 2 2 2.3 2 .3 0-.3-.9-1.3-2s-2-2-2.3-2c-.3 0 .3.9 1.3 2zm100 0c1 1.1 2 2 2.3 2 .3 0-.3-.9-1.3-2s-2-2-2.3-2c-.3 0 .3.9 1.3 2zm-96 6c1 1.1 2 2 2.3 2 .3 0-.3-.9-1.3-2s-2-2-2.3-2c-.3 0 .3.9 1.3 2zm-138 6c1 1.1 2 2 2.3 2 .3 0-.3-.9-1.3-2s-2-2-2.3-2c-.3 0 .3.9 1.3 2zm144 0c1 1.1 2 2 2.3 2 .3 0-.3-.9-1.3-2s-2-2-2.3-2c-.3 0 .3.9 1.3 2zm-154 12c1 1.1 2 2 2.3 2 .3 0-.3-.9-1.3-2s-2-2-2.3-2c-.3 0 .3.9 1.3 2zm231.9.2-1.9 2.3 2.3-1.9c1.2-1.1 2.2-2.1 2.2-2.3 0-.8-.8-.2-2.6 1.9zM220.5 363c1 1.1 2 2 2.3 2 .3 0-.3-.9-1.3-2s-2-2-2.3-2c-.3 0 .3.9 1.3 2zm108 6c1 1.1 2 2 2.3 2 .3 0-.3-.9-1.3-2s-2-2-2.3-2c-.3 0 .3.9 1.3 2zm147.9.2-1.9 2.3 2.3-1.9c1.2-1.1 2.2-2.1 2.2-2.3 0-.8-.8-.2-2.6 1.9zM230.5 375c1 1.1 2 2 2.3 2 .3 0-.3-.9-1.3-2s-2-2-2.3-2c-.3 0 .3.9 1.3 2zM392 392.4c.7.7 1.3.7 2 0 .6-.6.3-1-1-1s-1.6.4-1 1zm-52.4 47.4c-.2.4.4.8 1.4.8 1 0 1.6-.4 1.4-.8-.3-.4-.9-.8-1.4-.8-.5 0-1.1.4-1.4.8zm-69.1 7.2c1 1.1 2 2 2.3 2 .3 0-.3-.9-1.3-2s-2-2-2.3-2c-.3 0 .3.9 1.3 2zm163.9.2-1.9 2.3 2.3-1.9c1.2-1.1 2.2-2.1 2.2-2.3 0-.8-.8-.2-2.6 1.9zm-134 12-1.9 2.3 2.3-1.9c2.1-1.8 2.7-2.6 1.9-2.6-.2 0-1.2 1-2.3 2.2zm81.6-.8c.7.7 1.3.7 2 0 .6-.6.3-1-1-1s-1.6.4-1 1zm20.5.6c1 1.1 2 2 2.3 2 .3 0-.3-.9-1.3-2s-2-2-2.3-2c-.3 0 .3.9 1.3 2zM305 469.3c0 .2 1.5 1.6 3.3 3.3l3.2 2.9-2.9-3.3c-2.8-3-3.6-3.7-3.6-2.9zm-54.5 7.7c1 1.1 2 2 2.3 2 .3 0-.3-.9-1.3-2s-2-2-2.3-2c-.3 0 .3.9 1.3 2zm86 0c1 1.1 2 2 2.3 2 .3 0-.3-.9-1.3-2s-2-2-2.3-2c-.3 0 .3.9 1.3 2zm-78 6c1 1.1 2 2 2.3 2 .3 0-.3-.9-1.3-2s-2-2-2.3-2c-.3 0 .3.9 1.3 2zm189.9.2-1.9 2.3 2.3-1.9c2.1-1.8 2.7-2.6 1.9-2.6-.2 0-1.2 1-2.3 2.2zm-44.9 2.6c.4.8-.1 2.3-1.1 3.5-1.8 2.2-1.8 2.2.6 0 2-1.9 2.2-2.5 1.1-3.5-1.1-1.1-1.3-1-.6 0zm-137 3.2c1 1.1 2 2 2.3 2 .3 0-.3-.9-1.3-2s-2-2-2.3-2c-.3 0 .3.9 1.3 2zm167.9 6.2-1.9 2.3 2.3-1.9c1.2-1.1 2.2-2.1 2.2-2.3 0-.8-.8-.2-2.6 1.9zM280.5 501c1 1.1 2 2 2.3 2 .3 0-.3-.9-1.3-2s-2-2-2.3-2c-.3 0 .3.9 1.3 2zm32 0c1 1.1 2 2 2.3 2 .3 0-.3-.9-1.3-2s-2-2-2.3-2c-.3 0 .3.9 1.3 2zm72 0c1 1.1 2 2 2.3 2 .3 0-.3-.9-1.3-2s-2-2-2.3-2c-.3 0 .3.9 1.3 2zm-84 18c1 1.1 2 2 2.3 2 .3 0-.3-.9-1.3-2s-2-2-2.3-2c-.3 0 .3.9 1.3 2zm105.9.2-1.9 2.3 2.3-1.9c2.1-1.8 2.7-2.6 1.9-2.6-.2 0-1.2 1-2.3 2.2zm-8 6-1.9 2.3 2.3-1.9c2.1-1.8 2.7-2.6 1.9-2.6-.2 0-1.2 1-2.3 2.2z" fill="#FFF" fill-opacity=".18"/><path d="M419.8 346.7c.6.2 1.8.2 2.5 0 .6-.3.1-.5-1.3-.5-1.4 0-1.9.2-1.2.5z" fill="#FFF" fill-opacity=".2"/><path d="m245.4 92.2-1.9 2.3 2.3-1.9c1.2-1.1 2.2-2.1 2.2-2.3 0-.8-.8-.2-2.6 1.9zm-6 6-1.9 2.3 2.3-1.9c2.1-1.8 2.7-2.6 1.9-2.6-.2 0-1.2 1-2.3 2.2zm233.6 5.2c0 .2.8 1 1.8 1.7 1.5 1.3 1.6 1.2.3-.4s-2.1-2.1-2.1-1.3zm-244.1 7.3c-1.3 1.6-1.2 1.7.4.4.9-.7 1.7-1.5 1.7-1.7 0-.8-.8-.3-2.1 1.3zm44.6 5.3c-.3.6.1.7.9.4 1.8-.7 2.1-1.4.7-1.4-.6 0-1.3.4-1.6 1zm-7.6 5.7c-1.3 1.6-1.2 1.7.4.4.9-.7 1.7-1.5 1.7-1.7 0-.8-.8-.3-2.1 1.3zm183.6 6.3c1 1.1 2 2 2.3 2 .3 0-.3-.9-1.3-2s-2-2-2.3-2c-.3 0 .3.9 1.3 2zm-194.6.7c-1.3 1.6-1.2 1.7.4.4.9-.7 1.7-1.5 1.7-1.7 0-.8-.8-.3-2.1 1.3zm199.1 3.7c0 .2.8 1 1.8 1.7 1.5 1.3 1.6 1.2.3-.4s-2.1-2.1-2.1-1.3zm-207.1 2.3c-1.3 1.6-1.2 1.7.4.4 1.6-1.3 2.1-2.1 1.3-2.1-.2 0-1 .8-1.7 1.7zm216.6 5.3c1 1.1 2 2 2.3 2 .3 0-.3-.9-1.3-2s-2-2-2.3-2c-.3 0 .3.9 1.3 2zm-342.5-.6c0 .2.8 1 1.8 1.7 1.5 1.3 1.6 1.2.3-.4s-2.1-2.1-2.1-1.3zm34 0c0 .2.8 1 1.8 1.7 1.5 1.3 1.6 1.2.3-.4s-2.1-2.1-2.1-1.3zM99.5 146c1 1.1 2 2 2.3 2 .3 0-.3-.9-1.3-2s-2-2-2.3-2c-.3 0 .3.9 1.3 2zm30 0c1 1.1 2 2 2.3 2 .3 0-.3-.9-1.3-2s-2-2-2.3-2c-.3 0 .3.9 1.3 2zm32 0c1 1.1 2 2 2.3 2 .3 0-.3-.9-1.3-2s-2-2-2.3-2c-.3 0 .3.9 1.3 2zm308 0c1 1.1 2 2 2.3 2 .3 0-.3-.9-1.3-2s-2-2-2.3-2c-.3 0 .3.9 1.3 2zm-364 6c1 1.1 2 2 2.3 2 .3 0-.3-.9-1.3-2s-2-2-2.3-2c-.3 0 .3.9 1.3 2zm62 0c1 1.1 2 2 2.3 2 .3 0-.3-.9-1.3-2s-2-2-2.3-2c-.3 0 .3.9 1.3 2zm-34.5-.6c0 .2.8 1 1.8 1.7 1.5 1.3 1.6 1.2.3-.4s-2.1-2.1-2.1-1.3zm-19.5 6.6c1 1.1 2 2 2.3 2 .3 0-.3-.9-1.3-2s-2-2-2.3-2c-.3 0 .3.9 1.3 2zm26 0c1 1.1 2 2 2.3 2 .3 0-.3-.9-1.3-2s-2-2-2.3-2c-.3 0 .3.9 1.3 2zm34 0c1 1.1 2 2 2.3 2 .3 0-.3-.9-1.3-2s-2-2-2.3-2c-.3 0 .3.9 1.3 2zm390 0c1 1.1 2 2 2.3 2 .3 0-.3-.9-1.3-2s-2-2-2.3-2c-.3 0 .3.9 1.3 2zm-444 6c1 1.1 2 2 2.3 2 .3 0-.3-.9-1.3-2s-2-2-2.3-2c-.3 0 .3.9 1.3 2zm26 0c1 1.1 2 2 2.3 2 .3 0-.3-.9-1.3-2s-2-2-2.3-2c-.3 0 .3.9 1.3 2zm34 0c1 1.1 2 2 2.3 2 .3 0-.3-.9-1.3-2s-2-2-2.3-2c-.3 0 .3.9 1.3 2zm391.5-.6c0 .2.8 1 1.8 1.7 1.5 1.3 1.6 1.2.3-.4s-2.1-2.1-2.1-1.3zM185.5 170c1 1.1 2 2 2.3 2 .3 0-.3-.9-1.3-2s-2-2-2.3-2c-.3 0 .3.9 1.3 2zm-56 6c1 1.1 2 2 2.3 2 .3 0-.3-.9-1.3-2s-2-2-2.3-2c-.3 0 .3.9 1.3 2zm26 0c1 1.1 2 2 2.3 2 .3 0-.3-.9-1.3-2s-2-2-2.3-2c-.3 0 .3.9 1.3 2zm439.5 5.4c0 .2.8 1 1.8 1.7 1.5 1.3 1.6 1.2.3-.4s-2.1-2.1-2.1-1.3zm7 5c0 .2.8 1 1.8 1.7 1.5 1.3 1.6 1.2.3-.4s-2.1-2.1-2.1-1.3zm-466.6 19.8-1.9 2.3 2.3-1.9c2.1-1.8 2.7-2.6 1.9-2.6-.2 0-1.2 1-2.3 2.2zm33.5.5c-1.3 1.6-1.2 1.7.4.4.9-.7 1.7-1.5 1.7-1.7 0-.8-.8-.3-2.1 1.3zm398 0c-1.3 1.6-1.2 1.7.4.4.9-.7 1.7-1.5 1.7-1.7 0-.8-.8-.3-2.1 1.3zm-461.5 5.5-1.9 2.3 2.3-1.9c1.2-1.1 2.2-2.1 2.2-2.3 0-.8-.8-.2-2.6 1.9zm256.5-.5c-1.3 1.6-1.2 1.7.4.4 1.6-1.3 2.1-2.1 1.3-2.1-.2 0-1 .8-1.7 1.7zm197.5.5-1.9 2.3 2.3-1.9c1.2-1.1 2.2-2.1 2.2-2.3 0-.8-.8-.2-2.6 1.9zm-460 6-1.9 2.3 2.3-1.9c2.1-1.8 2.7-2.6 1.9-2.6-.2 0-1.2 1-2.3 2.2zm26 0-1.9 2.3 2.3-1.9c2.1-1.8 2.7-2.6 1.9-2.6-.2 0-1.2 1-2.3 2.2zm34 0-1.9 2.3 2.3-1.9c2.1-1.8 2.7-2.6 1.9-2.6-.2 0-1.2 1-2.3 2.2zm394 0-1.9 2.3 2.3-1.9c1.2-1.1 2.2-2.1 2.2-2.3 0-.8-.8-.2-2.6 1.9zm-204.4-.8c0 .2.8 1 1.8 1.7 1.5 1.3 1.6 1.2.3-.4s-2.1-2.1-2.1-1.3zm-255.6 6.8-1.9 2.3 2.3-1.9c2.1-1.8 2.7-2.6 1.9-2.6-.2 0-1.2 1-2.3 2.2zm-5.5 5.5c-1.3 1.6-1.2 1.7.4.4.9-.7 1.7-1.5 1.7-1.7 0-.8-.8-.3-2.1 1.3zm222.1-1.3c0 .2.8 1 1.8 1.7 1.5 1.3 1.6 1.2.3-.4s-2.1-2.1-2.1-1.3zm84.9 2.3c-1.3 1.6-1.2 1.7.4.4.9-.7 1.7-1.5 1.7-1.7 0-.8-.8-.3-2.1 1.3zM343 241.4c0 .2.8 1 1.8 1.7 1.5 1.3 1.6 1.2.3-.4s-2.1-2.1-2.1-1.3zm-111 17c0 .2.8 1 1.8 1.7 1.5 1.3 1.6 1.2.3-.4s-2.1-2.1-2.1-1.3zm241.4 1.8-1.9 2.3 2.3-1.9c2.1-1.8 2.7-2.6 1.9-2.6-.2 0-1.2 1-2.3 2.2zm-162.4-.8c0 .2.8 1 1.8 1.7 1.5 1.3 1.6 1.2.3-.4s-2.1-2.1-2.1-1.3zm46 36c0 .2.8 1 1.8 1.7 1.5 1.3 1.6 1.2.3-.4s-2.1-2.1-2.1-1.3zm-120 30c0 .2.8 1 1.8 1.7 1.5 1.3 1.6 1.2.3-.4s-2.1-2.1-2.1-1.3zm152 18c0 .2.8 1 1.8 1.7 1.5 1.3 1.6 1.2.3-.4s-2.1-2.1-2.1-1.3zm87.9 1.3c-1.3 1.6-1.2 1.7.4.4 1.6-1.3 2.1-2.1 1.3-2.1-.2 0-1 .8-1.7 1.7zM227 349.4c0 .2.8 1 1.8 1.7 1.5 1.3 1.6 1.2.3-.4s-2.1-2.1-2.1-1.3zm64 12c0 .2.8 1 1.8 1.7 1.5 1.3 1.6 1.2.3-.4s-2.1-2.1-2.1-1.3zm127.9 1.3c-1.3 1.6-1.2 1.7.4.4 1.6-1.3 2.1-2.1 1.3-2.1-.2 0-1 .8-1.7 1.7zm-18.8 46.6c.2.1 1.3.9 2.4 1.7 1.9 1.4 1.9 1.4.6-.3-.7-.9-1.8-1.7-2.4-1.7-.6 0-.8.1-.6.3zM259 463.4c0 .2.8 1 1.8 1.7 1.5 1.3 1.6 1.2.3-.4s-2.1-2.1-2.1-1.3zm135.9 1.3c-1.3 1.6-1.2 1.7.4.4 1.6-1.3 2.1-2.1 1.3-2.1-.2 0-1 .8-1.7 1.7zm-57.9 4.7c0 .2.8 1 1.8 1.7 1.5 1.3 1.6 1.2.3-.4s-2.1-2.1-2.1-1.3zm101.9 1.3c-1.3 1.6-1.2 1.7.4.4.9-.7 1.7-1.5 1.7-1.7 0-.8-.8-.3-2.1 1.3zM272 474.4c0 .2.8 1 1.8 1.7 1.5 1.3 1.6 1.2.3-.4s-2.1-2.1-2.1-1.3zm9.5 7.6c1 1.1 2 2 2.3 2 .3 0-.3-.9-1.3-2s-2-2-2.3-2c-.3 0 .3.9 1.3 2zm143.4.7c-1.3 1.6-1.2 1.7.4.4 1.6-1.3 2.1-2.1 1.3-2.1-.2 0-1 .8-1.7 1.7zM313.5 488c1 1.1 2 2 2.3 2 .3 0-.3-.9-1.3-2s-2-2-2.3-2c-.3 0 .3.9 1.3 2zm106.4-.3c-1.3 1.6-1.2 1.7.4.4.9-.7 1.7-1.5 1.7-1.7 0-.8-.8-.3-2.1 1.3zM295.5 494c1 1.1 2 2 2.3 2 .3 0-.3-.9-1.3-2s-2-2-2.3-2c-.3 0 .3.9 1.3 2zm89.9.2-1.9 2.3 2.3-1.9c2.1-1.8 2.7-2.6 1.9-2.6-.2 0-1.2 1-2.3 2.2zm12.5 11.5c-1.3 1.6-1.2 1.7.4.4.9-.7 1.7-1.5 1.7-1.7 0-.8-.8-.3-2.1 1.3zm-88.9-.3c0 .2.8 1 1.8 1.7 1.5 1.3 1.6 1.2.3-.4s-2.1-2.1-2.1-1.3zm6.5 6.6c1 1.1 2 2 2.3 2 .3 0-.3-.9-1.3-2s-2-2-2.3-2c-.3 0 .3.9 1.3 2zm73.4.7c-1.3 1.6-1.2 1.7.4.4 1.6-1.3 2.1-2.1 1.3-2.1-.2 0-1 .8-1.7 1.7z" fill="#FFF" fill-opacity=".19"/><path d="M303.4 466.1c-.3.6-.2 1.5.3 2s.9.1.9-1.1c0-2.3-.2-2.4-1.2-.9z" fill="#FFF" fill-opacity=".02"/><path d="M314 242.4c.7.7 1.3.7 2 0 .6-.6.3-1-1-1s-1.6.4-1 1zm11.4 98.6c0 1.3.4 1.6 1 1 .7-.7.7-1.3 0-2-.6-.6-1-.3-1 1zm66 74c0 1.3.4 1.6 1 1 .7-.7.7-1.3 0-2-.6-.6-1-.3-1 1z" fill="#FFF" fill-opacity=".03"/><path d="M120 163.4c0 .2.7.7 1.6 1 .8.3 1.2.2.9-.4-.6-1-2.5-1.4-2.5-.6zm9 11c0 .2.8 1 1.8 1.7 1.5 1.3 1.6 1.2.3-.4s-2.1-2.1-2.1-1.3zm5.9 31.3c-1.3 1.6-1.2 1.7.4.4 1.6-1.3 2.1-2.1 1.3-2.1-.2 0-1 .8-1.7 1.7z" fill="#FFF" fill-opacity=".07"/><path d="M319.9 453.2c-.5.9-.4 5.6.1 5.2.5-.6.8-5.4.3-5.4-.2 0-.4.1-.4.2zm-3.9 9.2c.7.7 1.3.7 2 0 .6-.6.3-1-1-1s-1.6.4-1 1z" fill="#FFF" fill-opacity=".12"/><path d="M460.2 457c0 1.4.2 1.9.5 1.2.2-.6.2-1.8 0-2.5-.3-.6-.5-.1-.5 1.3z" fill="#FFF" fill-opacity=".13"/><path d="M344.8 74.7c3.4.2 9 .2 12.5 0 3.4-.2.6-.3-6.3-.3-6.9 0-9.7.1-6.2.3zm-28 2c2.3.2 6.1.2 8.5 0 2.3-.2.4-.4-4.3-.4s-6.6.2-4.2.4zm61.9 0c1.8.2 5 .2 7 0 2.1-.2.7-.4-3.2-.4-3.8 0-5.5.2-3.8.4zm28.1 4c.7.3 1.6.2 1.9-.1.4-.3-.2-.6-1.3-.5-1.1 0-1.4.3-.6.6zm-298.5 120c.9.2 2.5.2 3.5 0 .9-.3.1-.5-1.8-.5-1.9 0-2.7.2-1.7.5zm114.5 0c1.2.2 3.2.2 4.5 0 1.2-.2.2-.4-2.3-.4s-3.5.2-2.2.4zm-137 2c2.8.2 7.6.2 10.5 0 2.8-.2.5-.3-5.3-.3s-8.1.1-5.2.3zm445.5 0c5.9.2 15.5.2 21.5 0 5.9-.1 1-.3-10.8-.3s-16.7.2-10.7.3zm-185.5 22c.6.2 1.8.2 2.5 0 .6-.3.1-.5-1.3-.5-1.4 0-1.9.2-1.2.5zm-93.5 12c.9.2 2.5.2 3.5 0 .9-.3.1-.5-1.8-.5-1.9 0-2.7.2-1.7.5zm40.5 0c1.2.2 3.2.2 4.5 0 1.2-.2.2-.4-2.3-.4s-3.5.2-2.2.4zm137 0c2.8.2 7.6.2 10.5 0 2.8-.2.5-.3-5.3-.3s-8.1.1-5.2.3zm125.5 0c1.5.2 3.9.2 5.5 0 1.5-.2.2-.4-2.8-.4s-4.3.2-2.7.4zm-309.5 2c.6.2 1.8.2 2.5 0 .6-.3.1-.5-1.3-.5-1.4 0-1.9.2-1.2.5zm58 0c.6.2 1.8.2 2.5 0 .6-.3.1-.5-1.3-.5-1.4 0-1.9.2-1.2.5zm109.5 0c1.5.2 3.9.2 5.5 0 1.5-.2.2-.4-2.8-.4s-4.3.2-2.7.4zm37.5 0c1.2.2 3.2.2 4.5 0 1.2-.2.2-.4-2.3-.4s-3.5.2-2.2.4zm-360 4c1.2.2 3.2.2 4.5 0 1.2-.2.2-.4-2.3-.4s-3.5.2-2.2.4zm69 0c.6.2 1.8.2 2.5 0 .6-.3.1-.5-1.3-.5-1.4 0-1.9.2-1.2.5zm236 0c.6.2 1.8.2 2.5 0 .6-.3.1-.5-1.3-.5-1.4 0-1.9.2-1.2.5zm-275.5 2c.9.2 2.5.2 3.5 0 .9-.3.1-.5-1.8-.5-1.9 0-2.7.2-1.7.5zm209.5 34c.6.2 1.8.2 2.5 0 .6-.3.1-.5-1.3-.5-1.4 0-1.9.2-1.2.5zm42 0c.6.2 1.8.2 2.5 0 .6-.3.1-.5-1.3-.5-1.4 0-1.9.2-1.2.5zm-71 48c1.2.2 3.2.2 4.5 0 1.2-.2.2-.4-2.3-.4s-3.5.2-2.2.4zm-18 2c2.3.2 6.1.2 8.5 0 2.3-.2.4-.4-4.3-.4s-6.6.2-4.2.4zm123 0c.6.2 1.8.2 2.5 0 .6-.3.1-.5-1.3-.5-1.4 0-1.9.2-1.2.5zm-100.5 12c1.5.2 3.9.2 5.5 0 1.5-.2.2-.4-2.8-.4s-4.3.2-2.7.4zm145.5 0c1.2.2 3 .2 4 0 .9-.3-.1-.5-2.3-.4-2.2 0-3 .2-1.7.4zm-181.5 4c2.6.2 6.8.2 9.5 0 2.6-.2.4-.3-4.8-.3s-7.4.1-4.7.3zm134.5 0c1.7.2 4.7.2 6.5 0 1.7-.2.3-.4-3.3-.4-3.6 0-5 .2-3.2.4zm23.5 0c1.5.2 3.9.2 5.5 0 1.5-.2.2-.4-2.8-.4s-4.3.2-2.7.4zm-75.5 26c.6.2 1.8.2 2.5 0 .6-.3.1-.5-1.3-.5-1.4 0-1.9.2-1.2.5zm-16 4c.6.2 1.8.2 2.5 0 .6-.3.1-.5-1.3-.5-1.4 0-1.9.2-1.2.5zm26 0c1.7.2 4.7.2 6.5 0 1.7-.2.3-.4-3.3-.4-3.6 0-5 .2-3.2.4zm-17 66c.7.3 1.6.2 1.9-.1.4-.3-.2-.6-1.3-.5-1.1 0-1.4.3-.6.6zm10.5 0c1.5.2 3.9.2 5.5 0 1.5-.2.2-.4-2.8-.4s-4.3.2-2.7.4zm16 0c1.5.2 3.9.2 5.5 0 1.5-.2.2-.4-2.8-.4s-4.3.2-2.7.4zm14.5 0c.6.2 1.8.2 2.5 0 .6-.3.1-.5-1.3-.5-1.4 0-1.9.2-1.2.5zm10 0c.6.2 1.8.2 2.5 0 .6-.3.1-.5-1.3-.5-1.4 0-1.9.2-1.2.5zm64.4 2.3c0 1.4.2 1.9.5 1.2.2-.6.2-1.8 0-2.5-.3-.6-.5-.1-.5 1.3zm-168.4 15.7c.6.2 1.8.2 2.5 0 .6-.3.1-.5-1.3-.5-1.4 0-1.9.2-1.2.5zm115 2c1.2.2 3.2.2 4.5 0 1.2-.2.2-.4-2.3-.4s-3.5.2-2.2.4zm-81 16c1.2.2 3 .2 4 0 .9-.3-.1-.5-2.3-.4-2.2 0-3 .2-1.7.4zm55 0c1.2.2 3.2.2 4.5 0 1.2-.2.2-.4-2.3-.4s-3.5.2-2.2.4zm-32.5 6c2 .2 5.4.2 7.5 0 2-.2.3-.4-3.8-.4s-5.8.2-3.7.4zm-32.5 20c.6.2 1.8.2 2.5 0 .6-.3.1-.5-1.3-.5-1.4 0-1.9.2-1.2.5zm4 30c.6.2 1.8.2 2.5 0 .6-.3.1-.5-1.3-.5-1.4 0-1.9.2-1.2.5zm17 4c3.4.2 9 .2 12.5 0 3.4-.2.6-.3-6.3-.3-6.9 0-9.7.1-6.2.3z" fill="#FFF" fill-opacity=".25"/><path d="M305.5 464c-.3.6.1.7.9.4 1.8-.7 2.1-1.4.7-1.4-.6 0-1.3.4-1.6 1z" fill="#FFF" fill-opacity=".1"/><path d="M459.2 457c0 1.4.2 1.9.5 1.2.2-.6.2-1.8 0-2.5-.3-.6-.5-.1-.5 1.3z" fill="#FFF" fill-opacity=".38"/><path d="M466.5 95c1 1.1 2 2 2.3 2 .3 0-.3-.9-1.3-2s-2-2-2.3-2c-.3 0 .3.9 1.3 2zm-71.1 294c0 1.3.4 1.6 1 1 .7-.7.7-1.3 0-2-.6-.6-1-.3-1 1z" fill="#FFF" fill-opacity=".05"/></svg>