<svg version="1.0" xmlns="http://www.w3.org/2000/svg" viewBox="0 0 698 526"><path d="M353.3 24.7c.9.2 2.5.2 3.5 0 .9-.3.1-.5-1.8-.5-1.9 0-2.7.2-1.7.5zm-8.5 4c.7.3 1.6.2 1.9-.1.4-.3-.2-.6-1.3-.5-1.1 0-1.4.3-.6.6zm-4 2c.7.3 1.6.2 1.9-.1.4-.3-.2-.6-1.3-.5-1.1 0-1.4.3-.6.6zm-6 4c.7.3 1.6.2 1.9-.1.4-.3-.2-.6-1.3-.5-1.1 0-1.4.3-.6.6zm28.5 2c.9.2 2.5.2 3.5 0 .9-.3.1-.5-1.8-.5-1.9 0-2.7.2-1.7.5zm14.5 12c1.2.2 3.2.2 4.5 0 1.2-.2.2-.4-2.3-.4s-3.5.2-2.2.4zm15 10c.6.2 1.8.2 2.5 0 .6-.3.1-.5-1.3-.5-1.4 0-1.9.2-1.2.5zm-6 2c.7.3 1.6.2 1.9-.1.4-.3-.2-.6-1.3-.5-1.1 0-1.4.3-.6.6zm12.6 2.3c0 1.3.4 1.6 1 1 .7-.7.7-1.3 0-2-.6-.6-1-.3-1 1zm4.4 1.7c1.2.2 3.2.2 4.5 0 1.2-.2.2-.4-2.3-.4s-3.5.2-2.2.4zm10 8c1.2.2 3.2.2 4.5 0 1.2-.2.2-.4-2.3-.4s-3.5.2-2.2.4zm-98 4c1.2.2 3.2.2 4.5 0 1.2-.2.2-.4-2.3-.4s-3.5.2-2.2.4zm-6.3 1.3c-1.6.7-1.7.9-.3.9.9.1 2-.4 2.3-.9.7-1.1.7-1.1-2 0zm117.8.7c.9.2 2.5.2 3.5 0 .9-.3.1-.5-1.8-.5-1.9 0-2.7.2-1.7.5zm-183.5 4c1.2.2 3 .2 4 0 .9-.3-.1-.5-2.3-.4-2.2 0-3 .2-1.7.4zm28.5 0c.9.2 2.3.2 3 0 .6-.3-.1-.5-1.8-.5-1.6 0-2.2.2-1.2.5zm-35 2c.9.2 2.3.2 3 0 .6-.3-.1-.5-1.8-.5-1.6 0-2.2.2-1.2.5zm-10.5 4c.7.3 1.6.2 1.9-.1.4-.3-.2-.6-1.3-.5-1.1 0-1.4.3-.6.6zm-4 2c.7.3 1.6.2 1.9-.1.4-.3-.2-.6-1.3-.5-1.1 0-1.4.3-.6.6zm-9.5 4c.9.2 2.3.2 3 0 .6-.3-.1-.5-1.8-.5-1.6 0-2.2.2-1.2.5zm163.5 0c.6.2 1.8.2 2.5 0 .6-.3.1-.5-1.3-.5-1.4 0-1.9.2-1.2.5zM207.5 96c-1.6.7-1.7.9-.3.9.9.1 2-.4 2.3-.9.7-1.1.7-1.1-2 0zm165.3.7c.7.3 1.6.2 1.9-.1.4-.3-.2-.6-1.3-.5-1.1 0-1.4.3-.6.6zm-174 4c.7.3 1.6.2 1.9-.1.4-.3-.2-.6-1.3-.5-1.1 0-1.4.3-.6.6zm-4 2c.7.3 1.6.2 1.9-.1.4-.3-.2-.6-1.3-.5-1.1 0-1.4.3-.6.6zm206.5 0c.9.2 2.5.2 3.5 0 .9-.3.1-.5-1.8-.5-1.9 0-2.7.2-1.7.5zm-214.5 4c.7.3 1.6.2 1.9-.1.4-.3-.2-.6-1.3-.5-1.1 0-1.4.3-.6.6zm-4 2c.7.3 1.6.2 1.9-.1.4-.3-.2-.6-1.3-.5-1.1 0-1.4.3-.6.6zm-14 6c.7.3 1.6.2 1.9-.1.4-.3-.2-.6-1.3-.5-1.1 0-1.4.3-.6.6zm-6 4c.7.3 1.6.2 1.9-.1.4-.3-.2-.6-1.3-.5-1.1 0-1.4.3-.6.6zm-4 2c.7.3 1.6.2 1.9-.1.4-.3-.2-.6-1.3-.5-1.1 0-1.4.3-.6.6zm40 10c.7.3 1.6.2 1.9-.1.4-.3-.2-.6-1.3-.5-1.1 0-1.4.3-.6.6zm23.5 0c.9.2 2.3.2 3 0 .6-.3-.1-.5-1.8-.5-1.6 0-2.2.2-1.2.5zm-83.5 2c.7.3 1.6.2 1.9-.1.4-.3-.2-.6-1.3-.5-1.1 0-1.4.3-.6.6zm89 0c.7.3 1.6.2 1.9-.1.4-.3-.2-.6-1.3-.5-1.1 0-1.4.3-.6.6zm243.5 0c.9.2 2.5.2 3.5 0 .9-.3.1-.5-1.8-.5-1.9 0-2.7.2-1.7.5zm164 0c2 .2 5.4.2 7.5 0 2-.2.3-.4-3.8-.4s-5.8.2-3.7.4zm-502.5 4c.7.3 1.6.2 1.9-.1.4-.3-.2-.6-1.3-.5-1.1 0-1.4.3-.6.6zm457 0c1.2.2 3 .2 4 0 .9-.3-.1-.5-2.3-.4-2.2 0-3 .2-1.7.4zm-395 2c.7.3 1.6.2 1.9-.1.4-.3-.2-.6-1.3-.5-1.1 0-1.4.3-.6.6zm17.5 0c.9.2 2.3.2 3 0 .6-.3-.1-.5-1.8-.5-1.6 0-2.2.2-1.2.5zm369.5 0c1.2.2 3 .2 4 0 .9-.3-.1-.5-2.3-.4-2.2 0-3 .2-1.7.4zm-11 4c.7.3 1.6.2 1.9-.1.4-.3-.2-.6-1.3-.5-1.1 0-1.4.3-.6.6zm-450 2c.7.3 1.6.2 1.9-.1.4-.3-.2-.6-1.3-.5-1.1 0-1.4.3-.6.6zm446 0c.7.3 1.6.2 1.9-.1.4-.3-.2-.6-1.3-.5-1.1 0-1.4.3-.6.6zm-8 4c.7.3 1.6.2 1.9-.1.4-.3-.2-.6-1.3-.5-1.1 0-1.4.3-.6.6zm-248 2c.7.3 1.6.2 1.9-.1.4-.3-.2-.6-1.3-.5-1.1 0-1.4.3-.6.6zm244 0c.7.3 1.6.2 1.9-.1.4-.3-.2-.6-1.3-.5-1.1 0-1.4.3-.6.6zm79 0c.7.3 1.6.2 1.9-.1.4-.3-.2-.6-1.3-.5-1.1 0-1.4.3-.6.6zm-483 4c.7.3 1.6.2 1.9-.1.4-.3-.2-.6-1.3-.5-1.1 0-1.4.3-.6.6zm147 0c.7.3 1.6.2 1.9-.1.4-.3-.2-.6-1.3-.5-1.1 0-1.4.3-.6.6zm-151 2c.7.3 1.6.2 1.9-.1.4-.3-.2-.6-1.3-.5-1.1 0-1.4.3-.6.6zm155 0c.7.3 1.6.2 1.9-.1.4-.3-.2-.6-1.3-.5-1.1 0-1.4.3-.6.6zm243 0c.7.3 1.6.2 1.9-.1.4-.3-.2-.6-1.3-.5-1.1 0-1.4.3-.6.6zm-172 4c.7.3 1.6.2 1.9-.1.4-.3-.2-.6-1.3-.5-1.1 0-1.4.3-.6.6zm166 0c.7.3 1.6.2 1.9-.1.4-.3-.2-.6-1.3-.5-1.1 0-1.4.3-.6.6zm-199.8.7c0 .2.7.7 1.6 1 .8.3 1.2.2.9-.4-.6-1-2.5-1.4-2.5-.6zm-201.2 11.3c.7.3 1.6.2 1.9-.1.4-.3-.2-.6-1.3-.5-1.1 0-1.4.3-.6.6zm371 2c.6.2 1.8.2 2.5 0 .6-.3.1-.5-1.3-.5-1.4 0-1.9.2-1.2.5zm-362 4c.7.3 1.6.2 1.9-.1.4-.3-.2-.6-1.3-.5-1.1 0-1.4.3-.6.6zm24 0c.6.2 1.8.2 2.5 0 .6-.3.1-.5-1.3-.5-1.4 0-1.9.2-1.2.5zm325 0c.7.3 1.6.2 1.9-.1.4-.3-.2-.6-1.3-.5-1.1 0-1.4.3-.6.6zm116 0c.7.3 1.6.2 1.9-.1.4-.3-.2-.6-1.3-.5-1.1 0-1.4.3-.6.6zm-514 2c1.2.2 3.2.2 4.5 0 1.2-.2.2-.4-2.3-.4s-3.5.2-2.2.4zm67.5 0c.9.2 2.3.2 3 0 .6-.3-.1-.5-1.8-.5-1.6 0-2.2.2-1.2.5zm55.5 0c.7.3 1.6.2 1.9-.1.4-.3-.2-.6-1.3-.5-1.1 0-1.4.3-.6.6zm-6 4c.7.3 1.6.2 1.9-.1.4-.3-.2-.6-1.3-.5-1.1 0-1.4.3-.6.6zm-28 2c.6.2 1.8.2 2.5 0 .6-.3.1-.5-1.3-.5-1.4 0-1.9.2-1.2.5zm19.5 0c1.5.2 3.7.2 5 0 1.2-.2 0-.4-2.8-.4-2.7 0-3.8.2-2.2.4zm-86.5 6c.7.3 1.6.2 1.9-.1.4-.3-.2-.6-1.3-.5-1.1 0-1.4.3-.6.6zm121 6c.6.2 1.8.2 2.5 0 .6-.3.1-.5-1.3-.5-1.4 0-1.9.2-1.2.5zm-91.5 6c2.6.2 6.7.2 9 0s.2-.3-4.8-.3c-4.9 0-6.8.1-4.2.3zm18.5 4c.7.3 1.6.2 1.9-.1.4-.3-.2-.6-1.3-.5-1.1 0-1.4.3-.6.6zm10 0c1.2.2 3 .2 4 0 .9-.3-.1-.5-2.3-.4-2.2 0-3 .2-1.7.4zm-6 2c.6.2 1.8.2 2.5 0 .6-.3.1-.5-1.3-.5-1.4 0-1.9.2-1.2.5zm424 6c.7.3 1.6.2 1.9-.1.4-.3-.2-.6-1.3-.5-1.1 0-1.4.3-.6.6zm-474 4c.7.3 1.6.2 1.9-.1.4-.3-.2-.6-1.3-.5-1.1 0-1.4.3-.6.6zm4 2c.7.3 1.6.2 1.9-.1.4-.3-.2-.6-1.3-.5-1.1 0-1.4.3-.6.6zm8.5 4c.9.2 2.3.2 3 0 .6-.3-.1-.5-1.8-.5-1.6 0-2.2.2-1.2.5zm81.5 0c4.6.2 11.8.2 16 0 4.2-.1.5-.3-8.3-.3s-12.3.2-7.7.3zm-76 2c.7.3 1.6.2 1.9-.1.4-.3-.2-.6-1.3-.5-1.1 0-1.4.3-.6.6zm65 0c.7.3 1.6.2 1.9-.1.4-.3-.2-.6-1.3-.5-1.1 0-1.4.3-.6.6zm-55 4c.7.3 1.6.2 1.9-.1.4-.3-.2-.6-1.3-.5-1.1 0-1.4.3-.6.6zm268 0c.7.3 1.6.2 1.9-.1.4-.3-.2-.6-1.3-.5-1.1 0-1.4.3-.6.6zm-262 2c.7.3 1.6.2 1.9-.1.4-.3-.2-.6-1.3-.5-1.1 0-1.4.3-.6.6zm8 4c.7.3 1.6.2 1.9-.1.4-.3-.2-.6-1.3-.5-1.1 0-1.4.3-.6.6zm40 2c1.2.2 3.2.2 4.5 0 1.2-.2.2-.4-2.3-.4s-3.5.2-2.2.4zm49.5 0c.9.2 2.3.2 3 0 .6-.3-.1-.5-1.8-.5-1.6 0-2.2.2-1.2.5zm-77.5 4c.7.3 1.6.2 1.9-.1.4-.3-.2-.6-1.3-.5-1.1 0-1.4.3-.6.6zm44 0c.7.3 1.6.2 1.9-.1.4-.3-.2-.6-1.3-.5-1.1 0-1.4.3-.6.6zm23 0c.7.3 1.6.2 1.9-.1.4-.3-.2-.6-1.3-.5-1.1 0-1.4.3-.6.6zm-63 2c.7.3 1.6.2 1.9-.1.4-.3-.2-.6-1.3-.5-1.1 0-1.4.3-.6.6zm10 4c.7.3 1.6.2 1.9-.1.4-.3-.2-.6-1.3-.5-1.1 0-1.4.3-.6.6zm263.5 0c4.2.2 11.2.2 15.5 0 4.2-.1.7-.3-7.8-.3s-12 .2-7.7.3zm-259.5 2c.7.3 1.6.2 1.9-.1.4-.3-.2-.6-1.3-.5-1.1 0-1.4.3-.6.6zm249 0c.7.3 1.6.2 1.9-.1.4-.3-.2-.6-1.3-.5-1.1 0-1.4.3-.6.6zm36 0c1.2.2 3 .2 4 0 .9-.3-.1-.5-2.3-.4-2.2 0-3 .2-1.7.4zm137.5 0c.9.2 2.3.2 3 0 .6-.3-.1-.5-1.8-.5-1.6 0-2.2.2-1.2.5zm-414 4c.9.2 2.3.2 3 0 .6-.3-.1-.5-1.8-.5-1.6 0-2.2.2-1.2.5zm289.5 0c.7.3 1.6.2 1.9-.1.4-.3-.2-.6-1.3-.5-1.1 0-1.4.3-.6.6zm-284 2c.7.3 1.6.2 1.9-.1.4-.3-.2-.6-1.3-.5-1.1 0-1.4.3-.6.6zm288.5 0c.9.2 2.3.2 3 0 .6-.3-.1-.5-1.8-.5-1.6 0-2.2.2-1.2.5zm-280.5 4c.7.3 1.6.2 1.9-.1.4-.3-.2-.6-1.3-.5-1.1 0-1.4.3-.6.6zm292.5 0c.9.2 2.3.2 3 0 .6-.3-.1-.5-1.8-.5-1.6 0-2.2.2-1.2.5zm113.5 0c.7.3 1.6.2 1.9-.1.4-.3-.2-.6-1.3-.5-1.1 0-1.4.3-.6.6zm-107.5 2c.9.2 2.3.2 3 0 .6-.3-.1-.5-1.8-.5-1.6 0-2.2.2-1.2.5zm-284.5 4c.6.2 1.8.2 2.5 0 .6-.3.1-.5-1.3-.5-1.4 0-1.9.2-1.2.5zm167 0c1.2.2 3 .2 4 0 .9-.3-.1-.5-2.3-.4-2.2 0-3 .2-1.7.4zm132 0c1.2.2 3 .2 4 0 .9-.3-.1-.5-2.3-.4-2.2 0-3 .2-1.7.4zm7.5 2c.9.2 2.3.2 3 0 .6-.3-.1-.5-1.8-.5-1.6 0-2.2.2-1.2.5zm-447 4c1.5.2 3.7.2 5 0 1.2-.2 0-.4-2.8-.4-2.7 0-3.8.2-2.2.4zm460.5 0c.7.3 1.6.2 1.9-.1.4-.3-.2-.6-1.3-.5-1.1 0-1.4.3-.6.6zm-449.5 2c.9.2 2.3.2 3 0 .6-.3-.1-.5-1.8-.5-1.6 0-2.2.2-1.2.5zm454 0c.9.2 2.3.2 3 0 .6-.3-.1-.5-1.8-.5-1.6 0-2.2.2-1.2.5zm-440 4c.9.2 2.3.2 3 0 .6-.3-.1-.5-1.8-.5-1.6 0-2.2.2-1.2.5zm452 0c.9.2 2.3.2 3 0 .6-.3-.1-.5-1.8-.5-1.6 0-2.2.2-1.2.5zm-446.5 2c.7.3 1.6.2 1.9-.1.4-.3-.2-.6-1.3-.5-1.1 0-1.4.3-.6.6zm233 0c1.7.2 4.7.2 6.5 0 1.7-.2.3-.4-3.3-.4-3.6 0-5 .2-3.2.4zm220 0c1.2.2 3 .2 4 0 .9-.3-.1-.5-2.3-.4-2.2 0-3 .2-1.7.4zm-445 4c.7.3 1.6.2 1.9-.1.4-.3-.2-.6-1.3-.5-1.1 0-1.4.3-.6.6zm458.5 0c.9.2 2.3.2 3 0 .6-.3-.1-.5-1.8-.5-1.6 0-2.2.2-1.2.5zm-268 2c1.5.2 3.9.2 5.5 0 1.5-.2.2-.4-2.8-.4s-4.3.2-2.7.4zm51.5 0c.7.3 1.6.2 1.9-.1.4-.3-.2-.6-1.3-.5-1.1 0-1.4.3-.6.6zm222 0c.7.3 1.6.2 1.9-.1.4-.3-.2-.6-1.3-.5-1.1 0-1.4.3-.6.6zm-452 4c.7.3 1.6.2 1.9-.1.4-.3-.2-.6-1.3-.5-1.1 0-1.4.3-.6.6zm192 0c.7.3 1.6.2 1.9-.1.4-.3-.2-.6-1.3-.5-1.1 0-1.4.3-.6.6zm155 0c.7.3 1.6.2 1.9-.1.4-.3-.2-.6-1.3-.5-1.1 0-1.4.3-.6.6zm115 0c.7.3 1.6.2 1.9-.1.4-.3-.2-.6-1.3-.5-1.1 0-1.4.3-.6.6zm-458 2c.7.3 1.6.2 1.9-.1.4-.3-.2-.6-1.3-.5-1.1 0-1.4.3-.6.6zm145 0c.7.3 1.6.2 1.9-.1.4-.3-.2-.6-1.3-.5-1.1 0-1.4.3-.6.6zm9 0c.7.3 1.6.2 1.9-.1.4-.3-.2-.6-1.3-.5-1.1 0-1.4.3-.6.6zm308 0c.7.3 1.6.2 1.9-.1.4-.3-.2-.6-1.3-.5-1.1 0-1.4.3-.6.6zm-109 4c.7.3 1.6.2 1.9-.1.4-.3-.2-.6-1.3-.5-1.1 0-1.4.3-.6.6zm21 0c.7.3 1.6.2 1.9-.1.4-.3-.2-.6-1.3-.5-1.1 0-1.4.3-.6.6zm-364 2c.7.3 1.6.2 1.9-.1.4-.3-.2-.6-1.3-.5-1.1 0-1.4.3-.6.6zm368 0c.7.3 1.6.2 1.9-.1.4-.3-.2-.6-1.3-.5-1.1 0-1.4.3-.6.6zm43 0c1.7.2 4.7.2 6.5 0 1.7-.2.3-.4-3.3-.4-3.6 0-5 .2-3.2.4zm-405 4c.7.3 1.6.2 1.9-.1.4-.3-.2-.6-1.3-.5-1.1 0-1.4.3-.6.6zm420 0c.7.3 1.6.2 1.9-.1.4-.3-.2-.6-1.3-.5-1.1 0-1.4.3-.6.6zm-306.5 2c.9.2 2.5.2 3.5 0 .9-.3.1-.5-1.8-.5-1.9 0-2.7.2-1.7.5zm317.5 6c1.8.2 4.5.2 6 0s0-.4-3.3-.4-4.5.2-2.7.4zm-346.5 6c1.5.2 3.9.2 5.5 0 1.5-.2.2-.4-2.8-.4s-4.3.2-2.7.4zm328.5 0c1.2.2 3 .2 4 0 .9-.3-.1-.5-2.3-.4-2.2 0-3 .2-1.7.4zm-467 6c1.2.2 3 .2 4 0 .9-.3-.1-.5-2.3-.4-2.2 0-3 .2-1.7.4zm452 4c.7.3 1.6.2 1.9-.1.4-.3-.2-.6-1.3-.5-1.1 0-1.4.3-.6.6zm43.5 2c.9.2 2.3.2 3 0 .6-.3-.1-.5-1.8-.5-1.6 0-2.2.2-1.2.5zm-376.5 4c1.2.2 3 .2 4 0 .9-.3-.1-.5-2.3-.4-2.2 0-3 .2-1.7.4zm368.5 0c.9.2 2.3.2 3 0 .6-.3-.1-.5-1.8-.5-1.6 0-2.2.2-1.2.5zm-153 2c1.5.2 3.7.2 5 0 1.2-.2 0-.4-2.8-.4-2.7 0-3.8.2-2.2.4zm102.5 0c.7.3 1.6.2 1.9-.1.4-.3-.2-.6-1.3-.5-1.1 0-1.4.3-.6.6zm44.5 0c.9.2 2.3.2 3 0 .6-.3-.1-.5-1.8-.5-1.6 0-2.2.2-1.2.5zm-116.5 4c.6.2 1.8.2 2.5 0 .6-.3.1-.5-1.3-.5-1.4 0-1.9.2-1.2.5zm-263.5 6c2 .2 5.4.2 7.5 0 2-.2.3-.4-3.8-.4s-5.8.2-3.7.4zm359.5 0c.7.3 1.6.2 1.9-.1.4-.3-.2-.6-1.3-.5-1.1 0-1.4.3-.6.6zm-67 2c.7.3 1.6.2 1.9-.1.4-.3-.2-.6-1.3-.5-1.1 0-1.4.3-.6.6zm-166.5 4c1.5.2 3.7.2 5 0 1.2-.2 0-.4-2.8-.4-2.7 0-3.8.2-2.2.4zm39 2c.9.2 2.3.2 3 0 .6-.3-.1-.5-1.8-.5-1.6 0-2.2.2-1.2.5zm174.4 0c1.8.2 5 .2 7 0 2.1-.2.7-.4-3.2-.4-3.8 0-5.5.2-3.8.4zm-437.9 22c.7.3 1.6.2 1.9-.1.4-.3-.2-.6-1.3-.5-1.1 0-1.4.3-.6.6zm442 0c2.3.2 5.9.2 8 0 2-.2.1-.4-4.3-.4-4.4 0-6.1.2-3.7.4zm-446 2c.7.3 1.6.2 1.9-.1.4-.3-.2-.6-1.3-.5-1.1 0-1.4.3-.6.6zm134 4c.7.3 1.6.2 1.9-.1.4-.3-.2-.6-1.3-.5-1.1 0-1.4.3-.6.6zm290 0c.7.3 1.6.2 1.9-.1.4-.3-.2-.6-1.3-.5-1.1 0-1.4.3-.6.6zm34 2c.6.2 1.8.2 2.5 0 .6-.3.1-.5-1.3-.5-1.4 0-1.9.2-1.2.5zm-69 4c.7.3 1.6.2 1.9-.1.4-.3-.2-.6-1.3-.5-1.1 0-1.4.3-.6.6zm-275.1 2c1.8.2 5 .2 7 0 2.1-.2.7-.4-3.2-.4-3.8 0-5.5.2-3.8.4zm279.1 0c.7.3 1.6.2 1.9-.1.4-.3-.2-.6-1.3-.5-1.1 0-1.4.3-.6.6zm19 0c.7.3 1.6.2 1.9-.1.4-.3-.2-.6-1.3-.5-1.1 0-1.4.3-.6.6zm-434 4c1.8.2 4.5.2 6 0s0-.4-3.3-.4-4.5.2-2.7.4zm174 2c.7.3 1.6.2 1.9-.1.4-.3-.2-.6-1.3-.5-1.1 0-1.4.3-.6.6zm286.5 0c.9.2 2.3.2 3 0 .6-.3-.1-.5-1.8-.5-1.6 0-2.2.2-1.2.5zm-11.5 4c.6.2 1.8.2 2.5 0 .6-.3.1-.5-1.3-.5-1.4 0-1.9.2-1.2.5zm-286.5 2c.9.2 2.3.2 3 0 .6-.3-.1-.5-1.8-.5-1.6 0-2.2.2-1.2.5zm-178.5 4c.7.3 1.6.2 1.9-.1.4-.3-.2-.6-1.3-.5-1.1 0-1.4.3-.6.6zm205 0c1.2.2 3 .2 4 0 .9-.3-.1-.5-2.3-.4-2.2 0-3 .2-1.7.4zm241 0c.7.3 1.6.2 1.9-.1.4-.3-.2-.6-1.3-.5-1.1 0-1.4.3-.6.6zm-4 2c.7.3 1.6.2 1.9-.1.4-.3-.2-.6-1.3-.5-1.1 0-1.4.3-.6.6zm-192 10c.7.3 1.6.2 1.9-.1.4-.3-.2-.6-1.3-.5-1.1 0-1.4.3-.6.6zm-10 6c.7.3 1.6.2 1.9-.1.4-.3-.2-.6-1.3-.5-1.1 0-1.4.3-.6.6zm-4 2c.7.3 1.6.2 1.9-.1.4-.3-.2-.6-1.3-.5-1.1 0-1.4.3-.6.6zm189 0c.7.3 1.6.2 1.9-.1.4-.3-.2-.6-1.3-.5-1.1 0-1.4.3-.6.6zm-198.5 4c.9.2 2.3.2 3 0 .6-.3-.1-.5-1.8-.5-1.6 0-2.2.2-1.2.5zm53.5 6c.7.3 1.6.2 1.9-.1.4-.3-.2-.6-1.3-.5-1.1 0-1.4.3-.6.6z" fill="none"/><path d="M391.9 74.7c-1.3 1.6-1.2 1.7.4.4 1.6-1.3 2.1-2.1 1.3-2.1-.2 0-1 .8-1.7 1.7zm26 12c-1.3 1.6-1.2 1.7.4.4 1.6-1.3 2.1-2.1 1.3-2.1-.2 0-1 .8-1.7 1.7zm12 6c-1.3 1.6-1.2 1.7.4.4 1.6-1.3 2.1-2.1 1.3-2.1-.2 0-1 .8-1.7 1.7zM114 187.4c0 .2.8 1 1.8 1.7 1.5 1.3 1.6 1.2.3-.4s-2.1-2.1-2.1-1.3zm491.9 163.3c-1.3 1.6-1.2 1.7.4.4.9-.7 1.7-1.5 1.7-1.7 0-.8-.8-.3-2.1 1.3zm-228 18c-1.3 1.6-1.2 1.7.4.4.9-.7 1.7-1.5 1.7-1.7 0-.8-.8-.3-2.1 1.3zm172 36c-1.3 1.6-1.2 1.7.4.4.9-.7 1.7-1.5 1.7-1.7 0-.8-.8-.3-2.1 1.3z" fill="#FFF" fill-opacity=".06"/><path d="M332.9 36.7c-1.3 1.6-1.2 1.7.4.4.9-.7 1.7-1.5 1.7-1.7 0-.8-.8-.3-2.1 1.3zm-5.5 5.5-1.9 2.3 2.3-1.9c2.1-1.8 2.7-2.6 1.9-2.6-.2 0-1.2 1-2.3 2.2zm-6 6-1.9 2.3 2.3-1.9c2.1-1.8 2.7-2.6 1.9-2.6-.2 0-1.2 1-2.3 2.2zm26 0-1.9 2.3 2.3-1.9c2.1-1.8 2.7-2.6 1.9-2.6-.2 0-1.2 1-2.3 2.2zm-6 6-1.9 2.3 2.3-1.9c1.2-1.1 2.2-2.1 2.2-2.3 0-.8-.8-.2-2.6 1.9zm25.5.5c-1.3 1.6-1.2 1.7.4.4 1.6-1.3 2.1-2.1 1.3-2.1-.2 0-1 .8-1.7 1.7zm-5.5 5.5-1.9 2.3 2.3-1.9c2.1-1.8 2.7-2.6 1.9-2.6-.2 0-1.2 1-2.3 2.2zm33.6-.8c0 .2.8 1 1.8 1.7 1.5 1.3 1.6 1.2.3-.4s-2.1-2.1-2.1-1.3zm5.9 7.3c-1.3 1.6-1.2 1.7.4.4.9-.7 1.7-1.5 1.7-1.7 0-.8-.8-.3-2.1 1.3zm-5.5 5.5-1.9 2.3 2.3-1.9c1.2-1.1 2.2-2.1 2.2-2.3 0-.8-.8-.2-2.6 1.9zM321 77.4c0 .2.8 1 1.8 1.7 1.5 1.3 1.6 1.2.3-.4s-2.1-2.1-2.1-1.3zm-17.6 6.8-1.9 2.3 2.3-1.9c1.2-1.1 2.2-2.1 2.2-2.3 0-.8-.8-.2-2.6 1.9zm-28.4-.8c0 .2.8 1 1.8 1.7 1.5 1.3 1.6 1.2.3-.4s-2.1-2.1-2.1-1.3zm158.4 6.8-1.9 2.3 2.3-1.9c2.1-1.8 2.7-2.6 1.9-2.6-.2 0-1.2 1-2.3 2.2zm8.1-.2c1 1.1 2 2 2.3 2 .3 0-.3-.9-1.3-2s-2-2-2.3-2c-.3 0 .3.9 1.3 2zm-104.6.7c-1.3 1.6-1.2 1.7.4.4 1.6-1.3 2.1-2.1 1.3-2.1-.2 0-1 .8-1.7 1.7zm31 11c-1.3 1.6-1.2 1.7.4.4 1.6-1.3 2.1-2.1 1.3-2.1-.2 0-1 .8-1.7 1.7zm27.5 6.5-1.9 2.3 2.3-1.9c2.1-1.8 2.7-2.6 1.9-2.6-.2 0-1.2 1-2.3 2.2zm-34.5.5c-1.3 1.6-1.2 1.7.4.4.9-.7 1.7-1.5 1.7-1.7 0-.8-.8-.3-2.1 1.3zm58.5 5.5-1.9 2.3 2.3-1.9c1.2-1.1 2.2-2.1 2.2-2.3 0-.8-.8-.2-2.6 1.9zm22 12-1.9 2.3 2.3-1.9c2.1-1.8 2.7-2.6 1.9-2.6-.2 0-1.2 1-2.3 2.2zm-299.5 5.5c-1.3 1.6-1.2 1.7.4.4.9-.7 1.7-1.5 1.7-1.7 0-.8-.8-.3-2.1 1.3zm91.6 6.3c1 1.1 2 2 2.3 2 .3 0-.3-.9-1.3-2s-2-2-2.3-2c-.3 0 .3.9 1.3 2zm229.9.2-1.9 2.3 2.3-1.9c2.1-1.8 2.7-2.6 1.9-2.6-.2 0-1.2 1-2.3 2.2zm-339.5 5.5c-1.3 1.6-1.2 1.7.4.4.9-.7 1.7-1.5 1.7-1.7 0-.8-.8-.3-2.1 1.3zm65.5.5-1.9 2.3 2.3-1.9c2.1-1.8 2.7-2.6 1.9-2.6-.2 0-1.2 1-2.3 2.2zm32.1-.2c1 1.1 2 2 2.3 2 .3 0-.3-.9-1.3-2s-2-2-2.3-2c-.3 0 .3.9 1.3 2zm-106.1 6.2-1.9 2.3 2.3-1.9c2.1-1.8 2.7-2.6 1.9-2.6-.2 0-1.2 1-2.3 2.2zm372 0-1.9 2.3 2.3-1.9c2.1-1.8 2.7-2.6 1.9-2.6-.2 0-1.2 1-2.3 2.2zm-216.5.5c-1.3 1.6-1.2 1.7.4.4.9-.7 1.7-1.5 1.7-1.7 0-.8-.8-.3-2.1 1.3zm-161.5 5.5-1.9 2.3 2.3-1.9c2.1-1.8 2.7-2.6 1.9-2.6-.2 0-1.2 1-2.3 2.2zm372 0-1.9 2.3 2.3-1.9c1.2-1.1 2.2-2.1 2.2-2.3 0-.8-.8-.2-2.6 1.9zm-110.5 6.5c-1.3 1.6-1.2 1.7.4.4 1.6-1.3 2.1-2.1 1.3-2.1-.2 0-1 .8-1.7 1.7zm160.5 5.5-1.9 2.3 2.3-1.9c1.2-1.1 2.2-2.1 2.2-2.3 0-.8-.8-.2-2.6 1.9zM156 178.4c0 .2.8 1 1.8 1.7 1.5 1.3 1.6 1.2.3-.4s-2.1-2.1-2.1-1.3zm67.9 1.3c-1.3 1.6-1.2 1.7.4.4.9-.7 1.7-1.5 1.7-1.7 0-.8-.8-.3-2.1 1.3zm89 1c-1.3 1.6-1.2 1.7.4.4.9-.7 1.7-1.5 1.7-1.7 0-.8-.8-.3-2.1 1.3zm184.1-1.3c0 .2.8 1 1.8 1.7 1.5 1.3 1.6 1.2.3-.4s-2.1-2.1-2.1-1.3zm116 0c0 .2.8 1 1.8 1.7 1.5 1.3 1.6 1.2.3-.4s-2.1-2.1-2.1-1.3zm-497 11c0 .2.8 1 1.8 1.7 1.5 1.3 1.6 1.2.3-.4s-2.1-2.1-2.1-1.3zm21 7c0 .2.8 1 1.8 1.7 1.5 1.3 1.6 1.2.3-.4s-2.1-2.1-2.1-1.3zm5 5c0 .2.8 1 1.8 1.7 1.5 1.3 1.6 1.2.3-.4s-2.1-2.1-2.1-1.3zm109 1c0 .2.8 1 1.8 1.7 1.5 1.3 1.6 1.2.3-.4s-2.1-2.1-2.1-1.3zm174.5 6.6c1 1.1 2 2 2.3 2 .3 0-.3-.9-1.3-2s-2-2-2.3-2c-.3 0 .3.9 1.3 2zm161.5-1.3c0 .6.8 1.7 1.8 2.4 1.6 1.3 1.6 1.3.2-.6-.8-1.1-1.6-2.2-1.7-2.4-.2-.2-.3 0-.3.6zm-190 .7c0 .2.8 1 1.8 1.7 1.5 1.3 1.6 1.2.3-.4s-2.1-2.1-2.1-1.3zM115.5 216c1 1.1 2 2 2.3 2 .3 0-.3-.9-1.3-2s-2-2-2.3-2c-.3 0 .3.9 1.3 2zm316 0c1 1.1 2 2 2.3 2 .3 0-.3-.9-1.3-2s-2-2-2.3-2c-.3 0 .3.9 1.3 2zm160.5-1.6c0 .2.8 1 1.8 1.7 1.5 1.3 1.6 1.2.3-.4s-2.1-2.1-2.1-1.3zm-113 1c0 .2.8 1 1.8 1.7 1.5 1.3 1.6 1.2.3-.4s-2.1-2.1-2.1-1.3zm-71.5 6.6c1 1.1 2 2 2.3 2 .3 0-.3-.9-1.3-2s-2-2-2.3-2c-.3 0 .3.9 1.3 2zm30 0c1 1.1 2 2 2.3 2 .3 0-.3-.9-1.3-2s-2-2-2.3-2c-.3 0 .3.9 1.3 2zm-194.6.7c-1.3 1.6-1.2 1.7.4.4.9-.7 1.7-1.5 1.7-1.7 0-.8-.8-.3-2.1 1.3zm70.6 5.3c1 1.1 2 2 2.3 2 .3 0-.3-.9-1.3-2s-2-2-2.3-2c-.3 0 .3.9 1.3 2zm70 0c1 1.1 2 2 2.3 2 .3 0-.3-.9-1.3-2s-2-2-2.3-2c-.3 0 .3.9 1.3 2zm-30.5-.6c0 .2.8 1 1.8 1.7 1.5 1.3 1.6 1.2.3-.4s-2.1-2.1-2.1-1.3zm-33.5 6.6c1 1.1 2 2 2.3 2 .3 0-.3-.9-1.3-2s-2-2-2.3-2c-.3 0 .3.9 1.3 2zm40 0c1 1.1 2 2 2.3 2 .3 0-.3-.9-1.3-2s-2-2-2.3-2c-.3 0 .3.9 1.3 2zm-34 6c1 1.1 2 2 2.3 2 .3 0-.3-.9-1.3-2s-2-2-2.3-2c-.3 0 .3.9 1.3 2zm68 0c1 1.1 2 2 2.3 2 .3 0-.3-.9-1.3-2s-2-2-2.3-2c-.3 0 .3.9 1.3 2zm-62 6c1 1.1 2 2 2.3 2 .3 0-.3-.9-1.3-2s-2-2-2.3-2c-.3 0 .3.9 1.3 2zm38 0c1 1.1 2 2 2.3 2 .3 0-.3-.9-1.3-2s-2-2-2.3-2c-.3 0 .3.9 1.3 2zm-128.6.7c-1.3 1.6-1.2 1.7.4.4.9-.7 1.7-1.5 1.7-1.7 0-.8-.8-.3-2.1 1.3zM401 269.4c0 .2.8 1 1.8 1.7 1.5 1.3 1.6 1.2.3-.4s-2.1-2.1-2.1-1.3zm8.5 6.6c1 1.1 2 2 2.3 2 .3 0-.3-.9-1.3-2s-2-2-2.3-2c-.3 0 .3.9 1.3 2zm6 6c1 1.1 2 2 2.3 2 .3 0-.3-.9-1.3-2s-2-2-2.3-2c-.3 0 .3.9 1.3 2zm-49.5 4.4c0 .2.8 1 1.8 1.7 1.5 1.3 1.6 1.2.3-.4s-2.1-2.1-2.1-1.3zm55.5 1.6c1 1.1 2 2 2.3 2 .3 0-.3-.9-1.3-2s-2-2-2.3-2c-.3 0 .3.9 1.3 2zm-46 6c1 1.1 2 2 2.3 2 .3 0-.3-.9-1.3-2s-2-2-2.3-2c-.3 0 .3.9 1.3 2zm49.5-.6c0 .2.8 1 1.8 1.7 1.5 1.3 1.6 1.2.3-.4s-2.1-2.1-2.1-1.3zm59.9 1.3c-1.3 1.6-1.2 1.7.4.4 1.6-1.3 2.1-2.1 1.3-2.1-.2 0-1 .8-1.7 1.7zM305.5 300c1 1.1 2 2 2.3 2 .3 0-.3-.9-1.3-2s-2-2-2.3-2c-.3 0 .3.9 1.3 2zm34 0c1 1.1 2 2 2.3 2 .3 0-.3-.9-1.3-2s-2-2-2.3-2c-.3 0 .3.9 1.3 2zm139.9.2-1.9 2.3 2.3-1.9c1.2-1.1 2.2-2.1 2.2-2.3 0-.8-.8-.2-2.6 1.9zm134.1-.2c1 1.1 2 2 2.3 2 .3 0-.3-.9-1.3-2s-2-2-2.3-2c-.3 0 .3.9 1.3 2zm-118.6.7c-1.3 1.6-1.2 1.7.4.4.9-.7 1.7-1.5 1.7-1.7 0-.8-.8-.3-2.1 1.3zM311.5 306c1 1.1 2 2 2.3 2 .3 0-.3-.9-1.3-2s-2-2-2.3-2c-.3 0 .3.9 1.3 2zm216 0c1 1.1 2 2 2.3 2 .3 0-.3-.9-1.3-2s-2-2-2.3-2c-.3 0 .3.9 1.3 2zm92 0c1 1.1 2 2 2.3 2 .3 0-.3-.9-1.3-2s-2-2-2.3-2c-.3 0 .3.9 1.3 2zm-458.5-.6c0 .2.8 1 1.8 1.7 1.5 1.3 1.6 1.2.3-.4s-2.1-2.1-2.1-1.3zm420 0c0 .2.8 1 1.8 1.7 1.5 1.3 1.6 1.2.3-.4s-2.1-2.1-2.1-1.3zM169.5 312c1 1.1 2 2 2.3 2 .3 0-.3-.9-1.3-2s-2-2-2.3-2c-.3 0 .3.9 1.3 2zm112 0c1 1.1 2 2 2.3 2 .3 0-.3-.9-1.3-2s-2-2-2.3-2c-.3 0 .3.9 1.3 2zm67.5-.6c0 .2.8 1 1.8 1.7 1.5 1.3 1.6 1.2.3-.4s-2.1-2.1-2.1-1.3zm234.9 6.3c-1.3 1.6-1.2 1.7.4.4 1.6-1.3 2.1-2.1 1.3-2.1-.2 0-1 .8-1.7 1.7zm-81 1c-1.3 1.6-1.2 1.7.4.4 1.6-1.3 2.1-2.1 1.3-2.1-.2 0-1 .8-1.7 1.7zM255.5 324c1 1.1 2 2 2.3 2 .3 0-.3-.9-1.3-2s-2-2-2.3-2c-.3 0 .3.9 1.3 2zm140 0c1 1.1 2 2 2.3 2 .3 0-.3-.9-1.3-2s-2-2-2.3-2c-.3 0 .3.9 1.3 2zm171.4.7c-1.3 1.6-1.2 1.7.4.4 1.6-1.3 2.1-2.1 1.3-2.1-.2 0-1 .8-1.7 1.7zm60.1 4.7c0 .2.8 1 1.8 1.7 1.5 1.3 1.6 1.2.3-.4s-2.1-2.1-2.1-1.3zM489.5 342c1 1.1 2 2 2.3 2 .3 0-.3-.9-1.3-2s-2-2-2.3-2c-.3 0 .3.9 1.3 2zm33.9.2-1.9 2.3 2.3-1.9c1.2-1.1 2.2-2.1 2.2-2.3 0-.8-.8-.2-2.6 1.9zm58 0-1.9 2.3 2.3-1.9c1.2-1.1 2.2-2.1 2.2-2.3 0-.8-.8-.2-2.6 1.9zm-85.4 4.2c0 .2.8 1 1.8 1.7 1.5 1.3 1.6 1.2.3-.4s-2.1-2.1-2.1-1.3zm-293.1 2.3c-1.3 1.6-1.2 1.7.4.4.9-.7 1.7-1.5 1.7-1.7 0-.8-.8-.3-2.1 1.3zm64.1-1.3c0 .2.8 1 1.8 1.7 1.5 1.3 1.6 1.2.3-.4s-2.1-2.1-2.1-1.3zm144 0c0 .2.8 1 1.8 1.7 1.5 1.3 1.6 1.2.3-.4s-2.1-2.1-2.1-1.3zm153.9 1.3c-1.3 1.6-1.2 1.7.4.4 1.6-1.3 2.1-2.1 1.3-2.1-.2 0-1 .8-1.7 1.7zm44 0c-1.3 1.6-1.2 1.7.4.4 1.6-1.3 2.1-2.1 1.3-2.1-.2 0-1 .8-1.7 1.7zm-389 5c-1.3 1.6-1.2 1.7.4.4.9-.7 1.7-1.5 1.7-1.7 0-.8-.8-.3-2.1 1.3zm383.5.5-1.9 2.3 2.3-1.9c2.1-1.8 2.7-2.6 1.9-2.6-.2 0-1.2 1-2.3 2.2zm-356 6-1.9 2.3 2.3-1.9c2.1-1.8 2.7-2.6 1.9-2.6-.2 0-1.2 1-2.3 2.2zm350 0-1.9 2.3 2.3-1.9c2.1-1.8 2.7-2.6 1.9-2.6-.2 0-1.2 1-2.3 2.2zm-484 6-1.9 2.3 2.3-1.9c2.1-1.8 2.7-2.6 1.9-2.6-.2 0-1.2 1-2.3 2.2zm198.5-.5c-1.3 1.6-1.2 1.7.4.4 1.6-1.3 2.1-2.1 1.3-2.1-.2 0-1 .8-1.7 1.7zm279.5.5-1.9 2.3 2.3-1.9c1.2-1.1 2.2-2.1 2.2-2.3 0-.8-.8-.2-2.6 1.9zm-210.5.5c-1.3 1.6-1.2 1.7.4.4 1.6-1.3 2.1-2.1 1.3-2.1-.2 0-1 .8-1.7 1.7zm204.5 5.5-1.9 2.3 2.3-1.9c2.1-1.8 2.7-2.6 1.9-2.6-.2 0-1.2 1-2.3 2.2zm-6 6-1.9 2.3 2.3-1.9c1.2-1.1 2.2-2.1 2.2-2.3 0-.8-.8-.2-2.6 1.9zm-91.9 5.8c1 1.1 2 2 2.3 2 .3 0-.3-.9-1.3-2s-2-2-2.3-2c-.3 0 .3.9 1.3 2zm85.9.2-1.9 2.3 2.3-1.9c2.1-1.8 2.7-2.6 1.9-2.6-.2 0-1.2 1-2.3 2.2zm-336.5.5c-1.3 1.6-1.2 1.7.4.4.9-.7 1.7-1.5 1.7-1.7 0-.8-.8-.3-2.1 1.3zm290 0c-1.3 1.6-1.2 1.7.4.4 1.6-1.3 2.1-2.1 1.3-2.1-.2 0-1 .8-1.7 1.7zm-433.5 5.5-1.9 2.3 2.3-1.9c2.1-1.8 2.7-2.6 1.9-2.6-.2 0-1.2 1-2.3 2.2zm462 0-1.9 2.3 2.3-1.9c1.2-1.1 2.2-2.1 2.2-2.3 0-.8-.8-.2-2.6 1.9zm12 0-1.9 2.3 2.3-1.9c1.2-1.1 2.2-2.1 2.2-2.3 0-.8-.8-.2-2.6 1.9zm-266.5.5c-1.3 1.6-1.2 1.7.4.4.9-.7 1.7-1.5 1.7-1.7 0-.8-.8-.3-2.1 1.3zm-5.5 5.5-1.9 2.3 2.3-1.9c1.2-1.1 2.2-2.1 2.2-2.3 0-.8-.8-.2-2.6 1.9zm258 6-1.9 2.3 2.3-1.9c1.2-1.1 2.2-2.1 2.2-2.3 0-.8-.8-.2-2.6 1.9zm-266.5.5c-1.3 1.6-1.2 1.7.4.4.9-.7 1.7-1.5 1.7-1.7 0-.8-.8-.3-2.1 1.3zm44.5 5.5-1.9 2.3 2.3-1.9c2.1-1.8 2.7-2.6 1.9-2.6-.2 0-1.2 1-2.3 2.2zm41.5 6.5c-1.3 1.6-1.2 1.7.4.4.9-.7 1.7-1.5 1.7-1.7 0-.8-.8-.3-2.1 1.3zm115.1 9.7c0 .2.8 1 1.8 1.7 1.5 1.3 1.6 1.2.3-.4s-2.1-2.1-2.1-1.3zm-132.6 7.8-1.9 2.3 2.3-1.9c2.1-1.8 2.7-2.6 1.9-2.6-.2 0-1.2 1-2.3 2.2zm34 6-1.9 2.3 2.3-1.9c2.1-1.8 2.7-2.6 1.9-2.6-.2 0-1.2 1-2.3 2.2zm-44.5.5c-1.3 1.6-1.2 1.7.4.4 1.6-1.3 2.1-2.1 1.3-2.1-.2 0-1 .8-1.7 1.7zm-7.5 5.5-1.9 2.3 2.3-1.9c2.1-1.8 2.7-2.6 1.9-2.6-.2 0-1.2 1-2.3 2.2zm40 6-1.9 2.3 2.3-1.9c2.1-1.8 2.7-2.6 1.9-2.6-.2 0-1.2 1-2.3 2.2zm-6 6-1.9 2.3 2.3-1.9c2.1-1.8 2.7-2.6 1.9-2.6-.2 0-1.2 1-2.3 2.2z" fill="#FFF" fill-opacity=".19"/><path d="M353.8 25.7c.6.2 1.8.2 2.5 0 .6-.3.1-.5-1.3-.5-1.4 0-1.9.2-1.2.5zm10 12c.6.2 1.8.2 2.5 0 .6-.3.1-.5-1.3-.5-1.4 0-1.9.2-1.2.5zm14.5 12c.9.2 2.5.2 3.5 0 .9-.3.1-.5-1.8-.5-1.9 0-2.7.2-1.7.5zm26 16c.9.2 2.5.2 3.5 0 .9-.3.1-.5-1.8-.5-1.9 0-2.7.2-1.7.5zm11.5 8c.6.2 1.8.2 2.5 0 .6-.3.1-.5-1.3-.5-1.4 0-1.9.2-1.2.5zm-99.5 4c.9.2 2.5.2 3.5 0 .9-.3.1-.5-1.8-.5-1.9 0-2.7.2-1.7.5zm111.5 2c.6.2 1.8.2 2.5 0 .6-.3.1-.5-1.3-.5-1.4 0-1.9.2-1.2.5zm-183.5 4c.9.2 2.5.2 3.5 0 .9-.3.1-.5-1.8-.5-1.9 0-2.7.2-1.7.5zm27.5 0c.6.2 1.8.2 2.5 0 .6-.3.1-.5-1.3-.5-1.4 0-1.9.2-1.2.5zm-34 2c.6.2 1.8.2 2.5 0 .6-.3.1-.5-1.3-.5-1.4 0-1.9.2-1.2.5zm-24 10c.6.2 1.8.2 2.5 0 .6-.3.1-.5-1.3-.5-1.4 0-1.9.2-1.2.5zm188 8c.6.2 1.8.2 2.5 0 .6-.3.1-.5-1.3-.5-1.4 0-1.9.2-1.2.5zm-180 28c.6.2 1.8.2 2.5 0 .6-.3.1-.5-1.3-.5-1.4 0-1.9.2-1.2.5zm250 2c.6.2 1.8.2 2.5 0 .6-.3.1-.5-1.3-.5-1.4 0-1.9.2-1.2.5zm164 0c1.7.2 4.7.2 6.5 0 1.7-.2.3-.4-3.3-.4-3.6 0-5 .2-3.2.4zM200 137c-1.1.7.1 1 3.9 1 3 0 5.2-.2 5-.4-1.1-1-7.6-1.4-8.9-.6zm390.3.7c.9.2 2.5.2 3.5 0 .9-.3.1-.5-1.8-.5-1.9 0-2.7.2-1.7.5zm-378.5 2c.6.2 1.8.2 2.5 0 .6-.3.1-.5-1.3-.5-1.4 0-1.9.2-1.2.5zm370.5 0c.9.2 2.5.2 3.5 0 .9-.3.1-.5-1.8-.5-1.9 0-2.7.2-1.7.5zM617 149c0 1.2 10.7 1.2 13.5 0 1.4-.6-.5-.9-5.7-.9-4.6-.1-7.8.3-7.8.9zm-320.3 6.1c.7.7 1.5 1 1.8.7.3-.3-.2-.9-1.2-1.2-1.4-.6-1.5-.5-.6.5zM619 163c0 .5.5 1 1 1 .6 0 1-.5 1-1 0-.6-.4-1-1-1-.5 0-1 .4-1 1zm-476.3 18.1c.7.7 1.5 1 1.8.7.3-.3-.2-.9-1.2-1.2-1.4-.6-1.5-.5-.6.5zM472 181c-.9.6-1 1-.3 1 .6 0 1.5-.5 1.8-1 .8-1.2.4-1.2-1.5 0zm-373.7.7c.9.2 2.5.2 3.5 0 .9-.3.1-.5-1.8-.5-1.9 0-2.7.2-1.7.5zm67.5 0c.6.2 1.8.2 2.5 0 .6-.3.1-.5-1.3-.5-1.4 0-1.9.2-1.2.5zm41 6c1.2.2 3.2.2 4.5 0 1.2-.2.2-.4-2.3-.4s-3.5.2-2.2.4zm-58 18c2.3.2 6.1.2 8.5 0 2.3-.2.4-.4-4.3-.4s-6.6.2-4.2.4zm31 4c.6.2 1.8.2 2.5 0 .6-.3.1-.5-1.3-.5-1.4 0-1.9.2-1.2.5zm-8 2c.6.2 1.8.2 2.5 0 .6-.3.1-.5-1.3-.5-1.4 0-1.9.2-1.2.5zm44.5 16c4.2.2 11.2.2 15.5 0 4.2-.1.7-.3-7.8-.3s-12 .2-7.7.3zm37.5 14c.6.2 1.8.2 2.5 0 .6-.3.1-.5-1.3-.5-1.4 0-1.9.2-1.2.5zm200 10c3.9.2 10.5.2 14.5 0 3.9-.1.7-.3-7.3-.3s-11.2.2-7.2.3zm24.5 2c.9.2 2.3.2 3 0 .6-.3-.1-.5-1.8-.5-1.6 0-2.2.2-1.2.5zm137.5 0c.6.2 1.8.2 2.5 0 .6-.3.1-.5-1.3-.5-1.4 0-1.9.2-1.2.5zm-120 6c.6.2 1.8.2 2.5 0 .6-.3.1-.5-1.3-.5-1.4 0-1.9.2-1.2.5zm12 4c.6.2 1.8.2 2.5 0 .6-.3.1-.5-1.3-.5-1.4 0-1.9.2-1.2.5zm6 2c.6.2 1.8.2 2.5 0 .6-.3.1-.5-1.3-.5-1.4 0-1.9.2-1.2.5zM231 269c-2.3.7-2.3.8-.3.9 1.2.1 2.5-.4 2.8-.9.3-.6.5-1 .3-.9-.2.1-1.4.5-2.8.9zm165.3.7c.9.2 2.5.2 3.5 0 .9-.3.1-.5-1.8-.5-1.9 0-2.7.2-1.7.5zm132 0c.9.2 2.5.2 3.5 0 .9-.3.1-.5-1.8-.5-1.9 0-2.7.2-1.7.5zm7.5 2c.6.2 1.8.2 2.5 0 .6-.3.1-.5-1.3-.5-1.4 0-1.9.2-1.2.5zm-447 4c1.2.2 3.2.2 4.5 0 1.2-.2.2-.4-2.3-.4s-3.5.2-2.2.4zm11 2c.6.2 1.8.2 2.5 0 .6-.3.1-.5-1.3-.5-1.4 0-1.9.2-1.2.5zm14 4c.7.3 1.6.2 1.9-.1.4-.3-.2-.6-1.3-.5-1.1 0-1.4.3-.6.6zm452 0c.6.2 1.8.2 2.5 0 .6-.3.1-.5-1.3-.5-1.4 0-1.9.2-1.2.5zm-212.5 2c1.5.2 3.9.2 5.5 0 1.5-.2.2-.4-2.8-.4s-4.3.2-2.7.4zm219 0c.9.2 2.5.2 3.5 0 .9-.3.1-.5-1.8-.5-1.9 0-2.7.2-1.7.5zm13.5 4c.6.2 1.8.2 2.5 0 .6-.3.1-.5-1.3-.5-1.4 0-1.9.2-1.2.5zm-267.5 2c.9.2 2.5.2 3.5 0 .9-.3.1-.5-1.8-.5-1.9 0-2.7.2-1.7.5zm247 12c1.5.2 3.9.2 5.5 0 1.5-.2.2-.4-2.8-.4s-4.3.2-2.7.4zm-291.5 6c.6.2 1.8.2 2.5 0 .6-.3.1-.5-1.3-.5-1.4 0-1.9.2-1.2.5zm317.5 6c1.5.2 3.9.2 5.5 0 1.5-.2.2-.4-2.8-.4s-4.3.2-2.7.4zm-347 6c.9.2 2.5.2 3.5 0 .9-.3.1-.5-1.8-.5-1.9 0-2.7.2-1.7.5zm328 0c.9.2 2.5.2 3.5 0 .9-.3.1-.5-1.8-.5-1.9 0-2.7.2-1.7.5zM109 325c-4.5.7-4.4.7 1.8.8 3.6.1 6.2-.2 6.2-.8 0-1.1-1.1-1.1-8 0zm499.5 4c.3.5 1.5 1 2.6 1 1 0 1.9-.5 1.9-1 0-.6-1.2-1-2.6-1-1.4 0-2.3.4-1.9 1zm-6.7 2.7c.6.2 1.8.2 2.5 0 .6-.3.1-.5-1.3-.5-1.4 0-1.9.2-1.2.5zm-377.5 4c.9.2 2.5.2 3.5 0 .9-.3.1-.5-1.8-.5-1.9 0-2.7.2-1.7.5zm370.5 0c.7.3 1.6.2 1.9-.1.4-.3-.2-.6-1.3-.5-1.1 0-1.4.3-.6.6zM444 337l-3.5.7 3.2.2c1.7 0 3.5-.4 3.8-.9.3-.6.5-.9.3-.9-.2.1-1.9.5-3.8.9zm100 0c-.9.6-1 1-.3 1 .6 0 1.5-.5 1.8-1 .8-1.2.4-1.2-1.5 0zm43.8.7c.6.2 1.8.2 2.5 0 .6-.3.1-.5-1.3-.5-1.4 0-1.9.2-1.2.5zm-380 10c1.7.2 4.7.2 6.5 0 1.7-.2.3-.4-3.3-.4-3.6 0-5 .2-3.2.4zm123.1 5.6c.5.5 2.6.7 4.7.5l3.9-.3-4.7-.5c-2.6-.3-4.3-.1-3.9.3zm39.9 1.9c.6.6 1.8.8 2.8.6 1.4-.3 1.2-.5-.9-1-1.9-.3-2.5-.2-1.9.4zm177 .5c1.7.2 4.7.2 6.5 0 1.7-.2.3-.4-3.3-.4-3.6 0-5 .2-3.2.4zm-4.8 21.5c0 .4 4.2.7 9.3.7 10.1-.2 9.3-.6-2-1.1-4-.2-7.3 0-7.3.4zm-323.2 14.5c1.7.2 4.7.2 6.5 0 1.7-.2.3-.4-3.3-.4-3.6 0-5 .2-3.2.4zM87 395l-4.5.7 4.2.1c2.3.1 4.5-.3 4.8-.8.3-.6.5-.9.3-.8-.2 0-2.3.4-4.8.8zm456.8 2.7c.6.2 1.8.2 2.5 0 .6-.3.1-.5-1.3-.5-1.4 0-1.9.2-1.2.5zm-12 4c.6.2 1.8.2 2.5 0 .6-.3.1-.5-1.3-.5-1.4 0-1.9.2-1.2.5zm-286 2c.6.2 1.8.2 2.5 0 .6-.3.1-.5-1.3-.5-1.4 0-1.9.2-1.2.5zm280 0c.6.2 1.8.2 2.5 0 .6-.3.1-.5-1.3-.5-1.4 0-1.9.2-1.2.5zm-252 4c.6.2 1.8.2 2.5 0 .6-.3.1-.5-1.3-.5-1.4 0-1.9.2-1.2.5zm244 20c.6.2 1.8.2 2.5 0 .6-.3.1-.5-1.3-.5-1.4 0-1.9.2-1.2.5z" fill="#FFF" fill-opacity=".25"/><path d="M317.9 51.7c-1.3 1.6-1.2 1.7.4.4 1.6-1.3 2.1-2.1 1.3-2.1-.2 0-1 .8-1.7 1.7zm40 12c-1.3 1.6-1.2 1.7.4.4 1.6-1.3 2.1-2.1 1.3-2.1-.2 0-1 .8-1.7 1.7zm36.5 7.5-1.9 2.3 2.3-1.9c1.2-1.1 2.2-2.1 2.2-2.3 0-.8-.8-.2-2.6 1.9zM278 86.4c0 .2.8 1 1.8 1.7 1.5 1.3 1.6 1.2.3-.4s-2.1-2.1-2.1-1.3zm139.9 1.3c-1.3 1.6-1.2 1.7.4.4 1.6-1.3 2.1-2.1 1.3-2.1-.2 0-1 .8-1.7 1.7zm-122 6c-1.3 1.6-1.2 1.7.4.4 1.6-1.3 2.1-2.1 1.3-2.1-.2 0-1 .8-1.7 1.7zm147.7 0c-.6 1.4-.5 1.5.5.6.7-.7 1-1.5.7-1.8-.3-.3-.9.2-1.2 1.2zm-151.7 6c-1.3 1.6-1.2 1.7.4.4 1.6-1.3 2.1-2.1 1.3-2.1-.2 0-1 .8-1.7 1.7zm38 0c-1.3 1.6-1.2 1.7.4.4 1.6-1.3 2.1-2.1 1.3-2.1-.2 0-1 .8-1.7 1.7zm-42 6c-1.3 1.6-1.2 1.7.4.4 1.6-1.3 2.1-2.1 1.3-2.1-.2 0-1 .8-1.7 1.7zm118.1-1.3c0 .2.8 1 1.8 1.7 1.5 1.3 1.6 1.2.3-.4s-2.1-2.1-2.1-1.3zm31.9 25.3c-1.3 1.6-1.2 1.7.4.4 1.6-1.3 2.1-2.1 1.3-2.1-.2 0-1 .8-1.7 1.7zm22 12c-1.3 1.6-1.2 1.7.4.4 1.6-1.3 2.1-2.1 1.3-2.1-.2 0-1 .8-1.7 1.7zm-192 12c-1.3 1.6-1.2 1.7.4.4 1.6-1.3 2.1-2.1 1.3-2.1-.2 0-1 .8-1.7 1.7zm40 0c-1.3 1.6-1.2 1.7.4.4 1.6-1.3 2.1-2.1 1.3-2.1-.2 0-1 .8-1.7 1.7zm220 18c-1.3 1.6-1.2 1.7.4.4.9-.7 1.7-1.5 1.7-1.7 0-.8-.8-.3-2.1 1.3zM370.5 173c1 1.1 2 2 2.3 2 .3 0-.3-.9-1.3-2s-2-2-2.3-2c-.3 0 .3.9 1.3 2zm135.4 4.7c-1.3 1.6-1.2 1.7.4.4.9-.7 1.7-1.5 1.7-1.7 0-.8-.8-.3-2.1 1.3zm18 0c-1.3 1.6-1.2 1.7.4.4 1.6-1.3 2.1-2.1 1.3-2.1-.2 0-1 .8-1.7 1.7zm-430 6c-1.3 1.6-1.2 1.7.4.4.9-.7 1.7-1.5 1.7-1.7 0-.8-.8-.3-2.1 1.3zm82.1-1.3c0 .2.8 1 1.8 1.7 1.5 1.3 1.6 1.2.3-.4s-2.1-2.1-2.1-1.3zm133.9 1.3c-1.3 1.6-1.2 1.7.4.4 1.6-1.3 2.1-2.1 1.3-2.1-.2 0-1 .8-1.7 1.7zM112.5 185c1 1.1 2 2 2.3 2 .3 0-.3-.9-1.3-2s-2-2-2.3-2c-.3 0 .3.9 1.3 2zm38 14c1 1.1 2 2 2.3 2 .3 0-.3-.9-1.3-2s-2-2-2.3-2c-.3 0 .3.9 1.3 2zM376 218.4c0 .2.8 1 1.8 1.7 1.5 1.3 1.6 1.2.3-.4s-2.1-2.1-2.1-1.3zm106 0c0 .2.8 1 1.8 1.7 1.5 1.3 1.6 1.2.3-.4s-2.1-2.1-2.1-1.3zm-96 12c0 .2.8 1 1.8 1.7 1.5 1.3 1.6 1.2.3-.4s-2.1-2.1-2.1-1.3zm10 12c0 .2.8 1 1.8 1.7 1.5 1.3 1.6 1.2.3-.4s-2.1-2.1-2.1-1.3zm-158.1 7.3c-1.3 1.6-1.2 1.7.4.4 1.6-1.3 2.1-2.1 1.3-2.1-.2 0-1 .8-1.7 1.7zM220.5 263c1 1.1 2 2 2.3 2 .3 0-.3-.9-1.3-2s-2-2-2.3-2c-.3 0 .3.9 1.3 2zm127.4 22.7c-1.3 1.6-1.2 1.7.4.4 1.6-1.3 2.1-2.1 1.3-2.1-.2 0-1 .8-1.7 1.7zm34.1 16.7c0 .2.8 1 1.8 1.7 1.5 1.3 1.6 1.2.3-.4s-2.1-2.1-2.1-1.3zm240 6c0 .2.8 1 1.8 1.7 1.5 1.3 1.6 1.2.3-.4s-2.1-2.1-2.1-1.3zm-338 6c0 .2.8 1 1.8 1.7 1.5 1.3 1.6 1.2.3-.4s-2.1-2.1-2.1-1.3zm4 6c0 .2.8 1 1.8 1.7 1.5 1.3 1.6 1.2.3-.4s-2.1-2.1-2.1-1.3zm-186.1 7.3c-1.3 1.6-1.2 1.7.4.4.9-.7 1.7-1.5 1.7-1.7 0-.8-.8-.3-2.1 1.3zm117.6 6.3c-.3.6.1.7.9.4 1.8-.7 2.1-1.4.7-1.4-.6 0-1.3.4-1.6 1zm300.4 11.7c-1.3 1.6-1.2 1.7.4.4.9-.7 1.7-1.5 1.7-1.7 0-.8-.8-.3-2.1 1.3zm88.5 1.5-1.9 2.3 2.3-1.9c2.1-1.8 2.7-2.6 1.9-2.6-.2 0-1.2 1-2.3 2.2zM502 350.4c0 .2.8 1 1.8 1.7 1.5 1.3 1.6 1.2.3-.4s-2.1-2.1-2.1-1.3zm-382.1 7.3c-1.3 1.6-1.2 1.7.4.4.9-.7 1.7-1.5 1.7-1.7 0-.8-.8-.3-2.1 1.3zm256.1-1.3c0 .2.8 1 1.8 1.7 1.5 1.3 1.6 1.2.3-.4s-2.1-2.1-2.1-1.3zm-274.1 25.3c-1.3 1.6-1.2 1.7.4.4.9-.7 1.7-1.5 1.7-1.7 0-.8-.8-.3-2.1 1.3zm463.7 6c-.6 1.4-.5 1.5.5.6.7-.7 1-1.5.7-1.8-.3-.3-.9.2-1.2 1.2zm-13.2 13.5-1.9 2.3 2.3-1.9c1.2-1.1 2.2-2.1 2.2-2.3 0-.8-.8-.2-2.6 1.9zm-46.5 10.5c-1.3 1.6-1.2 1.7.4.4.9-.7 1.7-1.5 1.7-1.7 0-.8-.8-.3-2.1 1.3zm-172 36c-1.3 1.6-1.2 1.7.4.4 1.6-1.3 2.1-2.1 1.3-2.1-.2 0-1 .8-1.7 1.7zm35.1 11.2c0 .6.4 1.3 1 1.6.6.3.7-.1.4-.9-.7-1.8-1.4-2.1-1.4-.7z" fill="#FFF" fill-opacity=".19"/><g fill="#FFF" stroke-width="0"><path d="M352 27c0 .5-.9 1-2 1s-2 .4-2 1c0 .5-.9 1-2 1s-2 .4-2 1c0 .5-.8 1-1.8 1s-2.4.9-3.2 2c-.8 1.1-2 2-2.7 2-1.9 0-18.3 16.6-18.3 18.5 0 .8-.4 1.5-1 1.5-.5 0-1 .9-1 2s-.4 2-1 2c-.5 0-1 1.8-1 4s.5 4 1 4c.6 0 1 .7 1 1.6 0 4.7 7.5 6 11.5 1.9 1.4-1.3 2.5-3.1 2.5-4 0-.8.5-1.5 1-1.5.6 0 1-1.4 1-3 0-1.7.5-3 1-3 .6 0 1-.9 1-2s.5-2 1-2c.6 0 1-.8 1-1.8s.9-2.4 2-3.2c1.1-.8 2-2 2-2.8 0-1.8 14.6-16.2 16.5-16.2 1 0 1.5-1 1.5-3 0-2.7-.3-3-3-3-1.6 0-3 .4-3 1zm10 12c0 .5-.9 1-2 1s-2 .4-2 .8c0 .5-1.2 1.5-2.7 2.3-4.9 2.5-19.3 17.8-19.3 20.5 0 1.3-.4 2.4-1 2.4-.5 0-1 1.5-1 3.4s.5 3.8 1 4.1c.6.3 1 1.3 1 2.1 0 2.3 2.6 4.4 5.4 4.4 1.8 0 2.6-.5 2.6-1.8 0-1 .9-2.4 2-3.2 1.1-.8 2-2.1 2-3 0-.9.9-2.2 2-3 1.1-.8 2-2.1 2-2.8 0-.8 1.4-2.7 3-4.2 1.7-1.5 3-3.3 3-4 0-.7 1.4-2.5 3-4 1.7-1.5 3-3.4 3-4.2 0-.7.9-2 2-2.8 1.4-1 2-2.6 2-5.2 0-3.6-.2-3.8-3-3.8-1.6 0-3 .4-3 1zm14 12c0 .5-.9 1-2 1s-2 .4-2 1c0 .5-.7 1-1.5 1-.9 0-4 2.5-7 5.5s-5.5 6.1-5.5 7c0 .8-.4 1.5-1 1.5-.5 0-1 .9-1 2s-.4 2-1 2-1 2.7-1 6v6h4.9c4.5 0 5-.3 6.3-3 .7-1.7 1.6-3 2-3 .5 0 .8-.9.8-2s.5-2 1-2c.6 0 1-.7 1-1.5 0-.9 3.2-4.7 7-8.5 3.9-3.8 7-7.6 7-8.4 0-.8.6-1.6 1.2-1.8.9-.3.8-.9-.4-2.1-1.8-1.8-8.8-2.4-8.8-.7zm13.5 10.4c-1.6.6-3.9 1.9-4.9 2.8-1.1 1-2.6 1.8-3.3 1.8-.7 0-1.3.8-1.3 1.8s-.9 2.4-2 3.2c-1.1.8-2 2.2-2 3.2s-.4 1.8-1 1.8c-.5 0-1 .7-1 1.5s-.6 2.5-1.2 3.6c-1 1.7-1 2.3 0 2.6.6.3 1.2 1.3 1.2 2.4 0 1.5.7 1.9 3.3 1.9 3.7 0 10.7-5.5 10.7-8.4 0-.9.5-1.6 1-1.6.6 0 1-.7 1-1.6 0-.9 1.4-2.9 3-4.4 1.7-1.5 3-3.5 3-4.4 0-.9.5-1.6 1-1.6 1.5 0 1.2-2.9-.4-4.6-1.7-1.6-2.9-1.6-7.1 0zm7.7 10.2C386.3 82.9 384.8 92 394 92c3.1 0 8-3.7 8-6 0-1.2 2.4-4 3.4-4 .3 0 .6.9.6 2s-.4 2-1 2c-.5 0-1 2.1-1 4.6 0 4.4 1.6 7.4 4 7.4 2 0 7.1-6.1 7.7-9.2.3-1.5.9-2.8 1.4-2.8.5 0 .9-1.1.9-2.4 0-1.4.5-2.8 1-3.1.6-.3 1-1.9 1-3.6 0-2.6-.3-2.9-3.2-2.9-3.3 0-8.8 3.7-8.8 5.9 0 .6-.4 1.1-1 1.1-.5 0-1-.7-1-1.5s.5-1.5 1-1.5c.6 0 1-1.4 1-3 0-1.7.5-3 1-3 .6 0 1-1.4 1-3 0-2.8-.2-3-3.7-2.9-3.2 0-4.6.9-9.1 5.5zM314 79c0 .5-1.1 1-2.5 1-2.7 0-11.5 7.8-11.5 10.3 0 .7-.9 1.9-2 2.7-1.1.8-2 2.1-2 3 0 .9-.9 2.2-2 3-1.1.8-2 2.1-2 3 0 .9-.9 2.2-2 3-1.1.8-2 2.2-2 3.2s-.4 1.8-1 1.8c-.5 0-1 1.3-1 3 0 1.6-.4 3-1 3-.5 0-1 .6-1 1.3 0 .7-.9 2.3-2 3.5-1.1 1.2-2 2.8-2 3.7 0 .8-.4 1.5-1 1.5-.5 0-1 1.3-1 3 0 1.6-.4 3-1 3s-1 2.6-1 5.9c0 3.3-.4 6.3-1 6.6-.5.3-1 1.5-1 2.7 0 1.1-1.3 3.3-3 4.8-1.6 1.5-3 3.5-3 4.4 0 .9-.4 1.6-1 1.6-1.7 0-1.1 4.7 1 8.5 1.6 2.8 2 5.5 2.1 14.1 0 5.8-.3 11-.8 11.5-1.2 1.2-5.3-2.3-5.3-4.5 0-.9-.4-1.6-1-1.6-.5 0-1-.8-1-1.8s-.5-2.3-1.1-2.9c-.7-.7-.9-3.4-.5-7.4.3-3.5.8-9.4 1.2-13.2.3-3.7 1-6.7 1.5-6.7s.9-1.8.9-4 .5-4 1-4c.6 0 1-.9 1-2s.5-2 1-2c.6 0 1-.9 1-2s.5-2 1-2c.6 0 1-1.4 1-3 0-1.7.5-3 1-3 .6 0 1-1.4 1-3 0-1.7.5-3 1-3 .6 0 1-1.4 1-3 0-1.7.5-3 1-3 .6 0 1-1.4 1-3 0-1.7.5-3 1-3 .6 0 1-1.3 1-2.9 0-1.7.5-3.3 1-3.6.6-.3 1-4.7 1-9.6 0-8.2-.2-9.2-2.5-11.4-1.3-1.4-3.6-2.5-5-2.5s-2.5-.5-2.5-1c0-.6-4-1-10-1s-10 .4-10 1c0 .5-1.8 1-4 1s-4 .4-4 1c0 .5-1.3 1-3 1-1.6 0-3 .4-3 1 0 .5-1.3 1-3 1-1.6 0-3 .4-3 1 0 .5-.9 1-2 1s-2 .4-2 1c0 .5-.9 1-2 1s-2 .4-2 1c0 .5-.9 1-2 1s-2 .4-2 1c0 .5-1.3 1-3 1-1.6 0-3 .4-3 1 0 .5-1.3 1-3 1-1.6 0-3 .4-3 1 0 .5-.9 1-2 1s-2 .4-2 1c0 .5-.9 1-2 1s-2 .4-2 1c0 .5-.9 1-2 1s-2 .4-2 1c0 .5-.9 1-2 1s-2 .4-2 1c0 .5-.9 1-2 1s-2 .4-2 1c0 .5-.6 1-1.4 1-.8 0-4.1 1.3-7.3 3-3.1 1.6-6.2 3-6.8 3-.6 0-2.1.9-3.3 2-1.2 1.1-2.8 2-3.7 2-.8 0-1.5.4-1.5 1 0 .5-.9 1-2 1s-2 .4-2 1c0 .5-.7 1-1.5 1-.9 0-2.5.9-3.7 2-1.2 1.1-2.8 2-3.5 2-.7 0-1.3.4-1.3 1 0 .5-.8 1-1.8 1s-2.4.9-3.2 2c-.8 1.1-2.1 2-3 2-.9 0-2.2.9-3 2-.8 1.1-2.2 2-3.2 2s-1.8.4-1.8.8c0 .5-1.2 1.5-2.7 2.3-1.6.8-3.5 2.2-4.4 3.1-.9 1-2.2 1.8-2.8 1.8-.6 0-4.9 3.8-9.6 8.5-6.2 6.1-8.5 9.2-8.5 11 0 1.4.5 2.5 1 2.5.6 0 1 1.8 1 4s.5 4 1 4c.6 0 1 .6 1 1.3 0 2 8.5 10.7 10.4 10.7.9 0 1.6.4 1.6 1 0 .5 2.4 1 5.3 1 3.6 0 6 .6 7.3 1.7 4.4 3.9 11.4 5.9 11.4 3.3 0-1.9 2.7-1 5.8 2 2.8 2.7 3.9 3 9.3 3 5.5 0 6.4.3 8.9 3 2.6 2.8 3.2 3 10.5 3 6.7 0 7.6.2 7.3 1.7-.2 1.3-1.5 1.9-4.3 2.1-2.2.2-4.4.8-4.9 1.3-1.3 1.2-6.6 1.2-6.6-.1 0-.6-.9-1-2-1s-2-.5-2-1c0-.6-.9-1-2-1s-2-.5-2-1c0-.6-3.5-1-8.6-1h-8.5l-4.9-5c-4.9-5-4.9-5-11.4-5-3.7 0-6.6-.4-6.6-1s-.7-1-1.5-1c-.9 0-3.1-1.5-5-3.4s-4.3-3.7-5.5-4.1c-1.1-.3-2-1.1-2-1.6s-.9-.9-2-.9-2-.5-2-1c0-1.5-7-1.2-8.6.4-1.1 1.1-1.4 4.6-1.4 15 0 8.4.4 13.6 1 13.6s1 1.3 1 3c0 1.6.4 3 .9 3s1.1 1.3 1.4 2.9c.3 1.6 1.3 3.6 2.2 4.4.8.9 1.5 2.2 1.5 3.1 0 .8.9 1.8 2 2.1 1.1.4 3.2 1.7 4.5 3.1 1.3 1.3 3.1 2.4 4 2.4.8 0 1.5.4 1.5.8 0 1.2 7.8 5.2 10.1 5.2 1 0 1.9.4 1.9 1 0 .5.9 1 2 1s2 .4 2 1c0 .5.9 1 2 1s2 .4 2 1c0 .5.9 1 2 1s2 .4 2 1c0 .5.9 1 2 1s2 .4 2 1c0 .5.9 1 2 1s2 .4 2 1c0 .5.9 1 2 1s2 .4 2 1c0 .5.9 1 2 1s2 .4 2 1c0 .5.9 1 2 1s2 .4 2 1c0 .5.9 1 2 1s2 .4 2 1c0 .5.7 1 1.5 1 .9 0 2.5.9 3.7 2 1.2 1.1 2.8 2 3.5 2 .7 0 1.3.4 1.3 1 0 .5.9 1 2 1s2 .4 2 1c0 .5 1.4 1 3 1 1.7 0 3 .4 3 1 0 .5 1.4 1 3 1 1.7 0 3 .4 3 1 0 .5.9 1 2 1s2 .4 2 1c0 .5 1.4 1 3 1 1.7 0 3 .4 3 1 0 .5.9 1 2 1s2 .4 2 1c0 .5 1.4 1 3 1 1.7 0 3 .4 3 .8 0 .5 2.3 1.5 5 2.2 2.8.7 5 1.7 5 2.2 0 .4 1.4.8 3 .8 1.7 0 3 .4 3 1 0 .5 1.6 1 3.6 1 1.9 0 4.5.5 5.7 1.1 1.6.9 2.2.9 2.5 0 .2-.6 1.7-1.1 3.3-1.1 1.6 0 2.9-.5 2.9-1 0-.6.7-1 1.5-1 2 0 6.5-4.5 6.5-6.5 0-.8.5-1.5 1-1.5.6 0 1-1.4 1-3 0-1.7.5-3 1-3 .6 0 1-1 1-2.3 0-2.8 5.9-9.7 8.3-9.7.9 0 1.7-.5 1.7-1 0-.6.9-1 2-1s2-.5 2-1c0-.6.7-1 1.5-1 2 0 6.5-4.5 6.5-6.5 0-.8.5-1.5 1-1.5.6 0 1-1.5 1-3.4s.5-3.8 1-4.1c.6-.3 1-4.4 1-9s-.4-8.7-1-9c-.5-.3-1-2.8-1-5.5s-.4-5.2-1-5.5c-1.1-.7-1.4-9.5-.4-9.5 1.1 0 7.4 7.4 7.4 8.7 0 .7.5 1.3 1 1.3.6 0 1 .9 1 2s.5 2 1 2c.6 0 1 .7 1 1.5 0 .9.9 2.5 2 3.7 1.1 1.2 2 2.8 2 3.5 0 .7.5 1.3 1 1.3.6 0 1 .6 1 1.4 0 .7 1.4 2.7 3 4.4 1.7 1.8 3 3.7 3 4.2 0 1.5 18.9 20 20.4 20 .6 0 1.8.9 2.6 2s2.2 2 3.2 2 1.8.4 1.8 1c0 1.4 9.4 1.2 10.8-.2 1.5-1.5 1.6-4.8.2-4.8-.5 0-1-.7-1-1.5 0-.9-6.3-7.8-14-15.5s-14-14.5-14-15.1c0-.6-1.3-2.4-3-3.9-1.6-1.5-3-3.5-3-4.4 0-.9-.4-1.6-1-1.6-.5 0-1-1.4-1-3 0-1.7-.4-3-1-3-.5 0-1-2.2-1-4.9 0-2.8-.4-5.3-1-5.6-1.6-1-1.2-7.5.4-7.5.7 0 2.2-1.2 3.2-2.7 1-1.5 3.9-4.9 6.6-7.5 2.6-2.6 4.8-5.1 4.8-5.7 0-1.5 2.7-1.4 3.6.1.4.6.2 1.4-.4 1.6-.7.2-1.2 1-1.2 1.9 0 .8-1.3 2.8-3 4.3-1.6 1.5-3 3.5-3 4.4 0 .9-.4 1.6-1 1.6-.5 0-1 .9-1 2s-.4 2-1 2c-.5 0-1 1.8-1 4 0 3.8.2 4 3 4 1.7 0 3 .4 3 1 0 .5 1.1 1 2.5 1 3.3 0 7.5 4.2 7.5 7.5 0 1.4.5 2.5 1 2.5.6 0 1 .9 1 2s.5 2 1 2c.6 0 1 .8 1 1.8s.9 2.4 2 3.2c1.1.8 2 2 2 2.7 0 .7 1.8 3.2 4 5.4 2.2 2.3 4 4.5 4 5 0 1.6 18.9 19.9 20.5 19.9.8 0 1.5.4 1.5 1 0 .5.9 1 2 1s2 .4 2 1c0 .5 2 1 4.5 1 3.6 0 5.2-.6 7.1-2.5 2.2-2.2 2.3-2.7 1-4-.8-.8-2-1.5-2.6-1.5-1.3 0-10-8.6-10-9.8 0-.5-3.1-4.2-7-8.2-3.8-4-7-7.8-7-8.4 0-.6-.9-1.8-2-2.6s-2-2.2-2-3.2-.4-1.8-1-1.8c-.5 0-1-.9-1-1.9 0-1.1-.4-2.3-1-2.6-.5-.3-1-2.2-1-4.1 0-1.9-.4-3.4-1-3.4-.5 0-1-1.9-1-4.3s-.5-4.8-1.1-5.4c-.8-.8-.6-1.7 1-3.4 1.1-1.3 2.1-2.6 2.1-3.1 0-.4 1.4-2.2 3-4 2.1-2.2 3-4.1 3-6.4 0-1.9.5-3.4 1-3.4.6 0 1 2.2 1 4.8 0 3.6-.5 5.1-2 6.2-1.6 1.2-2 2.6-2 7.2 0 4 .4 5.8 1.3 5.8 1.9 0 6.7 4.5 6.7 6.4 0 .9.5 1.6 1 1.6.6 0 1 .8 1 1.8s.9 2.4 2 3.2c1.1.8 2 2 2 2.7 0 .7 1.4 2.7 3 4.5 1.7 1.7 3 3.5 3 4s1.6 2.4 3.5 4.4c1.9 1.9 3.5 3.9 3.5 4.4 0 .5 3.6 4.5 8 9 7.6 7.7 8.1 8 12.5 8 6 0 5.9-1.8-.5-8-2.7-2.7-5-5.3-5-5.9 0-.6-2.2-3.4-5-6.2-2.7-2.8-5-5.6-5-6.3 0-.6-.9-1.8-2-2.6s-2-2.2-2-3.2-.4-1.8-1-1.8c-.5 0-1-.9-1-2s-.4-2-1-2c-.5 0-1-.9-1-2s-.4-2-1-2c-.5 0-1-.9-1-2s-.4-2-1-2c-.5 0-1-2-1-4.5 0-3.6.6-5.2 2.5-7.1 2.2-2.2 2.7-2.3 4-1 .8.8 1.5 2 1.5 2.7 0 .6.8 1.9 1.8 2.8 2.2 2.1 4.2 5.7 4.2 7.6 0 .8.5 1.5 1 1.5.6 0 1 .9 1 2s.5 2 1 2c.6 0 1 .9 1 2s.5 2 1 2c.6 0 1 .7 1 1.5s1.4 2.9 3 4.7c1.7 1.7 3 3.5 3 4 0 1.4 10.8 11.8 12.3 11.8.7 0 1.9.9 2.7 2 .8 1.1 2.2 2 3.2 2s1.8.4 1.8 1c0 1.4 5.4 1.2 6.8-.2 1.7-1.7 1.5-4.8-.3-4.8-1.7 0-6.5-4.3-6.5-5.9 0-.5-2.2-3.2-5-6-2.7-2.8-5-5.5-5-6 0-.4-1.3-2.2-3-3.9-1.6-1.8-3-3.9-3-4.7 0-.8-.4-1.5-1-1.5-.5 0-1-.9-1-2s-.4-2-1-2-1-3.3-1-8 .4-8 1-8 1 .9 1 2c0 1.2.7 2 1.6 2 1.9 0 8.4 6.8 8.4 8.7 0 .7.5 1.3 1 1.3.6 0 1 .9 1 2s.5 2 1 2c.6 0 1 .9 1 2s.5 2 1 2c.6 0 1 .7 1 1.5 0 1.9 12.4 14.5 14.3 14.5.7 0 1.9.9 2.7 2 .8 1.1 2.1 2 3 2 .9 0 2.2.9 3 2 1.9 2.6 11 3 11 .5 0-.9-5.4-6.9-12-13.5s-12-12.6-12-13.5c0-.8-.4-1.5-1-1.5-.5 0-1-.9-1-1.9 0-1.1-.4-2.3-1-2.6-1.7-1.1 4.5-9.5 7-9.5 1.6 0 8 6.7 8 8.5 0 .8.5 1.5 1 1.5.6 0 1 1.1 1 2.4 0 1.4.5 2.8 1 3.1.6.3 1 1.5 1 2.6 0 1 .5 1.9 1 1.9.6 0 1 .9 1 2s.4 2 .8 2c.5 0 1.5 1.2 2.3 2.7.8 1.5 4.2 5.6 7.6 9 5.3 5.4 6.8 6.3 9.8 6.3 1.9 0 3.5-.5 3.5-1 0-.6-.4-1-1-1-.5 0-1-.9-1-2s-.4-2-.8-2-1.9-2.2-3.3-5c-1.3-2.7-2.7-5-3.1-5-.5 0-.8-.9-.8-2s-.4-2-1-2c-.5 0-1-.9-1-1.9 0-1.1-.4-2.3-1-2.6-.5-.3-1-1.7-1-3.1 0-1.3-.4-2.4-1-2.4-.5 0-1-1.8-1-4 0-3.6.2-4 2.5-4 2.9 0 9.5 5.9 9.5 8.5 0 .8.5 1.5 1 1.5.6 0 1 .9 1 2s.5 2 1 2c.6 0 1 .9 1 2s.5 2 1 2c.6 0 1 .8 1 1.8s.9 2.4 2 3.2c1.1.8 2 2 2 2.8 0 1.8 6.6 8.2 8.5 8.2.8 0 1.5.4 1.5 1 0 .5 1.8 1 4 1 3.3 0 4-.3 4-2 0-1.1-.4-2-1-2-.5 0-1-.7-1-1.6 0-.9-1.3-2.9-3-4.4-1.6-1.5-3-3.5-3-4.4 0-.9-.3-1.6-.7-1.6-.9 0-3.3-4.9-3.3-6.7 0-.7-.4-1.3-1-1.3s-1-2.7-1-6.1c0-5.2.2-6 1.8-5.7 1 .2 1.8 1.4 2 3.1.2 1.5.8 2.7 1.3 2.7s.9 1.3.9 3c0 1.6.5 3 1 3 .6 0 1 .9 1 2s.5 2 1 2c.6 0 1 .7 1 1.5 0 2 10.5 12.5 12.5 12.5.8 0 1.5.4 1.5 1 0 1.5 2.9 1.2 4.6-.4 1.6-1.7 1.9-6.6.4-6.6-.5 0-1-.9-1-2s-.4-2-1-2c-.5 0-1-1.1-1-2.4 0-1.4-.4-2.8-1-3.1-1.4-.9-1.3-5.8.2-7.3 2.1-2.1 5.9-1.3 8.8 1.8 1.5 1.6 3.4 3 4.2 3 2.2 0 5.8-4.7 5.8-7.4 0-1.4.5-2.8 1-3.1.6-.3 1-2.4 1-4.5s-.4-4.2-1-4.5c-.5-.3-1-1.3-1-2.1 0-1.7-4.4-6.4-6-6.4-1.7 0-4 2.6-4 4.4 0 .9-.4 1.6-1 1.6-.5 0-1 .9-1 2 0 2.7-.7 2.5-4-1-1.5-1.7-3.3-3-4-3-2.7 0-4-2.9-4-9.4 0-3.7.4-6.6 1-6.6s1-1.8 1-4 .5-4 1-4c.6 0 1-1.2 1-2.6 0-2.6-2-5.4-4-5.4-1.9 0-12 10.9-12 12.9 0 1.1-.4 2.3-1 2.6-.5.3-1 1.9-1 3.6 0 1.6-.4 2.9-1 2.9-.5 0-1 1.8-1 4s-.4 4-1 4c-.5 0-1 .9-1 2 0 2.3-2.5 2.7-4.6.6-1.7-1.7-2.1-24.6-.4-24.6.6 0 1-1.4 1-3 0-1.7.5-3 1-3 .6 0 1-.9 1-2s.5-2 1-2c.6 0 1-.7 1-1.6 0-.8.7-2.2 1.6-3.1.8-.9 1.3-2.2 1-3-.3-.8-.6-2.1-.6-2.9 0-.9-1.1-1.4-3-1.4-1.6 0-3 .4-3 1 0 .5-.7 1-1.5 1-2 0-8.5 6.5-8.5 8.5 0 .8-.4 1.5-1 1.5-.5 0-1 .9-1 2s-.4 2-1 2c-.5 0-1 .9-1 2s-.4 2-1 2c-.5 0-1 1.3-1 3 0 1.6-.4 3-1 3-.5 0-1 1.3-1 3 0 1.6-.4 3-1 3-.5 0-1 1.3-1 3 0 2.6-.4 3-2.6 3-1.7 0-2.8-.6-3.1-2-.3-1.1-.9-2-1.4-2-.5 0-.9-5-.9-11 0-6.7.4-11 1-11s1-1.8 1-4 .5-4 1-4c.6 0 1-1.4 1-3 0-1.7.4-3 .9-3 1.1 0 2.1-4.9 1.4-6.7-.3-.7-1.2-1.3-1.9-1.3-1.9 0-8.4 6.5-8.4 8.5 0 .8-.4 1.5-1 1.5-.5 0-1 .6-1 1.3 0 .7-.9 2.3-2 3.5-1.1 1.2-2 3.3-2 4.7 0 1.4-.4 2.5-1 2.5-.5 0-1 2-1 4.4 0 2.5-.4 4.8-1 5.1-.6.3-1 1.9-1 3.6 0 1.6-.4 2.9-1 2.9-.5 0-1 .9-1 2s-.4 2-.9 2-1.1.9-1.4 2c-.4 1.5-1.4 2-3.7 2-2.3 0-3.3-.5-3.7-2-.3-1.1-.9-2-1.4-2-1.2 0-1.1-15.7.1-16.5.6-.3 1-2.2 1-4.1 0-1.9.5-3.4 1-3.4.6 0 1-1.4 1-3 0-1.7.5-3 1-3 .6 0 1-.9 1-2s.5-2 1-2c.6 0 1-1.4 1-3 0-1.7.5-3 1-3 .6 0 1-.9 1-2s.5-2 1-2c1.6 0 1.2-7-.5-8.6-1.3-1.3-1.8-1.2-4 1-1.4 1.4-2.5 3.1-2.5 3.8 0 .8-.9 2-2 2.8-1.1.8-2 2.1-2 3 0 .9-.9 2.2-2 3-1.1.8-2 2.2-2 3.2s-.4 1.8-1 1.8c-.5 0-1 .9-1 2s-.4 2-1 2c-.5 0-1 1.3-1 3 0 1.6-.4 3-1 3s-1 2.7-1 6-.4 6-1 6c-.5 0-1 1.3-1 2.8 0 1.6-.8 3.4-2 4.2-1.1.8-2 2.2-2 3.2s-.4 1.8-1 1.8c-1.5 0-1.2 5.8.3 6.3.6.2.9.8.5 1.2-.4.4-1.9-.5-3.3-2-2.6-2.5-2.7-2.9-2.1-10.3.4-4.2.9-10.7 1.2-14.5.3-3.7 1-6.7 1.5-6.7s.9-1.4.9-3c0-1.7.5-3 1-3 .6 0 1-.9 1-2s.5-2 1-2c.6 0 1-.9 1-2s.5-2 1-2c.6 0 1-.9 1-2s.3-2 .8-2c.9 0 3.2-7.2 3.2-10 0-1.1.5-2 1-2 1.5 0 1.2-2.9-.4-4.6-.8-.8-2.4-1.4-3.6-1.4-2.3 0-7.7 5.1-9.9 9.3-.8 1.5-1.8 2.7-2.3 2.7-.4 0-.8.9-.8 2s-.3 2-.7 2c-.9 0-3.3 4.9-3.3 6.7 0 .7-.4 1.3-1 1.3-.5 0-1 .9-1 2s-.4 2-1 2c-.5 0-1 1.5-1 3.4s-.4 3.8-1 4.1c-.5.3-1 2.4-1 4.5s-.4 4.2-1 4.5c-.5.3-1 2.9-1 5.6 0 4.9-1.5 7.9-4 7.9-2 0-4 2.8-4 5.4 0 1.4.5 2.6 1 2.6.6 0 1 .9 1 2s.5 2 1 2c.6 0 1 .9 1 2s-.3 2-.6 2c-1.1 0-3.4-2.9-3.4-4.4 0-.9-.4-1.6-1-1.6-.5 0-1-.9-1-2s-.4-2-1-2c-.5 0-1-2.4-1-5.4 0-3-.4-5.8-1-6.1-.5-.3-1-2.1-1-4s.5-3.7 1-4c.6-.3 1-3.3 1-6.6s.4-5.9 1-5.9 1-1 1-2.2c0-2.3 2.1-9 3.1-9.8.3-.3 1.2-2.6 2-5.3.7-2.6 1.7-4.7 2.1-4.7.4 0 .8-.9.8-2s.5-2 1-2c.6 0 1-.9 1-2s.5-2 1-2c.6 0 1-2.3 1-5 0-4.3-.3-5-2-5-1.1 0-2 .4-2 1 0 .5-.7 1-1.6 1-2 0-16.4 14.6-16.4 16.6 0 .8-.4 1.4-1 1.4-.5 0-1 1.3-1 3 0 1.6-.4 3-1 3-.5 0-1 1.3-1 3 0 1.6-.4 3-1 3-.5 0-1 2.2-1 5 0 2.7-.4 5-1 5s-1 3.3-1 8 .4 8 1 8c2 0 .9 3.3-2 6-1.8 1.7-3 3.8-3 5.4 0 3.1-1 3.3-3 .6-.8-1.1-2-2-2.8-2-1.8 0-8.2-6.6-8.2-8.5 0-.8-.4-1.5-1-1.5s-1-4.3-1-11 .4-11 1-11 1-1.4 1-3c0-1.7.5-3 1-3 .6 0 1-1.4 1-3 0-1.7.5-3 1-3 .6 0 1-.9 1-2s.5-2 1-2c.6 0 1-.9 1-2s.5-2 1-2c.6 0 1-.9 1-2s.4-2 .9-2 1.3-.9 1.6-2c.4-1.1 1.7-3.2 3.1-4.5 1.3-1.3 2.4-3.1 2.4-4 0-.8.5-1.5 1-1.5 1.5 0 1.2-6.6-.4-7.9-2.9-2.4-14.6 4.1-14.6 8.1 0 .8-.9 2-2 2.8-1.1.8-2 2.2-2 3.2s-.4 1.8-1 1.8c-.5 0-1 .9-1 2s-.3 2-.7 2c-.9 0-3.3 4.9-3.3 6.7 0 .7-.3 1.3-.7 1.3-.9 0-3.3 4.9-3.3 6.7 0 .7-.4 1.3-1 1.3-.5 0-1 1.3-1 3 0 1.6-.4 3-1 3s-1 3.9-1 9.6c0 9.5-.9 12.4-4 12.4-1.5 0-4 2.5-4 4 0 1.9-3.3 4.7-3.8 3.2-.2-.6-1.2-1.2-2.3-1.2-1 0-1.9-.5-1.9-1 0-.6-.9-1-2-1-1.8 0-2-.7-2-8 0-4.7.4-8 1-8s1-1.4 1-3c0-1.7.5-3.9 1-5 .6-1.1 1.5-2.9 2-4 .6-1.1 1-2.9 1-4s.5-2 1-2c.6 0 1-.9 1-2s.5-2 1-2c.6 0 1-.9 1-2s.5-2 1-2c.6 0 1-.9 1-2s.5-2 1-2c.6 0 1-.9 1-2s.5-2 1-2c.6 0 1-.9 1-2s.5-2 1-2c.6 0 1-.6 1-1.4 0-.7 1.4-2.7 3-4.4 1.7-1.8 3-3.7 3-4.3 0-.7.8-1.9 1.8-2.8 5.1-4.4 2.5-11.1-4.2-11.1-2 0-3.6.4-3.6 1zm-56.5 27.5c1.9 1.8 2.5 3.5 2.5 7 0 2.5-.4 4.5-1 4.5-.5 0-1 .9-1 2s-.4 2-1 2c-.5 0-1 1.1-1 2.4 0 1.4-.4 2.8-1 3.1-.5.3-1 1.5-1 2.6 0 1-.4 1.9-1 1.9-.5 0-1 1.3-1 3 0 1.6-.4 3-1 3-.5 0-1 1.8-1 4s-.4 4-1 4c-.5 0-1 2.2-1 5 0 2.7-.4 5-1 5s-1 5.7-1 15 .4 15 1 15 1 1.3 1 2.8c0 1.6.8 3.4 2 4.2 1.1.8 2 2.1 2 3 0 .9.9 2.2 2 3 1.1.8 2 2.2 2 3.2s.5 1.8 1 1.8c.6 0 1 .9 1 2s.5 2 1 2c.6 0 1 1.3 1 3 0 1.6.5 3 1 3 1.5 0 1.3 17.7-.2 18.3-1 .4-.9.8.2 1.6.9.7 1.1 1.4.5 1.8-.6.5-1.6 2-2.4 3.5-1.1 2.1-2.2 2.8-4.3 2.8-1.5 0-2.8.4-2.8 1 0 .5-1.3 1-3 1-1.6 0-3 .4-3 1 0 .5-.7 1-1.5 1-2 0-6.5 4.5-6.5 6.5 0 .8-.4 1.5-1 1.5-.5 0-1 1.3-1 3 0 1.6-.4 3-1 3-.5 0-1 2.2-1 5v5h-3.4c-1.9 0-3.8-.5-4.1-1-.3-.6-1.5-1-2.6-1-1 0-1.9-.5-1.9-1 0-.6-.9-1-2-1s-2-.5-2-1c0-.6-.9-1-2-1s-2-.5-2-1c0-.6-.7-1-1.5-1s-3-.9-5-2-4.4-2-5.5-2c-1.1 0-2-.5-2-1 0-.6-.9-1-2-1s-2-.5-2-1c0-.6-.9-1-2-1s-2-.5-2-1c0-.6-1.1-1-2.4-1-1.4 0-2.8-.5-3.1-1-.3-.6-1.5-1-2.6-1-1 0-1.9-.5-1.9-1 0-.6-.9-1-2-1s-2-.5-2-1c0-.6-.9-1-2-1s-2-.5-2-1c0-.6-1-1-2.3-1-1.3 0-3.3-.9-4.5-2-1.2-1.1-2.8-2-3.7-2-.8 0-1.5-.5-1.5-1 0-.6-.7-1-1.5-1s-2.4-.5-3.5-1c-1.1-.6-2.9-1.5-4-2-1.1-.6-2.7-1-3.5-1-.8 0-1.5-.5-1.5-1 0-.6-1.3-1-3-1-1.6 0-3-.5-3-1 0-.6-.9-1-1.9-1-1.1 0-2.3-.5-2.6-1-.3-.6-1.7-1-3.1-1-1.3 0-2.4-.5-2.4-1 0-.6-.9-1-2-1s-2-.5-2-1c0-.6-.9-1-2-1s-2-.5-2-1c0-.6-.7-1-1.5-1-2 0-10.5-8.5-10.5-10.5s.9-1.9 2.9.2c2.6 2.9 5.8 4.3 9.5 4.3 1.9 0 3.6-.6 3.9-1.3.2-.7 2 .5 4.5 3 2.9 3.1 4.8 4.3 6.9 4.3 3.1 0 8.3 2 8.3 3.2 0 .5 2.7.8 6 .8s6 .4 6 1c0 .5 2.3 1 5 1 2.8 0 5-.5 5-1 0-.6 3.3-1 8-1s8 .4 8 1c0 .5.9 1 1.9 1 1.1 0 2.3-.5 2.6-1 .3-.6 1.5-1 2.6-1 2.8 0 6.9-4.4 6.9-7.5 0-1.4.4-2.5.8-2.5 1.3 0 3.2-4.8 3.2-8.1 0-2.3-1.1-4.1-4-6.9-2.2-2.1-4-4.4-4-5 0-1.7-6.5-8-8.3-8-.9 0-1.9.4-2.2 1-.3.5-2.2 1-4.1 1-3 0-3.4-.3-3.4-2.5 0-1.4-1.1-3.7-2.5-5-2.4-2.5-5.5-3.3-5.5-1.5 0 .5-1.3 1-3 1-1.6 0-3 .4-3 1 0 2-3.3.9-6-2s-8-4.2-8-2c0 .5-.9 1-2 1s-2 .4-2 1c0 .5-.9 1-2 1-1.3 0-2-.7-2-2 0-1.1-.4-2-1-2-.5 0-1-.9-1-2 0-1.3-.7-2-2-2-1.1 0-2-.5-2-1 0-.6-1.6-1-3.6-1-6.4 0-8.5-5-3.9-9.5 1.3-1.4 2.9-2.5 3.6-2.5.6 0 1.9-.8 2.8-1.8 1.8-1.9 6.7-5.1 9.4-5.9.9-.3 1.7-.9 1.7-1.4 0-.5.9-.9 2-.9s2-.5 2-1c0-.6.9-1 2-1s2-.5 2-1c0-.6.9-1 2-1s2-.5 2-1c0-.6.9-1 1.9-1 1.1 0 2.1-.3 2.3-.8.4-.9 5.7-4.1 8.1-4.9.9-.3 1.7-.9 1.7-1.4 0-.5.8-.9 1.8-.9s2.4-.9 3.2-2c.8-1.1 1.9-2 2.5-2 1.7 0 6.5-2.4 6.5-3.3 0-.4.9-.7 2-.7s2-.5 2-1c0-.6.9-1 2-1s2-.5 2-1c0-.6.9-1 2-1s2-.5 2-1c0-.6.9-1 2-1s2-.5 2-1c0-.6.9-1 2-1s2-.5 2-1c0-.6.9-1 1.9-1 1.1 0 2.3-.5 2.6-1 .3-.6 1.7-1 3.1-1 1.3 0 2.4-.5 2.4-1 0-.6 1.4-1 3-1 1.7 0 3-.5 3-1 0-.6 1.1-1 2.4-1 1.4 0 2.8-.5 3.1-1 .3-.6 1.9-1 3.6-1 1.6 0 2.9-.5 2.9-1 0-.6 1.5-1 3.4-1s3.8-.5 4.1-1c.3-.6 1.9-1 3.6-1 1.6 0 2.9-.5 2.9-1 0-2.1 7-1 9.5 1.5z"/><path d="M202 131c0 .5-.9 1-2 1-2.4 0-2.5.6-.6 2.6 1.7 1.6 6.2 1.9 7.1.4.3-.6 1.7-1 3.1-1 1.3 0 2.4.4 2.4 1 0 .5 1.7 1 3.8 1 2.6 0 4.2.6 5.2 2 .8 1.1 2.2 2 3.2 2s1.8.6 1.8 1.3c0 .7.9 2.3 2 3.5 1.1 1.2 2 2.8 2 3.7 0 .8.5 1.5 1 1.5.6 0 1 .9 1 1.9 0 1.1.5 2.3 1 2.6.6.3 1 3.1 1 6.1 0 3-.4 5.4-1 5.4-.5 0-1 1.3-1 3 0 1.6-.4 3-1 3-.5 0-1 .6-1 1.3 0 1.8-6.5 8.7-8.2 8.7-.7 0-2 .9-2.8 2-.8 1.1-2.2 2-3.2 2s-1.8.4-1.8 1c0 .5-2.2 1-5 1-4.3 0-5 .3-5 2 0 1.8.7 2 6 2 3.3 0 6-.4 6-1s1.4-1 3-1c1.7 0 3-.5 3-1 0-.6.6-1 1.4-1 1.6 0 9.6-4 11.1-5.5.6-.6 1.6-2.2 2.4-3.8.8-1.5 1.8-2.7 2.3-2.7.4 0 .8-.9.8-1.9 0-1.1.5-2.3 1-2.6.6-.3 1-2.8 1-5.5s.5-5.2 1-5.5c.6-.3 1-1.9 1-3.6 0-1.6-.4-2.9-1-2.9-.5 0-1-.9-1-2s-.4-2-1-2c-.5 0-1-1.1-1-2.5 0-2.8-9.9-13.5-12.5-13.5-.8 0-1.5-.5-1.5-1 0-.6-1.3-1-3-1-1.6 0-3-.5-3-1 0-.6-3.7-1-9-1s-9 .4-9 1z"/><path d="M198 139c0 .5-.7 1-1.5 1-2 0-8.5 6.5-8.5 8.5 0 .8-.4 1.5-1 1.5s-1 3.3-1 8 .4 8 1 8 1 .7 1 1.5c0 .9 2 3.6 4.5 6l4.4 4.5h7.5c4.1 0 7.8-.5 8.1-1 .3-.6 1.5-1 2.6-1 2.3 0 8.9-6.3 8.9-8.5 0-.8.5-1.5 1-1.5.6 0 1-3.3 1-8s-.4-8-1-8c-.5 0-1-.7-1-1.5 0-2-4.5-6.5-6.5-6.5-.8 0-1.5-.5-1.5-1 0-.6-1.3-1-3-1-1.6 0-3-.5-3-1 0-.6-2.7-1-6-1s-6 .4-6 1zm14.6 12.5c.9.9 1.4 2.8 1.2 4.7-.2 2.5-.8 3.4-2.6 3.6-2.3.4-5.2-1.8-5.2-3.9 0-1.2 3.8-5.9 4.7-5.9.3 0 1.1.7 1.9 1.5zM154 155c0 .5-.9 1-2 1s-2 .4-2 1c0 .5-.7 1-1.5 1-2.5 0-6.5 4.6-6.5 7.5 0 1.8.5 2.5 2 2.5 1.1 0 2-.5 2-1 0-.6.9-1 2-1s2-.5 2-1c0-.6 1.1-1 2.5-1 3.6 0 7.5-2.1 7.5-4.1 0-.9.6-1.9 1.2-2.1.9-.3.8-.9-.4-2.1-1.8-1.8-6.8-2.3-6.8-.7zm86 46c0 .5-.9 1-2 1-3 0-2.5 3 1 6.3 1.7 1.6 3 3.5 3 4.3 0 .8.3 1.4.8 1.4.4 0 1.2 1.6 1.8 3.6 1.1 3.5 1 3.8-2.2 7l-3.3 3.4h-15.6c-9.7 0-15.5.4-15.5 1 0 .5-.9 1-2 1-1.2 0-2 .7-2 1.6 0 2 2.4 4.4 4.4 4.4.9 0 1.6.4 1.6 1 0 1.5 45.3 1.3 46.8-.2s1.6-17.4.2-18.3c-.5-.3-1-2.4-1-4.6 0-2.1-.4-3.9-1-3.9-.5 0-1-.7-1-1.5 0-2.5-4.6-6.5-7.5-6.5-1.4 0-2.5-.5-2.5-1 0-.6-.9-1-2-1s-2 .4-2 1zm-38 42c0 .5-1.3 1-3 1-2.3 0-3 .4-3 2 0 1.3.7 2 2 2 1.1 0 2 .4 2 1 0 .5 1.4 1 3 1 1.7 0 3 .4 3 1 0 .5.9 1 2 1s2 .4 2 1c0 .5.6 1 1.4 1 .8 0 3.7 2.2 6.4 4.9 6.6 6.5 8.8 7.6 10.7 5.7 1.7-1.6 2.1-10.6.5-10.6-.5 0-1-.9-1-2 0-1.3-.7-2-1.8-2-1 0-2.4-.9-3.2-2-.8-1.1-2.2-2-3.2-2s-1.8-.5-1.8-1c0-.6-1.8-1-3.9-1-2.2 0-4.3-.5-4.6-1-.3-.6-2.2-1-4.1-1-1.9 0-3.4.4-3.4 1zM426 81c0 .5-.9 1-2 1-1.3 0-2 .7-2 1.8 0 1-.9 2.4-2 3.2-1.1.8-2 2.2-2 3.2 0 .9-.4 2-1 2.3-.5.3-1 2.1-1 3.9 0 2.4.6 3.6 2.4 4.6 2.2 1.1 2.7.9 6-2.3 2-2 3.6-4.3 3.6-5.2 0-.8.3-1.5.8-1.5.9 0 3.2-7.2 3.2-10 0-1.6-.7-2-3-2-1.6 0-3 .4-3 1zm6.3 11.7c-3.7 4-4.3 5.3-4.3 9 0 3.6.3 4.3 2 4.3 1.1 0 2 .4 2 1 0 .5.7 1 1.6 1 1.8 0 4.4-2.3 4.4-4 0-.6.9-2 2-3.2 1.1-1.2 2-3.2 2-4.4 0-1.2.5-2.4 1.2-2.6 1.5-.5-3.5-5.8-5.4-5.8-.7.1-3.2 2.2-5.5 4.7zM631.4 135c-.5.5-8.3 1.1-17.4 1.4-18 .5-26 1.3-26 2.7 0 .5-1.8.9-4 .9s-4 .4-4 1c0 .5-.9 1-1.9 1-1.1 0-2.3.4-2.6 1-.3.5-1.7 1-3.1 1-1.3 0-2.4.4-2.4 1 0 .5-.9 1-2 1s-2 .4-2 1c0 .5-.9 1-2 1s-2 .4-2 1c0 .5-.9 1-2 1s-2 .4-2 1c0 .5-.9 1-2 1s-2 .4-2 1c0 .5-.8 1-1.8 1s-2.4.9-3.2 2c-.8 1.1-2.1 2-3 2-.9 0-2.2.9-3 2-.8 1.1-2 2-2.7 2-1.7 0-12.3 10.6-12.3 12.3 0 .7-.9 1.9-2 2.7-1.1.8-2 2.2-2 3.2s-.4 1.8-1 1.8c-.5 0-1 .9-1 2s-.4 2-1 2-1 4.7-1 12 .4 12 1 12 1 1.8 1 4 .5 4 1 4c.6 0 1 .9 1 2s.5 2 1 2c.6 0 1 1 1 2.3 0 1.3.9 3.3 2 4.5 1.1 1.2 2 2.6 2 3.2 0 1.3 14.6 16 16 16 .6 0 2.4 1.3 4.2 3 1.7 1.6 3.7 3 4.4 3 .8 0 1.4.4 1.4 1 0 .5.6 1 1.3 1 .7 0 2.3.9 3.5 2 1.2 1.1 2.8 2 3.7 2 .8 0 1.5.3 1.5.7 0 .9 4.9 3.3 6.7 3.3.7 0 1.3.4 1.3 1 0 .5.9 1 2 1s2 .4 2 1c0 .5 1.3 1 2.9 1 1.7 0 3.3.4 3.6 1 .3.5 2.2 1 4.1 1 1.9 0 3.4.4 3.4.9 0 1 4.6 1.9 13 2.7 3 .3 5.9 1 6.4 1.5.6.5 4 .9 7.6.9 5.8 0 6.9-.3 8.8-2.5l2.2-2.5-3.5-3.5c-1.9-1.9-4.1-3.5-5-3.5-.8 0-1.5-.5-1.5-1 0-.6-.9-1-2-1s-2-.4-2-.8.9-1.4 2-2.2c3-2.2 2.6-5-.8-5-1.5 0-4-.5-5.4-1.2-2.2-1.1-2.5-1.7-2-5 .5-4.2.2-4.3-8-3.9-2.1.2-3.8 0-3.8-.4s1.4-2 3-3.5c1.7-1.5 3-3.3 3-4 0-2.4-3-4-7.3-4-3.2 0-4.7-.5-5.1-1.6-.8-2 0-3.2 3.6-6.3 3-2.6 3.8-6.1 1.3-6.1-.9 0-3.6-2.1-6.1-4.6l-4.6-4.5 2.1-1.8c1.2-1 2.1-2.6 2.1-3.5 0-.9.5-1.6 1-1.6.6 0 1-.8 1-1.8 0-2.3 1.9-4.2 4.2-4.2 1 0 1.8-.7 1.8-1.6 0-2.3 2.5-4.4 5.4-4.4 1.4 0 2.8-.5 3.1-1 .3-.6 2-1 3.6-1 3.1 0 5.9-1.9 5.9-4 0-1.7-2.6-4-4.4-4-.9 0-1.6-.5-1.6-1 0-.6-1.3-1-3-1-1.9 0-3-.5-3-1.4 0-1 1.5-1.2 7-.8 4.8.3 7 .1 7-.7 0-.6 1.2-1.1 2.6-1.1 3 0 6.7-3.7 5.9-5.8-.3-.7-.5-1.6-.5-1.8 0-.2-.9-.4-2-.4s-2-.5-2-1c0-.6-.9-1-2-1s-2-.5-2-1c0-.6 1.8-1 4-1s4-.5 4-1c0-.6 1.4-1 3-1 1.7 0 3-.5 3-1 0-.6.7-1 1.6-1 .8 0 2.2-.7 3-1.5 1.4-1.3 1.4-1.7 0-3-.8-.8-2.1-1.5-3-1.5-.8 0-1.8-.5-2.1-1-.3-.6-4.2-1-8.6-1-4.6 0-7.9-.4-7.9-1s4.2-1 10.5-1 10.5-.4 10.5-1 .7-1 1.5-1c2 0 6.5-4.5 6.5-6.5 0-.8.5-1.5 1-1.5.6 0 1-.9 1-2 0-1.8-.7-2-6.8-2-3.7 0-7.2.4-7.8 1zM446 253c0 .5-.8 1-1.8 1s-2.4.9-3.2 2c-.8 1.1-2.2 2-3.2 2-1.1 0-1.8.7-1.8 1.8 0 1-.9 2.4-2 3.2-1.6 1.2-2 2.6-2 7.2 0 3.2-.4 5.8-1 5.8-.5 0-1 1.8-1 4s.5 4 1 4c.6 0 1 1.5 1 3.3 0 2.4 1.1 4.5 4 7.7 2.2 2.5 4 4.9 4 5.3 0 .5 2.3 3 5 5.7l5 4.9v10.5c0 6.4-.4 10.6-1 10.6-.5 0-1 1.3-1 3 0 2.9-.2 3-4.3 3-2.9 0-5 .6-6.5 2-1.2 1.1-2.4 2-2.7 2-.3 0-.5-6.8-.5-15 0-9.3-.4-15-1-15-.5 0-1-1.5-1-3.4s-.4-3.8-1-4.1c-.5-.3-1-1.5-1-2.6 0-1-.4-1.9-1-1.9-.5 0-1-.8-1-1.8s-.9-2.4-2-3.2c-1.1-.8-2-2-2-2.7 0-.7-3.8-5.1-8.5-9.8-4.7-4.7-9.1-8.5-9.8-8.5-.7 0-1.9-.9-2.7-2-1-1.4-2.6-2-5.2-2-2.1 0-3.8-.5-3.8-1 0-.6-1.3-1-3-1-2.8 0-3 .2-3 4 0 2.2.5 4 1 4 .6 0 1 .7 1 1.5 0 .9 4.4 5.9 9.8 11.3 5.3 5.3 10.3 10.9 11.1 12.5.8 1.5 1.8 2.7 2.3 2.7.4 0 .8.9.8 2s.5 2 1 2c.6 0 1 9.2 1 25.6 0 21.7-.2 25.8-1.5 27.1-.9.8-1.9 1.2-2.3.8-.4-.4-.1-1 .6-1.2.7-.3 1.2-2.3 1.2-5 0-4.7-.8-5.9-5.2-8.2-1.8-.9-2.8-2.2-2.8-3.7 0-1.3-.4-2.6-1-2.9-.5-.3-1-1.9-1-3.6 0-1.6-.4-2.9-1-2.9-.5 0-1-.7-1-1.6 0-.8-2.2-3.7-5-6.4-2.7-2.7-5-5.6-5-6.4 0-.9-.4-1.6-.8-1.6s-1.9-2.2-3.3-5c-1.3-2.7-2.7-5-3.1-5-.5 0-.8-.7-.8-1.5s-1.3-2.9-3-4.7c-1.6-1.7-3-3.5-3-4 0-1.4-6.8-7.8-8.2-7.8-.8 0-2-.9-2.8-2-.8-1.1-2.2-2-3.2-2s-1.8-.5-1.8-1c0-.6-2.5-1-5.6-1-5.4 0-8.4 1.4-8.4 4 0 .6 3.2 4.2 7 8 3.9 3.8 7 7.3 7 7.8s1.4 2.3 3 4c1.7 1.8 3 3.7 3 4.3 0 .6 1.4 2.4 3 3.9 1.7 1.5 3 3.3 3 4 0 .7 1.4 2.5 3 4 1.7 1.5 3 3.2 3 3.8 0 .5 1.4 2.3 3 4 1.7 1.8 3 3.9 3 4.7 0 .8.5 1.5 1 1.5.6 0 1 .9 1 2s.5 2 1 2c.6 0 1 3 1 7s-.4 7-1 7c-.5 0-1 .9-1 2s-.4 2-1 2c-.5 0-1 .7-1 1.5 0 1.4-8.2 10.5-9.5 10.5-.3 0-.5-.9-.5-2s.5-2 1-2c.6 0 1-.9 1-1.9 0-1.1.6-2.2 1.3-2.5 1-.5 1-.7 0-1.2-.7-.3-1.3-1.2-1.3-2.1 0-2.2-2.6-4.3-5.4-4.3-1.9 0-2.6-.5-2.6-2 0-1.1-.4-2-1-2-.5 0-1-.9-1-2s-.4-2-1-2c-.5 0-1-.9-1-2s-.4-2-1-2c-.5 0-1-.9-1-2s-.4-2-1-2c-.5 0-1-.9-1-2s-.4-2-1-2c-.5 0-1-1.1-1-2.4 0-1.4-.4-2.8-1-3.1-.5-.3-1-1.5-1-2.6 0-1-.4-1.9-1-1.9-.5 0-1-.9-1-2s-.4-2-1-2c-.5 0-1-.9-1-2s-.4-2-1-2c-.5 0-1-.7-1-1.5s-1.4-2.9-3-4.7c-1.7-1.7-3-3.5-3-4 0-1.5-13.1-13.8-14.6-13.8-.8 0-1.4-.5-1.4-1 0-.6-.9-1-2-1s-2-.5-2-1c0-.6-2.2-1-5-1h-5v4.8c0 3.6.5 5.1 2 6.2 1.1.8 2 2 2 2.6 0 .7 2.3 3.5 5 6.3 2.8 2.8 5 5.5 5 6 0 .4 1.4 2.2 3 3.9 1.7 1.8 3 3.9 3 4.7 0 .8.5 1.5 1 1.5.6 0 1 .9 1 2s.4 2 .8 2c.5 0 1.5 2.3 2.2 5.1.8 2.7 1.8 5.2 2.2 5.5.4.3.8 1.6.8 3 0 1.3.5 2.4 1 2.4.6 0 1 .9 1 2s.5 2 1 2c.6 0 1 .9 1 2s.5 2 1 2c.6 0 1 1.3 1 3 0 1.6.5 3 1 3 .6 0 1 .9 1 2 0 1.2-.7 2-1.6 2-.8 0-2.2.7-3 1.5-2.4 2.3-3.4 1.8-3.4-1.8 0-2.1-.7-3.8-2-4.7-1.1-.8-2-2.2-2-3.2 0-1.5-.9-1.8-5-1.8-4.3 0-5-.3-5-2 0-1.1-.4-2-1-2s-1-3-1-7-.4-7-1-7c-.5 0-1-1.4-1-3 0-1.7-.4-3-1-3-.5 0-1-1-1-2.3 0-1.3-.9-3.3-2-4.5-1.1-1.2-2-2.8-2-3.7 0-.8-.4-1.5-1-1.5-.5 0-1-.9-1-2s-.4-2-.9-2-1.3-.9-1.6-2c-.9-2.8-12-14-13.9-14-.9 0-1.6-.5-1.6-1 0-.6-1-1-2.3-1-1.3 0-2.9-.6-3.6-1.3-1.1-1-1.4-1-1.8 0-.3.7-1.3 1.3-2.4 1.3-1.6 0-1.9.7-1.9 4 0 2.2.5 4 1 4 .6 0 1 .9 1 2s.5 2 1 2c.6 0 1 .9 1 2s.5 2 1 2c.6 0 1 .7 1 1.6 0 .9 1.4 2.9 3 4.4 1.7 1.5 3 3.3 3 4 0 .7 1.4 2.5 3 4 1.7 1.5 3 3.3 3 3.9 0 .7.9 2.1 2 3.3 1.1 1.2 2 2.8 2 3.5 0 .7.5 1.3 1 1.3.6 0 1 .9 1 2s.5 2 1 2c.6 0 1 1.3 1 3 0 1.6.5 3 1 3 .6 0 1 3.2 1 7.5 0 8.3-.5 9.3-8 14.5-1.9 1.3-4.1 3-4.7 3.6-1.5 1.5-1.7 8.4-.3 8.4.6 0 1 .9 1 2s.5 2 1 2c1.7 0 1.1 3-.7 3.7-.9.4-4.3 3.3-7.6 6.5-3.2 3.2-6.4 5.8-7.1 5.8-.6 0-1.8.9-2.6 2-.9 1.3-2.6 2-4.7 2-1.7 0-3.5.4-3.8 1-.3.5-2 1-3.6 1-3.4 0-10.9 4.6-10.9 6.6 0 .8-.4 1.4-1 1.4-1.8 0-1 3.1 1.5 5.5 1.3 1.4 3.1 2.5 3.9 2.5.8 0 1.6.6 1.9 1.2.3 1 .9 1 2.6 0 1.1-.6 3.7-1.2 5.6-1.2 1.9 0 3.5-.5 3.5-1 0-.6 1.4-1 3-1 1.7 0 3-.5 3-1 0-.6.7-1 1.5-1 .9 0 2.5-.9 3.7-2 1.2-1.1 2.8-2 3.5-2 .7 0 1.3-.4 1.3-.9s.9-1.2 2-1.6c1-.3 5-3.5 8.7-7 3.7-3.6 7.4-6.5 8.1-6.5.6 0 1.2-.5 1.2-1 0-.6 1.8-1 4-1s4-.5 4-1c0-.6.7-1 1.6-1 3.1 0 6.7-6 6.3-10.6-.5-6.9 0-9.4 2.1-9.4 1.6 0 2 .7 2 3 0 1.6.5 3 1 3 .6 0 1 .8 1 1.8s.9 2.4 2 3.2c2.1 1.5 2.8 5 1 5-.5 0-1 .6-1 1.3 0 1.8-2.4 6.7-3.2 6.7-.5 0-.8.7-.8 1.6 0 1.8-12.6 14.4-14.4 14.4-.6 0-1.8.9-2.6 2s-2 2-2.8 2c-.7 0-2.2.9-3.4 2-1.2 1.1-2.8 2-3.5 2-.7 0-1.3.4-1.3 1 0 .5-.9 1-2 1s-2 .4-2 1c0 .5-.9 1-2 1s-2 .4-2 1c0 .5-.9 1-2 1s-2 .4-2 1c0 .5-1.3 1-3 1-1.6 0-3 .4-3 .9s-1.3 1.4-3 2.1c-3.3 1.4-4.1 5-1.6 7.6 1.7 1.7 16.6 2 16.6.4 0-.6 1.3-1 2.9-1 1.7 0 3.3-.5 3.6-1 .3-.6 1.7-1 3.1-1 1.3 0 2.4-.5 2.4-1 0-.6.9-1 2-1s2-.5 2-1c0-.6.9-1 2-1s2-.5 2-1c0-.6.8-1 1.8-1s2.4-.9 3.2-2c.8-1.1 2.1-2 2.8-2 .8 0 2.7-1.4 4.2-3 1.5-1.7 3.3-3 4-3 1.4 0 20-18.8 20-20.2 0-2 3-3.8 6.4-3.8 2 0 3.6-.5 3.6-1 0-.6.7-1 1.6-1 3 0 4.4-2.7 4.4-8.4 0-3.1-.4-5.6-1-5.6-.5 0-1-.5-1-1 0-.6 1.7-1 3.8-1 3 0 3.9.5 5 2.7 1.4 3.2 1.6 10.9.2 11.8-.5.3-1 1.7-1 3.1 0 1.3-.4 2.4-1 2.4-.5 0-1 1-1 2.2 0 1.3-.9 3.4-2 4.8s-2 2.9-2 3.3c0 .4-1.1 1.9-2.4 3.2-1.4 1.4-3.3 3.8-4.2 5.5-1 1.6-2.4 3-3 3-.7 0-4 2.7-7.3 6-3.4 3.3-6.8 6-7.6 6-.8 0-1.5.4-1.5 1 0 .5-.8 1-1.8 1s-2.4.9-3.2 2c-.8 1.1-2 2-2.8 2-1.8 0-8.2 6.6-8.2 8.5 0 .8.9 1.5 2 1.5s2 .4 2 1c0 .5 1.8 1 4 1s4-.5 4-1c0-.6 1.4-1 3-1 1.7 0 3-.5 3-1 0-.6.9-1 2-1s2-.5 2-1c0-.6.9-1 2-1s2-.5 2-1c0-.6.9-1 2-1s2-.5 2-1c0-.6.9-1 2-1s2-.5 2-1c0-.6.6-1 1.4-1 1.9 0 14.6-12.7 14.6-14.6 0-.7.5-1.4 1-1.4.6 0 1-.9 1-2s.5-2 1-2c.6 0 1-.9 1-2s.5-2 1-2c.6 0 1-.9 1-2s.5-2 1-2c.6 0 1-.9 1-2s.5-2 1-2c.6 0 1-.9 1-2s.5-2 1-2c.6 0 1-.7 1-1.5 0-.9.9-2.5 2-3.7 1.1-1.2 2-2.7 2-3.2 0-1.1 4.5-3.6 6.3-3.6 1.7 0 3.7-2.9 3.7-5.4 0-1.4.5-2.6 1-2.6.6 0 1-.6 1-1.3 0-1.8-2.4-6.7-3.2-6.7-.5 0-.8-.5-.8-1 0-1.8 3.1-1 5.5 1.5 2.5 2.4 3.5 7.5 1.5 7.5-.5 0-1 1.8-1 4s-.4 4-1 4c-.5 0-1 1.3-1 2.9 0 1.7-.4 3.3-1 3.6-.5.3-1 1.7-1 3.1 0 1.3-.4 2.4-1 2.4-.5 0-1 1.3-1 3 0 1.6-.4 3-1 3-.5 0-1 .9-1 2s-.4 2-1 2c-.5 0-1 .9-1 2s-.4 2-1 2c-.5 0-1 .8-1 1.8s-.9 2.4-2 3.2c-1.1.8-2 2.1-2 3 0 .9-.9 2.2-2 3-1.1.8-2 2-2 2.8 0 .7-5.4 6.7-12 13.3-10.7 10.5-11.9 12.1-10.6 13.4 1.7 1.7 16.6 2.2 16.6.5 0-.6.9-1 2-1s2-.5 2-1c0-.6.7-1 1.5-1s4.3-2.7 7.7-6.1c3.4-3.4 7.2-6.8 8.5-7.6 1.3-.8 2.3-2 2.3-2.5 0-.6 1.4-2.3 3-3.8 1.7-1.5 3-3.4 3-4.2 0-.7.9-2 2-2.8 1.1-.8 2-2.1 2-3 0-.9.9-2.2 2-3 1.1-.8 2-2.2 2-3.2s.5-1.8 1-1.8c.6 0 1-1.1 1-2.4 0-1.4.5-2.8 1-3.1.6-.3 1-1.5 1-2.6 0-1 .5-1.9 1-1.9.6 0 1-1.5 1-3.4s.5-3.8 1-4.1c.6-.3 1-1.9 1-3.6 0-1.6.5-2.9 1-2.9.6 0 1-.7 1-1.6 0-2.7 2.7-4.4 7-4.4 4.8 0 7-1.7 7-5.4 0-1.4.3-2.6.6-2.6 1.1 0 3.4 2.9 3.4 4.4 0 .9.5 1.6 1 1.6.6 0 1 .7 1 1.6 0 .9 1.4 2.9 3 4.4 1.7 1.5 3 3.5 3 4.4 0 .9.5 1.6 1 1.6.6 0 1 .9 1 2s.5 2 1 2c.6 0 1 .9 1 2s.5 2 1 2c.6 0 1 1.1 1 2.4 0 1.4.5 2.8 1 3.1.6.3 1 4.2 1 8.6 0 4.6.4 7.9 1 7.9s1 .9 1 2 .5 2 1 2c.6 0 1 .7 1 1.6 0 2.4 8.6 10.1 12.3 10.9 5.5 1.3 29.7 1.7 29.7.6 0-.6 1.4-1.1 3-1.1 1.7 0 3-.4 3-.8 0-.5 2.3-1.5 5-2.2 2.8-.7 5-1.7 5-2.2 0-.4.9-.8 2-.8s2-.5 2-1c0-.6.9-1 2-1s2-.5 2-1c0-.6.8-1 1.8-1s2.4-.9 3.2-2c.8-1.1 2-2 2.8-2 .7 0 3.9-2.6 7-5.8 3.2-3.2 7-6.7 8.5-7.6 1.5-1 2.7-2.5 2.7-3.2 0-.8.6-1.4 1.4-1.4 1.7 0 18.6-16.4 18.6-18 0-1.3 18.6-20 19.9-20 1.5 0 20.1-18.7 20.1-20.2 0-.8.9-2 2-2.8 1.8-1.3 2-2.6 2-10.8 0-8.5-.2-9.5-2.5-11.7-2-2.1-3.4-2.5-8-2.5-3 0-5.5.4-5.5 1 0 .5-1.3 1-3 1-1.6 0-3 .4-3 1 0 .5-1.7 1-3.8 1-2.6 0-4.2.6-5.2 2-.8 1.2-2.6 2-4.2 2-1.5 0-2.8.4-2.8 1 0 .5-1.2 1-2.6 1-1.7 0-3.9 1.4-6.4 4-3.4 3.5-4.4 4-8.4 4-2.5 0-4.6.4-4.6 1 0 .5-.7 1-1.5 1s-2.9 1.3-4.7 3c-1.7 1.6-3.7 3-4.4 3-.8 0-1.4.4-1.4 1s-3 1-7 1c-3.8 0-7 .4-7 .9s-1.2 1.1-2.7 1.4c-3.4.7-5.6-1-3.1-2.4.9-.5 2.4-1.6 3.2-2.4.9-.9 3.4-1.5 6.4-1.5 6 0 12.1-2.9 17.4-8.3 3-3.1 4.3-3.7 7.8-3.7 4 0 7-1.7 7-4 0-2.5 3-4 8-4 4.5 0 5.6-.4 8-3 2.7-2.9 6-4 6-2 0 .6 2.7 1 6 1s6-.4 6-1 .9-1 2-1 2-.5 2-1c0-.6.9-1 2-1 1.3 0 2-.7 2-1.9 0-1.1.5-2.1 1.1-2.3.7-.2 1.2-2.2 1.2-4.5 0-3.7-.6-4.7-6.6-10.7-3.7-3.6-7.3-6.6-8.2-6.6-.8 0-1.5-.5-1.5-1 0-.6-.9-1-2-1s-2-.5-2-1c0-.6-.9-1-2-1s-2-.5-2-1c0-.6-1.3-1-3-1-1.6 0-3-.5-3-1 0-.6-.9-1-2-1s-2-.5-2-1c0-.6-1.3-1-3-1-1.6 0-3-.5-3-1 0-.6-1.3-1-3-1-1.6 0-3-.5-3-1 0-.6-1.8-1-4-1s-4-.5-4-1c0-.6-1.3-1-3-1-1.6 0-3-.5-3-1 0-.6-.9-1-2-1-2.8 0-10-2.3-10-3.2 0-.5-.9-.8-2-.8s-2-.5-2-1c0-.6-1.8-1-4-1s-4-.5-4-1c0-.6-1.3-1-3-1-1.6 0-3-.5-3-1 0-.6-1.8-1-4-1s-4-.4-4-.9-1.6-1.2-3.5-1.5c-1.9-.3-5.1-.9-7-1.2-1.9-.3-3.5-1-3.5-1.5s-1.3-.9-3-.9c-1.6 0-3-.5-3-1 0-.6-1.3-1-3-1-1.6 0-3-.5-3-1 0-.6-1.3-1-3-1-1.6 0-3-.4-3-.8 0-.5-2.2-1.5-5-2.2-2.7-.7-5-1.7-5-2.2 0-.4-1.8-.8-4-.8s-4-.5-4-1c0-.6-5.7-1-15-1s-15 .4-15 1zm22.5 20c.3.5 2.2 1 4.1 1 1.9 0 3.4.4 3.4 1 0 .5 1.4 1 3 1 1.7 0 3 .4 3 1 0 .5 1.4 1 3 1 1.7 0 3 .4 3 1 0 .5 1.4 1 3 1 1.7 0 3 .4 3 1 0 .5 1.4 1 3 1 1.7 0 3 .4 3 1 0 .5.9 1 2 1s2 .4 2 1c0 .5 1.4 1 3 1 1.7 0 3 .4 3 1s7.7 1 21 1 21 .4 21 1c0 .5 1.3 1 2.9 1 1.7 0 3.3.4 3.6 1 .3.5 2.2 1 4.1 1 1.9 0 3.4.4 3.4 1 0 .5 1 1 2.2 1 2.3 0 8.1 1.6 11 3.1 1 .5 2.5.9 3.3.9.8 0 1.5.4 1.5 1 0 .5.9 1 2 1s2 .4 2 .8c0 .5 1.2 1.5 2.8 2.3 1.5.8 3.6 2.2 4.6 3.1 1.1 1 2.6 1.8 3.3 1.8.7 0 1.3.4 1.3 1 0 .5.9 1 2 1s2 .3 2 .6c0 1.9-4.1 3.3-9.2 3.4-5.4 0-6.1.3-9.9 4-4 3.8-6.9 5.1-6.9 3 0-.6-1.8-1-4-1-3.2 0-4 .4-4 1.8 0 1-.9 2.4-2 3.2-1.1.8-2 2.2-2 3.1 0 2.1-5.1 4.9-5.7 3.1-.3-.6-1.3-1.2-2.3-1.2-1 0-2.2-.5-2.5-1-1.6-2.6-7.5 0-7.5 3.4 0 .9-.4 1.6-1 1.6-.5 0-1 .9-1 2 0 1.3-.7 2-2 2-1.1 0-2 .4-2 1s-3.2 1-7.5 1c-7.3 0-7.7.1-11 3.5-2.4 2.4-3.5 4.3-3.5 6.4 0 1.6-.4 3.3-1 3.6-.5.3-1 2.6-1 5s.5 4.7 1 5c.6.3 1 1.3 1 2.1 0 2.5 8.7 10.4 11.5 10.4 1.4 0 3.4.6 4.5 1.2 1.6 1 2.4 1 4 0 1.1-.6 2.7-1.2 3.6-1.2.9 0 2.9-1.4 4.4-3 2.7-2.9 6-4 6-2 0 .5 1.6 1 3.6 1 3 0 4.4-.9 9.4-6 5.8-5.9 6-6 11.4-6 3.1 0 5.6-.5 5.6-1 0-.6.7-1 1.6-1 .9 0 2.9-1.4 4.4-3 1.5-1.7 3.7-3 4.8-3 1.2 0 2.4-.5 2.7-1 .3-.6 2.2-1 4.2-1 2.6 0 4.2-.8 6.3-3 3.2-3.4 4-3.7 4-1.5 0 1.7-48.4 50.5-50.1 50.5-.6 0-3.7 2.7-6.9 6s-6.4 6-6.9 6c-.6 0-3.4 2.3-6.2 5-2.8 2.8-5.6 5-6.3 5-.6 0-1.8.9-2.6 2s-2.1 2-3 2c-.9 0-2.2.9-3 2-.8 1.1-2.2 2-3.2 2s-1.8.4-1.8 1c0 .5-1.5 1-3.4 1s-3.8.4-4.1 1c-.8 1.3-20.5 1.3-20.5 0 0-.6-.7-1-1.5-1-.9 0-2.7-1.1-4-2.5-2.2-2.1-2.5-3.3-2.5-9 0-3.7-.4-6.5-1-6.5-.5 0-1-.9-1-2s-.4-2-1-2c-.5 0-1-.9-1-2s-.4-2-1-2c-.5 0-1-1.4-1-3 0-1.7-.4-3-1-3-.5 0-1-.8-1-1.8s-.9-2.4-2-3.2c-1.1-.8-2-2.1-2-3 0-.9-.9-2.2-2-3-1.1-.8-2-2.2-2-3.2s-.4-1.8-1-1.8c-.5 0-1-.9-1-2s-.4-2-1-2-1-6.1-1-16.4c0-9.9.4-16.7 1-17.1.6-.4 1-7.7 1-18.6 0-11.3-.4-17.9-1-17.9-.5 0-1-1.3-1-3 0-1.9-.7-3.4-2-4.2-1.1-.7-2-2-2-2.8 0-.9-.9-2.2-2-3-1.1-.8-2-2.2-2-3.2s-.4-1.8-1-1.8c-.5 0-1-.9-1-2s-.4-2-1-2c-.5 0-1-.9-1-2s-.4-2-1-2c-1.4 0-1.3-2 .3-5.3 1.1-2.5 1.6-2.7 7.9-2.7 3.7 0 7 .4 7.3 1zM446 363.9c0 1.1.5 2.3 1 2.6.6.3 1 2.6 1 5s.5 4.7 1 5c.6.3 1 1.3 1 2.1s-.4 1.4-1 1.4c-.5 0-1-.8-1-1.8s-.9-2.4-2-3.2c-1.1-.8-2-2.2-2-3.2s-.4-1.8-.8-1.8c-.8 0-3.2-4.3-3.2-5.5 0-.3.9-.5 2-.5s2-.5 2-1c0-.6.5-1 1-1 .6 0 1 .9 1 1.9z"/><path d="M490 293c0 .5-.7 1-1.5 1-2 0-10.5 8.5-10.5 10.5 0 .8-.4 1.5-1 1.5-.5 0-1 1.3-1 3 0 1.6-.4 3-1 3-.5 0-1 1.1-1 2.4 0 1.4-.4 2.8-1 3.1-.5.3-1 3.7-1 7.6 0 3.9.4 6.9 1 6.9s1 .9 1 2 .5 2 1 2c.6 0 1 .7 1 1.5 0 2 10.5 12.5 12.5 12.5.8 0 1.5.4 1.5 1 0 .5.9 1 2 1s2 .4 2 1c0 .5 1.4 1 3 1 1.7 0 3 .4 3 1 0 .5.9 1 2 1 1.2 0 2-.7 2-1.6 0-1.9-2.4-4.4-4.2-4.4-.8 0-2-.9-2.8-2-.8-1.1-2.1-2-2.8-2-1.7 0-10.2-8.8-10.2-10.7 0-.7-.4-1.3-1-1.3-.5 0-1-1.7-1-3.8 0-2.1-.5-4.3-1.1-4.9-.8-.8-.8-1.3 0-1.7.6-.4 1.1-3.2 1.1-6.2s.5-5.4 1-5.4c.6 0 1-1.1 1-2.4 0-1.4.5-2.8 1-3.1.6-.3 1-1.3 1-2.1 0-1.9 6.5-8.4 8.5-8.4 1.9 0 1.9-.7.1-2.6-1.7-1.6-4.6-1.9-4.6-.4z"/><path d="M502.3 297.8c-1.3.2-2.3.8-2.3 1.3s-.7.9-1.5.9c-2 0-8.5 6.5-8.5 8.5 0 .8-.4 1.5-1 1.5s-1 3.8-1 9.3v9.4l4.4 4.6c3.4 3.6 5.1 4.7 7.4 4.7 1.7 0 3.4.4 3.7 1 .3.5 2.6 1 5 1s4.7-.5 5-1c.3-.6 1.9-1 3.6-1 1.6 0 2.9-.5 2.9-1 0-.6.7-1 1.5-1 2 0 8.5-6.5 8.5-8.5 0-.8.5-1.5 1-1.5.6 0 1-3 1-7s-.4-7-1-7c-.5 0-1-.7-1-1.5 0-2-6.5-8.5-8.5-8.5-.8 0-1.5-.5-1.5-1 0-.6-.9-1-1.9-1-1.1 0-2.1-.4-2.3-.9-.3-.9-9.9-1.8-13.5-1.3zm1.2 14.7c1.4 1.3 2.5 2.9 2.5 3.5 0 2.1-4.9 6-7.5 6-2.2 0-2.5-.4-2.5-3.5 0-2.3.8-4.4 2.3-6 1.2-1.3 2.3-2.4 2.5-2.4.2-.1 1.4 1 2.7 2.4zm56.9-8.1c-5 5.4-5.6 9.5-1.9 13.1 2.4 2.5 7.5 3.5 7.5 1.5 0-.6.9-1 2-1s2-.3 2-.8c0-1 7.3-3.2 10.6-3.2 1.4 0 3.2-.7 4-1.5 1.3-1.3 1.2-1.8-1-4-1.4-1.4-3.2-2.5-4.1-2.5-.8 0-1.5-.4-1.5-.8 0-1.7-5.1-3.2-10.3-3.1-4.1 0-5.7.5-7.3 2.3zm-91.1 39.1c-1.6 1.8-1.8 22.5-.3 22.5.6 0 1 1.5 1 3.4s.5 3.8 1 4.1c.6.3 1 1.5 1 2.6 0 2.7 2.3 9.9 3.2 9.9.5 0 .8.7.8 1.5 0 2 10.5 12.5 12.5 12.5.8 0 1.5.4 1.5 1 0 .5 1.4 1 3 1 1.7 0 3 .4 3 1s4.3 1 10.9 1c6.3 0 11.2-.4 11.6-1 .3-.5 1.9-1 3.5-1s3.2-.5 3.5-1c.3-.6 1.5-1 2.6-1 1 0 1.9-.5 1.9-1 0-.6.9-1 2-1s2-.5 2-1c0-.6.6-1 1.4-1 .8 0 3.7-2.3 6.5-5 2.8-2.8 5.8-5 6.6-5 .8 0 1.5-.5 1.5-1 0-.6 1.8-1 4-1s4-.5 4-1c0-.6.9-1 2-1 1.3 0 2-.7 2-2 0-1.9-.7-2-11-2-6.7 0-11 .4-11 1 0 .5-.6 1-1.3 1-1.8 0-6.7 2.4-6.7 3.2 0 .5-.8.8-1.8.8s-2.4.9-3.2 2c-.8 1.1-2.1 2-3 2-.9 0-2.2.9-3 2-.8 1.1-2.2 2-3.2 2s-1.8.4-1.8 1-3.3 1-8 1-8-.4-8-1-.9-1-2-1-2-.5-2-1c0-.6-.7-1-1.5-1-1.8 0-10.5-8.4-10.5-10 0-.6-.7-1.8-1.5-2.7-.9-.8-1.9-2.8-2.2-4.4-.3-1.6-.9-2.9-1.4-2.9-.5 0-.9-1.8-.9-4s-.4-4-1-4-1-2.7-1-6-.4-6-1-6c-.5 0-1-1.8-1-4 0-3.2-.4-4-1.7-4-1 .1-2.4.7-3 1.5zm91.2 43.8c-1.1.7-3.1 2.3-4.5 3.7-1.4 1.4-3.7 3.1-5.2 3.9-1.6.8-2.8 1.8-2.8 2.3 0 .4-1.3.8-3 .8-1.6 0-3 .4-3 1 0 .5-1.3 1-3 1-1.6 0-3 .4-3 1 0 .5-1.3 1-3 1-1.6 0-3 .4-3 1 0 .5-1.3 1-3 1-1.6 0-3 .4-3 1 0 .5-1.8 1-4 1s-4 .4-4 1c0 .5-.9 1-2 1s-2 .4-2 1c0 .5-.7 1-1.6 1-2 0-4.4 2.4-4.4 4.4 0 .9-.4 1.6-1 1.6-1.5 0-1.2 4.9.4 6.6.8.8 2.1 1.4 3 1.4.8 0 1.8.4 2.1 1 .3.5 1.7 1 3 1s2.7-.5 3-1c.3-.6 2.2-1 4.1-1 1.9 0 3.4-.5 3.4-1 0-.6.7-1 1.5-1 .9 0 2.5-.9 3.7-2 1.2-1.1 2.8-2 3.5-2 .7 0 1.3-.4 1.3-.8 0-.5 1.2-1.5 2.7-2.3 1.6-.8 6.3-4.9 10.5-9.2 4.2-4.2 8.1-7.7 8.5-7.7 1.5 0 6.3-4.7 6.3-6.1 0-.8.9-2.1 2-2.9 1.1-.8 2-1.8 2-2.2 0-1.2-3.2-.9-5.5.5zM82 276c0 1.1-.4 2-1 2-2.1 0-.8 2.9 3.4 7.3 2.4 2.6 5.1 4.7 6 4.7.9 0 1.6.4 1.6 1 0 .5.9 1 2 1s2 .4 2 1c0 .5-.9 1-2 1s-2-.5-2-1c0-1.4-4.2-1.2-6.2.4-2.4 1.8-2.3 3.2.6 6.1 2.7 2.7 9.8 6.5 12.1 6.5.8 0 1.5.4 1.5 1 0 .5.7 1 1.5 1s1.5.4 1.5 1c0 .5-.7 1-1.5 1s-1.5-.5-1.5-1c0-1.3-2.3-1.3-5.5.2-1.7.7-2.5 1.9-2.5 3.5 0 3.2 1.6 4.6 7 6.2 2.5.7 5.3 1.7 6.2 2.2 1 .5 2.9.9 4.3.9s2.5.4 2.5 1c0 .5 1.4 1 3 1 1.7 0 3 .4 3 1s-2.9 1-6.6 1c-7.3 0-9.4 1.2-9.4 5.4 0 2.2.4 2.6 3 2.6 1.7 0 3 .4 3 1 0 .5 1.8 1 4 1 3.8 0 4 .2 4 3 0 2.3.4 3 2 3 1.1 0 2 .4 2 1 0 .5.9 1 2 1 1.7 0 2 .7 2 4 0 2.2.5 4 1 4 1.7 0 1.1 3-.7 3.7-2.9 1.1-4.3 3-4.3 5.7 0 1.7-.6 2.6-1.5 2.6s-2.7 1.1-4 2.5c-1.9 1.8-2.5 3.5-2.5 7 0 3.8-.3 4.5-2 4.5-1.1 0-2 .4-2 1 0 .5-.7 1-1.6 1-2.3 0-4.4 2.5-4.4 5.4 0 2.1-.5 2.6-2.5 2.6-2.8 0-7.5 4-7.5 6.4 0 1.1-1.4 1.6-5.7 1.8-5.8.3-5.8.3-6.1 3.7-.4 4.4-2.2 6.1-6.6 6.1-2 0-3.6.4-3.6.9s-.9 1.1-2 1.4c-1.5.4-2 1.4-2 3.7 0 4.1 2 6 6.4 6 2 0 3.6.4 3.6 1 0 .5 2.2 1 4.9 1s6.2.5 7.7 1c1.9.8 3 .8 3.8 0 .5-.5 4.3-1 8.3-1 4.2 0 7.3-.4 7.3-1s2.3-1 5-1c2.8 0 5-.5 5-1 0-.6 1.8-1 4-1s4-.5 4-1c0-.6 1.4-1 3-1 1.7 0 3-.5 3-1 0-.6 1.5-1 3.4-1s3.8-.5 4.1-1c.3-.6 1.5-1 2.6-1 1 0 1.9-.5 1.9-1 0-.6 1.4-1 3-1 1.7 0 3-.5 3-1 0-.6.9-1 2-1s2-.5 2-1c0-.6 1.4-1 3-1 1.7 0 3-.5 3-1 0-.6.9-1 2-1s2-.5 2-1c0-.6.8-1 1.8-1s2.4-.9 3.2-2c.8-1.1 2-2 2.8-2 1.5 0 6.2-4.5 6.2-6 0-.5 1.4-2.4 3-4.2 1.7-1.7 3-3.7 3-4.4 0-.8.4-1.4.8-1.4.5 0 1.5-2.3 2.2-5 .7-2.8 1.7-5 2.2-5 .4 0 .8-1.8.8-4s.5-4 1-4c.6 0 1-4.7 1-12s-.4-12-1-12c-.5 0-1-.9-1-2s-.4-2-1-2c-.5 0-1-.7-1-1.6 0-.8-1.8-3.3-4-5.4-2.2-2.1-4-4.3-4-4.8s-1.2-1.8-2.7-2.8c-1.6-1-4.5-3.5-6.5-5.6-2-2.1-4.3-3.8-5-3.8-.7 0-2-.9-2.8-2-.8-1.1-2.1-2-3-2-.9 0-2.2-.9-3-2-.8-1.1-2.2-2-3.2-2s-1.8-.5-1.8-1c0-.6-.6-1-1.3-1-.7 0-2.3-.9-3.5-2-1.2-1.1-2.8-2-3.7-2-.8 0-1.5-.5-1.5-1 0-.6-.9-1-1.9-1-1.1 0-2.1-.3-2.3-.8-.4-1-8.7-5.2-10.4-5.2-.8 0-1.4-.5-1.4-1 0-.6-.9-1-2-1s-2-.5-2-1c0-.6-.9-1-2-1s-2-.5-2-1c0-.6-1.3-1-3-1-1.6 0-3-.5-3-1 0-.6-1.8-1-4-1s-4-.5-4-1c0-.6-1.5-1-3.4-1s-3.8-.5-4.1-1c-.3-.6-3-1-6-1s-5.7-.5-6-1c-1-1.7-2.5-1.1-2.5 1zm190 36c0 2.2.5 4 1 4 .6 0 1 .9 1 2s.5 2 1 2c.6 0 1 .9 1 2s.5 2 1 2c.6 0 1 1.3 1 3 0 1.6.5 3 1 3 .6 0 1 1.3 1 3 0 1.6.5 3 1 3 .6 0 1 1.8 1 4s.5 4 1 4c1.4 0 1.3 6.3-.2 9.7-1.4 3.3-6.5 11-9 13.7-1.9 2.1-2.5 6.6-.8 6.6.6 0 1 1.9 1 4.3 0 3.3-.7 5.1-3 7.7-1.6 1.9-2.9 3.9-3 4.4 0 1.2-5.2 5.6-6.7 5.6-.6 0-1.3.3-1.5.7-.4 1-5.7 4.2-8 5-1 .3-1.8.9-1.8 1.4 0 .5-1.3.9-3 .9-1.6 0-3 .4-3 .9s-.9 1.1-2 1.4c-1.5.4-2 1.4-2 4.1 0 2.9.4 3.6 2 3.6 1.1 0 2 .4 2 1 0 .5 1.8 1 4 1s4-.5 4-1c0-.6.9-1 2-1s2-.5 2-1c0-.6.8-1 1.8-1s2.4-.9 3.2-2c.8-1.1 2.1-2 2.8-2 .8 0 2.7-1.4 4.2-3 1.5-1.7 3.3-3 4-3 .6 0 2.9-1.8 5-4 3.7-3.8 4.1-4 10-4 4 0 6.6-.5 7.6-1.4 1.6-1.7 1.9-6.6.4-6.6-1.8 0-1.1-3.5 1-5 1.1-.8 2-2 2-2.7 0-.7 1.8-3.2 4-5.4 3.7-3.9 5.4-8.9 3-8.9-.5 0-1-.7-1-1.6 0-.9-1.3-2.9-3-4.4-2.5-2.3-3-3.6-3-7.3 0-2.5-.4-4.9-1-5.2-.5-.3-1-2.6-1-5s-.4-4.7-1-5c-.5-.3-1-1.4-1-2.5 0-2.3-4-10-6.2-12.1-1-.9-1.8-2.2-1.8-2.8 0-2.3-8.9-10.1-11.5-10.1-2.3 0-2.5.4-2.5 4z"/><path d="M242 323c0 1.6.5 3 1 3 .6 0 1 .6 1 1.3 0 1.8 2.4 6.7 3.3 6.7.4 0 .7.9.7 2s.5 2 1 2c.6 0 1 .9 1 2s.5 2 1 2c.6 0 1 3.2 1 7.5v7.5l-5 5.1c-3.2 3.3-5 6-5 7.5 0 1.3.5 2.4 1 2.4.6 0 1 2.1 1 4.6 0 4.5-1.6 7.4-4.1 7.4-.6 0-1.9.8-2.8 1.8-.9.9-2.8 2.3-4.3 3.1-1.6.8-2.8 1.8-2.8 2.3 0 .4-3.1.8-6.9.8-5.2 0-7.2.4-8.2 1.7-1.1 1.3-1.1 1.7-.1 2 .6.3 1.2 1.1 1.2 1.9 0 2 4.5 6.4 6.5 6.4.8 0 1.5.4 1.5 1 0 .5.9 1 2 1s2-.5 2-1c0-.6 1.1-1 2.5-1s3.5-.9 4.7-2c1.2-1.1 2.8-2 3.5-2 .7 0 1.3-.5 1.3-1 0-.6.8-1 1.8-1s2.4-.9 3.2-2c.8-1.1 2.1-2 2.8-2 .8 0 2.7-1.4 4.2-3 1.5-1.7 3.5-3 4.4-3 .9 0 1.6-.5 1.6-1 0-.6 1.6-1 3.5-1 2.5 0 4.4-.8 6.2-2.6 2.4-2.4 2.5-2.9 1.5-5.8-1.8-4.8-1.5-6.5 1.6-9.5 3.7-3.6 5.2-6.5 5.2-10.2 0-3.1-1.9-5.9-4-5.9-.6 0-2.2-1.1-3.5-2.5-1.9-1.8-2.5-3.5-2.5-7 0-2.5-.4-4.5-1-4.5-.5 0-1-.9-1-2s-.4-2-1-2c-.5 0-1-.6-1-1.4 0-.8-2.5-4-5.6-7-5-5.1-5.9-5.6-10-5.6-4.2 0-4.4.1-4.4 3z"/><path d="M220 338c0 2.2.5 4 1 4 .6 0 1 1.3 1 3 0 1.6.5 3 1 3 1.8 0 1 3.1-1.5 5.5-1.3 1.4-3.1 2.5-4 2.5-.8 0-1.5.9-1.5 2s-.4 2-1 2c-.5 0-1 1.3-1 3 0 1.6.5 3 1 3 1.5 0 1.2 4.9-.4 6.6-2.2 2.1-2.6 1.7-2.6-2.6 0-2.2-.4-4-1-4-.5 0-1-.9-1-2s.5-2 1-2c.6 0 1-.7 1-1.6 0-.9 1.4-2.9 3-4.4 1.8-1.7 3-3.8 3-5.4 0-2.5-.2-2.6-6.5-2.6-6.4 0-6.7.1-11 4.4-4.4 4.3-4.5 4.5-4.5 11 0 3.7.4 6.6 1 6.6s1 1.1 1 2.4c0 2.7 3.3 5.6 6.2 5.6 1 0 1.8.4 1.8 1 0 .5-.4 1-1 1-1.5 0-1.2 4.9.4 6.6 1.6 1.6 8.6 1.9 8.6.4 0-.6.7-1 1.6-1 .9 0 2.9-1.4 4.4-3 1.5-1.7 3.5-3 4.4-3 .9 0 1.6-.5 1.6-1 0-.6 2.3-1 5-1h5v-4c0-2.2.5-4 1-4 .6 0 1-1.1 1-2.5 0-1.6 1.3-3.9 3.4-6 1.9-1.9 3.7-4.3 4.1-5.5.3-1.1 1.1-2 1.6-2s.9-1.8.9-4v-4h-6.6c-6.7 0-9.4-1.3-9.4-4.4 0-.9-.4-1.6-1-1.6-.5 0-1-.9-1-2 0-1.7-.7-2-4-2-2.2 0-4-.5-4-1 0-.6-.4-1-1-1-.5 0-1 1.8-1 4zm-10 39c0 .5-.4 1-1 1-.5 0-1-.5-1-1 0-.6.5-1 1-1 .6 0 1 .4 1 1z"/></g><path d="M358.1 28.6c0 1.1.3 1.4.6.6.3-.7.2-1.6-.1-1.9-.3-.4-.6.2-.5 1.3zM368.2 43c0 1.4.2 1.9.5 1.2.2-.6.2-1.8 0-2.5-.3-.6-.5-.1-.5 1.3zm-55 20.5c0 1.6.2 2.2.5 1.2.2-.9.2-2.3 0-3-.3-.6-.5.1-.5 1.8zm18.9-.9c0 1.1.3 1.4.6.6.3-.7.2-1.6-.1-1.9-.3-.4-.6.2-.5 1.3zm1.1 6.4c0 1.4.2 1.9.5 1.2.2-.6.2-1.8 0-2.5-.3-.6-.5-.1-.5 1.3zm76.9-.4c0 1.1.3 1.4.6.6.3-.7.2-1.6-.1-1.9-.3-.4-.6.2-.5 1.3zm-56.8 8.9c0 2.7.2 3.8.4 2.2.2-1.5.2-3.7 0-5-.2-1.2-.4 0-.4 2.8zm54.9-2.5c0 1.4.2 1.9.5 1.2.2-.6.2-1.8 0-2.5-.3-.6-.5-.1-.5 1.3zm-152.9 6.7c2.6.2 6.8.2 9.5 0 2.6-.2.4-.3-4.8-.3s-7.4.1-4.7.3zM432.2 83c0 1.4.2 1.9.5 1.2.2-.6.2-1.8 0-2.5-.3-.6-.5-.1-.5 1.3zm-45.1 3.6c0 1.1.3 1.4.6.6.3-.7.2-1.6-.1-1.9-.3-.4-.6.2-.5 1.3zm15.6 2.5c.3 2.4.7 4.6.9 4.8.9 1 .3-6.5-.5-7.8-.6-1-.8.1-.4 3zm-170.9-1.4c.6.2 1.8.2 2.5 0 .6-.3.1-.5-1.3-.5-1.4 0-1.9.2-1.2.5zm144 1c.6.2 1.8.2 2.5 0 .6-.3.1-.5-1.3-.5-1.4 0-1.9.2-1.2.5zM280.3 97c0 4.7.2 6.6.4 4.2.2-2.3.2-6.1 0-8.5-.2-2.3-.4-.4-.4 4.3zm134.9 0c0 1.4.2 1.9.5 1.2.2-.6.2-1.8 0-2.5-.3-.6-.5-.1-.5 1.3zm-34.9 4c0 2.5.2 3.5.4 2.2.2-1.2.2-3.2 0-4.5-.2-1.2-.4-.2-.4 2.3zm46.9 1c0 1.9.2 2.7.5 1.7.2-.9.2-2.5 0-3.5-.3-.9-.5-.1-.5 1.8zm-183.4 4.7c.6.2 1.8.2 2.5 0 .6-.3.1-.5-1.3-.5-1.4 0-1.9.2-1.2.5zm15.5 6.3c0 2.5.2 3.5.4 2.2.2-1.2.2-3.2 0-4.5-.2-1.2-.4-.2-.4 2.3zm18.8-2.4c0 1.1.3 1.4.6.6.3-.7.2-1.6-.1-1.9-.3-.4-.6.2-.5 1.3zm7 2c0 1.1.3 1.4.6.6.3-.7.2-1.6-.1-1.9-.3-.4-.6.2-.5 1.3zm121.1.4c0 1.4.2 1.9.5 1.2.2-.6.2-1.8 0-2.5-.3-.6-.5-.1-.5 1.3zm-130.1 3.6c0 1.1.3 1.4.6.6.3-.7.2-1.6-.1-1.9-.3-.4-.6.2-.5 1.3zm150.1.4c0 1.4.2 1.9.5 1.2.2-.6.2-1.8 0-2.5-.3-.6-.5-.1-.5 1.3zm-152.1 5.6c0 1.1.3 1.4.6.6.3-.7.2-1.6-.1-1.9-.3-.4-.6.2-.5 1.3zm60 0c0 1.1.3 1.4.6.6.3-.7.2-1.6-.1-1.9-.3-.4-.6.2-.5 1.3zm19 2c0 1.1.3 1.4.6.6.3-.7.2-1.6-.1-1.9-.3-.4-.6.2-.5 1.3zm-35.9 2.4c0 1.4.2 1.9.5 1.2.2-.6.2-1.8 0-2.5-.3-.6-.5-.1-.5 1.3zm-45.1 1.6c0 1.1.3 1.4.6.6.3-.7.2-1.6-.1-1.9-.3-.4-.6.2-.5 1.3zm5 0c0 1.1.3 1.4.6.6.3-.7.2-1.6-.1-1.9-.3-.4-.6.2-.5 1.3zm55 0c0 1.1.3 1.4.6.6.3-.7.2-1.6-.1-1.9-.3-.4-.6.2-.5 1.3zm90 0c0 1.1.3 1.4.6.6.3-.7.2-1.6-.1-1.9-.3-.4-.6.2-.5 1.3zm-215.3 1.1c2.3.2 6.1.2 8.5 0 2.3-.2.4-.4-4.3-.4s-6.6.2-4.2.4zm144.5 2.8c0 2.2.2 3 .4 1.7.2-1.2.2-3 0-4-.3-.9-.5.1-.4 2.3zm-35.9 7c0 4.9.1 7.1.3 4.8.2-2.3.2-6.4 0-9-.2-2.6-.3-.8-.3 4.2zm52.8-6.5c0 1.4.2 1.9.5 1.2.2-.6.2-1.8 0-2.5-.3-.6-.5-.1-.5 1.3zm-117.1 1.6c0 1.1.3 1.4.6.6.3-.7.2-1.6-.1-1.9-.3-.4-.6.2-.5 1.3zm19 0c0 1.1.3 1.4.6.6.3-.7.2-1.6-.1-1.9-.3-.4-.6.2-.5 1.3zm5.2 2.9c0 2.7.2 3.8.4 2.2.2-1.5.2-3.7 0-5-.2-1.2-.4 0-.4 2.8zm55.1 5.5c0 5.8.1 8.1.3 5.2.2-2.8.2-7.6 0-10.5-.2-2.8-.3-.5-.3 5.3zm115.7-8.4c0 1.1.3 1.4.6.6.3-.7.2-1.6-.1-1.9-.3-.4-.6.2-.5 1.3zm-148 2c0 1.1.3 1.4.6.6.3-.7.2-1.6-.1-1.9-.3-.4-.6.2-.5 1.3zm308.2-.9c4.2.2 11.2.2 15.5 0 4.2-.1.7-.3-7.8-.3s-12 .2-7.7.3zm-392 1c.9.2 2.5.2 3.5 0 .9-.3.1-.5-1.8-.5-1.9 0-2.7.2-1.7.5zm152 4.3c0 2.5.2 3.5.4 2.2.2-1.2.2-3.2 0-4.5-.2-1.2-.4-.2-.4 2.3zm38.9-2c0 1.4.2 1.9.5 1.2.2-.6.2-1.8 0-2.5-.3-.6-.5-.1-.5 1.3zm13 0c0 1.4.2 1.9.5 1.2.2-.6.2-1.8 0-2.5-.3-.6-.5-.1-.5 1.3zm-169 2.5c0 1.6.2 2.2.5 1.2.2-.9.2-2.3 0-3-.3-.6-.5.1-.5 1.8zm100.1 4.5c0 4.1.2 5.8.4 3.7.2-2 .2-5.4 0-7.5-.2-2-.4-.3-.4 3.8zm94.9-4.5c0 1.6.2 2.2.5 1.2.2-.9.2-2.3 0-3-.3-.6-.5.1-.5 1.8zm-147.9 6c0 3.8.2 5.3.4 3.2.2-2 .2-5.2 0-7-.2-1.7-.4-.1-.4 3.8zm82.9-3.5c0 1.9.2 2.7.5 1.7.2-.9.2-2.5 0-3.5-.3-.9-.5-.1-.5 1.8zm15.1 2c0 3 .2 4.3.4 2.7.2-1.5.2-3.9 0-5.5-.2-1.5-.4-.2-.4 2.8zm9 2c0 3 .2 4.3.4 2.7.2-1.5.2-3.9 0-5.5-.2-1.5-.4-.2-.4 2.8zm12.9-3c0 1.4.2 1.9.5 1.2.2-.6.2-1.8 0-2.5-.3-.6-.5-.1-.5 1.3zm-176.1 1.6c0 1.1.3 1.4.6.6.3-.7.2-1.6-.1-1.9-.3-.4-.6.2-.5 1.3zm7.2 3.9c0 2.2.2 3 .4 1.7.2-1.2.2-3 0-4-.3-.9-.5.1-.4 2.3zm16.9-.5c0 1.9.2 2.7.5 1.7.2-.9.2-2.5 0-3.5-.3-.9-.5-.1-.5 1.8zm165 0c0 1.9.2 2.7.5 1.7.2-.9.2-2.5 0-3.5-.3-.9-.5-.1-.5 1.8zm13.2 6.5c0 5.5.1 7.6.3 4.7.2-2.9.2-7.4 0-10-.2-2.6-.3-.2-.3 5.3zm190.4-7.8c.7.3 1.6.2 1.9-.1.4-.3-.2-.6-1.3-.5-1.1 0-1.4.3-.6.6zM185.2 153c0 1.4.2 1.9.5 1.2.2-.6.2-1.8 0-2.5-.3-.6-.5-.1-.5 1.3zm41.1 5c0 4.1.2 5.8.4 3.7.2-2 .2-5.4 0-7.5-.2-2-.4-.3-.4 3.8zm151-3c0 2.5.2 3.5.4 2.2.2-1.2.2-3.2 0-4.5-.2-1.2-.4-.2-.4 2.3zm37 3c0 4.1.2 5.8.4 3.7.2-2 .2-5.4 0-7.5-.2-2-.4-.3-.4 3.8zm55.8-5.4c0 1.1.3 1.4.6.6.3-.7.2-1.6-.1-1.9-.3-.4-.6.2-.5 1.3zm-314.3 1.1c.6.2 1.8.2 2.5 0 .6-.3.1-.5-1.3-.5-1.4 0-1.9.2-1.2.5zm57.4 1.3c0 1.4.2 1.9.5 1.2.2-.6.2-1.8 0-2.5-.3-.6-.5-.1-.5 1.3zm49.1 5c0 3 .2 4.3.4 2.7.2-1.5.2-3.9 0-5.5-.2-1.5-.4-.2-.4 2.8zm138.9-3c0 1.4.2 1.9.5 1.2.2-.6.2-1.8 0-2.5-.3-.6-.5-.1-.5 1.3zm52 0c0 1.4.2 1.9.5 1.2.2-.6.2-1.8 0-2.5-.3-.6-.5-.1-.5 1.3zm-219.9 4c0 2.5.2 3.5.4 2.2.2-1.2.2-3.2 0-4.5-.2-1.2-.4-.2-.4 2.3zm159 1.5c0 3.3.2 4.5.4 2.7.2-1.8.2-4.5 0-6s-.4 0-.4 3.3zm34.8-3.9c0 1.1.3 1.4.6.6.3-.7.2-1.6-.1-1.9-.3-.4-.6.2-.5 1.3zm41.3 8.9c0 6 .1 8.4.3 5.2.2-3.2.2-8.1 0-11-.2-2.9-.3-.3-.3 5.8zm25.8-8c0 1.6.2 2.2.5 1.2.2-.9.2-2.3 0-3-.3-.6-.5.1-.5 1.8zm-309 2.5c0 1.9.2 2.7.5 1.7.2-.9.2-2.5 0-3.5-.3-.9-.5-.1-.5 1.8zm60.2 9.5c0 7.1.1 9.9.3 6.2.2-3.7.2-9.6 0-13-.2-3.4-.3-.4-.3 6.8zm19.7-10.9c0 1.1.3 1.4.6.6.3-.7.2-1.6-.1-1.9-.3-.4-.6.2-.5 1.3zm101.2 1.9c0 2.2.2 3 .4 1.7.2-1.2.2-3 0-4-.3-.9-.5.1-.4 2.3zm261.5-1.8c.6.2 1.8.2 2.5 0 .6-.3.1-.5-1.3-.5-1.4 0-1.9.2-1.2.5zM451.2 163c0 1.4.2 1.9.5 1.2.2-.6.2-1.8 0-2.5-.3-.6-.5-.1-.5 1.3zm-348.1 1.6c0 1.1.3 1.4.6.6.3-.7.2-1.6-.1-1.9-.3-.4-.6.2-.5 1.3zm38 0c0 1.1.3 1.4.6.6.3-.7.2-1.6-.1-1.9-.3-.4-.6.2-.5 1.3zm101.1 1.4c0 1.9.2 2.7.5 1.7.2-.9.2-2.5 0-3.5-.3-.9-.5-.1-.5 1.8zm102.9-1.4c0 1.1.3 1.4.6.6.3-.7.2-1.6-.1-1.9-.3-.4-.6.2-.5 1.3zm-219 2c0 1.1.3 1.4.6.6.3-.7.2-1.6-.1-1.9-.3-.4-.6.2-.5 1.3zm243 0c0 1.1.3 1.4.6.6.3-.7.2-1.6-.1-1.9-.3-.4-.6.2-.5 1.3zm108 0c0 1.1.3 1.4.6.6.3-.7.2-1.6-.1-1.9-.3-.4-.6.2-.5 1.3zm15.2 4.4c0 3.6.2 5 .4 3.2.2-1.7.2-4.7 0-6.5-.2-1.7-.4-.3-.4 3.3zm-261.1-2c0 1.4.2 1.9.5 1.2.2-.6.2-1.8 0-2.5-.3-.6-.5-.1-.5 1.3zm164 0c0 1.4.2 1.9.5 1.2.2-.6.2-1.8 0-2.5-.3-.6-.5-.1-.5 1.3zm53.9-.3c-.1 1.2-.7 2.4-1.3 2.6-1 .4-1 .6 0 .6 1.5.1 2.6-2.3 1.9-4.1-.3-.7-.6-.3-.6.9zm-343.9 2.8c0 1.6.2 2.2.5 1.2.2-.9.2-2.3 0-3-.3-.6-.5.1-.5 1.8zm155.1 2.5c0 3 .2 4.3.4 2.7.2-1.5.2-3.9 0-5.5-.2-1.5-.4-.2-.4 2.8zm-130-2.3c.9.2 2.5.2 3.5 0 .9-.3.1-.5-1.8-.5-1.9 0-2.7.2-1.7.5zm138.9 2.3c0 1.9.2 2.7.5 1.7.2-.9.2-2.5 0-3.5-.3-.9-.5-.1-.5 1.8zm206 0c0 1.9.2 2.7.5 1.7.2-.9.2-2.5 0-3.5-.3-.9-.5-.1-.5 1.8zm-127.1 2.7c.1 1 .5 2.9.9 4.3.7 2.1.8 1.9.9-1.8.1-2.3-.3-4.2-.9-4.2-.5 0-1 .8-.9 1.7zm-196.3 1c.6.2 1.8.2 2.5 0 .6-.3.1-.5-1.3-.5-1.4 0-1.9.2-1.2.5zm454 0c.6.2 1.8.2 2.5 0 .6-.3.1-.5-1.3-.5-1.4 0-1.9.2-1.2.5zm-405.5 1c2 .2 5.4.2 7.5 0 2-.2.3-.4-3.8-.4s-5.8.2-3.7.4zM93.4 197.5c0 7.1.1 9.9.3 6.2.2-3.7.2-9.6 0-13-.2-3.4-.3-.4-.3 6.8zm85-10c.1 1.3.8 2 2.4 2.1 1.7.1 1.8.1.3-.3-1.1-.2-2.2-1.2-2.4-2.1-.3-1.2-.4-1.1-.3.3zm68.7 1.1c0 1.1.3 1.4.6.6.3-.7.2-1.6-.1-1.9-.3-.4-.6.2-.5 1.3zm98.2 2.9c0 2.7.2 3.8.4 2.2.2-1.5.2-3.7 0-5-.2-1.2-.4 0-.4 2.8zm46.8 2.7c.1 8.5.6 8 1.1-1 .3-3.4.1-6.2-.4-6.2-.4 0-.8 3.3-.7 7.2zm126.6 2.5c.6 13.5 1.1 13.9 1.2 1 .1-5.9-.3-10.7-.8-10.7-.4 0-.6 4.4-.4 9.7zm-395.9-6c1.2.2 3.2.2 4.5 0 1.2-.2.2-.4-2.3-.4s-3.5.2-2.2.4zm95 0c.6.2 1.8.2 2.5 0 .6-.3.1-.5-1.3-.5-1.4 0-1.9.2-1.2.5zm384 0c.6.2 1.8.2 2.5 0 .6-.3.1-.5-1.3-.5-1.4 0-1.9.2-1.2.5zM298.2 193c0 1.4.2 1.9.5 1.2.2-.6.2-1.8 0-2.5-.3-.6-.5-.1-.5 1.3zm7 2.5c0 1.6.2 2.2.5 1.2.2-.9.2-2.3 0-3-.3-.6-.5.1-.5 1.8zm61.1 1.5c0 2.5.2 3.5.4 2.2.2-1.2.2-3.2 0-4.5-.2-1.2-.4-.2-.4 2.3zm79.9-1.5c0 1.6.2 2.2.5 1.2.2-.9.2-2.3 0-3-.3-.6-.5.1-.5 1.8zm26.1 2c0 2.7.2 3.8.4 2.2.2-1.5.2-3.7 0-5-.2-1.2-.4 0-.4 2.8zm-346.5-1.8c1.7.2 4.7.2 6.5 0 1.7-.2.3-.4-3.3-.4-3.6 0-5 .2-3.2.4zm390.3.9c0 1.1.3 1.4.6.6.3-.7.2-1.6-.1-1.9-.3-.4-.6.2-.5 1.3zm-376.3.1c.6.2 1.8.2 2.5 0 .6-.3.1-.5-1.3-.5-1.4 0-1.9.2-1.2.5zm200.4 2.8c0 1.6.2 2.2.5 1.2.2-.9.2-2.3 0-3-.3-.6-.5.1-.5 1.8zm-39.9 3.5c0 2.5.2 3.5.4 2.2.2-1.2.2-3.2 0-4.5-.2-1.2-.4-.2-.4 2.3zm176.8-2.4c0 1.1.3 1.4.6.6.3-.7.2-1.6-.1-1.9-.3-.4-.6.2-.5 1.3zm19 2c0 1.1.3 1.4.6.6.3-.7.2-1.6-.1-1.9-.3-.4-.6.2-.5 1.3zm-182.3.1c.6.2 1.8.2 2.5 0 .6-.3.1-.5-1.3-.5-1.4 0-1.9.2-1.2.5zm-37.6 3.3c0 1.9.2 2.7.5 1.7.2-.9.2-2.5 0-3.5-.3-.9-.5-.1-.5 1.8zm-72 1.5c0 1.6.2 2.2.5 1.2.2-.9.2-2.3 0-3-.3-.6-.5.1-.5 1.8zm138-.5c0 1.4.2 1.9.5 1.2.2-.6.2-1.8 0-2.5-.3-.6-.5-.1-.5 1.3zm-21.1 1.6c0 1.1.3 1.4.6.6.3-.7.2-1.6-.1-1.9-.3-.4-.6.2-.5 1.3zm-61.9 2.4c0 1.4.2 1.9.5 1.2.2-.6.2-1.8 0-2.5-.3-.6-.5-.1-.5 1.3zm43 0c0 1.4.2 1.9.5 1.2.2-.6.2-1.8 0-2.5-.3-.6-.5-.1-.5 1.3zm-46 2.5c0 1.6.2 2.2.5 1.2.2-.9.2-2.3 0-3-.3-.6-.5.1-.5 1.8zm265 0c0 1.6.2 2.2.5 1.2.2-.9.2-2.3 0-3-.3-.6-.5.1-.5 1.8zm-242.9 3c0 2.2.2 3 .4 1.7.2-1.2.2-3 0-4-.3-.9-.5.1-.4 2.3zm-17 7.5c0 4.1.2 5.8.4 3.7.2-2 .2-5.4 0-7.5-.2-2-.4-.3-.4 3.8zm240.8-5.4c0 1.1.3 1.4.6.6.3-.7.2-1.6-.1-1.9-.3-.4-.6.2-.5 1.3zm-243.8 8.9c0 3.8.2 5.3.4 3.2.2-2 .2-5.2 0-7-.2-1.7-.4-.1-.4 3.8zm22 4c0 3.8.2 5.3.4 3.2.2-2 .2-5.2 0-7-.2-1.7-.4-.1-.4 3.8zm-129-4.8c1.5.2 3.9.2 5.5 0 1.5-.2.2-.4-2.8-.4s-4.3.2-2.7.4zm22.5 0c1.7.2 4.7.2 6.5 0 1.7-.2.3-.4-3.3-.4-3.6 0-5 .2-3.2.4zm-30 5c.6.2 1.8.2 2.5 0 .6-.3.1-.5-1.3-.5-1.4 0-1.9.2-1.2.5zm451 0c1.2.2 3.2.2 4.5 0 1.2-.2.2-.4-2.3-.4s-3.5.2-2.2.4zm-158 1c1.2.2 3.2.2 4.5 0 1.2-.2.2-.4-2.3-.4s-3.5.2-2.2.4zm-215 6c6.1.2 16.3.2 22.5 0 6.1-.1 1.1-.3-11.3-.3s-17.4.2-11.2.3zm-24 5c.6.2 1.8.2 2.5 0 .6-.3.1-.5-1.3-.5-1.4 0-1.9.2-1.2.5zm14.5 0c.9.2 2.5.2 3.5 0 .9-.3.1-.5-1.8-.5-1.9 0-2.7.2-1.7.5zm35.5 0c.6.2 1.8.2 2.5 0 .6-.3.1-.5-1.3-.5-1.4 0-1.9.2-1.2.5zm30.3.9c0 1.1.3 1.4.6.6.3-.7.2-1.6-.1-1.9-.3-.4-.6.2-.5 1.3zm332.1 2.4c0 1.4.2 1.9.5 1.2.2-.6.2-1.8 0-2.5-.3-.6-.5-.1-.5 1.3zm-379.9 11.5c0 2.2.2 3 .4 1.7.2-1.2.2-3 0-4-.3-.9-.5.1-.4 2.3zm3 6c0 2.2.2 3 .4 1.7.2-1.2.2-3 0-4-.3-.9-.5.1-.4 2.3zm268.5-2.8c.6.2 1.8.2 2.5 0 .6-.3.1-.5-1.3-.5-1.4 0-1.9.2-1.2.5zm-171 1c1.2.2 3.2.2 4.5 0 1.2-.2.2-.4-2.3-.4s-3.5.2-2.2.4zm100.5 6.8c0 2.7.2 3.8.4 2.2.2-1.5.2-3.7 0-5-.2-1.2-.4 0-.4 2.8zm-41.5-1.8c.6.2 1.8.2 2.5 0 .6-.3.1-.5-1.3-.5-1.4 0-1.9.2-1.2.5zm132 0c.6.2 1.8.2 2.5 0 .6-.3.1-.5-1.3-.5-1.4 0-1.9.2-1.2.5zm58 1c.6.2 1.8.2 2.5 0 .6-.3.1-.5-1.3-.5-1.4 0-1.9.2-1.2.5zm-192.6 2.8c0 1.6.2 2.2.5 1.2.2-.9.2-2.3 0-3-.3-.6-.5.1-.5 1.8zm-135.1 3.1c0 1.1.3 1.4.6.6.3-.7.2-1.6-.1-1.9-.3-.4-.6.2-.5 1.3zm290.2-.9c.9.2 2.5.2 3.5 0 .9-.3.1-.5-1.8-.5-1.9 0-2.7.2-1.7.5zm-70.5 1c.6.2 1.8.2 2.5 0 .6-.3.1-.5-1.3-.5-1.4 0-1.9.2-1.2.5zm131 0c1.2.2 3.2.2 4.5 0 1.2-.2.2-.4-2.3-.4s-3.5.2-2.2.4zM429.2 279c0 1.4.2 1.9.5 1.2.2-.6.2-1.8 0-2.5-.3-.6-.5-.1-.5 1.3zm-321.4.7c.6.2 1.8.2 2.5 0 .6-.3.1-.5-1.3-.5-1.4 0-1.9.2-1.2.5zm452 0c.6.2 1.8.2 2.5 0 .6-.3.1-.5-1.3-.5-1.4 0-1.9.2-1.2.5zm-70 1c.6.2 1.8.2 2.5 0 .6-.3.1-.5-1.3-.5-1.4 0-1.9.2-1.2.5zm-58.6 6.3c0 1.4.2 1.9.5 1.2.2-.6.2-1.8 0-2.5-.3-.6-.5-.1-.5 1.3zm148.6-1.3c.6.2 1.8.2 2.5 0 .6-.3.1-.5-1.3-.5-1.4 0-1.9.2-1.2.5zm-74 1c.6.2 1.8.2 2.5 0 .6-.3.1-.5-1.3-.5-1.4 0-1.9.2-1.2.5zm-190.5 7.8c0 2.2.2 3 .4 1.7.2-1.2.2-3 0-4-.3-.9-.5.1-.4 2.3zm280.5-2.8c.6.2 1.8.2 2.5 0 .6-.3.1-.5-1.3-.5-1.4 0-1.9.2-1.2.5zm-34 1c.6.2 1.8.2 2.5 0 .6-.3.1-.5-1.3-.5-1.4 0-1.9.2-1.2.5zM287.2 300c0 1.9.2 2.7.5 1.7.2-.9.2-2.5 0-3.5-.3-.9-.5-.1-.5 1.8zm221.6-2.3c1.2.2 3.2.2 4.5 0 1.2-.2.2-.4-2.3-.4s-3.5.2-2.2.4zm-42.7 4.9c0 1.1.3 1.4.6.6.3-.7.2-1.6-.1-1.9-.3-.4-.6.2-.5 1.3zm-34 6c0 1.1.3 1.4.6.6.3-.7.2-1.6-.1-1.9-.3-.4-.6.2-.5 1.3zm36.3 14.4c0 9.1.2 12.8.3 8.2.2-4.5.2-11.9 0-16.5-.1-4.5-.3-.8-.3 8.3zm-197.2-11c0 1.9.2 2.7.5 1.7.2-.9.2-2.5 0-3.5-.3-.9-.5-.1-.5 1.8zm144 15.6c-.1 10.5-.5 22-.8 25.5-.5 4.8-.4 6.1.5 5.3.8-.7 1.1-8 .8-25.5-.2-24-.2-24.1-.5-5.3zM91.2 313c0 1.4.2 1.9.5 1.2.2-.6.2-1.8 0-2.5-.3-.6-.5-.1-.5 1.3zm358.1 3c0 3 .2 4.3.4 2.7.2-1.5.2-3.9 0-5.5-.2-1.5-.4-.2-.4 2.8zm38 3c0 4.7.2 6.6.4 4.2.2-2.3.2-6.1 0-8.5-.2-2.3-.4-.4-.4 4.3zm67.9-6c0 1.4.2 1.9.5 1.2.2-.6.2-1.8 0-2.5-.3-.6-.5-.1-.5 1.3zm-120.8 13.5c0 7.7.2 10.7.3 6.7.2-4 .2-10.3 0-14-.2-3.7-.3-.4-.3 7.3zm47.9-9.5c0 2.5.2 3.5.4 2.2.2-1.2.2-3.2 0-4.5-.2-1.2-.4-.2-.4 2.3zm50 1.5c0 3.3.2 4.5.4 2.7.2-1.8.2-4.5 0-6s-.4 0-.4 3.3zm-36-.3c.1 2.6.7 3.3 2.5 3.4 1.7.1 1.8.1.3-.3-1.2-.3-2.2-1.5-2.5-3.4-.6-2.8-.6-2.7-.3.3zm-25 6.3c0 3.3.2 4.5.4 2.7.2-1.8.2-4.5 0-6s-.4 0-.4 3.3zm-230.2-1.9c0 1.1.3 1.4.6.6.3-.7.2-1.6-.1-1.9-.3-.4-.6.2-.5 1.3zm-133.3.1c.6.2 1.8.2 2.5 0 .6-.3.1-.5-1.3-.5-1.4 0-1.9.2-1.2.5zm169.3 3.9c0 1.1.3 1.4.6.6.3-.7.2-1.6-.1-1.9-.3-.4-.6.2-.5 1.3zm172 2c0 1.1.3 1.4.6.6.3-.7.2-1.6-.1-1.9-.3-.4-.6.2-.5 1.3zm167.7-.9c1.2.2 3.2.2 4.5 0 1.2-.2.2-.4-2.3-.4s-3.5.2-2.2.4zm-11 1c.7.3 1.6.2 1.9-.1.4-.3-.2-.6-1.3-.5-1.1 0-1.4.3-.6.6zM101.2 331c0 1.4.2 1.9.5 1.2.2-.6.2-1.8 0-2.5-.3-.6-.5-.1-.5 1.3zm381 0c0 1.4.2 1.9.5 1.2.2-.6.2-1.8 0-2.5-.3-.6-.5-.1-.5 1.3zm-203.1 1.6c0 1.1.3 1.4.6.6.3-.7.2-1.6-.1-1.9-.3-.4-.6.2-.5 1.3zm47 0c0 1.1.3 1.4.6.6.3-.7.2-1.6-.1-1.9-.3-.4-.6.2-.5 1.3zm121 2c0 1.1.3 1.4.6.6.3-.7.2-1.6-.1-1.9-.3-.4-.6.2-.5 1.3zm183.3 7.4c0 5.2.1 7.4.3 4.7.2-2.6.2-6.8 0-9.5-.2-2.6-.3-.4-.3 4.8zm-526.6-7.3c.6.2 1.8.2 2.5 0 .6-.3.1-.5-1.3-.5-1.4 0-1.9.2-1.2.5zm115.4 2.8c0 1.6.2 2.2.5 1.2.2-.9.2-2.3 0-3-.3-.6-.5.1-.5 1.8zm185-.5c0 1.4.2 1.9.5 1.2.2-.6.2-1.8 0-2.5-.3-.6-.5-.1-.5 1.3zm-123 2.5c0 1.6.2 2.2.5 1.2.2-.9.2-2.3 0-3-.3-.6-.5.1-.5 1.8zm15 .5c0 1.9.2 2.7.5 1.7.2-.9.2-2.5 0-3.5-.3-.9-.5-.1-.5 1.8zm32.1 2.5c0 3.3.2 4.5.4 2.7.2-1.8.2-4.5 0-6s-.4 0-.4 3.3zm-136 .5c0 2.5.2 3.5.4 2.2.2-1.2.2-3.2 0-4.5-.2-1.2-.4-.2-.4 2.3zm74-.5c0 2.2.2 3 .4 1.7.2-1.2.2-3 0-4-.3-.9-.5.1-.4 2.3zm263.5-2.8c1.7.2 4.7.2 6.5 0 1.7-.2.3-.4-3.3-.4-3.6 0-5 .2-3.2.4zm-23.5 1c.9.2 2.5.2 3.5 0 .9-.3.1-.5-1.8-.5-1.9 0-2.7.2-1.7.5zm64.5 0c1.2.2 3.2.2 4.5 0 1.2-.2.2-.4-2.3-.4s-3.5.2-2.2.4zm-349.7 3.9c0 1.1.3 1.4.6.6.3-.7.2-1.6-.1-1.9-.3-.4-.6.2-.5 1.3zm30.2 5.4c0 4.1.2 5.8.4 3.7.2-2 .2-5.4 0-7.5-.2-2-.4-.3-.4 3.8zm61.8-5.4c0 1.1.3 1.4.6.6.3-.7.2-1.6-.1-1.9-.3-.4-.6.2-.5 1.3zm76.2 3.9c0 3.3.2 4.5.4 2.7.2-1.8.2-4.5 0-6s-.4 0-.4 3.3zm84.9-3c0 1.6.2 2.2.5 1.2.2-.9.2-2.3 0-3-.3-.6-.5.1-.5 1.8zm-236.4.2c1.7.2 4.7.2 6.5 0 1.7-.2.3-.4-3.3-.4-3.6 0-5 .2-3.2.4zm45.4 2.3c0 1.9.2 2.7.5 1.7.2-.9.2-2.5 0-3.5-.3-.9-.5-.1-.5 1.8zm183 12.2c.1 12.3.2 14 .8 8.8 1.2-10 1.1-24 0-24-.6 0-.9 5.6-.8 15.2zm106.6-14.5c1.2.2 3.2.2 4.5 0 1.2-.2.2-.4-2.3-.4s-3.5.2-2.2.4zm-324.6 3.8c0 1.6.2 2.2.5 1.2.2-.9.2-2.3 0-3-.3-.6-.5.1-.5 1.8zm50.1 1c0 2.2.2 3 .4 1.7.2-1.2.2-3 0-4-.3-.9-.5.1-.4 2.3zm-80.2.1c0 1.1.3 1.4.6.6.3-.7.2-1.6-.1-1.9-.3-.4-.6.2-.5 1.3zm97.2 5.4c0 4.1.2 5.8.4 3.7.2-2 .2-5.4 0-7.5-.2-2-.4-.3-.4 3.8zm-123-.5c0 2.7.2 3.8.4 2.2.2-1.5.2-3.7 0-5-.2-1.2-.4 0-.4 2.8zm353-2.8c1.5.2 3.9.2 5.5 0 1.5-.2.2-.4-2.8-.4s-4.3.2-2.7.4zm-69 3.8c0 2.2.2 3 .4 1.7.2-1.2.2-3 0-4-.3-.9-.5.1-.4 2.3zm-200.1 1c0 1.6.2 2.2.5 1.2.2-.9.2-2.3 0-3-.3-.6-.5.1-.5 1.8zm72.9-.9c0 1.1.3 1.4.6.6.3-.7.2-1.6-.1-1.9-.3-.4-.6.2-.5 1.3zm168.1 1.4c0 1.9.2 2.7.5 1.7.2-.9.2-2.5 0-3.5-.3-.9-.5-.1-.5 1.8zm-321.9 5c0 3.6.2 5 .4 3.2.2-1.7.2-4.7 0-6.5-.2-1.7-.4-.3-.4 3.3zm-76.2-2.3c-.1 1.2-.7 2.4-1.3 2.6-1 .4-1 .6 0 .6 1.5.1 2.6-2.3 1.9-4.1-.3-.7-.6-.3-.6.9zm94 1.9c0 1.1.3 1.4.6.6.3-.7.2-1.6-.1-1.9-.3-.4-.6.2-.5 1.3zm131.1.4c0 1.4.2 1.9.5 1.2.2-.6.2-1.8 0-2.5-.3-.6-.5-.1-.5 1.3zm6-.4c-.7.8-.8 1.4-.3 1.4 1 0 2.5-1.9 2-2.5-.2-.1-1 .3-1.7 1.1zm-160 3.4c0 1.9.2 2.7.5 1.7.2-.9.2-2.5 0-3.5-.3-.9-.5-.1-.5 1.8zm48 1c0 1.4.2 1.9.5 1.2.2-.6.2-1.8 0-2.5-.3-.6-.5-.1-.5 1.3zm240 0c0 1.4.2 1.9.5 1.2.2-.6.2-1.8 0-2.5-.3-.6-.5-.1-.5 1.3zm-266 2.5c0 1.6.2 2.2.5 1.2.2-.9.2-2.3 0-3-.3-.6-.5.1-.5 1.8zm2.9-.9c0 1.1.3 1.4.6.6.3-.7.2-1.6-.1-1.9-.3-.4-.6.2-.5 1.3zm254.1.4c0 1.4.2 1.9.5 1.2.2-.6.2-1.8 0-2.5-.3-.6-.5-.1-.5 1.3zm-358 3c0 1.9.2 2.7.5 1.7.2-.9.2-2.5 0-3.5-.3-.9-.5-.1-.5 1.8zm336 0c0 1.9.2 2.7.5 1.7.2-.9.2-2.5 0-3.5-.3-.9-.5-.1-.5 1.8zm-179 1c0 1.4.2 1.9.5 1.2.2-.6.2-1.8 0-2.5-.3-.6-.5-.1-.5 1.3zm-32 1c0 1.4.2 1.9.5 1.2.2-.6.2-1.8 0-2.5-.3-.6-.5-.1-.5 1.3zm7.1 3c0 2.5.2 3.5.4 2.2.2-1.2.2-3.2 0-4.5-.2-1.2-.4-.2-.4 2.3zm29.9 1c0 1.9.2 2.7.5 1.7.2-.9.2-2.5 0-3.5-.3-.9-.5-.1-.5 1.8zm28 0c0 1.9.2 2.7.5 1.7.2-.9.2-2.5 0-3.5-.3-.9-.5-.1-.5 1.8zm170-1c0 1.4.2 1.9.5 1.2.2-.6.2-1.8 0-2.5-.3-.6-.5-.1-.5 1.3zm-136.8.4c-.3.8-.4 2.1-.1 2.8.3.7.6.3.6-1 .1-1.2.5-2.2 1-2.2s1.2 1 1.4 2.2c.5 2.1.5 2.1.4-.1-.2-2.8-2.4-4-3.3-1.7zm195.4-.7c.6.2 1.8.2 2.5 0 .6-.3.1-.5-1.3-.5-1.4 0-1.9.2-1.2.5zm-326.7 5.9c0 1.1.3 1.4.6.6.3-.7.2-1.6-.1-1.9-.3-.4-.6.2-.5 1.3zm212 0c0 1.1.3 1.4.6.6.3-.7.2-1.6-.1-1.9-.3-.4-.6.2-.5 1.3zm-37.8.1c.9.2 2.3.2 3 0 .6-.3-.1-.5-1.8-.5-1.6 0-2.2.2-1.2.5zm-276.2 2c-.1 1.4-.9 2.3-2.3 2.6l-2.3.4 2.3.2c2.4.1 3.8-1.9 2.9-4.1-.3-.7-.6-.3-.6.9zm349.1.3c0 1.4.2 1.9.5 1.2.2-.6.2-1.8 0-2.5-.3-.6-.5-.1-.5 1.3zm-116.1 1.6c0 1.1.3 1.4.6.6.3-.7.2-1.6-.1-1.9-.3-.4-.6.2-.5 1.3zm42.2 2.9c0 2.7.2 3.8.4 2.2.2-1.5.2-3.7 0-5-.2-1.2-.4 0-.4 2.8zm-80.2-.9c0 1.1.3 1.4.6.6.3-.7.2-1.6-.1-1.9-.3-.4-.6.2-.5 1.3zm87.2 1.9c0 2.2.2 3 .4 1.7.2-1.2.2-3 0-4-.3-.9-.5.1-.4 2.3zm26.8-1.9c0 1.1.3 1.4.6.6.3-.7.2-1.6-.1-1.9-.3-.4-.6.2-.5 1.3zm3.1 1.4c0 1.9.2 2.7.5 1.7.2-.9.2-2.5 0-3.5-.3-.9-.5-.1-.5 1.8zm61.3-2c.3.5.8 1 1.1 1 .2 0 .4-.5.4-1 0-.6-.5-1-1.1-1-.5 0-.7.4-.4 1zm-266.2.7c.9.2 2.5.2 3.5 0 .9-.3.1-.5-1.8-.5-1.9 0-2.7.2-1.7.5zm296 5c2 .2 5.4.2 7.5 0 2-.2.3-.4-3.8-.4s-5.8.2-3.7.4zm-219.5 1c1.8.2 4.5.2 6 0s0-.4-3.3-.4-4.5.2-2.7.4zm126.4 2.3c0 1.4.2 1.9.5 1.2.2-.6.2-1.8 0-2.5-.3-.6-.5-.1-.5 1.3zm22.9 1.6c0 1.1.3 1.4.6.6.3-.7.2-1.6-.1-1.9-.3-.4-.6.2-.5 1.3zm-355 2c0 1.1.3 1.4.6.6.3-.7.2-1.6-.1-1.9-.3-.4-.6.2-.5 1.3zm458.7-.9c.6.2 1.8.2 2.5 0 .6-.3.1-.5-1.3-.5-1.4 0-1.9.2-1.2.5zm-173.5 1c.9.2 2.5.2 3.5 0 .9-.3.1-.5-1.8-.5-1.9 0-2.7.2-1.7.5zm-292 5c.9.2 2.5.2 3.5 0 .9-.3.1-.5-1.8-.5-1.9 0-2.7.2-1.7.5zm209.5 0c.6.2 1.8.2 2.5 0 .6-.3.1-.5-1.3-.5-1.4 0-1.9.2-1.2.5zm150.3.9c0 1.1.3 1.4.6.6.3-.7.2-1.6-.1-1.9-.3-.4-.6.2-.5 1.3zm86.2-.9c.9.2 2.3.2 3 0 .6-.3-.1-.5-1.8-.5-1.6 0-2.2.2-1.2.5zm-279.2 4.9c0 1.1.3 1.4.6.6.3-.7.2-1.6-.1-1.9-.3-.4-.6.2-.5 1.3zm-174 2c0 1.1.3 1.4.6.6.3-.7.2-1.6-.1-1.9-.3-.4-.6.2-.5 1.3zm421.2 4.4c0 3.6.2 5 .4 3.2.2-1.7.2-4.7 0-6.5-.2-1.7-.4-.3-.4 3.3zm-17 5c0 4.1.2 5.8.4 3.7.2-2 .2-5.4 0-7.5-.2-2-.4-.3-.4 3.8zm33.8-3.4c0 1.1.3 1.4.6.6.3-.7.2-1.6-.1-1.9-.3-.4-.6.2-.5 1.3zm-432.8.1c.9.2 2.5.2 3.5 0 .9-.3.1-.5-1.8-.5-1.9 0-2.7.2-1.7.5zm40 0c.9.2 2.5.2 3.5 0 .9-.3.1-.5-1.8-.5-1.9 0-2.7.2-1.7.5zm166 6c.9.2 2.5.2 3.5 0 .9-.3.1-.5-1.8-.5-1.9 0-2.7.2-1.7.5zm223 5c2.6.2 6.8.2 9.5 0 2.6-.2.4-.3-4.8-.3s-7.4.1-4.7.3zM285.2 439c0 1.4.2 1.9.5 1.2.2-.6.2-1.8 0-2.5-.3-.6-.5-.1-.5 1.3zm20.6 3.7c.6.2 1.8.2 2.5 0 .6-.3.1-.5-1.3-.5-1.4 0-1.9.2-1.2.5zm191 6c3.4.2 9 .2 12.5 0 3.4-.2.6-.3-6.3-.3-6.9 0-9.7.1-6.2.3zm-156.5 6c.9.2 2.5.2 3.5 0 .9-.3.1-.5-1.8-.5-1.9 0-2.7.2-1.7.5z" fill="#FFF" fill-opacity=".25"/><path d="M394.9 71.7c-1.3 1.6-1.2 1.7.4.4.9-.7 1.7-1.5 1.7-1.7 0-.8-.8-.3-2.1 1.3zm214 276c-1.3 1.6-1.2 1.7.4.4 1.6-1.3 2.1-2.1 1.3-2.1-.2 0-1 .8-1.7 1.7zm-56 54c-1.3 1.6-1.2 1.7.4.4.9-.7 1.7-1.5 1.7-1.7 0-.8-.8-.3-2.1 1.3z" fill="#FFF" fill-opacity=".07"/><path d="M396.5 173c-.3.5-.1 1 .4 1 .6 0 1.1-.5 1.1-1 0-.6-.2-1-.4-1-.3 0-.8.4-1.1 1zM208 377c0 .5.5 1 1 1 .6 0 1-.5 1-1 0-.6-.4-1-1-1-.5 0-1 .4-1 1z" fill="#FFF" fill-opacity=".44"/><path d="M320.3 74.7c.9.2 2.5.2 3.5 0 .9-.3.1-.5-1.8-.5-1.9 0-2.7.2-1.7.5zm19.5 6c.6.2 1.8.2 2.5 0 .6-.3.1-.5-1.3-.5-1.4 0-1.9.2-1.2.5zm16 4c.6.2 1.8.2 2.5 0 .6-.3.1-.5-1.3-.5-1.4 0-1.9.2-1.2.5zm36.5 8c.9.2 2.5.2 3.5 0 .9-.3.1-.5-1.8-.5-1.9 0-2.7.2-1.7.5zm-142 12c.9.2 2.5.2 3.5 0 .9-.3.1-.5-1.8-.5-1.9 0-2.7.2-1.7.5zm-14.5 4c.6.2 1.8.2 2.5 0 .6-.3.1-.5-1.3-.5-1.4 0-1.9.2-1.2.5zm-6 2c.6.2 1.8.2 2.5 0 .6-.3.1-.5-1.3-.5-1.4 0-1.9.2-1.2.5zm-12 4c.7.3 1.6.2 1.9-.1.4-.3-.2-.6-1.3-.5-1.1 0-1.4.3-.6.6zm26.2 41.7c0 .8.4 1.7.9 2 .5.4.7-.3.4-1.4-.6-2.3-1.3-2.6-1.3-.6zm-92.2 8.3c.6.2 1.8.2 2.5 0 .6-.3.1-.5-1.3-.5-1.4 0-1.9.2-1.2.5zm468 10c.6.2 1.8.2 2.5 0 .6-.3.1-.5-1.3-.5-1.4 0-1.9.2-1.2.5zm-9 2c1.2.2 3.2.2 4.5 0 1.2-.2.2-.4-2.3-.4s-3.5.2-2.2.4zm-1 12c.6.2 1.8.2 2.5 0 .6-.3.1-.5-1.3-.5-1.4 0-1.9.2-1.2.5zm-402.5 4c1.5.2 3.9.2 5.5 0 1.5-.2.2-.4-2.8-.4s-4.3.2-2.7.4zm240.5 0c.6.2 1.8.2 2.5 0 .6-.3.1-.5-1.3-.5-1.4 0-1.9.2-1.2.5zm52 6c.6.2 1.8.2 2.5 0 .6-.3.1-.5-1.3-.5-1.4 0-1.9.2-1.2.5zm-344 2c1.7.2 4.7.2 6.5 0 1.7-.2.3-.4-3.3-.4-3.6 0-5 .2-3.2.4zm152 0c.6.2 1.8.2 2.5 0 .6-.3.1-.5-1.3-.5-1.4 0-1.9.2-1.2.5zm-133.5 6c2 .2 5.4.2 7.5 0 2-.2.3-.4-3.8-.4s-5.8.2-3.7.4zm-52 10c.9.2 2.5.2 3.5 0 .9-.3.1-.5-1.8-.5-1.9 0-2.7.2-1.7.5zm16 6c.9.2 2.5.2 3.5 0 .9-.3.1-.5-1.8-.5-1.9 0-2.7.2-1.7.5zm24.5 6c1.2.2 3.2.2 4.5 0 1.2-.2.2-.4-2.3-.4s-3.5.2-2.2.4zm317.5 0c.9.2 2.5.2 3.5 0 .9-.3.1-.5-1.8-.5-1.9 0-2.7.2-1.7.5zm-66.5 12c.6.2 1.8.2 2.5 0 .6-.3.1-.5-1.3-.5-1.4 0-1.9.2-1.2.5zm-23 8c1.2.2 3.2.2 4.5 0 1.2-.2.2-.4-2.3-.4s-3.5.2-2.2.4zm-24 10c1.2.2 3.2.2 4.5 0 1.2-.2.2-.4-2.3-.4s-3.5.2-2.2.4zm-189 12c.6.2 1.8.2 2.5 0 .6-.3.1-.5-1.3-.5-1.4 0-1.9.2-1.2.5zm6 2c.6.2 1.8.2 2.5 0 .6-.3.1-.5-1.3-.5-1.4 0-1.9.2-1.2.5zm278.5 0c.9.2 2.5.2 3.5 0 .9-.3.1-.5-1.8-.5-1.9 0-2.7.2-1.7.5zm131.5 0c.6.2 1.8.2 2.5 0 .6-.3.1-.5-1.3-.5-1.4 0-1.9.2-1.2.5zm-116 4c.6.2 1.8.2 2.5 0 .6-.3.1-.5-1.3-.5-1.4 0-1.9.2-1.2.5zm139.5 0c1.5.2 3.9.2 5.5 0 1.5-.2.2-.4-2.8-.4s-4.3.2-2.7.4zm-133.5 2c.6.2 1.8.2 2.5 0 .6-.3.1-.5-1.3-.5-1.4 0-1.9.2-1.2.5zm12 4c.6.2 1.8.2 2.5 0 .6-.3.1-.5-1.3-.5-1.4 0-1.9.2-1.2.5zm-269.5 6c.9.2 2.5.2 3.5 0 .9-.3.1-.5-1.8-.5-1.9 0-2.7.2-1.7.5zm11.5 0c.6.2 1.8.2 2.5 0 .6-.3.1-.5-1.3-.5-1.4 0-1.9.2-1.2.5zm280 0c3.9.2 10.5.2 14.5 0 3.9-.1.7-.3-7.3-.3s-11.2.2-7.2.3zm27 0c1.2.2 3.2.2 4.5 0 1.2-.2.2-.4-2.3-.4s-3.5.2-2.2.4zm9 2c.6.2 1.8.2 2.5 0 .6-.3.1-.5-1.3-.5-1.4 0-1.9.2-1.2.5zm14 4c.6.2 1.8.2 2.5 0 .6-.3.1-.5-1.3-.5-1.4 0-1.9.2-1.2.5zm10.5 20c.9.2 2.5.2 3.5 0 .9-.3.1-.5-1.8-.5-1.9 0-2.7.2-1.7.5zm-16.5 6c.6.2 1.8.2 2.5 0 .6-.3.1-.5-1.3-.5-1.4 0-1.9.2-1.2.5zm23.5 12c1.5.2 3.9.2 5.5 0 1.5-.2.2-.4-2.8-.4s-4.3.2-2.7.4zm-475.5 4c.6.2 1.8.2 2.5 0 .6-.3.1-.5-1.3-.5-1.4 0-1.9.2-1.2.5zm388 2c.6.2 1.8.2 2.5 0 .6-.3.1-.5-1.3-.5-1.4 0-1.9.2-1.2.5zm18 0c.6.2 1.8.2 2.5 0 .6-.3.1-.5-1.3-.5-1.4 0-1.9.2-1.2.5zm-20 16c.6.2 1.8.2 2.5 0 .6-.3.1-.5-1.3-.5-1.4 0-1.9.2-1.2.5zm79.5 6c1.5.2 3.9.2 5.5 0 1.5-.2.2-.4-2.8-.4s-4.3.2-2.7.4zm-19 12c.9.2 2.5.2 3.5 0 .9-.3.1-.5-1.8-.5-1.9 0-2.7.2-1.7.5zm-327.5 6c1.2.2 3.2.2 4.5 0 1.2-.2.2-.4-2.3-.4s-3.5.2-2.2.4zm323.5 6c.9.2 2.5.2 3.5 0 .9-.3.1-.5-1.8-.5-1.9 0-2.7.2-1.7.5zm-292 2c.9.2 2.5.2 3.5 0 .9-.3.1-.5-1.8-.5-1.9 0-2.7.2-1.7.5zm180.5 4c1.2.2 3.2.2 4.5 0 1.2-.2.2-.4-2.3-.4s-3.5.2-2.2.4zm-120.5 8c.9.2 2.5.2 3.5 0 .9-.3.1-.5-1.8-.5-1.9 0-2.7.2-1.7.5zm171.5 4c.6.2 1.8.2 2.5 0 .6-.3.1-.5-1.3-.5-1.4 0-1.9.2-1.2.5zm-336 2c.6.2 1.8.2 2.5 0 .6-.3.1-.5-1.3-.5-1.4 0-1.9.2-1.2.5zm74 0c.6.2 1.8.2 2.5 0 .6-.3.1-.5-1.3-.5-1.4 0-1.9.2-1.2.5zm272 0c2.8.2 7.6.2 10.5 0 2.8-.2.5-.3-5.3-.3s-8.1.1-5.2.3zm-356 4c.6.2 1.8.2 2.5 0 .6-.3.1-.5-1.3-.5-1.4 0-1.9.2-1.2.5zm-18 6c.6.2 1.8.2 2.5 0 .6-.3.1-.5-1.3-.5-1.4 0-1.9.2-1.2.5zm-7.5 2c.9.2 2.3.2 3 0 .6-.3-.1-.5-1.8-.5-1.6 0-2.2.2-1.2.5zm126 0c.9.2 2.5.2 3.5 0 .9-.3.1-.5-1.8-.5-1.9 0-2.7.2-1.7.5zm-167.5 4c1.2.2 3.2.2 4.5 0 1.2-.2.2-.4-2.3-.4s-3.5.2-2.2.4zm19 0c1.7.2 4.7.2 6.5 0 1.7-.2.3-.4-3.3-.4-3.6 0-5 .2-3.2.4zm194.5 24c2 .2 5.4.2 7.5 0 2-.2.3-.4-3.8-.4s-5.8.2-3.7.4zm225.5 2c.6.2 1.8.2 2.5 0 .6-.3.1-.5-1.3-.5-1.4 0-1.9.2-1.2.5zm-170 6c.6.2 1.8.2 2.5 0 .6-.3.1-.5-1.3-.5-1.4 0-1.9.2-1.2.5zm28.5 10c2 .2 5.4.2 7.5 0 2-.2.3-.4-3.8-.4s-5.8.2-3.7.4z" fill="#FFF" fill-opacity=".25"/><path d="m350.4 37.2-1.9 2.3 2.3-1.9c2.1-1.8 2.7-2.6 1.9-2.6-.2 0-1.2 1-2.3 2.2zm-6 6-1.9 2.3 2.3-1.9c2.1-1.8 2.7-2.6 1.9-2.6-.2 0-1.2 1-2.3 2.2zm41 9.8c0 1.3.4 1.6 1 1 .7-.7.7-1.3 0-2-.6-.6-1-.3-1 1zm-25 2.2-1.9 2.3 2.3-1.9c1.2-1.1 2.2-2.1 2.2-2.3 0-.8-.8-.2-2.6 1.9zm-4 6-1.9 2.3 2.3-1.9c2.1-1.8 2.7-2.6 1.9-2.6-.2 0-1.2 1-2.3 2.2zm24 0-1.9 2.3 2.3-1.9c2.1-1.8 2.7-2.6 1.9-2.6-.2 0-1.2 1-2.3 2.2zm-6 6-1.9 2.3 2.3-1.9c2.1-1.8 2.7-2.6 1.9-2.6-.2 0-1.2 1-2.3 2.2zM316.5 73c1 1.1 2 2 2.3 2 .3 0-.3-.9-1.3-2s-2-2-2.3-2c-.3 0 .3.9 1.3 2zm9.9.2-1.9 2.3 2.3-1.9c1.2-1.1 2.2-2.1 2.2-2.3 0-.8-.8-.2-2.6 1.9zm10.1 5.8c1 1.1 2 2 2.3 2 .3 0-.3-.9-1.3-2s-2-2-2.3-2c-.3 0 .3.9 1.3 2zm47.9 6.2-1.9 2.3 2.3-1.9c2.1-1.8 2.7-2.6 1.9-2.6-.2 0-1.2 1-2.3 2.2zm4.1 5.8c1 1.1 2 2 2.3 2 .3 0-.3-.9-1.3-2s-2-2-2.3-2c-.3 0 .3.9 1.3 2zm9.9.2-1.9 2.3 2.3-1.9c2.1-1.8 2.7-2.6 1.9-2.6-.2 0-1.2 1-2.3 2.2zm6.1 5.8c1 1.1 2 2 2.3 2 .3 0-.3-.9-1.3-2s-2-2-2.3-2c-.3 0 .3.9 1.3 2zm5.9.2-1.9 2.3 2.3-1.9c1.2-1.1 2.2-2.1 2.2-2.3 0-.8-.8-.2-2.6 1.9zm230 48-1.9 2.3 2.3-1.9c1.2-1.1 2.2-2.1 2.2-2.3 0-.8-.8-.2-2.6 1.9zm-2.9 8.6c.4.8-.1 2.3-1.1 3.5-1.8 2.2-1.8 2.2.6 0 2-1.9 2.2-2.5 1.1-3.5-1.1-1.1-1.3-1-.6 0zm-509.1 9.4-1.9 2.3 2.3-1.9c2.1-1.8 2.7-2.6 1.9-2.6-.2 0-1.2 1-2.3 2.2zm64.1 11.8c1 1.1 2 2 2.3 2 .3 0-.3-.9-1.3-2s-2-2-2.3-2c-.3 0 .3.9 1.3 2zm25.9.2-1.9 2.3 2.3-1.9c2.1-1.8 2.7-2.6 1.9-2.6-.2 0-1.2 1-2.3 2.2zm90 6-1.9 2.3 2.3-1.9c1.2-1.1 2.2-2.1 2.2-2.3 0-.8-.8-.2-2.6 1.9zm306 6-1.9 2.3 2.3-1.9c1.2-1.1 2.2-2.1 2.2-2.3 0-.8-.8-.2-2.6 1.9zM248.5 193c1 1.1 2 2 2.3 2 .3 0-.3-.9-1.3-2s-2-2-2.3-2c-.3 0 .3.9 1.3 2zm150 0c1 1.1 2 2 2.3 2 .3 0-.3-.9-1.3-2s-2-2-2.3-2c-.3 0 .3.9 1.3 2zm30 0c1 1.1 2 2 2.3 2 .3 0-.3-.9-1.3-2s-2-2-2.3-2c-.3 0 .3.9 1.3 2zm-260 12c1 1.1 2 2 2.3 2 .3 0-.3-.9-1.3-2s-2-2-2.3-2c-.3 0 .3.9 1.3 2zm110 0c1 1.1 2 2 2.3 2 .3 0-.3-.9-1.3-2s-2-2-2.3-2c-.3 0 .3.9 1.3 2zm40 0c1 1.1 2 2 2.3 2 .3 0-.3-.9-1.3-2s-2-2-2.3-2c-.3 0 .3.9 1.3 2zm38 6c1 1.1 2 2 2.3 2 .3 0-.3-.9-1.3-2s-2-2-2.3-2c-.3 0 .3.9 1.3 2zm108 4c1 1.1 2 2 2.3 2 .3 0-.3-.9-1.3-2s-2-2-2.3-2c-.3 0 .3.9 1.3 2zm-337.1 1.2c-.5.7-.3.8.5.4.7-.5 2.2 0 3.4 1.1l2.2 1.8-1.9-2.3c-2.1-2.5-3.2-2.7-4.2-1zm233.1.8c1 1.1 2 2 2.3 2 .3 0-.3-.9-1.3-2s-2-2-2.3-2c-.3 0 .3.9 1.3 2zm26 0c1 1.1 2 2 2.3 2 .3 0-.3-.9-1.3-2s-2-2-2.3-2c-.3 0 .3.9 1.3 2zm28 0c1 1.1 2 2 2.3 2 .3 0-.3-.9-1.3-2s-2-2-2.3-2c-.3 0 .3.9 1.3 2zm72 0c1 1.1 2 2 2.3 2 .3 0-.3-.9-1.3-2s-2-2-2.3-2c-.3 0 .3.9 1.3 2zm-288.1 6.2-1.9 2.3 2.3-1.9c2.1-1.8 2.7-2.6 1.9-2.6-.2 0-1.2 1-2.3 2.2zm222.1-.2c1 1.1 2 2 2.3 2 .3 0-.3-.9-1.3-2s-2-2-2.3-2c-.3 0 .3.9 1.3 2zm26 0c1 1.1 2 2 2.3 2 .3 0-.3-.9-1.3-2s-2-2-2.3-2c-.3 0 .3.9 1.3 2zm24 0c1 1.1 2 2 2.3 2 .3 0-.3-.9-1.3-2s-2-2-2.3-2c-.3 0 .3.9 1.3 2zm29.9.2-1.9 2.3 2.3-1.9c2.1-1.8 2.7-2.6 1.9-2.6-.2 0-1.2 1-2.3 2.2zM332.5 229c1 1.1 2 2 2.3 2 .3 0-.3-.9-1.3-2s-2-2-2.3-2c-.3 0 .3.9 1.3 2zm64 0c1 1.1 2 2 2.3 2 .3 0-.3-.9-1.3-2s-2-2-2.3-2c-.3 0 .3.9 1.3 2zm56 0c1 1.1 2 2 2.3 2 .3 0-.3-.9-1.3-2s-2-2-2.3-2c-.3 0 .3.9 1.3 2zm-344 6c1 1.1 2 2 2.3 2 .3 0-.3-.9-1.3-2s-2-2-2.3-2c-.3 0 .3.9 1.3 2zm96 0c1 1.1 2 2 2.3 2 .3 0-.3-.9-1.3-2s-2-2-2.3-2c-.3 0 .3.9 1.3 2zm170 0c1 1.1 2 2 2.3 2 .3 0-.3-.9-1.3-2s-2-2-2.3-2c-.3 0 .3.9 1.3 2zm156 0c1 1.1 2 2 2.3 2 .3 0-.3-.9-1.3-2s-2-2-2.3-2c-.3 0 .3.9 1.3 2zm-228 6c1 1.1 2 2 2.3 2 .3 0-.3-.9-1.3-2s-2-2-2.3-2c-.3 0 .3.9 1.3 2zm40 0c1 1.1 2 2 2.3 2 .3 0-.3-.9-1.3-2s-2-2-2.3-2c-.3 0 .3.9 1.3 2zm38 0c1 1.1 2 2 2.3 2 .3 0-.3-.9-1.3-2s-2-2-2.3-2c-.3 0 .3.9 1.3 2zm156 0c1 1.1 2 2 2.3 2 .3 0-.3-.9-1.3-2s-2-2-2.3-2c-.3 0 .3.9 1.3 2zm63.9.2-1.9 2.3 2.3-1.9c1.2-1.1 2.2-2.1 2.2-2.3 0-.8-.8-.2-2.6 1.9zM308.5 247c1 1.1 2 2 2.3 2 .3 0-.3-.9-1.3-2s-2-2-2.3-2c-.3 0 .3.9 1.3 2zm40 0c1 1.1 2 2 2.3 2 .3 0-.3-.9-1.3-2s-2-2-2.3-2c-.3 0 .3.9 1.3 2zm38 0c1 1.1 2 2 2.3 2 .3 0-.3-.9-1.3-2s-2-2-2.3-2c-.3 0 .3.9 1.3 2zm-112.1 6.2-1.9 2.3 2.3-1.9c2.1-1.8 2.7-2.6 1.9-2.6-.2 0-1.2 1-2.3 2.2zm40.1-.2c1 1.1 2 2 2.3 2 .3 0-.3-.9-1.3-2s-2-2-2.3-2c-.3 0 .3.9 1.3 2zm40 0c1 1.1 2 2 2.3 2 .3 0-.3-.9-1.3-2s-2-2-2.3-2c-.3 0 .3.9 1.3 2zm-138 6c1 1.1 2 2 2.3 2 .3 0-.3-.9-1.3-2s-2-2-2.3-2c-.3 0 .3.9 1.3 2zm401.9.2-1.9 2.3 2.3-1.9c1.2-1.1 2.2-2.1 2.2-2.3 0-.8-.8-.2-2.6 1.9zm-390 6-1.9 2.3 2.3-1.9c2.1-1.8 2.7-2.6 1.9-2.6-.2 0-1.2 1-2.3 2.2zm20 18-1.9 2.3 2.3-1.9c1.2-1.1 2.2-2.1 2.2-2.3 0-.8-.8-.2-2.6 1.9zm144.1-.2c1 1.1 2 2 2.3 2 .3 0-.3-.9-1.3-2s-2-2-2.3-2c-.3 0 .3.9 1.3 2zm-306 6c1 1.1 2 2 2.3 2 .3 0-.3-.9-1.3-2s-2-2-2.3-2c-.3 0 .3.9 1.3 2zm312 0c1 1.1 2 2 2.3 2 .3 0-.3-.9-1.3-2s-2-2-2.3-2c-.3 0 .3.9 1.3 2zm-46 6c1 1.1 2 2 2.3 2 .3 0-.3-.9-1.3-2s-2-2-2.3-2c-.3 0 .3.9 1.3 2zm52 0c1 1.1 2 2 2.3 2 .3 0-.3-.9-1.3-2s-2-2-2.3-2c-.3 0 .3.9 1.3 2zm-318 6c1 1.1 2 2 2.3 2 .3 0-.3-.9-1.3-2s-2-2-2.3-2c-.3 0 .3.9 1.3 2zm230 0c1 1.1 2 2 2.3 2 .3 0-.3-.9-1.3-2s-2-2-2.3-2c-.3 0 .3.9 1.3 2zm42 0c1 1.1 2 2 2.3 2 .3 0-.3-.9-1.3-2s-2-2-2.3-2c-.3 0 .3.9 1.3 2zm129.9.2-1.9 2.3 2.3-1.9c1.2-1.1 2.2-2.1 2.2-2.3 0-.8-.8-.2-2.6 1.9zm-43.9 5.8c1 1.1 2 2 2.3 2 .3 0-.3-.9-1.3-2s-2-2-2.3-2c-.3 0 .3.9 1.3 2zm141 2.8c.4.8-.1 2.3-1.1 3.5-1.8 2.2-1.8 2.2.6 0 2-1.9 2.2-2.5 1.1-3.5-1.1-1.1-1.3-1-.6 0zm-259 3.2c1 1.1 2 2 2.3 2 .3 0-.3-.9-1.3-2s-2-2-2.3-2c-.3 0 .3.9 1.3 2zm171.9.2-1.9 2.3 2.3-1.9c2.2-1.9 2.2-1.9 4.5 0l2.2 1.9-1.9-2.3c-1.1-1.2-2.2-2.2-2.6-2.2-.4 0-1.5 1-2.6 2.2zM296.5 319c1 1.1 2 2 2.3 2 .3 0-.3-.9-1.3-2s-2-2-2.3-2c-.3 0 .3.9 1.3 2zm262 0c1 1.1 2 2 2.3 2 .3 0-.3-.9-1.3-2s-2-2-2.3-2c-.3 0 .3.9 1.3 2zm-258 6c1 1.1 2 2 2.3 2 .3 0-.3-.9-1.3-2s-2-2-2.3-2c-.3 0 .3.9 1.3 2zm76 0c1 1.1 2 2 2.3 2 .3 0-.3-.9-1.3-2s-2-2-2.3-2c-.3 0 .3.9 1.3 2zm151.9 6.2-1.9 2.3 2.3-1.9c1.2-1.1 2.2-2.1 2.2-2.3 0-.8-.8-.2-2.6 1.9zm66 0-1.9 2.3 2.3-1.9c1.2-1.1 2.2-2.1 2.2-2.3 0-.8-.8-.2-2.6 1.9zm-99.9 5.8c1 1.1 2 2 2.3 2 .3 0-.3-.9-1.3-2s-2-2-2.3-2c-.3 0 .3.9 1.3 2zm-16 6c1 1.1 2 2 2.3 2 .3 0-.3-.9-1.3-2s-2-2-2.3-2c-.3 0 .3.9 1.3 2zm87.9.2-1.9 2.3 2.3-1.9c2.1-1.8 2.7-2.6 1.9-2.6-.2 0-1.2 1-2.3 2.2zm-81.9 5.8c1 1.1 2 2 2.3 2 .3 0-.3-.9-1.3-2s-2-2-2.3-2c-.3 0 .3.9 1.3 2zm105.9 6.2-1.9 2.3 2.3-1.9c1.2-1.1 2.2-2.1 2.2-2.3 0-.8-.8-.2-2.6 1.9zm-348 6-1.9 2.3 2.3-1.9c2.1-1.8 2.7-2.6 1.9-2.6-.2 0-1.2 1-2.3 2.2zm380 0-1.9 2.3 2.3-1.9c2.1-1.8 2.7-2.6 1.9-2.6-.2 0-1.2 1-2.3 2.2zm-56 6-1.9 2.3 2.3-1.9c1.2-1.1 2.2-2.1 2.2-2.3 0-.8-.8-.2-2.6 1.9zm50 0-1.9 2.3 2.3-1.9c1.2-1.1 2.2-2.1 2.2-2.3 0-.8-.8-.2-2.6 1.9zm-68 6-1.9 2.3 2.3-1.9c1.2-1.1 2.2-2.1 2.2-2.3 0-.8-.8-.2-2.6 1.9zm62 0-1.9 2.3 2.3-1.9c2.1-1.8 2.7-2.6 1.9-2.6-.2 0-1.2 1-2.3 2.2zM412.5 379c1 1.1 2 2 2.3 2 .3 0-.3-.9-1.3-2s-2-2-2.3-2c-.3 0 .3.9 1.3 2zm189.9.2-1.9 2.3 2.3-1.9c2.1-1.8 2.7-2.6 1.9-2.6-.2 0-1.2 1-2.3 2.2zm-384 6-1.9 2.3 2.3-1.9c2.1-1.8 2.7-2.6 1.9-2.6-.2 0-1.2 1-2.3 2.2zm48 0-1.9 2.3 2.3-1.9c2.1-1.8 2.7-2.6 1.9-2.6-.2 0-1.2 1-2.3 2.2zm330 0-1.9 2.3 2.3-1.9c1.2-1.1 2.2-2.1 2.2-2.3 0-.8-.8-.2-2.6 1.9zm-344 6-1.9 2.3 2.3-1.9c2.1-1.8 2.7-2.6 1.9-2.6-.2 0-1.2 1-2.3 2.2zm290 0-1.9 2.3 2.3-1.9c2.1-1.8 2.7-2.6 1.9-2.6-.2 0-1.2 1-2.3 2.2zm48 0-1.9 2.3 2.3-1.9c2.1-1.8 2.7-2.6 1.9-2.6-.2 0-1.2 1-2.3 2.2zm-346 6-1.9 2.3 2.3-1.9c2.1-1.8 2.7-2.6 1.9-2.6-.2 0-1.2 1-2.3 2.2zm130 0-1.9 2.3 2.3-1.9c1.2-1.1 2.2-2.1 2.2-2.3 0-.8-.8-.2-2.6 1.9zm108.1-.2c1 1.1 2 2 2.3 2 .3 0-.3-.9-1.3-2s-2-2-2.3-2c-.3 0 .3.9 1.3 2zm-264 6c1 1.1 2 2 2.3 2 .3 0-.3-.9-1.3-2s-2-2-2.3-2c-.3 0 .3.9 1.3 2zm361.9.2-1.9 2.3 2.3-1.9c1.2-1.1 2.2-2.1 2.2-2.3 0-.8-.8-.2-2.6 1.9zm-274 6-1.9 2.3 2.3-1.9c2.1-1.8 2.7-2.6 1.9-2.6-.2 0-1.2 1-2.3 2.2zm50 0-1.9 2.3 2.3-1.9c2.1-1.8 2.7-2.6 1.9-2.6-.2 0-1.2 1-2.3 2.2zm218 0-1.9 2.3 2.3-1.9c1.2-1.1 2.2-2.1 2.2-2.3 0-.8-.8-.2-2.6 1.9zm-224 6-1.9 2.3 2.3-1.9c2.1-1.8 2.7-2.6 1.9-2.6-.2 0-1.2 1-2.3 2.2zm-87.9 5.8c1 1.1 2 2 2.3 2 .3 0-.3-.9-1.3-2s-2-2-2.3-2c-.3 0 .3.9 1.3 2zm81.9.2-1.9 2.3 2.3-1.9c2.1-1.8 2.7-2.6 1.9-2.6-.2 0-1.2 1-2.3 2.2zm80 4-1.9 2.3 2.3-1.9c2.1-1.8 2.7-2.6 1.9-2.6-.2 0-1.2 1-2.3 2.2zm-88 2-1.9 2.3 2.3-1.9c2.1-1.8 2.7-2.6 1.9-2.6-.2 0-1.2 1-2.3 2.2zm218 0-1.9 2.3 2.3-1.9c1.2-1.1 2.2-2.1 2.2-2.3 0-.8-.8-.2-2.6 1.9zm-226 6-1.9 2.3 2.3-1.9c1.2-1.1 2.2-2.1 2.2-2.3 0-.8-.8-.2-2.6 1.9zm52 0-1.9 2.3 2.3-1.9c1.2-1.1 2.2-2.1 2.2-2.3 0-.8-.8-.2-2.6 1.9zm-6 6-1.9 2.3 2.3-1.9c2.1-1.8 2.7-2.6 1.9-2.6-.2 0-1.2 1-2.3 2.2zm40 0-1.9 2.3 2.3-1.9c2.1-1.8 2.7-2.6 1.9-2.6-.2 0-1.2 1-2.3 2.2zm60.1-.2c1 1.1 2 2 2.3 2 .3 0-.3-.9-1.3-2s-2-2-2.3-2c-.3 0 .3.9 1.3 2zm-72.1 12.2-1.9 2.3 2.3-1.9c2.1-1.8 2.7-2.6 1.9-2.6-.2 0-1.2 1-2.3 2.2zm-6 6-1.9 2.3 2.3-1.9c2.1-1.8 2.7-2.6 1.9-2.6-.2 0-1.2 1-2.3 2.2z" fill="#FFF" fill-opacity=".18"/><path d="M625.6 315.7c-.6 1.4-.5 1.5.5.6.7-.7 1-1.5.7-1.8-.3-.3-.9.2-1.2 1.2z" fill="#FFF" fill-opacity=".11"/><path d="M369.4 39c0 1.3.4 1.6 1 1 .7-.7.7-1.3 0-2-.6-.6-1-.3-1 1zm-176 310c0 1.3.4 1.6 1 1 .7-.7.7-1.3 0-2-.6-.6-1-.3-1 1z" fill="#FFF" fill-opacity=".04"/><path d="M458 232.4c.7.7 1.3.7 2 0 .6-.6.3-1-1-1s-1.6.4-1 1z" fill="#FFF" fill-opacity=".02"/><path d="M302.9 372.7c-1.3 1.6-1.2 1.7.4.4.9-.7 1.7-1.5 1.7-1.7 0-.8-.8-.3-2.1 1.3zM475 389.4c0 .2.8 1 1.8 1.7 1.5 1.3 1.6 1.2.3-.4s-2.1-2.1-2.1-1.3zm69.9 19.3c-1.3 1.6-1.2 1.7.4.4 1.6-1.3 2.1-2.1 1.3-2.1-.2 0-1 .8-1.7 1.7z" fill="#FFF" fill-opacity=".38"/><path d="M360 86.4c.7.7 1.3.7 2 0 .6-.6.3-1-1-1s-1.6.4-1 1z" fill="#FFF" fill-opacity=".03"/><path d="M421.4 77c0 1.3.4 1.6 1 1 .7-.7.7-1.3 0-2-.6-.6-1-.3-1 1zm28 50c0 1.3.4 1.6 1 1 .7-.7.7-1.3 0-2-.6-.6-1-.3-1 1z" fill="#FFF" fill-opacity=".08"/><path d="M183.4 156.1c-.3.6-.2 1.5.3 2s.9.1.9-1.1c0-2.3-.2-2.4-1.2-.9z" fill="#FFF" fill-opacity=".03"/><path d="M121.4 346.1c-.3.6-.2 1.5.3 2s.9.1.9-1.1c0-2.3-.2-2.4-1.2-.9z" fill="#FFF" fill-opacity=".01"/><path d="M325.4 83c0 1.3.4 1.6 1 1 .7-.7.7-1.3 0-2-.6-.6-1-.3-1 1z" fill="#FFF" fill-opacity=".13"/><path d="M477.4 139c0 1.3.4 1.6 1 1 .7-.7.7-1.3 0-2-.6-.6-1-.3-1 1z" fill="#FFF" fill-opacity=".09"/><path d="M379.6 363.7c-.6 1.4-.5 1.5.5.6.7-.7 1-1.5.7-1.8-.3-.3-.9.2-1.2 1.2z" fill="#FFF" fill-opacity=".18"/><path d="M269.1 184.6c0 1.1.3 1.4.6.6.3-.7.2-1.6-.1-1.9-.3-.4-.6.2-.5 1.3z" fill="#FFF" fill-opacity=".17"/><path d="M627.6 169.7c-.6 1.4-.5 1.5.5.6.7-.7 1-1.5.7-1.8-.3-.3-.9.2-1.2 1.2z" fill="#FFF" fill-opacity=".14"/></svg>