<svg version="1.0" xmlns="http://www.w3.org/2000/svg" viewBox="0 0 508 564"><path d="M257.3 32.7c4.2.2 11.2.2 15.5 0 4.2-.1.7-.3-7.8-.3s-12 .2-7.7.3zm27.5 0c.6.2 1.8.2 2.5 0 .6-.3.1-.5-1.3-.5-1.4 0-1.9.2-1.2.5zm-59.5 2c4.3.2 11 .2 15 0 4-.1.5-.3-7.8-.3-8.2 0-11.5.2-7.2.3zm82 0c7.1.2 18.3.2 25 0 6.7-.1 1-.3-12.8-.3-13.7 0-19.2.2-12.2.3zm-106.5 2c2.9.2 7.4.2 10 0 2.6-.2.2-.3-5.3-.3s-7.6.1-4.7.3zm152 0c3.4.2 8.8.2 12 0 3.1-.2.3-.3-6.3-.3s-9.2.1-5.7.3zm-172.5 2c2.6.2 6.7.2 9 0s.2-.3-4.8-.3c-4.9 0-6.8.1-4.2.3zm195.5 0c1.8.2 4.5.2 6 0s0-.4-3.3-.4-4.5.2-2.7.4zm-214 2c2.3.2 5.9.2 8 0 2-.2.1-.4-4.3-.4-4.4 0-6.1.2-3.7.4zm225.5 0c1.5.2 3.7.2 5 0 1.2-.2 0-.4-2.8-.4-2.7 0-3.8.2-2.2.4zm-243.5 2c2.3.2 5.9.2 8 0 2-.2.1-.4-4.3-.4-4.4 0-6.1.2-3.7.4zm253 0c1.2.2 3 .2 4 0 .9-.3-.1-.5-2.3-.4-2.2 0-3 .2-1.7.4zm-266 2c1.8.2 4.5.2 6 0s0-.4-3.3-.4-4.5.2-2.7.4zm276 0c1.2.2 3 .2 4 0 .9-.3-.1-.5-2.3-.4-2.2 0-3 .2-1.7.4zm-282 2c.7.3 1.6.2 1.9-.1.4-.3-.2-.6-1.3-.5-1.1 0-1.4.3-.6.6zm289.5 0c.9.2 2.3.2 3 0 .6-.3-.1-.5-1.8-.5-1.6 0-2.2.2-1.2.5zm-293.5 2c.7.3 1.6.2 1.9-.1.4-.3-.2-.6-1.3-.5-1.1 0-1.4.3-.6.6zm301 0c.7.3 1.6.2 1.9-.1.4-.3-.2-.6-1.3-.5-1.1 0-1.4.3-.6.6zm-305 2c.7.3 1.6.2 1.9-.1.4-.3-.2-.6-1.3-.5-1.1 0-1.4.3-.6.6zm309.5 0c.9.2 2.3.2 3 0 .6-.3-.1-.5-1.8-.5-1.6 0-2.2.2-1.2.5zm-313.5 2c.7.3 1.6.2 1.9-.1.4-.3-.2-.6-1.3-.5-1.1 0-1.4.3-.6.6zm319 0c.7.3 1.6.2 1.9-.1.4-.3-.2-.6-1.3-.5-1.1 0-1.4.3-.6.6zM275.5 54l-16 .6 15.7.2c9.6.1 15.9-.2 16.3-.8.3-.6.5-.9.3-.8-.2.1-7.5.5-16.3.8zm55.8.7c2.6.2 6.8.2 9.5 0 2.6-.2.4-.3-4.8-.3s-7.4.1-4.7.3zm104.5 0c.7.3 1.6.2 1.9-.1.4-.3-.2-.6-1.3-.5-1.1 0-1.4.3-.6.6zm-184 2c.6.2 1.8.2 2.5 0 .6-.3.1-.5-1.3-.5-1.4 0-1.9.2-1.2.5zm101.5 0c1.5.2 3.7.2 5 0 1.2-.2 0-.4-2.8-.4-2.7 0-3.8.2-2.2.4zM177.5 58l-8 .6 7.7.2c4.3.1 8-.2 8.3-.8.3-.6.5-.9.3-.8-.2.1-3.9.5-8.3.8zm17.8.7c1.5.2 3.7.2 5 0 1.2-.2 0-.4-2.8-.4-2.7 0-3.8.2-2.2.4zm167.5 0c1.2.2 3 .2 4 0 .9-.3-.1-.5-2.3-.4-2.2 0-3 .2-1.7.4zm-200.5 2c1.5.2 3.7.2 5 0 1.2-.2 0-.4-2.8-.4-2.7 0-3.8.2-2.2.4zm208 0c.9.2 2.3.2 3 0 .6-.3-.1-.5-1.8-.5-1.6 0-2.2.2-1.2.5zm-213.5 2c.7.3 1.6.2 1.9-.1.4-.3-.2-.6-1.3-.5-1.1 0-1.4.3-.6.6zm219.5 0c.9.2 2.3.2 3 0 .6-.3-.1-.5-1.8-.5-1.6 0-2.2.2-1.2.5zm-207.5 8c1.2.2 3 .2 4 0 .9-.3-.1-.5-2.3-.4-2.2 0-3 .2-1.7.4zm190 0c1.8.2 4.5.2 6 0s0-.4-3.3-.4-4.5.2-2.7.4zm-181.9 1.6c.4.4 9 .6 19.2.5l18.4-.3-19.2-.5c-10.6-.3-18.9-.2-18.4.3zm166.9.4c2.3.2 5.9.2 8 0 2-.2.1-.4-4.3-.4-4.4 0-6.1.2-3.7.4zm-101.5 2c13 .2 34.4.2 47.5 0 13-.1 2.3-.2-23.8-.2s-36.8.1-23.7.2zm84.5 0c2.3.2 6.1.2 8.5 0 2.3-.2.4-.4-4.3-.4s-6.6.2-4.2.4zm86 0c.7.3 1.6.2 1.9-.1.4-.3-.2-.6-1.3-.5-1.1 0-1.4.3-.6.6zm-6 4c.7.3 1.6.2 1.9-.1.4-.3-.2-.6-1.3-.5-1.1 0-1.4.3-.6.6zm-275 2c.7.3 1.6.2 1.9-.1.4-.3-.2-.6-1.3-.5-1.1 0-1.4.3-.6.6zm271 0c.7.3 1.6.2 1.9-.1.4-.3-.2-.6-1.3-.5-1.1 0-1.4.3-.6.6zm-266.5 2c.9.2 2.3.2 3 0 .6-.3-.1-.5-1.8-.5-1.6 0-2.2.2-1.2.5zm262.5 0c.7.3 1.6.2 1.9-.1.4-.3-.2-.6-1.3-.5-1.1 0-1.4.3-.6.6zm-256.5 2c.9.2 2.3.2 3 0 .6-.3-.1-.5-1.8-.5-1.6 0-2.2.2-1.2.5zm249 0c.9.2 2.3.2 3 0 .6-.3-.1-.5-1.8-.5-1.6 0-2.2.2-1.2.5zm-242.5 2c1.2.2 3 .2 4 0 .9-.3-.1-.5-2.3-.4-2.2 0-3 .2-1.7.4zm235 0c1.2.2 3 .2 4 0 .9-.3-.1-.5-2.3-.4-2.2 0-3 .2-1.7.4zm-226.5 2c1.5.2 3.7.2 5 0 1.2-.2 0-.4-2.8-.4-2.7 0-3.8.2-2.2.4zm212.5 0c2.3.2 5.9.2 8 0 2-.2.1-.4-4.3-.4-4.4 0-6.1.2-3.7.4zm-182.5 2c12.6.2 32.8.2 45 0 12.2-.1 2-.2-22.8-.2-24.7 0-34.7.1-22.2.2zm126.5 0c1.2.2 3.2.2 4.5 0 1.2-.2.2-.4-2.3-.4s-3.5.2-2.2.4zm22.4 0c4.8.2 12.9.2 18 0 5.1-.1 1.2-.3-8.7-.3-9.9 0-14.1.2-9.3.3zm-35.3 1.6c.5.5 2.1.7 3.7.5 2.7-.3 2.6-.4-.8-.9-2.2-.3-3.4-.1-2.9.4zm-34.1.4c1.2.2 3.2.2 4.5 0 1.2-.2.2-.4-2.3-.4s-3.5.2-2.2.4zm-77.5 28c.9.2 2.5.2 3.5 0 .9-.3.1-.5-1.8-.5-1.9 0-2.7.2-1.7.5zm-18.8 1.3-11 .6 10.7.2c6.3.1 10.9-.2 11.3-.8.3-.6.5-.9.3-.8-.2.1-5.2.5-11.3.8zm28.8.7c1.5.2 3.7.2 5 0 1.2-.2 0-.4-2.8-.4-2.7 0-3.8.2-2.2.4zm166 0c4.2.2 11.2.2 15.5 0 4.2-.1.7-.3-7.8-.3s-12 .2-7.7.3zm-217.5 2c2.3.2 5.9.2 8 0 2-.2.1-.4-4.3-.4-4.4 0-6.1.2-3.7.4zm62 0c.7.3 1.6.2 1.9-.1.4-.3-.2-.6-1.3-.5-1.1 0-1.4.3-.6.6zm140.5 0c1.5.2 3.7.2 5 0 1.2-.2 0-.4-2.8-.4-2.7 0-3.8.2-2.2.4zm41 0c1.5.2 3.7.2 5 0 1.2-.2 0-.4-2.8-.4-2.7 0-3.8.2-2.2.4zm-250.5 2c.7.3 1.6.2 1.9-.1.4-.3-.2-.6-1.3-.5-1.1 0-1.4.3-.6.6zm73 0c.7.3 1.6.2 1.9-.1.4-.3-.2-.6-1.3-.5-1.1 0-1.4.3-.6.6zm128 0c1.2.2 3 .2 4 0 .9-.3-.1-.5-2.3-.4-2.2 0-3 .2-1.7.4zm58.5 0c.9.2 2.3.2 3 0 .6-.3-.1-.5-1.8-.5-1.6 0-2.2.2-1.2.5zm-182.5 2c.7.3 1.6.2 1.9-.1.4-.3-.2-.6-1.3-.5-1.1 0-1.4.3-.6.6zm117.5 0c.9.2 2.3.2 3 0 .6-.3-.1-.5-1.8-.5-1.6 0-2.2.2-1.2.5zm70.5 0c.7.3 1.6.2 1.9-.1.4-.3-.2-.6-1.3-.5-1.1 0-1.4.3-.6.6zm-184 2c.7.3 1.6.2 1.9-.1.4-.3-.2-.6-1.3-.5-1.1 0-1.4.3-.6.6zm107 0c.7.3 1.6.2 1.9-.1.4-.3-.2-.6-1.3-.5-1.1 0-1.4.3-.6.6zm81 0c.7.3 1.6.2 1.9-.1.4-.3-.2-.6-1.3-.5-1.1 0-1.4.3-.6.6zm-184 2c.7.3 1.6.2 1.9-.1.4-.3-.2-.6-1.3-.5-1.1 0-1.4.3-.6.6zm99 0c.7.3 1.6.2 1.9-.1.4-.3-.2-.6-1.3-.5-1.1 0-1.4.3-.6.6zm-39 2c1.2.2 3.2.2 4.5 0 1.2-.2.2-.4-2.3-.4s-3.5.2-2.2.4zm-31 4c.7.3 1.6.2 1.9-.1.4-.3-.2-.6-1.3-.5-1.1 0-1.4.3-.6.6zm7 0c.7.3 1.6.2 1.9-.1.4-.3-.2-.6-1.3-.5-1.1 0-1.4.3-.6.6zm4 2c.7.3 1.6.2 1.9-.1.4-.3-.2-.6-1.3-.5-1.1 0-1.4.3-.6.6zm-202 12c.6.2 1.8.2 2.5 0 .6-.3.1-.5-1.3-.5-1.4 0-1.9.2-1.2.5zm133.5 2c.9.2 2.5.2 3.5 0 .9-.3.1-.5-1.8-.5-1.9 0-2.7.2-1.7.5zm143.5 0c1.7.2 4.7.2 6.5 0 1.7-.2.3-.4-3.3-.4-3.6 0-5 .2-3.2.4zm-154.5 2c1.5.2 3.7.2 5 0 1.2-.2 0-.4-2.8-.4-2.7 0-3.8.2-2.2.4zm21 0c1.5.2 3.7.2 5 0 1.2-.2 0-.4-2.8-.4-2.7 0-3.8.2-2.2.4zm126 0c.9.2 2.3.2 3 0 .6-.3-.1-.5-1.8-.5-1.6 0-2.2.2-1.2.5zm20 0c1.5.2 3.7.2 5 0 1.2-.2 0-.4-2.8-.4-2.7 0-3.8.2-2.2.4zm-174 2c.9.2 2.3.2 3 0 .6-.3-.1-.5-1.8-.5-1.6 0-2.2.2-1.2.5zm37 0c.9.2 2.3.2 3 0 .6-.3-.1-.5-1.8-.5-1.6 0-2.2.2-1.2.5zm112.5 0c.7.3 1.6.2 1.9-.1.4-.3-.2-.6-1.3-.5-1.1 0-1.4.3-.6.6zm35 0c1.8.2 4.5.2 6 0s0-.4-3.3-.4-4.5.2-2.7.4zm-189 2c.7.3 1.6.2 1.9-.1.4-.3-.2-.6-1.3-.5-1.1 0-1.4.3-.6.6zm47 0c.7.3 1.6.2 1.9-.1.4-.3-.2-.6-1.3-.5-1.1 0-1.4.3-.6.6zm103 0c.7.3 1.6.2 1.9-.1.4-.3-.2-.6-1.3-.5-1.1 0-1.4.3-.6.6zm82 0c.7.3 1.6.2 1.9-.1.4-.3-.2-.6-1.3-.5-1.1 0-1.4.3-.6.6zm-236 2c.7.3 1.6.2 1.9-.1.4-.3-.2-.6-1.3-.5-1.1 0-1.4.3-.6.6zm55 0c.7.3 1.6.2 1.9-.1.4-.3-.2-.6-1.3-.5-1.1 0-1.4.3-.6.6zm95 0c.7.3 1.6.2 1.9-.1.4-.3-.2-.6-1.3-.5-1.1 0-1.4.3-.6.6zm-181 2c.7.3 1.6.2 1.9-.1.4-.3-.2-.6-1.3-.5-1.1 0-1.4.3-.6.6zm27 0c.7.3 1.6.2 1.9-.1.4-.3-.2-.6-1.3-.5-1.1 0-1.4.3-.6.6zm234 0c.7.3 1.6.2 1.9-.1.4-.3-.2-.6-1.3-.5-1.1 0-1.4.3-.6.6zm-256.5 2c.9.2 2.3.2 3 0 .6-.3-.1-.5-1.8-.5-1.6 0-2.2.2-1.2.5zm18.5 0c.7.3 1.6.2 1.9-.1.4-.3-.2-.6-1.3-.5-1.1 0-1.4.3-.6.6zm69 0c.7.3 1.6.2 1.9-.1.4-.3-.2-.6-1.3-.5-1.1 0-1.4.3-.6.6zm83 0c.7.3 1.6.2 1.9-.1.4-.3-.2-.6-1.3-.5-1.1 0-1.4.3-.6.6zm79 0c1.2.2 3 .2 4 0 .9-.3-.1-.5-2.3-.4-2.2 0-3 .2-1.7.4zm-242 2c1.7.2 4.7.2 6.5 0 1.7-.2.3-.4-3.3-.4-3.6 0-5 .2-3.2.4zm84 0c.7.3 1.6.2 1.9-.1.4-.3-.2-.6-1.3-.5-1.1 0-1.4.3-.6.6zm19 0c.7.3 1.6.2 1.9-.1.4-.3-.2-.6-1.3-.5-1.1 0-1.4.3-.6.6zm35 0c.7.3 1.6.2 1.9-.1.4-.3-.2-.6-1.3-.5-1.1 0-1.4.3-.6.6zm21 0c.7.3 1.6.2 1.9-.1.4-.3-.2-.6-1.3-.5-1.1 0-1.4.3-.6.6zm72.5 0c1.5.2 3.9.2 5.5 0 1.5-.2.2-.4-2.8-.4s-4.3.2-2.7.4zm-143 2c.9.2 2.3.2 3 0 .6-.3-.1-.5-1.8-.5-1.6 0-2.2.2-1.2.5zm9 0c.9.2 2.3.2 3 0 .6-.3-.1-.5-1.8-.5-1.6 0-2.2.2-1.2.5zm44.5 0c.7.3 1.6.2 1.9-.1.4-.3-.2-.6-1.3-.5-1.1 0-1.4.3-.6.6zm13 0c.7.3 1.6.2 1.9-.1.4-.3-.2-.6-1.3-.5-1.1 0-1.4.3-.6.6zm-8 2c1.2.2 3.2.2 4.5 0 1.2-.2.2-.4-2.3-.4s-3.5.2-2.2.4zm-32.5 4c2.6.2 6.8.2 9.5 0 2.6-.2.4-.3-4.8-.3s-7.4.1-4.7.3zm-189.5 8c.6.2 1.8.2 2.5 0 .6-.3.1-.5-1.3-.5-1.4 0-1.9.2-1.2.5zm355 28c.7.3 1.6.2 1.9-.1.4-.3-.2-.6-1.3-.5-1.1 0-1.4.3-.6.6zm-30.5 54c.9.2 2.3.2 3 0 .6-.3-.1-.5-1.8-.5-1.6 0-2.2.2-1.2.5zm-129.5 2c.7.3 1.6.2 1.9-.1.4-.3-.2-.6-1.3-.5-1.1 0-1.4.3-.6.6zm123.5 0c.9.2 2.3.2 3 0 .6-.3-.1-.5-1.8-.5-1.6 0-2.2.2-1.2.5zm-244.3.7c0 .2.7.7 1.6 1 .8.3 1.2.2.9-.4-.6-1-2.5-1.4-2.5-.6zm37.8 1.3c1.7.2 4.7.2 6.5 0 1.7-.2.3-.4-3.3-.4-3.6 0-5 .2-3.2.4zm87 0c.7.3 1.6.2 1.9-.1.4-.3-.2-.6-1.3-.5-1.1 0-1.4.3-.6.6zm86.5 0c5.9.2 15.4.2 21 0 5.6-.1.8-.3-10.8-.3-11.5 0-16.1.2-10.2.3zm-206.5 2c.7.3 1.6.2 1.9-.1.4-.3-.2-.6-1.3-.5-1.1 0-1.4.3-.6.6zm27 0c.7.3 1.6.2 1.9-.1.4-.3-.2-.6-1.3-.5-1.1 0-1.4.3-.6.6zm72 0c.7.3 1.6.2 1.9-.1.4-.3-.2-.6-1.3-.5-1.1 0-1.4.3-.6.6zm27 0c1.8.2 4.5.2 6 0s0-.4-3.3-.4-4.5.2-2.7.4zm65.5 0c.9.2 2.3.2 3 0 .6-.3-.1-.5-1.8-.5-1.6 0-2.2.2-1.2.5zm-230.5 2c.6.2 1.8.2 2.5 0 .6-.3.1-.5-1.3-.5-1.4 0-1.9.2-1.2.5zm47.5 0c3.1.2 8.3.2 11.5 0 3.1-.2.5-.3-5.8-.3s-8.9.1-5.7.3zm37.5 0c.7.3 1.6.2 1.9-.1.4-.3-.2-.6-1.3-.5-1.1 0-1.4.3-.6.6zm44 0c1.2.2 3 .2 4 0 .9-.3-.1-.5-2.3-.4-2.2 0-3 .2-1.7.4zm97 0c.7.3 1.6.2 1.9-.1.4-.3-.2-.6-1.3-.5-1.1 0-1.4.3-.6.6zm-122 54c.6.2 1.8.2 2.5 0 .6-.3.1-.5-1.3-.5-1.4 0-1.9.2-1.2.5zm76 0c.6.2 1.8.2 2.5 0 .6-.3.1-.5-1.3-.5-1.4 0-1.9.2-1.2.5zm14 0c.6.2 1.8.2 2.5 0 .6-.3.1-.5-1.3-.5-1.4 0-1.9.2-1.2.5zm17.5 14c.9.2 2.5.2 3.5 0 .9-.3.1-.5-1.8-.5-1.9 0-2.7.2-1.7.5zm-21.5 2c.7.3 1.6.2 1.9-.1.4-.3-.2-.6-1.3-.5-1.1 0-1.4.3-.6.6zm-80 1.5c.6.6 1.8.8 2.8.6 1.4-.3 1.2-.5-.9-1-1.9-.3-2.5-.2-1.9.4zm11.5.5c.9.2 2.5.2 3.5 0 .9-.3.1-.5-1.8-.5-1.9 0-2.7.2-1.7.5zm14 0c.9.2 2.3.2 3 0 .6-.3-.1-.5-1.8-.5-1.6 0-2.2.2-1.2.5zm13 0c.9.2 2.3.2 3 0 .6-.3-.1-.5-1.8-.5-1.6 0-2.2.2-1.2.5zm27.5 0c.7.3 1.6.2 1.9-.1.4-.3-.2-.6-1.3-.5-1.1 0-1.4.3-.6.6zm9 0c.6.2 1.8.2 2.5 0 .6-.3.1-.5-1.3-.5-1.4 0-1.9.2-1.2.5zm-24.9 1.6c.5.5 2.1.7 3.7.5 2.7-.3 2.6-.4-.8-.9-2.2-.3-3.4-.1-2.9.4zm-6.6 50.4c1.5.2 3.9.2 5.5 0 1.5-.2.2-.4-2.8-.4s-4.3.2-2.7.4zm-5.5 2c.7.3 1.6.2 1.9-.1.4-.3-.2-.6-1.3-.5-1.1 0-1.4.3-.6.6zm15 0c.7.3 1.6.2 1.9-.1.4-.3-.2-.6-1.3-.5-1.1 0-1.4.3-.6.6zm4 2c.7.3 1.6.2 1.9-.1.4-.3-.2-.6-1.3-.5-1.1 0-1.4.3-.6.6zm1 26c.7.3 1.6.2 1.9-.1.4-.3-.2-.6-1.3-.5-1.1 0-1.4.3-.6.6zm-22.5 2c.9.2 2.3.2 3 0 .6-.3-.1-.5-1.8-.5-1.6 0-2.2.2-1.2.5zm7.5 2c1.7.2 4.7.2 6.5 0 1.7-.2.3-.4-3.3-.4-3.6 0-5 .2-3.2.4zm3 24c.6.2 1.8.2 2.5 0 .6-.3.1-.5-1.3-.5-1.4 0-1.9.2-1.2.5zm14 2c.6.2 1.8.2 2.5 0 .6-.3.1-.5-1.3-.5-1.4 0-1.9.2-1.2.5zm-62 12c.7.3 1.6.2 1.9-.1.4-.3-.2-.6-1.3-.5-1.1 0-1.4.3-.6.6zm-4 2c.7.3 1.6.2 1.9-.1.4-.3-.2-.6-1.3-.5-1.1 0-1.4.3-.6.6zm-5.5 2c.9.2 2.3.2 3 0 .6-.3-.1-.5-1.8-.5-1.6 0-2.2.2-1.2.5zm-9 2c1.5.2 3.7.2 5 0 1.2-.2 0-.4-2.8-.4-2.7 0-3.8.2-2.2.4zm121.5 0c.7.3 1.6.2 1.9-.1.4-.3-.2-.6-1.3-.5-1.1 0-1.4.3-.6.6zm-135.1 2c1.8.2 5 .2 7 0 2.1-.2.7-.4-3.2-.4-3.8 0-5.5.2-3.8.4zm91.1 0c.7.3 1.6.2 1.9-.1.4-.3-.2-.6-1.3-.5-1.1 0-1.4.3-.6.6zm18 0c.7.3 1.6.2 1.9-.1.4-.3-.2-.6-1.3-.5-1.1 0-1.4.3-.6.6zm46.5 0c3.7.2 9.7.2 13.5 0 3.7-.2.6-.3-6.8-.3-7.4 0-10.5.1-6.7.3zM336 480l-3.5.7 3.2.2c1.7 0 3.5-.4 3.8-.9.3-.6.5-.9.3-.9-.2.1-1.9.5-3.8.9zm34.9.3c.4.4 3.7.7 7.2.5l6.4-.3-7.2-.5c-4-.3-6.8-.1-6.4.3zm-199.6.4c3.2.2 8.1.2 11 0 2.9-.2.3-.3-5.8-.3-6 0-8.4.1-5.2.3zm-18.6 2c1.8.2 5 .2 7 0 2.1-.2.7-.4-3.2-.4-3.8 0-5.5.2-3.8.4zm234.1 0c1.2.2 3 .2 4 0 .9-.3-.1-.5-2.3-.4-2.2 0-3 .2-1.7.4zm-242 2c.7.3 1.6.2 1.9-.1.4-.3-.2-.6-1.3-.5-1.1 0-1.4.3-.6.6zm249.5 0c.9.2 2.3.2 3 0 .6-.3-.1-.5-1.8-.5-1.6 0-2.2.2-1.2.5zm5.5 2c.7.3 1.6.2 1.9-.1.4-.3-.2-.6-1.3-.5-1.1 0-1.4.3-.6.6zm4 2c.7.3 1.6.2 1.9-.1.4-.3-.2-.6-1.3-.5-1.1 0-1.4.3-.6.6zm4 2c.7.3 1.6.2 1.9-.1.4-.3-.2-.6-1.3-.5-1.1 0-1.4.3-.6.6zm-98 6c2.3.2 5.9.2 8 0 2-.2.1-.4-4.3-.4-4.4 0-6.1.2-3.7.4zm-114.6 2c9.2.2 24.5.2 34 0 9.5-.1 2-.3-16.7-.3s-26.5.2-17.3.3zm83.1 0c4.8.2 12.5.2 17 0 4.5-.1.6-.3-8.8-.3-9.3 0-13 .2-8.2.3zm-25.5 2c2.3.2 6.1.2 8.5 0 2.3-.2.4-.4-4.3-.4s-6.6.2-4.2.4z" fill="none"/><path d="M225.8 35.7c3.9.2 10.5.2 14.5 0 3.9-.1.7-.3-7.3-.3s-11.2.2-7.2.3zm81 0c6.7.2 17.7.2 24.5 0 6.7-.1 1.2-.3-12.3-.3s-19 .2-12.2.3zm-105.5 2c2.6.2 6.8.2 9.5 0 2.6-.2.4-.3-4.8-.3s-7.4.1-4.7.3zm151 0c3.2.2 8.1.2 11 0 2.9-.2.3-.3-5.8-.3-6 0-8.4.1-5.2.3zm-188.5 4c1.7.2 4.7.2 6.5 0 1.7-.2.3-.4-3.3-.4-3.6 0-5 .2-3.2.4zm223 0c1.2.2 3.2.2 4.5 0 1.2-.2.2-.4-2.3-.4s-3.5.2-2.2.4zm-241 2c1.7.2 4.7.2 6.5 0 1.7-.2.3-.4-3.3-.4-3.6 0-5 .2-3.2.4zm250.5 0c.9.2 2.5.2 3.5 0 .9-.3.1-.5-1.8-.5-1.9 0-2.7.2-1.7.5zm17.5 4c.6.2 1.8.2 2.5 0 .6-.3.1-.5-1.3-.5-1.4 0-1.9.2-1.2.5zM300.5 53c4.1 1.1 21.6 1.1 24 0 1.2-.5-3.6-.8-12.5-.8-8.7 0-13.3.3-11.5.8zm-93.7 1.7c4.5.2 11.9.2 16.5 0 4.5-.1.8-.3-8.3-.3-9.1 0-12.8.2-8.2.3zM338 55l-11.5.6 9.5.1c5.2 0 15.4-.3 22.5-.6l13-.8-11 .1c-6 0-16.2.3-22.5.6zm-68.2.7c3.9.2 10.5.2 14.5 0 3.9-.1.7-.3-7.3-.3s-11.2.2-7.2.3zm-98.5 1c3.7.2 9.7.2 13.5 0 3.7-.2.6-.3-6.8-.3-7.4 0-10.5.1-6.7.3zm205.5 0c1.2.2 3.2.2 4.5 0 1.2-.2.2-.4-2.3-.4s-3.5.2-2.2.4zm-202.5 3c2 .2 5.4.2 7.5 0 2-.2.3-.4-3.8-.4s-5.8.2-3.7.4zm20.5 0c1.2.2 3.2.2 4.5 0 1.2-.2.2-.4-2.3-.4s-3.5.2-2.2.4zm167.5 0c.9.2 2.5.2 3.5 0 .9-.3.1-.5-1.8-.5-1.9 0-2.7.2-1.7.5zm-216.5 1c.6.2 1.8.2 2.5 0 .6-.3.1-.5-1.3-.5-1.4 0-1.9.2-1.2.5zm143 0c10 .2 26.4.2 36.5 0 10-.1 1.8-.2-18.3-.2s-28.3.1-18.2.2zm105.5 0c.9.2 2.5.2 3.5 0 .9-.3.1-.5-1.8-.5-1.9 0-2.7.2-1.7.5zm-231.5 1c1.2.2 3.2.2 4.5 0 1.2-.2.2-.4-2.3-.4s-3.5.2-2.2.4zm207 0c.6.2 1.8.2 2.5 0 .6-.3.1-.5-1.3-.5-1.4 0-1.9.2-1.2.5zm-118 1c2.8.2 7.6.2 10.5 0 2.8-.2.5-.3-5.3-.3s-8.1.1-5.2.3zm96.5 0c.9.2 2.5.2 3.5 0 .9-.3.1-.5-1.8-.5-1.9 0-2.7.2-1.7.5zm53.5 0c.6.2 1.8.2 2.5 0 .6-.3.1-.5-1.3-.5-1.4 0-1.9.2-1.2.5zm-35.8 4c.5.2 1 1.3 1 2.3 0 1.6-.9 2-5 2.3l-5 .4 5.2-.1c4.9-.1 5.3-.3 5.3-2.5 0-1.3-.6-2.5-1.3-2.7-.7-.1-.8 0-.2.3zm82.3 5.3c0 3 .2 4.3.4 2.7.2-1.5.2-3.9 0-5.5-.2-1.5-.4-.2-.4 2.8zm-281.9-2.9c-1 1.7 1.1 3.1 4.2 2.6 2.9-.4 2.8-.4-.3-.6-3.3-.1-4.4-1.5-2-2.4.9-.4.9-.6 0-.6-.6-.1-1.5.4-1.9 1zM128.2 71c0 1.4.2 1.9.5 1.2.2-.6.2-1.8 0-2.5-.3-.6-.5-.1-.5 1.3zm23 .5c0 1.6.2 2.2.5 1.2.2-.9.2-2.3 0-3-.3-.6-.5.1-.5 1.8zM97.3 81c0 4.7.2 6.6.4 4.2.2-2.3.2-6.1 0-8.5-.2-2.3-.4-.4-.4 4.3zm88.5-7.3c5 .2 13.4.2 18.5 0 5-.1.9-.3-9.3-.3-10.2 0-14.3.2-9.2.3zm158.5 0c2 .2 5.4.2 7.5 0 2-.2.3-.4-3.8-.4s-5.8.2-3.7.4zm25.5 5c.6.2 1.8.2 2.5 0 .6-.3.1-.5-1.3-.5-1.4 0-1.9.2-1.2.5zm-234 5c.6.2 1.8.2 2.5 0 .6-.3.1-.5-1.3-.5-1.4 0-1.9.2-1.2.5zm42 1c1.7.2 4.7.2 6.5 0 1.7-.2.3-.4-3.3-.4-3.6 0-5 .2-3.2.4zm171.5 0c1.5.2 3.9.2 5.5 0 1.5-.2.2-.4-2.8-.4s-4.3.2-2.7.4zm-207.5 1c.6.2 1.8.2 2.5 0 .6-.3.1-.5-1.3-.5-1.4 0-1.9.2-1.2.5zm250 0c.6.2 1.8.2 2.5 0 .6-.3.1-.5-1.3-.5-1.4 0-1.9.2-1.2.5zm-197.5 1c2 .2 5.4.2 7.5 0 2-.2.3-.4-3.8-.4s-5.8.2-3.7.4zm138 0c2 .2 5.4.2 7.5 0 2-.2.3-.4-3.8-.4s-5.8.2-3.7.4zM68.2 92c0 1.9.2 2.7.5 1.7.2-.9.2-2.5 0-3.5-.3-.9-.5-.1-.5 1.8zm88.1-2.3c.9.2 2.5.2 3.5 0 .9-.3.1-.5-1.8-.5-1.9 0-2.7.2-1.7.5zm214 0c2 .2 5.4.2 7.5 0 2-.2.3-.4-3.8-.4s-5.8.2-3.7.4zM273 91c6.9.4 17 .4 22.5 0 7.7-.5 4.8-.7-12.5-.7-19.7 0-21 .1-10 .7zm-84.7.7c13 .2 34.4.2 47.5 0 13-.1 2.3-.2-23.8-.2s-36.8.1-23.7.2zm152 0c4.2.2 11.2.2 15.5 0 4.2-.1.7-.3-7.8-.3s-12 .2-7.7.3zM70.2 99c0 1.4.2 1.9.5 1.2.2-.6.2-1.8 0-2.5-.3-.6-.5-.1-.5 1.3zm366 0c0 1.4.2 1.9.5 1.2.2-.6.2-1.8 0-2.5-.3-.6-.5-.1-.5 1.3zm-383 2c0 1.4.2 1.9.5 1.2.2-.6.2-1.8 0-2.5-.3-.6-.5-.1-.5 1.3zm59 4.4c.7.8 1.5 1.2 1.7 1.1.5-.6-1-2.5-2-2.5-.5 0-.4.6.3 1.4zm-61 1.6c0 1.4.2 1.9.5 1.2.2-.6.2-1.8 0-2.5-.3-.6-.5-.1-.5 1.3zm387.1 2c0 2.5.2 3.5.4 2.2.2-1.2.2-3.2 0-4.5-.2-1.2-.4-.2-.4 2.3zm-43-.3c1.5.2 3.9.2 5.5 0 1.5-.2.2-.4-2.8-.4s-4.3.2-2.7.4zm-18.5 2c2.3.2 6.1.2 8.5 0 2.3-.2.4-.4-4.3-.4s-6.6.2-4.2.4zm-327.7 3.9c0 1.1.3 1.4.6.6.3-.7.2-1.6-.1-1.9-.3-.4-.6.2-.5 1.3zm27 0c0 1.1.3 1.4.6.6.3-.7.2-1.6-.1-1.9-.3-.4-.6.2-.5 1.3zm80.7.1c5.6.2 14.8.2 20.5 0 5.6-.1 1-.3-10.3-.3s-15.9.2-10.2.3zm173.4 0c3.7.2 10 .2 14 0 4-.1 1-.3-6.7-.3s-11 .1-7.3.3zm110 3.3c0 1.9.2 2.7.5 1.7.2-.9.2-2.5 0-3.5-.3-.9-.5-.1-.5 1.8zm-207-1.3c15.9.2 41.7.2 57.5 0 15.9-.1 2.9-.2-28.7-.2-31.6 0-44.6.1-28.8.2zm-126 2.3c0 1.4.2 1.9.5 1.2.2-.6.2-1.8 0-2.5-.3-.6-.5-.1-.5 1.3zm-60 3c0 1.9.2 2.7.5 1.7.2-.9.2-2.5 0-3.5-.3-.9-.5-.1-.5 1.8zm32.9 4.6c0 1.1.3 1.4.6.6.3-.7.2-1.6-.1-1.9-.3-.4-.6.2-.5 1.3zm68.2-.9c2 .2 5.4.2 7.5 0 2-.2.3-.4-3.8-.4s-5.8.2-3.7.4zm202.5 0c1.2.2 3.2.2 4.5 0 1.2-.2.2-.4-2.3-.4s-3.5.2-2.2.4zm39.5 0c.9.2 2.5.2 3.5 0 .9-.3.1-.5-1.8-.5-1.9 0-2.7.2-1.7.5zM45.4 141c0 8 .2 11.2.3 7.2.2-3.9.2-10.5 0-14.5-.1-3.9-.3-.7-.3 7.3zm296.9-13.3c.9.2 2.5.2 3.5 0 .9-.3.1-.5-1.8-.5-1.9 0-2.7.2-1.7.5zm57.5 0c.6.2 1.8.2 2.5 0 .6-.3.1-.5-1.3-.5-1.4 0-1.9.2-1.2.5zM62.3 135c0 2.5.2 3.5.4 2.2.2-1.2.2-3.2 0-4.5-.2-1.2-.4-.2-.4 2.3zm2.8-2.4c0 1.1.3 1.4.6.6.3-.7.2-1.6-.1-1.9-.3-.4-.6.2-.5 1.3zm17 0c0 1.1.3 1.4.6.6.3-.7.2-1.6-.1-1.9-.3-.4-.6.2-.5 1.3zm19 0c0 1.1.3 1.4.6.6.3-.7.2-1.6-.1-1.9-.3-.4-.6.2-.5 1.3zm64.7.1c2.8.2 7.6.2 10.5 0 2.8-.2.5-.3-5.3-.3s-8.1.1-5.2.3zm34 0c1.7.2 4.7.2 6.5 0 1.7-.2.3-.4-3.3-.4-3.6 0-5 .2-3.2.4zm160 0c5 .2 13.4.2 18.5 0 5-.1.9-.3-9.3-.3-10.2 0-14.3.2-9.2.3zM124.2 135c0 1.4.2 1.9.5 1.2.2-.6.2-1.8 0-2.5-.3-.6-.5-.1-.5 1.3zm29.6-.3c.6.2 1.8.2 2.5 0 .6-.3.1-.5-1.3-.5-1.4 0-1.9.2-1.2.5zm58 0c.6.2 1.8.2 2.5 0 .6-.3.1-.5-1.3-.5-1.4 0-1.9.2-1.2.5zm130.5 0c.9.2 2.5.2 3.5 0 .9-.3.1-.5-1.8-.5-1.9 0-2.7.2-1.7.5zm-275 9.8c0 4.4.2 6.1.4 3.7.2-2.3.2-5.9 0-8-.2-2-.4-.1-.4 4.3zm16.9-4.5c0 1.9.2 2.7.5 1.7.2-.9.2-2.5 0-3.5-.3-.9-.5-.1-.5 1.8zm14.9-1.4c0 1.1.3 1.4.6.6.3-.7.2-1.6-.1-1.9-.3-.4-.6.2-.5 1.3zm349.1 2.4c0 1.4.2 1.9.5 1.2.2-.6.2-1.8 0-2.5-.3-.6-.5-.1-.5 1.3zm-326 8c0 8.1.1 8.3 1 3.8.7-3.2.7-6 0-8.5-.9-3.4-1-2.8-1 4.7zm131-6c0 1.4.2 1.9.5 1.2.2-.6.2-1.8 0-2.5-.3-.6-.5-.1-.5 1.3zm26 .5c0 1.6.2 2.2.5 1.2.2-.9.2-2.3 0-3-.3-.6-.5.1-.5 1.8zm-219 2.5c0 1.9.2 2.7.5 1.7.2-.9.2-2.5 0-3.5-.3-.9-.5-.1-.5 1.8zm36.9-1.4c0 1.1.3 1.4.6.6.3-.7.2-1.6-.1-1.9-.3-.4-.6.2-.5 1.3zm330.3 7.4c0 5.2.1 7.4.3 4.7.2-2.6.2-6.8 0-9.5-.2-2.6-.3-.4-.3 4.8zm-5.2 3.5c-.1 6 .2 11.5.6 12.2.4.6.6-3.2.4-8.5-.4-14.5-.9-16.1-1-3.7zm28.1-7c0 2.2.2 3 .4 1.7.2-1.2.2-3 0-4-.3-.9-.5.1-.4 2.3zm-364 2.5c0 2.5.2 3.5.4 2.2.2-1.2.2-3.2 0-4.5-.2-1.2-.4-.2-.4 2.3zm183.9-2c0 1.4.2 1.9.5 1.2.2-.6.2-1.8 0-2.5-.3-.6-.5-.1-.5 1.3zM95.4 161c0 6.9.1 9.7.3 6.2.2-3.4.2-9 0-12.5-.2-3.4-.3-.6-.3 6.3zm40.9-7.5c0 2.7.2 3.8.4 2.2.2-1.5.2-3.7 0-5-.2-1.2-.4 0-.4 2.8zm141 .5c0 3 .2 4.3.4 2.7.2-1.5.2-3.9 0-5.5-.2-1.5-.4-.2-.4 2.8zm-14 3c0 3.6.2 5 .4 3.2.2-1.7.2-4.7 0-6.5-.2-1.7-.4-.3-.4 3.3zm8.9-1.5c0 1.6.2 2.2.5 1.2.2-.9.2-2.3 0-3-.3-.6-.5.1-.5 1.8zm12.1 2.5c0 3 .2 4.3.4 2.7.2-1.5.2-3.9 0-5.5-.2-1.5-.4-.2-.4 2.8zm126.9-3c0 1.4.2 1.9.5 1.2.2-.6.2-1.8 0-2.5-.3-.6-.5-.1-.5 1.3zm-286.1 1.6c0 1.1.3 1.4.6.6.3-.7.2-1.6-.1-1.9-.3-.4-.6.2-.5 1.3zm215.7-.9c1.2.2 3.2.2 4.5 0 1.2-.2.2-.4-2.3-.4s-3.5.2-2.2.4zm-154 2c1.2.2 3.2.2 4.5 0 1.2-.2.2-.4-2.3-.4s-3.5.2-2.2.4zm20 0c1.2.2 3.2.2 4.5 0 1.2-.2.2-.4-2.3-.4s-3.5.2-2.2.4zm127 0c.6.2 1.8.2 2.5 0 .6-.3.1-.5-1.3-.5-1.4 0-1.9.2-1.2.5zm19 0c1.2.2 3.2.2 4.5 0 1.2-.2.2-.4-2.3-.4s-3.5.2-2.2.4zm55.4 2.9c-.7.8-.8 1.4-.3 1.4 1 0 2.5-1.9 2-2.5-.2-.1-1 .3-1.7 1.1zm-270.1 2c0 1.1.3 1.4.6.6.3-.7.2-1.6-.1-1.9-.3-.4-.6.2-.5 1.3zm312.1 3.4c0 1.9.2 2.7.5 1.7.2-.9.2-2.5 0-3.5-.3-.9-.5-.1-.5 1.8zm-173 1c0 1.4.2 1.9.5 1.2.2-.6.2-1.8 0-2.5-.3-.6-.5-.1-.5 1.3zm117.1.7c.9.2 2.5.2 3.5 0 .9-.3.1-.5-1.8-.5-1.9 0-2.7.2-1.7.5zm-242.5 2c1.7.2 4.7.2 6.5 0 1.7-.2.3-.4-3.3-.4-3.6 0-5 .2-3.2.4zm231.5 0c1.5.2 3.9.2 5.5 0 1.5-.2.2-.4-2.8-.4s-4.3.2-2.7.4zm-320.5 1c1.2.2 3.2.2 4.5 0 1.2-.2.2-.4-2.3-.4s-3.5.2-2.2.4zm236 3c1.2.2 3.2.2 4.5 0 1.2-.2.2-.4-2.3-.4s-3.5.2-2.2.4zm115.4 5.3c0 1.4.2 1.9.5 1.2.2-.6.2-1.8 0-2.5-.3-.6-.5-.1-.5 1.3zm-264.4 1.7c.6.2 1.8.2 2.5 0 .6-.3.1-.5-1.3-.5-1.4 0-1.9.2-1.2.5zm94.6.8c-.3.8-.4 2-.1 2.7.3.7.6.3.6-.9.1-1.7.8-2.3 3.4-2.6l3.2-.4-3.3-.1c-2.1-.1-3.5.3-3.8 1.3zm54.5-.8c3.1.3 4.1.9 4.5 2.6.4 1.8.4 1.8.3-.3-.2-2.2-.7-2.5-4.5-2.6l-4.2-.1 3.9.4zm93.5.7c-.3.8-.4 2.5-.1 3.8.3 1.8.5 1.6.6-.9.1-2.4.6-3.3 2.4-3.6l2.2-.4-2.3-.2c-1.2 0-2.5.5-2.8 1.3zM144.2 185c0 1.4.2 1.9.5 1.2.2-.6.2-1.8 0-2.5-.3-.6-.5-.1-.5 1.3zm140.1 4c0 2.5.2 3.5.4 2.2.2-1.2.2-3.2 0-4.5-.2-1.2-.4-.2-.4 2.3zm-209.1 1c0 1.9.2 2.7.5 1.7.2-.9.2-2.5 0-3.5-.3-.9-.5-.1-.5 1.8zm226-1c0 1.4.2 1.9.5 1.2.2-.6.2-1.8 0-2.5-.3-.6-.5-.1-.5 1.3zm-219 2c0 1.4.2 1.9.5 1.2.2-.6.2-1.8 0-2.5-.3-.6-.5-.1-.5 1.3zm60.1 2c0 2.5.2 3.5.4 2.2.2-1.2.2-3.2 0-4.5-.2-1.2-.4-.2-.4 2.3zm104.1 7c0 6.3.1 8.9.3 5.7.2-3.1.2-8.3 0-11.5-.2-3.1-.3-.5-.3 5.8zm154.8-8.5c0 1.6.2 2.2.5 1.2.2-.9.2-2.3 0-3-.3-.6-.5.1-.5 1.8zm-148.1 1.1c0 1.1.3 1.4.6.6.3-.7.2-1.6-.1-1.9-.3-.4-.6.2-.5 1.3zm46.2 6.9c0 3.8.2 5.3.4 3.2.2-2 .2-5.2 0-7-.2-1.7-.4-.1-.4 3.8zM73.2 197c0 1.4.2 1.9.5 1.2.2-.6.2-1.8 0-2.5-.3-.6-.5-.1-.5 1.3zm325 0c0 1.4.2 1.9.5 1.2.2-.6.2-1.8 0-2.5-.3-.6-.5-.1-.5 1.3zm34 0c0 1.4.2 1.9.5 1.2.2-.6.2-1.8 0-2.5-.3-.6-.5-.1-.5 1.3zm-146 3c0 1.9.2 2.7.5 1.7.2-.9.2-2.5 0-3.5-.3-.9-.5-.1-.5 1.8zm116.9-1.4c0 1.1.3 1.4.6.6.3-.7.2-1.6-.1-1.9-.3-.4-.6.2-.5 1.3zM140.2 201c0 1.4.2 1.9.5 1.2.2-.6.2-1.8 0-2.5-.3-.6-.5-.1-.5 1.3zm7.1 4c0 3.6.2 5 .4 3.2.2-1.7.2-4.7 0-6.5-.2-1.7-.4-.3-.4 3.3zm103.9-4c0 1.4.2 1.9.5 1.2.2-.6.2-1.8 0-2.5-.3-.6-.5-.1-.5 1.3zm149 2.5c0 1.6.2 2.2.5 1.2.2-.9.2-2.3 0-3-.3-.6-.5.1-.5 1.8zm30.1 3c0 3.3.2 4.5.4 2.7.2-1.8.2-4.5 0-6s-.4 0-.4 3.3zm-359.2-1.9c0 1.1.3 1.4.6.6.3-.7.2-1.6-.1-1.9-.3-.4-.6.2-.5 1.3zm44.1 1.4c0 1.9.2 2.7.5 1.7.2-.9.2-2.5 0-3.5-.3-.9-.5-.1-.5 1.8zm23 1c0 1.4.2 1.9.5 1.2.2-.6.2-1.8 0-2.5-.3-.6-.5-.1-.5 1.3zm111 1c0 1.9.2 2.7.5 1.7.2-.9.2-2.5 0-3.5-.3-.9-.5-.1-.5 1.8zm39 0c0 1.9.2 2.7.5 1.7.2-.9.2-2.5 0-3.5-.3-.9-.5-.1-.5 1.8zm110.1 5c0 2.5.2 3.5.4 2.2.2-1.2.2-3.2 0-4.5-.2-1.2-.4-.2-.4 2.3zm-329.1 0c0 1.4.2 1.9.5 1.2.2-.6.2-1.8 0-2.5-.3-.6-.5-.1-.5 1.3zm44 0c0 1.4.2 1.9.5 1.2.2-.6.2-1.8 0-2.5-.3-.6-.5-.1-.5 1.3zm182 1c0 1.9.2 2.7.5 1.7.2-.9.2-2.5 0-3.5-.3-.9-.5-.1-.5 1.8zm-51 1.5c0 1.6.2 2.2.5 1.2.2-.9.2-2.3 0-3-.3-.6-.5.1-.5 1.8zm3-.5c0 1.4.2 1.9.5 1.2.2-.6.2-1.8 0-2.5-.3-.6-.5-.1-.5 1.3zm43 .5c0 1.6.2 2.2.5 1.2.2-.9.2-2.3 0-3-.3-.6-.5.1-.5 1.8zm-223 6c0 1.6.2 2.2.5 1.2.2-.9.2-2.3 0-3-.3-.6-.5.1-.5 1.8zm369-.5c0 1.4.2 1.9.5 1.2.2-.6.2-1.8 0-2.5-.3-.6-.5-.1-.5 1.3zm-191.1.6c0 1.1.3 1.4.6.6.3-.7.2-1.6-.1-1.9-.3-.4-.6.2-.5 1.3zm47.1 4.4c0 1.9.2 2.7.5 1.7.2-.9.2-2.5 0-3.5-.3-.9-.5-.1-.5 1.8zm-167.9 6c0 4.1.2 5.8.4 3.7.2-2 .2-5.4 0-7.5-.2-2-.4-.3-.4 3.8zm313.9-5c0 1.4.2 1.9.5 1.2.2-.6.2-1.8 0-2.5-.3-.6-.5-.1-.5 1.3zM65.4 240c0 7.4.1 10.5.3 6.7.2-3.7.2-9.7 0-13.5-.2-3.7-.3-.6-.3 6.8zm355.9-6c0 4.1.2 5.8.4 3.7.2-2 .2-5.4 0-7.5-.2-2-.4-.3-.4 3.8zm-115.6-3.3c.7.5 1.4 4 1.6 7.8l.4 7-.1-7.4c-.1-5.7-.4-7.5-1.6-7.8-1.1-.3-1.1-.2-.3.4zm-64.5 2.3c0 1.4.2 1.9.5 1.2.2-.6.2-1.8 0-2.5-.3-.6-.5-.1-.5 1.3zm53 0c0 1.4.2 1.9.5 1.2.2-.6.2-1.8 0-2.5-.3-.6-.5-.1-.5 1.3zm146.1 3.5c0 2.7.2 3.8.4 2.2.2-1.5.2-3.7 0-5-.2-1.2-.4 0-.4 2.8zm-340 .5c0 2.5.2 3.5.4 2.2.2-1.2.2-3.2 0-4.5-.2-1.2-.4-.2-.4 2.3zm129.8-2.4c0 1.1.3 1.4.6.6.3-.7.2-1.6-.1-1.9-.3-.4-.6.2-.5 1.3zm-10.3.1c.6.2 1.8.2 2.5 0 .6-.3.1-.5-1.3-.5-1.4 0-1.9.2-1.2.5zm106.5 0c.9.2 2.5.2 3.5 0 .9-.3.1-.5-1.8-.5-1.9 0-2.7.2-1.7.5zm-246 6.3c0 3.6.2 5 .4 3.2.2-1.7.2-4.7 0-6.5-.2-1.7-.4-.3-.4 3.3zm230 2c0 4.7.2 6.6.4 4.2.2-2.3.2-6.1 0-8.5-.2-2.3-.4-.4-.4 4.3zm-98.5-6.3c.6.2 1.8.2 2.5 0 .6-.3.1-.5-1.3-.5-1.4 0-1.9.2-1.2.5zm122 0c.6.2 1.8.2 2.5 0 .6-.3.1-.5-1.3-.5-1.4 0-1.9.2-1.2.5zM103.2 239c0 1.4.2 1.9.5 1.2.2-.6.2-1.8 0-2.5-.3-.6-.5-.1-.5 1.3zm136.2 8c0 5.8.1 8.1.3 5.2.2-2.8.2-7.6 0-10.5-.2-2.8-.3-.5-.3 5.3zm-63.1-6.3c.9.2 2.5.2 3.5 0 .9-.3.1-.5-1.8-.5-1.9 0-2.7.2-1.7.5zm20 0c.9.2 2.5.2 3.5 0 .9-.3.1-.5-1.8-.5-1.9 0-2.7.2-1.7.5zm153 0c1.5.2 3.9.2 5.5 0 1.5-.2.2-.4-2.8-.4s-4.3.2-2.7.4zm23 0c.9.2 2.5.2 3.5 0 .9-.3.1-.5-1.8-.5-1.9 0-2.7.2-1.7.5zm-187 2c1.5.2 3.9.2 5.5 0 1.5-.2.2-.4-2.8-.4s-4.3.2-2.7.4zm-102.1 2.8c0 1.6.2 2.2.5 1.2.2-.9.2-2.3 0-3-.3-.6-.5.1-.5 1.8zm22-.5c0 1.4.2 1.9.5 1.2.2-.6.2-1.8 0-2.5-.3-.6-.5-.1-.5 1.3zm193.1 5c0 4.1.2 5.8.4 3.7.2-2 .2-5.4 0-7.5-.2-2-.4-.3-.4 3.8zm120.9-5c0 1.4.2 1.9.5 1.2.2-.6.2-1.8 0-2.5-.3-.6-.5-.1-.5 1.3zm19 0c0 1.4.2 1.9.5 1.2.2-.6.2-1.8 0-2.5-.3-.6-.5-.1-.5 1.3zm-219 4c0 1.4.2 1.9.5 1.2.2-.6.2-1.8 0-2.5-.3-.6-.5-.1-.5 1.3zm5 0c0 1.4.2 1.9.5 1.2.2-.6.2-1.8 0-2.5-.3-.6-.5-.1-.5 1.3zm-124 2.5c0 1.6.2 2.2.5 1.2.2-.9.2-2.3 0-3-.3-.6-.5.1-.5 1.8zm203.1 5.5c0 3.6.2 5 .4 3.2.2-1.7.2-4.7 0-6.5-.2-1.7-.4-.3-.4 3.3zm5 1c0 3 .2 4.3.4 2.7.2-1.5.2-3.9 0-5.5-.2-1.5-.4-.2-.4 2.8zm-78 8c0 3 .2 4.3.4 2.7.2-1.5.2-3.9 0-5.5-.2-1.5-.4-.2-.4 2.8zm54.5-1.3c1.2.2 3.2.2 4.5 0 1.2-.2.2-.4-2.3-.4s-3.5.2-2.2.4zm-35 2c.6.2 1.8.2 2.5 0 .6-.3.1-.5-1.3-.5-1.4 0-1.9.2-1.2.5zm-24.6 2.3c0 1.4.2 1.9.5 1.2.2-.6.2-1.8 0-2.5-.3-.6-.5-.1-.5 1.3zm87.1 3.5c0 3.3.2 4.5.4 2.7.2-1.8.2-4.5 0-6s-.4 0-.4 3.3zm-5.1-1.5c0 1.4.2 1.9.5 1.2.2-.6.2-1.8 0-2.5-.3-.6-.5-.1-.5 1.3zm88.6-1.3c.6.2 1.8.2 2.5 0 .6-.3.1-.5-1.3-.5-1.4 0-1.9.2-1.2.5zm-206.5 2c1.5.2 3.9.2 5.5 0 1.5-.2.2-.4-2.8-.4s-4.3.2-2.7.4zm173.5 0c5.6.2 14.8.2 20.5 0 5.6-.1 1-.3-10.3-.3s-15.9.2-10.2.3zm-97 1c.6.2 1.8.2 2.5 0 .6-.3.1-.5-1.3-.5-1.4 0-1.9.2-1.2.5zm-42.6 2.3c0 1.4.2 1.9.5 1.2.2-.6.2-1.8 0-2.5-.3-.6-.5-.1-.5 1.3zm-58.9.7c3.1.2 8.3.2 11.5 0 3.1-.2.5-.3-5.8-.3s-8.9.1-5.7.3zm82 0c.9.2 2.5.2 3.5 0 .9-.3.1-.5-1.8-.5-1.9 0-2.7.2-1.7.5zM120.2 279c0 1.4.2 1.9.5 1.2.2-.6.2-1.8 0-2.5-.3-.6-.5-.1-.5 1.3zm159.6-.3c1.7.2 4.7.2 6.5 0 1.7-.2.3-.4-3.3-.4-3.6 0-5 .2-3.2.4zm-58.6 2.3c0 1.4.2 1.9.5 1.2.2-.6.2-1.8 0-2.5-.3-.6-.5-.1-.5 1.3zm5 0c0 1.4.2 1.9.5 1.2.2-.6.2-1.8 0-2.5-.3-.6-.5-.1-.5 1.3zm-20 3c0 1.9.2 2.7.5 1.7.2-.9.2-2.5 0-3.5-.3-.9-.5-.1-.5 1.8zm127.1 6.5c0 3.3.2 4.5.4 2.7.2-1.8.2-4.5 0-6s-.4 0-.4 3.3zm-224.1.5c0 1.4.2 1.9.5 1.2.2-.6.2-1.8 0-2.5-.3-.6-.5-.1-.5 1.3zm74.1 8c0 3.6.2 5 .4 3.2.2-1.7.2-4.7 0-6.5-.2-1.7-.4-.3-.4 3.3zm-33-4.3c.9.2 2.5.2 3.5 0 .9-.3.1-.5-1.8-.5-1.9 0-2.7.2-1.7.5zm18.5 0c1.2.2 3.2.2 4.5 0 1.2-.2.2-.4-2.3-.4s-3.5.2-2.2.4zm210 0c2.3.2 6.1.2 8.5 0 2.3-.2.4-.4-4.3-.4s-6.6.2-4.2.4zM107.2 297c0 1.4.2 1.9.5 1.2.2-.6.2-1.8 0-2.5-.3-.6-.5-.1-.5 1.3zm52.6-.3c.6.2 1.8.2 2.5 0 .6-.3.1-.5-1.3-.5-1.4 0-1.9.2-1.2.5zm46.5 8.3c0 4.7.2 6.6.4 4.2.2-2.3.2-6.1 0-8.5-.2-2.3-.4-.4-.4 4.3zm128.8-4.4c0 1.1.3 1.4.6.6.3-.7.2-1.6-.1-1.9-.3-.4-.6.2-.5 1.3zm21.2 5.4c0 4.1.2 5.8.4 3.7.2-2 .2-5.4 0-7.5-.2-2-.4-.3-.4 3.8zm-251.1-3c0 1.4.2 1.9.5 1.2.2-.6.2-1.8 0-2.5-.3-.6-.5-.1-.5 1.3zm232 5c0 1.9.2 2.7.5 1.7.2-.9.2-2.5 0-3.5-.3-.9-.5-.1-.5 1.8zm-234 1c0 1.4.2 1.9.5 1.2.2-.6.2-1.8 0-2.5-.3-.6-.5-.1-.5 1.3zm82 1c0 1.9.2 2.7.5 1.7.2-.9.2-2.5 0-3.5-.3-.9-.5-.1-.5 1.8zm-48.9 3c0 2.5.2 3.5.4 2.2.2-1.2.2-3.2 0-4.5-.2-1.2-.4-.2-.4 2.3zm-18.3 1c0 1.6.5 3 1 3 .6 0 1-1.4 1-3 0-1.7-.4-3-1-3-.5 0-1 1.3-1 3zm-16.8 3.5c0 1.6.2 2.2.5 1.2.2-.9.2-2.3 0-3-.3-.6-.5.1-.5 1.8zm107-.5c0 1.4.2 1.9.5 1.2.2-.6.2-1.8 0-2.5-.3-.6-.5-.1-.5 1.3zm146 3c0 1.9.2 2.7.5 1.7.2-.9.2-2.5 0-3.5-.3-.9-.5-.1-.5 1.8zm-237.9 7c0 4.7.2 6.6.4 4.2.2-2.3.2-6.1 0-8.5-.2-2.3-.4-.4-.4 4.3zm5-.5c0 3.3.2 4.5.4 2.7.2-1.8.2-4.5 0-6s-.4 0-.4 3.3zm17.1 4.5c0 5.8.1 8.1.3 5.2.2-2.8.2-7.6 0-10.5-.2-2.8-.3-.5-.3 5.3zm192.8-7.5c0 1.6.2 2.2.5 1.2.2-.9.2-2.3 0-3-.3-.6-.5.1-.5 1.8zm-120.9 4c0 3.3.2 4.5.4 2.7.2-1.8.2-4.5 0-6s-.4 0-.4 3.3zm-111 2.5c0 4.1.2 5.8.4 3.7.2-2 .2-5.4 0-7.5-.2-2-.4-.3-.4 3.8zm95.9-2c0 1.9.2 2.7.5 1.7.2-.9.2-2.5 0-3.5-.3-.9-.5-.1-.5 1.8zm126.2 7.5c0 4.9.1 7.1.3 4.8.2-2.3.2-6.4 0-9-.2-2.6-.3-.8-.3 4.2zm30.8-5.5c0 1.9.2 2.7.5 1.7.2-.9.2-2.5 0-3.5-.3-.9-.5-.1-.5 1.8zm-113.9 3c0 2.5.2 3.5.4 2.2.2-1.2.2-3.2 0-4.5-.2-1.2-.4-.2-.4 2.3zm36.1 5c0 5.2.1 7.4.3 4.7.2-2.6.2-6.8 0-9.5-.2-2.6-.3-.4-.3 4.8zm52-1.5.1 7h7l.1-7v-7l-.3 6.7c-.4 6.8-.4 6.8-3.3 6.8s-2.9 0-3.3-6.8l-.3-6.7v7zM219.2 333c0 1.4.2 1.9.5 1.2.2-.6.2-1.8 0-2.5-.3-.6-.5-.1-.5 1.3zm5 .5c0 1.6.2 2.2.5 1.2.2-.9.2-2.3 0-3-.3-.6-.5.1-.5 1.8zm9 .5c0 1.9.2 2.7.5 1.7.2-.9.2-2.5 0-3.5-.3-.9-.5-.1-.5 1.8zm12.1 3c0 3.6.2 5 .4 3.2.2-1.7.2-4.7 0-6.5-.2-1.7-.4-.3-.4 3.3zm49.9 1.7c-.1 5.4-.6 8.3-1.4 8.6-1 .4-1 .6 0 .6 1.9.1 2.3-1.9 1.9-10l-.3-7.4-.2 8.2zm5.2.8c.1 7.3.3 8 2.1 8.1 1.4.1 1.5 0 .3-.3-1.4-.4-1.8-1.9-2.1-8.1l-.3-7.7v8zm8.9-2c0 3.8.2 5.3.4 3.2.2-2 .2-5.2 0-7-.2-1.7-.4-.1-.4 3.8zm5-.5c0 3.6.2 5 .4 3.2.2-1.7.2-4.7 0-6.5-.2-1.7-.4-.3-.4 3.3zm-64 2c0 3.6.2 5 .4 3.2.2-1.7.2-4.7 0-6.5-.2-1.7-.4-.3-.4 3.3zm38 2c0 4.7.2 6.6.4 4.2.2-2.3.2-6.1 0-8.5-.2-2.3-.4-.4-.4 4.3zm-91-1.5c0 2.7.2 3.8.4 2.2.2-1.5.2-3.7 0-5-.2-1.2-.4 0-.4 2.8zm65 1.5c0 3.6.2 5 .4 3.2.2-1.7.2-4.7 0-6.5-.2-1.7-.4-.3-.4 3.3zm6.9-.3c-.2 5.5-.4 6.2-2.4 6.6l-2.3.4 2.3.2c2.9.1 3.4-1.3 2.9-8l-.3-5.4-.2 6.2zm14 1-.2 7.2-3.2.4-3.3.4 3.3.1c4 .2 4.4-.7 3.9-8.9l-.3-6.4-.2 7.2zm-71-2.7c0 1.4.2 1.9.5 1.2.2-.6.2-1.8 0-2.5-.3-.6-.5-.1-.5 1.3zm45.1 4c0 3.6.2 5 .4 3.2.2-1.7.2-4.7 0-6.5-.2-1.7-.4-.3-.4 3.3zm92.9-3c0 1.9.2 2.7.5 1.7.2-.9.2-2.5 0-3.5-.3-.9-.5-.1-.5 1.8zm-249 1c0 1.4.2 1.9.5 1.2.2-.6.2-1.8 0-2.5-.3-.6-.5-.1-.5 1.3zm130 1.7c-.2 3.5-.6 4.2-2.4 4.6l-2.3.4 2.3.2c2.7.1 3.5-1.5 2.9-6.1-.3-3-.4-3-.5.9zm5.2.5c.1 4.1.3 4.3 3.1 4.4 2.7.1 2.7 0 .3-.3-2.3-.4-2.7-1-3.1-4.4l-.4-3.9.1 4.2zm-37.2 5.8c0 1.4.2 1.9.5 1.2.2-.6.2-1.8 0-2.5-.3-.6-.5-.1-.5 1.3zm52.6-1.3c.6.2 1.8.2 2.5 0 .6-.3.1-.5-1.3-.5-1.4 0-1.9.2-1.2.5zm96.3.9c0 1.1.3 1.4.6.6.3-.7.2-1.6-.1-1.9-.3-.4-.6.2-.5 1.3zm-230.8 8.1c1.5.2 3.9.2 5.5 0 1.5-.2.2-.4-2.8-.4s-4.3.2-2.7.4zm215 6c.9.2 2.5.2 3.5 0 .9-.3.1-.5-1.8-.5-1.9 0-2.7.2-1.7.5zm-51.9 6.5c.1 3.1.5 4.3 1.6 4.3s1.5-1.2 1.6-4.5l.1-4.5-.4 4.2c-.5 5.4-2.1 5.6-2.6.3l-.4-4 .1 4.2zm-42.4-2.6c2.8.5 2.9.8 3.3 6.7l.4 6.2-.1-6.5-.1-6.5-3.2-.3c-3.2-.2-3.2-.2-.3.4zm14.4.7c-.3.8-.3 3.9-.1 6.8l.3 5.4.2-6.3c.2-7.4 1.9-8.3 2.5-1.2l.4 5-.1-5.2c-.1-5-1.9-7.7-3.2-4.5zm14 0c-.3.9-.4 2.6-.1 3.9.3 1.7.5 1.5.6-1 .1-3.9 1.8-4.3 2.4-.5.4 2.8.4 2.8.3-.1-.1-3.2-2.2-4.7-3.2-2.3zm40 0c-.3.8-.3 5.4-.1 10.3l.3 8.9.2-9.7.2-9.7 6.3-.4 6.2-.3-6.3-.2c-4.4-.1-6.4.2-6.8 1.1zm-14.1 3.2c0 2.2.2 3 .4 1.7.2-1.2.2-3 0-4-.3-.9-.5.1-.4 2.3zm3 .5c0 2.5.2 3.5.4 2.2.2-1.2.2-3.2 0-4.5-.2-1.2-.4-.2-.4 2.3zm-56.1 15c0 1.9.2 2.7.5 1.7.2-.9.2-2.5 0-3.5-.3-.9-.5-.1-.5 1.8zm-2 7c0 1.4.2 1.9.5 1.2.2-.6.2-1.8 0-2.5-.3-.6-.5-.1-.5 1.3zm36.6-.3c1.7.2 4.7.2 6.5 0 1.7-.2.3-.4-3.3-.4-3.6 0-5 .2-3.2.4zm23.5 15.3c0 3 .2 4.3.4 2.7.2-1.5.2-3.9 0-5.5-.2-1.5-.4-.2-.4 2.8zm-66 5c0 3.6.2 5 .4 3.2.2-1.7.2-4.7 0-6.5-.2-1.7-.4-.3-.4 3.3zm86.9-3c0 1.9.2 2.7.5 1.7.2-.9.2-2.5 0-3.5-.3-.9-.5-.1-.5 1.8zm-68 2c0 1.9.2 2.7.5 1.7.2-.9.2-2.5 0-3.5-.3-.9-.5-.1-.5 1.8zm9.1 2c0 3 .2 4.3.4 2.7.2-1.5.2-3.9 0-5.5-.2-1.5-.4-.2-.4 2.8zm28.8.6c0 1.1.3 1.4.6.6.3-.7.2-1.6-.1-1.9-.3-.4-.6.2-.5 1.3zm32.1 2.4c0 1.4.2 1.9.5 1.2.2-.6.2-1.8 0-2.5-.3-.6-.5-.1-.5 1.3zm-68 2c0 1.4.2 1.9.5 1.2.2-.6.2-1.8 0-2.5-.3-.6-.5-.1-.5 1.3zm-19 6c0 1.4.2 1.9.5 1.2.2-.6.2-1.8 0-2.5-.3-.6-.5-.1-.5 1.3zm85.1 2c0 2.5.2 3.5.4 2.2.2-1.2.2-3.2 0-4.5-.2-1.2-.4-.2-.4 2.3zm-46 1.7c.9.2 2.5.2 3.5 0 .9-.3.1-.5-1.8-.5-1.9 0-2.7.2-1.7.5zm-10.5 3c.6.2 1.8.2 2.5 0 .6-.3.1-.5-1.3-.5-1.4 0-1.9.2-1.2.5zm8 2c1.7.2 4.7.2 6.5 0 1.7-.2.3-.4-3.3-.4-3.6 0-5 .2-3.2.4zm46.4 1.3c0 1.4.2 1.9.5 1.2.2-.6.2-1.8 0-2.5-.3-.6-.5-.1-.5 1.3zm-73 13c0 1.9.2 2.7.5 1.7.2-.9.2-2.5 0-3.5-.3-.9-.5-.1-.5 1.8zm32.6 2.7c1.7.2 4.7.2 6.5 0 1.7-.2.3-.4-3.3-.4-3.6 0-5 .2-3.2.4zm-19.1 2c-.4.3-.7 1.1-.7 1.7 0 .7.3.7.8-.1.4-.6 3-1.3 5.7-1.6l5-.3-5.1-.2c-2.8-.1-5.4.1-5.7.5zm33.1 0c.6.2 1.8.2 2.5 0 .6-.3.1-.5-1.3-.5-1.4 0-1.9.2-1.2.5zm-35.6 6.3c0 1.4.2 1.9.5 1.2.2-.6.2-1.8 0-2.5-.3-.6-.5-.1-.5 1.3zm41 1c0 1.9.2 2.7.5 1.7.2-.9.2-2.5 0-3.5-.3-.9-.5-.1-.5 1.8zm-15 3c0 1.4.2 1.9.5 1.2.2-.6.2-1.8 0-2.5-.3-.6-.5-.1-.5 1.3zm5.1 3c0 3 .2 4.3.4 2.7.2-1.5.2-3.9 0-5.5-.2-1.5-.4-.2-.4 2.8zm4.9-2c0 1.9.2 2.7.5 1.7.2-.9.2-2.5 0-3.5-.3-.9-.5-.1-.5 1.8zm-22.9 8c0 4.1.2 5.8.4 3.7.2-2 .2-5.4 0-7.5-.2-2-.4-.3-.4 3.8zm-14.2-3.4c0 1.1.3 1.4.6.6.3-.7.2-1.6-.1-1.9-.3-.4-.6.2-.5 1.3zm9.2 3.9c0 2.2.2 3 .4 1.7.2-1.2.2-3 0-4-.3-.9-.5.1-.4 2.3zm-46.5 3.2c.6.2 1.8.2 2.5 0 .6-.3.1-.5-1.3-.5-1.4 0-1.9.2-1.2.5zm71.4 2.3c0 1.9.2 2.7.5 1.7.2-.9.2-2.5 0-3.5-.3-.9-.5-.1-.5 1.8zm-93.4 1.7c1.7.2 4.7.2 6.5 0 1.7-.2.3-.4-3.3-.4-3.6 0-5 .2-3.2.4zm154 0c1.7.2 4.7.2 6.5 0 1.7-.2.3-.4-3.3-.4-3.6 0-5 .2-3.2.4zm-174.5 2c2.6.2 6.8.2 9.5 0 2.6-.2.4-.3-4.8-.3s-7.4.1-4.7.3zm161 0c.9.2 2.5.2 3.5 0 .9-.3.1-.5-1.8-.5-1.9 0-2.7.2-1.7.5zm39 0c1.5.2 3.9.2 5.5 0 1.5-.2.2-.4-2.8-.4s-4.3.2-2.7.4zm20.5 4c.6.2 1.8.2 2.5 0 .6-.3.1-.5-1.3-.5-1.4 0-1.9.2-1.2.5zM137.2 495c0 1.4.2 1.9.5 1.2.2-.6.2-1.8 0-2.5-.3-.6-.5-.1-.5 1.3zm118.6-.3c12.8.2 33.5.2 46 0 12.5-.1 2-.2-23.3-.2s-35.5.1-22.7.2zM169 497c0 .5 1.3 1 2.9 1 1.7 0 3.3-.5 3.6-1 .4-.6-.8-1-2.9-1-2 0-3.6.4-3.6 1zm141.3.7c2 .2 5.4.2 7.5 0 2-.2.3-.4-3.8-.4s-5.8.2-3.7.4zM135.2 502c0 1.9.2 2.7.5 1.7.2-.9.2-2.5 0-3.5-.3-.9-.5-.1-.5 1.8zm59.6-2.3c8.9.2 23.5.2 32.5 0 8.9-.1 1.6-.3-16.3-.3-17.9 0-25.2.2-16.2.3zm85.5 0c4.2.2 11.2.2 15.5 0 4.2-.1.7-.3-7.8-.3s-12 .2-7.7.3zM137.2 509c0 1.4.2 1.9.5 1.2.2-.6.2-1.8 0-2.5-.3-.6-.5-.1-.5 1.3zm217.6 7.7c6.7.2 17.7.2 24.5 0 6.7-.1 1.2-.3-12.3-.3s-19 .2-12.2.3zm-208.5 2c.9.2 2.5.2 3.5 0 .9-.3.1-.5-1.8-.5-1.9 0-2.7.2-1.7.5zm138.5 0c8.9.2 23.5.2 32.5 0 8.9-.1 1.6-.3-16.3-.3-17.9 0-25.2.2-16.2.3zm-25.5-485c2.6.2 6.8.2 9.5 0 2.6-.2.4-.3-4.8-.3s-7.4.1-4.7.3zm-77 6c2 .2 5.4.2 7.5 0 2-.2.3-.4-3.8-.4s-5.8.2-3.7.4zm193 0c1.5.2 3.9.2 5.5 0 1.5-.2.2-.4-2.8-.4s-4.3.2-2.7.4zm-242.5 6c1.2.2 3.2.2 4.5 0 1.2-.2.2-.4-2.3-.4s-3.5.2-2.2.4zm273.5 0c.9.2 2.5.2 3.5 0 .9-.3.1-.5-1.8-.5-1.9 0-2.7.2-1.7.5zm19.5 6c.6.2 1.8.2 2.5 0 .6-.3.1-.5-1.3-.5-1.4 0-1.9.2-1.2.5zm-174 6c.6.2 1.8.2 2.5 0 .6-.3.1-.5-1.3-.5-1.4 0-1.9.2-1.2.5zm101 0c1.2.2 3.2.2 4.5 0 1.2-.2.2-.4-2.3-.4s-3.5.2-2.2.4zm23 6c.6.2 1.8.2 2.5 0 .6-.3.1-.5-1.3-.5-1.4 0-1.9.2-1.2.5zm-133.5 12c13 .2 34.4.2 47.5 0 13-.1 2.3-.2-23.8-.2s-36.8.1-23.7.2zm84.5 0c2.3.2 6.1.2 8.5 0 2.3-.2.4-.4-4.3-.4s-6.6.2-4.2.4zm-196.1 5.4c.7.7 1.5 1 1.8.7.3-.3-.2-.9-1.2-1.2-1.4-.6-1.5-.5-.6.5zm17.6 6.6c.9.2 2.5.2 3.5 0 .9-.3.1-.5-1.8-.5-1.9 0-2.7.2-1.7.5zm236 0c.9.2 2.5.2 3.5 0 .9-.3.1-.5-1.8-.5-1.9 0-2.7.2-1.7.5zm-117.5 6c1.2.2 3.2.2 4.5 0 1.2-.2.2-.4-2.3-.4s-3.5.2-2.2.4zm35.5 0c.9.2 2.5.2 3.5 0 .9-.3.1-.5-1.8-.5-1.9 0-2.7.2-1.7.5zm-135 30c2.6.2 6.8.2 9.5 0 2.6-.2.4-.3-4.8-.3s-7.4.1-4.7.3zm31.5 0c1.2.2 3.2.2 4.5 0 1.2-.2.2-.4-2.3-.4s-3.5.2-2.2.4zm168.5 0c3.7.2 9.7.2 13.5 0 3.7-.2.6-.3-6.8-.3-7.4 0-10.5.1-6.7.3zm-31.5 6c.6.2 1.8.2 2.5 0 .6-.3.1-.5-1.3-.5-1.4 0-1.9.2-1.2.5zm-49.5 6c.9.2 2.5.2 3.5 0 .9-.3.1-.5-1.8-.5-1.9 0-2.7.2-1.7.5zm-106.5 24c.6.2 1.8.2 2.5 0 .6-.3.1-.5-1.3-.5-1.4 0-1.9.2-1.2.5zm36 0c.6.2 1.8.2 2.5 0 .6-.3.1-.5-1.3-.5-1.4 0-1.9.2-1.2.5zm147.5 0c1.5.2 3.9.2 5.5 0 1.5-.2.2-.4-2.8-.4s-4.3.2-2.7.4zm-224.6 5.4c.7.7 1.5 1 1.8.7.3-.3-.2-.9-1.2-1.2-1.4-.6-1.5-.5-.6.5zm101.1 6.6c.6.2 1.8.2 2.5 0 .6-.3.1-.5-1.3-.5-1.4 0-1.9.2-1.2.5zm27 6c2.3.2 6.1.2 8.5 0 2.3-.2.4-.4-4.3-.4s-6.6.2-4.2.4zm163.9 35.4c.7.7 1.5 1 1.8.7.3-.3-.2-.9-1.2-1.2-1.4-.6-1.5-.5-.6.5zm-28.9 54.6c.6.2 1.8.2 2.5 0 .6-.3.1-.5-1.3-.5-1.4 0-1.9.2-1.2.5zm-120.5 6c1.5.2 3.9.2 5.5 0 1.5-.2.2-.4-2.8-.4s-4.3.2-2.7.4zm66.5 0c.6.2 1.8.2 2.5 0 .6-.3.1-.5-1.3-.5-1.4 0-1.9.2-1.2.5zM218 345c-.9.6-1 1-.3 1 .6 0 1.5-.5 1.8-1 .8-1.2.4-1.2-1.5 0zm90 0c-.9.6-1 1-.3 1 .6 0 1.5-.5 1.8-1 .8-1.2.4-1.2-1.5 0zm12 0c-.9.6-1 1-.3 1 .6 0 1.5-.5 1.8-1 .8-1.2.4-1.2-1.5 0zm-49.2 54.7c1.2.2 3.2.2 4.5 0 1.2-.2.2-.4-2.3-.4s-3.5.2-2.2.4zm-64 78c1.2.2 3.2.2 4.5 0 1.2-.2.2-.4-2.3-.4s-3.5.2-2.2.4zm-53 6c1.7.2 4.7.2 6.5 0 1.7-.2.3-.4-3.3-.4-3.6 0-5 .2-3.2.4zm232.5 0c.9.2 2.5.2 3.5 0 .9-.3.1-.5-1.8-.5-1.9 0-2.7.2-1.7.5zM324.5 495c.4.6 5.7 1 12.6 1 7.3 0 11.9-.4 11.9-1s-4.9-1-12.6-1c-8.1 0-12.3.4-11.9 1zm-71.7 6.7c2.3.2 6.1.2 8.5 0 2.3-.2.4-.4-4.3-.4s-6.6.2-4.2.4z" fill="#FFF" fill-opacity=".25"/><path d="M335.8 518.7c.6.2 1.8.2 2.5 0 .6-.3.1-.5-1.3-.5-1.4 0-1.9.2-1.2.5z" fill="#FFF" fill-opacity=".24"/><path d="M110.9 54.7c-1.3 1.6-1.2 1.7.4.4.9-.7 1.7-1.5 1.7-1.7 0-.8-.8-.3-2.1 1.3zm-5.5 5.5-1.9 2.3 2.3-1.9c2.1-1.8 2.7-2.6 1.9-2.6-.2 0-1.2 1-2.3 2.2zm336.1-.2c1 1.1 2 2 2.3 2 .3 0-.3-.9-1.3-2s-2-2-2.3-2c-.3 0 .3.9 1.3 2zm-239 1c1 1.1 2 2 2.3 2 .3 0-.3-.9-1.3-2s-2-2-2.3-2c-.3 0 .3.9 1.3 2zm-49.6 5.7-2.4 2.8 2.8-2.4c2.5-2.3 3.2-3.1 2.4-3.1-.2 0-1.4 1.2-2.8 2.7zm228.6-.7c1 1.1 2 2 2.3 2 .3 0-.3-.9-1.3-2s-2-2-2.3-2c-.3 0 .3.9 1.3 2zm64.5-1.6c0 .2.8 1 1.8 1.7 1.5 1.3 1.6 1.2.3-.4s-2.1-2.1-2.1-1.3zm-61.4 8.4-1.9 2.7 2.4-2.2c1.2-1.2 2.1-2.4 1.8-2.7-.2-.2-1.3.8-2.3 2.2zm32.3-.1c-1.3 1.6-1.2 1.7.4.4 1.6-1.3 2.1-2.1 1.3-2.1-.2 0-1 .8-1.7 1.7zm-285.3 5c-.6 1.4-.5 1.5.5.6.7-.7 1-1.5.7-1.8-.3-.3-.9.2-1.2 1.2zm278.3 0c-1.3 1.6-1.2 1.7.4.4 1.6-1.3 2.1-2.1 1.3-2.1-.2 0-1 .8-1.7 1.7zm-350 6c-1.3 1.6-1.2 1.7.4.4 1.6-1.3 2.1-2.1 1.3-2.1-.2 0-1 .8-1.7 1.7zm74.5 31.5-1.9 2.3 2.3-1.9c2.1-1.8 2.7-2.6 1.9-2.6-.2 0-1.2 1-2.3 2.2zM411 131.4c0 .2.8 1 1.8 1.7 1.5 1.3 1.6 1.2.3-.4s-2.1-2.1-2.1-1.3zm-130.1 7.3-2.4 2.8 2.8-2.4c2.5-2.3 3.2-3.1 2.4-3.1-.2 0-1.4 1.2-2.8 2.7zm11.1-2.3c0 .2.8 1 1.8 1.7 1.5 1.3 1.6 1.2.3-.4s-2.1-2.1-2.1-1.3zm26.9 2.3-2.4 2.8 2.8-2.4c1.5-1.4 2.7-2.6 2.7-2.8 0-.8-.8-.1-3.1 2.4zm99.1-.2c1.3 1.4 2.6 2.5 2.8 2.5.3 0-.5-1.1-1.8-2.5s-2.6-2.5-2.8-2.5c-.3 0 .5 1.1 1.8 2.5zm-195.5.5c1 1.1 2 2 2.3 2 .3 0-.3-.9-1.3-2s-2-2-2.3-2c-.3 0 .3.9 1.3 2zm178 0c1 1.1 2 2 2.3 2 .3 0-.3-.9-1.3-2s-2-2-2.3-2c-.3 0 .3.9 1.3 2zM228 144.4c.7.7 1.3.7 2 0 .6-.6.3-1-1-1s-1.6.4-1 1zM124.5 159c1 1.1 2 2 2.3 2 .3 0-.3-.9-1.3-2s-2-2-2.3-2c-.3 0 .3.9 1.3 2zm249 3c1 1.1 2 2 2.3 2 .3 0-.3-.9-1.3-2s-2-2-2.3-2c-.3 0 .3.9 1.3 2zm-291.1 1.2-1.9 2.3 2.3-1.9c1.2-1.1 2.2-2.1 2.2-2.3 0-.8-.8-.2-2.6 1.9zm322.5-.5c-1.3 1.6-1.2 1.7.4.4 1.6-1.3 2.1-2.1 1.3-2.1-.2 0-1 .8-1.7 1.7zm-276.3 3.2c-.7 1 2 3.4 4.1 3.7 1.1.2.8-.5-.8-2.2-2.5-2.7-2.6-2.7-3.3-1.5zm2.5 1.8c1.3 1.6 1.2 1.7-.3.4-1.7-1.3-2.2-2.1-1.4-2.1.2 0 1 .8 1.7 1.7zm246.9-1.3c0 .2.8 1 1.8 1.7 1.5 1.3 1.6 1.2.3-.4s-2.1-2.1-2.1-1.3zm44 1.1c-.7.8-.9 1.5-.4 1.5.4 0-1 1.9-3.1 4.2-2.2 2.3-3.1 3.5-2 2.6 1.1-.9 2.3-1.7 2.8-1.7.4-.1.7-.4.8-.9 0-.4.8-1.5 1.6-2.5.9-.9 1.3-1.7.8-1.7-.4 0-.2-.7.5-1.5s1-1.5.7-1.5c-.2 0-1 .7-1.7 1.5zm-284.6 6.3c.4.3 1.4.7 2.2.8.9.1 1.3 0 1-.4-.4-.3-1.4-.7-2.2-.8-.9-.1-1.3 0-1 .4zm123 1.4-1.9 2.3 2.3-1.9c1.2-1.1 2.2-2.1 2.2-2.3 0-.8-.8-.2-2.6 1.9zm22.1-.2c1 1.1 2 2 2.3 2 .3 0-.3-.9-1.3-2s-2-2-2.3-2c-.3 0 .3.9 1.3 2zm-23.6 5.7-2.4 2.8 2.8-2.4c2.5-2.3 3.2-3.1 2.4-3.1-.2 0-1.4 1.2-2.8 2.7zm21.1-2.3c0 .2.8 1 1.8 1.7 1.5 1.3 1.6 1.2.3-.4s-2.1-2.1-2.1-1.3zm162.4 2.8-1.9 2.3 2.3-1.9c1.2-1.1 2.2-2.1 2.2-2.3 0-.8-.8-.2-2.6 1.9zM80.5 187c1 1.1 2 2 2.3 2 .3 0-.3-.9-1.3-2s-2-2-2.3-2c-.3 0 .3.9 1.3 2zm215.4 22.7c-1.3 1.6-1.2 1.7.4.4 1.6-1.3 2.1-2.1 1.3-2.1-.2 0-1 .8-1.7 1.7zm-159.5 1.5-1.9 2.3 2.3-1.9c2.1-1.8 2.7-2.6 1.9-2.6-.2 0-1.2 1-2.3 2.2zm272.1-.2c1 1.1 2 2 2.3 2 .3 0-.3-.9-1.3-2s-2-2-2.3-2c-.3 0 .3.9 1.3 2zm-163 1.1c-.3.4.2.6 1 .5 2.1-.3 2.8-1.3 1-1.3-.9 0-1.8.4-2 .8zm-115.1 5.1-1.9 2.3 2.3-1.9c2.1-1.8 2.7-2.6 1.9-2.6-.2 0-1.2 1-2.3 2.2zm282.1-.2c1 1.1 2 2 2.3 2 .3 0-.3-.9-1.3-2s-2-2-2.3-2c-.3 0 .3.9 1.3 2zm-286.1 6.2-1.9 2.3 2.3-1.9c2.1-1.8 2.7-2.6 1.9-2.6-.2 0-1.2 1-2.3 2.2zm176.1 5.8c1 1.1 2 2 2.3 2 .3 0-.3-.9-1.3-2s-2-2-2.3-2c-.3 0 .3.9 1.3 2zm-78.6 4.2c-.5 1.8-.6 3.8-.1 3.4.7-.8 1.2-3.6.6-3.6-.2 0-.4.1-.5.2zm162.5 2-1.9 2.3 2.3-1.9c2.1-1.8 2.7-2.6 1.9-2.6-.2 0-1.2 1-2.3 2.2zm-285 6.6c.4.3 1.4.7 2.2.8.9.1 1.3 0 1-.4-.4-.3-1.4-.7-2.2-.8-.9-.1-1.3 0-1 .4zm36.1 16.2c1 1.1 2 2 2.3 2 .3 0-.3-.9-1.3-2s-2-2-2.3-2c-.3 0 .3.9 1.3 2zm91 1c1 1.1 2 2 2.3 2 .3 0-.3-.9-1.3-2s-2-2-2.3-2c-.3 0 .3.9 1.3 2zm33.9.2-1.9 2.3 2.3-1.9c1.2-1.1 2.2-2.1 2.2-2.3 0-.8-.8-.2-2.6 1.9zm34 0-1.9 2.3 2.3-1.9c1.2-1.1 2.2-2.1 2.2-2.3 0-.8-.8-.2-2.6 1.9zM143.5 264c1 1.1 2 2 2.3 2 .3 0-.3-.9-1.3-2s-2-2-2.3-2c-.3 0 .3.9 1.3 2zm263.9.2-1.9 2.3 2.3-1.9c2.1-1.8 2.7-2.6 1.9-2.6-.2 0-1.2 1-2.3 2.2zm-315 1-1.9 2.3 2.3-1.9c2.1-1.8 2.7-2.6 1.9-2.6-.2 0-1.2 1-2.3 2.2zm20.6-1.8c0 .2.8 1 1.8 1.7 1.5 1.3 1.6 1.2.3-.4s-2.1-2.1-2.1-1.3zm151.9 1.3c-1.3 1.6-1.2 1.7.3.5.9-.8 2.3-1 2.9-.6.8.4.9.3.5-.4-1-1.7-2.1-1.5-3.7.5zm45.6.3c1 1.1 2 2 2.3 2 .3 0-.3-.9-1.3-2s-2-2-2.3-2c-.3 0 .3.9 1.3 2zm-51.1 5.2-1.9 2.3 2.3-1.9c2.1-1.8 2.7-2.6 1.9-2.6-.2 0-1.2 1-2.3 2.2zm-140.9.8c1 1.1 2 2 2.3 2 .3 0-.3-.9-1.3-2s-2-2-2.3-2c-.3 0 .3.9 1.3 2zm124.9 5.1c-.3.6-.2 1.5.3 2s.9.1.9-1.1c0-2.3-.2-2.4-1.2-.9zm17 1.1-1.9 2.3 2.3-1.9c1.2-1.1 2.2-2.1 2.2-2.3 0-.8-.8-.2-2.6 1.9zm80.5-.5c-1.3 1.6-1.2 1.7.4.4 1.6-1.3 2.1-2.1 1.3-2.1-.2 0-1 .8-1.7 1.7zm77.5.5-1.9 2.3 2.3-1.9c1.2-1.1 2.2-2.1 2.2-2.3 0-.8-.8-.2-2.6 1.9zm-83.5 5.5-2.4 2.8 2.8-2.4c2.5-2.3 3.2-3.1 2.4-3.1-.2 0-1.4 1.2-2.8 2.7zm-204.4.3c1 1.1 2 2 2.3 2 .3 0-.3-.9-1.3-2s-2-2-2.3-2c-.3 0 .3.9 1.3 2zm281.9.2-1.9 2.3 2.3-1.9c2.1-1.8 2.7-2.6 1.9-2.6-.2 0-1.2 1-2.3 2.2zM224.5 289c1 1.1 2 2 2.3 2 .3 0-.3-.9-1.3-2s-2-2-2.3-2c-.3 0 .3.9 1.3 2zm-34 30c1 1.1 2 2 2.3 2 .3 0-.3-.9-1.3-2s-2-2-2.3-2c-.3 0 .3.9 1.3 2zm57.1 4.8c-.2.4.4.8 1.4.8 1 0 1.6-.4 1.4-.8-.3-.4-.9-.8-1.4-.8-.5 0-1.1.4-1.4.8zm73.9 2.2c-.3.6.1.7.9.4 1.8-.7 2.1-1.4.7-1.4-.6 0-1.3.4-1.6 1zm-87.6 3.7c-1.3 1.6-1.2 1.7.4.4.9-.7 1.7-1.5 1.7-1.7 0-.8-.8-.3-2.1 1.3zm24 6c-1.3 1.6-1.2 1.7.4.4.9-.7 1.7-1.5 1.7-1.7 0-.8-.8-.3-2.1 1.3zm-44.9 5.7c0 .2.8 1 1.8 1.7 1.5 1.3 1.6 1.2.3-.4s-2.1-2.1-2.1-1.3zm-78.6 7.8-1.9 2.3 2.3-1.9c2.1-1.8 2.7-2.6 1.9-2.6-.2 0-1.2 1-2.3 2.2zm84.1 11.8c1 1.1 2 2 2.3 2 .3 0-.3-.9-1.3-2s-2-2-2.3-2c-.3 0 .3.9 1.3 2zm89.5 27.4c0 .2.8 1 1.8 1.7 1.5 1.3 1.6 1.2.3-.4s-2.1-2.1-2.1-1.3zm-47.6 8.8-1.9 2.3 2.3-1.9c2.1-1.8 2.7-2.6 1.9-2.6-.2 0-1.2 1-2.3 2.2zm30.1-.2c1 1.1 2 2 2.3 2 .3 0-.3-.9-1.3-2s-2-2-2.3-2c-.3 0 .3.9 1.3 2zm-28.1 6.2-1.9 2.3 2.3-1.9c2.1-1.8 2.7-2.6 1.9-2.6-.2 0-1.2 1-2.3 2.2zm-1.4 18.3c1.3 1.4 2.6 2.5 2.8 2.5.3 0-.5-1.1-1.8-2.5s-2.6-2.5-2.8-2.5c-.3 0 .5 1.1 1.8 2.5zm-6 3.9c0 .2.8 1 1.8 1.7 1.5 1.3 1.6 1.2.3-.4s-2.1-2.1-2.1-1.3zm33.9 1.3c-1.3 1.6-1.2 1.7.4.4 1.6-1.3 2.1-2.1 1.3-2.1-.2 0-1 .8-1.7 1.7zm20.6 19.3c-2.4 2.5-2.7 3.2-1.5 4.3 1 1 1.1.9.5-.1-.4-.9.3-2.5 2.1-4.3 1.5-1.6 2.5-2.9 2.3-2.9-.3 0-1.8 1.4-3.4 3zm-56 16.1c-.3.4.2.6 1 .5 2.1-.3 2.8-1.3 1-1.3-.9 0-1.8.4-2 .8zm-24.1 6.1-1.9 2.3 2.3-1.9c2.1-1.8 2.7-2.6 1.9-2.6-.2 0-1.2 1-2.3 2.2zm88.1-.2c1 1.1 2 2 2.3 2 .3 0-.3-.9-1.3-2s-2-2-2.3-2c-.3 0 .3.9 1.3 2zm-22 6c1 1.1 2 2 2.3 2 .3 0-.3-.9-1.3-2s-2-2-2.3-2c-.3 0 .3.9 1.3 2zm28 0c1 1.1 2 2 2.3 2 .3 0-.3-.9-1.3-2s-2-2-2.3-2c-.3 0 .3.9 1.3 2zm-77.1 1.2-1.9 2.3 2.3-1.9c2.1-1.8 2.7-2.6 1.9-2.6-.2 0-1.2 1-2.3 2.2zm56.1-.2c1 1.1 2 2 2.3 2 .3 0-.3-.9-1.3-2s-2-2-2.3-2c-.3 0 .3.9 1.3 2zm27.5 3.4c0 .2.8 1 1.8 1.7 1.5 1.3 1.6 1.2.3-.4s-2.1-2.1-2.1-1.3zm-85.1 2.3c-1.3 1.6-1.2 1.7.4.4.9-.7 1.7-1.5 1.7-1.7 0-.8-.8-.3-2.1 1.3zm-102 6c-1.3 1.6-1.2 1.7.4.4 1.6-1.3 2.1-2.1 1.3-2.1-.2 0-1 .8-1.7 1.7zm-5 5c-1.3 1.6-1.2 1.7.4.4 1.6-1.3 2.1-2.1 1.3-2.1-.2 0-1 .8-1.7 1.7zm271.1-.3c0 .2.8 1 1.8 1.7 1.5 1.3 1.6 1.2.3-.4s-2.1-2.1-2.1-1.3zm-.6 19.8-1.9 2.3 2.3-1.9c1.2-1.1 2.2-2.1 2.2-2.3 0-.8-.8-.2-2.6 1.9z" fill="#FFF" fill-opacity=".19"/><path d="M294 146.4c.7.7 1.3.7 2 0 .6-.6.3-1-1-1s-1.6.4-1 1zm16 134c.7.7 1.3.7 2 0 .6-.6.3-1-1-1s-1.6.4-1 1z" fill="#FFF" fill-opacity=".18"/><path d="M289.4 411c0 1.3.4 1.6 1 1 .7-.7.7-1.3 0-2-.6-.6-1-.3-1 1z" fill="#FFF" fill-opacity=".07"/><path d="M130 167.5c1.3 1.4 2.6 2.5 2.8 2.5.3 0-.5-1.1-1.8-2.5s-2.6-2.5-2.8-2.5c-.3 0 .5 1.1 1.8 2.5zm288.9 6.2c-1.3 1.6-1.2 1.7.4.4 1.6-1.3 2.1-2.1 1.3-2.1-.2 0-1 .8-1.7 1.7z" fill="#FFF" fill-opacity=".06"/><g fill="#FFF" stroke-width="0"><path d="M250.5 35c-.4.6-7 1-16.5 1s-16.1.4-16.5 1c-.3.6-5.2 1-11 1s-10.7.4-11 1c-.3.5-4.6 1-9.5 1s-9.2.4-9.5 1c-.3.5-4.6 1-9.5 1s-9.2.4-9.5 1c-.3.5-4.4 1-9.1 1-4.9 0-8.4.4-8.4 1 0 .5-2.4 1-5.4 1-3 0-5.8.4-6.1 1-.3.5-1.5 1-2.6 1-1 0-1.9.4-1.9 1 0 .5-.9 1-2 1s-2 .4-2 1c0 .5-.9 1-2 1s-2 .4-2 1c0 .5-.7 1-1.6 1-2.5 0-14.4 12.9-14.4 15.6 0 1.3-.4 2.4-1 2.4s-1 3.7-1 9 .4 9 1 9 1 .7 1 1.5c0 3.4 5.8 10.5 8.5 10.5.8 0 1.5.4 1.5 1 0 .5.9 1 2 1 1.3 0 2 .7 2 2 0 1.1-.4 2-1 2-.5 0-1 .9-1 2s-.4 2-1 2c-.5 0-1 .9-1 2s-.4 2-1 2c-.5 0-1 1.3-1 3 0 1.6-.4 3-1 3-.5 0-1 .9-1 2s-.4 2-1 2c-.5 0-1 .9-1 2s-.4 2-1 2c-.5 0-1 1.3-1 3 0 1.6-.4 3-1 3-.5 0-1 1.3-1 3 0 1.6-.4 3-1 3-.5 0-1 1.3-1 3 0 1.6-.4 3-1 3s-1 5-1 13 .4 13 1 13 1 .9 1 2 .5 2 1 2c.6 0 1 .9 1 2s.5 2 1 2c.6 0 1 .6 1 1.4 0 .7 1.8 3.2 4 5.5 2.2 2.2 4 4.7 4 5.4 0 .7.9 1.9 2 2.7 1.1.8 2 2.2 2 3.2s.5 1.8 1 1.8c.6 0 1 1.8 1 4s-.4 4-1 4c-.5 0-1 1.3-1 3 0 1.6-.4 3-1 3-.5 0-1 .9-1 2s-.4 2-1 2c-.5 0-1 .9-1 2s-.4 2-1 2c-.5 0-1 1.1-1 2.4 0 1.4-.4 2.8-1 3.1-.5.3-1 1.7-1 3s-.4 2.7-1 3c-.5.3-1 1.9-1 3.6 0 1.6.5 2.9 1 2.9.6 0 1 .9 1 2 0 2.8 2.3 10 3.2 10 .5 0 .8.9.8 2s.5 2 1 2c.6 0 1 .7 1 1.6 0 .9 1.4 2.9 3 4.4 1.7 1.5 3 3.3 3 4 0 1.7 18.7 20 20.5 20 .8 0 1.5.4 1.5 1 0 .5.9 1 2 1s2 .4 2 1c0 .5.9 1 2 1s2 .4 2 1c0 .5 1.8 1 3.9 1 2.2 0 4.3.4 4.6 1 .3.5 2.6 1 5.1 1 2.4 0 4.4-.5 4.4-1 0-.6 2.3-1 5-1 2.8 0 5-.5 5-1 0-.6 1.8-1 4-1h4v7c0 4 .4 7 1 7s1 1.6 1 3.6c0 2.8.8 4.3 4 7.4 2.2 2.1 4 4.6 4 5.4 0 .9.5 1.6 1 1.6.6 0 1 2 1 4.4 0 2.5.5 4.8 1 5.1.6.3 1 3.3 1 6.6s.4 5.9 1 5.9 1 1.5 1 3.2c0 2 .9 4.4 2.4 6 2.1 2.5 3 2.8 8.7 2.8 5.3 0 6.7.4 7.9 2 .8 1.1 2.4 2 3.7 2 1.2 0 2.5.4 2.8 1 .3.5 1.9 1 3.5 1s3.2.4 3.5 1c.3.5 2.6 1 5.1 1h4.4v6.9c0 3.9-.4 7.3-1 7.6-.5.3-1 2.6-1 5.1 0 2.4-.4 4.4-1 4.4-.5 0-1 1.3-1 3 0 1.6-.4 3-1 3-.5 0-1 .9-1 2s-.4 2-1 2c-.5 0-1 .9-1 1.9 0 1.1-.4 2.3-1 2.6-1.3.8-1.3 17.5 0 17.5.6 0 1 1.3 1 2.9 0 1.7.5 3.3 1 3.6.6.3 1 1.7 1 3.1 0 1.3.5 2.4 1 2.4.6 0 1 .9 1 2s.5 2 1 2c.6 0 1 .8 1 1.8s.9 2.4 2 3.2c1.4 1 2 2.6 2 5.2 0 2.1-.4 3.8-1 3.8-.5 0-1 .6-1 1.4 0 .7-1.4 2.7-3 4.4-1.7 1.8-3 3.6-3 4 0 1.6-8.8 10.2-10.4 10.2-.9 0-1.6.4-1.6 1 0 .5-.9 1-2 1s-2 .4-2 1c0 .5-1.3 1-3 1-1.6 0-3 .4-3 1 0 .5-2.2 1-5 1-2.7 0-5 .4-5 .9 0 1-7.6 1.8-26 2.7-5.8.3-10.9.9-11.4 1.5-.6.5-4.5.9-8.7.9-4.3 0-8.1.5-8.4 1-.3.6-1.5 1-2.6 1-2.9 0-8.9 6.4-8.9 9.5 0 1.4-.4 2.5-1 2.5-.5 0-1 1.8-1 4s.5 4 1 4c.6 0 1 1.3 1 3 0 1.6.5 3 1 3 .6 0 1 .7 1 1.6 0 2.8 2.7 4.4 7.4 4.4 2.5 0 4.6.4 4.6 1 0 1.4 113.6 1.4 114.5 0 .4-.6 13.8-1 37-1s36.6-.4 37-1c.4-.6 10.2-1 26-1s25.6-.4 26-1c.3-.6 3.1-1 6.1-1 3 0 5.4-.5 5.4-1 0-.6.7-1 1.6-1 2.4 0 6.4-5.3 6.4-8.5 0-.8.5-1.5 1-1.5.6 0 1-1.1 1-2.5 0-2.9-4-7.5-6.5-7.5-.8 0-1.5-.5-1.5-1 0-.6-.9-1-2-1s-2-.5-2-1c0-.6-.9-1-2-1s-2-.5-2-1c0-.6-1.3-1-3-1-1.6 0-3-.5-3-1 0-.6-1.7-1-3.8-1-2.1 0-4.2-.4-4.8-.9-1.8-1.8-39.1-3.8-40.7-2.2-.6.6-3.2 1.1-5.7 1.1-3.4 0-4.9-.5-6-2-.8-1.1-2-2-2.7-2-1.9 0-14.3-12.6-14.3-14.5 0-.8-.3-1.5-.7-1.5-.9 0-3.3-4.9-3.3-6.7 0-.7-.4-1.3-1-1.3-.5 0-1-.9-1-1.9 0-1.1-.6-2.1-1.2-2.4-.8-.2.4-2 3-4.5 2.3-2.2 4.2-4.8 4.2-5.6 0-.9.5-1.6 1-1.6.6 0 1-1.4 1-3 0-1.7.5-3 1-3 .6 0 1-2.3 1-5 0-2.8.5-5 1-5 .6 0 1-1.8 1-4s-.4-4-1-4c-.5 0-1-1.8-1-4s-.4-4-1-4c-.5 0-1-.9-1-2s-.4-2-1-2c-.5 0-1-.9-1-2s-.4-2-1-2c-.5 0-1-.9-1-2s-.4-2-1-2c-.5 0-1-.8-1-1.8s-.9-2.4-2-3.2c-1.8-1.3-2-2.6-2-12.2V366h8c4.7 0 8-.4 8-1s1.8-1 4-1 4-.5 4-1c0-.6 1.8-1 4-1s4-.5 4-1c0-.6.7-1 1.5-1 2 0 6.5-4.5 6.5-6.5 0-.8.5-1.5 1-1.5.6 0 1-1.3 1-2.9 0-1.7.5-3.3 1-3.6.6-.3 1-2.6 1-5s.4-4.7 1-5c.5-.3 1-2.6 1-5.1 0-2.4.5-4.4 1-4.4.6 0 1-2.2 1-4.9 0-2.8.4-5.3 1-5.6.5-.3 1-4.4 1-9.1 0-4.9.4-8.4 1-8.4s1-.7 1-1.6c0-.9.8-2.3 1.8-3 2-1.6 12.8-1.9 13.7-.4.8 1.3 19.2 1.3 20 0 .3-.6 1.9-1 3.6-1 1.6 0 2.9-.5 2.9-1 0-.6.9-1 2-1s2-.5 2-1c0-.6.6-1 1.4-1 1.6 0 17.6-15.4 17.6-16.9 0-.6 1.1-2.1 2.5-3.5s2.5-3.2 2.5-4.1c0-.8.4-1.5.9-1.5s1.4-1.4 2.1-3c.7-1.7 1.6-3 2.1-3s.9-.9.9-2 .5-2 1-2c.6 0 1-.9 1-2s.5-2 1-2c.6 0 1-1.4 1-3 0-1.7.5-3 1-3 .6 0 1-2.7 1-6s-.4-6-1-6c-.5 0-1-1.4-1-3 0-1.7-.4-3-1-3-.5 0-1-1.4-1-3 0-1.7-.4-3-1-3-.5 0-1-.9-1-2 0-1.3-.7-2-2-2-1.8 0-2-.7-2-7 0-4 .4-7 1-7s1-1.4 1-3c0-1.7.5-3 1-3 .6 0 1-.9 1-2s.5-2 1-2c.6 0 1-.7 1-1.5s2.3-3.8 5-6.6c2.8-2.8 5-5.7 5-6.5 0-.8.5-1.4 1-1.4.6 0 1-.9 1-2s.5-2 1-2c.6 0 1-1.8 1-3.9 0-2.2.5-4.3 1-4.6.6-.3 1-2.2 1-4.1 0-1.9-.4-3.4-1-3.4-.5 0-1-2.3-1-5 0-2.8-.4-5-1-5-.5 0-1-1.4-1-3 0-1.7-.4-3-1-3-.5 0-1-.9-1-2s-.4-2.9-1-4c-.5-1.1-1.4-2.9-2-4-.5-1.1-1-2.9-1-4s-.4-2-1-2c-.5 0-1-1.8-1-4s-.4-4-1-4c-.5 0-1-2.2-1-4.9 0-2.8-.4-5.3-1-5.6-2.2-1.3-1-6.7 2-9.5 1.7-1.5 3-3.5 3-4.4 0-.9.5-1.6 1-1.6.6 0 1-.9 1-2s.5-2 1-2c.6 0 1-.9 1-1.9 0-1.1.5-2.3 1-2.6.6-.3 1-3.3 1-6.6 0-5.9-.1-6-5.5-11.4-3-3-6.1-5.5-7-5.5-.8 0-1.5-.5-1.5-1 0-.6-.9-1-2-1s-2-.5-2-1c0-.6-1.3-1-3-1-1.6 0-3-.3-3-.8 0-.9-7.2-3.2-10-3.2-1.1 0-2-.5-2-1 0-.6-2-1-4.4-1-2.5 0-4.8-.5-5.1-1-.3-.6-2.4-1-4.6-1-2.1 0-3.9-.5-3.9-1 0-.6-2.2-1-5-1-2.7 0-5-.5-5-1 0-.6-3-1-7-1s-7-.4-7-1-4.8-1-12.4-1c-7.3 0-12.7-.4-13.1-1-.4-.6-10.5-1-27-1-18.3 0-27.2-.4-29-1.2-2.1-.9-3.1-.9-4.7.1-1.5.9-2.3 1-3.1.2-1.4-1.4-29.3-1.5-30.2-.1zm109 18.9c19.7 1.6 24.5 2.2 24.5 3.2 0 .5 1.8.9 4 .9s4 .4 4 1c0 .5 1.8 1 4 1s4 .4 4 1c0 .5.9 1 2 1 2.8 0 10 2.3 10 3.2 0 .5.9.8 2 .8s2 .4 2 1c0 .5.9 1 2 1s2 .7 2 1.5c0 1.9-4.4 6.5-6.2 6.5-.8 0-2 .9-2.8 2-.8 1.1-2.2 2-3.2 2s-1.8.4-1.8 1c0 .5-.9 1-2 1s-2 .4-2 1c0 .5-.9 1-1.9 1-1.1 0-2.3.4-2.6 1-.3.5-2.2 1-4.1 1-1.9 0-3.4.4-3.4 1 0 .5-1.8 1-4 1s-4 .4-4 1-3.3 1-7.9 1c-4.4 0-8.3.4-8.6 1-.4.6-7.7 1-18.5 1s-18.1.4-18.5 1c-.9 1.4-7.1 1.3-9.4-.2-1.5-.9-3.1-.9-7.3.1-3.3.8-7.9 1.1-12.3.7-18.6-1.7-21.9-1.7-24-.6-1.5.8-4.2 1-8.1.5-3.3-.4-27.8-.9-54.6-1.1-31-.3-48.8-.8-48.8-1.4 0-.6-2.2-1-5-1-2.7 0-5-.5-5-1 0-.6-1.8-1-4-1s-4-.5-4-1c0-.6-1.3-1-3-1-1.6 0-3-.5-3-1 0-.6-1.3-1-3-1-1.6 0-3-.5-3-1 0-.6-.9-1-2-1-2.2 0-2.9-3.5-.7-4.3.8-.3.5-1.1-1-2.4-2.5-2.3-3-5.8-1-7.6 2.1-1.9 5.6-3.7 7.2-3.7.8 0 1.5-.5 1.5-1 0-.6.9-1 1.9-1 1.1 0 2.2-.4 2.5-.9.6-.9 5.1-1.8 14.1-2.7 2.8-.3 5.9-.9 7-1.4 2-1 11.6-1.4 50.5-2.6 10.7-.3 19.9-.9 20.3-1.3 1.2-1.2 109.6-.5 125.2.8zm46.9 53.7c.9.3 1.6 1.4 1.6 2.3 0 .9.9 2.3 2 3.1 1.1.8 2 2 2 2.7 0 .7 1.4 2.7 3 4.5 1.7 1.7 3 3.7 3 4.4 0 .8.5 1.4 1 1.4.6 0 1 .9 1 2s.3 2 .8 2c.8 0 3.2 4.9 3.2 6.7 0 .7.5 1.3 1 1.3.6 0 1 .9 1 2s.5 2 1 2c.6 0 1 4 1 10s-.4 10-1 10c-.5 0-1 .9-1 2s-.4 2-1 2c-.5 0-1 .9-1 2s-.4 2-1 2c-.5 0-1 .9-1 2s-.4 2-1 2c-.5 0-1 .9-1 1.9 0 1.1-.4 2.3-1 2.6-.5.3-1 1.7-1 3.1 0 4-3.4 2.7-3.8-1.4-.3-2.6.3-3.9 2.7-6.1 1.7-1.6 3.1-3.6 3.1-4.5 0-.9.5-1.6 1-1.6.6 0 1-4.7 1-12s-.4-12-1-12c-.5 0-1-.7-1-1.5 0-.9-2-3.6-4.5-6-2.4-2.5-5.1-4.5-6-4.5-.8 0-1.5-.5-1.5-1 0-.6-.9-1-2-1s-2-.5-2-1c0-.6-1.3-1-2.9-1-1.7 0-3.3-.5-3.6-1-.3-.6-2.6-1-5.1-1-2.4 0-4.4-.5-4.4-1 0-.6-5.5-1-14.4-1-8.6 0-14.7.4-15.1 1-.3.5-2.8 1-5.6 1-2.7 0-4.9.4-4.9 1 0 .5-1.8 1-4 1s-4 .4-4 1c0 .5-1.3 1-2.9 1-1.7 0-3.3.4-3.6 1-.3.5-1.7 1-3.1 1-1.3 0-2.4.4-2.4 1 0 .5-.7 1-1.5 1-1.4 0-8.5 6.2-8.5 7.5 0 1.5 5.7.3 7-1.5.8-1.2 2.6-2 4.2-2 1.5 0 2.8-.5 2.8-1 0-.6 1.8-1 4-1s4-.5 4-1c0-.6 1.8-1 3.9-1 2.2 0 4.3-.5 4.6-1 .4-.6 8.2-1 20.1-1 12.3 0 19.4.4 19.4 1 0 .5 1.5 1 3.4 1s3.8.4 4.1 1c.3.5 1.3 1 2.1 1 2.1 0 9.5 7.8 12.2 12.9 2.3 4.5 2.9 9.1 1.2 9.1-.5 0-1 .9-1 2 0 1.3-.7 2-1.8 2-1 0-2.4.9-3.2 2-.8 1.1-2.2 2-3.2 2s-1.8.4-1.8 1c0 .5-1.8 1-4 1s-4 .4-4 1c0 .5-2.5 1-5.6 1-5.3 0-5.7-.2-10.4-5s-5.1-5-10.4-5c-3.1 0-5.6-.5-5.6-1 0-.6-2.2-1-4.9-1-2.8 0-5.3-.5-5.6-1-.3-.6-3.1-1-6.1-1-3 0-5.4.4-5.4 1 0 .5-1.3 1-3 1-1.6 0-3 .4-3 1 0 .5-.9 1-2 1s-2 .4-2 1c0 .5-.9 1-2 1s-2 .4-2 1c0 .5-.8 1-1.8 1s-2.4.9-3.2 2c-.8 1.1-2.2 2-3.2 2s-1.8.4-1.8 1c0 .5-.9 1-2 1s-2 .4-2 1c0 .5-.9 1-2 1s-2 .4-2 1c0 .5-2.2 1-5 1-2.7 0-5-.5-5-1 0-.6-.9-1-2-1s-2-.5-2-1c0-.6-.7-1-1.6-1-2 0-4.4-2.4-4.4-4.4 0-.9-.4-1.6-1-1.6s-1-2.7-1-6 .4-6 1-6 1-.7 1-1.6c0-2 2.4-4.4 4.3-4.4.9 0 1.8-.6 2.1-1.3.5-1 .7-1 1.2 0 .9 2 2.4 1.5 2.4-.7 0-1.1-.4-2-1-2-.5 0-1-.7-1-1.6 0-2.5-2.6-4.4-6-4.4-4.3 0-8 3.9-8 8.5 0 1.9-.4 3.5-1 3.5s-1 4.2-1 10.5v10.6l3.5 3.4c1.9 1.9 4.1 3.5 5 3.5.8 0 1.5.4 1.5 1 0 .5 1.4 1 3 1 1.7 0 3 .4 3 1 0 .5 2.3 1 5 1 4.9 0 5 .1 5 3 0 1.6-.4 3-1 3-.5 0-1 1.3-1 3 0 1.6-.4 3-1 3s-1 3.3-1 7.8c0 6.6-.3 8-2 9.2-1.4 1-2 2.6-2 5.2 0 2.1.5 3.8 1 3.8.6 0 1 .7 1 1.5 0 3.4 5.8 10.5 8.5 10.5 1.2 0 1.5 1.5 1.5 8 0 4.7-.4 8-1 8-.5 0-1 .9-1 2s-.4 2-1 2-1 3-1 7 .4 7 1 7 1 .9 1 2 .5 2 1 2c.6 0 1 2.1 1 4.6 0 4 1.6 7.4 3.4 7.4.3 0 .6-3.1.6-6.8 0-5.6-.3-7-2-8.2-1.6-1.2-2-2.6-2-7.2 0-3.2.4-5.8 1-5.8s1-3.5 1-8.6c0-6.1.4-9 1.4-10 1.7-1.6 10.2-1.9 11.1-.4.3.5 2.6 1 5.1 1 2.4 0 4.4.4 4.4 1 0 .5 1.4 1 3 1 1.7 0 3 .4 3 1 0 .5 1.5 1 3.3 1 1.8 0 3.7.4 4.3.9.8.9 11.5 2.1 19.4 2.2 5.5 0 12.2-1.1 15.8-2.8 3.9-1.7 11.2-8.9 11.2-10.9 0-.8.5-1.4 1-1.4.6 0 1-.9 1-2s.5-2 1-2c.6 0 1-.9 1-2s.5-2 1-2c.6 0 1-2.3 1-5 0-2.8.5-5 1-5 .6 0 1-1.8 1-4s-.4-4-1-4c-.5 0-1-1.4-1-3 0-1.7-.4-3-1-3-.5 0-1-.8-1-1.8s-.9-2.4-2-3.2c-1.4-1-2-2.6-2-5.2 0-3.4.3-3.8 2.6-3.8 2.8 0 5.4 2.1 5.4 4.4 0 .8.5 1.8 1 2.1.6.3 1 2.6 1 5.1 0 2.4.5 4.4 1 4.4.6 0 1 1.3 1 3 0 1.6.5 3 1 3 .6 0 1 .9 1 2s.5 2 1 2c.6 0 1 .8 1 1.8s.9 2.4 2 3.2c1.1.8 2 2.1 2 2.8 0 .8 1.4 2.7 3 4.2 1.7 1.5 3 3.4 3 4.2 0 .7.9 2 2 2.8 1.7 1.2 2 2.6 2 9.2 0 4.5-.4 7.8-1 7.8-.5 0-1 1.3-1 3 0 1.6-.4 3-1 3-.5 0-1 .9-1 2s-.4 2-1 2c-.5 0-1 .9-1 2s-.4 2-1 2c-.5 0-1 .7-1 1.5 0 2.6-8.6 10.5-11.5 10.5-1.4 0-2.5.4-2.5 1 0 .5-1.3 1-3 1-1.6 0-3 .4-3 1s-7.7 1-21 1-21 .4-21 1c0 .5-1.3 1-3 1-1.6 0-3 .4-3 1 0 .5-.7 1-1.5 1-.9 0-3.6 2-6 4.5-4.4 4.4-4.5 4.6-4.5 11 0 3.7.4 6.5 1 6.5s1 1.3 1 3c0 1.6.5 3 1 3 .6 0 1 1.8 1 4s-.4 4-1 4c-.5 0-1 .9-1 2s-.4 2-1 2c-.5 0-1 .9-1 2s-.4 2-1 2c-.5 0-1 1.8-1 4s.5 4 1 4c.6 0 1 3.3 1 8v8h-8v-7.6c0-6.9-1.1-10.4-3.4-10.4-.3 0-.6 4.5-.6 10 0 9.3-.1 10-2 10-1.1 0-2-.5-2-1.1 0-.6-.9-.8-2-.4-1.9.6-2 .2-2-6.9 0-6.9-.2-7.6-2-7.6s-2 .7-2 8-.2 8-2 8c-1.1 0-2 .4-2 1 0 .5-1.3 1-3 1h-3v-9c0-8.3-.1-9-2-9s-2 .7-2 9-.1 9-2 9c-1.1 0-2 .4-2 1 0 .5-.9 1-2 1-1.9 0-2-.7-2-9 0-5-.4-9-.8-9-2.3 0-3.2 3-3.2 10.2v7.8h-10v-11c0-6.7-.4-11-1-11-.5 0-1 .9-1 1.9 0 1.1-.4 2.3-1 2.6-.5.3-1 4-1 8.1v7.4h-3c-1.6 0-3 .4-3 1 0 .5-.4 1-1 1s-1-3.3-1-8c0-4.4-.3-8-.6-8-2.1 0-3.4 3.5-3.4 9.4 0 3.7-.4 6.6-1 6.6-.5 0-1-.5-1-1 0-.6-1.4-1-3.1-1h-3.1l.2-9.8c.2-12.6.1-14.2-.8-14.2-1.4 0-3.2 7.9-3.2 14.2-.1 7.7-1.4 9.8-6.4 9.8H236v-5c0-2.8.5-5 1-5 .6 0 1-2.3 1-5 0-2.8-.3-5-.6-5-1.6 0-3.4 3.3-3.4 6.4 0 2-.4 3.6-1 3.6-.5 0-1 2.2-1 5v5h-3.6c-1.9 0-4.2-.6-5-1.4-1.6-1.7-1.9-7.2-.4-8.1.6-.3 1-2.4 1-4.6 0-3.2-.3-3.9-2-3.9-1.6 0-2 .7-2 3.4 0 1.9-.4 3.8-1 4.1-1.3.8-1.3 4.5 0 4.5.6 0 1 .9 1 2 0 5-7.2-.2-8.5-6.1-.4-1.9-.9-6.7-1.2-10.7-.2-3.9-.9-7.2-1.4-7.2-.5 0-.9-1.4-.9-3 0-1.7-.5-3-1.1-3-.7 0-.9-3.3-.5-10.8.6-13.5.6-11.8 0-18-.3-2.8-1-5.2-1.5-5.2s-.9-.9-.9-2c0-1.3-.7-2-1.8-2-1 0-2.4-.9-3.2-2-1.2-1.6-2.6-2-7.2-2-3.2 0-5.8.4-5.8 1 0 .5-.9 1-2 1s-2 .4-2 1-4.7 1-12 1-12-.4-12-1-.9-1-2-1-2-.5-2-1c0-.6-.7-1-1.5-1-1.9 0-20.5-18.4-20.5-20.3 0-.7-.9-1.9-2-2.7-1.1-.8-2-2.2-2-3.2s-.4-1.8-1-1.8c-.5 0-1-.9-1-2s-.4-2-1-2-1-3.3-1-7.8c0-6.6.3-8 2-9.2 1.1-.8 2-2 2-2.8 0-.7 2.3-3.5 5-6.2 3.4-3.3 5-5.7 5-7.4 0-1.4.5-2.6 1-2.6.6 0 1-1.4 1-3 0-1.7.5-3 1-3 .6 0 1-2.3 1-5 0-2.8.5-5 1-5 1.3 0 1.3-6.7 0-7.5-.5-.3-1-1.5-1-2.6 0-1.2-.7-1.9-1.8-1.9-1 0-2.4-.9-3.2-2-.8-1.1-2-2-2.8-2-2.6 0-10.2-9.2-10.2-12.5 0-.8-.4-1.5-1-1.5s-1-4-1-10 .4-10 1-10 1-1.4 1-3c0-1.7.4-3 .9-3s1.1-1.3 1.4-2.9c.3-1.6 1.3-3.6 2.2-4.4.8-.9 1.5-2 1.5-2.6 0-1.6 2.1-5.1 4.7-7.8 2.3-2.4 9-3.2 10.9-1.3 1.9 1.9 173.9 3.9 175.8 2 .6-.6 6.9-1 15.8-1 9.2 0 14.8-.4 14.8-1s4-1 10-1 10-.4 10-1 3.6-1 8.8-1c4.8 0 9.2-.4 9.8-.9.5-.6 3.8-1.2 7.4-1.4 3.6-.2 6.6-.4 6.7-.5.1-.1.8.1 1.7.4zM284 369c0 4.3-.3 5-2 5s-2-.7-2-5 .3-5 2-5 2 .7 2 5zm12 3.1c0 6.2-.3 6.8-2.6 4.5-1.4-1.5-2-10.7-.7-11.9 1.7-1.7 3.3 1.9 3.3 7.4zm-40-.5c0 5-1.4 8.4-3.4 8.4-.3 0-.6-3.2-.6-7 0-6.3.2-7 2-7s2 .7 2 5.6zm14-1.7c0 2.6-.5 4.1-1.6 4.5-2.4.9-2.4.9-2.4-3.9 0-3.8.3-4.5 2-4.5s2 .7 2 3.9zm14 23.1c0 .5 1.1 1 2.5 1 1.7 0 4.1 1.5 7 4.5 4.2 4.2 4.5 4.8 4.5 10 0 3-.4 5.5-1 5.5-.5 0-1 .9-1 2s-.4 2-1 2c-.5 0-1 .9-1 2s-.4 2-1 2c-.5 0-1 .7-1 1.5 0 1.9-4.4 6.5-6.2 6.5-.8 0-2 .9-2.8 2-1.2 1.7-2.6 2-9.2 2-4.5 0-7.8-.4-7.8-1s-1.2-1-2.6-1c-3.9 0-11.4-8.3-11.4-12.7 0-1.8-.4-3.3-1-3.3-.5 0-1-1.8-1-4s.5-4 1-4c.6 0 1-.9 1-2s.5-2 1-2c.6 0 1-.7 1-1.6 0-1.9 2.4-4.4 4.2-4.4.8 0 2-.9 2.8-2 .8-1.2 2.6-2 4.2-2 1.5 0 3-.5 3.3-1 .3-.6 4-1 8.1-1 4.3 0 7.4.4 7.4 1zm3.5 58c.3.5 1.8 1 3.3 1 3.1 0 5.2 3.5 5.2 8.7 0 1.8.5 3.3 1 3.3.6 0 1 .9 1 2s.5 2 1 2c.6 0 1 .7 1 1.5s1.8 3.4 4 5.6c4.4 4.5 5.1 6.9 2 6.9-1.1 0-2-.5-2-1 0-.6-.7-1-1.5-1-2 0-10.5-8.5-10.5-10.5 0-.8-.4-1.5-1-1.5-.5 0-1-1.8-1-4 0-3.4-.3-4-2.1-4-1.9 0-2 .4-1.5 6.2.3 3.5.8 8.4 1.2 11 .4 3.2.2 4.8-.5 4.8-.6 0-1.1-.5-1.1-1 0-.6-.9-1-2-1-1.3 0-2-.7-2-1.9 0-1.1-.5-2.1-1.1-2.3-.9-.3-.9-1 .1-2.7.9-1.8.9-3 .1-4.8-.6-1.3-1.1-3.7-1.1-5.2 0-2-.7-3.1-2.5-3.9-3.6-1.7-4.3-1.5-7 1.3-2.2 2.2-2.5 3.2-2.5 10.5 0 5.7-.4 8.6-1.4 9.6-2 1.9-2.6 1.8-2.6-.6 0-1.1-.4-2-1-2-.5 0-1-2.3-1-5 0-2.8-.4-5-1-5-.5 0-1-.8-1-1.8 0-1.9-1.8-4.2-3.2-4.2-.4 0-.8.9-.8 2s-.4 2-1 2c-.5 0-1 1.3-1 3 0 1.6-.4 3-1 3-.5 0-1 .9-1 2s-.4 2-1 2c-.5 0-1 .7-1 1.5 0 .9-.8 1.9-1.7 2.2-1 .4-2.5 1.5-3.4 2.5-1.6 1.8-4.9 2.5-4.9 1 0-.4.9-1.4 2-2.2 1.1-.8 2-2.1 2-3 0-.9.9-2.2 2-3 1.1-.8 2-2.2 2-3.2s.5-1.8 1-1.8c.6 0 1-.9 1-2s.5-2 1-2c.6 0 1-.9 1-2s.5-2 1-2c.6 0 1-1.4 1-3 0-1.7.5-3 1-3 .6 0 1-.9 1-2 0-1.8.7-2 6.8-2 3.7 0 7.4-.5 8.2-1 2-1.3 15.7-1.3 16.5 0zm63.5 44c0 .6-5.1 1-13.4 1-7.9 0-13.7.4-14.1 1-.3.5-4.4 1-9 1s-8.7.4-9 1c-.4.6-7.5 1-18 1s-17.6.4-18 1c-.4.6-5.5 1-12.1 1-6.9 0-11.4-.4-11.4-1s-12.1-1-34.4-1c-21.9 0-34.7-.4-35.1-1-.3-.6-2.4-1-4.6-1-2.1 0-3.9-.5-3.9-1 0-.6 10.6-1 29.9-1 18.9 0 30.2-.4 30.6-1 .4-.6 22-1 61.6-1 39.9 0 60.9.3 60.9 1z"/><path d="M298.6 54.7c-.4.5-9.4 1.1-19.9 1.5-28.4 1-32.7 1.6-32.7 3.9 0 1.8.8 1.9 10.9 1.9 6.3 0 11.2-.4 11.6-1 .4-.6 14.3-1 38.5-1s38.1.4 38.5 1c.3.5 2.4 1 4.6 1 2.1 0 3.9.4 3.9 1 0 .5 1.8 1 3.9 1 2.2 0 4.3.4 4.6 1 .3.5 1.7 1 3.1 1 2 0 2.4.5 2.4 3v3h-6c-3.3 0-6 .4-6 1s-3.3 1-8 1c-4.8 0-8 .4-8 1 0 .7-20.2.9-62.2.5C201.7 74.9 174 74.2 174 73c0-.6-1.8-1-4-1-3.3 0-4-.3-4-2 0-1.2.7-2 1.8-2 .9 0 2.3-.9 3-2 1.1-1.9 2.3-2 17.2-2 8.8 0 16-.3 16-.6s-.6-1.2-1.4-2c-1.1-1.1-4.9-1.4-17-1.4-9.7 0-15.6.4-15.6 1 0 .5-2.2 1-5 1-2.7 0-5 .4-5 1 0 .5-.7 1-1.5 1-2.9 0-6.5 4.7-6.5 8.5 0 2.2.5 3.5 1.3 3.5.7 0 2.3.9 3.5 2 1.2 1.1 3.3 2 4.7 2 1.4 0 2.5.4 2.5 1 0 .5 1.8 1 3.9 1 2.2 0 4.3.4 4.6 1 .3.5 3.9 1 8 1s7.7.4 8 1c.3.5 4.6 1 9.5 1s9.2.4 9.5 1c.4.6 10 1 25.5 1s25.1.4 25.5 1c.4.6 9.5 1 24.1 1 14.9 0 23.4-.4 23.4-1s4.3-1 11-1 11-.4 11-1 3.3-1 7.9-1c4.4 0 8.3-.5 8.6-1 .3-.6 3.5-1 7.1-1 3.6 0 6.4-.4 6.4-1s1.4-1 3-1c1.7 0 3-.5 3-1 0-.6.9-1 2-1s2-.5 2-1c0-.6 1.4-1 3-1 1.7 0 3-.5 3-1 0-.6 1.4-1 3-1 1.7 0 3-.5 3-1 0-.6.7-1 1.6-1 .8 0 2.2-.7 3-1.5 1.3-1.3 1.1-1.9-2-5-2.2-2.2-4.5-3.5-6.1-3.5-1.4 0-2.5-.5-2.5-1 0-.6-1.3-1-3-1-1.6 0-3-.5-3-1 0-.6-1.8-1-4-1s-4-.5-4-1c0-.6-2.2-1-5-1-2.7 0-5-.5-5-1 0-.6-4.6-1-11.9-1-6.9 0-12.2-.4-12.6-1-.7-1.2-25.8-1.4-26.9-.3zM187 123c-.8.5-7 1-13.7 1-7 0-12.4.4-12.8 1-.3.5-4.2 1-8.6 1-4.6 0-7.9.4-7.9 1 0 .5-.7 1-1.5 1-1.8 0-5.1 1.8-7.9 4.2-1.1 1-2.4 1.8-2.9 1.8-1.2 0-3.7 2.6-3.7 4 0 .6-.9 2-2 3.2-1.5 1.6-2 3.6-2 7.5 0 2.9.5 5.3 1 5.3.6 0 1 1.3 1 3 0 1.6.5 3 1 3 .6 0 1 .6 1 1.3 0 1.7 8.4 10.7 10 10.7.7 0 2.5 1.3 4 3 1.5 1.6 3.5 3 4.4 3 .9 0 1.6.4 1.6 1 0 .5 1.2 1 2.6 1 3.9 0 5.7 2.3 4.2 5.4-.6 1.4-1.5 2.6-2 2.6-.4 0-.8.9-.8 2s-.4 2-1 2c-.5 0-1 .9-1 1.9 0 1.1-.4 2.3-1 2.6-.5.3-1 3.9-1 8s.5 7.7 1 8c.6.3 1 1.7 1 3s.5 2.7 1 3c.6.3 1 1.6 1 2.8 0 1.3.9 2.9 2 3.7 1.1.8 2 2.2 2 3.1 0 .8 1.2 2.2 2.8 3 1.5.8 2.9 1.6 3.2 1.9 1.3 1.3 9 5 10.4 5 .9 0 1.6.4 1.6 1 0 .5 1.8 1 4 1s4 .4 4 1 2.7 1 6 1 6-.4 6-1 1.8-1 4-1 4-.5 4-1c0-.6 1.5-1 3.4-1s3.8-.5 4.1-1c.3-.6 1.9-1 3.5-1s3.2-.5 3.5-1c.3-.6 2.2-1 4.1-1 1.9 0 3.4-.5 3.4-1 0-.6.5-1 1-1 .6 0 1 .9 1 2s-.4 2-1 2c-.5 0-1 .9-1 2s-.4 2-1 2c-.5 0-1 1.3-1 3 0 1.6-.4 3-1 3-1.3 0-1.3 4.5-.1 6.8.6.9 1.2 2.9 1.5 4.4.4 1.5 1.3 3.3 2.1 4.2 1.7 1.6 2.1 10.6.5 10.6-.5 0-1 1.3-1 3 0 1.6-.4 3-1 3-.5 0-1 1.3-1 3 0 1.6.5 3 1 3 .6 0 1 .7 1 1.6 0 2 2.4 4.4 4.4 4.4 2.2 0 2-2.2-.4-4.8-2.1-2.2-2.8-7.2-1-7.2.6 0 1-.9 1-1.9 0-1.1.5-2.3 1-2.6.6-.3 1-3.4 1-6.7 0-4.5-.5-6.5-1.8-7.7-3.1-2.9-5.6-13.1-3.2-13.1.6 0 1-.9 1-2s.5-2 1-2c.6 0 1-.9 1-2s.5-2 1-2c.6 0 1-1.1 1-2.5 0-2.6 3.9-7.5 6-7.5 1.6 0 6-4.7 6-6.5 0-.8.5-1.5 1-1.5.6 0 1-1.8 1-4s.5-4 1-4c.6 0 1-4.7 1-12s-.4-12-1-12c-.5 0-1-1.8-1-4v-4h4c2.2 0 4-.5 4-1 0-.6.7-1 1.5-1 2.9 0 8.5-4 8.5-6 0-.6 1.8-2.9 4-5s4-4.6 4-5.4c0-.9.5-1.6 1-1.6.6 0 1-1.8 1-4s-.4-4-1-4c-.5 0-1-1.4-1-3 0-1.7-.4-3-1-3-.5 0-1-.9-1-2 0-1.3-.7-2-1.9-2-1.1 0-2.1-.4-2.3-.9-.3-1-3.6-1.5-7.5-1.3-4.7.4-2.1 8.2 2.7 8.2 3.7 0 5 2.4 5 9 0 5.7-.3 6.5-3.4 9.6-1.9 1.9-4.1 3.4-5 3.4-.9 0-1.6.4-1.6 1 0 .5-1.3 1-2.9 1-1.6 0-3.1.6-3.4 1.2-.3 1-.9 1-2.6 0-1.1-.6-3.2-1.2-4.6-1.2-1.4 0-2.5-.5-2.5-1 0-.6-.9-1-2-1s-2-.5-2-1c0-.6-.8-1-1.8-1s-2.4-.9-3.2-2c-.8-1.1-2.2-2-3.2-2s-1.8-.5-1.8-1c0-.6-.9-1-2-1s-2-.5-2-1c0-.6-1.3-1-3-1-1.6 0-3-.5-3-1 0-.6-2.4-1-5.4-1-3 0-5.8-.5-6.1-1-.3-.6-1.9-1-3.5-1s-3.2.4-3.5 1c-.3.5-3.1 1-6.1 1-3 0-5.4.4-5.4 1 0 .5-1.3 1-3 1-1.6 0-3 .4-3 1 0 .5-.9 1-2 1s-2 .4-2 1c0 .5-.9 1-2 1s-2 .4-2 1c0 .5-.9 1-2 1s-2 .4-2 1c0 .5-.9 1-2 1s-2 .4-2 1-3 1-7 1-7-.4-7-1-1.3-1-3-1c-1.6 0-3-.5-3-1 0-.6-.9-1-2-1-1.6 0-2-.7-2-3 0-1.7-.4-3-1-3s-1-2.7-1-6 .4-6 1-6 1-.7 1-1.5c0-2 6.5-8.5 8.5-8.5.8 0 1.5-.5 1.5-1 0-.6.9-1 2-1s2-.5 2-1c0-.6 1.3-1 2.8-1 1.5 0 3.2-.4 3.7-.9.6-.6 6.2-1.2 12.5-1.5 6.3-.2 13.9-.8 16.8-1.1 3.5-.5 5.8-.3 6.5.4.6.6 4.4 1.1 8.4 1.1 4.2 0 7.3.4 7.3 1 0 .5 1.3 1 2.9 1 1.7 0 3.3.4 3.6 1 .3.5 1.5 1 2.6 1s3.8 1.8 6 4.1c3.7 3.9 4 4 5.6 2.3 1.3-1.2 1.4-1.9.5-2.2-.6-.2-1.2-1-1.2-1.9 0-1.9-2.4-4.3-4.4-4.3-.9 0-1.6-.5-1.6-1 0-.6-.9-1-2-1s-2-.5-2-1c0-.6-.9-1-2-1s-2-.5-2-1c0-.6-.9-1-2-1s-2-.5-2-1c0-.6-1.1-1-2.4-1-1.4 0-2.8-.5-3.1-1-.3-.6-3.3-1-6.5-1s-6.2-.5-6.5-1c-.8-1.3-4.5-1.3-6.5 0z"/><path d="M260.3 180.5c-1.3 1.3-2.3 3.1-2.3 4 0 .8-.4 1.5-1 1.5-.5 0-1 .9-1 2s-.4 2-1 2c-.5 0-1 1.3-1 2.9 0 1.7-.4 3.3-1 3.6-.5.3-1 2.2-1 4.1 0 1.9-.4 3.4-1 3.4-.5 0-1 1.8-1 4s-.4 4-1 4c-.5 0-1 1.3-1 3 0 1.6-.4 3-1 3-.5 0-1 1.3-1 2.9 0 1.7-.4 3.3-1 3.6-.5.3-1 1.7-1 3.1 0 1.3-.4 2.4-1 2.4-.5 0-1 1.3-1 3 0 1.6-.4 3-1 3-1.5 0-1.3 20.5.3 23.2 1.9 3.4 3.4 4.8 5.1 4.8.9 0 1.6.4 1.6 1 0 .5 1.4 1 3 1 1.7 0 3-.5 3-1 0-.6.7-1 1.6-1 .8 0 3.3-1.8 5.4-4 4.5-4.7 9.5-5.5 12-2 .8 1.1 2.2 2 3.2 2s1.8.4 1.8 1c0 .5.9 1 2 1s2 .4 2 1c0 .5 2 1 4.5 1 3.9 0 5.1-.5 8-3.5 3.4-3.3 3.5-3.7 3.5-11 0-4.3-.4-7.5-1-7.5-.5 0-1-1.4-1-3 0-1.7-.4-3-1-3-.5 0-1-1.4-1-3 0-1.7-.4-3-1-3-.5 0-1-2-1-4.4 0-2.5-.4-4.8-1-5.1-.5-.3-1-2.4-1-4.6 0-2.1-.4-3.9-1-3.9-.5 0-1-1.8-1-4s-.4-4-.9-4c-.9 0-1.5-3.7-2.7-14.8-.3-2.8-1-5.2-1.5-5.2s-.9-.7-.9-1.6c0-3.4-2.6-4.4-11.2-4.3-7.4 0-8.5.3-10.5 2.4z"/><path d="M262 269c-2.5 2.7-5.3 4.9-6.2 4.9-.9.1-2 .5-2.3 1.1-.3.5-2.6 1-5.1 1-4.7 0-5.2.4-3 2.6 1.7 1.6 10.6 2 10.6.4 0-.6.7-1 1.6-1 .9 0 2.9-1.4 4.4-3 3.3-3.5 6.9-3.9 9-1 .8 1.1 2.2 2 3.2 2s1.8.4 1.8 1 3 1 7 1c6.3 0 7-.2 7-2s-.7-2-6-2c-3.3 0-6-.4-6-1s-.9-1-2-1-2-.5-2-1c0-.6-.9-1-1.9-1-1.2 0-2.5-1.2-3.3-3-.7-1.7-1.5-3-1.8-2.9-.3 0-2.5 2.2-5 4.9zm6 132c0 .5-.7 1-1.6 1-2 0-4.4 2.4-4.4 4.4 0 .9-.4 1.6-1 1.6-.5 0-1 2.5-1 5.5 0 5.2.3 5.8 4.5 10 3.8 3.9 5 4.5 8.5 4.5 2.7 0 4.8-.7 6.2-2 1.2-1.1 2.8-2 3.5-2 .7 0 1.3-.6 1.3-1.3 0-.7.9-2.3 2-3.5 1.5-1.5 2-3.5 2-7.2 0-5.3-1.5-8-4.4-8-.9 0-1.6-.5-1.6-1 0-.6-.9-1-2-1s-2-.5-2-1c0-.6-2.2-1-5-1-2.7 0-5 .4-5 1zM61.3 83.7c-1.8 2.1-3.3 4.8-3.3 6 0 1.3-.4 2.3-1 2.3-.5 0-1 1.3-1 3 0 1.6-.4 3-1 3-.5 0-1 1.3-1 3 0 1.6-.4 3-1 3-.5 0-1 1.8-1 4s-.4 4-1 4c-.5 0-1 1.3-1 3 0 1.6-.4 3-1 3-.5 0-1 1.8-1 4s-.4 4-1 4-1 5.7-1 15 .4 15 1 15 1 .8 1 1.8.9 2.4 2 3.2c1.1.8 2 2.2 2 3.2 0 1.1.7 1.8 2 1.8 1.1 0 2 .3 2 .7 0 2.6 11.9 4.4 15.8 2.4.9-.5 3.1-1.5 4.7-2.2 3.8-1.8 7.5-5.4 7.5-7.4 0-.8.5-1.5 1-1.5.6 0 1-2.8 1-6.4 0-3.6-.4-6.8-1-7.1-.5-.3-1-2.4-1-4.6 0-2.1-.4-3.9-1-3.9-.5 0-1-1.4-1-3 0-1.7-.4-3-1-3-.5 0-1-1.3-1-2.9 0-1.7-.4-3.3-1-3.6-.5-.3-1-1.7-1-3.1 0-1.3-.4-2.4-1-2.4-.5 0-1-1.4-1-3 0-1.7-.4-3-.8-3-.5 0-1.5-2.3-2.2-5-.7-2.8-1.7-5-2.2-5-.4 0-.8-1.3-.8-2.9 0-1.6-.5-3.1-1-3.3-.6-.2-1.1-3.2-1.2-6.8-.1-5.4-1.4-9.1-3-9-.2.1-1.8 1.7-3.5 3.7zm3.3 45.7c.8.8 1.4 2.6 1.4 4s.5 2.6 1 2.6c.6 0 1 3.7 1 9v9h-2.7c-2.1 0-3.1-.7-4-2.7-1.5-3.2-1.7-9.9-.3-10.8.6-.3 1-3.3 1-6.6 0-6.2.3-6.8 2.6-4.5zM76 190c0 2.2-.4 4-1 4-.5 0-1 1.5-1 3.4s-.4 3.8-1 4.1c-.5.3-1 1.9-1 3.5s-.4 3.2-1 3.5c-.5.3-1 2.4-1 4.5s-.4 4.2-1 4.5c-.5.3-1 2.4-1 4.6 0 2.1-.4 3.9-1 3.9s-1 5.3-1 14 .4 14 1 14 1 .7 1 1.5c0 .9.9 2.5 2 3.7 1.1 1.2 2 2.8 2 3.5 0 .7.8 1.3 1.8 1.3s2.4.9 3.2 2c1.1 1.6 2.6 2 6.7 2 5 0 5.7-.3 9.8-4.5 2.5-2.4 4.5-5.1 4.5-6 0-.8.5-1.5 1-1.5.6 0 1-1.8 1-3.9 0-2.2.5-4.3 1-4.6.6-.3 1-1.7 1-3.1 0-1.3-.4-2.4-1-2.4-.5 0-1-2.3-1-5 0-2.8-.4-5-1-5-.5 0-1-1.4-1-3 0-1.7-.4-3-1-3-.5 0-1-1.4-1-3 0-1.7-.4-3-.8-3-.5 0-1.5-2.3-2.2-5-.7-2.8-1.7-5-2.2-5-.4 0-.8-.9-.8-2s-.4-2-1-2c-.5 0-1-.9-1-2s-.4-2-1-2c-.5 0-1-.9-1-2s-.4-2-1-2c-.5 0-1-.9-1-2s-.4-2-1-2c-.5 0-1-1.2-1-2.6 0-2.9-2.1-5.4-4.4-5.4-1.2 0-1.6 1-1.6 4zm8 44.4c0 1.4.5 2.8 1 3.1.6.3 1 1.5 1 2.6 0 1-.4 1.9-1 1.9-.5 0-1 1.8-1 4 0 4.3-.4 4.7-2.6 2.6-1.8-1.8-1.9-13.7-.2-15.4 1.9-1.9 2.8-1.4 2.8 1.2zm32 43.6c0 1.1-.4 2-1 2-.5 0-1 .9-1 2s-.4 2-1 2c-.5 0-1 .9-1 2s-.4 2-1 2c-.5 0-1 1.3-1 3 0 1.6-.4 3-1 3-.5 0-1 1.3-1 3 0 1.6-.4 3-1 3-.5 0-1 1.3-1 3 0 1.6-.4 3-1 3-.5 0-1 1.5-1 3.4s-.4 3.8-1 4.1c-.5.3-1 2.4-1 4.6 0 2.1-.4 3.9-1 3.9s-1 3.3-1 8 .4 8 1 8 1 1.3 1 3c0 1.6.4 3 .8 3 .5 0 1.5 1.2 2.3 2.7 1.9 3.8 5.5 7.3 7.4 7.3.8 0 1.5.4 1.5 1s2.7 1 6 1 6-.4 6-1 .7-1 1.5-1c2.2 0 8.5-6.6 8.5-8.9 0-1.1.5-2.3 1-2.6.6-.4 1-5.5 1-12s-.4-11.6-1-12c-.5-.3-1-2.8-1-5.6 0-2.7-.4-4.9-1-4.9-.5 0-1-1.4-1-3 0-1.7-.4-3-1-3-.5 0-1-.9-1-2s-.4-2-1-2c-.5 0-1-.7-1-1.5 0-.9-.9-2.5-2-3.7-1.1-1.2-2-2.8-2-3.5 0-.7-.4-1.3-1-1.3-.5 0-1-.8-1-1.8s-.9-2.4-2-3.2c-1.2-.8-2-2.6-2-4.2 0-2.1-.5-2.8-2-2.8-1.3 0-2 .7-2 2zm4 35.9c0 2.2.5 4.3 1 4.6.6.3 1 4 1 8.1 0 4.3-.4 7.4-1 7.4-.5 0-1 .9-1 2 0 2.4-.6 2.5-2.6.6-1.7-1.7-2.1-18.6-.4-18.6.6 0 1-1.8 1-4s.5-4 1-4c.6 0 1 1.8 1 3.9z"/></g><path d="M240.3 52.7c.9.2 2.5.2 3.5 0 .9-.3.1-.5-1.8-.5-1.9 0-2.7.2-1.7.5zm27 0c5.9.2 15.4.2 21 0 5.6-.1.8-.3-10.8-.3-11.5 0-16.1.2-10.2.3zm63.5 0c2.9.2 7.4.2 10 0 2.6-.2.2-.3-5.3-.3s-7.6.1-4.7.3zm-176 6c1.2.2 3.2.2 4.5 0 1.2-.2.2-.4-2.3-.4s-3.5.2-2.2.4zm231.5 0c.9.2 2.5.2 3.5 0 .9-.3.1-.5-1.8-.5-1.9 0-2.7.2-1.7.5zm-206 6c4.2.2 11.2.2 15.5 0 4.2-.1.7-.3-7.8-.3s-12 .2-7.7.3zm176 0c.9.2 2.5.2 3.5 0 .9-.3.1-.5-1.8-.5-1.9 0-2.7.2-1.7.5zm19.5 12c.6.2 1.8.2 2.5 0 .6-.3.1-.5-1.3-.5-1.4 0-1.9.2-1.2.5zm-209.5 6c.9.2 2.5.2 3.5 0 .9-.3.1-.5-1.8-.5-1.9 0-2.7.2-1.7.5zm193.5 0c.6.2 1.8.2 2.5 0 .6-.3.1-.5-1.3-.5-1.4 0-1.9.2-1.2.5zm-138.5 6c5.9.2 15.5.2 21.5 0 5.9-.1 1-.3-10.8-.3s-16.7.2-10.7.3zm90.5 0c2.8.2 7.6.2 10.5 0 2.8-.2.5-.3-5.3-.3s-8.1.1-5.2.3zm-173.5 24c.9.2 2.5.2 3.5 0 .9-.3.1-.5-1.8-.5-1.9 0-2.7.2-1.7.5zm220.5 0c2.3.2 6.1.2 8.5 0 2.3-.2.4-.4-4.3-.4s-6.6.2-4.2.4zm-172 18c1.2.2 3.2.2 4.5 0 1.2-.2.2-.4-2.3-.4s-3.5.2-2.2.4zm147.5 6c.9.2 2.5.2 3.5 0 .9-.3.1-.5-1.8-.5-1.9 0-2.7.2-1.7.5zm-14.5 6c.6.2 1.8.2 2.5 0 .6-.3.1-.5-1.3-.5-1.4 0-1.9.2-1.2.5zm-62 6c.6.2 1.8.2 2.5 0 .6-.3.1-.5-1.3-.5-1.4 0-1.9.2-1.2.5zm32 30c.6.2 1.8.2 2.5 0 .6-.3.1-.5-1.3-.5-1.4 0-1.9.2-1.2.5zm25 54c1.2.2 3.2.2 4.5 0 1.2-.2.2-.4-2.3-.4s-3.5.2-2.2.4zm-111 6c.6.2 1.8.2 2.5 0 .6-.3.1-.5-1.3-.5-1.4 0-1.9.2-1.2.5zm136 0c.6.2 1.8.2 2.5 0 .6-.3.1-.5-1.3-.5-1.4 0-1.9.2-1.2.5zm-74 18c.6.2 1.8.2 2.5 0 .6-.3.1-.5-1.3-.5-1.4 0-1.9.2-1.2.5zm-184.5 12c1.5.2 3.9.2 5.5 0 1.5-.2.2-.4-2.8-.4s-4.3.2-2.7.4zm167.5 12c1.2.2 3.2.2 4.5 0 1.2-.2.2-.4-2.3-.4s-3.5.2-2.2.4zm-70.5 12c.9.2 2.5.2 3.5 0 .9-.3.1-.5-1.8-.5-1.9 0-2.7.2-1.7.5zm186.5 0c1.2.2 3.2.2 4.5 0 1.2-.2.2-.4-2.3-.4s-3.5.2-2.2.4zm31 0c.6.2 1.8.2 2.5 0 .6-.3.1-.5-1.3-.5-1.4 0-1.9.2-1.2.5zm-188 66c1.7.2 4.7.2 6.5 0 1.7-.2.3-.4-3.3-.4-3.6 0-5 .2-3.2.4zm20 6c.6.2 1.8.2 2.5 0 .6-.3.1-.5-1.3-.5-1.4 0-1.9.2-1.2.5zm96.5 0c.9.2 2.5.2 3.5 0 .9-.3.1-.5-1.8-.5-1.9 0-2.7.2-1.7.5zm-60.5 30c.6.2 1.8.2 2.5 0 .6-.3.1-.5-1.3-.5-1.4 0-1.9.2-1.2.5zm-75.6 102c7 .2 18.7.2 26 0 7.3-.1 1.6-.3-12.7-.3-14.3 0-20.3.2-13.3.3zm208.6 18c1.2.2 3 .2 4 0 .9-.3-.1-.5-2.3-.4-2.2 0-3 .2-1.7.4zm-216.6 6c15.3.2 40.3.2 55.5 0 15.3-.1 2.8-.2-27.7-.2s-43 .1-27.8.2z" fill="#FFF" fill-opacity=".25"/><path d="M360.3 479.7c.9.2 2.5.2 3.5 0 .9-.3.1-.5-1.8-.5-1.9 0-2.7.2-1.7.5z" fill="#FFF" fill-opacity=".19"/><path d="M248.8 54.7c1.2.2 3 .2 4 0 .9-.3-.1-.5-2.3-.4-2.2 0-3 .2-1.7.4z" fill="#FFF" fill-opacity=".13"/><path d="M248.3 53.7c.9.2 2.5.2 3.5 0 .9-.3.1-.5-1.8-.5-1.9 0-2.7.2-1.7.5z" fill="#FFF" fill-opacity=".38"/><path d="M322.8 91.7c.7.3 1.6.2 1.9-.1.4-.3-.2-.6-1.3-.5-1.1 0-1.4.3-.6.6z" fill="#FFF" fill-opacity=".01"/></svg>