<svg version="1.0" xmlns="http://www.w3.org/2000/svg" viewBox="0 0 656 782"><path d="M375.8 52.7c2.3.2 6.1.2 8.5 0 2.3-.2.4-.4-4.3-.4s-6.6.2-4.2.4zm-15 4c.7.3 1.6.2 1.9-.1.4-.3-.2-.6-1.3-.5-1.1 0-1.4.3-.6.6zm-4 2c.7.3 1.6.2 1.9-.1.4-.3-.2-.6-1.3-.5-1.1 0-1.4.3-.6.6zm-8 4c.7.3 1.6.2 1.9-.1.4-.3-.2-.6-1.3-.5-1.1 0-1.4.3-.6.6zm-10 6c.7.3 1.6.2 1.9-.1.4-.3-.2-.6-1.3-.5-1.1 0-1.4.3-.6.6zm86.5 0c1.5.2 3.7.2 5 0 1.2-.2 0-.4-2.8-.4-2.7 0-3.8.2-2.2.4zm9.5 2c1.2.2 3 .2 4 0 .9-.3-.1-.5-2.3-.4-2.2 0-3 .2-1.7.4zm-106 4c.7.3 1.6.2 1.9-.1.4-.3-.2-.6-1.3-.5-1.1 0-1.4.3-.6.6zm-34 14c1.7.2 4.7.2 6.5 0 1.7-.2.3-.4-3.3-.4-3.6 0-5 .2-3.2.4zm-10 4c.7.3 1.6.2 1.9-.1.4-.3-.2-.6-1.3-.5-1.1 0-1.4.3-.6.6zm160.5 20c1.5.2 3.7.2 5 0 1.2-.2 0-.4-2.8-.4-2.7 0-3.8.2-2.2.4zm-99 4c.9.2 2.3.2 3 0 .6-.3-.1-.5-1.8-.5-1.6 0-2.2.2-1.2.5zm111.5 0c.7.3 1.6.2 1.9-.1.4-.3-.2-.6-1.3-.5-1.1 0-1.4.3-.6.6zm-104 2c.7.3 1.6.2 1.9-.1.4-.3-.2-.6-1.3-.5-1.1 0-1.4.3-.6.6zm-11 46c1.2.2 3 .2 4 0 .9-.3-.1-.5-2.3-.4-2.2 0-3 .2-1.7.4zm128.5 8c1.5.2 3.7.2 5 0 1.2-.2 0-.4-2.8-.4-2.7 0-3.8.2-2.2.4zm-32.5 10c.7.3 1.6.2 1.9-.1.4-.3-.2-.6-1.3-.5-1.1 0-1.4.3-.6.6zm-114 2c.7.3 1.6.2 1.9-.1.4-.3-.2-.6-1.3-.5-1.1 0-1.4.3-.6.6zm-8 4c.7.3 1.6.2 1.9-.1.4-.3-.2-.6-1.3-.5-1.1 0-1.4.3-.6.6zm-5 2c.6.2 1.8.2 2.5 0 .6-.3.1-.5-1.3-.5-1.4 0-1.9.2-1.2.5zm156.5 36c.9.2 2.5.2 3.5 0 .9-.3.1-.5-1.8-.5-1.9 0-2.7.2-1.7.5zm-23.5 70c.7.3 1.6.2 1.9-.1.4-.3-.2-.6-1.3-.5-1.1 0-1.4.3-.6.6zm15 0c.7.3 1.6.2 1.9-.1.4-.3-.2-.6-1.3-.5-1.1 0-1.4.3-.6.6zm18 12c1.8.2 4.5.2 6 0s0-.4-3.3-.4-4.5.2-2.7.4zm-156.5 2c.9.2 2.5.2 3.5 0 .9-.3.1-.5-1.8-.5-1.9 0-2.7.2-1.7.5zm-18.8 3.3c-.3.6.1.7.9.4 1.8-.7 2.1-1.4.7-1.4-.6 0-1.3.4-1.6 1zm101.3 30.7c.7.3 1.6.2 1.9-.1.4-.3-.2-.6-1.3-.5-1.1 0-1.4.3-.6.6zm-158.5 2c.9.2 2.3.2 3 0 .6-.3-.1-.5-1.8-.5-1.6 0-2.2.2-1.2.5zm108 4c3.1.2 8.3.2 11.5 0 3.1-.2.5-.3-5.8-.3s-8.9.1-5.7.3zm61.4 0c1.8.2 5 .2 7 0 2.1-.2.7-.4-3.2-.4-3.8 0-5.5.2-3.8.4zm78.6 0c.9.2 2.5.2 3.5 0 .9-.3.1-.5-1.8-.5-1.9 0-2.7.2-1.7.5zm-258.5 2c.7.3 1.6.2 1.9-.1.4-.3-.2-.6-1.3-.5-1.1 0-1.4.3-.6.6zm139.5 0c.9.2 2.3.2 3 0 .6-.3-.1-.5-1.8-.5-1.6 0-2.2.2-1.2.5zm136.5 4c.6.2 1.8.2 2.5 0 .6-.3.1-.5-1.3-.5-1.4 0-1.9.2-1.2.5zm-106 2c.6.2 1.8.2 2.5 0 .6-.3.1-.5-1.3-.5-1.4 0-1.9.2-1.2.5zm-83 6c4.5.2 11.9.2 16.5 0 4.5-.1.8-.3-8.3-.3-9.1 0-12.8.2-8.2.3zm36 4c.7.3 1.6.2 1.9-.1.4-.3-.2-.6-1.3-.5-1.1 0-1.4.3-.6.6zm70 0c.7.3 1.6.2 1.9-.1.4-.3-.2-.6-1.3-.5-1.1 0-1.4.3-.6.6zm-59 6c.7.3 1.6.2 1.9-.1.4-.3-.2-.6-1.3-.5-1.1 0-1.4.3-.6.6zm18.5 0c1.5.2 3.7.2 5 0 1.2-.2 0-.4-2.8-.4-2.7 0-3.8.2-2.2.4zm50.5 0c.7.3 1.6.2 1.9-.1.4-.3-.2-.6-1.3-.5-1.1 0-1.4.3-.6.6zm-41.5 2c.9.2 2.3.2 3 0 .6-.3-.1-.5-1.8-.5-1.6 0-2.2.2-1.2.5zm-85 4c2.6.2 6.7.2 9 0s.2-.3-4.8-.3c-4.9 0-6.8.1-4.2.3zm99 0c.9.2 2.3.2 3 0 .6-.3-.1-.5-1.8-.5-1.6 0-2.2.2-1.2.5zm-84 2c.9.2 2.3.2 3 0 .6-.3-.1-.5-1.8-.5-1.6 0-2.2.2-1.2.5zm89.5 0c.7.3 1.6.2 1.9-.1.4-.3-.2-.6-1.3-.5-1.1 0-1.4.3-.6.6zm8 4c.7.3 1.6.2 1.9-.1.4-.3-.2-.6-1.3-.5-1.1 0-1.4.3-.6.6zm-160 2c1.2.2 3.2.2 4.5 0 1.2-.2.2-.4-2.3-.4s-3.5.2-2.2.4zm164 0c.7.3 1.6.2 1.9-.1.4-.3-.2-.6-1.3-.5-1.1 0-1.4.3-.6.6zm-59.5 4c.9.2 2.3.2 3 0 .6-.3-.1-.5-1.8-.5-1.6 0-2.2.2-1.2.5zm-119 2c.9.2 2.5.2 3.5 0 .9-.3.1-.5-1.8-.5-1.9 0-2.7.2-1.7.5zm32.5 0c.7.3 1.6.2 1.9-.1.4-.3-.2-.6-1.3-.5-1.1 0-1.4.3-.6.6zm92.5 0c.9.2 2.5.2 3.5 0 .9-.3.1-.5-1.8-.5-1.9 0-2.7.2-1.7.5zm-84 4c.9.2 2.3.2 3 0 .6-.3-.1-.5-1.8-.5-1.6 0-2.2.2-1.2.5zm7.5 2c1.8.2 4.5.2 6 0s0-.4-3.3-.4-4.5.2-2.7.4zm16.5 4c.9.2 2.3.2 3 0 .6-.3-.1-.5-1.8-.5-1.6 0-2.2.2-1.2.5zm95.5 0c.6.2 1.8.2 2.5 0 .6-.3.1-.5-1.3-.5-1.4 0-1.9.2-1.2.5zm67.5 0c.9.2 2.3.2 3 0 .6-.3-.1-.5-1.8-.5-1.6 0-2.2.2-1.2.5zm-61.5 2c.6.2 1.8.2 2.5 0 .6-.3.1-.5-1.3-.5-1.4 0-1.9.2-1.2.5zm57 0c.7.3 1.6.2 1.9-.1.4-.3-.2-.6-1.3-.5-1.1 0-1.4.3-.6.6zm-47 4c.7.3 1.6.2 1.9-.1.4-.3-.2-.6-1.3-.5-1.1 0-1.4.3-.6.6zm39 0c.7.3 1.6.2 1.9-.1.4-.3-.2-.6-1.3-.5-1.1 0-1.4.3-.6.6zm-33 2c.7.3 1.6.2 1.9-.1.4-.3-.2-.6-1.3-.5-1.1 0-1.4.3-.6.6zm8 4c.7.3 1.6.2 1.9-.1.4-.3-.2-.6-1.3-.5-1.1 0-1.4.3-.6.6zm-175.5 2c2 .2 5.4.2 7.5 0 2-.2.3-.4-3.8-.4s-5.8.2-3.7.4zm26 4c.9.2 2.3.2 3 0 .6-.3-.1-.5-1.8-.5-1.6 0-2.2.2-1.2.5zm87 0c1.5.2 3.7.2 5 0 1.2-.2 0-.4-2.8-.4-2.7 0-3.8.2-2.2.4zm9.6 1.6c.4.4 7 .6 14.7.5l13.9-.3-14.7-.5c-8.1-.3-14.4-.1-13.9.3zm-168.6.4c1.5.2 3.9.2 5.5 0 1.5-.2.2-.4-2.8-.4s-4.3.2-2.7.4zm77.5 0c.7.3 1.6.2 1.9-.1.4-.3-.2-.6-1.3-.5-1.1 0-1.4.3-.6.6zm200 0c.7.3 1.6.2 1.9-.1.4-.3-.2-.6-1.3-.5-1.1 0-1.4.3-.6.6zm-331.5 4c1.5.2 3.7.2 5 0 1.2-.2 0-.4-2.8-.4-2.7 0-3.8.2-2.2.4zm23.5 0c1.8.2 4.5.2 6 0s0-.4-3.3-.4-4.5.2-2.7.4zm10 2c.7.3 1.6.2 1.9-.1.4-.3-.2-.6-1.3-.5-1.1 0-1.4.3-.6.6zm119 4c.7.3 1.6.2 1.9-.1.4-.3-.2-.6-1.3-.5-1.1 0-1.4.3-.6.6zm13.5 0c.9.2 2.3.2 3 0 .6-.3-.1-.5-1.8-.5-1.6 0-2.2.2-1.2.5zm5.5 2c.7.3 1.6.2 1.9-.1.4-.3-.2-.6-1.3-.5-1.1 0-1.4.3-.6.6zm8 4c.7.3 1.6.2 1.9-.1.4-.3-.2-.6-1.3-.5-1.1 0-1.4.3-.6.6zm6 2c.7.3 1.6.2 1.9-.1.4-.3-.2-.6-1.3-.5-1.1 0-1.4.3-.6.6zm-118 4c.7.3 1.6.2 1.9-.1.4-.3-.2-.6-1.3-.5-1.1 0-1.4.3-.6.6zm128.5 0c.9.2 2.3.2 3 0 .6-.3-.1-.5-1.8-.5-1.6 0-2.2.2-1.2.5zm55.5 0c.6.2 1.8.2 2.5 0 .6-.3.1-.5-1.3-.5-1.4 0-1.9.2-1.2.5zm-180 2c.7.3 1.6.2 1.9-.1.4-.3-.2-.6-1.3-.5-1.1 0-1.4.3-.6.6zm133.5 0c1.5.2 3.7.2 5 0 1.2-.2 0-.4-2.8-.4-2.7 0-3.8.2-2.2.4zm38 0c.9.2 2.3.2 3 0 .6-.3-.1-.5-1.8-.5-1.6 0-2.2.2-1.2.5zm-158.5 4c2.3.2 5.9.2 8 0 2-.2.1-.4-4.3-.4-4.4 0-6.1.2-3.7.4zm18 6c.7.3 1.6.2 1.9-.1.4-.3-.2-.6-1.3-.5-1.1 0-1.4.3-.6.6zm21 0c.7.3 1.6.2 1.9-.1.4-.3-.2-.6-1.3-.5-1.1 0-1.4.3-.6.6zm-95 12c.7.3 1.6.2 1.9-.1.4-.3-.2-.6-1.3-.5-1.1 0-1.4.3-.6.6zm58 0c.7.3 1.6.2 1.9-.1.4-.3-.2-.6-1.3-.5-1.1 0-1.4.3-.6.6zm58 0c.7.3 1.6.2 1.9-.1.4-.3-.2-.6-1.3-.5-1.1 0-1.4.3-.6.6zm15 0c.7.3 1.6.2 1.9-.1.4-.3-.2-.6-1.3-.5-1.1 0-1.4.3-.6.6zm-135 2c.7.3 1.6.2 1.9-.1.4-.3-.2-.6-1.3-.5-1.1 0-1.4.3-.6.6zm145 4c.7.3 1.6.2 1.9-.1.4-.3-.2-.6-1.3-.5-1.1 0-1.4.3-.6.6zm71.5 0c.9.2 2.5.2 3.5 0 .9-.3.1-.5-1.8-.5-1.9 0-2.7.2-1.7.5zm-67.5 2c.7.3 1.6.2 1.9-.1.4-.3-.2-.6-1.3-.5-1.1 0-1.4.3-.6.6zm58.5 0c1.5.2 3.7.2 5 0 1.2-.2 0-.4-2.8-.4-2.7 0-3.8.2-2.2.4zm15.5 0c.7.3 1.6.2 1.9-.1.4-.3-.2-.6-1.3-.5-1.1 0-1.4.3-.6.6zm105 0c.7.3 1.6.2 1.9-.1.4-.3-.2-.6-1.3-.5-1.1 0-1.4.3-.6.6zm-161.5 4c4.8.2 12.6.2 17.5 0 4.8-.1.8-.3-8.8-.3-9.6 0-13.6.2-8.7.3zm-122.5 2c.7.3 1.6.2 1.9-.1.4-.3-.2-.6-1.3-.5-1.1 0-1.4.3-.6.6zm193 12c2.3.2 6.1.2 8.5 0 2.3-.2.4-.4-4.3-.4s-6.6.2-4.2.4zm-123.5 4c.9.2 2.5.2 3.5 0 .9-.3.1-.5-1.8-.5-1.9 0-2.7.2-1.7.5zm104 0c1.5.2 3.7.2 5 0 1.2-.2 0-.4-2.8-.4-2.7 0-3.8.2-2.2.4zm-8.5 2c1.2.2 3 .2 4 0 .9-.3-.1-.5-2.3-.4-2.2 0-3 .2-1.7.4zm-62 4c.7.3 1.6.2 1.9-.1.4-.3-.2-.6-1.3-.5-1.1 0-1.4.3-.6.6zm28.5 0c3.7.2 9.6.2 13 0 3.4-.2.4-.3-6.8-.3-7.1 0-9.9.1-6.2.3zm127 8c.9.2 2.5.2 3.5 0 .9-.3.1-.5-1.8-.5-1.9 0-2.7.2-1.7.5zm-343.5 22c.6.2 1.8.2 2.5 0 .6-.3.1-.5-1.3-.5-1.4 0-1.9.2-1.2.5zm14 0c.7.3 1.6.2 1.9-.1.4-.3-.2-.6-1.3-.5-1.1 0-1.4.3-.6.6zm116 0c1.2.2 3 .2 4 0 .9-.3-.1-.5-2.3-.4-2.2 0-3 .2-1.7.4zm-135 2c.7.3 1.6.2 1.9-.1.4-.3-.2-.6-1.3-.5-1.1 0-1.4.3-.6.6zm130 0c.7.3 1.6.2 1.9-.1.4-.3-.2-.6-1.3-.5-1.1 0-1.4.3-.6.6zm-138 4c.7.3 1.6.2 1.9-.1.4-.3-.2-.6-1.3-.5-1.1 0-1.4.3-.6.6zm90 2c.7.3 1.6.2 1.9-.1.4-.3-.2-.6-1.3-.5-1.1 0-1.4.3-.6.6zm25.5 6c.9.2 2.3.2 3 0 .6-.3-.1-.5-1.8-.5-1.6 0-2.2.2-1.2.5zm8.5 0c.7.3 1.6.2 1.9-.1.4-.3-.2-.6-1.3-.5-1.1 0-1.4.3-.6.6zm104.5 28c.9.2 2.3.2 3 0 .6-.3-.1-.5-1.8-.5-1.6 0-2.2.2-1.2.5zm23 0c.9.2 2.3.2 3 0 .6-.3-.1-.5-1.8-.5-1.6 0-2.2.2-1.2.5zm-27.5 2c.7.3 1.6.2 1.9-.1.4-.3-.2-.6-1.3-.5-1.1 0-1.4.3-.6.6zm33 0c.7.3 1.6.2 1.9-.1.4-.3-.2-.6-1.3-.5-1.1 0-1.4.3-.6.6zm-41 4c.7.3 1.6.2 1.9-.1.4-.3-.2-.6-1.3-.5-1.1 0-1.4.3-.6.6zm-26 20c.7.3 1.6.2 1.9-.1.4-.3-.2-.6-1.3-.5-1.1 0-1.4.3-.6.6zm-6 40c.7.3 1.6.2 1.9-.1.4-.3-.2-.6-1.3-.5-1.1 0-1.4.3-.6.6zm-12 8c.7.3 1.6.2 1.9-.1.4-.3-.2-.6-1.3-.5-1.1 0-1.4.3-.6.6zm-6 4c.7.3 1.6.2 1.9-.1.4-.3-.2-.6-1.3-.5-1.1 0-1.4.3-.6.6z" fill="none"/><path d="M393.5 58c1 1.1 2 2 2.3 2 .3 0-.3-.9-1.3-2s-2-2-2.3-2c-.3 0 .3.9 1.3 2zm6 6c1 1.1 2 2 2.3 2 .3 0-.3-.9-1.3-2s-2-2-2.3-2c-.3 0 .3.9 1.3 2zm-72.6 12.7c-1.3 1.6-1.2 1.7.4.4 1.6-1.3 2.1-2.1 1.3-2.1-.2 0-1 .8-1.7 1.7zM307.5 94c1 1.1 2 2 2.3 2 .3 0-.3-.9-1.3-2s-2-2-2.3-2c-.3 0 .3.9 1.3 2zm-24.6.7c-1.3 1.6-1.2 1.7.4.4.9-.7 1.7-1.5 1.7-1.7 0-.8-.8-.3-2.1 1.3zm32.6 11.3c1 1.1 2 2 2.3 2 .3 0-.3-.9-1.3-2s-2-2-2.3-2c-.3 0 .3.9 1.3 2zm44 18c1 1.1 2 2 2.3 2 .3 0-.3-.9-1.3-2s-2-2-2.3-2c-.3 0 .3.9 1.3 2zm59.9.2-1.9 2.3 2.3-1.9c2.1-1.8 2.7-2.6 1.9-2.6-.2 0-1.2 1-2.3 2.2zm49.6 29.2c0 .2.8 1 1.8 1.7 1.5 1.3 1.6 1.2.3-.4s-2.1-2.1-2.1-1.3zm-122 12c0 .2.8 1 1.8 1.7 1.5 1.3 1.6 1.2.3-.4s-2.1-2.1-2.1-1.3zm-12.1 13.3c-1.3 1.6-1.2 1.7.4.4.9-.7 1.7-1.5 1.7-1.7 0-.8-.8-.3-2.1 1.3zm-7 5c-1.3 1.6-1.2 1.7.4.4 1.6-1.3 2.1-2.1 1.3-2.1-.2 0-1 .8-1.7 1.7zm126 48c-1.3 1.6-1.2 1.7.4.4 1.6-1.3 2.1-2.1 1.3-2.1-.2 0-1 .8-1.7 1.7zm24.1-1.3c0 .2.8 1 1.8 1.7 1.5 1.3 1.6 1.2.3-.4s-2.1-2.1-2.1-1.3zm-31.1 8.3c-1.3 1.6-1.2 1.7.4.4.9-.7 1.7-1.5 1.7-1.7 0-.8-.8-.3-2.1 1.3zm22.5 35.5-1.9 2.3 2.3-1.9c1.2-1.1 2.2-2.1 2.2-2.3 0-.8-.8-.2-2.6 1.9zm-8 6-1.9 2.3 2.3-1.9c1.2-1.1 2.2-2.1 2.2-2.3 0-.8-.8-.2-2.6 1.9zm-18.5 18.5c-1.3 1.6-1.2 1.7.4.4.9-.7 1.7-1.5 1.7-1.7 0-.8-.8-.3-2.1 1.3zm18.1-1.3c0 .2.8 1 1.8 1.7 1.5 1.3 1.6 1.2.3-.4s-2.1-2.1-2.1-1.3zm-43.6 6.8-1.9 2.3 2.3-1.9c2.1-1.8 2.7-2.6 1.9-2.6-.2 0-1.2 1-2.3 2.2zm14.6-1.8c0 .2.8 1 1.8 1.7 1.5 1.3 1.6 1.2.3-.4s-2.1-2.1-2.1-1.3zm5.9 1.3c-1.3 1.6-1.2 1.7.4.4.9-.7 1.7-1.5 1.7-1.7 0-.8-.8-.3-2.1 1.3zm29.6.3c1 1.1 2 2 2.3 2 .3 0-.3-.9-1.3-2s-2-2-2.3-2c-.3 0 .3.9 1.3 2zm-138 12c1 1.1 2 2 2.3 2 .3 0-.3-.9-1.3-2s-2-2-2.3-2c-.3 0 .3.9 1.3 2zm-36.1 6.2-1.9 2.3 2.3-1.9c2.1-1.8 2.7-2.6 1.9-2.6-.2 0-1.2 1-2.3 2.2zM263.5 334c1 1.1 2 2 2.3 2 .3 0-.3-.9-1.3-2s-2-2-2.3-2c-.3 0 .3.9 1.3 2zm19.9.2-1.9 2.3 2.3-1.9c1.2-1.1 2.2-2.1 2.2-2.3 0-.8-.8-.2-2.6 1.9zm-45.5 17.5c-1.3 1.6-1.2 1.7.4.4.9-.7 1.7-1.5 1.7-1.7 0-.8-.8-.3-2.1 1.3zm173 1c-1.3 1.6-1.2 1.7.4.4 1.6-1.3 2.1-2.1 1.3-2.1-.2 0-1 .8-1.7 1.7zm80 0c-1.3 1.6-1.2 1.7.4.4.9-.7 1.7-1.5 1.7-1.7 0-.8-.8-.3-2.1 1.3zm6.1-1.3c0 .2.8 1 1.8 1.7 1.5 1.3 1.6 1.2.3-.4s-2.1-2.1-2.1-1.3zm-267.6 6.8-1.9 2.3 2.3-1.9c2.1-1.8 2.7-2.6 1.9-2.6-.2 0-1.2 1-2.3 2.2zm253.5.5c-1.3 1.6-1.2 1.7.4.4 1.6-1.3 2.1-2.1 1.3-2.1-.2 0-1 .8-1.7 1.7zm30.1-1.3c0 .2.8 1 1.8 1.7 1.5 1.3 1.6 1.2.3-.4s-2.1-2.1-2.1-1.3zm-289.6 6.8-1.9 2.3 2.3-1.9c2.1-1.8 2.7-2.6 1.9-2.6-.2 0-1.2 1-2.3 2.2zm225.6-.8c0 .2.8 1 1.8 1.7 1.5 1.3 1.6 1.2.3-.4s-2.1-2.1-2.1-1.3zm-231.6 6.8-1.9 2.3 2.3-1.9c2.1-1.8 2.7-2.6 1.9-2.6-.2 0-1.2 1-2.3 2.2zm88 0-1.9 2.3 2.3-1.9c1.2-1.1 2.2-2.1 2.2-2.3 0-.8-.8-.2-2.6 1.9zm150.1-.2c1 1.1 2 2 2.3 2 .3 0-.3-.9-1.3-2s-2-2-2.3-2c-.3 0 .3.9 1.3 2zm18.4-.3c-1.3 1.6-1.2 1.7.4.4 1.6-1.3 2.1-2.1 1.3-2.1-.2 0-1 .8-1.7 1.7zm-262.5 6.5-1.9 2.3 2.3-1.9c2.1-1.8 2.7-2.6 1.9-2.6-.2 0-1.2 1-2.3 2.2zm155.5.5c-1.3 1.6-1.2 1.7.4.4 1.6-1.3 2.1-2.1 1.3-2.1-.2 0-1 .8-1.7 1.7zm72.1-1.3c0 .2.8 1 1.8 1.7 1.5 1.3 1.6 1.2.3-.4s-2.1-2.1-2.1-1.3zm7 5c0 .2.8 1 1.8 1.7 1.5 1.3 1.6 1.2.3-.4s-2.1-2.1-2.1-1.3zm-100.6 13.8-1.9 2.3 2.3-1.9c2.1-1.8 2.7-2.6 1.9-2.6-.2 0-1.2 1-2.3 2.2zm-102 6-1.9 2.3 2.3-1.9c2.1-1.8 2.7-2.6 1.9-2.6-.2 0-1.2 1-2.3 2.2zm148.6-1.8c0 .2.8 1 1.8 1.7 1.5 1.3 1.6 1.2.3-.4s-2.1-2.1-2.1-1.3zm53.5 1.6c1 1.1 2 2 2.3 2 .3 0-.3-.9-1.3-2s-2-2-2.3-2c-.3 0 .3.9 1.3 2zM317 405.4c0 .2.8 1 1.8 1.7 1.5 1.3 1.6 1.2.3-.4s-2.1-2.1-2.1-1.3zm-80.1 7.3c-1.3 1.6-1.2 1.7.4.4.9-.7 1.7-1.5 1.7-1.7 0-.8-.8-.3-2.1 1.3zm226 0c-1.3 1.6-1.2 1.7.4.4.9-.7 1.7-1.5 1.7-1.7 0-.8-.8-.3-2.1 1.3zm-5.5 5.5-1.9 2.3 2.3-1.9c1.2-1.1 2.2-2.1 2.2-2.3 0-.8-.8-.2-2.6 1.9zm-16.4-.8c0 .2.8 1 1.8 1.7 1.5 1.3 1.6 1.2.3-.4s-2.1-2.1-2.1-1.3zm-229.6 12.8-1.9 2.3 2.3-1.9c2.1-1.8 2.7-2.6 1.9-2.6-.2 0-1.2 1-2.3 2.2zm278.5-.5c-1.3 1.6-1.2 1.7.4.4 1.6-1.3 2.1-2.1 1.3-2.1-.2 0-1 .8-1.7 1.7zm-329 1c-1.3 1.6-1.2 1.7.4.4.9-.7 1.7-1.5 1.7-1.7 0-.8-.8-.3-2.1 1.3zm42.6 5.3c1 1.1 2 2 2.3 2 .3 0-.3-.9-1.3-2s-2-2-2.3-2c-.3 0 .3.9 1.3 2zm111.4.7c-1.3 1.6-1.2 1.7.4.4.9-.7 1.7-1.5 1.7-1.7 0-.8-.8-.3-2.1 1.3zm-165.5 5.5c-.4.7-.3.8.5.4.6-.4 2-.2 2.9.6 1.5 1.2 1.6 1.1.3-.5-1.6-2-2.7-2.2-3.7-.5zm152.5 5.5c-1.3 1.6-1.2 1.7.4.4.9-.7 1.7-1.5 1.7-1.7 0-.8-.8-.3-2.1 1.3zm5.6.3c1 1.1 2 2 2.3 2 .3 0-.3-.9-1.3-2s-2-2-2.3-2c-.3 0 .3.9 1.3 2zm120 0c1 1.1 2 2 2.3 2 .3 0-.3-.9-1.3-2s-2-2-2.3-2c-.3 0 .3.9 1.3 2zm10.4-.3c-1.3 1.6-1.2 1.7.4.4 1.6-1.3 2.1-2.1 1.3-2.1-.2 0-1 .8-1.7 1.7zm-5 7c-1.3 1.6-1.2 1.7.4.4.9-.7 1.7-1.5 1.7-1.7 0-.8-.8-.3-2.1 1.3zM163 459.4c0 .2.8 1 1.8 1.7 1.5 1.3 1.6 1.2.3-.4s-2.1-2.1-2.1-1.3zm101.9 1.3c-1.3 1.6-1.2 1.7.4.4 1.6-1.3 2.1-2.1 1.3-2.1-.2 0-1 .8-1.7 1.7zm24.1-1.3c0 .2.8 1 1.8 1.7 1.5 1.3 1.6 1.2.3-.4s-2.1-2.1-2.1-1.3zm-122 6c0 .2.8 1 1.8 1.7 1.5 1.3 1.6 1.2.3-.4s-2.1-2.1-2.1-1.3zm89.9 1.3c-1.3 1.6-1.2 1.7.4.4 1.6-1.3 2.1-2.1 1.3-2.1-.2 0-1 .8-1.7 1.7zm-45.9 4.7c0 .2.8 1 1.8 1.7 1.5 1.3 1.6 1.2.3-.4s-2.1-2.1-2.1-1.3zm37.9 1.3c-1.3 1.6-1.2 1.7.4.4 1.6-1.3 2.1-2.1 1.3-2.1-.2 0-1 .8-1.7 1.7zm58 0c-1.3 1.6-1.2 1.7.4.4 1.6-1.3 2.1-2.1 1.3-2.1-.2 0-1 .8-1.7 1.7zm18.1-1.3c0 .2.8 1 1.8 1.7 1.5 1.3 1.6 1.2.3-.4s-2.1-2.1-2.1-1.3zm-81.6 6.8-1.9 2.3 2.3-1.9c2.1-1.8 2.7-2.6 1.9-2.6-.2 0-1.2 1-2.3 2.2zm-21.9 5.8c1 1.1 2 2 2.3 2 .3 0-.3-.9-1.3-2s-2-2-2.3-2c-.3 0 .3.9 1.3 2zM337 507.4c0 .2.8 1 1.8 1.7 1.5 1.3 1.6 1.2.3-.4s-2.1-2.1-2.1-1.3zm6.5 6.6c1 1.1 2 2 2.3 2 .3 0-.3-.9-1.3-2s-2-2-2.3-2c-.3 0 .3.9 1.3 2zm114 0c1 1.1 2 2 2.3 2 .3 0-.3-.9-1.3-2s-2-2-2.3-2c-.3 0 .3.9 1.3 2zm-20.6.7c-1.3 1.6-1.2 1.7.4.4.9-.7 1.7-1.5 1.7-1.7 0-.8-.8-.3-2.1 1.3zm46.5 5.5-1.9 2.3 2.3-1.9c2.1-1.8 2.7-2.6 1.9-2.6-.2 0-1.2 1-2.3 2.2zm-274.4-.8c0 .2.8 1 1.8 1.7 1.5 1.3 1.6 1.2.3-.4s-2.1-2.1-2.1-1.3zm219.9 1.3c-1.3 1.6-1.2 1.7.4.4 1.6-1.3 2.1-2.1 1.3-2.1-.2 0-1 .8-1.7 1.7zm-8 6c-1.3 1.6-1.2 1.7.4.4 1.6-1.3 2.1-2.1 1.3-2.1-.2 0-1 .8-1.7 1.7zm-5.5 5.5-1.9 2.3 2.3-1.9c1.2-1.1 2.2-2.1 2.2-2.3 0-.8-.8-.2-2.6 1.9zm-6 6-1.9 2.3 2.3-1.9c1.2-1.1 2.2-2.1 2.2-2.3 0-.8-.8-.2-2.6 1.9zm-246.4-.8c0 .2.8 1 1.8 1.7 1.5 1.3 1.6 1.2.3-.4s-2.1-2.1-2.1-1.3zm8.5 6.6c1 1.1 2 2 2.3 2 .3 0-.3-.9-1.3-2s-2-2-2.3-2c-.3 0 .3.9 1.3 2zm-38.6.7c-1.3 1.6-1.2 1.7.4.4.9-.7 1.7-1.5 1.7-1.7 0-.8-.8-.3-2.1 1.3zm-5.5 5.5-1.9 2.3 2.3-1.9c2.1-1.8 2.7-2.6 1.9-2.6-.2 0-1.2 1-2.3 2.2zm47.6-.8c0 .2.8 1 1.8 1.7 1.5 1.3 1.6 1.2.3-.4s-2.1-2.1-2.1-1.3zm173.9 37.3c-1.3 1.6-1.2 1.7.4.4 1.6-1.3 2.1-2.1 1.3-2.1-.2 0-1 .8-1.7 1.7zm-7 5c-1.3 1.6-1.2 1.7.4.4.9-.7 1.7-1.5 1.7-1.7 0-.8-.8-.3-2.1 1.3zm-8.5 6.5-1.9 2.3 2.3-1.9c2.1-1.8 2.7-2.6 1.9-2.6-.2 0-1.2 1-2.3 2.2zm-5.5 5.5c-1.3 1.6-1.2 1.7.4.4.9-.7 1.7-1.5 1.7-1.7 0-.8-.8-.3-2.1 1.3zm-8.5 6.5-1.9 2.3 2.3-1.9c1.2-1.1 2.2-2.1 2.2-2.3 0-.8-.8-.2-2.6 1.9zm-6 6-1.9 2.3 2.3-1.9c2.1-1.8 2.7-2.6 1.9-2.6-.2 0-1.2 1-2.3 2.2zm-6 6-1.9 2.3 2.3-1.9c1.2-1.1 2.2-2.1 2.2-2.3 0-.8-.8-.2-2.6 1.9zm-6 6-1.9 2.3 2.3-1.9c1.2-1.1 2.2-2.1 2.2-2.3 0-.8-.8-.2-2.6 1.9zm24 12-1.9 2.3 2.3-1.9c1.2-1.1 2.2-2.1 2.2-2.3 0-.8-.8-.2-2.6 1.9zm-8.5 6.5c-1.3 1.6-1.2 1.7.4.4.9-.7 1.7-1.5 1.7-1.7 0-.8-.8-.3-2.1 1.3zm-7 5c-1.3 1.6-1.2 1.7.4.4 1.6-1.3 2.1-2.1 1.3-2.1-.2 0-1 .8-1.7 1.7zm-11 7c-1.3 1.6-1.2 1.7.4.4.9-.7 1.7-1.5 1.7-1.7 0-.8-.8-.3-2.1 1.3zm-5.5 5.5-1.9 2.3 2.3-1.9c2.1-1.8 2.7-2.6 1.9-2.6-.2 0-1.2 1-2.3 2.2z" fill="#FFF" fill-opacity=".19"/><path d="M376.3 53.7c2 .2 5.4.2 7.5 0 2-.2.3-.4-3.8-.4s-5.8.2-3.7.4zm48.5 16c1.2.2 3.2.2 4.5 0 1.2-.2.2-.4-2.3-.4s-3.5.2-2.2.4zm9.5 2c.9.2 2.5.2 3.5 0 .9-.3.1-.5-1.8-.5-1.9 0-2.7.2-1.7.5zm-139.5 18c1.2.2 3.2.2 4.5 0 1.2-.2.2-.4-2.3-.4s-3.5.2-2.2.4zM323 113c0 .5.5 1 1 1 .6 0 1-.5 1-1 0-.6-.4-1-1-1-.5 0-1 .4-1 1zm120.3.7c1.5.2 3.9.2 5.5 0 1.5-.2.2-.4-2.8-.4s-4.3.2-2.7.4zm-97.5 4c.6.2 1.8.2 2.5 0 .6-.3.1-.5-1.3-.5-1.4 0-1.9.2-1.2.5zM426 119c1.9 1.3 3 1.3 3 0 0-.6-1-1-2.2-1-1.9 0-2 .2-.8 1zm-82.2 46.7c.6.2 1.8.2 2.5 0 .6-.3.1-.5-1.3-.5-1.4 0-1.9.2-1.2.5zM335 167c0 .5 1 1 2.3 1 1.8 0 1.9-.2.7-1-1.9-1.3-3-1.3-3 0zm134.3 6.7c1.5.2 3.9.2 5.5 0 1.5-.2.2-.4-2.8-.4s-4.3.2-2.7.4zm-158.5 17.5c.6.6 1.8.8 2.8.6 1.4-.3 1.2-.5-.9-1-1.9-.3-2.5-.2-1.9.4zm158 36.5c1.2.2 3.2.2 4.5 0 1.2-.2.2-.4-2.3-.4s-3.5.2-2.2.4zm-14 3.5c.6.6 1.8.8 2.8.6 1.4-.3 1.2-.5-.9-1-1.9-.3-2.5-.2-1.9.4zm22.5 78.5c1.5.2 3.9.2 5.5 0 1.5-.2.2-.4-2.8-.4s-4.3.2-2.7.4zm-155.5 2c.6.2 1.8.2 2.5 0 .6-.3.1-.5-1.3-.5-1.4 0-1.9.2-1.2.5zm-76 36c.6.2 1.8.2 2.5 0 .6-.3.1-.5-1.3-.5-1.4 0-1.9.2-1.2.5zm108 4c2.8.2 7.6.2 10.5 0 2.8-.2.5-.3-5.3-.3s-8.1.1-5.2.3zm61.5 0c1.5.2 3.9.2 5.5 0 1.5-.2.2-.4-2.8-.4s-4.3.2-2.7.4zm78.5 0c.6.2 1.8.2 2.5 0 .6-.3.1-.5-1.3-.5-1.4 0-1.9.2-1.2.5zM428 353c-1.2.8-1.1 1 .8 1 1.2 0 2.2-.5 2.2-1 0-1.3-1.1-1.3-3 0zm-54.2.7c.6.2 1.8.2 2.5 0 .6-.3.1-.5-1.3-.5-1.4 0-1.9.2-1.2.5zm-51.5 12c4.2.2 11.2.2 15.5 0 4.2-.1.7-.3-7.8-.3s-12 .2-7.7.3zm64 10c.9.2 2.5.2 3.5 0 .9-.3.1-.5-1.8-.5-1.9 0-2.7.2-1.7.5zm9.5 2c.6.2 1.8.2 2.5 0 .6-.3.1-.5-1.3-.5-1.4 0-1.9.2-1.2.5zm-119.1 3.4c.7.7 1.5 1 1.8.7.3-.3-.2-.9-1.2-1.2-1.4-.6-1.5-.5-.6.5zm34.1.6c2.3.2 6.1.2 8.5 0 2.3-.2.4-.4-4.3-.4s-6.6.2-4.2.4zm15 2c.6.2 1.8.2 2.5 0 .6-.3.1-.5-1.3-.5-1.4 0-1.9.2-1.2.5zm-61.5 6c.9.2 2.5.2 3.5 0 .9-.3.1-.5-1.8-.5-1.9 0-2.7.2-1.7.5zm103.5 4c.6.2 1.8.2 2.5 0 .6-.3.1-.5-1.3-.5-1.4 0-1.9.2-1.2.5zm-118 2c.6.2 1.8.2 2.5 0 .6-.3.1-.5-1.3-.5-1.4 0-1.9.2-1.2.5zm124.5 0c.9.2 2.5.2 3.5 0 .9-.3.1-.5-1.8-.5-1.9 0-2.7.2-1.7.5zM391 399c-2.3.7-2.3.8-.3.9 1.2.1 2.5-.4 2.8-.9.3-.6.5-1 .3-.9-.2.1-1.4.5-2.8.9zm-101.2.7c.7.3 1.6.2 1.9-.1.4-.3-.2-.6-1.3-.5-1.1 0-1.4.3-.6.6zM397 401c-2.4.8-2.3.8.8.9 1.7.1 3.2-.4 3.2-.9 0-1.1-.5-1.1-4 0zm-99.7.7c1.5.2 3.9.2 5.5 0 1.5-.2.2-.4-2.8-.4s-4.3.2-2.7.4zm16.5 4c.6.2 1.8.2 2.5 0 .6-.3.1-.5-1.3-.5-1.4 0-1.9.2-1.2.5zm96 0c.6.2 1.8.2 2.5 0 .6-.3.1-.5-1.3-.5-1.4 0-1.9.2-1.2.5zm68 0c.6.2 1.8.2 2.5 0 .6-.3.1-.5-1.3-.5-1.4 0-1.9.2-1.2.5zm-62 2c.6.2 1.8.2 2.5 0 .6-.3.1-.5-1.3-.5-1.4 0-1.9.2-1.2.5zm-151.5 12c2 .2 5.4.2 7.5 0 2-.2.3-.4-3.8-.4s-5.8.2-3.7.4zm25.5 4c.6.2 1.8.2 2.5 0 .6-.3.1-.5-1.3-.5-1.4 0-1.9.2-1.2.5zm87 0c1.2.2 3.2.2 4.5 0 1.2-.2.2-.4-2.3-.4s-3.5.2-2.2.4zM402 425l-15.5.6 19.3.2c12.3.1 19.2-.2 19.2-.8 0-.6-1.7-.9-3.7-.8-2.1.1-10.8.5-19.3.8zm-183.2.7c1.2.2 3.2.2 4.5 0 1.2-.2.2-.4-2.3-.4s-3.5.2-2.2.4zm-54 4c1.2.2 3.2.2 4.5 0 1.2-.2.2-.4-2.3-.4s-3.5.2-2.2.4zm22 0c1.2.2 3.2.2 4.5 0 1.2-.2.2-.4-2.3-.4s-3.5.2-2.2.4zm143 6c.6.2 1.8.2 2.5 0 .6-.3.1-.5-1.3-.5-1.4 0-1.9.2-1.2.5zm30 12c.6.2 1.8.2 2.5 0 .6-.3.1-.5-1.3-.5-1.4 0-1.9.2-1.2.5zm56 0c.6.2 1.8.2 2.5 0 .6-.3.1-.5-1.3-.5-1.4 0-1.9.2-1.2.5zm-47 2c1.2.2 3.2.2 4.5 0 1.2-.2.2-.4-2.3-.4s-3.5.2-2.2.4zm39 0c.6.2 1.8.2 2.5 0 .6-.3.1-.5-1.3-.5-1.4 0-1.9.2-1.2.5zm-159.5 4c2 .2 5.4.2 7.5 0 2-.2.3-.4-3.8-.4s-5.8.2-3.7.4zm157.5 24c.6.2 1.8.2 2.5 0 .6-.3.1-.5-1.3-.5-1.4 0-1.9.2-1.2.5zm-9 2c1.2.2 3.2.2 4.5 0 1.2-.2.2-.4-2.3-.4s-3.5.2-2.2.4zm-47 4c1.7.2 4.7.2 6.5 0 1.7-.2.3-.4-3.3-.4-3.6 0-5 .2-3.2.4zm19 0c2.3.2 6.1.2 8.5 0 2.3-.2.4-.4-4.3-.4s-6.6.2-4.2.4zm59 14c1.7.2 4.7.2 6.5 0 1.7-.2.3-.4-3.3-.4-3.6 0-5 .2-3.2.4zm-126.9 3.6c.5.5 2.1.7 3.7.5 2.7-.3 2.6-.4-.8-.9-2.2-.3-3.4-.1-2.9.4zm21.1-.3c-1.2.8-1.1 1 .7 1 1.2 0 2.5-.5 2.8-1 .8-1.3-1.5-1.3-3.5 0zm86.3.7c.9.2 2.5.2 3.5 0 .9-.3.1-.5-1.8-.5-1.9 0-2.7.2-1.7.5zm-10 2c.9.2 2.5.2 3.5 0 .9-.3.1-.5-1.8-.5-1.9 0-2.7.2-1.7.5zm-33.5 4c3.4.2 9 .2 12.5 0 3.4-.2.6-.3-6.3-.3-6.9 0-9.7.1-6.2.3zm127 8c.6.2 1.8.2 2.5 0 .6-.3.1-.5-1.3-.5-1.4 0-1.9.2-1.2.5zm-344 22c.6.2 1.8.2 2.5 0 .6-.3.1-.5-1.3-.5-1.4 0-1.9.2-1.2.5zm130.5 0c.9.2 2.5.2 3.5 0 .9-.3.1-.5-1.8-.5-1.9 0-2.7.2-1.7.5zm-29.6 13.4c.7.7 1.5 1 1.8.7.3-.3-.2-.9-1.2-1.2-1.4-.6-1.5-.5-.6.5zm115.1 28.6c.6.2 1.8.2 2.5 0 .6-.3.1-.5-1.3-.5-1.4 0-1.9.2-1.2.5zm22 0c.6.2 1.8.2 2.5 0 .6-.3.1-.5-1.3-.5-1.4 0-1.9.2-1.2.5z" fill="#FFF" fill-opacity=".25"/><path d="M318 107.4c0 .2.8 1 1.8 1.7 1.5 1.3 1.6 1.2.3-.4s-2.1-2.1-2.1-1.3zm131.3 126.1c0 .8.4 1.2.9.9.5-.3.6-1 .3-1.5-.9-1.3-1.2-1.1-1.2.6zm42.6 193.2c-1.3 1.6-1.2 1.7.4.4 1.6-1.3 2.1-2.1 1.3-2.1-.2 0-1 .8-1.7 1.7zm-152 113c-1.3 1.6-1.2 1.7.4.4.9-.7 1.7-1.5 1.7-1.7 0-.8-.8-.3-2.1 1.3zm54.1 41.7c0 .2.8 1 1.8 1.7 1.5 1.3 1.6 1.2.3-.4s-2.1-2.1-2.1-1.3zm7 13c0 .2.8 1 1.8 1.7 1.5 1.3 1.6 1.2.3-.4s-2.1-2.1-2.1-1.3z" fill="#FFF" fill-opacity=".06"/><g fill="#FFF" stroke-width="0"><path d="M372 55c0 .5-1.8 1-4 1s-4 .4-4 1c0 .5-.9 1-2 1s-2 .4-2 1c0 .5-.9 1-2 1s-2 .4-2 1c0 .5-.9 1-2 1s-2 .4-2 1c0 .5-.6 1-1.3 1-.7 0-2.3.9-3.5 2-1.2 1.1-2.8 2-3.7 2-.8 0-1.5.4-1.5 1 0 .5-.7 1-1.5 1-.9 0-2.5.9-3.7 2-1.2 1.1-2.8 2-3.5 2-.7 0-1.3.4-1.3 1 0 .5-.7 1-1.5 1-2 0-8.5 6.5-8.5 8.5 0 .8-.4 1.5-1 1.5-.5 0-1 2.2-1 5 0 2.7.5 5 1 5 .6 0 1 .9 1 2s-.4 2-1 2c-.5 0-1 1.8-1 4s.5 4 1 4c.6 0 1 .9 1 2 0 1.6.7 2 3.4 2 1.9 0 3.8.4 4.1 1 .3.5 2.1 1 4 1s3.7-.5 4-1c.3-.6 1.4-1 2.3-1 1 0 2.4-.9 3.2-2 .8-1.1 2.2-2 3.2-2s1.8-.5 1.8-1c0-.6.9-1 2-1s2-.5 2-1c0-.6.9-1 2-1s2-.5 2-1c0-.6.9-1 2-1s2-.5 2-1c0-.6.6-1 1.4-1 .8 0 4.2-2.7 7.5-6 3.4-3.3 6.7-6 7.4-6 .7 0 1.9.9 2.7 2 .8 1.2 2.6 2 4.2 2 1.5 0 2.8.4 2.8 1 0 .5 1.4 1 3 1 1.7 0 3 .4 3 1 0 .5.7 1 1.5 1 2.6 0 5.7 2.3 13.6 10.2 4.3 4.3 8.5 7.8 9.4 7.8.8 0 1.5.4 1.5 1 0 .5 1.4 1 3 1 1.7 0 3 .4 3 1 0 .5 1.4 1 3 1 1.7 0 3 .4 3 1 0 .5-1 1-2.3 1-3.3 0-9.7 6.2-9.7 9.4 0 1.4.5 2.6 1 2.6.6 0 1 2.7 1 6s-.4 6-1 6c-1.4 0-1.2 10.1.3 13.3.6 1.5 1.5 2.7 2 2.7.4 0 .7.7.7 1.5 0 .9.8 1.9 1.8 2.2.9.4 2.9 1.9 4.4 3.5 1.4 1.5 3.2 2.8 4 2.8.7 0 2 .9 2.8 2 .8 1.1 2.2 2 3.2 2s1.8.4 1.8 1c0 .5.9 1 2 1s2 .4 2 1c0 .5.9 1 2 1s2 .3 2 .6c0 1.1-2.9 3.4-4.4 3.4-.9 0-1.6.3-1.6.8 0 .4-1.3 1.3-3 2-2.7 1.2-3 1.8-3 5.7 0 2.4.5 4.7 1 5 .6.3 1 5 1 10.6 0 5.9.4 9.9 1 9.9s1 1.1 1 2.5c0 2.9 11.1 14.8 11.8 12.7.2-.7 1.2-1.2 2.3-1.2 1 0 1.9-.5 1.9-1 0-.6.9-1 2-1s2-.5 2-1c0-.6 1.4-1 3-1 1.7 0 3-.4 3-1 0-.5 3.9-.9 9.4-.8 7.9.2 9.6-.1 11.2-1.7 1.3-1.3 1.5-2 .6-2.3-.7-.2-1.2-2.1-1.2-4.3 0-2.1-.4-3.9-1-3.9s-1-3-1-6.9c0-3.9-.4-7.3-1-7.6-.5-.3-1-3.5-1-7s-.4-6.7-1-7c-.5-.3-1-2-1-3.6 0-1.7-.6-3.7-1.4-4.5-1.9-1.8-12.2-1.9-12.9-.2-.2.7-.8 1-1.2.6-.5-.5.2-1.6 1.3-2.7 1.2-1 2.2-2.6 2.2-3.5 0-.9.5-1.6 1-1.6.6 0 1-.9 1-2s.5-2 1-2c.6 0 1-1.7 1-3.8 0-2.6-.6-4.2-2-5.2-1.1-.8-2-2.2-2-3.2s-.4-1.8-1-1.8c-.5 0-1-.9-1-2s-.4-2-1-2c-.5 0-1-1.5-1-3.4s-.4-3.8-1-4.1c-.5-.3-1-4.2-1-8.6 0-4.3-.4-7.9-.9-7.9s-1.1-.9-1.4-2c-.3-1.1-1.2-2-2.1-2-.9 0-1.6-.5-1.6-1 0-.6-.9-1-2-1s-2-.5-2-1c0-.6-2.7-1-6.1-1-4.5 0-5.9-.3-5.5-1.3.3-.6.9-2 1.2-3 .4-.9 1-1.7 1.5-1.7s.9-1.4.9-3c0-1.7.5-3 1-3 .6 0 1-4.7 1-12s-.4-12-1-12c-.5 0-1-.9-1-2 0-1.3-.7-2-2-2-1.1 0-2-.5-2-1 0-.6-1.8-1-4-1s-4-.5-4-1c0-.6-2.2-1-5-1-2.7 0-5-.5-5-1 0-.6-3.9-1-9.6-1h-9.5l-5.9-6c-3.2-3.3-6.6-6-7.4-6-.9 0-1.6-.5-1.6-1 0-.6-3.3-1-8-1s-8 .4-8 1z"/><path d="M292 91c0 .5-.9 1-2 1s-2 .4-2 1c0 .5-.7 1-1.5 1-2 0-8.5 6.5-8.5 8.5 0 .8-.4 1.5-1 1.5-.5 0-1 .9-1 2s-.4 2-1 2c-.5 0-1 1.3-1 3 0 1.6-.4 3-1 3-.5 0-1 2.2-1 5 0 2.7-.4 5-1 5s-1 2.8-1 6.4c0 3.6-.4 6.8-1 7.1-.5.3-1 2.8-1 5.6 0 2.7-.4 4.9-.9 4.9-1 0-2.1 17.2-2.1 32.5-.1 14.9 1.1 31.5 2.1 31.5.5 0 .9.6.9 1.3 0 1.6 5.7 7.7 8.8 9.4 2.6 1.6 19.2 1.8 19.2.3 0-.6 1.4-1 3-1 1.7 0 3-.5 3-1 0-.6 1.4-1 3-1 1.7 0 3-.5 3-1 0-.6.9-1 2-1s2-.5 2-1c0-.6.9-1 2-1s2-.5 2-1c0-.6.7-1 1.5-1 .9 0 2.5-.9 3.7-2 1.2-1.1 2.8-2 3.5-2 .7 0 1.3-.5 1.3-1 0-.6.7-1 1.5-1s2.9-1.4 4.7-3c1.7-1.7 3.5-3 4-3 1.5 0 11.8-10.9 11.8-12.5 0-.8.5-1.5 1-1.5.6 0 1-.9 1-2s.5-2 1-2c.6 0 1-2.8 1-6.5 0-5.7-.3-6.9-2.5-9-2.5-2.6-7.8-3.4-9-1.5-.3.5-1.9 1-3.6 1-2.2 0-2.9.5-2.9 2 0 1.3.7 2 2 2 1.5 0 2 .7 2 2.5 0 2.7-4 7.5-6.2 7.5-.8 0-2 .9-2.8 2-.8 1.1-2.2 2-3.2 2s-1.8.4-1.8 1c0 .5-.9 1-2 1s-2 .4-2 1c0 .5-.9 1-2 1s-2 .4-2 1c0 .5-1.3 1-3 1-2 0-3-.5-3-1.5 0-1.7 16.4-18.5 18.1-18.5.6 0 2.4-1.4 3.9-3 1.5-1.7 3.3-3 3.9-3 1.6 0 22.1-20.7 22.1-22.3 0-.7.9-1.9 2-2.7 1.1-.8 2-2.2 2-3.2s.5-1.8 1-1.8c.6 0 1-1.6 1-3.5 0-2.9-.9-4.4-4.5-8-2.4-2.5-5.3-4.5-6.4-4.5-1.1 0-2.3-.5-2.6-1-.3-.6-1.9-1-3.6-1-1.6 0-2.9-.5-2.9-1 0-.6-3.7-1-9-1s-9-.4-9-1-.7-1-1.5-1c-2 0-12.5-10.5-12.5-12.5 0-.8-.4-1.5-1-1.5-.5 0-1-.7-1-1.6 0-.9-1.7-3.2-3.7-5-3.2-3-4.4-3.4-9-3.4-2.9 0-5.3.4-5.3 1zm174 138c0 .5-1.3 1-3 1-1.6 0-3 .4-3 1 0 .5-1.2 1-2.6 1-2.9 0-11.4 7.8-11.4 10.4 0 .8-.4 1.8-1 2.1-.5.3-1 1.7-1 3s-.4 2.7-1 3c-.5.3-1 2.2-1 4.1 0 1.9-.4 3.4-1 3.4-.5 0-1 2-1 4.4 0 2.5-.4 4.8-1 5.1-.6.3-1 5-1 10.6 0 5.9.4 9.9 1 9.9s1 .9 1 2c0 1.6.7 2 3.5 2 3.8 0 8.5-3.6 8.5-6.5 0-.8.5-1.5 1-1.5.6 0 1-.9 1-2s.5-2 1-2c.6 0 1-.7 1-1.5 0-1.9 4.4-6.5 6.1-6.5.6 0 1.9-.8 2.8-1.8 1.6-1.9 7.5-3.3 9.9-2.5 1.8.7 1.5 4.3-.4 4.3-.9 0-2.9 1.3-4.4 3-1.5 1.6-3.3 3-3.9 3-1.6 0-6.1 4.6-6.1 6.2 0 1.7 6.7 7.8 8.5 7.8.8 0 1.5.4 1.5 1 0 .5 2 1 4.5 1 3.9 0 5.1-.5 8-3.5 2.2-2.1 3.5-4.4 3.5-6 0-1.4.5-2.5 1-2.5.6 0 1-5.3 1-14s-.4-14-1-14c-.5 0-1-1.8-1-4s-.4-4-1-4c-.5 0-1-1.4-1-3 0-1.7-.4-3-1-3-.5 0-1-1-1-2.3 0-1.3-1.5-4-3.4-6-3-3.2-3.9-3.7-8-3.7-2.5 0-4.6.4-4.6 1zm-18 68c0 .5-.7 1-1.6 1-.8 0-3.3 1.8-5.4 4-4.3 4.5-5.9 4.9-8 2-2.2-3.1-11.3-2.8-14.5.5-2.2 2.1-2.5 3.3-2.5 10 0 4.3.4 7.5 1 7.5s1 1.3 1 3c0 1.6.5 3 1 3 .6 0 1 .9 1 2s.5 2 1 2c.6 0 1 .9 1 2s.5 2 1 2c.6 0 1 .9 1 2s.5 2 1 2c.6 0 1 2.1 1 4.6 0 4.7 1.6 7.4 4.4 7.4.9 0 1.6.4 1.6.9s1.9 1.1 4.3 1.5c8.1 1 11.7 1.8 12.3 2.7.3.5 4.1.9 8.6.9 7.6 0 8.1-.1 10.8-3 1.5-1.7 3.5-3 4.4-3 .9 0 1.6-.6 1.6-1.4 0-.7 1.4-2.7 3-4.4 2.6-2.8 3-3.9 3-8.7 0-3-.4-5.5-1-5.5-.5 0-1-.9-1-2s-.4-2-1-2c-.5 0-1-.5-1-1 0-.6.7-1 1.5-1 2.3 0 6.5-4.6 6.5-7.1 0-1.2 1-3 2.1-4 3.3-2.9 1-4.9-5.7-4.9-6.4 0-8.2-.9-14.5-7.3-2.6-2.6-5.5-4.7-6.3-4.7-.9 0-1.6-.5-1.6-1 0-.6-2.2-1-5-1-2.7 0-5 .4-5 1zm-128.7 16.5c-.7.8-1.3 2.1-1.3 2.9 0 .8-.4 1.8-1 2.1-.5.3-1 1.7-1 3.1 0 1.3-.4 2.4-1 2.4-.5 0-1-1.6-1-3.6 0-1.9-.6-4.2-1.4-5-1.7-1.6-6.6-1.9-6.6-.4 0 .5-.9 1-2 1s-2 .4-2 .9-.9 1.3-2 1.6c-2.5.8-12 9.9-12 11.5 0 .7-1.3 2.5-3 4-1.6 1.5-3 3.5-3 4.4 0 .9-.3 1.6-.7 1.6-2.5 0-4.5 12.1-2.3 13.5.6.3 1 1.5 1 2.6 0 1 .5 1.9 1 1.9.6 0 1 .9 1 2s.5 2 1 2c.6 0 1 .7 1 1.5 0 2.9 3.9 8.5 6 8.5 1.5 0 8-6.7 8-8.2 0-.8.9-2 2-2.8 1.1-.8 2-2.2 2-3.2s.5-1.8 1-1.8c.6 0 1-.8 1-1.8s.9-2.4 2-3.2c1.1-.8 2-2.2 2-3.2s.5-1.8 1-1.8c.6 0 1-.9 1-2s.5-2 1-2c.6 0 1-.9 1-1.9 0-1.1.5-2.3 1-2.6.6-.3 1-2.2 1-4.1 0-1.9.5-3.4 1-3.4.6 0 1-.9 1-2s.5-2 1-2c.6 0 1 2.7 1 6s.4 6 1 6 1 1.1 1 2.5c0 2.9 5.9 9.5 8.5 9.5.8 0 1.5.4 1.5 1 0 2 5.1.9 7.6-1.6 2.2-2.1 2.5-3.1 2-6.2-1.3-8.8-1.9-11.3-2.7-11.8-.5-.3-.9-1.6-.9-3 0-1.3-.4-2.4-1-2.4-.5 0-1-.9-1-2s-.4-2-1-2c-.5 0-1-.7-1-1.5 0-.9-1.6-3.1-3.5-5-3.6-3.7-7.1-4.4-9.2-2zm-66 20c-.7.8-1.3 2.1-1.3 3 0 .8-.5 1.5-1.1 1.5-.7 0-.9 1.6-.5 4.7.4 2.7.9 7.7 1.2 11.3.3 3.6 1 6.9 1.5 7.4.5.6.9 2.3.9 3.8s.5 2.8 1 2.8c.6 0 1 .7 1 1.5 0 .9 2 3.6 4.5 6 4.3 4.3 4.7 4.5 10.5 4.5 6.3 0 9-1.3 9-4.3 0-.9.6-1.7 1.3-2 1-.3 1-.9 0-2.6-.7-1.1-1.3-2.8-1.3-3.6 0-.8-.4-1.5-1-1.5-.5 0-1-.9-1-2s-.4-2-1-2c-.5 0-1-1.4-1-3 0-1.7-.4-3-1-3-.5 0-1-1.4-1-3 0-1.7-.4-3-1-3-.5 0-1-.9-1-2s-.4-2-1-2c-.5 0-1-.9-1-2s-.4-2-1-2c-.5 0-1-.7-1-1.5 0-.9-1.6-3.1-3.5-5-3.7-3.8-8.9-4.7-11.2-2zm120 12c-1.8 2-1.6 2.5.7 2.5 1.1 0 2 .4 2 1 0 .5 1.4 1 3 1 1.7 0 3 .4 3 1 0 .5 1.8 1 4 1s4 .4 4 1 2.6 1 5.8 1c4.6 0 6-.4 7.2-2 .8-1.1 2.1-2 2.8-2 .9 0 1.2-.6.8-1.6-.3-.9-.6-1.8-.6-2 0-.2-.9-.4-2-.4s-2-.5-2-1c0-.6-5.2-1-13.7-1-10.6.1-14.1.4-15 1.5zM244 349c0 .5-.8 1-1.8 1s-2.4.9-3.2 2c-.8 1.1-2 2-2.7 2-1.8 0-28.3 26.7-28.3 28.5 0 .8-.4 1.5-1 1.5s-1 6.5-1 17.6c0 13.9.3 17.8 1.4 19 1.6 1.6 8.6 1.9 8.6.4 0-.6.7-1 1.6-1 1.9 0 4.4-2.4 4.4-4.2 0-.8.9-2 2-2.8 1.1-.8 2-2.2 2-3.2s.5-1.8 1-1.8c.6 0 1-.9 1-2s.5-2 1-2c.6 0 1-.9 1-1.9 0-1.1.5-2.3 1-2.6.6-.3 1-1.7 1-3.1 0-1.3.5-2.4 1-2.4.6 0 1-1.2 1-2.6 0-1.7 1.6-4 5-7.4 5.8-5.7 9-11 9-15 0-1.7.5-3 1-3 .6 0 1-3.7 1-9v-9h-3c-1.6 0-3 .4-3 1zm104 3.8c0 .5-1.2 1.5-2.7 2.3-3.8 1.9-5.3 3.5-5.3 5.3 0 1.3 1.5 1.6 9 1.6 5.3 0 9 .4 9 1 0 .5.9 1 2 1s2 .4 2 1c0 .5.9 1 2 1s2 .4 2 1c0 .5.9 1 2 1s2 .4 2 1c0 .5 2 1 4.5 1 3.9 0 5.1-.5 8.2-3.7 2.3-2.2 3.2-3.8 2.5-4.1-.7-.2-1.2-1-1.2-1.9 0-1.9-2.4-4.3-4.4-4.3-.9 0-1.6-.5-1.6-1 0-.6-1.5-1-3.4-1s-3.8-.5-4.1-1c-.7-1.2-22.5-1.4-22.5-.2zm63.3.7c-2 2.2-1.6 4.5.7 4.5 1.1 0 2 .4 2 1 0 .5.9 1 2 1s2 .4 2 1c0 .5 1.4 1 3 1 1.7 0 3 .4 3 1 0 .5.9 1 2 1s2 .4 2 1c0 .5.9 1 2 1s2 .4 2 1c0 .5.9 1 2 1s2 .4 2 1c0 .5.9 1 2 1s2 .4 2 1c0 .5.9 1 2 1s2 .4 2 .8c0 .5 1.2 1.5 2.8 2.3 1.5.8 3.9 2.6 5.4 4.1 4 4.3 5.8 3.7 5.8-1.8 0-4.3-.4-5-5.6-10-3.1-3-6.1-5.4-6.6-5.4s-1.8-.9-3-2-2.8-2-3.5-2c-.7 0-1.3-.5-1.3-1 0-.6-1.3-1-3-1-1.6 0-3-.5-3-1 0-.6-1.3-1-2.9-1-1.7 0-3.3-.5-3.6-1-1-1.6-12.8-1.2-14.2.5zm79.8.4c-.8 1.1-2.6 2.5-4 3.3-2.8 1.4-6.1 4.6-6.1 5.9 0 .5-2 2.9-4.5 5.3-2.5 2.5-4.5 5.2-4.5 6.1 0 .8-.4 1.5-1 1.5-.5 0-1 .6-1 1.2 0 .7-.9 2.4-2 3.8s-2 3.5-2 4.7c0 1.3-.4 2.3-1 2.3-1.6 0-1.2 12.9.4 14.6 1.7 1.6 4.6 1.9 4.6.4 0-.6.9-1 2-1s2-.5 2-1c0-.6.9-1 2-1s2-.5 2-1c0-.6 1.4-1 3-1 1.7 0 3-.5 3-1 0-.6.8-1 1.8-1s2.4-.9 3.2-2c.8-1.1 2-2 2.8-2 1.8 0 4.2-2.5 4.2-4.4 0-.9.5-1.6 1-1.6.6 0 1-.9 1-2s.5-2 1-2c.6 0 1-1.8 1-4s.5-4 1-4c.6 0 1-2.6 1-5.9 0-3.3-.4-6.3-1-6.6-.5-.3-1-2-1-3.6 0-1.7-.6-3.7-1.4-4.5-2.1-2-5.9-1.7-7.5.5zm17.2 6.6c-1.5 1.6-2.3 3.7-2.3 6 0 1.9-.4 3.5-1 3.5s-1 3-1 7-.4 7-1 7-1 5.7-1 15 .4 15 1 15 1 .9 1 2 .5 2 1 2c.6 0 1 .9 1 2s.5 2 1 2c.6 0 1 .9 1 2s.5 2 1 2c.6 0 1 1.3 1 3 0 1.6.5 3 1 3 .6 0 1 6.7 1 18 0 15.4.2 18 1.5 18 .8 0 2.5.6 3.6 1.2 1.7 1 2.3 1 2.6 0 .3-.6 1.3-1.2 2.2-1.2 2.7 0 4.1-4.3 4.1-13 0-4.3.5-8.2 1-8.5.6-.4 1-6.5 1-15s.4-14.6 1-15c.6-.3 1-5 1-10.6 0-5.9-.4-9.9-1-9.9-.5 0-1-2.3-1-5 0-2.8-.4-5-1-5-.5 0-1-1.8-1-4s-.4-4-.8-4c-.5 0-1.5-2.3-2.2-5-.7-2.8-1.7-5-2.2-5-.4 0-.8-.7-.8-1.5 0-1.9-6.5-8.5-8.2-8.4-.7 0-2.3 1.1-3.5 2.4zM404 361c0 .5-1.6 1-3.6 1-3.4 0-7.4 2.8-7.4 5 0 1.7 6 7 7.8 7 1.2 0 2.4.4 2.7 1 .3.5 1.9 1 3.6 1 1.6 0 2.9.4 2.9 1 0 .5 1.4 1 3 1 1.7 0 3 .4 3 1 0 .5.8 1 1.9 1 2.2 0 14.1 6 14.1 7.2 0 .4.7.8 1.5.8.9 0 2.5.9 3.7 2 1.2 1.1 2.8 2 3.5 2 .7 0 1.3.4 1.3 1 0 .5.6 1 1.3 1 .7 0 2.3.9 3.5 2 1.2 1.1 2.8 2 3.7 2 .8 0 1.5.4 1.5 1 0 .5 1.4 1 3 1 2.3 0 3-.5 3-1.9 0-1.1.6-2.1 1.3-2.4 1.4-.5-13.5-15.7-15.5-15.7-.8 0-2-.9-2.8-2-.8-1.1-2.2-2-3.2-2s-1.8-.5-1.8-1c0-.6-.6-1-1.3-1-.7 0-2.3-.9-3.5-2-1.2-1.1-2.8-2-3.7-2-.8 0-1.5-.5-1.5-1 0-.6-.9-1-2-1s-2-.4-2-.8c0-1.4-8.1-5.2-11.1-5.2-1.6 0-2.9-.5-2.9-1 0-.6-.9-1-2-1s-2 .4-2 1zm-90 6c0 .5-1.1 1-2.5 1-2.7 0-7.5 4-7.5 6.1 0 3.4 3.1 3.8 30.6 3.9h27.2l.5-2.7c.5-2.9-1.4-5.2-4.5-5.3-1 0-1.8-.5-1.8-1 0-.6-2.2-1-5-1-2.7 0-5-.5-5-1 0-.6-6-1-16-1s-16 .4-16 1zm58 8c0 .5-.7 1-1.6 1-2.4 0-4.4 2.6-4.4 5.7 0 3.2 3.9 8.3 6.3 8.3.9 0 1.9.4 2.2 1 .3.5 1.7 1 3.1 1 1.3 0 2.4.4 2.4 1 0 .5 1.4 1 3 1 1.7 0 3 .4 3 1 0 .5 1.4 1 3 1 1.7 0 3 .4 3 1 0 .5 1.4 1 3 1 1.7 0 3 .4 3 1 0 .5 1.8 1 4 1s4 .4 4 1c0 .5 1.8 1 4 1s4 .4 4 1c0 .5 1.5 1 3.4 1s3.8.4 4.1 1c.3.5 1.9 1 3.6 1 1.6 0 2.9.4 2.9 1 0 .5 1.4 1 3 1 1.7 0 3 .4 3 1 0 .5 1.4 1 3 1 1.7 0 3 .4 3 1 0 .5.9 1 1.9 1 1.1 0 2.3.4 2.6 1 .3.5 1.7 1 3.1 1 1.3 0 2.4.4 2.4 1 0 .5.9 1 2 1 1.6 0 2-.7 2-3.3 0-4.1-2-8.7-3.8-8.7-.8 0-2.7-1.4-4.2-3-1.5-1.7-3.4-3-4.2-3-.7 0-2-.9-2.8-2-.8-1.1-2.2-2-3.2-2s-1.8-.5-1.8-1c0-.6-.9-1-2-1s-2-.5-2-1c0-.6-.9-1-2-1s-2-.5-2-1c0-.6-.9-1-2-1s-2-.5-2-1c0-.6-.9-1-2-1s-2-.5-2-1c0-.6-.9-1-2-1s-2-.5-2-1c0-.6-1.3-1-3-1-1.6 0-3-.5-3-1 0-.6-1.8-1-4-1s-4-.5-4-1c0-.6-1.3-1-3-1-1.6 0-3-.5-3-1 0-.6-2.2-1-5-1-2.7 0-5-.5-5-1 0-.6-2.7-1-6-1s-6 .4-6 1zm-92 6c0 .5-.9 1-2 1-1.6 0-2 .7-2 3 0 2 .5 3 1.5 3 .9 0 2.5.9 3.7 2 1.2 1.1 3 2 3.9 2 1 0 2.1.4 2.4 1 .3.5 1.5 1 2.6 1 1 0 1.9.4 1.9 1 0 .5 1.8 1 3.9 1 2.2 0 4.3.4 4.6 1 .4.6 5.8 1 13.1 1 7.6 0 12.4-.4 12.4-1s.7-1 1.5-1c1.8 0 6.5-4.4 6.5-6 0-2.1-4.9-6-7.5-6-1.4 0-2.5-.5-2.5-1 0-.6-3.8-1-9.4-1-5.3 0-9.8-.4-10.1-1-.4-.6-5.7-1-12.6-1-7.3 0-11.9.4-11.9 1zm-18.7 10.5c-1.5 1.7-1.7 10.5-.3 10.5.6 0 1 .7 1 1.5 0 .9 2.5 4 5.5 7s6.1 5.5 7 5.5c.8 0 1.5.4 1.5 1s3 1 7 1 7-.4 7-1 1.4-1 3-1c1.7 0 3-.5 3-1 0-.6.9-1 2-1s2 .4 2 1c0 .5.9 1 2 1s2 .4 2 1c0 .5.9 1 2 1s2 .4 2 1c0 2.1 7 1 9.5-1.5 4.5-4.4 2.7-11.5-2.9-11.5-1.4 0-2.6-.5-2.6-1 0-.6-1.3-1-3-1-1.6 0-3-.5-3-1 0-.6-2.7-1-6-1s-6-.4-6-1-1.3-1-3-1c-1.6 0-3-.5-3-1 0-.6-.9-1-2-1s-2-.5-2-1c0-.6-1-1-2.3-1-1.3 0-3.3-.9-4.5-2-1.2-1.1-3-2-4.1-2-1.1 0-2.3-.5-2.6-1-.9-1.5-7.8-1.1-9.2.5zm90.3.2c-4 .6-7.6 4.5-7.6 8.3 0 2.3 1.1 4.2 4.5 7.5 2.4 2.5 5.1 4.5 6 4.5.8 0 1.5.4 1.5 1 0 .5.9 1 2 1s2 .4 2 1c0 .5 1.4 1 3 1 1.7 0 3 .4 3 1s2.8 1 6.4 1c3.6 0 6.8.4 7.1 1 .3.5 3.7 1 7.6 1 3.9 0 6.9.4 6.9 1s4.3 1 11 1 11 .4 11 1 2.7 1 6 1 6 .4 6 1c0 .5 1.8 1 3.9 1 2.2 0 4.3.4 4.6 1 1.1 1.8 4.5 1.1 7.1-1.5l2.5-2.5-2.5-2.5c-1.4-1.4-3.2-2.5-4.1-2.5-.8 0-1.5-.5-1.5-1 0-.6-.9-1-2-1s-2-.5-2-1c0-.6-1.1-1-2.4-1-1.4 0-2.8-.5-3.1-1-.3-.6-1.5-1-2.6-1-1 0-1.9-.5-1.9-1 0-.6-.9-1-2-1s-2-.5-2-1c0-.6-1.3-1-3-1-1.6 0-3-.5-3-1 0-.6-1.3-1-3-1-1.6 0-3-.5-3-1 0-.6-1.3-1-3-1-1.6 0-3-.5-3-1 0-.6-1.8-1-4-1s-4-.5-4-1c0-.6-1.3-1-3-1-1.6 0-3-.5-3-1 0-.6-1.8-1-4-1s-4-.5-4-1c0-.6-1.8-1-4-1s-4-.5-4-1c0-.6-1.3-1-2.9-1-1.6 0-3.1-.4-3.3-.8-.4-1.1-10.2-2-14.2-1.5z"/><path d="M245.3 399.5c-1.8 1.9-3.3 4.1-3.3 5 0 .8-.4 1.5-1 1.5-.5 0-1 1.3-1 2.8 0 1.6-.8 3.4-2 4.2-1.1.8-2 2.2-2 3.2s-.4 1.8-1 1.8c-.5 0-1 1.1-1 2.4 0 1.4-.4 2.8-1 3.1-1.4.9-1.2 7.1.3 9.8 1.9 3.5 6 6.7 8.5 6.7 1.2 0 2.2.4 2.2 1s3.7 1 9 1c5 0 9-.4 9-.9s.9-1.3 2-1.6c1.1-.3 2.7-1.3 3.5-2.2 1.4-1.3 1.8-1.2 4.4 1.6 2.9 3 3.1 3.1 12.5 3.1 5.7 0 9.6-.4 9.6-1s.7-1 1.5-1c2.3 0 6.5-4.6 6.5-7 0-2.4-4.2-7-6.5-7-.8 0-1.5-.5-1.5-1 0-.6-1.3-1-3-1-1.6 0-3-.5-3-1 0-.6-2.2-1-5-1-2.7 0-5-.5-5-1 0-.6-3.5-1-8.6-1-6.1 0-9-.4-10-1.4-1.6-1.7-1.9-6.6-.4-6.6.6 0 1-2.3 1-5 0-2.8-.4-5-1-5-.5 0-1-.9-1-2 0-1.3-.7-2-2-2-1.1 0-2-.5-2-1 0-2.4-5.6-.7-8.7 2.5zM482 405c0 .5-1.3 1-3 1-1.6 0-3 .4-3 1 0 .5-.9 1-2 1s-2 .4-2 1c0 .5-.9 1-2 1s-2 .4-2 1c0 .5-.7 1-1.5 1-2 0-14.5 12.5-14.5 14.5 0 .8-.4 1.5-1 1.5-.5 0-1 .9-1 2s-.4 2-1 2c-.5 0-1 .9-1 2s-.4 2-1 2c-.5 0-1 .6-1 1.3 0 .7-.9 2.3-2 3.5-1.1 1.2-2 2.6-2 3.3 0 .6-1.3 2.4-3 3.9-1.6 1.5-3 3.3-3 4 0 .7-1.3 2.5-3 4-1.6 1.5-3 3.5-3 4.4 0 .9-.4 1.6-1 1.6-.5 0-1 .9-1 1.9 0 1.1-.3 2.1-.7 2.3-.5.1-1.8 2.2-3 4.4-4.8 8.7-1.7 17.4 6.1 17.4 1.9 0 3.8-.5 4.1-1 .3-.6 1.4-1 2.4-1 .9 0 2.7-.9 3.9-2 1.2-1.1 2.6-2 3.2-2 .5 0 2.4-1.4 4.2-3 1.7-1.7 3.5-3 4.1-3 1.1 0 7.7-7 7.7-8.2 0-.4 1.8-2.7 4-4.9 2.2-2.3 4-4.7 4-5.3 0-.6.9-1.8 2-2.6s2-2.1 2-2.8c0-.8 1.4-2.7 3-4.2 1.7-1.5 3-3.4 3-4.2 0-.7.9-2 2-2.8 1.1-.8 2-2 2-2.6 0-.6 1.4-2.5 3-4.2 1.7-1.8 3-3.7 3-4.3 0-.6 1.2-2.3 2.8-3.7 1.5-1.5 3.3-3.9 4.1-5.5.8-1.5 1.8-2.7 2.3-2.7.4 0 .8-.9.8-2s.5-2 1-2c2.1 0 .9-3.2-2.5-6.5-3.1-3.2-4-3.5-9-3.5-3 0-5.5.4-5.5 1zm-142 4c0 .5-.9 1-1.9 1-1.2 0-2.5 1.2-3.3 3-.7 1.6-1.6 3-2 3-.5 0-.8.9-.8 2s.5 2 1 2c.6 0 1 .7 1 1.5 0 1.6 4.3 6.5 5.7 6.5.4 0 2.4 1.4 4.3 3s4 3 4.5 3c.6 0 1.7.9 2.5 2s2.1 2 3 2c.9 0 2.2.9 3 2 .8 1.2 2.6 2 4.2 2 1.5 0 2.8.4 2.8 1 0 .5 1.5 1 3.4 1s3.8.4 4.1 1c.4.6 8.3 1 20.5 1s20.1-.4 20.5-1c.3-.6 4-1 8.1-1 4.3 0 7.4-.4 7.4-1s.7-1 1.5-1c2.9 0 6.5-4.7 6.5-8.5 0-2.8-.4-3.5-2-3.5-1.1 0-2-.5-2-1 0-.6-1.3-1-3-1-1.6 0-3-.5-3-1 0-.6-7.7-1-21-1s-21-.4-21-1-2.2-1-5-1c-2.7 0-5-.5-5-1 0-.6-1.3-1-3-1-1.6 0-3-.5-3-1 0-.6-.9-1-2-1s-3.4-.9-5.2-2c-1.8-1.1-4.1-2-5-2-1 0-1.8-.5-1.8-1 0-.6-.9-1-2-1s-2-.5-2-1c0-.6-.9-1-2-1s-2-.5-2-1c0-.6-.9-1-2-1s-2-.5-2-1c0-.6-.4-1-1-1-.5 0-1 .4-1 1z"/><path d="M213.3 429.5c-2.9 3-3.3 4.1-3.3 8.9 0 3 .5 5.8 1 6.1.6.3 1 1.4 1 2.4 0 .9.9 2.7 2 3.9 1.1 1.2 2 2.6 2 3.2 0 1.9 14.9 16 16.9 16 1.1 0 2.3.4 2.6 1 .3.5 1.9 1 3.6 1 1.6 0 2.9-.5 2.9-1 0-.6.9-1 2-1s2-.5 2-1c0-.6.9-1 2-1s2-.5 2-1c0-.6.6-1 1.3-1 2.5 0 8.7-6.7 8.7-9.4 0-2.6 0-2.6-8-2.6-4.7 0-8-.4-8-1s-1.3-1-3-1c-1.6 0-3-.5-3-1 0-.6-.9-1-2-1s-2-.5-2-1c0-.6-.7-1-1.6-1-2 0-4.4-2.4-4.4-4.4 0-.9-.4-1.6-1-1.6-.5 0-1-2.3-1-5 0-2.8.5-5 1-5 .6 0 1-.7 1-1.6 0-2.8-2.7-4.4-7.2-4.3-3.5 0-4.9.6-7.5 3.4zm277 1c-2.4 2.5-4.3 5.1-4.3 6 0 .8-.4 1.5-1 1.5-.5 0-1 .9-1 2s-.4 2-1 2c-.5 0-1 1.1-1 2.4 0 1.4-.4 2.8-1 3.1-.5.3-1 2.4-1 4.6 0 2.1-.4 3.9-1 3.9s-1 9.2-1 25.5c0 29 .3 30.5 6.6 30.5 1.9 0 3.4-.5 3.4-1 0-.6.7-1 1.5-1 .9 0 3.6-2 6-4.5 3.6-3.5 4.5-5.1 4.5-7.9 0-1.9.4-3.6 1-3.8.5-.2 1-12.7 1.1-31.5l.2-31.1-2.6-2.6c-1.4-1.4-3.2-2.6-3.9-2.5-.7 0-3.2 2-5.5 4.4zM172 429c0 .5-2 1-4.5 1-3.5 0-5.2.6-7 2.5-2.6 2.5-3.2 5-1.5 6 .6.3 1 2.6 1 5s.5 4.7 1 5c.6.3 1 1.5 1 2.6 0 2.4 4.3 6.9 6.5 6.9.8 0 1.5.4 1.5.9s2.4 1.2 5.3 1.4c8.3.9 12.7 1.8 12.7 2.8 0 .5 1.3.9 2.9.9 1.6 0 3.2.6 3.5 1.2.5 1 .7 1 1.2 0 .3-.7 2.4-1.2 5.1-1.2 6.3 0 7.3-1.4 7.3-10.4 0-4.4-.4-7.6-1-7.6-.5 0-1-1.6-1-3.5 0-2.7-.8-4.4-3.5-7-1.9-1.9-4.1-3.5-5-3.5-.8 0-1.5-.5-1.5-1 0-.6-2.8-1-6.4-1-3.6 0-6.8-.5-7.1-1-.3-.6-2.8-1-5.6-1-2.7 0-4.9.4-4.9 1zm148 6c0 .5-.7 1-1.6 1-2.5 0-4.4 2.6-4.4 6 0 2.3 1.1 4.2 4.5 7.5 2.4 2.5 4.9 4.5 5.5 4.5.6 0 2.4 1.3 4.2 3 1.7 1.6 3.7 3 4.4 3 .8 0 1.4.4 1.4 1 0 .5.8 1 1.8 1s2.4.9 3.2 2c.8 1.1 2.2 2 3.2 2 .9 0 2 .4 2.3 1 .3.5 1.7 1 3.1 1 1.3 0 2.4.4 2.4 1 0 .5 1.8 1 4 1s4 .4 4 1 6 1 15.9 1c9.6 0 16.2-.4 16.6-1 .3-.6 3-1 6-1s5.7-.5 6-1c.3-.6 2.2-1 4.1-1 1.9 0 3.4-.5 3.4-1 0-.6 1.4-1 3-1 1.7 0 3-.5 3-1 0-.6.9-1 2-1s2-.5 2-1c0-.6.9-1 2-1s2-.5 2-1c0-.6.7-1 1.6-1 4.7 0 6-7.5 1.9-11.5-2.4-2.5-7.5-3.5-7.5-1.5 0 .5-1.5 1-3.4 1s-3.8.4-4.1 1c-.3.5-1.9 1-3.6 1-1.6 0-2.9.4-2.9 1s-5.7 1-15 1c-8.3 0-15-.4-15-.9s-2.4-1.2-5.2-1.4c-8.4-.9-12.8-1.8-12.8-2.8 0-.5-1.3-.9-3-.9-1.6 0-3-.5-3-1 0-.6-1.1-1-2.4-1-1.4 0-2.8-.5-3.1-1-.3-.6-1.5-1-2.6-1-1 0-1.9-.5-1.9-1 0-.6-.9-1-2-1s-2-.5-2-1c0-.6-.9-1-2-1s-2-.5-2-1c0-.6-1.3-1-3-1-1.6 0-3-.5-3-1 0-.6-1.8-1-4-1s-4 .4-4 1zm-170 7.9c0 .5-1.3 1.4-2.9 2.1-1.6.6-3.5 2.5-4.1 4.1-.7 1.6-1.5 2.9-1.9 2.9-1.8 0-3.1 9.2-3.1 21.9 0 8.3-.4 14.2-1 14.6-.5.3-1 3.1-1 6.1 0 3-.4 5.4-1 5.4-.5 0-1 2-1 4.4 0 2.5-.4 4.8-1 5.1-.5.3-1 1.9-1 3.6 0 1.6-.4 2.9-1 2.9-.5 0-1 1.8-1 4s-.5 4.9-1.2 6c-1.2 1.9 0 5.7 2.9 8.7 1.4 1.6 14.3 1.8 14.3.3 0-.6.7-1 1.5-1s2.5-.6 3.7-1.3c3.5-2 10.8-9.5 10.8-11.2 0-.8.5-1.5 1-1.5.6 0 1-.9 1-2s.5-2 1-2c.6 0 1-.9 1-2 0-2 .4-2.9 2.8-7.7.7-1.3 1.2-3.4 1.2-4.7 0-1.4.5-2.8 1-3.1.6-.3 1-1.9 1-3.6 0-1.6.5-2.9 1-2.9.6 0 1-3.3 1-8s-.4-8-1-8c-.5 0-1-.9-1-2s-.4-2-1-2c-.5 0-1-.8-1-1.8s-.9-2.4-2-3.2c-1.1-.8-2-2.1-2-3 0-.9-.9-2.2-2-3-1.1-.8-2-2.2-2-3.2s-.4-1.8-1-1.8c-.5 0-1-.8-1-1.8s-.9-2.4-2-3.2c-1.1-.8-2-2-2-2.8 0-.7-1.1-2.4-2.5-3.7-2.5-2.6-3.5-3.1-3.5-1.6zm152.3 5.6c-1.3 1.3-2.3 3.1-2.3 4 0 .8-.4 1.5-1 1.5-.5 0-1 .9-1 2s-.4 2-1 2c-2 0-1 5.1 1.5 7.5 4.2 4.3 13.5 2.9 13.5-1.9 0-.9.5-1.6 1-1.6.6 0 1-1.6 1-3.5 0-2.9-.9-4.4-4.5-8-2.4-2.5-4.6-4.5-4.7-4.4-.2 0-1.3 1.1-2.5 2.4z"/><path d="M270 459c0 .5-.7 1-1.5 1s-2.9 1.3-4.7 3c-1.7 1.6-3.5 3-4 3-.6 0-2.3 1.3-3.8 3-1.5 1.6-3.3 3-4 3-.6 0-3.2 2.1-5.8 4.7-2.6 2.7-5.9 5.4-7.4 6.2-1.6.8-2.8 1.8-2.8 2.3 0 .4-.9.8-2 .8s-2 .4-2 1c0 .5-1.6 1-3.5 1-2.7 0-4.4-.8-7-3.5-1.9-1.9-3.5-3.9-3.5-4.6 0-.6-2.1-3.1-4.7-5.5-4.5-4.2-4.8-4.4-11-4.4-3.5 0-6.3.4-6.3 1 0 .5-.9 1-2 1s-2 .4-2 1c0 .5-.8 1-1.9 1-2.6 0-3.1 8-2 30.5 1.1 22.9 1.8 30.8 3 31.9.5.6.9 3.4.9 6.3s.5 5.3 1 5.3c.6 0 1 1.8 1 4s.5 4 1 4c.6 0 1 1.3 1 3 0 1.6.5 3 1 3 .6 0 1 1.3 1 3 0 1.6.5 3 1 3 .6 0 1 .9 1 2s.5 2 1 2c.6 0 1 .7 1 1.6 0 .8 2.3 3.7 5 6.4 2.8 2.7 5 5.4 5 6 0 2 4.9 6 7.5 6 1.4 0 2.5.4 2.5 1s3.3 1 8 1 8-.4 8-1 2-1 4.4-1c2.5 0 4.8-.5 5.1-1 .3-.6 1.9-1 3.6-1 1.6 0 2.9-.5 2.9-1 0-.6 1.4-1 3-1 1.7 0 3-.5 3-1 0-.6 1.4-1 3-1 1.7 0 3-.5 3-1 0-.6.9-1 1.9-1 1.1 0 2.3-.5 2.6-1 .3-.6 1.7-1 3.1-1 1.3 0 2.4-.5 2.4-1 0-.6.9-1 2-1s2-.5 2-1c0-.6.9-1 2-1s2-.5 2-1c0-.6.9-1 2-1s2-.5 2-1c0-.6.9-1 2-1s2-.5 2-1c0-.6.9-1 2-1s2-.5 2-1c0-.6.6-1 1.3-1 .7 0 2.3-.9 3.5-2 1.2-1.1 2.7-2 3.4-2 .8 0 2-.9 2.8-2 .8-1.1 2.1-2 3-2 .9 0 2.2-.9 3-2 .8-1.1 2.1-2 3-2 .9 0 2.2-.9 3-2 .8-1.1 2-2 2.7-2 .7 0 3.6-2.3 6.4-5 2.8-2.7 5.5-5 6.1-5 1.1 0 3.8-2.5 3.8-3.7 0-.4.7-1.7 1.6-2.8 1.2-1.6 1.6-1.7 2.3-.6.8 1.2 1.2 1.2 2.5-.2.9-.8 1.6-2.3 1.6-3.1 0-.9.5-1.6 1-1.6.6 0 1-1.4 1-3 0-1.7.5-3 1-3 .6 0 1-.9 1-2s-.4-2-1-2c-.5 0-1-.7-1-1.5 0-.9-2.5-4-5.5-7s-6.1-5.5-7-5.5c-.8 0-1.5-.5-1.5-1 0-.6-.9-1-2-1s-2-.5-2-1c0-.6-.9-1-2-1s-2-.5-2-1c0-.6-1.5-1-3.4-1s-3.8-.5-4.1-1c-.3-.6-2.6-1-5-1s-4.7.4-5 1c-.3.5-2.4 1-4.6 1-3.2 0-3.9-.3-3.9-1.9 0-1.1-.4-2.3-1-2.6-.6-.3-1-4.8-1-10.1 0-5.6-.4-9.4-1-9.4-.5 0-1-2.3-1-5 0-2.8-.4-5-1-5-.5 0-1-.7-1-1.5 0-2-4.5-6.5-6.5-6.5-.8 0-1.5-.5-1.5-1 0-.6-3.3-1-8-1s-8 .4-8 1zm-57.6 58.2c.7.7 1.5 2.1 1.9 3 .3 1 1.2 1.8 1.9 1.8.8 0 2 .9 2.8 2 .8 1.1 2.1 2 2.9 2 1.6 0 4.8 3.4 5.6 6.1.4 1.1 1.1 1.9 1.6 1.9 1.4 0 1.1 9-.4 10.3-5 4.6-10 4.9-11.9.7-.7-1.7-1.6-3-2-3-.5 0-.8-1.4-.8-3 0-1.7-.4-3-1-3s-1-2.9-1-6.8c0-5.6-.3-7-2-8.2-1.1-.8-2-2.2-2-3.2 0-2.1 2.6-2.4 4.4-.6zm72.4 12.7c1.7.1 1.5 4.9-.2 6.7-.8.8-3.1 1.4-5 1.4-2 0-3.6.4-3.6 1 0 .5-.7 1-1.5 1-2.9 0-8.5 3.9-8.5 6 0 1.6-4.7 6-6.5 6-.8 0-1.5.4-1.5 1 0 .5-.9 1-1.9 1-1.1 0-2.3-.5-2.6-1-.3-.6-1.7-1-3.1-1-2.2 0-2.4-.4-2.4-4.5 0-4.2.5-5 5.5-10 3-3 6.1-5.5 7-5.5.8 0 1.5-.4 1.5-.9 0-.6 1.5-1.1 3.3-1.3 2.9-.3 16.4-.2 19.5.1z"/><path d="M312 471c0 .5-.7 1-1.5 1-2.4 0-6.5 4.6-6.5 7.4 0 1.3-.6 2.7-1.2 3-1 .5-1 .7 0 1.2.6.3 1.2 1.2 1.2 2 0 1.7 6.4 8.4 8 8.4.6 0 2 .9 3.2 2 1.2 1.1 3.2 2 4.5 2 1.3 0 2.3.4 2.3 1 0 .5 1.4 1 3 1 1.7 0 3 .4 3 1 0 .5 2.4 1 5.4 1 3 0 5.8.4 6.1 1 .4.6 7 1 16.5 1s16.1-.4 16.5-1c.3-.6 4-1 8.1-1 4.3 0 7.4-.4 7.4-1s1.4-1 3-1c1.7 0 3-.5 3-1 0-.6.9-1 2-1s2-.5 2-1c0-.6.9-1 2-1s2-.5 2-1c0-.6.9-1 2-1s2-.5 2-1c0-.6.7-1 1.6-1 2.8 0 6.4-5.4 6.4-9.5 0-1.8-.5-2.5-2-2.5-1.1 0-2-.5-2-1 0-.6-1.3-1-3-1-1.6 0-3 .4-3 .9s-2.5 1.2-5.5 1.5c-3 .3-8 .9-11 1.2-3 .3-5.5 1-5.5 1.5s-7.9.9-18 .9c-11.3 0-18-.4-18-1s-1.3-1-3-1c-1.6 0-3-.5-3-1 0-.6-.9-1-2-1s-2-.5-2-1c0-.6-.9-1-2-1s-2-.5-2-1c0-.6-.8-1-1.8-1s-2.4-.9-3.2-2c-.8-1.1-2.2-2-3.2-2s-1.8-.5-1.8-1c0-.6-2.2-1-5-1-2.7 0-5 .4-5 1zm209.2 7c-1.2 1.1-2.6 2-3.2 2-.6 0-2.2 1.1-3.5 2.5-2.5 2.4-2.5 2.6-2.5 20.6 0 17.5.1 18.2 2.2 20.1 1.5 1.3 3 1.7 4.6 1.3 3.4-.9 7.2-5 7.2-8 0-1.4.5-2.5 1-2.5.6 0 1-1.4 1-3.2 0-3.1 1.4-8.7 3.1-12 .5-1 .9-2.5.9-3.3 0-.8.5-1.5 1-1.5.6 0 1-.9 1-2s.5-2 1-2c.6 0 1-2.3 1-5 0-2.8-.4-5-1-5-.5 0-1-.9-1-2 0-1.7-.7-2-5.3-2-3.9 0-5.9.5-7.5 2zm-98.7 21c-.3.5-2.4 1-4.6 1-2.1 0-3.9.4-3.9 1 0 .5-2.2 1-5 1-2.7 0-5 .4-5 1 0 .5-1.8 1-3.9 1-2.2 0-4.3.4-4.6 1-.3.5-2.8 1-5.5 1s-5.2.4-5.5 1c-.4.6-5.9 1-13.1 1-14.9 0-15.4.3-15.4 8.4 0 3.1-.4 5.6-1 5.6-.5 0-1 1.3-1 3 0 1.6-.4 3-1 3-.5 0-1 1.3-1 3 0 1.6-.4 3-1 3-.5 0-1 .8-1 1.8s-.9 2.4-2 3.2c-1.1.8-2 2.2-2 3.2s-.4 1.8-1 1.8c-2.2 0-.9 5.3 1.8 7.6 2.7 2.4 9.2 3.4 9.2 1.4 0-.6.9-1 2-1s2-.5 2-1c0-.6.9-1 1.9-1 1.1 0 2.3-.5 2.6-1 .3-.6 1.7-1 3.1-1 1.3 0 2.4-.5 2.4-1 0-.6.9-1 2-1s2-.5 2-1c0-.6.9-1 2-1s2-.5 2-1c0-.6.9-1 2-1s2-.5 2-1c0-.6 1.1-1 2.4-1 1.4 0 2.8-.5 3.1-1 .3-.6 1.4-1 2.3-1 1 0 2.4-.9 3.2-2 .8-1.1 2.2-2 3.2-2s1.8-.5 1.8-1c0-.6.9-1 2-1s2-.5 2-1c0-.6.9-1 2-1s2-.5 2-1c0-.6.9-1 2-1s2-.5 2-1c0-.6.9-1 2-1s2-.5 2-1c0-.6.9-1 2-1s2-.5 2-1c0-.6.9-1 2-1s2-.5 2-1c0-.6.9-1 2-1s2-.5 2-1c0-.6.8-1 1.8-1s2.4-.9 3.2-2c.8-1.1 2-2 2.7-2 1.6 0 10.3-8.5 10.3-10 0-1.7-2.6-4-4.4-4-.9 0-1.6-.5-1.6-1 0-.6-3.1-1-7.4-1-4.1 0-7.8.4-8.1 1zm19.5 14c0 .5-.7 1-1.5 1-.9 0-2.7 1.1-4.1 2.5-1.4 1.4-2.9 2.5-3.4 2.5s-2 1.1-3.4 2.5-2.9 2.5-3.5 2.5c-1.6 0-20.1 18.8-20.1 20.4 0 .9-.4 1.6-1 1.6-.5 0-1 1.3-1 3 0 1.6-.4 3-1 3-.5 0-1 1.3-1 3 0 1.6-.4 3-1 3-.5 0-1 1.3-1 3 0 1.6-.4 3-1 3-.5 0-1 .9-1 2s-.4 2-1 2c-.5 0-1 .9-1 2s-.4 2-1 2c-.5 0-1 1.3-1 3 0 1.6.5 3 1 3 .6 0 1 .7 1 1.6 0 .9 1.4 2.9 3 4.4 2.1 2 3 3.7 3 5.9 0 5.2 3.8 8.1 10.5 8.1 3 0 5.5-.5 5.5-1 0-.6.8-1 1.8-1s2.4-.9 3.2-2c.8-1.1 2.2-2 3.1-2 .8 0 2.2-1.2 3-2.8.8-1.5 2.6-3.9 4.1-5.4 1.6-1.4 2.8-3.1 2.8-3.7 0-.7.9-2.1 2-3.3 1.1-1.2 2-2.8 2-3.5 0-.7.5-1.3 1-1.3.6 0 1-.7 1-1.5 0-.9.9-2.5 2-3.7 1.1-1.2 2-2.8 2-3.5 0-.7.5-1.3 1-1.3.6 0 1-.9 1-2s.5-2 1-2c.6 0 1-.9 1-2s.5-2 1-2c.6 0 1-.9 1-2s.5-2 1-2c.6 0 1-.9 1-2s.5-2 1-2c.6 0 1-.9 1-2s.5-2 1-2c.6 0 1-1.8 1-4s.5-4 1-4c.6 0 1-3.5 1-8.5 0-7.8-.2-8.8-2.5-11-2.1-2.2-3.3-2.5-9-2.5-3.7 0-6.5.4-6.5 1zm46.6 4.3c-4.6 2.8-10.6 9.7-10.6 12.2 0 1.4-.4 2.5-1 2.5s-1 4-1 10-.4 10-1 10-1 3.2-1 7.6c0 4.1-.5 8.4-1 9.5-2.6 4.8 6.2 6.8 10.5 2.4 1.4-1.3 2.5-2.9 2.5-3.5 0-.6.9-2 2-3.2 1.1-1.2 2-2.8 2-3.5 0-.7.5-1.3 1-1.3.6 0 1-.6 1-1.3 0-1.8 2.4-6.7 3.3-6.7.4 0 .7-1.4.7-3 0-1.7.5-3 1-3 .6 0 1-1.4 1-3 0-1.7.5-3 1-3 .6 0 1-4.3 1-11 0-10.3-.1-11-2-11-1.1 0-2-.5-2-1 0-1.4-5.1-1.2-7.4.3zM152 537c0 .5-1.3 1-3 1-1.6 0-3 .4-3 1 0 .5-.6 1-1.3 1-1.8 0-6.7 2.4-6.7 3.2 0 .5-.7.8-1.5.8-2 0-12.5 10.5-12.5 12.5 0 .8-.4 1.5-1 1.5-.5 0-1 .9-1 2s-.4 2-1 2c-.5 0-1 1.3-1 3 0 1.6-.5 3-1.1 3-.7 0-.9 4-.6 12.2.5 13.4 1.4 19.8 2.8 19.8.5 0 .9 1.3.9 3 0 1.6.5 3 1 3 .6 0 1 1.3 1 3 0 1.6.5 3 1 3 .6 0 1 .9 1 2s.5 2 1 2c.6 0 1 .8 1 1.8s.9 2.4 2 3.2c1.1.8 2 2.2 2 3.2s.5 1.8 1 1.8c.6 0 1 .8 1 1.8s.9 2.4 2 3.2c1.1.8 2 2 2 2.6 0 .6 1.7 2.9 3.8 5.1 2 2.1 4.3 5.1 5.1 6.6.8 1.5 2.1 2.7 2.9 2.7.8 0 2.7 1.3 4.2 3 1.5 1.6 3.5 3 4.4 3 .9 0 1.6.4 1.6.8 0 1 4.5 3.2 6.5 3.2 1.2 0 1.5-2.2 1.5-12 0-7.3-.4-12-1-12s-1-3.5-1-8.4c0-4.7-.4-8.8-1-9.1-.5-.3-1-3.7-1-7.6 0-3.9.4-6.9 1-6.9s1 .6 1 1.3c0 .7.9 2.3 2 3.5 1.1 1.2 2 2.7 2 3.4 0 .8.9 2 2 2.8 1.1.8 2 2 2 2.7 0 1.6 8.5 10.3 10 10.3 3.3 0 4-2.8 4-16.4 0-8.4-.4-13.6-1-13.6s-1-3.3-1-8-.4-8-1-8-1-2.7-1-6-.4-6-1-6c-.5 0-1-1.8-1-4s-.4-4-1-4c-.5 0-1-.9-1-2s-.4-2-1-2c-.5 0-1-.8-1-1.8s-.9-2.4-2-3.2c-1.1-.8-2-2-2-2.8 0-1.7-4.5-6.2-6.2-6.2-.8 0-2-.9-2.8-2-.8-1.1-2.2-2-3.2-2s-1.8-.5-1.8-1c0-.6-1.8-1-4-1s-4 .4-4 1zm216 42c0 .5-1.3 1-3 1-1.6 0-3 .4-3 1 0 .5-.9 1-2 1s-2 .4-2 1c0 .5-.9 1-2 1s-2 .4-2 1c0 .5-.8 1-1.8 1s-2.4.9-3.2 2c-.8 1.1-2 2-2.7 2-.7 0-2.7 1.3-4.5 3-1.7 1.6-3.5 3-4 3s-3.1 2.2-5.8 5c-2.7 2.7-5.3 5-5.9 5-.5 0-6.7 5.6-13.6 12.5-13.4 13.3-13.4 13.3-7.8 16.3 2.8 1.6 18.7 1.5 23 0 1.8-.6 3.5-.9 3.9-.6.8.9-10.2 11.8-11.9 11.8-.7 0-1.9.9-2.7 2-.8 1.1-2.1 2-3 2-.9 0-2.2.9-3 2-.8 1.1-2.1 2-3 2-.9 0-2.2.9-3 2-.8 1.1-2 2-2.7 2-2.2 0-12.3 10.8-12.3 13 0 3 4.4 7 7.6 7 1.5 0 4.3.5 6.1 1.2 2.7 1 3.8 1 5.3 0 1.2-.7 5.6-1.2 10.9-1.2 5 0 9.3-.5 9.6-1 .3-.6 2.8-1 5.6-1 2.7 0 4.9-.5 4.9-1 0-.6 1.8-1 4-1s4-.5 4-1c0-.6 1.4-1 3-1 1.7 0 3-.5 3-1 0-.6.9-1 2-1s2-.5 2-1c0-.6.9-1 2-1s2-.4 2-.8c0-.5 1.2-1.5 2.8-2.3 1.5-.8 3.6-2.2 4.6-3.2 1.1-.9 2.3-1.7 2.8-1.7 1.3 0 21.8-20.8 21.8-22.1 0-.6 1.4-2.4 3-3.9 1.7-1.5 3-3.5 3-4.4 0-.9.5-1.6 1-1.6.6 0 1-1.4 1-3 0-1.7.5-3 1-3 .6 0 1-4 1-10s-.4-10-1-10c-.5 0-1-1.4-1-3 0-1.7-.4-3-1-3-.5 0-1-1.4-1-3 0-1.7-.4-3-1-3-.5 0-1-.7-1-1.5 0-2-4.5-6.5-6.5-6.5-.8 0-1.5-.5-1.5-1 0-.6-1.3-1-2.9-1-1.7 0-3.3-.5-3.6-1-.3-.6-4-1-8.1-1-4.3 0-7.4.4-7.4 1z"/></g><path d="M362 126.4c0 .2.8 1 1.8 1.7 1.5 1.3 1.6 1.2.3-.4s-2.1-2.1-2.1-1.3zm-23.1 38.3c-1.3 1.6-1.2 1.7.4.4 1.6-1.3 2.1-2.1 1.3-2.1-.2 0-1 .8-1.7 1.7zm11.1 3.7c0 .2.8 1 1.8 1.7 1.5 1.3 1.6 1.2.3-.4s-2.1-2.1-2.1-1.3zm128 6c0 .2.8 1 1.8 1.7 1.5 1.3 1.6 1.2.3-.4s-2.1-2.1-2.1-1.3zM317.9 313.7c-1.3 1.6-1.2 1.7.4.4 1.6-1.3 2.1-2.1 1.3-2.1-.2 0-1 .8-1.7 1.7zM266 336.4c0 .2.8 1 1.8 1.7 1.5 1.3 1.6 1.2.3-.4s-2.1-2.1-2.1-1.3zm159 13c0 .2.8 1 1.8 1.7 1.5 1.3 1.6 1.2.3-.4s-2.1-2.1-2.1-1.3zm80.9 12.3c-1.3 1.6-1.2 1.7.4.4.9-.7 1.7-1.5 1.7-1.7 0-.8-.8-.3-2.1 1.3zm-298 18c-1.3 1.6-1.2 1.7.4.4.9-.7 1.7-1.5 1.7-1.7 0-.8-.8-.3-2.1 1.3zm52 12c-1.3 1.6-1.2 1.7.4.4 1.6-1.3 2.1-2.1 1.3-2.1-.2 0-1 .8-1.7 1.7zm89.1 17.7c0 .2.8 1 1.8 1.7 1.5 1.3 1.6 1.2.3-.4s-2.1-2.1-2.1-1.3zm-191.1 24.3c-1.3 1.6-1.2 1.7.4.4.9-.7 1.7-1.5 1.7-1.7 0-.8-.8-.3-2.1 1.3zm-3.9 10.7c0 .2.8 1 1.8 1.7 1.5 1.3 1.6 1.2.3-.4s-2.1-2.1-2.1-1.3zm6 8.1c1.3 1.4 2.6 2.5 2.8 2.5.3 0-.5-1.1-1.8-2.5s-2.6-2.5-2.8-2.5c-.3 0 .5 1.1 1.8 2.5zM292.7 463c.7.8 2 1.5 2.9 1.6.9.1 1.3-.1.9-.4-.4-.4-1-.7-1.3-.7-.4 0-1.4-.4-2.2-.9-1.2-.7-1.3-.6-.3.4zm11.2 12.7c-1.3 1.6-1.2 1.7.4.4 1.6-1.3 2.1-2.1 1.3-2.1-.2 0-1 .8-1.7 1.7zm132.5 37.5-1.9 2.3 2.3-1.9c2.1-1.8 2.7-2.6 1.9-2.6-.2 0-1.2 1-2.3 2.2zm-90.4 3.2c0 .2.8 1 1.8 1.7 1.5 1.3 1.6 1.2.3-.4s-2.1-2.1-2.1-1.3zm59.9 25.3c-1.3 1.6-1.2 1.7.4.4 1.6-1.3 2.1-2.1 1.3-2.1-.2 0-1 .8-1.7 1.7zm-282 12c-1.3 1.6-1.2 1.7.4.4.9-.7 1.7-1.5 1.7-1.7 0-.8-.8-.3-2.1 1.3zm277.5 42.1c.4.3 1.4.7 2.2.8.9.1 1.3 0 1-.4-.4-.3-1.4-.7-2.2-.8-.9-.1-1.3 0-1 .4zM299 630.7c0 .5 1 1.8 2.3 2.9l2.2 1.9-2-2.5c-1.1-1.4-2.1-2.7-2.2-2.9-.2-.2-.3 0-.3.6zm-9.1 37c-1.3 1.6-1.2 1.7.4.4.9-.7 1.7-1.5 1.7-1.7 0-.8-.8-.3-2.1 1.3z" fill="#FFF" fill-opacity=".19"/><path d="M365.8 55.7c.6.2 1.8.2 2.5 0 .6-.3.1-.5-1.3-.5-1.4 0-1.9.2-1.2.5zm41.5 12c2.6.2 6.8.2 9.5 0 2.6-.2.4-.3-4.8-.3s-7.4.1-4.7.3zM446.4 90c0 5.8.1 8.1.3 5.2.2-2.8.2-7.6 0-10.5-.2-2.8-.3-.5-.3 5.3zm-127.1.5c0 2.2.2 3 .4 1.7.2-1.2.2-3 0-4-.3-.9-.5.1-.4 2.3zm62.5 2.2c.6.2 1.8.2 2.5 0 .6-.3.1-.5-1.3-.5-1.4 0-1.9.2-1.2.5zm-62.6 10.8c0 1.6.2 2.2.5 1.2.2-.9.2-2.3 0-3-.3-.6-.5.1-.5 1.8zm124.9 1.1c0 1.1.3 1.4.6.6.3-.7.2-1.6-.1-1.9-.3-.4-.6.2-.5 1.3zm-171 6c0 1.1.3 1.4.6.6.3-.7.2-1.6-.1-1.9-.3-.4-.6.2-.5 1.3zm-1.8 7.9c0 2.2.2 3 .4 1.7.2-1.2.2-3 0-4-.3-.9-.5.1-.4 2.3zm59.5-2.8c2.3.2 6.1.2 8.5 0 2.3-.2.4-.4-4.3-.4s-6.6.2-4.2.4zm89 1c.6.2 1.8.2 2.5 0 .6-.3.1-.5-1.3-.5-1.4 0-1.9.2-1.2.5zm42.5 12.3c0 3.6.2 5 .4 3.2.2-1.7.2-4.7 0-6.5-.2-1.7-.4-.3-.4 3.3zm-193 1c0 3 .2 4.3.4 2.7.2-1.5.2-3.9 0-5.5-.2-1.5-.4-.2-.4 2.8zm147.8-1.4c0 1.1.3 1.4.6.6.3-.7.2-1.6-.1-1.9-.3-.4-.6.2-.5 1.3zm-52.9 2.9c0 1.6.2 2.2.5 1.2.2-.9.2-2.3 0-3-.3-.6-.5.1-.5 1.8zm55.1 5.5c0 2.5.2 3.5.4 2.2.2-1.2.2-3.2 0-4.5-.2-1.2-.4-.2-.4 2.3zm-152 5.5c0 2.2.2 3 .4 1.7.2-1.2.2-3 0-4-.3-.9-.5.1-.4 2.3zm196.9.5c0 1.4.2 1.9.5 1.2.2-.6.2-1.8 0-2.5-.3-.6-.5-.1-.5 1.3zm-46.9 6.5c0 2.7.2 3.8.4 2.2.2-1.5.2-3.7 0-5-.2-1.2-.4 0-.4 2.8zm-152 7.5c0 4.7.2 6.6.4 4.2.2-2.3.2-6.1 0-8.5-.2-2.3-.4-.4-.4 4.3zm206.9 2c0 1.4.2 1.9.5 1.2.2-.6.2-1.8 0-2.5-.3-.6-.5-.1-.5 1.3zm-119.9 17.5c0 3.3.2 4.5.4 2.7.2-1.8.2-4.5 0-6s-.4 0-.4 3.3zm-15.2-1.9c0 1.1.3 1.4.6.6.3-.7.2-1.6-.1-1.9-.3-.4-.6.2-.5 1.3zm143.1 4.4c0 1.4.2 1.9.5 1.2.2-.6.2-1.8 0-2.5-.3-.6-.5-.1-.5 1.3zm-216.9 2.5c0 2.2.2 3 .4 1.7.2-1.2.2-3 0-4-.3-.9-.5.1-.4 2.3zm219 8.5c0 3 .2 4.3.4 2.7.2-1.5.2-3.9 0-5.5-.2-1.5-.4-.2-.4 2.8zm-217 13c0 4.7.2 6.6.4 4.2.2-2.3.2-6.1 0-8.5-.2-2.3-.4-.4-.4 4.3zm172.1 2.5c0 4.9.1 7.1.3 4.8.2-2.3.2-6.4 0-9-.2-2.6-.3-.8-.3 4.2zm46.9.5c0 3 .2 4.3.4 2.7.2-1.5.2-3.9 0-5.5-.2-1.5-.4-.2-.4 2.8zm1.9 9.5c0 1.6.2 2.2.5 1.2.2-.9.2-2.3 0-3-.3-.6-.5.1-.5 1.8zm-203.4 9.2c2.3.2 6.1.2 8.5 0 2.3-.2.4-.4-4.3-.4s-6.6.2-4.2.4zm185.5 0c.9.2 2.5.2 3.5 0 .9-.3.1-.5-1.8-.5-1.9 0-2.7.2-1.7.5zm-6.5 5c.6.2 1.8.2 2.5 0 .6-.3.1-.5-1.3-.5-1.4 0-1.9.2-1.2.5zm22.3 12.9c0 1.1.3 1.4.6.6.3-.7.2-1.6-.1-1.9-.3-.4-.6.2-.5 1.3zm2.1 7.4c0 1.9.2 2.7.5 1.7.2-.9.2-2.5 0-3.5-.3-.9-.5-.1-.5 1.8zm-45.1 4.6c0 1.1.3 1.4.6.6.3-.7.2-1.6-.1-1.9-.3-.4-.6.2-.5 1.3zm47.3 12.9c0 7.1.1 9.9.3 6.2.2-3.7.2-9.6 0-13-.2-3.4-.3-.4-.3 6.8zm-49.2-5.5c0 1.9.2 2.7.5 1.7.2-.9.2-2.5 0-3.5-.3-.9-.5-.1-.5 1.8zm-1.8 15.5c0 4.9.1 7.1.3 4.8.2-2.3.2-6.4 0-9-.2-2.6-.3-.8-.3 4.2zm36.8-6.9c-.7.8-.8 1.4-.3 1.4 1 0 2.5-1.9 2-2.5-.2-.1-1 .3-1.7 1.1zm11.9 14c0 1.1.3 1.4.6.6.3-.7.2-1.6-.1-1.9-.3-.4-.6.2-.5 1.3zm-35.3 11.1c1.2.2 3.2.2 4.5 0 1.2-.2.2-.4-2.3-.4s-3.5.2-2.2.4zm-27.5 6c1.5.2 3.9.2 5.5 0 1.5-.2.2-.4-2.8-.4s-4.3.2-2.7.4zm-8 11.8c0 3.8.2 5.3.4 3.2.2-2 .2-5.2 0-7-.2-1.7-.4-.1-.4 3.8zm-107.5.2c.6.2 1.8.2 2.5 0 .6-.3.1-.5-1.3-.5-1.4 0-1.9.2-1.2.5zm6.2 5.6c0 1.4.5 2.9 1 3.2.7.4.8-.3.4-2.2-.9-3.8-1.4-4.2-1.4-1zm170.1-.7c0 1.1.3 1.4.6.6.3-.7.2-1.6-.1-1.9-.3-.4-.6.2-.5 1.3zm-67 6c0 1.1.3 1.4.6.6.3-.7.2-1.6-.1-1.9-.3-.4-.6.2-.5 1.3zm-100.3 6.1c.6 6.5 1 7 1.1 1.5 0-2.8-.3-5.2-.7-5.2-.4 0-.6 1.7-.4 3.7zm-60.5 1c.9.2 2.5.2 3.5 0 .9-.3.1-.5-1.8-.5-1.9 0-2.7.2-1.7.5zm57.9 1.3c0 1.4.2 1.9.5 1.2.2-.6.2-1.8 0-2.5-.3-.6-.5-.1-.5 1.3zm24 2c0 1.4.2 1.9.5 1.2.2-.6.2-1.8 0-2.5-.3-.6-.5-.1-.5 1.3zm141.9-.4c0 1.1.3 1.4.6.6.3-.7.2-1.6-.1-1.9-.3-.4-.6.2-.5 1.3zM249.2 342c0 1.9.2 2.7.5 1.7.2-.9.2-2.5 0-3.5-.3-.9-.5-.1-.5 1.8zm91 1.5c0 1.6.2 2.2.5 1.2.2-.9.2-2.3 0-3-.3-.6-.5.1-.5 1.8zm85.1 1.5c0 2.5.2 3.5.4 2.2.2-1.2.2-3.2 0-4.5-.2-1.2-.4-.2-.4 2.3zm-44-1.3c3.7.2 9.7.2 13.5 0 3.7-.2.6-.3-6.8-.3-7.4 0-10.5.1-6.7.3zM277.2 348c0 1.9.2 2.7.5 1.7.2-.9.2-2.5 0-3.5-.3-.9-.5-.1-.5 1.8zm-27.1 8.2c.1 5.2.3 6.6.9 4.8 1.2-3.6 1.2-12 0-12-.6 0-1 3-.9 7.2zm127.7-5.5c.6.2 1.8.2 2.5 0 .6-.3.1-.5-1.3-.5-1.4 0-1.9.2-1.2.5zm56 5c.6.2 1.8.2 2.5 0 .6-.3.1-.5-1.3-.5-1.4 0-1.9.2-1.2.5zm66.4 1.3c0 1.4.2 1.9.5 1.2.2-.6.2-1.8 0-2.5-.3-.6-.5-.1-.5 1.3zm-56.4-.3c.6.2 1.8.2 2.5 0 .6-.3.1-.5-1.3-.5-1.4 0-1.9.2-1.2.5zM276.2 359c0 1.4.2 1.9.5 1.2.2-.6.2-1.8 0-2.5-.3-.6-.5-.1-.5 1.3zm122.1 2.7c.9.2 2.5.2 3.5 0 .9-.3.1-.5-1.8-.5-1.9 0-2.7.2-1.7.5zm11.5 0c.6.2 1.8.2 2.5 0 .6-.3.1-.5-1.3-.5-1.4 0-1.9.2-1.2.5zm-65 1c2.3.2 6.1.2 8.5 0 2.3-.2.4-.4-4.3-.4s-6.6.2-4.2.4zm76 0c.7.3 1.6.2 1.9-.1.4-.3-.2-.6-1.3-.5-1.1 0-1.4.3-.6.6zM253.2 365c0 1.4.2 1.9.5 1.2.2-.6.2-1.8 0-2.5-.3-.6-.5-.1-.5 1.3zm249 2c0 2.5.3 7 .8 10l.7 5.5.1-5c0-2.8-.3-7.3-.8-10l-.7-5-.1 4.5zm3-1.5c0 1.6.2 2.2.5 1.2.2-.9.2-2.3 0-3-.3-.6-.5.1-.5 1.8zm-257 3.5c0 1.4.2 1.9.5 1.2.2-.6.2-1.8 0-2.5-.3-.6-.5-.1-.5 1.3zm61.6-1.3c.6.2 1.8.2 2.5 0 .6-.3.1-.5-1.3-.5-1.4 0-1.9.2-1.2.5zm38.5 0c.9.2 2.5.2 3.5 0 .9-.3.1-.5-1.8-.5-1.9 0-2.7.2-1.7.5zm27 6c1.5.2 3.9.2 5.5 0 1.5-.2.2-.4-2.8-.4s-4.3.2-2.7.4zm83 2.8c0 2.2.2 3 .4 1.7.2-1.2.2-3 0-4-.3-.9-.5.1-.4 2.3zm41.9 1c0 1.6.2 2.2.5 1.2.2-.9.2-2.3 0-3-.3-.6-.5.1-.5 1.8zm-213.9 2.2c3.1.2 8.3.2 11.5 0 3.1-.2.5-.3-5.8-.3s-8.9.1-5.7.3zm78.9 1.3c0 1.4.2 1.9.5 1.2.2-.6.2-1.8 0-2.5-.3-.6-.5-.1-.5 1.3zm36.6-1.3c.6.2 1.8.2 2.5 0 .6-.3.1-.5-1.3-.5-1.4 0-1.9.2-1.2.5zm124.4 2.3c0 1.9.2 2.7.5 1.7.2-.9.2-2.5 0-3.5-.3-.9-.5-.1-.5 1.8zm-258.4-1.3c1.8.2 4.5.2 6 0s0-.4-3.3-.4-4.5.2-2.7.4zm7.3 3.9c0 1.1.3 1.4.6.6.3-.7.2-1.6-.1-1.9-.3-.4-.6.2-.5 1.3zm-69.7 16.9c0 9.3.2 13.3.3 8.8.2-4.5.2-12.2 0-17-.1-4.8-.3-1.2-.3 8.2zm295.4-2c-.2 6.9 0 12.5.5 12.5.4 0 .7-5.6.7-12.5s-.2-12.5-.4-12.5c-.3 0-.6 5.6-.8 12.5zm27.5-9c0 2.2.2 3 .4 1.7.2-1.2.2-3 0-4-.3-.9-.5.1-.4 2.3zm-294.2.1c0 1.1.3 1.4.6.6.3-.7.2-1.6-.1-1.9-.3-.4-.6.2-.5 1.3zm229.2 3.9c0 3.3.2 4.5.4 2.7.2-1.8.2-4.5 0-6s-.4 0-.4 3.3zm-113.5-2.8c.6.2 1.8.2 2.5 0 .6-.3.1-.5-1.3-.5-1.4 0-1.9.2-1.2.5zm10.5 0c.9.2 2.5.2 3.5 0 .9-.3.1-.5-1.8-.5-1.9 0-2.7.2-1.7.5zM258.8 397c-.2 2.2 0 4 .4 4 .5 0 .8-1.8.8-4s-.2-4-.4-4-.6 1.8-.8 4zm84.4 3c0 1.9.2 2.7.5 1.7.2-.9.2-2.5 0-3.5-.3-.9-.5-.1-.5 1.8zm39.1-2.3c.9.2 2.5.2 3.5 0 .9-.3.1-.5-1.8-.5-1.9 0-2.7.2-1.7.5zm148.1 8.3c0 5.2.1 7.4.3 4.7.2-2.6.2-6.8 0-9.5-.2-2.6-.3-.4-.3 4.8zm-222.1-7.3c3.1.2 8.3.2 11.5 0 3.1-.2.5-.3-5.8-.3s-8.9.1-5.7.3zm86.5 0c.7.3 1.6.2 1.9-.1.4-.3-.2-.6-1.3-.5-1.1 0-1.4.3-.6.6zm85 0c.6.2 1.8.2 2.5 0 .6-.3.1-.5-1.3-.5-1.4 0-1.9.2-1.2.5zM260 406.5c0 1.9.2 3.5.4 3.5s.6-1.6.8-3.5c.2-1.9 0-3.5-.4-3.5s-.8 1.6-.8 3.5zm47.8-2.8c.6.2 1.8.2 2.5 0 .6-.3.1-.5-1.3-.5-1.4 0-1.9.2-1.2.5zm96 0c.6.2 1.8.2 2.5 0 .6-.3.1-.5-1.3-.5-1.4 0-1.9.2-1.2.5zm81.5 0c1.5.2 3.9.2 5.5 0 1.5-.2.2-.4-2.8-.4s-4.3.2-2.7.4zm-69.5 1c.6.2 1.8.2 2.5 0 .6-.3.1-.5-1.3-.5-1.4 0-1.9.2-1.2.5zm-176.7 3.9c0 1.1.3 1.4.6.6.3-.7.2-1.6-.1-1.9-.3-.4-.6.2-.5 1.3zm81.1 3.4c0 1.9.2 2.7.5 1.7.2-.9.2-2.5 0-3.5-.3-.9-.5-.1-.5 1.8zm134 0c0 1.9.2 2.7.5 1.7.2-.9.2-2.5 0-3.5-.3-.9-.5-.1-.5 1.8zm-18.4-1.3c.6.2 1.8.2 2.5 0 .6-.3.1-.5-1.3-.5-1.4 0-1.9.2-1.2.5zm-177.7 3.9c0 1.1.3 1.4.6.6.3-.7.2-1.6-.1-1.9-.3-.4-.6.2-.5 1.3zm33.7 2.1c.6.2 1.8.2 2.5 0 .6-.3.1-.5-1.3-.5-1.4 0-1.9.2-1.2.5zm71 0c.7.3 1.6.2 1.9-.1.4-.3-.2-.6-1.3-.5-1.1 0-1.4.3-.6.6zM528.4 430c0 6.3.1 8.9.3 5.7.2-3.1.2-8.3 0-11.5-.2-3.1-.3-.5-.3 5.8zm-247.6-8.3c1.2.2 3.2.2 4.5 0 1.2-.2.2-.4-2.3-.4s-3.5.2-2.2.4zm89 0c.6.2 1.8.2 2.5 0 .6-.3.1-.5-1.3-.5-1.4 0-1.9.2-1.2.5zm-159.5 1c.9.2 2.5.2 3.5 0 .9-.3.1-.5-1.8-.5-1.9 0-2.7.2-1.7.5zm189.5 0c2.8.2 7.6.2 10.5 0 2.8-.2.5-.3-5.3-.3s-8.1.1-5.2.3zm-168.6 4.8c0 1.6.2 2.2.5 1.2.2-.9.2-2.3 0-3-.3-.6-.5.1-.5 1.8zm-56.4.2c1.2.2 3.2.2 4.5 0 1.2-.2.2-.4-2.3-.4s-3.5.2-2.2.4zm253 0c.6.2 1.8.2 2.5 0 .6-.3.1-.5-1.3-.5-1.4 0-1.9.2-1.2.5zm81.3.9c0 1.1.3 1.4.6.6.3-.7.2-1.6-.1-1.9-.3-.4-.6.2-.5 1.3zm-207 4c0 1.1.3 1.4.6.6.3-.7.2-1.6-.1-1.9-.3-.4-.6.2-.5 1.3zm200.1.4c0 1.4.2 1.9.5 1.2.2-.6.2-1.8 0-2.5-.3-.6-.5-.1-.5 1.3zm-292.9 4.5c0 2.7.2 3.8.4 2.2.2-1.5.2-3.7 0-5-.2-1.2-.4 0-.4 2.8zm16.9-1.5c0 1.9.2 2.7.5 1.7.2-.9.2-2.5 0-3.5-.3-.9-.5-.1-.5 1.8zm96.1-2.3c.9.2 2.5.2 3.5 0 .9-.3.1-.5-1.8-.5-1.9 0-2.7.2-1.7.5zm189.1 15.8c0 9.3.2 13.3.3 8.8.2-4.5.2-12.2 0-17-.1-4.8-.3-1.2-.3 8.2zM206.2 442c0 1.9.2 2.7.5 1.7.2-.9.2-2.5 0-3.5-.3-.9-.5-.1-.5 1.8zm107 0c0 1.9.2 2.7.5 1.7.2-.9.2-2.5 0-3.5-.3-.9-.5-.1-.5 1.8zm-154 1.5c0 1.6.2 2.2.5 1.2.2-.9.2-2.3 0-3-.3-.6-.5.1-.5 1.8zm194.6 2.2c.6.2 1.8.2 2.5 0 .6-.3.1-.5-1.3-.5-1.4 0-1.9.2-1.2.5zm68 0c.6.2 1.8.2 2.5 0 .6-.3.1-.5-1.3-.5-1.4 0-1.9.2-1.2.5zm80.6 23.3c0 13.5.2 19 .3 12.2.2-6.7.2-17.7 0-24.5-.1-6.7-.3-1.2-.3 12.3zm-120.6-22.3c5 .2 13.4.2 18.5 0 5-.1.9-.3-9.3-.3-10.2 0-14.3.2-9.2.3zm-173.5 6.8c0 3.8.2 5.3.4 3.2.2-2 .2-5.2 0-7-.2-1.7-.4-.1-.4 3.8zm270.9-2c0 1.6.2 2.2.5 1.2.2-.9.2-2.3 0-3-.3-.6-.5.1-.5 1.8zm47.1 4.5c0 4.1.2 5.8.4 3.7.2-2 .2-5.4 0-7.5-.2-2-.4-.3-.4 3.8zm-286.5-4.3c.6.2 1.8.2 2.5 0 .6-.3.1-.5-1.3-.5-1.4 0-1.9.2-1.2.5zm143.5 0c3.7.2 9.7.2 13.5 0 3.7-.2.6-.3-6.8-.3-7.4 0-10.5.1-6.7.3zm46.9 2.3c0 1.9.2 2.7.5 1.7.2-.9.2-2.5 0-3.5-.3-.9-.5-.1-.5 1.8zm-170.1 2.6c0 1.1.3 1.4.6.6.3-.7.2-1.6-.1-1.9-.3-.4-.6.2-.5 1.3zm54.1.9c0 1.6.2 2.2.5 1.2.2-.9.2-2.3 0-3-.3-.6-.5.1-.5 1.8zm-39.9.2c2 .2 5.4.2 7.5 0 2-.2.3-.4-3.8-.4s-5.8.2-3.7.4zm203.1 23.8c0 13.7.2 19.5.3 12.8.2-6.7.2-17.9 0-25-.1-7-.3-1.6-.3 12.2zm-340-8.5c0 8 .2 11.2.3 7.2.2-3.9.2-10.5 0-14.5-.1-3.9-.3-.7-.3 7.3zm157.8-12c0 1.4.2 1.9.5 1.2.2-.6.2-1.8 0-2.5-.3-.6-.5-.1-.5 1.3zm-105.4 3.7c.6.2 1.8.2 2.5 0 .6-.3.1-.5-1.3-.5-1.4 0-1.9.2-1.2.5zm10.5 0c.9.2 2.5.2 3.5 0 .9-.3.1-.5-1.8-.5-1.9 0-2.7.2-1.7.5zm-1 5c1.5.2 3.9.2 5.5 0 1.5-.2.2-.4-2.8-.4s-4.3.2-2.7.4zm96.9 2.3c0 1.9.2 2.7.5 1.7.2-.9.2-2.5 0-3.5-.3-.9-.5-.1-.5 1.8zm18.6-2.3c1.2.2 3.2.2 4.5 0 1.2-.2.2-.4-2.3-.4s-3.5.2-2.2.4zm37.5 1c.9.2 2.5.2 3.5 0 .9-.3.1-.5-1.8-.5-1.9 0-2.7.2-1.7.5zm42.5 0c1.2.2 3.2.2 4.5 0 1.2-.2.2-.4-2.3-.4s-3.5.2-2.2.4zM187.2 478c0 1.9.2 2.7.5 1.7.2-.9.2-2.5 0-3.5-.3-.9-.5-.1-.5 1.8zm234.1.5c0 2.2.2 3 .4 1.7.2-1.2.2-3 0-4-.3-.9-.5.1-.4 2.3zm105.5-2.8c1.2.2 3.2.2 4.5 0 1.2-.2.2-.4-2.3-.4s-3.5.2-2.2.4zm-352.5 7.8c0 3.8.2 5.3.4 3.2.2-2 .2-5.2 0-7-.2-1.7-.4-.1-.4 3.8zm128.9-4.5c0 1.4.2 1.9.5 1.2.2-.6.2-1.8 0-2.5-.3-.6-.5-.1-.5 1.3zm-4.9 8c0 4.7.2 6.6.4 4.2.2-2.3.2-6.1 0-8.5-.2-2.3-.4-.4-.4 4.3zm44.5-5.3c.7.3 1.6.2 1.9-.1.4-.3-.2-.6-1.3-.5-1.1 0-1.4.3-.6.6zm42 0c1.2.2 3.2.2 4.5 0 1.2-.2.2-.4-2.3-.4s-3.5.2-2.2.4zm29.3.9c0 1.1.3 1.4.6.6.3-.7.2-1.6-.1-1.9-.3-.4-.6.2-.5 1.3zm122.2 1.9c0 2.2.2 3 .4 1.7.2-1.2.2-3 0-4-.3-.9-.5.1-.4 2.3zM511.4 499c0 8 .2 11.2.3 7.2.2-3.9.2-10.5 0-14.5-.1-3.9-.3-.7-.3 7.3zm-83.1-10.3c.9.2 2.5.2 3.5 0 .9-.3.1-.5-1.8-.5-1.9 0-2.7.2-1.7.5zm-293 6.3c0 2.5.2 3.5.4 2.2.2-1.2.2-3.2 0-4.5-.2-1.2-.4-.2-.4 2.3zm36.8-.4c0 1.1.3 1.4.6.6.3-.7.2-1.6-.1-1.9-.3-.4-.6.2-.5 1.3zm328.1 2.9c0 1.6.2 2.2.5 1.2.2-.9.2-2.3 0-3-.3-.6-.5.1-.5 1.8zm-187.9 2.2c.9.2 2.5.2 3.5 0 .9-.3.1-.5-1.8-.5-1.9 0-2.7.2-1.7.5zm104 0c.9.2 2.5.2 3.5 0 .9-.3.1-.5-1.8-.5-1.9 0-2.7.2-1.7.5zm-26.5 1c.6.2 1.8.2 2.5 0 .6-.3.1-.5-1.3-.5-1.4 0-1.9.2-1.2.5zM187.4 511c0 5.8.1 8.1.3 5.2.2-2.8.2-7.6 0-10.5-.2-2.8-.3-.5-.3 5.3zm-54.2-6c0 1.4.2 1.9.5 1.2.2-.6.2-1.8 0-2.5-.3-.6-.5-.1-.5 1.3zm255.1.7c.9.2 2.5.2 3.5 0 .9-.3.1-.5-1.8-.5-1.9 0-2.7.2-1.7.5zm139.9 3.8c0 1.6.2 2.2.5 1.2.2-.9.2-2.3 0-3-.3-.6-.5.1-.5 1.8zm-397.1 3.1c0 1.1.3 1.4.6.6.3-.7.2-1.6-.1-1.9-.3-.4-.6.2-.5 1.3zm314.7-.9c1.7.2 4.7.2 6.5 0 1.7-.2.3-.4-3.3-.4-3.6 0-5 .2-3.2.4zm-90.5 4.8c0 2.2.2 3 .4 1.7.2-1.2.2-3 0-4-.3-.9-.5.1-.4 2.3zm170.8.1c0 1.1.3 1.4.6.6.3-.7.2-1.6-.1-1.9-.3-.4-.6.2-.5 1.3zM129.2 520c0 1.9.2 2.7.5 1.7.2-.9.2-2.5 0-3.5-.3-.9-.5-.1-.5 1.8zm331.1 4.5c0 4.4.2 6.1.4 3.7.2-2.3.2-5.9 0-8-.2-2-.4-.1-.4 4.3zm50.8-5.9c0 1.1.3 1.4.6.6.3-.7.2-1.6-.1-1.9-.3-.4-.6.2-.5 1.3zm-10.7 9.9c0 5.5.1 7.6.3 4.7.2-2.9.2-7.4 0-10-.2-2.6-.3-.2-.3 5.3zm-288.1-.5c0 3 .2 4.3.4 2.7.2-1.5.2-3.9 0-5.5-.2-1.5-.4-.2-.4 2.8zm140.8-3.4c0 1.1.3 1.4.6.6.3-.7.2-1.6-.1-1.9-.3-.4-.6.2-.5 1.3zM189.3 530c0 3 .2 4.3.4 2.7.2-1.5.2-3.9 0-5.5-.2-1.5-.4-.2-.4 2.8zm158.8-1.4c0 1.1.3 1.4.6.6.3-.7.2-1.6-.1-1.9-.3-.4-.6.2-.5 1.3zm129 0c0 1.1.3 1.4.6.6.3-.7.2-1.6-.1-1.9-.3-.4-.6.2-.5 1.3zm-213.3 2.1c.6.2 1.8.2 2.5 0 .6-.3.1-.5-1.3-.5-1.4 0-1.9.2-1.2.5zm21.4 2.3c0 1.4.2 1.9.5 1.2.2-.6.2-1.8 0-2.5-.3-.6-.5-.1-.5 1.3zm190.2 8.5c0 4.9.1 7.1.3 4.8.2-2.3.2-6.4 0-9-.2-2.6-.3-.8-.3 4.2zm-321.1-5.8c.9.2 2.5.2 3.5 0 .9-.3.1-.5-1.8-.5-1.9 0-2.7.2-1.7.5zm75 2.8c0 2.2.2 3 .4 1.7.2-1.2.2-3 0-4-.3-.9-.5.1-.4 2.3zm-93.5-1.8c1.7.2 4.7.2 6.5 0 1.7-.2.3-.4-3.3-.4-3.6 0-5 .2-3.2.4zm322.4 2.3c0 1.4.2 1.9.5 1.2.2-.6.2-1.8 0-2.5-.3-.6-.5-.1-.5 1.3zm-267 3c0 1.9.2 2.7.5 1.7.2-.9.2-2.5 0-3.5-.3-.9-.5-.1-.5 1.8zm306.9.6c0 1.1.3 1.4.6.6.3-.7.2-1.6-.1-1.9-.3-.4-.6.2-.5 1.3zm-249.8 3.9c0 2.2.2 3 .4 1.7.2-1.2.2-3 0-4-.3-.9-.5.1-.4 2.3zm94.8.1c0 1.1.3 1.4.6.6.3-.7.2-1.6-.1-1.9-.3-.4-.6.2-.5 1.3zm-123.3 1.1c.6.2 1.8.2 2.5 0 .6-.3.1-.5-1.3-.5-1.4 0-1.9.2-1.2.5zm183.3.9c0 1.1.3 1.4.6.6.3-.7.2-1.6-.1-1.9-.3-.4-.6.2-.5 1.3zm93 0c0 1.1.3 1.4.6.6.3-.7.2-1.6-.1-1.9-.3-.4-.6.2-.5 1.3zm-302.9 2.9c0 1.6.2 2.2.5 1.2.2-.9.2-2.3 0-3-.3-.6-.5.1-.5 1.8zm207.9 3.1c0 1.1.3 1.4.6.6.3-.7.2-1.6-.1-1.9-.3-.4-.6.2-.5 1.3zm72.2 5.4c0 4.1.2 5.8.4 3.7.2-2 .2-5.4 0-7.5-.2-2-.4-.3-.4 3.8zm-121.5-5.3c.6.2 1.8.2 2.5 0 .6-.3.1-.5-1.3-.5-1.4 0-1.9.2-1.2.5zm-156.7 3.9c0 1.1.3 1.4.6.6.3-.7.2-1.6-.1-1.9-.3-.4-.6.2-.5 1.3zm204 2c0 1.1.3 1.4.6.6.3-.7.2-1.6-.1-1.9-.3-.4-.6.2-.5 1.3zm-216.9 2.9c0 1.6.2 2.2.5 1.2.2-.9.2-2.3 0-3-.3-.6-.5.1-.5 1.8zm-63.1 1.1c0 1.1.3 1.4.6.6.3-.7.2-1.6-.1-1.9-.3-.4-.6.2-.5 1.3zm78 0c0 1.1.3 1.4.6.6.3-.7.2-1.6-.1-1.9-.3-.4-.6.2-.5 1.3zm-12.8 8.9c0 2.7.2 3.8.4 2.2.2-1.5.2-3.7 0-5-.2-1.2-.4 0-.4 2.8zm-66.9 7.5c0 5.8.1 8.1.3 5.2.2-2.8.2-7.6 0-10.5-.2-2.8-.3-.5-.3 5.3zm275.8-6c0 1.4.2 1.9.5 1.2.2-.6.2-1.8 0-2.5-.3-.6-.5-.1-.5 1.3zm-21.4 2.7c1.7.2 4.7.2 6.5 0 1.7-.2.3-.4-3.3-.4-3.6 0-5 .2-3.2.4zM186.3 588c0 4.1.2 5.8.4 3.7.2-2 .2-5.4 0-7.5-.2-2-.4-.3-.4 3.8zm214.3 2.6c-.4 2-.5 3.8-.2 4.1.2.3.8-1.1 1.2-3.1.3-2.1.4-3.9.1-4.2-.2-.3-.8 1.1-1.1 3.2zm-150.8.1c.6.2 1.8.2 2.5 0 .6-.3.1-.5-1.3-.5-1.4 0-1.9.2-1.2.5zm-130.7 5.9c0 1.1.3 1.4.6.6.3-.7.2-1.6-.1-1.9-.3-.4-.6.2-.5 1.3zm283.1 2.4c0 1.4.2 1.9.5 1.2.2-.6.2-1.8 0-2.5-.3-.6-.5-.1-.5 1.3zm-213.8 11.5c0 6.6.1 9.2.3 5.7.2-3.4.2-8.8 0-12-.2-3.1-.3-.3-.3 6.3zm-67.3-7.9c0 1.1.3 1.4.6.6.3-.7.2-1.6-.1-1.9-.3-.4-.6.2-.5 1.3zm43.2 5.4c0 3 .2 4.3.4 2.7.2-1.5.2-3.9 0-5.5-.2-1.5-.4-.2-.4 2.8zm240.1 3.5c0 4.9.1 7.1.3 4.8.2-2.3.2-6.4 0-9-.2-2.6-.3-.8-.3 4.2zm-281.3-2.9c0 1.1.3 1.4.6.6.3-.7.2-1.6-.1-1.9-.3-.4-.6.2-.5 1.3zm43.2 16.9c0 3.8.2 5.3.4 3.2.2-2 .2-5.2 0-7-.2-1.7-.4-.1-.4 3.8zm235.8-.9c0 1.1.3 1.4.6.6.3-.7.2-1.6-.1-1.9-.3-.4-.6.2-.5 1.3zm-233.7 20.9c0 6 .1 8.4.3 5.2.2-3.2.2-8.1 0-11-.2-2.9-.3-.3-.3 5.8zM289.2 671c0 1.4.2 1.9.5 1.2.2-.6.2-1.8 0-2.5-.3-.6-.5-.1-.5 1.3zm53.1 3.7c.9.2 2.5.2 3.5 0 .9-.3.1-.5-1.8-.5-1.9 0-2.7.2-1.7.5z" fill="#FFF" fill-opacity=".25"/><path d="M349 410.4c0 .2.8 1 1.8 1.7 1.5 1.3 1.6 1.2.3-.4s-2.1-2.1-2.1-1.3zm87.9 103.3c-1.3 1.6-1.2 1.7.4.4.9-.7 1.7-1.5 1.7-1.7 0-.8-.8-.3-2.1 1.3z" fill="#FFF" fill-opacity=".07"/><path d="M387.8 94.7c.6.2 1.8.2 2.5 0 .6-.3.1-.5-1.3-.5-1.4 0-1.9.2-1.2.5zm-56 20c.6.2 1.8.2 2.5 0 .6-.3.1-.5-1.3-.5-1.4 0-1.9.2-1.2.5zm-28 106c.6.2 1.8.2 2.5 0 .6-.3.1-.5-1.3-.5-1.4 0-1.9.2-1.2.5zm-6 2c.6.2 1.8.2 2.5 0 .6-.3.1-.5-1.3-.5-1.4 0-1.9.2-1.2.5zm164 4c.6.2 1.8.2 2.5 0 .6-.3.1-.5-1.3-.5-1.4 0-1.9.2-1.2.5zm-19.5 66c.9.2 2.5.2 3.5 0 .9-.3.1-.5-1.8-.5-1.9 0-2.7.2-1.7.5zm30.5 2c1.2.2 3.2.2 4.5 0 1.2-.2.2-.4-2.3-.4s-3.5.2-2.2.4zm-141 58c.6.2 1.8.2 2.5 0 .6-.3.1-.5-1.3-.5-1.4 0-1.9.2-1.2.5zm52 0c.6.2 1.8.2 2.5 0 .6-.3.1-.5-1.3-.5-1.4 0-1.9.2-1.2.5zm9.5 2c1.5.2 3.9.2 5.5 0 1.5-.2.2-.4-2.8-.4s-4.3.2-2.7.4zm41 0c.9.2 2.5.2 3.5 0 .9-.3.1-.5-1.8-.5-1.9 0-2.7.2-1.7.5zm18 4c.9.2 2.5.2 3.5 0 .9-.3.1-.5-1.8-.5-1.9 0-2.7.2-1.7.5zm9.5 0c.6.2 1.8.2 2.5 0 .6-.3.1-.5-1.3-.5-1.4 0-1.9.2-1.2.5zm-89 12c1.2.2 3.2.2 4.5 0 1.2-.2.2-.4-2.3-.4s-3.5.2-2.2.4zm33 6c.6.2 1.8.2 2.5 0 .6-.3.1-.5-1.3-.5-1.4 0-1.9.2-1.2.5zm-88 2c5 .2 13.4.2 18.5 0 5-.1.9-.3-9.3-.3-10.2 0-14.3.2-9.2.3zm34 0c1.7.2 4.7.2 6.5 0 1.7-.2.3-.4-3.3-.4-3.6 0-5 .2-3.2.4zm60 0c.6.2 1.8.2 2.5 0 .6-.3.1-.5-1.3-.5-1.4 0-1.9.2-1.2.5zm-30 16c.6.2 1.8.2 2.5 0 .6-.3.1-.5-1.3-.5-1.4 0-1.9.2-1.2.5zm-87.5 2c.9.2 2.5.2 3.5 0 .9-.3.1-.5-1.8-.5-1.9 0-2.7.2-1.7.5zm93.5 0c.6.2 1.8.2 2.5 0 .6-.3.1-.5-1.3-.5-1.4 0-1.9.2-1.2.5zm66 4c.6.2 1.8.2 2.5 0 .6-.3.1-.5-1.3-.5-1.4 0-1.9.2-1.2.5zm-45.5 2c.9.2 2.5.2 3.5 0 .9-.3.1-.5-1.8-.5-1.9 0-2.7.2-1.7.5zm15.5 4c.6.2 1.8.2 2.5 0 .6-.3.1-.5-1.3-.5-1.4 0-1.9.2-1.2.5zm6 2c.6.2 1.8.2 2.5 0 .6-.3.1-.5-1.3-.5-1.4 0-1.9.2-1.2.5zm-148.5 10c1.5.2 3.9.2 5.5 0 1.5-.2.2-.4-2.8-.4s-4.3.2-2.7.4zm89.5 0c1.2.2 3.2.2 4.5 0 1.2-.2.2-.4-2.3-.4s-3.5.2-2.2.4zm-60.5 2c.9.2 2.5.2 3.5 0 .9-.3.1-.5-1.8-.5-1.9 0-2.7.2-1.7.5zm73.5 0c1.7.2 4.7.2 6.5 0 1.7-.2.3-.4-3.3-.4-3.6 0-5 .2-3.2.4zm46.5 6c.9.2 2.5.2 3.5 0 .9-.3.1-.5-1.8-.5-1.9 0-2.7.2-1.7.5zm-181.5 16c2.3.2 6.1.2 8.5 0 2.3-.2.4-.4-4.3-.4s-6.6.2-4.2.4zm30.5 0c2.6.2 6.8.2 9.5 0 2.6-.2.4-.3-4.8-.3s-7.4.1-4.7.3zm86.5 2c.6.2 1.8.2 2.5 0 .6-.3.1-.5-1.3-.5-1.4 0-1.9.2-1.2.5zm52 0c1.7.2 4.7.2 6.5 0 1.7-.2.3-.4-3.3-.4-3.6 0-5 .2-3.2.4zm-245 16c1.2.2 3.2.2 4.5 0 1.2-.2.2-.4-2.3-.4s-3.5.2-2.2.4zm11 2c.6.2 1.8.2 2.5 0 .6-.3.1-.5-1.3-.5-1.4 0-1.9.2-1.2.5zm228 4c.6.2 1.8.2 2.5 0 .6-.3.1-.5-1.3-.5-1.4 0-1.9.2-1.2.5zm-109 2c1.2.2 3.2.2 4.5 0 1.2-.2.2-.4-2.3-.4s-3.5.2-2.2.4zm103 0c.6.2 1.8.2 2.5 0 .6-.3.1-.5-1.3-.5-1.4 0-1.9.2-1.2.5zm-168 4c.6.2 1.8.2 2.5 0 .6-.3.1-.5-1.3-.5-1.4 0-1.9.2-1.2.5zm128.5 0c4.2.2 11.2.2 15.5 0 4.2-.1.7-.3-7.8-.3s-12 .2-7.7.3zm-34 30c.9.2 2.5.2 3.5 0 .9-.3.1-.5-1.8-.5-1.9 0-2.7.2-1.7.5zm45.5 0c1.7.2 4.7.2 6.5 0 1.7-.2.3-.4-3.3-.4-3.6 0-5 .2-3.2.4zm-29.5 2c4.2.2 11.2.2 15.5 0 4.2-.1.7-.3-7.8-.3s-12 .2-7.7.3zm128 70c.9.2 2.5.2 3.5 0 .9-.3.1-.5-1.8-.5-1.9 0-2.7.2-1.7.5zm-214.5 12c.6.2 1.8.2 2.5 0 .6-.3.1-.5-1.3-.5-1.4 0-1.9.2-1.2.5zm-6 2c.6.2 1.8.2 2.5 0 .6-.3.1-.5-1.3-.5-1.4 0-1.9.2-1.2.5zm-38 4c.6.2 1.8.2 2.5 0 .6-.3.1-.5-1.3-.5-1.4 0-1.9.2-1.2.5zm22.5 0c.9.2 2.5.2 3.5 0 .9-.3.1-.5-1.8-.5-1.9 0-2.7.2-1.7.5zm-14 2c2 .2 5.4.2 7.5 0 2-.2.3-.4-3.8-.4s-5.8.2-3.7.4zm183 4c1.5.2 3.9.2 5.5 0 1.5-.2.2-.4-2.8-.4s-4.3.2-2.7.4zm-98 38c2.6.2 6.8.2 9.5 0 2.6-.2.4-.3-4.8-.3s-7.4.1-4.7.3zm38.5 36c.6.2 1.8.2 2.5 0 .6-.3.1-.5-1.3-.5-1.4 0-1.9.2-1.2.5zm-17 4c1.2.2 3.2.2 4.5 0 1.2-.2.2-.4-2.3-.4s-3.5.2-2.2.4zm-36.5 2c.9.2 2.5.2 3.5 0 .9-.3.1-.5-1.8-.5-1.9 0-2.7.2-1.7.5zm20 0c2 .2 5.4.2 7.5 0 2-.2.3-.4-3.8-.4s-5.8.2-3.7.4z" fill="#FFF" fill-opacity=".25"/><path d="M391.4 366.1c-.3.6-.2 1.5.3 2s.9.1.9-1.1c0-2.3-.2-2.4-1.2-.9z" fill="#FFF" fill-opacity=".09"/><path d="m368.4 95.2-1.9 2.3 2.3-1.9c2.1-1.8 2.7-2.6 1.9-2.6-.2 0-1.2 1-2.3 2.2zm32.1 5.8c1 1.1 2 2 2.3 2 .3 0-.3-.9-1.3-2s-2-2-2.3-2c-.3 0 .3.9 1.3 2zm6 6c1 1.1 2 2 2.3 2 .3 0-.3-.9-1.3-2s-2-2-2.3-2c-.3 0 .3.9 1.3 2zm6 6c1 1.1 2 2 2.3 2 .3 0-.3-.9-1.3-2s-2-2-2.3-2c-.3 0 .3.9 1.3 2zm-58.1 36.2-1.9 2.3 2.3-1.9c2.1-1.8 2.7-2.6 1.9-2.6-.2 0-1.2 1-2.3 2.2zm-6 6-1.9 2.3 2.3-1.9c2.1-1.8 2.7-2.6 1.9-2.6-.2 0-1.2 1-2.3 2.2zm-6 6-1.9 2.3 2.3-1.9c2.1-1.8 2.7-2.6 1.9-2.6-.2 0-1.2 1-2.3 2.2zm84.1 5.8c1 1.1 2 2 2.3 2 .3 0-.3-.9-1.3-2s-2-2-2.3-2c-.3 0 .3.9 1.3 2zm8 6c1 1.1 2 2 2.3 2 .3 0-.3-.9-1.3-2s-2-2-2.3-2c-.3 0 .3.9 1.3 2zm-114.1 6.2-1.9 2.3 2.3-1.9c2.1-1.8 2.7-2.6 1.9-2.6-.2 0-1.2 1-2.3 2.2zm-6 6-1.9 2.3 2.3-1.9c2.1-1.8 2.7-2.6 1.9-2.6-.2 0-1.2 1-2.3 2.2zm28 12-1.9 2.3 2.3-1.9c2.1-1.8 2.7-2.6 1.9-2.6-.2 0-1.2 1-2.3 2.2zM272.5 221c1 1.1 2 2 2.3 2 .3 0-.3-.9-1.3-2s-2-2-2.3-2c-.3 0 .3.9 1.3 2zm172 6c1 1.1 2 2 2.3 2 .3 0-.3-.9-1.3-2s-2-2-2.3-2c-.3 0 .3.9 1.3 2zm13.9 48.2-1.9 2.3 2.3-1.9c2.1-1.8 2.7-2.6 1.9-2.6-.2 0-1.2 1-2.3 2.2zm22 18-1.9 2.3 2.3-1.9c2.1-1.8 2.7-2.6 1.9-2.6-.2 0-1.2 1-2.3 2.2zm2 30-1.9 2.3 2.3-1.9c2.1-1.8 2.7-2.6 1.9-2.6-.2 0-1.2 1-2.3 2.2zM322.5 347c1 1.1 2 2 2.3 2 .3 0-.3-.9-1.3-2s-2-2-2.3-2c-.3 0 .3.9 1.3 2zm79.9 6.2-1.9 2.3 2.3-1.9c1.2-1.1 2.2-2.1 2.2-2.3 0-.8-.8-.2-2.6 1.9zm-16.9 8.6c.4.8-.1 2.3-1.1 3.5-1.8 2.2-1.8 2.2.6 0 2-1.9 2.2-2.5 1.1-3.5-1.1-1.1-1.3-1-.6 0zm-99 9.2c1 1.1 2 2 2.3 2 .3 0-.3-.9-1.3-2s-2-2-2.3-2c-.3 0 .3.9 1.3 2zm5.9.2-1.9 2.3 2.3-1.9c1.2-1.1 2.2-2.1 2.2-2.3 0-.8-.8-.2-2.6 1.9zm102.1-.2c1 1.1 2 2 2.3 2 .3 0-.3-.9-1.3-2s-2-2-2.3-2c-.3 0 .3.9 1.3 2zm-134 6c1 1.1 2 2 2.3 2 .3 0-.3-.9-1.3-2s-2-2-2.3-2c-.3 0 .3.9 1.3 2zm-20.1 6.2-1.9 2.3 2.3-1.9c2.1-1.8 2.7-2.6 1.9-2.6-.2 0-1.2 1-2.3 2.2zm128.1 5.8c1 1.1 2 2 2.3 2 .3 0-.3-.9-1.3-2s-2-2-2.3-2c-.3 0 .3.9 1.3 2zm-38.1 6.2-1.9 2.3 2.3-1.9c1.2-1.1 2.2-2.1 2.2-2.3 0-.8-.8-.2-2.6 1.9zm158 0-1.9 2.3 2.3-1.9c1.2-1.1 2.2-2.1 2.2-2.3 0-.8-.8-.2-2.6 1.9zM262.5 407c1 1.1 2 2 2.3 2 .3 0-.3-.9-1.3-2s-2-2-2.3-2c-.3 0 .3.9 1.3 2zm84 0c1 1.1 2 2 2.3 2 .3 0-.3-.9-1.3-2s-2-2-2.3-2c-.3 0 .3.9 1.3 2zm-122.1 6.2-1.9 2.3 2.3-1.9c2.1-1.8 2.7-2.6 1.9-2.6-.2 0-1.2 1-2.3 2.2zm275.2.6c-.2.4.4.8 1.4.8 1 0 1.6-.4 1.4-.8-.3-.4-.9-.8-1.4-.8-.5 0-1.1.4-1.4.8zm-279.2 5.4-1.9 2.3 2.3-1.9c2.1-1.8 2.7-2.6 1.9-2.6-.2 0-1.2 1-2.3 2.2zm96 0-1.9 2.3 2.3-1.9c2.1-1.8 2.7-2.6 1.9-2.6-.2 0-1.2 1-2.3 2.2zm129.1 2.6c.4.8-.1 2.3-1.1 3.5-1.8 2.2-1.8 2.2.6 0 2-1.9 2.2-2.5 1.1-3.5-1.1-1.1-1.3-1-.6 0zm-111 3.2c1 1.1 2 2 2.3 2 .3 0-.3-.9-1.3-2s-2-2-2.3-2c-.3 0 .3.9 1.3 2zm-100 12c1 1.1 2 2 2.3 2 .3 0-.3-.9-1.3-2s-2-2-2.3-2c-.3 0 .3.9 1.3 2zm65.9.2-1.9 2.3 2.3-1.9c1.2-1.1 2.2-2.1 2.2-2.3 0-.8-.8-.2-2.6 1.9zm50.1-.2c1 1.1 2 2 2.3 2 .3 0-.3-.9-1.3-2s-2-2-2.3-2c-.3 0 .3.9 1.3 2zm-82.9.8c-.2.4.4.8 1.4.8 1 0 1.6-.4 1.4-.8-.3-.4-.9-.8-1.4-.8-.5 0-1.1.4-1.4.8zm48.9 11.2c1 1.1 2 2 2.3 2 .3 0-.3-.9-1.3-2s-2-2-2.3-2c-.3 0 .3.9 1.3 2zm157.9.2-1.9 2.3 2.3-1.9c2.1-1.8 2.7-2.6 1.9-2.6-.2 0-1.2 1-2.3 2.2zm-4 6-1.9 2.3 2.3-1.9c2.1-1.8 2.7-2.6 1.9-2.6-.2 0-1.2 1-2.3 2.2zm-212 6-1.9 2.3 2.3-1.9c1.2-1.1 2.2-2.1 2.2-2.3 0-.8-.8-.2-2.6 1.9zm-31.9 5.8c1 1.1 2 2 2.3 2 .3 0-.3-.9-1.3-2s-2-2-2.3-2c-.3 0 .3.9 1.3 2zm72 0c1 1.1 2 2 2.3 2 .3 0-.3-.9-1.3-2s-2-2-2.3-2c-.3 0 .3.9 1.3 2zm11.9.2-1.9 2.3 2.3-1.9c2.1-1.8 2.7-2.6 1.9-2.6-.2 0-1.2 1-2.3 2.2zm146 6-1.9 2.3 2.3-1.9c2.1-1.8 2.7-2.6 1.9-2.6-.2 0-1.2 1-2.3 2.2zm-155 8.9c-.3.6-.2 1.5.3 2s.9.1.9-1.1c0-2.3-.2-2.4-1.2-.9zm121.1 2.9c1 1.1 2 2 2.3 2 .3 0-.3-.9-1.3-2s-2-2-2.3-2c-.3 0 .3.9 1.3 2zm-116 6c1 1.1 2 2 2.3 2 .3 0-.3-.9-1.3-2s-2-2-2.3-2c-.3 0 .3.9 1.3 2zm103.9.2-1.9 2.3 2.3-1.9c2.1-1.8 2.7-2.6 1.9-2.6-.2 0-1.2 1-2.3 2.2zm88 12-1.9 2.3 2.3-1.9c2.1-1.8 2.7-2.6 1.9-2.6-.2 0-1.2 1-2.3 2.2zm-58 6-1.9 2.3 2.3-1.9c1.2-1.1 2.2-2.1 2.2-2.3 0-.8-.8-.2-2.6 1.9zm52 0-1.9 2.3 2.3-1.9c2.1-1.8 2.7-2.6 1.9-2.6-.2 0-1.2 1-2.3 2.2zm32 12-1.9 2.3 2.3-1.9c1.2-1.1 2.2-2.1 2.2-2.3 0-.8-.8-.2-2.6 1.9zm-366 6-1.9 2.3 2.3-1.9c2.1-1.8 2.7-2.6 1.9-2.6-.2 0-1.2 1-2.3 2.2zM342 538.4c.7.7 1.3.7 2 0 .6-.6.3-1-1-1s-1.6.4-1 1zm-15.6 12.8-1.9 2.3 2.3-1.9c1.2-1.1 2.2-2.1 2.2-2.3 0-.8-.8-.2-2.6 1.9zm18.1-.2c1 1.1 2 2 2.3 2 .3 0-.3-.9-1.3-2s-2-2-2.3-2c-.3 0 .3.9 1.3 2zm-26.1 6.2-1.9 2.3 2.3-1.9c1.2-1.1 2.2-2.1 2.2-2.3 0-.8-.8-.2-2.6 1.9zM206.5 581c1 1.1 2 2 2.3 2 .3 0-.3-.9-1.3-2s-2-2-2.3-2c-.3 0 .3.9 1.3 2zm-28 42c1 1.1 2 2 2.3 2 .3 0-.3-.9-1.3-2s-2-2-2.3-2c-.3 0 .3.9 1.3 2zm217.9 12.2-1.9 2.3 2.3-1.9c1.2-1.1 2.2-2.1 2.2-2.3 0-.8-.8-.2-2.6 1.9zM142.5 641c1 1.1 2 2 2.3 2 .3 0-.3-.9-1.3-2s-2-2-2.3-2c-.3 0 .3.9 1.3 2zm249.9.2-1.9 2.3 2.3-1.9c2.1-1.8 2.7-2.6 1.9-2.6-.2 0-1.2 1-2.3 2.2zm-6 6-1.9 2.3 2.3-1.9c2.1-1.8 2.7-2.6 1.9-2.6-.2 0-1.2 1-2.3 2.2zM154.5 653c1 1.1 2 2 2.3 2 .3 0-.3-.9-1.3-2s-2-2-2.3-2c-.3 0 .3.9 1.3 2zm225.9.2-1.9 2.3 2.3-1.9c1.2-1.1 2.2-2.1 2.2-2.3 0-.8-.8-.2-2.6 1.9zm-6 6-1.9 2.3 2.3-1.9c1.2-1.1 2.2-2.1 2.2-2.3 0-.8-.8-.2-2.6 1.9z" fill="#FFF" fill-opacity=".18"/><path d="M481.6 339.7c-.6 1.4-.5 1.5.5.6.7-.7 1-1.5.7-1.8-.3-.3-.9.2-1.2 1.2z" fill="#FFF" fill-opacity=".04"/><path d="M275.8 530.7c.6.2 1.8.2 2.5 0 .6-.3.1-.5-1.3-.5-1.4 0-1.9.2-1.2.5z" fill="#FFF" fill-opacity=".22"/><path d="M407.6 349.7c-.6 1.4-.5 1.5.5.6.7-.7 1-1.5.7-1.8-.3-.3-.9.2-1.2 1.2z" fill="#FFF" fill-opacity=".15"/><path d="M458 360.4c.7.7 1.3.7 2 0 .6-.6.3-1-1-1s-1.6.4-1 1z" fill="#FFF" fill-opacity=".03"/><path d="M509.4 514.1c-.3.6-.2 1.5.3 2s.9.1.9-1.1c0-2.3-.2-2.4-1.2-.9z" fill="#FFF" fill-opacity=".08"/><path d="M185.1 488.6c0 1.1.3 1.4.6.6.3-.7.2-1.6-.1-1.9-.3-.4-.6.2-.5 1.3z" fill="#FFF" fill-opacity=".1"/><path d="M433.4 188.1c-.3.6-.2 1.5.3 2s.9.1.9-1.1c0-2.3-.2-2.4-1.2-.9z" fill="#FFF" fill-opacity=".01"/><path d="M459.6 395.7c-.6 1.4-.5 1.5.5.6.7-.7 1-1.5.7-1.8-.3-.3-.9.2-1.2 1.2z" fill="#FFF" fill-opacity=".17"/><path d="M464 175c0 .5.5 1 1.1 1 .5 0 .7-.5.4-1-.3-.6-.8-1-1.1-1-.2 0-.4.4-.4 1z" fill="#FFF" fill-opacity=".47"/><path d="M363.6 373.7c-.6 1.4-.5 1.5.5.6.7-.7 1-1.5.7-1.8-.3-.3-.9.2-1.2 1.2z" fill="#FFF" fill-opacity=".11"/></svg>