<svg version="1.0" xmlns="http://www.w3.org/2000/svg" viewBox="0 0 766 764"><path d="M374.3 72.7c2.6.2 6.8.2 9.5 0 2.6-.2.4-.3-4.8-.3s-7.4.1-4.7.3zm-18 2c2.6.2 6.7.2 9 0s.2-.3-4.8-.3c-4.9 0-6.8.1-4.2.3zm40 0c4.3.2 11 .2 15 0 4-.1.5-.3-7.8-.3-8.2 0-11.5.2-7.2.3zm-53.5 4c.7.3 1.6.2 1.9-.1.4-.3-.2-.6-1.3-.5-1.1 0-1.4.3-.6.6zm87.5 0c.9.2 2.3.2 3 0 .6-.3-.1-.5-1.8-.5-1.6 0-2.2.2-1.2.5zm-91.5 2c.7.3 1.6.2 1.9-.1.4-.3-.2-.6-1.3-.5-1.1 0-1.4.3-.6.6zm97 0c.7.3 1.6.2 1.9-.1.4-.3-.2-.6-1.3-.5-1.1 0-1.4.3-.6.6zm8 4c.7.3 1.6.2 1.9-.1.4-.3-.2-.6-1.3-.5-1.1 0-1.4.3-.6.6zm-115 2c.7.3 1.6.2 1.9-.1.4-.3-.2-.6-1.3-.5-1.1 0-1.4.3-.6.6zm19 42c.7.3 1.6.2 1.9-.1.4-.3-.2-.6-1.3-.5-1.1 0-1.4.3-.6.6zm-26.5 12c2.6.2 6.7.2 9 0s.2-.3-4.8-.3c-4.9 0-6.8.1-4.2.3zm129 0c1.5.2 3.9.2 5.5 0 1.5-.2.2-.4-2.8-.4s-4.3.2-2.7.4zm-15.5 4c.7.3 1.6.2 1.9-.1.4-.3-.2-.6-1.3-.5-1.1 0-1.4.3-.6.6zm-4 2c.7.3 1.6.2 1.9-.1.4-.3-.2-.6-1.3-.5-1.1 0-1.4.3-.6.6zm-71 6c.7.3 1.6.2 1.9-.1.4-.3-.2-.6-1.3-.5-1.1 0-1.4.3-.6.6zm53 0c.7.3 1.6.2 1.9-.1.4-.3-.2-.6-1.3-.5-1.1 0-1.4.3-.6.6zm-8 4c.7.3 1.6.2 1.9-.1.4-.3-.2-.6-1.3-.5-1.1 0-1.4.3-.6.6zm-37 2c.7.3 1.6.2 1.9-.1.4-.3-.2-.6-1.3-.5-1.1 0-1.4.3-.6.6zm31.5 0c.9.2 2.3.2 3 0 .6-.3-.1-.5-1.8-.5-1.6 0-2.2.2-1.2.5zm45.5 0c.7.3 1.6.2 1.9-.1.4-.3-.2-.6-1.3-.5-1.1 0-1.4.3-.6.6zm-129.5 4c.9.2 2.3.2 3 0 .6-.3-.1-.5-1.8-.5-1.6 0-2.2.2-1.2.5zm15 0c.9.2 2.3.2 3 0 .6-.3-.1-.5-1.8-.5-1.6 0-2.2.2-1.2.5zm106.5 0c.7.3 1.6.2 1.9-.1.4-.3-.2-.6-1.3-.5-1.1 0-1.4.3-.6.6zm-101 2c.7.3 1.6.2 1.9-.1.4-.3-.2-.6-1.3-.5-1.1 0-1.4.3-.6.6zm44 4c.7.3 1.6.2 1.9-.1.4-.3-.2-.6-1.3-.5-1.1 0-1.4.3-.6.6zm-9.5 24c.9.2 2.3.2 3 0 .6-.3-.1-.5-1.8-.5-1.6 0-2.2.2-1.2.5zm31.5 24c.7.3 1.6.2 1.9-.1.4-.3-.2-.6-1.3-.5-1.1 0-1.4.3-.6.6zm-35 2c.7.3 1.6.2 1.9-.1.4-.3-.2-.6-1.3-.5-1.1 0-1.4.3-.6.6zm39 0c.7.3 1.6.2 1.9-.1.4-.3-.2-.6-1.3-.5-1.1 0-1.4.3-.6.6zm-75 30c.7.3 1.6.2 1.9-.1.4-.3-.2-.6-1.3-.5-1.1 0-1.4.3-.6.6zm82.5 0c.9.2 2.5.2 3.5 0 .9-.3.1-.5-1.8-.5-1.9 0-2.7.2-1.7.5zm26.5 0c.7.3 1.6.2 1.9-.1.4-.3-.2-.6-1.3-.5-1.1 0-1.4.3-.6.6zm-118 4c.6.2 1.8.2 2.5 0 .6-.3.1-.5-1.3-.5-1.4 0-1.9.2-1.2.5zm-18.5 68c.9.2 2.5.2 3.5 0 .9-.3.1-.5-1.8-.5-1.9 0-2.7.2-1.7.5zm164.5 0c1.2.2 3.2.2 4.5 0 1.2-.2.2-.4-2.3-.4s-3.5.2-2.2.4zm14 4c.7.3 1.6.2 1.9-.1.4-.3-.2-.6-1.3-.5-1.1 0-1.4.3-.6.6zm-191 2c.7.3 1.6.2 1.9-.1.4-.3-.2-.6-1.3-.5-1.1 0-1.4.3-.6.6zm195 0c.7.3 1.6.2 1.9-.1.4-.3-.2-.6-1.3-.5-1.1 0-1.4.3-.6.6zm6 4c.7.3 1.6.2 1.9-.1.4-.3-.2-.6-1.3-.5-1.1 0-1.4.3-.6.6zm-279 6c2.3.2 5.9.2 8 0 2-.2.1-.4-4.3-.4-4.4 0-6.1.2-3.7.4zm53 0c1.2.2 3 .2 4 0 .9-.3-.1-.5-2.3-.4-2.2 0-3 .2-1.7.4zm237 0c1.2.2 3 .2 4 0 .9-.3-.1-.5-2.3-.4-2.2 0-3 .2-1.7.4zm33.5 0c2.6.2 6.7.2 9 0s.2-.3-4.8-.3c-4.9 0-6.8.1-4.2.3zm41.5 0c.7.3 1.6.2 1.9-.1.4-.3-.2-.6-1.3-.5-1.1 0-1.4.3-.6.6zm-343.5 2c5.3.2 14.1.2 19.5 0 5.3-.1.9-.3-9.8-.3-10.7 0-15.1.2-9.7.3zm279.5 0c2.8.2 7.6.2 10.5 0 2.8-.2.5-.3-5.3-.3s-8.1.1-5.2.3zm68 0c.7.3 1.6.2 1.9-.1.4-.3-.2-.6-1.3-.5-1.1 0-1.4.3-.6.6zm11 4c.6.2 1.8.2 2.5 0 .6-.3.1-.5-1.3-.5-1.4 0-1.9.2-1.2.5zm-419 2c1.2.2 3.2.2 4.5 0 1.2-.2.2-.4-2.3-.4s-3.5.2-2.2.4zm425 0c1.2.2 3 .2 4 0 .9-.3-.1-.5-2.3-.4-2.2 0-3 .2-1.7.4zm-150 54c1.7.2 4.7.2 6.5 0 1.7-.2.3-.4-3.3-.4-3.6 0-5 .2-3.2.4zm-135.5 4c.9.2 2.3.2 3 0 .6-.3-.1-.5-1.8-.5-1.6 0-2.2.2-1.2.5zm19 0c.9.2 2.3.2 3 0 .6-.3-.1-.5-1.8-.5-1.6 0-2.2.2-1.2.5zm106.5 0c.7.3 1.6.2 1.9-.1.4-.3-.2-.6-1.3-.5-1.1 0-1.4.3-.6.6zm25 0c.7.3 1.6.2 1.9-.1.4-.3-.2-.6-1.3-.5-1.1 0-1.4.3-.6.6zm-155 2c.7.3 1.6.2 1.9-.1.4-.3-.2-.6-1.3-.5-1.1 0-1.4.3-.6.6zm-8 4c.7.3 1.6.2 1.9-.1.4-.3-.2-.6-1.3-.5-1.1 0-1.4.3-.6.6zm130 0c.7.3 1.6.2 1.9-.1.4-.3-.2-.6-1.3-.5-1.1 0-1.4.3-.6.6zm-83 8c.7.3 1.6.2 1.9-.1.4-.3-.2-.6-1.3-.5-1.1 0-1.4.3-.6.6zm-39.5 10c1.5.2 3.7.2 5 0 1.2-.2 0-.4-2.8-.4-2.7 0-3.8.2-2.2.4zm14.5 0c1.2.2 3 .2 4 0 .9-.3-.1-.5-2.3-.4-2.2 0-3 .2-1.7.4zm128 0c1.8.2 4.5.2 6 0s0-.4-3.3-.4-4.5.2-2.7.4zm14 0c1.2.2 3 .2 4 0 .9-.3-.1-.5-2.3-.4-2.2 0-3 .2-1.7.4zm-162 2c.7.3 1.6.2 1.9-.1.4-.3-.2-.6-1.3-.5-1.1 0-1.4.3-.6.6zm27.5 0c.9.2 2.3.2 3 0 .6-.3-.1-.5-1.8-.5-1.6 0-2.2.2-1.2.5zm113 0c.9.2 2.3.2 3 0 .6-.3-.1-.5-1.8-.5-1.6 0-2.2.2-1.2.5zm29 0c.9.2 2.3.2 3 0 .6-.3-.1-.5-1.8-.5-1.6 0-2.2.2-1.2.5zm-177.5 4c.7.3 1.6.2 1.9-.1.4-.3-.2-.6-1.3-.5-1.1 0-1.4.3-.6.6zm138 0c.7.3 1.6.2 1.9-.1.4-.3-.2-.6-1.3-.5-1.1 0-1.4.3-.6.6zm-142 2c.7.3 1.6.2 1.9-.1.4-.3-.2-.6-1.3-.5-1.1 0-1.4.3-.6.6zm138 0c.7.3 1.6.2 1.9-.1.4-.3-.2-.6-1.3-.5-1.1 0-1.4.3-.6.6zm55 0c.7.3 1.6.2 1.9-.1.4-.3-.2-.6-1.3-.5-1.1 0-1.4.3-.6.6zm-199 4c.7.3 1.6.2 1.9-.1.4-.3-.2-.6-1.3-.5-1.1 0-1.4.3-.6.6zm69 2c.7.3 1.6.2 1.9-.1.4-.3-.2-.6-1.3-.5-1.1 0-1.4.3-.6.6zm63 0c.7.3 1.6.2 1.9-.1.4-.3-.2-.6-1.3-.5-1.1 0-1.4.3-.6.6zm-109.5 10c4.3.2 11 .2 15 0 4-.1.5-.3-7.8-.3-8.2 0-11.5.2-7.2.3zm156.5 0c1.2.2 3 .2 4 0 .9-.3-.1-.5-2.3-.4-2.2 0-3 .2-1.7.4zm-169 2c.7.3 1.6.2 1.9-.1.4-.3-.2-.6-1.3-.5-1.1 0-1.4.3-.6.6zm41 0c.7.3 1.6.2 1.9-.1.4-.3-.2-.6-1.3-.5-1.1 0-1.4.3-.6.6zm5.2.2c0 .5.7 1.2 1.6 1.5 1.4.5 1.5.4.4-.9-1.4-1.7-2-1.9-2-.6zm103.8-.2c2.9.2 7.4.2 10 0 2.6-.2.2-.3-5.3-.3s-7.6.1-4.7.3zm-89 4c.7.3 1.6.2 1.9-.1.4-.3-.2-.6-1.3-.5-1.1 0-1.4.3-.6.6zm63.5 0c.9.2 2.3.2 3 0 .6-.3-.1-.5-1.8-.5-1.6 0-2.2.2-1.2.5zm-4 18c.9.2 2.5.2 3.5 0 .9-.3.1-.5-1.8-.5-1.9 0-2.7.2-1.7.5zm-91.1 2c7 .2 18.7.2 26 0 7.3-.1 1.6-.3-12.7-.3-14.3 0-20.3.2-13.3.3zm104.1 0c4.3.2 11 .2 15 0 4-.1.5-.3-7.8-.3-8.2 0-11.5.2-7.2.3zm-135 4c.9.2 2.3.2 3 0 .6-.3-.1-.5-1.8-.5-1.6 0-2.2.2-1.2.5zm182.5 0c.6.2 1.8.2 2.5 0 .6-.3.1-.5-1.3-.5-1.4 0-1.9.2-1.2.5zm-187 2c.7.3 1.6.2 1.9-.1.4-.3-.2-.6-1.3-.5-1.1 0-1.4.3-.6.6zm70 16c1.7.2 4.7.2 6.5 0 1.7-.2.3-.4-3.3-.4-3.6 0-5 .2-3.2.4zm-9 2c1.2.2 3 .2 4 0 .9-.3-.1-.5-2.3-.4-2.2 0-3 .2-1.7.4zm61 0c1.7.2 4.7.2 6.5 0 1.7-.2.3-.4-3.3-.4-3.6 0-5 .2-3.2.4zm-72 4c.7.3 1.6.2 1.9-.1.4-.3-.2-.6-1.3-.5-1.1 0-1.4.3-.6.6zm94 0c1.2.2 3 .2 4 0 .9-.3-.1-.5-2.3-.4-2.2 0-3 .2-1.7.4zm-101.5 2c.9.2 2.3.2 3 0 .6-.3-.1-.5-1.8-.5-1.6 0-2.2.2-1.2.5zm109.5 0c1.2.2 3 .2 4 0 .9-.3-.1-.5-2.3-.4-2.2 0-3 .2-1.7.4zm-121.5 4c.9.2 2.3.2 3 0 .6-.3-.1-.5-1.8-.5-1.6 0-2.2.2-1.2.5zm135 0c.9.2 2.3.2 3 0 .6-.3-.1-.5-1.8-.5-1.6 0-2.2.2-1.2.5zm-141 2c.9.2 2.3.2 3 0 .6-.3-.1-.5-1.8-.5-1.6 0-2.2.2-1.2.5zm147 0c.9.2 2.3.2 3 0 .6-.3-.1-.5-1.8-.5-1.6 0-2.2.2-1.2.5zm-155.5 4c.7.3 1.6.2 1.9-.1.4-.3-.2-.6-1.3-.5-1.1 0-1.4.3-.6.6zm165 0c.7.3 1.6.2 1.9-.1.4-.3-.2-.6-1.3-.5-1.1 0-1.4.3-.6.6zm-278 6c2.3.2 6.1.2 8.5 0 2.3-.2.4-.4-4.3-.4s-6.6.2-4.2.4zm-16 2c2.3.2 5.9.2 8 0 2-.2.1-.4-4.3-.4-4.4 0-6.1.2-3.7.4zm37 0c2.3.2 5.9.2 8 0 2-.2.1-.4-4.3-.4-4.4 0-6.1.2-3.7.4zm151.5 0c1.5.2 3.9.2 5.5 0 1.5-.2.2-.4-2.8-.4s-4.3.2-2.7.4zm193.5 0c5.6.2 14.8.2 20.5 0 5.6-.1 1-.3-10.3-.3s-15.9.2-10.2.3zm-407.5 4c1.5.2 3.7.2 5 0 1.2-.2 0-.4-2.8-.4-2.7 0-3.8.2-2.2.4zm91 0c1.5.2 3.7.2 5 0 1.2-.2 0-.4-2.8-.4-2.7 0-3.8.2-2.2.4zm111.5 0c.7.3 1.6.2 1.9-.1.4-.3-.2-.6-1.3-.5-1.1 0-1.4.3-.6.6zm64 0c1.2.2 3 .2 4 0 .9-.3-.1-.5-2.3-.4-2.2 0-3 .2-1.7.4zm113 0c1.2.2 3 .2 4 0 .9-.3-.1-.5-2.3-.4-2.2 0-3 .2-1.7.4zm78 0c1.8.2 4.5.2 6 0s0-.4-3.3-.4-4.5.2-2.7.4zm-468 2c1.2.2 3 .2 4 0 .9-.3-.1-.5-2.3-.4-2.2 0-3 .2-1.7.4zm111 0c1.2.2 3 .2 4 0 .9-.3-.1-.5-2.3-.4-2.2 0-3 .2-1.7.4zm98 0c.7.3 1.6.2 1.9-.1.4-.3-.2-.6-1.3-.5-1.1 0-1.4.3-.6.6zm75 0c.7.3 1.6.2 1.9-.1.4-.3-.2-.6-1.3-.5-1.1 0-1.4.3-.6.6zm97.5 0c.9.2 2.3.2 3 0 .6-.3-.1-.5-1.8-.5-1.6 0-2.2.2-1.2.5zm98 0c1.5.2 3.7.2 5 0 1.2-.2 0-.4-2.8-.4-2.7 0-3.8.2-2.2.4zm-496.5 4c.7.3 1.6.2 1.9-.1.4-.3-.2-.6-1.3-.5-1.1 0-1.4.3-.6.6zm139 0c.6.2 1.8.2 2.5 0 .6-.3.1-.5-1.3-.5-1.4 0-1.9.2-1.2.5zm77.5 0c.9.2 2.3.2 3 0 .6-.3-.1-.5-1.8-.5-1.6 0-2.2.2-1.2.5zm92.5 0c.7.3 1.6.2 1.9-.1.4-.3-.2-.6-1.3-.5-1.1 0-1.4.3-.6.6zm77 0c.7.3 1.6.2 1.9-.1.4-.3-.2-.6-1.3-.5-1.1 0-1.4.3-.6.6zm-174 2c.7.3 1.6.2 1.9-.1.4-.3-.2-.6-1.3-.5-1.1 0-1.4.3-.6.6zm101 0c.7.3 1.6.2 1.9-.1.4-.3-.2-.6-1.3-.5-1.1 0-1.4.3-.6.6zm210 0c.7.3 1.6.2 1.9-.1.4-.3-.2-.6-1.3-.5-1.1 0-1.4.3-.6.6zm-320.5 4c.9.2 2.3.2 3 0 .6-.3-.1-.5-1.8-.5-1.6 0-2.2.2-1.2.5zm118.5 0c.7.3 1.6.2 1.9-.1.4-.3-.2-.6-1.3-.5-1.1 0-1.4.3-.6.6zm-123 2c.7.3 1.6.2 1.9-.1.4-.3-.2-.6-1.3-.5-1.1 0-1.4.3-.6.6zm42 4c.7.3 1.6.2 1.9-.1.4-.3-.2-.6-1.3-.5-1.1 0-1.4.3-.6.6zm40 0c1.2.2 3 .2 4 0 .9-.3-.1-.5-2.3-.4-2.2 0-3 .2-1.7.4zm-44 2c.7.3 1.6.2 1.9-.1.4-.3-.2-.6-1.3-.5-1.1 0-1.4.3-.6.6zm51.5 0c.9.2 2.3.2 3 0 .6-.3-.1-.5-1.8-.5-1.6 0-2.2.2-1.2.5zm-61.5 4c.7.3 1.6.2 1.9-.1.4-.3-.2-.6-1.3-.5-1.1 0-1.4.3-.6.6zm-84 6c.7.3 1.6.2 1.9-.1.4-.3-.2-.6-1.3-.5-1.1 0-1.4.3-.6.6zm376 0c.7.3 1.6.2 1.9-.1.4-.3-.2-.6-1.3-.5-1.1 0-1.4.3-.6.6zm-507 2c.7.3 1.6.2 1.9-.1.4-.3-.2-.6-1.3-.5-1.1 0-1.4.3-.6.6zm501.5 0c.9.2 2.3.2 3 0 .6-.3-.1-.5-1.8-.5-1.6 0-2.2.2-1.2.5zm-492.5 4c1.2.2 3 .2 4 0 .9-.3-.1-.5-2.3-.4-2.2 0-3 .2-1.7.4zm110 0c.7.3 1.6.2 1.9-.1.4-.3-.2-.6-1.3-.5-1.1 0-1.4.3-.6.6zm280 0c10 .2 26.4.2 36.5 0 10-.1 1.8-.2-18.3-.2s-28.3.1-18.2.2zm-381.5 2c1.5.2 3.7.2 5 0 1.2-.2 0-.4-2.8-.4-2.7 0-3.8.2-2.2.4zm94.5 0c1.2.2 3 .2 4 0 .9-.3-.1-.5-2.3-.4-2.2 0-3 .2-1.7.4zm-55.5 4c5.3.2 14.1.2 19.5 0 5.3-.1.9-.3-9.8-.3-10.7 0-15.1.2-9.7.3zm190 6c1.5.2 3.7.2 5 0 1.2-.2 0-.4-2.8-.4-2.7 0-3.8.2-2.2.4zm-5.5 2c.7.3 1.6.2 1.9-.1.4-.3-.2-.6-1.3-.5-1.1 0-1.4.3-.6.6zm37 40c.7.3 1.6.2 1.9-.1.4-.3-.2-.6-1.3-.5-1.1 0-1.4.3-.6.6zm-55 2c.7.3 1.6.2 1.9-.1.4-.3-.2-.6-1.3-.5-1.1 0-1.4.3-.6.6zm-8 4c.7.3 1.6.2 1.9-.1.4-.3-.2-.6-1.3-.5-1.1 0-1.4.3-.6.6zm73 0c.7.3 1.6.2 1.9-.1.4-.3-.2-.6-1.3-.5-1.1 0-1.4.3-.6.6zm4 2c.7.3 1.6.2 1.9-.1.4-.3-.2-.6-1.3-.5-1.1 0-1.4.3-.6.6zm-89 4c.7.3 1.6.2 1.9-.1.4-.3-.2-.6-1.3-.5-1.1 0-1.4.3-.6.6zm97 0c.7.3 1.6.2 1.9-.1.4-.3-.2-.6-1.3-.5-1.1 0-1.4.3-.6.6zm-101 2c.7.3 1.6.2 1.9-.1.4-.3-.2-.6-1.3-.5-1.1 0-1.4.3-.6.6zm105.5 0c.9.2 2.3.2 3 0 .6-.3-.1-.5-1.8-.5-1.6 0-2.2.2-1.2.5zm10.5 3.5c.5.5 1.6.8 2.3.6.8-.3.3-.7-1-1.1-1.7-.4-2.1-.3-1.3.5zm-129.5.5c.9.2 2.3.2 3 0 .6-.3-.1-.5-1.8-.5-1.6 0-2.2.2-1.2.5zm-7.5 2c1.2.2 3 .2 4 0 .9-.3-.1-.5-2.3-.4-2.2 0-3 .2-1.7.4zm142.5 0c.9.2 2.3.2 3 0 .6-.3-.1-.5-1.8-.5-1.6 0-2.2.2-1.2.5zm-164 4c1.5.2 3.7.2 5 0 1.2-.2 0-.4-2.8-.4-2.7 0-3.8.2-2.2.4zm178 0c.9.2 2.3.2 3 0 .6-.3-.1-.5-1.8-.5-1.6 0-2.2.2-1.2.5zm-188 2c1.5.2 3.7.2 5 0 1.2-.2 0-.4-2.8-.4-2.7 0-3.8.2-2.2.4zm196.5 0c1.2.2 3 .2 4 0 .9-.3-.1-.5-2.3-.4-2.2 0-3 .2-1.7.4zm-211.5 4c.9.2 2.3.2 3 0 .6-.3-.1-.5-1.8-.5-1.6 0-2.2.2-1.2.5zm229.5 0c1.2.2 3 .2 4 0 .9-.3-.1-.5-2.3-.4-2.2 0-3 .2-1.7.4zm-236 2c.7.3 1.6.2 1.9-.1.4-.3-.2-.6-1.3-.5-1.1 0-1.4.3-.6.6zm245.5 0c.9.2 2.3.2 3 0 .6-.3-.1-.5-1.8-.5-1.6 0-2.2.2-1.2.5zm9.5 4c.7.3 1.6.2 1.9-.1.4-.3-.2-.6-1.3-.5-1.1 0-1.4.3-.6.6z" fill="none"/><path d="M399.8 672.7c.6.2 1.8.2 2.5 0 .6-.3.1-.5-1.3-.5-1.4 0-1.9.2-1.2.5z" fill="#FFF" fill-opacity=".22"/><path d="M422.3 77.7c.9.2 2.5.2 3.5 0 .9-.3.1-.5-1.8-.5-1.9 0-2.7.2-1.7.5zm-66.5 13c.6.2 1.8.2 2.5 0 .6-.3.1-.5-1.3-.5-1.4 0-1.9.2-1.2.5zm58.5 0c.9.2 2.5.2 3.5 0 .9-.3.1-.5-1.8-.5-1.9 0-2.7.2-1.7.5zM346.2 98c0 1.9.2 2.7.5 1.7.2-.9.2-2.5 0-3.5-.3-.9-.5-.1-.5 1.8zm83.1 1.5c0 2.7.2 3.8.4 2.2.2-1.5.2-3.7 0-5-.2-1.2-.4 0-.4 2.8zm-88.2.1c0 1.1.3 1.4.6.6.3-.7.2-1.6-.1-1.9-.3-.4-.6.2-.5 1.3zm93.1 1.9c0 1.6.2 2.2.5 1.2.2-.9.2-2.3 0-3-.3-.6-.5.1-.5 1.8zm5.9 11.1c0 1.1.3 1.4.6.6.3-.7.2-1.6-.1-1.9-.3-.4-.6.2-.5 1.3zm-99.9 3.4c0 1.9.2 2.7.5 1.7.2-.9.2-2.5 0-3.5-.3-.9-.5-.1-.5 1.8zm-5 1.5c0 1.6.2 2.2.5 1.2.2-.9.2-2.3 0-3-.3-.6-.5.1-.5 1.8zm135-.5c0 1.4.2 1.9.5 1.2.2-.6.2-1.8 0-2.5-.3-.6-.5-.1-.5 1.3zm-32.1 1.6c0 1.1.3 1.4.6.6.3-.7.2-1.6-.1-1.9-.3-.4-.6.2-.5 1.3zm-135 2c0 1.1.3 1.4.6.6.3-.7.2-1.6-.1-1.9-.3-.4-.6.2-.5 1.3zm39.1 2.4c0 1.4.2 1.9.5 1.2.2-.6.2-1.8 0-2.5-.3-.6-.5-.1-.5 1.3zm130 0c0 1.4.2 1.9.5 1.2.2-.6.2-1.8 0-2.5-.3-.6-.5-.1-.5 1.3zm-135.1 1.6c0 1.1.3 1.4.6.6.3-.7.2-1.6-.1-1.9-.3-.4-.6.2-.5 1.3zm-36 2c0 1.1.3 1.4.6.6.3-.7.2-1.6-.1-1.9-.3-.4-.6.2-.5 1.3zm17.1.4c0 1.4.2 1.9.5 1.2.2-.6.2-1.8 0-2.5-.3-.6-.5-.1-.5 1.3zm156 2.5c0 1.6.2 2.2.5 1.2.2-.9.2-2.3 0-3-.3-.6-.5.1-.5 1.8zm-174.8 11c0 5.5.1 7.6.3 4.7.2-2.9.2-7.4 0-10-.2-2.6-.3-.2-.3 5.3zm119.9-3c0 3.8.2 5.3.4 3.2.2-2 .2-5.2 0-7-.2-1.7-.4-.1-.4 3.8zm-103-1c0 2.2.2 3 .4 1.7.2-1.2.2-3 0-4-.3-.9-.5.1-.4 2.3zm108 2c0 3.3.2 4.5.4 2.7.2-1.8.2-4.5 0-6s-.4 0-.4 3.3zm35-.5c0 3 .2 4.3.4 2.7.2-1.5.2-3.9 0-5.5-.2-1.5-.4-.2-.4 2.8zm-105 4c0 4.1.2 5.8.4 3.7.2-2 .2-5.4 0-7.5-.2-2-.4-.3-.4 3.8zm122.1 3c0 5.8.1 8.1.3 5.2.2-2.8.2-7.6 0-10.5-.2-2.8-.3-.5-.3 5.3zm-127.1-2c0 3.6.2 5 .4 3.2.2-1.7.2-4.7 0-6.5-.2-1.7-.4-.3-.4 3.3zm91.5.7c1.2.2 3.2.2 4.5 0 1.2-.2.2-.4-2.3-.4s-3.5.2-2.2.4zm-18.6 5.8c0 1.6.2 2.2.5 1.2.2-.9.2-2.3 0-3-.3-.6-.5.1-.5 1.8zm20.6 7.2c1.2.2 3 .2 4 0 .9-.3-.1-.5-2.3-.4-2.2 0-3 .2-1.7.4zm-120.5 5c.9.2 2.5.2 3.5 0 .9-.3.1-.5-1.8-.5-1.9 0-2.7.2-1.7.5zm65.1 18.3c0 6.3.1 8.9.3 5.7.2-3.1.2-8.3 0-11.5-.2-3.1-.3-.5-.3 5.8zm-102.2-6c0 1.9.2 2.7.5 1.7.2-.9.2-2.5 0-3.5-.3-.9-.5-.1-.5 1.8zm97.2 10c0 7.4.1 10.5.3 6.7.2-3.7.2-9.7 0-13.5-.2-3.7-.3-.6-.3 6.8zm10-3c0 5.8.1 8.1.3 5.2.2-2.8.2-7.6 0-10.5-.2-2.8-.3-.5-.3 5.3zm82.9-2c0 4.7.2 6.6.4 4.2.2-2.3.2-6.1 0-8.5-.2-2.3-.4-.4-.4 4.3zm-170.2-4.4c0 1.1.3 1.4.6.6.3-.7.2-1.6-.1-1.9-.3-.4-.6.2-.5 1.3zm-6.9 2.4c0 1.4.2 1.9.5 1.2.2-.6.2-1.8 0-2.5-.3-.6-.5-.1-.5 1.3zm79.2 7.5c0 5.5.1 7.6.3 4.7.2-2.9.2-7.4 0-10-.2-2.6-.3-.2-.3 5.3zm30-1c0 4.9.1 7.1.3 4.8.2-2.3.2-6.4 0-9-.2-2.6-.3-.8-.3 4.2zm62.9-.5c0 4.7.2 6.6.4 4.2.2-2.3.2-6.1 0-8.5-.2-2.3-.4-.4-.4 4.3zm18.1.5c0 4.9.1 7.1.3 4.8.2-2.3.2-6.4 0-9-.2-2.6-.3-.8-.3 4.2zm-70 9.5c0 9.1.2 12.8.3 8.2.2-4.5.2-11.9 0-16.5-.1-4.5-.3-.8-.3 8.3zm-115.2-12c0 1.4.2 1.9.5 1.2.2-.6.2-1.8 0-2.5-.3-.6-.5-.1-.5 1.3zm65 1c0 1.9.2 2.7.5 1.7.2-.9.2-2.5 0-3.5-.3-.9-.5-.1-.5 1.8zm55.2 12c0 8.5.2 12 .3 7.7.2-4.2.2-11.2 0-15.5-.1-4.2-.3-.7-.3 7.8zm-127.2-10.5c0 1.6.2 2.2.5 1.2.2-.9.2-2.3 0-3-.3-.6-.5.1-.5 1.8zm-13 1.5c0 1.4.2 1.9.5 1.2.2-.6.2-1.8 0-2.5-.3-.6-.5-.1-.5 1.3zm69.9-.4c0 1.1.3 1.4.6.6.3-.7.2-1.6-.1-1.9-.3-.4-.6.2-.5 1.3zm-2.7 10.9c0 4.9.1 7.1.3 4.8.2-2.3.2-6.4 0-9-.2-2.6-.3-.8-.3 4.2zm-52.3-4.9c0 1.1.3 1.4.6.6.3-.7.2-1.6-.1-1.9-.3-.4-.6.2-.5 1.3zm57.2 4.4c0 3.6.2 5 .4 3.2.2-1.7.2-4.7 0-6.5-.2-1.7-.4-.3-.4 3.3zm-70.1-1c0 1.9.2 2.7.5 1.7.2-.9.2-2.5 0-3.5-.3-.9-.5-.1-.5 1.8zm115.1-2.3c.9.2 2.5.2 3.5 0 .9-.3.1-.5-1.8-.5-1.9 0-2.7.2-1.7.5zM376.4 206c0 5.2.1 7.4.3 4.7.2-2.6.2-6.8 0-9.5-.2-2.6-.3-.4-.3 4.8zm17 0c0 5.2.1 7.4.3 4.7.2-2.6.2-6.8 0-9.5-.2-2.6-.3-.4-.3 4.8zm92.7-7.4c0 1.1.3 1.4.6.6.3-.7.2-1.6-.1-1.9-.3-.4-.6.2-.5 1.3zm-132.9 8.9c0 1.6.2 2.2.5 1.2.2-.9.2-2.3 0-3-.3-.6-.5.1-.5 1.8zm-33.8 11c0 6.6.1 9.2.3 5.7.2-3.4.2-8.8 0-12-.2-3.1-.3-.3-.3 6.3zm78.8-6.5c0 1.9.2 2.7.5 1.7.2-.9.2-2.5 0-3.5-.3-.9-.5-.1-.5 1.8zm58.1 2c0 3 .2 4.3.4 2.7.2-1.5.2-3.9 0-5.5-.2-1.5-.4-.2-.4 2.8zm-145.9 6c0 5.2.1 7.4.3 4.7.2-2.6.2-6.8 0-9.5-.2-2.6-.3-.4-.3 4.8zm58.9-5.5c0 2.2.2 3 .4 1.7.2-1.2.2-3 0-4-.3-.9-.5.1-.4 2.3zm55.9-1c0 1.6.2 2.2.5 1.2.2-.9.2-2.3 0-3-.3-.6-.5.1-.5 1.8zm36.1 1c0 2.2.2 3 .4 1.7.2-1.2.2-3 0-4-.3-.9-.5.1-.4 2.3zm-162 9c0 3.8.2 5.3.4 3.2.2-2 .2-5.2 0-7-.2-1.7-.4-.1-.4 3.8zm92-1.5c0 3 .2 4.3.4 2.7.2-1.5.2-3.9 0-5.5-.2-1.5-.4-.2-.4 2.8zm-10.9 6c0 5.2.1 7.4.3 4.7.2-2.6.2-6.8 0-9.5-.2-2.6-.3-.4-.3 4.8zm83 2c0 5.2.1 7.4.3 4.7.2-2.6.2-6.8 0-9.5-.2-2.6-.3-.4-.3 4.8zm-5.2-5c0 1.4.2 1.9.5 1.2.2-.6.2-1.8 0-2.5-.3-.6-.5-.1-.5 1.3zm-82.9 5.5c0 2.2.2 3 .4 1.7.2-1.2.2-3 0-4-.3-.9-.5.1-.4 2.3zm38.9-.5c0 1.9.2 2.7.5 1.7.2-.9.2-2.5 0-3.5-.3-.9-.5-.1-.5 1.8zm-57 1.5c0 1.6.2 2.2.5 1.2.2-.9.2-2.3 0-3-.3-.6-.5.1-.5 1.8zm66.1 4.5c0 4.1.2 5.8.4 3.7.2-2 .2-5.4 0-7.5-.2-2-.4-.3-.4 3.8zm6.9-2c0 1.9.2 2.7.5 1.7.2-.9.2-2.5 0-3.5-.3-.9-.5-.1-.5 1.8zm46.1 4c0 4.1.2 5.8.4 3.7.2-2 .2-5.4 0-7.5-.2-2-.4-.3-.4 3.8zm-179.1-3c0 1.4.2 1.9.5 1.2.2-.6.2-1.8 0-2.5-.3-.6-.5-.1-.5 1.3zm11.1 1.5c0 2.2.2 3 .4 1.7.2-1.2.2-3 0-4-.3-.9-.5.1-.4 2.3zm41.9.5c0 1.4.2 1.9.5 1.2.2-.6.2-1.8 0-2.5-.3-.6-.5-.1-.5 1.3zm46.2 13c0 7.4.1 10.5.3 6.7.2-3.7.2-9.7 0-13.5-.2-3.7-.3-.6-.3 6.8zm-23.1-4c0 4.1.2 5.8.4 3.7.2-2 .2-5.4 0-7.5-.2-2-.4-.3-.4 3.8zm18.1 6c0 7.4.1 10.5.3 6.7.2-3.7.2-9.7 0-13.5-.2-3.7-.3-.6-.3 6.8zm-94.2-9c0 1.4.2 1.9.5 1.2.2-.6.2-1.8 0-2.5-.3-.6-.5-.1-.5 1.3zm51 .5c0 1.6.2 2.2.5 1.2.2-.9.2-2.3 0-3-.3-.6-.5.1-.5 1.8zm30.1 5.5c0 4.7.2 6.6.4 4.2.2-2.3.2-6.1 0-8.5-.2-2.3-.4-.4-.4 4.3zm46.9 0c0 1.4.2 1.9.5 1.2.2-.6.2-1.8 0-2.5-.3-.6-.5-.1-.5 1.3zm-71.4 2.7c.6.2 1.8.2 2.5 0 .6-.3.1-.5-1.3-.5-1.4 0-1.9.2-1.2.5zm-6.5 11.3c0 3.6.2 5 .4 3.2.2-1.7.2-4.7 0-6.5-.2-1.7-.4-.3-.4 3.3zm24.2 29c0 19.5.1 27.5.2 17.8.2-9.8.2-25.8 0-35.5-.1-9.8-.2-1.8-.2 17.7zm5 19c0 28.9.1 40.7.2 26.2.2-14.4.2-38 0-52.5-.1-14.4-.2-2.6-.2 26.3zm47.8-47c0 3 .2 4.3.4 2.7.2-1.5.2-3.9 0-5.5-.2-1.5-.4-.2-.4 2.8zm-21 1c0 2.5.2 3.5.4 2.2.2-1.2.2-3.2 0-4.5-.2-1.2-.4-.2-.4 2.3zm-70.8 0c-.3.6.1.7.9.4 1.8-.7 2.1-1.4.7-1.4-.6 0-1.3.4-1.6 1zm35.9 11c0 6.3.1 8.9.3 5.7.2-3.1.2-8.3 0-11.5-.2-3.1-.3-.5-.3 5.8zm66.8-8.5c0 1.6.2 2.2.5 1.2.2-.9.2-2.3 0-3-.3-.6-.5.1-.5 1.8zm19-.5c0 1.4.2 1.9.5 1.2.2-.6.2-1.8 0-2.5-.3-.6-.5-.1-.5 1.3zm-139.1 1.6c0 1.1.3 1.4.6.6.3-.7.2-1.6-.1-1.9-.3-.4-.6.2-.5 1.3zm83.3 8.4c0 5.8.1 8.1.3 5.2.2-2.8.2-7.6 0-10.5-.2-2.8-.3-.5-.3 5.3zm44.9-5.5c0 2.7.2 3.8.4 2.2.2-1.5.2-3.7 0-5-.2-1.2-.4 0-.4 2.8zm-49.9 9.5c0 6.9.1 9.7.3 6.2.2-3.4.2-9 0-12.5-.2-3.4-.3-.6-.3 6.3zm-67.2-8c0 1.4.2 1.9.5 1.2.2-.6.2-1.8 0-2.5-.3-.6-.5-.1-.5 1.3zm-9.1 1.6c0 1.1.3 1.4.6.6.3-.7.2-1.6-.1-1.9-.3-.4-.6.2-.5 1.3zm116 0c0 1.1.3 1.4.6.6.3-.7.2-1.6-.1-1.9-.3-.4-.6.2-.5 1.3zm5.1.9c0 1.6.2 2.2.5 1.2.2-.9.2-2.3 0-3-.3-.6-.5.1-.5 1.8zm14 0c0 1.6.2 2.2.5 1.2.2-.9.2-2.3 0-3-.3-.6-.5.1-.5 1.8zm-124 3.5c0 1.4.2 1.9.5 1.2.2-.6.2-1.8 0-2.5-.3-.6-.5-.1-.5 1.3zm112.9 1.6c0 1.1.3 1.4.6.6.3-.7.2-1.6-.1-1.9-.3-.4-.6.2-.5 1.3zm-101 2c0 1.1.3 1.4.6.6.3-.7.2-1.6-.1-1.9-.3-.4-.6.2-.5 1.3zm63.1 2.9c0 1.6.2 2.2.5 1.2.2-.9.2-2.3 0-3-.3-.6-.5.1-.5 1.8zm47-.5c0 1.4.2 1.9.5 1.2.2-.6.2-1.8 0-2.5-.3-.6-.5-.1-.5 1.3zm-129.1 1.6c0 1.1.3 1.4.6.6.3-.7.2-1.6-.1-1.9-.3-.4-.6.2-.5 1.3zm11.1 4.4c0 1.4.2 1.9.5 1.2.2-.6.2-1.8 0-2.5-.3-.6-.5-.1-.5 1.3zm116 0c0 1.4.2 1.9.5 1.2.2-.6.2-1.8 0-2.5-.3-.6-.5-.1-.5 1.3zm-125 2c0 1.4.2 1.9.5 1.2.2-.6.2-1.8 0-2.5-.3-.6-.5-.1-.5 1.3zm11 4c0 1.4.2 1.9.5 1.2.2-.6.2-1.8 0-2.5-.3-.6-.5-.1-.5 1.3zm66.1 3c0 3 .2 4.3.4 2.7.2-1.5.2-3.9 0-5.5-.2-1.5-.4-.2-.4 2.8zm34.8-1.4c0 1.1.3 1.4.6.6.3-.7.2-1.6-.1-1.9-.3-.4-.6.2-.5 1.3zm11 0c0 1.1.3 1.4.6.6.3-.7.2-1.6-.1-1.9-.3-.4-.6.2-.5 1.3zm-121 2c0 1.1.3 1.4.6.6.3-.7.2-1.6-.1-1.9-.3-.4-.6.2-.5 1.3zm11.1 2.4c0 1.4.2 1.9.5 1.2.2-.6.2-1.8 0-2.5-.3-.6-.5-.1-.5 1.3zm96.9 1.6c0 1.1.3 1.4.6.6.3-.7.2-1.6-.1-1.9-.3-.4-.6.2-.5 1.3zm11 0c0 1.1.3 1.4.6.6.3-.7.2-1.6-.1-1.9-.3-.4-.6.2-.5 1.3zM327.2 308c0 1.9.2 2.7.5 1.7.2-.9.2-2.5 0-3.5-.3-.9-.5-.1-.5 1.8zm66.2 15c0 10.2.2 14.3.3 9.2.2-5 .2-13.4 0-18.5-.1-5-.3-.9-.3 9.3zm23.8-15c0 1.9.2 2.7.5 1.7.2-.9.2-2.5 0-3.5-.3-.9-.5-.1-.5 1.8zm5 1.5c0 1.6.2 2.2.5 1.2.2-.9.2-2.3 0-3-.3-.6-.5.1-.5 1.8zm-71 2c0 1.6.2 2.2.5 1.2.2-.9.2-2.3 0-3-.3-.6-.5.1-.5 1.8zm4.9-.9c0 1.1.3 1.4.6.6.3-.7.2-1.6-.1-1.9-.3-.4-.6.2-.5 1.3zm42.3 16.4c0 10.2.2 14.3.3 9.2.2-5 .2-13.4 0-18.5-.1-5-.3-.9-.3 9.3zm32.7-16.4c0 1.1.3 1.4.6.6.3-.7.2-1.6-.1-1.9-.3-.4-.6.2-.5 1.3zm11 0c0 1.1.3 1.4.6.6.3-.7.2-1.6-.1-1.9-.3-.4-.6.2-.5 1.3zm-112.9 4.9c0 1.6.2 2.2.5 1.2.2-.9.2-2.3 0-3-.3-.6-.5.1-.5 1.8zm29.1 4.5c0 3 .2 4.3.4 2.7.2-1.5.2-3.9 0-5.5-.2-1.5-.4-.2-.4 2.8zm57-1c0 2.5.2 3.5.4 2.2.2-1.2.2-3.2 0-4.5-.2-1.2-.4-.2-.4 2.3zm5 0c0 2.5.2 3.5.4 2.2.2-1.2.2-3.2 0-4.5-.2-1.2-.4-.2-.4 2.3zm19.8-2.4c0 1.1.3 1.4.6.6.3-.7.2-1.6-.1-1.9-.3-.4-.6.2-.5 1.3zm-86.8 6.4c0 3.6.2 5 .4 3.2.2-1.7.2-4.7 0-6.5-.2-1.7-.4-.3-.4 3.3zm75.8-4.4c0 1.1.3 1.4.6.6.3-.7.2-1.6-.1-1.9-.3-.4-.6.2-.5 1.3zm-97.8 6.4c0 2.5.2 3.5.4 2.2.2-1.2.2-3.2 0-4.5-.2-1.2-.4-.2-.4 2.3zm-33.5-1.3c.6.2 1.8.2 2.5 0 .6-.3.1-.5-1.3-.5-1.4 0-1.9.2-1.2.5zm129.4 1.3c0 1.4.2 1.9.5 1.2.2-.6.2-1.8 0-2.5-.3-.6-.5-.1-.5 1.3zm48.6-1.3c.6.2 1.8.2 2.5 0 .6-.3.1-.5-1.3-.5-1.4 0-1.9.2-1.2.5zm-62.6 3.8c0 1.6.2 2.2.5 1.2.2-.9.2-2.3 0-3-.3-.6-.5.1-.5 1.8zm5 2c0 1.6.2 2.2.5 1.2.2-.9.2-2.3 0-3-.3-.6-.5.1-.5 1.8zm18 0c0 1.6.2 2.2.5 1.2.2-.9.2-2.3 0-3-.3-.6-.5.1-.5 1.8zm-76 2.5c0 1.9.2 2.7.5 1.7.2-.9.2-2.5 0-3.5-.3-.9-.5-.1-.5 1.8zm101.1 3.5c0 3.8.2 5.3.4 3.2.2-2 .2-5.2 0-7-.2-1.7-.4-.1-.4 3.8zm-106.1-2c0 1.6.2 2.2.5 1.2.2-.9.2-2.3 0-3-.3-.6-.5.1-.5 1.8zm56 2.5c0 1.9.2 2.7.5 1.7.2-.9.2-2.5 0-3.5-.3-.9-.5-.1-.5 1.8zm-210.4-.3c1.2.2 3.2.2 4.5 0 1.2-.2.2-.4-2.3-.4s-3.5.2-2.2.4zm76 0c1.2.2 3.2.2 4.5 0 1.2-.2.2-.4-2.3-.4s-3.5.2-2.2.4zm139.4 2.3c0 1.9.2 2.7.5 1.7.2-.9.2-2.5 0-3.5-.3-.9-.5-.1-.5 1.8zm6.9-1.4c0 1.1.3 1.4.6.6.3-.7.2-1.6-.1-1.9-.3-.4-.6.2-.5 1.3zm11 0c0 1.1.3 1.4.6.6.3-.7.2-1.6-.1-1.9-.3-.4-.6.2-.5 1.3zm124.2-.9c3.1.2 8.3.2 11.5 0 3.1-.2.5-.3-5.8-.3s-8.9.1-5.7.3zm-246.1 3.8c0 1.6.2 2.2.5 1.2.2-.9.2-2.3 0-3-.3-.6-.5.1-.5 1.8zm23-.5c0 1.4.2 1.9.5 1.2.2-.6.2-1.8 0-2.5-.3-.6-.5-.1-.5 1.3zm27 1c0 1.9.2 2.7.5 1.7.2-.9.2-2.5 0-3.5-.3-.9-.5-.1-.5 1.8zm9.2 11.5c0 8.2.2 11.5.3 7.2.2-4.3.2-11 0-15-.1-4-.3-.5-.3 7.8zm-19.3-10.9c0 1.1.3 1.4.6.6.3-.7.2-1.6-.1-1.9-.3-.4-.6.2-.5 1.3zm5.2 2.4c0 2.5.2 3.5.4 2.2.2-1.2.2-3.2 0-4.5-.2-1.2-.4-.2-.4 2.3zm74.8-.4c0 1.1.3 1.4.6.6.3-.7.2-1.6-.1-1.9-.3-.4-.6.2-.5 1.3zm152 0c0 1.1.3 1.4.6.6.3-.7.2-1.6-.1-1.9-.3-.4-.6.2-.5 1.3zM337.2 345c0 1.4.2 1.9.5 1.2.2-.6.2-1.8 0-2.5-.3-.6-.5-.1-.5 1.3zm72.1 1.5c0 2.2.2 3 .4 1.7.2-1.2.2-3 0-4-.3-.9-.5.1-.4 2.3zm4.9-1c0 1.6.2 2.2.5 1.2.2-.9.2-2.3 0-3-.3-.6-.5.1-.5 1.8zm-49.9 5.5c0 2.5.2 3.5.4 2.2.2-1.2.2-3.2 0-4.5-.2-1.2-.4-.2-.4 2.3zm27.2 32c0 20.1.1 28.3.2 18.2.2-10 .2-26.4 0-36.5-.1-10-.2-1.8-.2 18.3zm38.6-34.4c0 1.1.3 1.4.6.6.3-.7.2-1.6-.1-1.9-.3-.4-.6.2-.5 1.3zm-91 4c0 1.1.3 1.4.6.6.3-.7.2-1.6-.1-1.9-.3-.4-.6.2-.5 1.3zm20 0c0 1.1.3 1.4.6.6.3-.7.2-1.6-.1-1.9-.3-.4-.6.2-.5 1.3zm225.4 5.9c0 4 .3 7.1.8 6.8.9-.6.9-11.4-.1-12.9-.4-.7-.7 2.1-.7 6.1zm-228.4-3.9c0 1.1.3 1.4.6.6.3-.7.2-1.6-.1-1.9-.3-.4-.6.2-.5 1.3zm40.3 32.4c0 19 .2 26.7.3 17.2.2-9.4.2-25 0-34.5-.1-9.4-.3-1.7-.3 17.3zm213.9-29.5c0 2.7.2 3.8.4 2.2.2-1.5.2-3.7 0-5-.2-1.2-.4 0-.4 2.8zm-420.1 0c0 1.6.2 2.2.5 1.2.2-.9.2-2.3 0-3-.3-.6-.5.1-.5 1.8zm3.1 2.5c0 3 .2 4.3.4 2.7.2-1.5.2-3.9 0-5.5-.2-1.5-.4-.2-.4 2.8zm-32 1c0 2.5.2 3.5.4 2.2.2-1.2.2-3.2 0-4.5-.2-1.2-.4-.2-.4 2.3zm179.9-2c0 1.4.2 1.9.5 1.2.2-.6.2-1.8 0-2.5-.3-.6-.5-.1-.5 1.3zm240.9-.4c0 1.1.3 1.4.6.6.3-.7.2-1.6-.1-1.9-.3-.4-.6.2-.5 1.3zm-92.8 2.1c1.5.2 3.9.2 5.5 0 1.5-.2.2-.4-2.8-.4s-4.3.2-2.7.4zM358.2 363c0 1.4.2 1.9.5 1.2.2-.6.2-1.8 0-2.5-.3-.6-.5-.1-.5 1.3zm68 0c0 1.4.2 1.9.5 1.2.2-.6.2-1.8 0-2.5-.3-.6-.5-.1-.5 1.3zm-83.1 3.6c0 1.1.3 1.4.6.6.3-.7.2-1.6-.1-1.9-.3-.4-.6.2-.5 1.3zm-99.8.1c2.6.2 6.8.2 9.5 0 2.6-.2.4-.3-4.8-.3s-7.4.1-4.7.3zm275.5 0c1.2.2 3.2.2 4.5 0 1.2-.2.2-.4-2.3-.4s-3.5.2-2.2.4zM191.3 372c0 3 .2 4.3.4 2.7.2-1.5.2-3.9 0-5.5-.2-1.5-.4-.2-.4 2.8zm232.9-3c0 1.4.2 1.9.5 1.2.2-.6.2-1.8 0-2.5-.3-.6-.5-.1-.5 1.3zm-64 1.5c0 1.6.2 2.2.5 1.2.2-.9.2-2.3 0-3-.3-.6-.5.1-.5 1.8zm18.2 13c0 8.2.2 11.5.3 7.2.2-4.3.2-11 0-15-.1-4-.3-.5-.3 7.8zm208-4c0 6 .1 8.4.3 5.2.2-3.2.2-8.1 0-11-.2-2.9-.3-.3-.3 5.8zM345.2 373c0 1.4.2 1.9.5 1.2.2-.6.2-1.8 0-2.5-.3-.6-.5-.1-.5 1.3zm28.2 11.5c0 7.7.2 10.7.3 6.7.2-4 .2-10.3 0-14-.2-3.7-.3-.4-.3 7.3zm174.9-11.8c.9.2 2.5.2 3.5 0 .9-.3.1-.5-1.8-.5-1.9 0-2.7.2-1.7.5zm51.5 0c.6.2 1.8.2 2.5 0 .6-.3.1-.5-1.3-.5-1.4 0-1.9.2-1.2.5zM422.2 375c0 1.4.2 1.9.5 1.2.2-.6.2-1.8 0-2.5-.3-.6-.5-.1-.5 1.3zm-15 2.5c0 1.6.2 2.2.5 1.2.2-.9.2-2.3 0-3-.3-.6-.5.1-.5 1.8zm-193 2.5c0 1.9.2 2.7.5 1.7.2-.9.2-2.5 0-3.5-.3-.9-.5-.1-.5 1.8zm148-1c0 1.4.2 1.9.5 1.2.2-.6.2-1.8 0-2.5-.3-.6-.5-.1-.5 1.3zm197.1 8c0 4.7.2 6.6.4 4.2.2-2.3.2-6.1 0-8.5-.2-2.3-.4-.4-.4 4.3zm-370.1-4c0 1.4.2 1.9.5 1.2.2-.6.2-1.8 0-2.5-.3-.6-.5-.1-.5 1.3zm230.9-.4c0 1.1.3 1.4.6.6.3-.7.2-1.6-.1-1.9-.3-.4-.6.2-.5 1.3zm-14.8 4.9c0 2.7.2 3.8.4 2.2.2-1.5.2-3.7 0-5-.2-1.2-.4 0-.4 2.8zm-193.1 0c0 1.6.2 2.2.5 1.2.2-.9.2-2.3 0-3-.3-.6-.5.1-.5 1.8zm152-.5c0 1.4.2 1.9.5 1.2.2-.6.2-1.8 0-2.5-.3-.6-.5-.1-.5 1.3zm-172.9 5.5c0 2.2.2 3 .4 1.7.2-1.2.2-3 0-4-.3-.9-.5.1-.4 2.3zm227 0c0 2.2.2 3 .4 1.7.2-1.2.2-3 0-4-.3-.9-.5.1-.4 2.3zm7 0c0 2.2.2 3 .4 1.7.2-1.2.2-3 0-4-.3-.9-.5.1-.4 2.3zm-59.1 1.5c0 1.9.2 2.7.5 1.7.2-.9.2-2.5 0-3.5-.3-.9-.5-.1-.5 1.8zm-156.1.6c0 1.1.3 1.4.6.6.3-.7.2-1.6-.1-1.9-.3-.4-.6.2-.5 1.3zm225.7 2.1c.6.2 1.8.2 2.5 0 .6-.3.1-.5-1.3-.5-1.4 0-1.9.2-1.2.5zm-32.5 4.3c0 2.5.2 3.5.4 2.2.2-1.2.2-3.2 0-4.5-.2-1.2-.4-.2-.4 2.3zm-80.5.7c1.2.2 3.2.2 4.5 0 1.2-.2.2-.4-2.3-.4s-3.5.2-2.2.4zm57.5 7.3c0 4.7.2 6.6.4 4.2.2-2.3.2-6.1 0-8.5-.2-2.3-.4-.4-.4 4.3zm35.9-5c0 1.9.2 2.7.5 1.7.2-.9.2-2.5 0-3.5-.3-.9-.5-.1-.5 1.8zm-213.8-.6c-.3.8-.4 2.7-.1 4.3.3 2.4.4 2.3.6-.9.1-2.9.5-3.7 2.4-4.1l2.2-.4-2.3-.2c-1.2 0-2.5.5-2.8 1.3zm366.3-.8c1.3.3 2.3 1.5 2.6 3 .4 2.1.4 2.1.3-.3-.1-2.2-.6-2.8-2.6-3-2.1-.1-2.1 0-.3.3zM375.3 411c0 4.7.2 6.6.4 4.2.2-2.3.2-6.1 0-8.5-.2-2.3-.4-.4-.4 4.3zm200.9-5.5c0 1.6.2 2.2.5 1.2.2-.9.2-2.3 0-3-.3-.6-.5.1-.5 1.8zm-379.1 1.1c0 1.1.3 1.4.6.6.3-.7.2-1.6-.1-1.9-.3-.4-.6.2-.5 1.3zm160.1 2.4c0 1.4.2 1.9.5 1.2.2-.6.2-1.8 0-2.5-.3-.6-.5-.1-.5 1.3zm44.2 14c0 8 .2 11.2.3 7.2.2-3.9.2-10.5 0-14.5-.1-3.9-.3-.7-.3 7.3zm12.9-8.5c0 3.3.2 4.5.4 2.7.2-1.8.2-4.5 0-6s-.4 0-.4 3.3zM202.2 417c0 1.4.2 1.9.5 1.2.2-.6.2-1.8 0-2.5-.3-.6-.5-.1-.5 1.3zm155.1 3c0 3 .2 4.3.4 2.7.2-1.5.2-3.9 0-5.5-.2-1.5-.4-.2-.4 2.8zm13.1 7.5c0 6 .1 8.4.3 5.2.2-3.2.2-8.1 0-11-.2-2.9-.3-.3-.3 5.8zm-173.8-6.7c-.2.4.4.8 1.4.8 1 0 1.6-.4 1.4-.8-.3-.4-.9-.8-1.4-.8-.5 0-1.1.4-1.4.8zm108.7-.1c3.7.2 9.7.2 13.5 0 3.7-.2.6-.3-6.8-.3-7.4 0-10.5.1-6.7.3zm143 0c2 .2 5.4.2 7.5 0 2-.2.3-.4-3.8-.4s-5.8.2-3.7.4zm-66 5.3c0 3 .2 4.3.4 2.7.2-1.5.2-3.9 0-5.5-.2-1.5-.4-.2-.4 2.8zm-5 1.5c0 2.7.2 3.8.4 2.2.2-1.5.2-3.7 0-5-.2-1.2-.4 0-.4 2.8zm12.1 15c0 11 .2 15.6.3 10.3.2-5.3.2-14.3 0-20-.1-5.7-.3-1.3-.3 9.7zm22.9-13.5c0 3 .2 4.3.4 2.7.2-1.5.2-3.9 0-5.5-.2-1.5-.4-.2-.4 2.8zm-17.9 15.5c0 11 .2 15.6.3 10.3.2-5.3.2-14.3 0-20-.1-5.7-.3-1.3-.3 9.7zm29.4-11.8c.6.2 1.8.2 2.5 0 .6-.3.1-.5-1.3-.5-1.4 0-1.9.2-1.2.5zm-44.5 8.3c0 3.6.2 5 .4 3.2.2-1.7.2-4.7 0-6.5-.2-1.7-.4-.3-.4 3.3zm5-.5c0 3.3.2 4.5.4 2.7.2-1.8.2-4.5 0-6s-.4 0-.4 3.3zm26 1c0 2.7.2 3.8.4 2.2.2-1.5.2-3.7 0-5-.2-1.2-.4 0-.4 2.8zm-11 7.5c0 4.7.2 6.6.4 4.2.2-2.3.2-6.1 0-8.5-.2-2.3-.4-.4-.4 4.3zm-41.1-2c0 1.4.2 1.9.5 1.2.2-.6.2-1.8 0-2.5-.3-.6-.5-.1-.5 1.3zm-79.1 1.6c0 1.1.3 1.4.6.6.3-.7.2-1.6-.1-1.9-.3-.4-.6.2-.5 1.3zm134 0c0 1.1.3 1.4.6.6.3-.7.2-1.6-.1-1.9-.3-.4-.6.2-.5 1.3zm-26.8 6.4c0 3.6.2 5 .4 3.2.2-1.7.2-4.7 0-6.5-.2-1.7-.4-.3-.4 3.3zm22 1c0 4.1.2 5.8.4 3.7.2-2 .2-5.4 0-7.5-.2-2-.4-.3-.4 3.8zm-116.5-5.3c.6.2 1.8.2 2.5 0 .6-.3.1-.5-1.3-.5-1.4 0-1.9.2-1.2.5zm44 0c1.2.2 3 .2 4 0 .9-.3-.1-.5-2.3-.4-2.2 0-3 .2-1.7.4zm136 0c.6.2 1.8.2 2.5 0 .6-.3.1-.5-1.3-.5-1.4 0-1.9.2-1.2.5zm-90.5 5.8c0 3.3.2 4.5.4 2.7.2-1.8.2-4.5 0-6s-.4 0-.4 3.3zm-20.6 2.9c-.7 6.4-.5 8.7.8 7.4.3-.3.5-3.7.3-7.4l-.3-6.9-.8 6.9zm69.1-3.7c1.7.2 4.7.2 6.5 0 1.7-.2.3-.4-3.3-.4-3.6 0-5 .2-3.2.4zm-32.6 8.3c0 1.9.2 2.7.5 1.7.2-.9.2-2.5 0-3.5-.3-.9-.5-.1-.5 1.8zm17.9-1.4c0 1.1.3 1.4.6.6.3-.7.2-1.6-.1-1.9-.3-.4-.6.2-.5 1.3zm-32 6c0 1.1.3 1.4.6.6.3-.7.2-1.6-.1-1.9-.3-.4-.6.2-.5 1.3zm23.1.4c0 1.4.2 1.9.5 1.2.2-.6.2-1.8 0-2.5-.3-.6-.5-.1-.5 1.3zm20.1-.3c2 .2 5.4.2 7.5 0 2-.2.3-.4-3.8-.4s-5.8.2-3.7.4zm-63.1 2.3c0 1.4.2 1.9.5 1.2.2-.6.2-1.8 0-2.5-.3-.6-.5-.1-.5 1.3zm29 0c0 1.4.2 1.9.5 1.2.2-.6.2-1.8 0-2.5-.3-.6-.5-.1-.5 1.3zm3 0c0 1.4.2 1.9.5 1.2.2-.6.2-1.8 0-2.5-.3-.6-.5-.1-.5 1.3zm69.1 3.7c.9.2 2.5.2 3.5 0 .9-.3.1-.5-1.8-.5-1.9 0-2.7.2-1.7.5zm-71.1 2.3c0 1.4.2 1.9.5 1.2.2-.6.2-1.8 0-2.5-.3-.6-.5-.1-.5 1.3zm11 0c0 1.4.2 1.9.5 1.2.2-.6.2-1.8 0-2.5-.3-.6-.5-.1-.5 1.3zm-100.9 2.7c1.5.2 3.9.2 5.5 0 1.5-.2.2-.4-2.8-.4s-4.3.2-2.7.4zm107.9 2.3c0 1.9.2 2.7.5 1.7.2-.9.2-2.5 0-3.5-.3-.9-.5-.1-.5 1.8zm46.1-2.3c2.6.2 6.8.2 9.5 0 2.6-.2.4-.3-4.8-.3s-7.4.1-4.7.3zm-175.5 1c.6.2 1.8.2 2.5 0 .6-.3.1-.5-1.3-.5-1.4 0-1.9.2-1.2.5zm144.5 12c.9.2 2.5.2 3.5 0 .9-.3.1-.5-1.8-.5-1.9 0-2.7.2-1.7.5zm-105.5 6c1.2.2 3.2.2 4.5 0 1.2-.2.2-.4-2.3-.4s-3.5.2-2.2.4zm135 0c.6.2 1.8.2 2.5 0 .6-.3.1-.5-1.3-.5-1.4 0-1.9.2-1.2.5zm-85.6 7.3c0 1.9.2 2.7.5 1.7.2-.9.2-2.5 0-3.5-.3-.9-.5-.1-.5 1.8zm52.6-2.3c1.2.2 3.2.2 4.5 0 1.2-.2.2-.4-2.3-.4s-3.5.2-2.2.4zm79.4 3.3c0 1.4.2 1.9.5 1.2.2-.6.2-1.8 0-2.5-.3-.6-.5-.1-.5 1.3zm-176.4 2.7c.6.2 1.8.2 2.5 0 .6-.3.1-.5-1.3-.5-1.4 0-1.9.2-1.2.5zm122 0c.6.2 1.8.2 2.5 0 .6-.3.1-.5-1.3-.5-1.4 0-1.9.2-1.2.5zm56.4 3.8c0 1.6.2 2.2.5 1.2.2-.9.2-2.3 0-3-.3-.6-.5.1-.5 1.8zm-233.1 1.1c0 1.1.3 1.4.6.6.3-.7.2-1.6-.1-1.9-.3-.4-.6.2-.5 1.3zm-107.8 13.1c1.5.2 3.9.2 5.5 0 1.5-.2.2-.4-2.8-.4s-4.3.2-2.7.4zm66 0c1.5.2 3.9.2 5.5 0 1.5-.2.2-.4-2.8-.4s-4.3.2-2.7.4zm128.5 0c.6.2 1.8.2 2.5 0 .6-.3.1-.5-1.3-.5-1.4 0-1.9.2-1.2.5zm46 0c1.7.2 4.7.2 6.5 0 1.7-.2.3-.4-3.3-.4-3.6 0-5 .2-3.2.4zm135.5 0c1.5.2 3.9.2 5.5 0 1.5-.2.2-.4-2.8-.4s-4.3.2-2.7.4zm53 0c2 .2 5.4.2 7.5 0 2-.2.3-.4-3.8-.4s-5.8.2-3.7.4zM399.2 531c0 1.4.2 1.9.5 1.2.2-.6.2-1.8 0-2.5-.3-.6-.5-.1-.5 1.3zm-265.4 2.7c.6.2 1.8.2 2.5 0 .6-.3.1-.5-1.3-.5-1.4 0-1.9.2-1.2.5zm136.4 2.3c0 1.9.2 2.7.5 1.7.2-.9.2-2.5 0-3.5-.3-.9-.5-.1-.5 1.8zm245.6-2.3c.6.2 1.8.2 2.5 0 .6-.3.1-.5-1.3-.5-1.4 0-1.9.2-1.2.5zm112.5 0c.9.2 2.5.2 3.5 0 .9-.3.1-.5-1.8-.5-1.9 0-2.7.2-1.7.5zm-129.1 3.8c0 1.6.2 2.2.5 1.2.2-.9.2-2.3 0-3-.3-.6-.5.1-.5 1.8zm-213.9 5c0 2.2.2 3 .4 1.7.2-1.2.2-3 0-4-.3-.9-.5.1-.4 2.3zm201 0c0 2.2.2 3 .4 1.7.2-1.2.2-3 0-4-.3-.9-.5.1-.4 2.3zm-315-1.8c2.6.2 6.8.2 9.5 0 2.6-.2.4-.3-4.8-.3s-7.4.1-4.7.3zm34 0c2.6.2 6.8.2 9.5 0 2.6-.2.4-.3-4.8-.3s-7.4.1-4.7.3zm166 5c1.5.2 3.9.2 5.5 0 1.5-.2.2-.4-2.8-.4s-4.3.2-2.7.4zm-227.5 1c.6.2 1.8.2 2.5 0 .6-.3.1-.5-1.3-.5-1.4 0-1.9.2-1.2.5zm104 0c.6.2 1.8.2 2.5 0 .6-.3.1-.5-1.3-.5-1.4 0-1.9.2-1.2.5zm274 0c1.7.2 4.7.2 6.5 0 1.7-.2.3-.4-3.3-.4-3.6 0-5 .2-3.2.4zm104 0c.6.2 1.8.2 2.5 0 .6-.3.1-.5-1.3-.5-1.4 0-1.9.2-1.2.5zM380.2 549c0 1.4.2 1.9.5 1.2.2-.6.2-1.8 0-2.5-.3-.6-.5-.1-.5 1.3zm113 0c0 1.4.2 1.9.5 1.2.2-.6.2-1.8 0-2.5-.3-.6-.5-.1-.5 1.3zm-379.9 5.5c0 3.3.2 4.5.4 2.7.2-1.8.2-4.5 0-6s-.4 0-.4 3.3zm302.5-2.8c.6.2 1.8.2 2.5 0 .6-.3.1-.5-1.3-.5-1.4 0-1.9.2-1.2.5zm246.5 3.8c0 2.7.2 3.8.4 2.2.2-1.5.2-3.7 0-5-.2-1.2-.4 0-.4 2.8zm-378.1 0c0 1.6.2 2.2.5 1.2.2-.9.2-2.3 0-3-.3-.6-.5.1-.5 1.8zm207.1 1c0 2.2.2 3 .4 1.7.2-1.2.2-3 0-4-.3-.9-.5.1-.4 2.3zm16.9 1c0 1.6.2 2.2.5 1.2.2-.9.2-2.3 0-3-.3-.6-.5.1-.5 1.8zm134.9-.9c0 1.1.3 1.4.6.6.3-.7.2-1.6-.1-1.9-.3-.4-.6.2-.5 1.3zM466.3 565c0 2.5.2 3.5.4 2.2.2-1.2.2-3.2 0-4.5-.2-1.2-.4-.2-.4 2.3zm-94.5-1.3c.6.2 1.8.2 2.5 0 .6-.3.1-.5-1.3-.5-1.4 0-1.9.2-1.2.5zm25 0c1.2.2 3.2.2 4.5 0 1.2-.2.2-.4-2.3-.4s-3.5.2-2.2.4zm96.3.9c0 1.1.3 1.4.6.6.3-.7.2-1.6-.1-1.9-.3-.4-.6.2-.5 1.3zm108.2-.9c5.9.2 15.5.2 21.5 0 5.9-.1 1-.3-10.8-.3s-16.7.2-10.7.3zM305.2 567c0 1.4.2 1.9.5 1.2.2-.6.2-1.8 0-2.5-.3-.6-.5-.1-.5 1.3zm71 0c0 1.4.2 1.9.5 1.2.2-.6.2-1.8 0-2.5-.3-.6-.5-.1-.5 1.3zm-211.9 2.7c2 .2 5.4.2 7.5 0 2-.2.3-.4-3.8-.4s-5.8.2-3.7.4zm63 0c2.6.2 6.8.2 9.5 0 2.6-.2.4-.3-4.8-.3s-7.4.1-4.7.3zm165 6c.9.2 2.5.2 3.5 0 .9-.3.1-.5-1.8-.5-1.9 0-2.7.2-1.7.5zm-67.1 4.3c0 1.9.2 2.7.5 1.7.2-.9.2-2.5 0-3.5-.3-.9-.5-.1-.5 1.8zm73.2 9.5c0 7.1.1 9.9.3 6.2.2-3.7.2-9.6 0-13-.2-3.4-.3-.4-.3 6.8zm-25 .5c0 5.2.1 7.4.3 4.7.2-2.6.2-6.8 0-9.5-.2-2.6-.3-.4-.3 4.8zm50.9-3.5c0 2.2.2 3 .4 1.7.2-1.2.2-3 0-4-.3-.9-.5.1-.4 2.3zm-53.1 19c0 1.6.2 2.2.5 1.2.2-.9.2-2.3 0-3-.3-.6-.5.1-.5 1.8zm29 2.5c0 1.9.2 2.7.5 1.7.2-.9.2-2.5 0-3.5-.3-.9-.5-.1-.5 1.8zm139.6 4.7c.6.2 1.8.2 2.5 0 .6-.3.1-.5-1.3-.5-1.4 0-1.9.2-1.2.5zm68.5 0c.9.2 2.5.2 3.5 0 .9-.3.1-.5-1.8-.5-1.9 0-2.7.2-1.7.5zm-413 6c5.9.2 15.5.2 21.5 0 5.9-.1 1-.3-10.8-.3s-16.7.2-10.7.3zm132.5 17c.6.2 1.8.2 2.5 0 .6-.3.1-.5-1.3-.5-1.4 0-1.9.2-1.2.5zm-25.5 6c.9.2 2.5.2 3.5 0 .9-.3.1-.5-1.8-.5-1.9 0-2.7.2-1.7.5zm158 0c.9.2 2.5.2 3.5 0 .9-.3.1-.5-1.8-.5-1.9 0-2.7.2-1.7.5zm-188 6c.9.2 2.5.2 3.5 0 .9-.3.1-.5-1.8-.5-1.9 0-2.7.2-1.7.5zm212 0c.9.2 2.5.2 3.5 0 .9-.3.1-.5-1.8-.5-1.9 0-2.7.2-1.7.5zM251.2 663c0 1.4.2 1.9.5 1.2.2-.6.2-1.8 0-2.5-.3-.6-.5-.1-.5 1.3zm271 5c0 1.9.2 2.7.5 1.7.2-.9.2-2.5 0-3.5-.3-.9-.5-.1-.5 1.8zm-273 1c0 1.4.2 1.9.5 1.2.2-.6.2-1.8 0-2.5-.3-.6-.5-.1-.5 1.3zm105.1 3.7c7.5.2 19.9.2 27.5 0 7.5-.1 1.3-.3-13.8-.3-15.1 0-21.3.2-13.7.3zm99 0c5.9.2 15.5.2 21.5 0 5.9-.1 1-.3-10.8-.3s-16.7.2-10.7.3zm-182.5 6c1.2.2 3.2.2 4.5 0 1.2-.2.2-.4-2.3-.4s-3.5.2-2.2.4zm233.5 0c.9.2 2.5.2 3.5 0 .9-.3.1-.5-1.8-.5-1.9 0-2.7.2-1.7.5zm-126.5-605c1.7.2 4.7.2 6.5 0 1.7-.2.3-.4-3.3-.4-3.6 0-5 .2-3.2.4zm-21 2c2.3.2 6.1.2 8.5 0 2.3-.2.4-.4-4.3-.4s-6.6.2-4.2.4zm39 0c3.9.2 10.5.2 14.5 0 3.9-.1.7-.3-7.3-.3s-11.2.2-7.2.3zm34 4c.6.2 1.8.2 2.5 0 .6-.3.1-.5-1.3-.5-1.4 0-1.9.2-1.2.5zm-112.9 61.6c.4.4 3.9.7 7.7.5l6.9-.3-7.7-.5c-4.2-.3-7.3-.1-6.9.3zm134.9.4c1.2.2 3 .2 4 0 .9-.3-.1-.5-2.3-.4-2.2 0-3 .2-1.7.4zM355 157c0 .5.5 1 1 1 .6 0 1-.5 1-1 0-.6-.4-1-1-1-.5 0-1 .4-1 1zm93.7.2c.6 1.1 10.1 1 10.7-.1.3-.5-2.1-.8-5.3-.7-3.2 0-5.7.4-5.4.8zm-48.9 2.5c.6.2 1.8.2 2.5 0 .6-.3.1-.5-1.3-.5-1.4 0-1.9.2-1.2.5zm-84 4c.6.2 1.8.2 2.5 0 .6-.3.1-.5-1.3-.5-1.4 0-1.9.2-1.2.5zm14 0c.6.2 1.8.2 2.5 0 .6-.3.1-.5-1.3-.5-1.4 0-1.9.2-1.2.5zM368 219c-.9.6-1 1-.3 1 .6 0 1.5-.5 1.8-1 .8-1.2.4-1.2-1.5 0zm45.8 30.7c.6.2 1.8.2 2.5 0 .6-.3.1-.5-1.3-.5-1.4 0-1.9.2-1.2.5zm-92 4c.6.2 1.8.2 2.5 0 .6-.3.1-.5-1.3-.5-1.4 0-1.9.2-1.2.5zm-18 68c.6.2 1.8.2 2.5 0 .6-.3.1-.5-1.3-.5-1.4 0-1.9.2-1.2.5zm164.5 0c.9.2 2.5.2 3.5 0 .9-.3.1-.5-1.8-.5-1.9 0-2.7.2-1.7.5zm-256 16c2 .2 5.4.2 7.5 0 2-.2.3-.4-3.8-.4s-5.8.2-3.7.4zm54 0c.9.2 2.5.2 3.5 0 .9-.3.1-.5-1.8-.5-1.9 0-2.7.2-1.7.5zm236 0c.9.2 2.5.2 3.5 0 .9-.3.1-.5-1.8-.5-1.9 0-2.7.2-1.7.5zm34.5 0c2.3.2 6.1.2 8.5 0 2.3-.2.4-.4-4.3-.4s-6.6.2-4.2.4zm-302.5 2c5.3.2 14.1.2 19.5 0 5.3-.1.9-.3-9.8-.3-10.7 0-15.1.2-9.7.3zm279.5 0c2.8.2 7.6.2 10.5 0 2.8-.2.5-.3-5.3-.3s-8.1.1-5.2.3zm-339.5 6c.9.2 2.5.2 3.5 0 .9-.3.1-.5-1.8-.5-1.9 0-2.7.2-1.7.5zm424 0c.9.2 2.5.2 3.5 0 .9-.3.1-.5-1.8-.5-1.9 0-2.7.2-1.7.5zm-149.5 54c1.2.2 3.2.2 4.5 0 1.2-.2.2-.4-2.3-.4s-3.5.2-2.2.4zm-135 4c.6.2 1.8.2 2.5 0 .6-.3.1-.5-1.3-.5-1.4 0-1.9.2-1.2.5zm18 0c.7.3 1.6.2 1.9-.1.4-.3-.2-.6-1.3-.5-1.1 0-1.4.3-.6.6zm-23 24c1.2.2 3.2.2 4.5 0 1.2-.2.2-.4-2.3-.4s-3.5.2-2.2.4zm13.5 0c.9.2 2.5.2 3.5 0 .9-.3.1-.5-1.8-.5-1.9 0-2.7.2-1.7.5zm129 0c1.5.2 3.9.2 5.5 0 1.5-.2.2-.4-2.8-.4s-4.3.2-2.7.4zm13 0c.9.2 2.5.2 3.5 0 .9-.3.1-.5-1.8-.5-1.9 0-2.7.2-1.7.5zm-134.5 2c.6.2 1.8.2 2.5 0 .6-.3.1-.5-1.3-.5-1.4 0-1.9.2-1.2.5zm114 0c.6.2 1.8.2 2.5 0 .6-.3.1-.5-1.3-.5-1.4 0-1.9.2-1.2.5zm28 0c.6.2 1.8.2 2.5 0 .6-.3.1-.5-1.3-.5-1.4 0-1.9.2-1.2.5zm-163.5 22c4.2.2 11.2.2 15.5 0 4.2-.1.7-.3-7.8-.3s-12 .2-7.7.3zm157.5 0c.6.2 1.8.2 2.5 0 .6-.3.1-.5-1.3-.5-1.4 0-1.9.2-1.2.5zm-19 2c2.3.2 6.1.2 8.5 0 2.3-.2.4-.4-4.3-.4s-6.6.2-4.2.4zm-27 4c.6.2 1.8.2 2.5 0 .6-.3.1-.5-1.3-.5-1.4 0-1.9.2-1.2.5zm-92.5 20c7 .2 18.4.2 25.5 0 7-.1 1.2-.3-12.8-.3s-19.8.2-12.7.3zm100.5 0c3.9.2 10.5.2 14.5 0 3.9-.1.7-.3-7.3-.3s-11.2.2-7.2.3zm-134 4c.6.2 1.8.2 2.5 0 .6-.3.1-.5-1.3-.5-1.4 0-1.9.2-1.2.5zm182.5 0c.9.2 2.5.2 3.5 0 .9-.3.1-.5-1.8-.5-1.9 0-2.7.2-1.7.5zm-117 18c1.5.2 3.9.2 5.5 0 1.5-.2.2-.4-2.8-.4s-4.3.2-2.7.4zm-7.5 2c.6.2 1.8.2 2.5 0 .6-.3.1-.5-1.3-.5-1.4 0-1.9.2-1.2.5zm59.5 0c1.5.2 3.9.2 5.5 0 1.5-.2.2-.4-2.8-.4s-4.3.2-2.7.4zm21 4c.9.2 2.5.2 3.5 0 .9-.3.1-.5-1.8-.5-1.9 0-2.7.2-1.7.5zm-100.5 2c.6.2 1.8.2 2.5 0 .6-.3.1-.5-1.3-.5-1.4 0-1.9.2-1.2.5zm108.5 0c.9.2 2.5.2 3.5 0 .9-.3.1-.5-1.8-.5-1.9 0-2.7.2-1.7.5zm-120.5 4c.6.2 1.8.2 2.5 0 .6-.3.1-.5-1.3-.5-1.4 0-1.9.2-1.2.5zm134 0c.6.2 1.8.2 2.5 0 .6-.3.1-.5-1.3-.5-1.4 0-1.9.2-1.2.5zm-259 12c1.2.2 3.2.2 4.5 0 1.2-.2.2-.4-2.3-.4s-3.5.2-2.2.4zm-18.5 2c2 .2 5.4.2 7.5 0 2-.2.3-.4-3.8-.4s-5.8.2-3.7.4zm36 0c2 .2 5.4.2 7.5 0 2-.2.3-.4-3.8-.4s-5.8.2-3.7.4zm152.5 0c1.2.2 3.2.2 4.5 0 1.2-.2.2-.4-2.3-.4s-3.5.2-2.2.4zm194.5 0c4.8.2 12.6.2 17.5 0 4.8-.1.8-.3-8.8-.3-9.6 0-13.6.2-8.7.3zm-408.5 4c1.2.2 3.2.2 4.5 0 1.2-.2.2-.4-2.3-.4s-3.5.2-2.2.4zm90 0c1.2.2 3.2.2 4.5 0 1.2-.2.2-.4-2.3-.4s-3.5.2-2.2.4zm175.5 0c.9.2 2.5.2 3.5 0 .9-.3.1-.5-1.8-.5-1.9 0-2.7.2-1.7.5zm114 0c.9.2 2.5.2 3.5 0 .9-.3.1-.5-1.8-.5-1.9 0-2.7.2-1.7.5zm77 0c1.5.2 3.9.2 5.5 0 1.5-.2.2-.4-2.8-.4s-4.3.2-2.7.4zm-467 2c.9.2 2.5.2 3.5 0 .9-.3.1-.5-1.8-.5-1.9 0-2.7.2-1.7.5zm110 0c.9.2 2.5.2 3.5 0 .9-.3.1-.5-1.8-.5-1.9 0-2.7.2-1.7.5zm271.5 0c.6.2 1.8.2 2.5 0 .6-.3.1-.5-1.3-.5-1.4 0-1.9.2-1.2.5zm97 0c1.2.2 3.2.2 4.5 0 1.2-.2.2-.4-2.3-.4s-3.5.2-2.2.4zm-279 4c.6.2 1.8.2 2.5 0 .6-.3.1-.5-1.3-.5-1.4 0-1.9.2-1.2.5zm304.9 1.4c.7.7 1.5 1 1.8.7.3-.3-.2-.9-1.2-1.2-1.4-.6-1.5-.5-.6.5zm-318.9 4.6c.6.2 1.8.2 2.5 0 .6-.3.1-.5-1.3-.5-1.4 0-1.9.2-1.2.5zm76.5 6c.9.2 2.5.2 3.5 0 .9-.3.1-.5-1.8-.5-1.9 0-2.7.2-1.7.5zm7.5 2c.6.2 1.8.2 2.5 0 .6-.3.1-.5-1.3-.5-1.4 0-1.9.2-1.2.5zm12 4c.6.2 1.8.2 2.5 0 .6-.3.1-.5-1.3-.5-1.4 0-1.9.2-1.2.5zm214 8c.6.2 1.8.2 2.5 0 .6-.3.1-.5-1.3-.5-1.4 0-1.9.2-1.2.5zm-493.5 4c.9.2 2.5.2 3.5 0 .9-.3.1-.5-1.8-.5-1.9 0-2.7.2-1.7.5zm390.5 0c10 .2 26.4.2 36.5 0 10-.1 1.8-.2-18.3-.2s-28.3.1-18.2.2zm-382 2c1.2.2 3.2.2 4.5 0 1.2-.2.2-.4-2.3-.4s-3.5.2-2.2.4zm95.5 0c.9.2 2.5.2 3.5 0 .9-.3.1-.5-1.8-.5-1.9 0-2.7.2-1.7.5zm-56 4c5.3.2 14.1.2 19.5 0 5.3-.1.9-.3-9.8-.3-10.7 0-15.1.2-9.7.3zm192 6c.9.2 2.5.2 3.5 0 .9-.3.1-.5-1.8-.5-1.9 0-2.7.2-1.7.5zm55.5 56c.7.3 1.6.2 1.9-.1.4-.3-.2-.6-1.3-.5-1.1 0-1.4.3-.6.6zm-118 4c.6.2 1.8.2 2.5 0 .6-.3.1-.5-1.3-.5-1.4 0-1.9.2-1.2.5zm-7.5 2c.9.2 2.5.2 3.5 0 .9-.3.1-.5-1.8-.5-1.9 0-2.7.2-1.7.5zm141.5 0c.6.2 1.8.2 2.5 0 .6-.3.1-.5-1.3-.5-1.4 0-1.9.2-1.2.5zm-163 4c1.2.2 3.2.2 4.5 0 1.2-.2.2-.4-2.3-.4s-3.5.2-2.2.4zm177 0c.6.2 1.8.2 2.5 0 .6-.3.1-.5-1.3-.5-1.4 0-1.9.2-1.2.5zm-187 2c1.2.2 3.2.2 4.5 0 1.2-.2.2-.4-2.3-.4s-3.5.2-2.2.4zm195 0c.6.2 1.8.2 2.5 0 .6-.3.1-.5-1.3-.5-1.4 0-1.9.2-1.2.5zm-210 4c.6.2 1.8.2 2.5 0 .6-.3.1-.5-1.3-.5-1.4 0-1.9.2-1.2.5zm228.5 0c.9.2 2.5.2 3.5 0 .9-.3.1-.5-1.8-.5-1.9 0-2.7.2-1.7.5zm9.5 2c.6.2 1.8.2 2.5 0 .6-.3.1-.5-1.3-.5-1.4 0-1.9.2-1.2.5z" fill="#FFF" fill-opacity=".25"/><path d="M331.9 85.7c-1.3 1.6-1.2 1.7.4.4.9-.7 1.7-1.5 1.7-1.7 0-.8-.8-.3-2.1 1.3zM451.5 92c1 1.1 2 2 2.3 2 .3 0-.3-.9-1.3-2s-2-2-2.3-2c-.3 0 .3.9 1.3 2zm6 6c1 1.1 2 2 2.3 2 .3 0-.3-.9-1.3-2s-2-2-2.3-2c-.3 0 .3.9 1.3 2zm-146.1 6.2-1.9 2.3 2.3-1.9c2.1-1.8 2.7-2.6 1.9-2.6-.2 0-1.2 1-2.3 2.2zm26 0-1.9 2.3 2.3-1.9c2.1-1.8 2.7-2.6 1.9-2.6-.2 0-1.2 1-2.3 2.2zm126.1-.2c1 1.1 2 2 2.3 2 .3 0-.3-.9-1.3-2s-2-2-2.3-2c-.3 0 .3.9 1.3 2zM344 126.4c0 .2.8 1 1.8 1.7 1.5 1.3 1.6 1.2.3-.4s-2.1-2.1-2.1-1.3zm77.4 1.8-1.9 2.3 2.3-1.9c2.1-1.8 2.7-2.6 1.9-2.6-.2 0-1.2 1-2.3 2.2zM356 150.4c0 .2.8 1 1.8 1.7 1.5 1.3 1.6 1.2.3-.4s-2.1-2.1-2.1-1.3zm69.4 1.8-1.9 2.3 2.3-1.9c1.2-1.1 2.2-2.1 2.2-2.3 0-.8-.8-.2-2.6 1.9zm-128.5.5c-1.3 1.6-1.2 1.7.4.4.9-.7 1.7-1.5 1.7-1.7 0-.8-.8-.3-2.1 1.3zm67.1 3.7c0 .2.8 1 1.8 1.7 1.5 1.3 1.6 1.2.3-.4s-2.1-2.1-2.1-1.3zm115.5 1.6c1 1.1 2 2 2.3 2 .3 0-.3-.9-1.3-2s-2-2-2.3-2c-.3 0 .3.9 1.3 2zm-106 6c1 1.1 2 2 2.3 2 .3 0-.3-.9-1.3-2s-2-2-2.3-2c-.3 0 .3.9 1.3 2zm17.9.2-1.9 2.3 2.3-1.9c2.1-1.8 2.7-2.6 1.9-2.6-.2 0-1.2 1-2.3 2.2zm21.5.5c-1.3 1.6-1.2 1.7.4.4.9-.7 1.7-1.5 1.7-1.7 0-.8-.8-.3-2.1 1.3zm22 0c-1.3 1.6-1.2 1.7.4.4.9-.7 1.7-1.5 1.7-1.7 0-.8-.8-.3-2.1 1.3zm-93.4 5.3c1 1.1 2 2 2.3 2 .3 0-.3-.9-1.3-2s-2-2-2.3-2c-.3 0 .3.9 1.3 2zm87.9.2-1.9 2.3 2.3-1.9c1.2-1.1 2.2-2.1 2.2-2.3 0-.8-.8-.2-2.6 1.9zM373 193.4c0 .2.8 1 1.8 1.7 1.5 1.3 1.6 1.2.3-.4s-2.1-2.1-2.1-1.3zm-11.6 30.8-1.9 2.3 2.3-1.9c2.1-1.8 2.7-2.6 1.9-2.6-.2 0-1.2 1-2.3 2.2zm50.1-.2c1 1.1 2 2 2.3 2 .3 0-.3-.9-1.3-2s-2-2-2.3-2c-.3 0 .3.9 1.3 2zM309 241.4c0 .2.8 1 1.8 1.7 1.5 1.3 1.6 1.2.3-.4s-2.1-2.1-2.1-1.3zm6.5 6.6c1 1.1 2 2 2.3 2 .3 0-.3-.9-1.3-2s-2-2-2.3-2c-.3 0 .3.9 1.3 2zm120.5-1.6c0 .2.8 1 1.8 1.7 1.5 1.3 1.6 1.2.3-.4s-2.1-2.1-2.1-1.3zm-28.6 7.8-1.9 2.3 2.3-1.9c2.1-1.8 2.7-2.6 1.9-2.6-.2 0-1.2 1-2.3 2.2zm-46.4-.8c0 .2.8 1 1.8 1.7 1.5 1.3 1.6 1.2.3-.4s-2.1-2.1-2.1-1.3zm-67.1 72.3c-1.3 1.6-1.2 1.7.4.4 1.6-1.3 2.1-2.1 1.3-2.1-.2 0-1 .8-1.7 1.7zm19.6.3c1 1.1 2 2 2.3 2 .3 0-.3-.9-1.3-2s-2-2-2.3-2c-.3 0 .3.9 1.3 2zm-28.1 6.2-1.9 2.3 2.3-1.9c2.1-1.8 2.7-2.6 1.9-2.6-.2 0-1.2 1-2.3 2.2zm207.6-.8c0 .2.8 1 1.8 1.7 1.5 1.3 1.6 1.2.3-.4s-2.1-2.1-2.1-1.3zm-300.1 7.3c-1.3 1.6-1.2 1.7.4.4 1.6-1.3 2.1-2.1 1.3-2.1-.2 0-1 .8-1.7 1.7zm120.1 4.7c0 .2.8 1 1.8 1.7 1.5 1.3 1.6 1.2.3-.4s-2.1-2.1-2.1-1.3zm145.9 1.3c-1.3 1.6-1.2 1.7.4.4 1.6-1.3 2.1-2.1 1.3-2.1-.2 0-1 .8-1.7 1.7zm-293.5 5.5-1.9 2.3 2.3-1.9c2.1-1.8 2.7-2.6 1.9-2.6-.2 0-1.2 1-2.3 2.2zm442.1-.2c1 1.1 2 2 2.3 2 .3 0-.3-.9-1.3-2s-2-2-2.3-2c-.3 0 .3.9 1.3 2zm-290.5-.6c0 .2.8 1 1.8 1.7 1.5 1.3 1.6 1.2.3-.4s-2.1-2.1-2.1-1.3zm6.5 6.6c1 1.1 2 2 2.3 2 .3 0-.3-.9-1.3-2s-2-2-2.3-2c-.3 0 .3.9 1.3 2zm125.9.2-1.9 2.3 2.3-1.9c2.1-1.8 2.7-2.6 1.9-2.6-.2 0-1.2 1-2.3 2.2zM329.5 362c1 1.1 2 2 2.3 2 .3 0-.3-.9-1.3-2s-2-2-2.3-2c-.3 0 .3.9 1.3 2zm115.4.7c-1.3 1.6-1.2 1.7.4.4.9-.7 1.7-1.5 1.7-1.7 0-.8-.8-.3-2.1 1.3zm-5.5 5.5-1.9 2.3 2.3-1.9c1.2-1.1 2.2-2.1 2.2-2.3 0-.8-.8-.2-2.6 1.9zm-106.4-.8c0 .2.8 1 1.8 1.7 1.5 1.3 1.6 1.2.3-.4s-2.1-2.1-2.1-1.3zm6.5 6.6c1 1.1 2 2 2.3 2 .3 0-.3-.9-1.3-2s-2-2-2.3-2c-.3 0 .3.9 1.3 2zm4.5 4.4c0 .2.8 1 1.8 1.7 1.5 1.3 1.6 1.2.3-.4s-2.1-2.1-2.1-1.3zm14.9 26.3c-1.3 1.6-1.2 1.7.4.4 1.4-1.1 2-1.1 3.5 0 1.5 1.3 1.6 1.2.3-.4-.7-.9-1.7-1.7-2.1-1.7-.4 0-1.4.8-2.1 1.7zm78 0c-1.3 1.6-1.2 1.7.4.4.9-.7 1.7-1.5 1.7-1.7 0-.8-.8-.3-2.1 1.3zm28.1-1.3c0 .2.8 1 1.8 1.7 1.5 1.3 1.6 1.2.3-.4s-2.1-2.1-2.1-1.3zM341.5 410c1 1.1 2 2 2.3 2 .3 0-.3-.9-1.3-2s-2-2-2.3-2c-.3 0 .3.9 1.3 2zm-42.6.7c-1.3 1.6-1.2 1.7.4.4.9-.7 1.7-1.5 1.7-1.7 0-.8-.8-.3-2.1 1.3zm130 0c-1.3 1.6-1.2 1.7.4.4 1.6-1.3 2.1-2.1 1.3-2.1-.2 0-1 .8-1.7 1.7zm-5.5 5.5-1.9 2.3 2.3-1.9c1.2-1.1 2.2-2.1 2.2-2.3 0-.8-.8-.2-2.6 1.9zm-69.9 5.8c1 1.1 2 2 2.3 2 .3 0-.3-.9-1.3-2s-2-2-2.3-2c-.3 0 .3.9 1.3 2zm205.4 6.7c-1.3 1.6-1.2 1.7.4.4.9-.7 1.7-1.5 1.7-1.7 0-.8-.8-.3-2.1 1.3zm-78.9 3.7c0 .2.8 1 1.8 1.7 1.5 1.3 1.6 1.2.3-.4s-2.1-2.1-2.1-1.3zm-130 6c0 .2.8 1 1.8 1.7 1.5 1.3 1.6 1.2.3-.4s-2.1-2.1-2.1-1.3zm139.5 1.6c1 1.1 2 2 2.3 2 .3 0-.3-.9-1.3-2s-2-2-2.3-2c-.3 0 .3.9 1.3 2zm-206.6.7c-1.3 1.6-1.2 1.7.4.4 1.6-1.3 2.1-2.1 1.3-2.1-.2 0-1 .8-1.7 1.7zm310.1 4.7c0 .2.8 1 1.8 1.7 1.5 1.3 1.6 1.2.3-.4s-2.1-2.1-2.1-1.3zM367.5 452c1 1.1 2 2 2.3 2 .3 0-.3-.9-1.3-2s-2-2-2.3-2c-.3 0 .3.9 1.3 2zm229.5-.6c0 .2.8 1 1.8 1.7 1.5 1.3 1.6 1.2.3-.4s-2.1-2.1-2.1-1.3zm-115 5c0 .2.8 1 1.8 1.7 1.5 1.3 1.6 1.2.3-.4s-2.1-2.1-2.1-1.3zm-125 1c0 .2.8 1 1.8 1.7 1.5 1.3 1.6 1.2.3-.4s-2.1-2.1-2.1-1.3zm59.9 1.3c-1.3 1.6-1.2 1.7.4.4 1.6-1.3 2.1-2.1 1.3-2.1-.2 0-1 .8-1.7 1.7zm-135.5 5.5-1.9 2.3 2.3-1.9c2.1-1.8 2.7-2.6 1.9-2.6-.2 0-1.2 1-2.3 2.2zm207.6-.8c0 .2.8 1 1.8 1.7 1.5 1.3 1.6 1.2.3-.4s-2.1-2.1-2.1-1.3zm-213.6 6.8-1.9 2.3 2.3-1.9c2.1-1.8 2.7-2.6 1.9-2.6-.2 0-1.2 1-2.3 2.2zm218.6-1.8c0 .2.8 1 1.8 1.7 1.5 1.3 1.6 1.2.3-.4s-2.1-2.1-2.1-1.3zm-261 1c0 .2.8 1 1.8 1.7 1.5 1.3 1.6 1.2.3-.4s-2.1-2.1-2.1-1.3zm179.9 7.3c-1.3 1.6-1.2 1.7.4.4.9-.7 1.7-1.5 1.7-1.7 0-.8-.8-.3-2.1 1.3zm198.1-1.3c0 .2.8 1 1.8 1.7 1.5 1.3 1.6 1.2.3-.4s-2.1-2.1-2.1-1.3zm-329.6 12.8-1.9 2.3 2.3-1.9c2.1-1.8 2.7-2.6 1.9-2.6-.2 0-1.2 1-2.3 2.2zm214.1 5.8c1 1.1 2 2 2.3 2 .3 0-.3-.9-1.3-2s-2-2-2.3-2c-.3 0 .3.9 1.3 2zM367 499.4c0 .2.8 1 1.8 1.7 1.5 1.3 1.6 1.2.3-.4s-2.1-2.1-2.1-1.3zm258 0c0 .2.8 1 1.8 1.7 1.5 1.3 1.6 1.2.3-.4s-2.1-2.1-2.1-1.3zm-154 18c0 .2.8 1 1.8 1.7 1.5 1.3 1.6 1.2.3-.4s-2.1-2.1-2.1-1.3zm-177.6 6.8-1.9 2.3 2.3-1.9c2.1-1.8 2.7-2.6 1.9-2.6-.2 0-1.2 1-2.3 2.2zm-165.5 5.5c-1.3 1.6-1.2 1.7.4.4.9-.7 1.7-1.5 1.7-1.7 0-.8-.8-.3-2.1 1.3zm369 13c-1.3 1.6-1.2 1.7.4.4 1.6-1.3 2.1-2.1 1.3-2.1-.2 0-1 .8-1.7 1.7zm-181.5 5.5-1.9 2.3 2.3-1.9c2.1-1.8 2.7-2.6 1.9-2.6-.2 0-1.2 1-2.3 2.2zm140.1-.2c1 1.1 2 2 2.3 2 .3 0-.3-.9-1.3-2s-2-2-2.3-2c-.3 0 .3.9 1.3 2zm6 6c1 1.1 2 2 2.3 2 .3 0-.3-.9-1.3-2s-2-2-2.3-2c-.3 0 .3.9 1.3 2zM130 558.4c0 .2.8 1 1.8 1.7 1.5 1.3 1.6 1.2.3-.4s-2.1-2.1-2.1-1.3zm200.9 8.3c-1.3 1.6-1.2 1.7.4.4.9-.7 1.7-1.5 1.7-1.7 0-.8-.8-.3-2.1 1.3zm27 5c-1.3 1.6-1.2 1.7.4.4 1.6-1.3 2.1-2.1 1.3-2.1-.2 0-1 .8-1.7 1.7zm57.6.3c1 1.1 2 2 2.3 2 .3 0-.3-.9-1.3-2s-2-2-2.3-2c-.3 0 .3.9 1.3 2zm-55.6 47.7c-1.3 1.6-1.2 1.7.4.4 1.6-1.3 2.1-2.1 1.3-2.1-.2 0-1 .8-1.7 1.7zm53.1-.3c0 .2.8 1 1.8 1.7 1.5 1.3 1.6 1.2.3-.4s-2.1-2.1-2.1-1.3zm102 36c0 .2.8 1 1.8 1.7 1.5 1.3 1.6 1.2.3-.4s-2.1-2.1-2.1-1.3z" fill="#FFF" fill-opacity=".19"/><path d="M510 680.4c.7.7 1.3.7 2 0 .6-.6.3-1-1-1s-1.6.4-1 1z" fill="#FFF" fill-opacity=".07"/><g fill="#FFF" stroke-width="0"><path d="M370.5 75c-.3.5-4.6 1-9.5 1s-9.2.4-9.5 1c-.3.5-1.7 1-3.1 1-1.3 0-2.4.4-2.4 1 0 .5-.9 1-2 1s-2 .4-2 1c0 .5-.9 1-2 1s-2 .4-2 1c0 .5-.8 1-1.8 1s-2.4.9-3.2 2c-.8 1.1-2.1 2-2.8 2-.8 0-2.6 1.2-4 2.8-1.5 1.5-3.9 3.3-5.3 4.1-1.5.7-3.3 2.5-4 4-.8 1.4-2.6 3.8-4.1 5.3-1.6 1.4-2.8 3.3-2.8 4.2 0 .9-.4 1.6-1 1.6-.5 0-1 .9-1 2s-.4 2-1 2c-.5 0-1 .9-1 2s-.4 2-1 2c-.5 0-1 1.3-1 3 0 1.6-.4 3-1 3-.5 0-1 1.3-1 3 0 1.6-.4 3-1 3s-1 4.2-1 10.6v10.6l-4 3.8c-2.2 2.1-4 4.4-4 5.1 0 .6-.8 1.9-1.8 2.8-2.3 2.2-4.2 7.8-4.2 12.9 0 2.2-.5 4.4-1.1 4.8-.7.4-.9 2.2-.5 4.8.4 2.2.9 6 1.2 8.3.3 2.4 1 4.3 1.5 4.3s.9.7.9 1.6c0 .9 1.4 2.9 3 4.4 1.7 1.5 3 3.4 3 4.2 0 .7.9 2 2 2.8 1.1.8 2 2.2 2 3.2s.5 1.8 1 1.8c.6 0 1 3.3 1 8s-.4 8-1 8-1 3-1 7 .4 7 1 7 1 .9 1 2 .5 2 1 2c.6 0 1 .6 1 1.3 0 1.7 7.4 9.6 11.3 12.1 2.1 1.4 2.7 2.6 2.7 5.2 0 1.9.5 3.4 1 3.4.6 0 1 1.3 1 3 0 1.6.5 3 1 3 .6 0 1 1.1 1 2.4 0 1.4.5 2.8 1 3.1.6.3 1 1.9 1 3.6 0 1.6.5 2.9 1 2.9.6 0 1 1.5 1 3.4s.5 3.8 1 4.1c.6.3 1 1.9 1 3.6 0 1.6.5 2.9 1 2.9.6 0 1 1.8 1 4s.5 4 1 4c.6 0 1 1.8 1 4s.5 4 1 4c.6 0 1 2.7 1 6s.4 6 1 6 1 .9 1 2 .5 2 1 2c.6 0 1 1.3 1 3 0 1.6.5 3 1 3 .6 0 1 1.3 1 3 0 1.6.5 3 1 3 .6 0 1 1.8 1 4s.5 4 1 4c.6 0 1 1.8 1 4s.5 4 1 4c.6 0 1 1.3 1 3 0 1.6.5 3 1 3 .6 0 1 1.5 1 3.4s.5 3.8 1 4.1c1 .6 1.4 4.5.5 4.5-1 0-15.5-15-15.5-16 0-.6-3.6-4.6-8-9s-8-8.5-8-9.2c0-.8-.9-2-2-2.8-1.4-1-2-2.6-2-5.2 0-2.1.5-3.8 1-3.8.6 0 1-.9 1-2s.5-2 1-2c1.8 0 1-3.1-1.5-5.5-1.3-1.4-3.1-2.5-4-2.5-.8 0-1.5-.5-1.5-1 0-.6-1.3-1-3-1-1.6 0-3 .4-3 1 0 .5-1.3 1-2.8 1-1.6 0-3.4.8-4.2 2-.8 1.1-2.1 2-2.8 2-.7 0-3.1 1.8-5.2 4-3.4 3.5-4.4 4-8.4 4-2.4 0-4.8.4-5.1 1-.3.5-2.6 1-5.1 1-2.4 0-4.4.4-4.4 1s-7.3 1-20 1-20-.4-20-1-3.3-1-8-1-8-.4-8-1-2.4-1-5.3-1c-4.6 0-5.8.4-9 3.4-3.6 3.3-4.8 6.8-2.7 8.1.5.3 1 1.9 1 3.6 0 1.6.5 2.9 1 2.9.6 0 1 2.7 1 6s-.4 6-1 6-1 2.8-1 6.4c0 3.6-.5 6.8-1.1 7.2-.7.4-.8 2-.4 4.3.3 2 .9 6 1.2 8.8.2 2.9.9 5.3 1.4 5.3.5 0 .9.8.9 1.8s.9 2.4 2 3.2c1.1.8 2 2.6 2 4.1 0 1.5.6 2.9 1.3 3.2.7.2 0 1.5-2 3.4-1.8 1.7-3.3 3.7-3.3 4.5 0 .7-.9 2-2 2.8-1.1.8-2 2.1-2 3 0 .9-.9 2.2-2 3-1.1.8-2 2.2-2 3.2s-.4 1.8-1 1.8c-.5 0-1 .6-1 1.3 0 .7-.9 2.3-2 3.5-1.1 1.2-2 2.8-2 3.7 0 .8-.4 1.5-1 1.5-.5 0-1 .9-1 2s-.4 2-1 2c-.5 0-1 .9-1 2s-.4 2-1 2c-.5 0-1 .9-1 2s-.4 2-1 2c-.5 0-1 .8-1 1.8s-.9 2.4-2 3.2c-1.1.8-2 2.2-2 3.2s-.4 1.8-1 1.8c-.5 0-1 .9-1 2s-.4 2-1 2c-.5 0-1 .9-1 2s-.4 2-1 2c-.5 0-1 .9-1 2s-.4 2-1 2c-.5 0-1 .9-1 2s-.4 2-1 2c-.5 0-1 .9-1 2s-.4 2-1 2c-.5 0-1 .9-1 2s-.4 2-1 2c-.5 0-1 .9-1 2s-.4 2-1 2c-.5 0-1 .9-1 2s-.4 2-1 2c-.5 0-1 .9-1 2s-.4 2-1 2c-.5 0-1 .7-1 1.5 0 .9-.9 2.5-2 3.7-1.1 1.2-2 2.8-2 3.5 0 .7-.4 1.3-1 1.3-.5 0-1 .8-1 1.8s-.9 2.4-2 3.2c-1.1.8-2 2-2 2.8 0 .7-1.1 2.4-2.5 3.8s-2.5 2.9-2.5 3.3c0 .5-1.6 2.6-3.5 4.7s-3.5 4.4-3.5 5.1c0 .7-.6 1.3-1.2 1.3-2 0-6.8 4.5-6.8 6.4 0 .9-.4 1.6-1 1.6-.5 0-1 .9-1 2s-.4 2-1 2-1 3-1 7 .4 7 1 7 1 .8 1 1.8.9 2.4 2 3.2c1.1.8 2 2 2 2.7 0 2.3 2.3 5.5 8.3 11.4 3.1 3.2 5.7 6.2 5.7 6.8 0 .6.9 1.5 2 2.1 1.1.6 2 1.5 2 2.1 0 1.3 4.6 5.9 6 5.9.5 0 2.4 1.3 4.2 3 1.7 1.6 3.6 3 4.2 3 .6 0 1.8.9 2.6 2s2.2 2 3.2 2 1.8.4 1.8 1c0 .5.7 1 1.5 1 .9 0 2.5.9 3.7 2 1.2 1.1 3.2 2 4.5 2 1.3 0 2.3.4 2.3 1 0 .5 2.4 1 5.4 1 3 0 5.8.4 6.1 1 .8 1.4 44.5 1.4 44.5 0 0-.6 1.3-1 2.8-1 1.6 0 3.4-.8 4.2-2 .8-1.1 2.1-2 2.8-2 .8 0 2.7-1.4 4.2-3 1.5-1.7 3.3-3 3.9-3 1.6 0 20.1-18.7 20.1-20.3 0-.7.9-1.9 2-2.7 1.1-.8 2-2.2 2-3.2s.5-1.8 1-1.8c.6 0 1-.9 1-2s.5-2 1-2c.6 0 1-.6 1-1.4 0-.7 1.8-3.2 4-5.5 2.2-2.2 4-4.8 4-5.6 0-.8.5-1.5 1-1.5.6 0 1-1.8 1-4s-.4-4-.9-4-1.2-.8-1.6-1.9c-.7-2.3-3.9-6.1-5.1-6.1-.5 0-2.1-1.1-3.6-2.4-2.1-1.7-2.8-3.2-2.8-6 0-2-.4-3.6-1-3.6-.5 0-1-1.1-1-2.5s-.9-3.5-2-4.7c-1.1-1.2-2-2.8-2-3.5 0-.7-.4-1.3-1-1.3-.5 0-1-.9-1-2s-.4-2-1-2c-.5 0-1-.6-1-1.3 0-.7-.9-2.3-2-3.5-1.1-1.2-2-2.8-2-3.7 0-.8-.4-1.5-1-1.5-.5 0-1-.8-1-1.8s-.9-2.4-2-3.2c-1.1-.8-2-2.2-2-3.2s-.4-1.8-1-1.8c-.5 0-1-.9-1-2s-.4-2-1-2c-.5 0-1-.6-1-1.3 0-.7-.9-2.3-2-3.5-1.1-1.2-2-2.7-2-3.4 0-.8-.9-2-2-2.8-1.1-.8-2-2.2-2-3.2s-.4-1.8-1-1.8c-.5 0-1-.8-1-1.8s-.9-2.4-2-3.2c-1.1-.8-2-2.2-2-3.2s-.4-1.8-.9-1.8-1.4-1.4-2.1-3c-.7-1.7-1.6-3-2.1-3s-.9-.8-.9-1.8-.9-2.4-2-3.2c-1.1-.8-2-2.2-2-3.1 0-1-.3-1.9-.7-2.1-.5-.2-1.9-2.4-3.2-5.1-1.3-2.6-2.8-4.7-3.3-4.7-.4 0-.8-.9-.8-2s-.4-2-1-2c-.5 0-1-.8-1-1.8s-.9-2.4-2-3.2c-1.1-.8-2-2.2-2-3.2s-.4-1.8-1-1.8c-.5 0-1-.7-1-1.6 0-.9-.9-2.4-1.9-3.3-2-1.7-2.5-4.9-2.2-13.9.1-5.1.2-5.2 3.1-5.2 2.3 0 3-.4 3-2 0-1.1.5-2 1-2 .6 0 1-1.4 1-3 0-1.7.5-3 1-3 .6 0 1-1.8 1-4s.5-4 1-4c.6 0 1-1.8 1-4s.5-4 1-4c.6 0 1-.7 1-1.6 0-2 2.4-4.4 4.4-4.4.9 0 1.6-.5 1.6-1 0-.6 3.3-1 8-1s8-.4 8-1 4.1-1 10.4-1c5.9 0 10.8-.4 11.1-1 .3-.6 3-1 6-1s5.7-.5 6-1c.8-1.3 12.5-1.3 12.5 0 0 .5.9 1 2 1s2 .4 2 1c0 .5.9 1 2 1s2 .4 2 .8c0 .5 1.2 1.5 2.8 2.3 1.5.8 3.9 2.6 5.4 4.1 1.4 1.6 3.1 2.8 3.8 2.8.7 0 2.5 1.3 4 3 1.5 1.6 3.4 3 4.2 3 .7 0 2 .9 2.8 2 .8 1.1 2.1 2 2.8 2 .8 0 2.7 1.3 4.2 3 1.5 1.6 3.3 3 4 3 .7 0 2.5 1.3 4 3 1.5 1.6 3.5 3 4.4 3 .9 0 1.6.5 1.6 1 0 .7 5.1 1 14.8.8l14.7-.3.3-4.8c.2-2.8-.1-4.7-.7-4.7s-1.1-1.3-1.1-2.9c0-1.7-.4-3.3-1-3.6-.5-.3-1-2.1-1-4s-.4-3.7-1-4c-.5-.3-1-2.6-1-5.1 0-2.4-.4-4.4-1-4.4-.5 0-1-1.8-1-4s-.4-4-1-4c-.5 0-1-1.4-1-3 0-1.7-.4-3-1-3-.5 0-1-1.8-1-4s-.4-4-1-4c-.5 0-1-1.4-1-3 0-1.7-.4-3-1-3-.5 0-1-.9-1-2s-.4-2-1-2c-.5 0-1-.9-1-2s-.4-2-1-2c-.5 0-1-.9-1-2s-.3-2-.7-2c-.9 0-3.3-4.9-3.3-6.7 0-.7-.4-1.3-1-1.3-.5 0-1-1.1-1-2.3 0-1.3-.3-2.7-.7-3.1-1.1-1.1-3.3-7.9-3.3-10.4 0-1.2-.4-2.2-1-2.2-.5 0-1-1.4-1-3 0-1.7-.4-3-1-3-.5 0-1-1.4-1-3 0-1.7-.4-3-1-3-.5 0-1-1.1-1-2.4 0-1.4-.4-2.8-1-3.1-.5-.3-1-1.9-1-3.6 0-1.6-.4-2.9-1-2.9-.5 0-1-1.4-1-3 0-1.7-.4-3-1-3-.5 0-1-.9-1-2 0-1.3.7-2 2-2s2 .7 2 2c0 1.1.5 2 1 2 .6 0 1 .9 1 2s.5 2 1 2c.6 0 1 .9 1 2s.5 2 1 2c.6 0 1 .9 1 2s.5 2 1 2c.6 0 1 .9 1 2s.5 2 1 2c.6 0 1 .9 1 2s.5 2 1 2c.6 0 1 .7 1 1.6 0 .9 1.4 2.9 3 4.4 1.7 1.5 3 3.4 3 4.2 0 .7.9 2 2 2.8 1.1.8 2 2.2 2 3.2s.5 1.8 1 1.8c.6 0 1 1.8 1 4s.5 4 1 4c.6 0 1 3 1 7s.4 7 1 7 1 1.8 1 4 .5 4 1 4c.6 0 1 2.2 1 4.9 0 2.8.5 5.3 1 5.6.6.3 1 2.1 1 4 0 2.8 1.3 4.5 3.6 4.5.9 0 .3-10.9-.6-11.5-.5-.3-1-2.6-1-5.1 0-2.4-.4-4.4-1-4.4-.5 0-1-1.8-1-3.9 0-2.2-.4-4.3-1-4.6-.5-.3-1-3.5-1-7.1 0-3.6-.4-6.4-1-6.4-.5 0-1-1.3-1-2.9 0-1.7-.4-3.3-1-3.6-.5-.3-1-1.5-1-2.6 0-1-1.8-3.8-4-6-2.2-2.3-4-4.8-4-5.5 0-.8-.4-1.4-1-1.4-.5 0-1-.6-1-1.3 0-.7-.9-2.3-2-3.5-1.1-1.2-2-3.3-2-4.7 0-1.4-.4-2.5-1-2.5-.5 0-1-.8-1-1.8s-.9-2.4-2-3.2c-1.2-.8-2-2.6-2-4.2 0-1.5-.4-2.8-1-2.8-.5 0-1-.9-1-2 0-1.3.7-2 2-2 1.1 0 2-.5 2-1 0-.6.8-1 1.9-1 1.1 0 2.3-1.2 3.1-3 .7-1.7 1.6-3 2.1-3s.9-.9.9-2 .5-2 1-2c.6 0 1-.9 1-2s.5-2 1-2c.6 0 1-1.8 1-4s.5-4 1-4c.6 0 1-1.4 1-3 0-1.7.5-3 1-3 1.5 0 1.2-2.9-.4-4.6-2.1-2.1-4.6-1.7-4.6.6 0 1.1-.4 2-1 2-.5 0-1 .9-1 2s-.4 2-1 2c-.5 0-1 .7-1 1.6 0 .9-1.3 2.9-3 4.4-1.6 1.5-3 3.3-3 4 0 1.6-2.6 4-4.4 4-.9 0-1.6.4-1.6 1 0 .5-.9 1-2 1s-2 .4-2 1c0 .5-1.1 1-2.5 1-1.8 0-4.5-1.9-9-6.5-6.1-6-6.5-6.8-6.5-10.9 0-2.5.5-4.8 1-5.1.6-.3 1-5.2 1-11.1 0-6.3-.4-10.4-1-10.4-.5 0-1-.8-1-1.8s-.9-2.4-2-3.2c-1.1-.8-2-2.1-2-3 0-.9-.9-2.2-2-3-1.1-.8-2-2.2-2-3.2s-.4-1.8-1-1.8c-.5 0-1-1.4-1-3 0-1.7-.4-3-1-3-.5 0-1-1.8-1-4s.5-4 1-4c.6 0 1-1.3 1-2.8 0-1.6.8-3.4 2-4.2 1.1-.8 2-2 2-2.8 0-1.7 6.5-8.2 8.2-8.2.8 0 2-.9 2.8-2 .8-1.1 2.2-2 3.2-2s1.8-.5 1.8-1c0-.6.9-1 2-1s2.9-.6 4-1.2c1.6-1 2.4-1 4 0 1.1.6 2.9 1.2 4 1.2s2 .4 2 1c0 .5.7 1 1.6 1 1.8 0 4.4 2.3 4.4 4 0 .6 1.8 2.9 4 5s4 4.6 4 5.4c0 .9.5 1.6 1 1.6.6 0 1 .9 1 2s.5 2 1 2c.6 0 1 .9 1 2s.5 2 1 2c.6 0 1 1.3 1 3 0 1.6.5 3 1 3 .6 0 1 3.3 1 8s-.4 8-1 8c-2.1 0-1 7.1 1.5 9.6 2.2 2.2 2.7 2.3 4.7 1.2 1.3-.7 3-2.1 3.9-3.1 3.2-3.3 4.9-2.2 4.9 3.3 0 3.8-.4 5-1.5 5-.9 0-3.6 2-6 4.5-3.6 3.6-4.5 5.1-4.5 8 0 3.1.3 3.5 2.6 3.5 1.6 0 3.7-1.2 5.4-3 1.5-1.7 3.4-3 4.2-3 .7 0 2-.9 2.8-2 .8-1.1 1.8-2 2.2-2 1.2 0 1 9.8-.2 10.5-.5.3-1 4.6-1 9.5s-.4 9.2-1 9.5c-.6.4-1 20.3-1 56.5s.4 56.1 1 56.5c.6.4 1 6.8 1 16s.4 15.6 1 16c.6.3 1 4.8 1 10s.4 9.7 1 10c.6.3 1 3.5 1 7.1 0 3.6.4 6.4 1 6.4s1 3.3 1 8 .4 8 1 8 1 3 1 6.9c0 3.9.5 7.3 1 7.6.6.3 1 2.2 1 4 0 3.6 2 5.5 5.9 5.5 1.7 0 2.1-.6 2.1-3.4 0-1.9.5-3.8 1-4.1.6-.4 1-8.6 1-21.4 0-12.1.4-21.1 1-21.7.6-.6 1.2-15.8 1.5-37.4.7-57.1 1.4-77.3 2.6-79.6.7-1.3.8-4.7.4-9-.3-3.8-.8-12.3-1.1-18.9-.3-6.6-.9-12.4-1.4-13-.7-.8-1.5-27.6-1.1-35.8.1-2.3 3.3-2.2 5.1.3.8 1.1 2.2 2 3.2 2s1.8.4 1.8 1c0 .5.9 1 1.9 1 1.1 0 2.1.6 2.3 1.2.8 2.3 3.8-1.9 3.8-5.2 0-3.3-5.6-10-8.5-10-.8 0-1.5-.4-1.5-.9s-1.2-1.1-2.7-1.3c-2.5-.3-2.8-.7-3.1-4.6-.2-2.9.2-4.7 1.3-5.8 1.4-1.5 1.7-1.4 3.4.5 1 1.2 2.6 2.1 3.5 2.1.9 0 1.6.4 1.6.8 0 .5 1.1 1.4 2.4 2.2 2.2 1.1 2.7 1 5-1.3 2.6-2.6 2.6-2.7 2.6-19.1 0-9.9.4-16.7 1-17.1.6-.3 1-1.4 1-2.4 0-2.3 10.3-13.1 12.4-13.1.9 0 1.6-.5 1.6-1 0-.6.8-1 1.8-1s2.3-.5 2.8-1c.6-.6 5.8-1.1 11.7-1.1l10.6-.1 7.5 7.6 7.6 7.6v7.5c0 7.3-1.7 15.5-3.2 15.5-.5 0-.8.8-.8 1.8s-.9 2.4-2 3.2c-1.1.8-2 2.1-2 3 0 .9-.9 2.2-2 3-1.1.8-2 2.2-2 3.2s-.4 1.8-1 1.8c-.5 0-1 2.2-1 5 0 2.7.5 5 1 5 .6 0 1 4 1 10s-.4 10-1 10c-.5 0-1 .9-1 2s-.3 2-.7 2c-.5 0-1.6 1.4-2.5 3-.9 1.7-2.4 3-3.3 3-.8 0-1.5.3-1.5.7 0 .9-4.9 3.3-6.7 3.3-.7 0-1.3-.5-1.3-1 0-.6-.7-1-1.5-1-3.4 0-12.5-7.6-12.5-10.4 0-.8-.4-1.8-1-2.1-.5-.3-1-2.9-1-5.6 0-5.8-2.1-8.9-4.5-6.9-1.8 1.5-2.2 19-.5 19 .6 0 1 1.3 1 3 0 1.6.5 3 1 3 .6 0 1 .8 1 1.8s.9 2.4 2 3.2c1.1.8 2 2.1 2 3 0 .9.9 2.2 2 3 1.4 1 2 2.6 2 5.2 0 2.1-.4 3.8-1 3.8-.5 0-1 1.3-1 3 0 1.6-.4 3-1 3-.5 0-1 1.3-1 3 0 1.6-.4 3-1 3-.5 0-1 .6-1 1.3 0 .7-.9 2.3-2 3.5-1.1 1.2-2 2.7-2 3.4 0 .8-.9 2-2 2.8-1.1.8-2 2.2-2 3.2s-.4 1.8-1 1.8c-.5 0-1 .9-1 2s-.4 2-1 2c-.5 0-1 1.8-1 3.9 0 2.2-.4 4.3-1 4.6-.5.3-1 3.1-1 6.1 0 3-.4 5.4-1 5.4-.5 0-1 1.8-1 4s-.4 4-1 4c-.5 0-1 2-1 4.4 0 2.5-.4 4.8-1 5.1-1.2.7-1.4 10.5-.2 10.5 1.8 0 3.2-2.6 3.2-6.2 0-2.1.5-3.8 1-3.8.6 0 1-1.8 1-4s.5-4 1-4c.6 0 1-1.8 1-3.9 0-2.2.5-4.3 1-4.6.6-.3 1-3.1 1-6.1 0-3 .5-5.4 1-5.4.6 0 1-1.8 1-4s.5-4 1-4c.6 0 1-.9 1-2s.5-2 1-2c.6 0 1-.8 1-1.8s.9-2.4 2-3.2c1.1-.8 2-2.2 2-3.2s.5-1.8 1-1.8c.6 0 1-.9 1-2s.5-2 1-2c.6 0 1-.9 1-2s.5-2 1-2c.6 0 1-.9 1-2s.5-2 1-2c.6 0 1-1.8 1-4s.5-4 1-4c.6 0 1-1.4 1-3 0-2.3.4-3 2-3 1.8 0 2 .7 2 6 0 3.3-.4 6-1 6-.5 0-1 1.3-1 3 0 1.6-.4 3-1 3-.5 0-1 1.3-1 2.9 0 1.7-.4 3.3-1 3.6-.5.3-1 1.7-1 3.1 0 1.3-.4 2.4-1 2.4-.5 0-1 1.3-1 3 0 1.6-.4 3-1 3-.5 0-1 1.3-1 3 0 1.6-.4 3-1 3-.5 0-1 1.3-1 3 0 1.6-.4 3-1 3-.5 0-1 1.8-1 4s-.4 4-1 4c-.5 0-1 1.5-1 3.4s-.4 3.8-1 4.1c-.5.3-1 1.5-1 2.6 0 1-.4 1.9-1 1.9-.5 0-1 1.3-1 3 0 1.6-.4 3-1 3-.5 0-1 .9-1 2s-.4 2-1 2c-.5 0-1 1.1-1 2.4 0 1.4-.4 2.8-1 3.1-.6.3-1 1.5-1 2.6 0 1-.4 1.9-1 1.9-.5 0-1 .9-1 2s-.4 2-1 2c-.5 0-1 .9-1 2s-.4 2-1 2c-.5 0-1 .9-1 1.9 0 1.1-.4 2.3-1 2.6-.5.3-1 1.7-1 3.1 0 1.3-.4 2.4-1 2.4-.5 0-1 2.2-1 5 0 2.7-.4 5-1 5s-1 2.7-1 6-.4 6-1 6-1 2.8-1 6.4c0 3.6-.5 6.8-1 7.1-.6.4-1 6.7-1 15.5s-.4 15.1-1 15.5c-.6.3-1 5-1 10.5s-.4 10.2-1 10.5c-.5.3-1 2.4-1 4.6 0 2.1-.4 3.9-1 3.9-.5 0-1 1.3-1 3 0 1.6-.4 3-1 3-.5 0-1 1.3-1 3 0 1.6-.4 3-1 3-.5 0-1 .9-1 2s-.4 2-1 2c-.5 0-1 .7-1 1.6 0 .8-.7 2.2-1.6 3.1-1.4 1.4-1.8 1.2-5-2.1-1.9-2-3.4-4.3-3.4-5.1 0-.8-.4-1.5-1-1.5-.5 0-1-.9-1-2s-.4-2-1-2c-.5 0-1-.9-1-2s-.4-2.9-1-4c-.5-1.1-1.4-2.9-2-4-.5-1.1-1-3.1-1-4.4 0-1.4-.4-2.8-1-3.1-.5-.3-1-1.3-1-2.1s-1.1-2.6-2.5-4c-2.2-2.2-2.7-2.3-4-1-1.7 1.7-2.2 16.6-.5 16.6.6 0 1 1.8 1 4s.5 4 1 4c.6 0 1 .4 1 1s-9.5 1-26.4 1c-16.6 0-26.7.4-27.1 1-.3.5-3.3 1-6.5 1s-6.2.5-6.5 1c-.3.5-2.2 1-4.1 1-1.9 0-3.4.4-3.4 1 0 .5-.9 1-2 1s-2 .4-2 1c0 .5-.7 1-1.5 1-3.9 0-14.5 13.9-14.5 18.9 0 1.1-.4 2.3-1 2.6-.5.3-1 1.5-1 2.6 0 1 .5 1.9 1 1.9.6 0 1 1.3 1 3 0 2.8.2 3 4 3 2.2 0 4-.5 4-1 0-.6.8-1 1.8-1s2.4-.9 3.2-2c.8-1.1 2.2-2 3.2-2s1.8-.5 1.8-1c0-.6.6-1 1.3-1 .7 0 2.3-.9 3.5-2 1.2-1.1 2.8-2 3.7-2 .8 0 1.5-.3 1.5-.8 0-.8 4.9-3.2 6.7-3.2.7 0 1.3-.5 1.3-1 0-.6 1.8-1 3.9-1 2.2 0 4.3-.5 4.6-1 .3-.6 3-1 6-1s5.7-.5 6-1c.3-.6 3.7-1 7.5-1s7.2-.5 7.5-1c.3-.6 2.4-1 4.6-1 2.1 0 3.9-.5 3.9-1 0-.6 1.4-1 3-1 1.7 0 3-.4 3-.8s1.4-1.6 3-2.5c1.7-1 3-2.3 3-2.8 0-1.1 2.9-4.4 3.3-3.8.1.2.8 1.4 1.5 2.6.6 1.3 1.2 2.9 1.2 3.6 0 .7.9 1.9 2 2.7 1.1.8 2 2 2 2.8 0 1.7 1.6 3.3 5.3 5.1 1.5.8 2.7 1.8 2.7 2.3 0 .4 2 .8 4.5.8 3.5 0 5.2-.6 7-2.5 1.4-1.3 2.5-3.1 2.5-4 0-.8.5-1.5 1-1.5.6 0 1-.9 1-2s.5-2 1-2c.6 0 1-1.1 1-2.4 0-1.4.5-2.8 1-3.1.6-.3 1-1.5 1-2.6 0-1 .5-1.9 1-1.9.6 0 1-1.3 1-2.9 0-1.7.4-3.2.9-3.5 1.1-.7 2.1-6.9 2.7-17.4.3-4.5 1-8.2 1.5-8.2s.9-2.7.9-6 .4-6 1-6 1-3 1-7 .4-7 1-7 1-3 1-7 .4-7 1-7 1-2.3 1-5c0-2.8.5-5 1-5 .6 0 1-2.7 1-6s.4-6 .9-6 1.2-1.6 1.5-3.5c.3-1.9.9-5.1 1.2-7 .3-1.9 1-3.5 1.5-3.5s.9-1.4.9-3c0-1.7.5-3 1-3 .6 0 1-1 1-2.2 0-2.3 1.6-8.1 3.1-11 .5-1 .9-2.9.9-4.3s.5-2.5 1-2.5c.6 0 1-1.4 1-3 0-1.7.5-3 1-3 .6 0 1-1.4 1-3 0-1.7.5-3 1-3 .6 0 1-1.8 1-4s.5-4 1-4c.6 0 1-1.4 1-3 0-1.7.5-3 1-3 .6 0 1-1.4 1-3 0-1.7.5-3 1-3 .6 0 1-1.4 1-3 0-1.7.5-3 1-3 .6 0 1-1.4 1-3 0-1.7.5-3 1-3 .6 0 1-1.3 1-2.9 0-1.7.5-3.3 1-3.6.6-.3 1-2.2 1-4.1 0-1.9.5-3.4 1-3.4.6 0 1-1.5 1-3.4s.5-3.8 1-4.1c.6-.3 1-2.8 1-5.6 0-2.7.5-4.9 1-4.9.6 0 1-1.2 1-2.6 0-2.6 2-5.4 3.9-5.4.6 0 3-1.8 5.2-4 2.3-2.2 4.6-4 5.1-4 .6 0 2.6-1.7 4.4-3.7 3.3-3.6 3.4-3.9 3.4-12.4 0-4.8-.4-9.1-1-9.4-.5-.3-1-1.7-1-3s.5-2.7 1-3c.6-.3 1-1.6 1-2.9 0-1.2.9-3.2 2-4.4 1.1-1.2 2-2.8 2-3.7 0-.8.5-1.5 1-1.5.6 0 1-.9 1-2s.5-2 1-2c.6 0 1-.9 1-2s.5-2 1-2c.6 0 1-1.5 1-3.4s.5-3.8 1-4.1c2.5-1.5.4-26.5-2.2-26.5-.5 0-.8-.9-.8-2s-.4-2-1-2c-.5 0-1-.7-1-1.6 0-.9-1.3-2.9-3-4.4-3-2.8-3-2.9-3-13.4 0-6.4-.4-10.6-1-10.6-.5 0-1-1.8-1-4s-.4-4-1-4c-.5 0-1-1.4-1-3 0-1.7-.4-3-1-3-.5 0-1-1.4-1-3 0-1.7-.4-3-1-3-.5 0-1-.9-1-2s-.4-2-1-2c-.5 0-1-.7-1-1.5 0-1.9-19.2-21.1-22-22-1.1-.3-2-1.1-2-1.6s-.9-.9-2-.9-2-.5-2-1c0-.6-.9-1-2-1s-2-.5-2-1c0-.6-1.3-1-3-1-1.6 0-3-.5-3-1 0-.6-2.2-1-5-1-2.7 0-5-.5-5-1 0-.6-5.7-1-15-1s-15-.4-15-1-3.5-1-8.4-1c-4.7 0-8.8.4-9.1 1zm28 12c.3.5 3.5 1 7.1 1 3.6 0 6.4.4 6.4 1 0 .5 1.8 1 4 1s4 .4 4 1c0 .5 1.4 1 3 1 1.7 0 3 .4 3 1 0 .5.9 1 2 1 1.8 0 2 .7 2 6 0 3.3.4 6 1 6s1 .8 1 1.8.9 2.4 2 3.2c2.1 1.5 2.8 5 1 5-.5 0-1 1.1-1 2.5 0 1.5-.7 2.8-1.7 3.2-1 .4-2.5 1.5-3.4 2.5-.9 1-2.2 1.8-2.8 1.8-.7 0-2.3 1.1-3.6 2.5-2.2 2.1-2.5 3.3-2.5 9.9 0 4.1-.4 7.8-1 8.1-.5.3-1 1.5-1 2.6 0 2.4-2.2 4.9-4.4 4.9-.9 0-1.6.4-1.6 1 0 .5-.9 1-2 1s-2 .4-2 1c0 .5-.9 1-2 1s-2 .4-2 1c0 .5-1.3 1-3 1-1.6 0-3 .4-3 1 0 .5-.7 1-1.5 1-.9 0-3.1 1.6-5 3.5l-3.5 3.4v11.6c0 7 .4 11.5 1 11.5s1 .9 1 2c0 2.1 1.9 2.8 2.1.7 0-.6 0-6.2-.1-12.4-.1-10.8 0-11.3 2.4-13.8 1.4-1.4 3.2-2.5 4.1-2.5.8 0 1.5-.5 1.5-1 0-.6 1.4-1 3-1 1.7 0 3-.5 3-1 0-.6.9-1 2-1s2-.4 2-.9 1.3-1.1 2.8-1.4c4.7-1 9.2-5.9 9.2-10.1 0-2 .5-3.6 1-3.6.6 0 1-2.8 1-6.5 0-5.7.3-6.9 2.5-9 1.3-1.4 2.9-2.5 3.5-2.5 2.1 0 8-6.9 8-9.5 0-1.4.5-2.5 1-2.5 1.8 0 1.2-7-.7-7.7-3.1-1.2-4.3-3.1-4.3-6.7 0-2.6.4-3.6 1.5-3.6 1.9 0 14.5 12.4 14.5 14.3 0 .7.9 1.9 2 2.7 1.1.8 2 2.2 2 3.2s.5 1.8 1 1.8c.6 0 1 .9 1 1.9 0 1.1.5 2.3 1 2.6.6.3 1 1.9 1 3.5s.5 3.2 1 3.5c.6.3 1 3.3 1 6.6s-.4 5.9-1 5.9c-.5 0-1-.5-1-1 0-.6-2.2-1-5-1-2.7 0-5 .4-5 1 0 .5-2.2 1-5 1-2.7 0-5 .4-5 1 0 .5-.9 1-2 1s-2 .4-2 1c0 .5-.7 1-1.6 1-.8 0-3.6 2.2-6.2 4.8-2.6 2.7-6 5.6-7.5 6.6s-2.7 2.4-2.7 3c0 .6-.9 1.8-2 2.6s-2 2-2 2.8c0 .7-.9 2.2-2 3.4-1.7 1.9-2 3.6-2 12.5 0 6.2-.4 10.3-1 10.3-.5 0-1-.5-1-1 0-.6-2.1-1-4.6-1-3.7 0-4.7.4-5.1 2-.3 1.1-.9 2-1.4 2-.5 0-.9 4.5-.9 10 0 6-.4 10-1 10s-1 2.6-1 5.9c0 3.3-.4 6.3-1 6.6-.5.3-1 2.1-1 4s.5 3.7 1 4c.6.4 1 6.6 1 15.4 0 9 .4 15.1 1.1 15.8 1.4 1.4 1.3 75.7-.1 76.1-.6.2-1 13.6-1 38.2 0 24.2-.4 38.1-1 38.5-.6.4-1 8.8-1 22.1 0 11.8-.4 21.4-.8 21.4-2.2 0-3.2-2.9-3.2-9.2 0-3.9-.4-6.8-1-6.8s-1-3-1-6.9c0-3.9-.4-7.3-1-7.6-.5-.3-1-3.5-1-7s-.4-6.7-1-7c-.6-.3-1-4.8-1-10.1 0-5.6-.4-9.4-1-9.4s-1-6.1-1-16.4c0-9.9-.4-16.7-1-17.1-.6-.4-1-19.7-1-54.6 0-35.3.3-53.9 1-53.9.6 0 1-3.7 1-9s.4-9 1-9 1-4.3 1-10.8c0-9.6-.2-10.9-2-12.2-1.8-1.3-2-2.6-2-10.8 0-10.2-.9-12.2-5.4-12.2-1.9 0-2.6-.5-2.6-2 0-1.1.5-2 1-2 .6 0 1-.9 1-2s-.4-2-1-2c-.5 0-1-1.8-1-4s-.4-4-1-4c-.5 0-1-.6-1-1.4 0-1.6-6.2-14-7.2-14.4-.5-.2-.8-1.2-.8-2.3 0-1-.7-1.9-1.5-1.9-.9 0-3.1-1.5-5-3.4s-4.3-3.7-5.5-4.1c-1.1-.3-2-1.1-2-1.6s-.6-.9-1.3-.9c-.7 0-2.3-.9-3.5-2-1.2-1.1-2.8-2-3.6-2-.8 0-1.8-.5-2.1-1-.3-.6-4.4-1-9.1-1H316v-4.9c0-2.8.5-5.3 1-5.6.6-.3 1-2.2 1-4.1 0-1.9.5-3.4 1-3.4.6 0 1-1.4 1-3 0-1.7.5-3 1-3 .6 0 1-.8 1-1.8s.9-2.4 2-3.2c1.1-.8 2-2 2-2.7 0-1.7 8.6-10.3 10.3-10.3.7 0 1.9-.9 2.7-2 2-2.7 3-2.5 3 .6 0 1.6-1.2 3.7-3 5.4-1.6 1.5-3 3.5-3 4.4 0 .9-.4 1.6-1 1.6-.5 0-1 .9-1 2s.5 2 1 2c.6 0 1 1.8 1 4s.5 4 1 4c.6 0 1 1.1 1 2.5 0 2.4 3.9 7.5 5.7 7.5.4 0 2 1.1 3.6 2.4 2.5 2.1 2.7 2.9 2.7 9.5 0 6.3.3 7.5 2.5 9.6 1.3 1.4 2.9 2.5 3.6 2.5.6 0 2.4 1.3 3.9 3 1.5 1.6 3.3 3 3.9 3 .6 0 4.1 2.9 7.6 6.5l6.5 6.5v10.1c0 7.4.4 10.4 1.4 11.5.8.8 1.7 1.4 2 1.4.3 0 .6-6.3.6-14 0-12-.2-14-1.6-14-.8 0-3.7-2.3-6.4-5-2.7-2.8-5.4-5-6-5-.7 0-2.5-1.4-4-3-1.5-1.7-3.3-3-3.9-3-.7 0-2.3-1.1-3.6-2.5-2.2-2.1-2.5-3.3-2.5-9.5s-.3-7.4-2.5-9.5c-1.3-1.4-2.9-2.5-3.5-2.5-2.1 0-6-4.9-6-7.5 0-1.4-.4-2.5-1-2.5-.5 0-1-1.8-1-3.9 0-2.3-.5-4.1-1.2-4.4-.8-.2-.1-1.5 2-3.4 1.7-1.7 3.2-3.8 3.2-4.7 0-.9.5-1.6 1-1.6.6 0 1-1.6 1-3.6 0-4 1.8-6.4 4.9-6.4 1.1 0 2.3-.5 2.6-1 .3-.6 2.1-1 4-1s3.7-.5 4-1c.3-.6 2.4-1 4.5-1s4.2-.5 4.5-1c.4-.6 6.2-1 14-1s13.6.4 14 1zM200 421.8c0 1 .9 2.4 2 3.2 1.1.8 2 2.2 2 3.2s.5 1.8 1 1.8c.6 0 1 .7 1 1.5 0 .9.9 2.5 2 3.7 1.1 1.2 2 2.8 2 3.5 0 .7.5 1.3 1 1.3.6 0 1 .9 1 2s.5 2 1 2c.6 0 1 .9 1 2s.5 2 1 2c.6 0 1 .6 1 1.3 0 .7.9 2.3 2 3.5 1.1 1.2 2 2.8 2 3.7 0 .8.5 1.5 1 1.5.6 0 1 .6 1 1.3 0 .7.9 2.3 2 3.5 1.1 1.2 2 2.7 2 3.4 0 .8.9 2 2 2.8 1.1.8 2 2.1 2 3 0 .9.9 2.2 2 3 1.1.8 2 2.2 2 3.2s.5 1.8 1 1.8c.6 0 1 .8 1 1.8s.9 2.4 2 3.2c1.1.8 2 2.2 2 3.2s.5 1.8 1 1.8c.6 0 1 .8 1 1.8s.9 2.4 2 3.2c1.1.8 2 2.2 2 3.2s.5 1.8 1 1.8c.6 0 1 .9 1 2s.5 2 1 2c.6 0 1 .8 1 1.8s.9 2.4 2 3.2c1.1.8 2 2 2 2.8 0 .7.9 2.2 2 3.4 1.1 1.2 2 2.8 2 3.5 0 .7.5 1.3 1 1.3.6 0 1 .9 1 2s.5 2 1 2c.6 0 1 .9 1 2s.5 2 1 2c.6 0 1 .9 1 2s.5 2 1 2c.6 0 1 .9 1 2 0 1.6-.7 2-3 2-1.6 0-3-.5-3-1 0-.6-.9-1-2-1s-2-.5-2-1c0-.6-1.8-1-4-1s-4-.5-4-1c0-.6-2.2-1-5-1-2.7 0-5-.5-5-1 0-.6-2.8-1-6.4-1-3.6 0-6.7-.4-7-.9-.6-.9-17.7-2.4-27.6-2.3-11.3.1-25 1.4-25 2.3 0 .5-3.1.9-7 .9-4 0-7 .4-7 1 0 .5-2.2 1-4.9 1-2.8 0-5.3.4-5.6 1-.3.5-2.6 1-5.1 1-2.4 0-4.4.4-4.4 1 0 .5-1.3 1-3 1-3.5 0-3.8-1-1-3 1.1-.8 2-2.1 2-3 0-.9.9-2.2 2-3 1.1-.8 2-2 2-2.8 0-.7 1.1-2.4 2.4-3.7 1.4-1.3 2.7-3.4 3.1-4.5.3-1.1 1.1-2 1.6-2s.9-.9.9-2 .5-2 1-2c.6 0 1-.9 1-2s.5-2 1-2c.6 0 1-.9 1-2s.5-2 1-2c.6 0 1-.9 1-2s.5-2 1-2c.6 0 1-.9 1-2s.5-2 1-2c.6 0 1-.9 1-2s.5-2 1-2c.6 0 1-.9 1-2s.5-2 1-2c.6 0 1-.9 1-2s.3-2 .8-2c.8 0 3.2-4.8 3.2-6.5 0-.6.9-1.7 2-2.5s2-2.2 2-3.2.5-1.8 1-1.8c.6 0 1-.9 1-2s.5-2 1-2c.6 0 1-.9 1-2s.5-2 1-2c.6 0 1-.9 1-2s.4-2 .8-2c.5 0 2-2.1 3.3-4.8 1.3-2.6 2.7-4.9 3.2-5 .4-.2.7-1.2.7-2.3 0-1 .5-1.9 1-1.9.6 0 1-.8 1-1.8s.9-2.4 2-3.2c1.1-.8 2-2.2 2-3.2s.5-1.8 1-1.8c.6 0 1-.8 1-1.8s.9-2.4 2-3.2c1.1-.8 2-2.2 2-3.2 0-1.1.7-1.8 2-1.8s2 .7 2 1.8zm-4.4 117.1c.5.6 6.5 1.2 13.4 1.5 15.7.6 24.2 1.5 25.4 2.7.6.5 2.9.9 5.2.9 2.4 0 4.6.4 4.9 1 .3.5 2.2 1 4.1 1 1.9 0 3.4.4 3.4 1 0 .5 1.4 1 3 1 1.7 0 3 .4 3 1 0 .5.9 1 2 1s2 .4 2 1c0 .5.7 1 1.5 1 .9 0 2.7 1.1 4.1 2.5 2.2 2.2 2.3 2.7 1 4-.8.8-2.1 1.5-2.8 1.5-.8 0-2 .9-2.8 2-.8 1.1-2.2 2-3.2 2s-1.8.4-1.8 1c0 .5-1.3 1-3 1-1.6 0-3 .4-3 1 0 .5-1.7 1-3.8 1-2.1 0-4.2.4-4.8.9-1.8 1.9-61.6 3.8-64.9 2.2-1.1-.6-5.8-1.3-10.5-1.5-13.1-.8-20-1.7-20-2.7 0-.5-1.8-.9-4-.9s-4-.5-4-1c0-.6-.9-1-2-1s-2-.5-2-1c0-.6-.7-1-1.5-1-1.8 0-6.5-4.4-6.5-6 0-1.6 4.7-6 6.5-6 .8 0 1.5-.5 1.5-1 0-.6 1.4-1 3-1 1.7 0 3-.5 3-1 0-.6 1.4-1 3-1 1.7 0 3-.5 3-1 0-.6 1.5-1 3.4-1s3.8-.5 4.1-1c.3-.6 2.8-1 5.6-1 2.7 0 4.9-.5 4.9-1 0-.6 4.3-1 10.8-1.1 5.9 0 11.6-.4 12.7-.9 2.7-1.2 4.9-1.2 6.1-.1z"/><path d="M448 159c0 .5-.6 1-1.3 1-1.8 0-6.7 2.4-6.7 3.2 0 .5-.7.8-1.5.8-2 0-12.5 10.5-12.5 12.5 0 .8-.4 1.5-1 1.5s-1 6-1 16 .4 16 1 16 1 1.8 1 4 .5 4 1 4c.6 0 1 .9 1 2s.5 2 1 2c.6 0 1 .9 1 2s.4 2 .8 2c.5 0 1.5 1.2 2.3 2.7.8 1.6 2.8 4.3 4.6 6 2.8 2.9 3.9 3.3 8.3 3.3 4.1 0 5.6-.5 7.5-2.5 1.4-1.3 2.5-3.6 2.5-5s.5-2.5 1.1-2.5c.7 0 .9-1.3.4-3.8-.3-2-.9-6.3-1.2-9.4l-.5-5.8 5.1-4.9c2.8-2.7 5.1-5.7 5.1-6.5 0-.9.5-1.6 1-1.6.6 0 1-.9 1-2s.5-2 1-2c.6 0 1-3.8 1-9.4 0-5.3-.4-9.8-1-10.1-.5-.3-1-1.5-1-2.6 0-1-.4-1.9-1-1.9-.5 0-1-.7-1-1.6 0-.9-1.5-3.1-3.4-5-3.1-3.1-4-3.4-9-3.4-3.1 0-5.6.4-5.6 1zm-128 4c0 .5-1.3 1-3 1-1.6 0-3 .4-3 .8s-1.3 1.6-3 2.5c-1.6 1-3 2.5-3 3.3 0 .8-.4 1.4-1 1.4-.5 0-1 1.3-1 3 0 1.6-.4 3-1 3-.5 0-1 1.5-1 3.4s.5 3.8 1 4.1c.6.3 1 1.5 1 2.6 0 1 .5 1.9 1 1.9.6 0 1 .7 1 1.6 0 .8 2.3 3.7 5 6.4 2.8 2.7 5 5.6 5 6.4 0 .9.5 1.6 1 1.6.6 0 1 5 1 13s.4 13 1 13 1 .7 1 1.6c0 4.7 7.5 6 11.5 1.9 1.4-1.3 2.5-3 2.5-3.7 0-.8.9-2 2-2.8 1.1-.8 2-2.2 2-3.2s.5-1.8 1-1.8c.6 0 1-.9 1-2s.3-2 .8-2c.8 0 3.2-4.9 3.2-6.7 0-.7.5-1.3 1-1.3.6 0 1-1.1 1-2.4 0-1.4.5-2.8 1-3.1 1.3-.8 1.3-19.9.1-22.3-.5-.9-1.6-3.2-2.3-5-.7-1.7-1.6-3.2-2-3.2-.5 0-.8-.7-.8-1.6 0-1.9-6.8-8.4-8.7-8.4-.7 0-1.3-.5-1.3-1 0-.6-1.3-1-3-1-1.6 0-3-.5-3-1 0-.6-1.8-1-4-1s-4 .4-4 1zm89.3 90.5c-1.8 1.9-3.3 4.1-3.3 5 0 .8-.4 1.5-1 1.5-.5 0-1 2.1-1 4.7s-.5 6.2-1.2 8c-1 2.7-1 3.8 0 5.3.7 1.1 1.2 4 1.2 6.6 0 5.3 2.1 8.4 4.5 6.4.8-.7 1.5-2.1 1.5-3.1 0-1.1.5-1.9 1-1.9.6 0 1-.7 1-1.5s1.8-3.4 4-5.6c2.2-2.3 4-4.7 4-5.3 0-.6.9-1.8 2-2.6 1.6-1.1 2-2.6 2-7s-.4-5.9-2-7c-1.1-.8-2-2-2-2.8 0-2.1-2.6-4.2-5.2-4.1-1.3 0-3.8 1.6-5.5 3.4zm-59 .8c-1.9 1.9-2.3 3.3-2.3 9 0 3.8.4 6.7 1 6.7s1 .8 1 1.8.9 2.4 2 3.2c1.1.8 2 2 2 2.7 0 1.9 8.6 10.3 10.5 10.3.8 0 1.5.4 1.5 1 0 .5.6 1 1.3 1 .9 0 1.1-3 .9-12.7-.2-7.1-.8-13-1.3-13.1-.5-.2-.9-1.3-.9-2.5s-1-3.4-2.3-4.8c-4.6-5.3-9.7-6.3-13.4-2.6zm115.1 69.1c-2.6 2.9-3.4 5.9-3.4 12.6 0 6.7-.2 7.4-3 10-1.6 1.5-3 3.3-3 4 0 .6-1.8 2.9-4 5s-4 4.4-4 5c0 .6-2.7 3.8-6 7s-6 6.4-6 7c0 .7-1.3 2.5-3 4-1.6 1.5-3 3.5-3 4.4 0 .9-.4 1.6-1 1.6-.5 0-1 .9-1 2s-.4 2-1 2c-.5 0-1 2.2-1 5v5h4c2.2 0 4-.5 4-1 0-.6 1.1-1 2.4-1 2.7 0 10-3.5 13-6.3 1.1-.9 2.4-1.7 2.9-1.7s2.6-1.8 4.7-4 4.4-4 5-4c.6 0 3.8-2.7 7-6s6.4-6 7-6c.5 0 2.4-1.4 4.2-3 1.7-1.7 3.7-3 4.4-3 .8 0 1.4-.5 1.4-1 0-.6 2.7-1 6-1s6 .4 6 1c0 .5 1.5 1 3.4 1s3.8.4 4.1 1c.3.5 2.8 1 5.6 1 2.7 0 4.9.4 4.9 1 0 .5 2.3 1 5 1 2.8 0 5 .4 5 1 0 .5 2.3 1 5 1 2.8 0 5 .4 5 1 0 .5 2 1 4.4 1 2.5 0 4.8.4 5.1 1 .3.5 2.5 1 4.8 1 4.6.1 7.7 1.8 7.7 4.4 0 .9.5 1.6 1 1.6.6 0 1 3.5 1 8.5 0 8.4.1 8.6 3.5 12 2.1 2.2 4.4 3.5 6 3.5 2.3 0 2.5.4 2.5 4 0 2.2-.4 4-1 4-.5 0-1 .9-1 2s-.4 2-1 2c-.5 0-1 .6-1 1.3 0 .7-.9 2.3-2 3.5-1.1 1.2-2 2.8-2 3.7 0 .8-.4 1.5-1 1.5-.5 0-1 .8-1 1.8s-.9 2.4-2 3.2c-1.1.8-2 2.2-2 3.2s-.4 1.8-1 1.8c-.5 0-1 .9-1 2s-.4 2-1 2c-.5 0-1 .8-1 1.8s-.9 2.4-2 3.2c-1.1.8-2 2.2-2 3.2s-.4 1.8-1 1.8c-.5 0-1 .7-1 1.5 0 .9-.9 2.5-2 3.7-1.1 1.2-2 2.8-2 3.5 0 .7-.4 1.3-1 1.3-.5 0-1 .9-1 2s-.4 2-.9 2-1.4 1.3-2.1 3c-.7 1.6-1.6 3-2.1 3s-.9.9-.9 2-.4 2-1 2c-.5 0-1 .9-1 2s-.4 2-1 2c-.5 0-1 .8-1 1.8s-.9 2.4-2 3.2c-1.1.8-2 1.9-2 2.5 0 1.7-2.4 6.5-3.2 6.5-.5 0-.8.9-.8 2s-.4 2-1 2c-.5 0-1 .8-1 1.8s-.9 2.4-2 3.2c-1.1.8-2 2.2-2 3.2s-.4 1.8-1 1.8c-.5 0-1 .7-1 1.5 0 .9-.9 2.5-2 3.7-1.1 1.2-2 2.8-2 3.5 0 .7-.4 1.3-1 1.3-.5 0-1 .9-1 2s-.4 2-1 2c-.5 0-1 .9-1 2s-.4 2-1 2c-.5 0-1 .9-1 2s-.3 2-.7 2c-.9 0-3.3 4.9-3.3 6.7 0 .7-.4 1.3-1 1.3-.5 0-1 1.6-1 3.6 0 2.7-.7 4.3-3 6.4-1.8 1.7-3 3.8-3 5.4 0 1.4-.4 2.6-1 2.6-.5 0-1 2.2-1 5 0 2.7.5 5 1 5 .6 0 1 1.2 1 2.6 0 1.6 1.2 3.7 3 5.4 1.7 1.5 3 3.4 3 4.2 0 .7.9 2 2 2.8 1.1.8 2 2 2 2.7 0 .7 2.7 4 6 7.5 3.3 3.4 6 6.6 6 7.1 0 1.1 5.9 6.7 7.1 6.7.4 0 2.3 1.5 4.2 3.2 3.9 3.8 7 5.8 9.2 5.8.8 0 1.5.4 1.5 1 0 .5 1.4 1 3 1 1.7 0 3 .4 3 .9 0 1 12.4 2.1 24 2.2 12.6.1 38-1.4 38-2.2 0-.5 1.8-.9 4-.9s4-.5 4-1c0-.6.8-1 1.8-1s2.4-.9 3.2-2c.8-1.1 2-2 2.8-2 1.5 0 16.2-14.7 16.2-16.2 0-.5 1.4-2.3 3-3.8 1.7-1.5 3-3.4 3-4.2 0-.7.9-2 2-2.8 1.1-.8 2-2 2-2.8 0-.7 3.2-4.4 7-8.2 7-6.9 7-6.9 7-12.5 0-3-.4-5.5-1-5.5-.5 0-1-.7-1-1.6 0-1.8-1.5-3.4-5.2-5.3-1.6-.8-2.8-1.8-2.8-2.3 0-.4-.9-.8-2-.8s-2-.5-2-1c0-.6-.9-1-2-1-1.3 0-2-.7-2-2 0-1.1-.4-2-1-2-.5 0-1-.9-1-2s-.4-2-1-2c-.5 0-1-.9-1-2s-.4-2-1-2c-.5 0-1-.9-1-2s-.4-2-1-2c-.5 0-1-.9-1-2s-.4-2-1-2c-.5 0-1-.9-1-2s-.4-2-1-2c-.5 0-1-.9-1-2s-.4-2-1-2c-.5 0-1-.9-1-2s-.4-2-1-2c-.5 0-1-.8-1-1.8s-.9-2.4-2-3.2c-1.1-.8-2-2.2-2-3.2s-.4-1.8-1-1.8c-.5 0-1-.7-1-1.5 0-.9-.9-2.5-2-3.7-1.1-1.2-2-2.8-2-3.5 0-.7-.4-1.3-1-1.3-.5 0-1-.9-1-2s-.4-2-1-2c-.5 0-1-.8-1-1.8s-.9-2.4-2-3.2c-1.1-.8-2-2.2-2-3.2s-.4-1.8-1-1.8c-.5 0-1-.9-1-2s-.4-2-1-2c-.5 0-1-.8-1-1.8s-.9-2.4-2-3.2c-1.1-.8-2-2.2-2-3.2s-.4-1.8-1-1.8c-.5 0-1-.8-1-1.8s-.9-2.4-2-3.2c-1.1-.8-2-2.1-2-3 0-.9-.9-2.2-2-3-1.1-.8-2-2.2-2-3.2s-.4-1.8-1-1.8c-.5 0-1-.9-1-2s-.4-2-1-2c-.5 0-1-.9-1-2s-.4-2-.9-2-1.4-1.4-2.1-3c-.7-1.7-1.6-3-2.1-3s-.9-.7-.9-1.5c0-.9-.9-2.5-2-3.7-1.1-1.2-2-2.8-2-3.5 0-.7-.4-1.3-1-1.3-.5 0-1-.9-1-2s-.4-2-1-2c-.5 0-1-.9-1-2s.5-2 1-2c.6 0 1-1.8 1-4 0-2.5.5-4 1.3-4 2.1 0 6.7-4.6 6.7-6.8 0-1.1.5-2.4 1-2.7.6-.4 1-5.7 1-12.6 0-7.3-.4-11.9-1-11.9-.5 0-1-1.4-1-3 0-1.7-.4-3-1-3-.5 0-1-1.3-1-2.9 0-1.7.5-3.3 1-3.6.6-.3 1-1.7 1-3.1 0-1.3-.4-2.4-1-2.4-.5 0-1-.9-1-2s.5-2 1-2c.6 0 1-1.4 1-3 0-2.3-.4-3-2-3-1.1 0-2-.5-2-1 0-.6-.9-1-2-1s-2-.5-2-1c0-.6-5-1-13-1s-13 .4-13 1-3.6 1-8.9 1c-5 0-9.3.4-9.6 1-.4.6-5.5 1-12.1 1-6.9 0-11.4-.4-11.4-1s-1.8-1-4-1-4-.5-4-1c0-.6-.8-1-1.8-1s-2.4-.9-3.2-2c-.8-1.1-2.1-2-3-2-.9 0-2.2-.9-3-2-.8-1.1-2.2-2-3.2-2s-1.8-.5-1.8-1c0-.6-.9-1-2-1s-2-.5-2-1c0-.6-1.3-1-3-1-1.6 0-3-.5-3-1 0-1.5-7.3-1.2-8.6.4zm109.2 98c.8.8 1.4 2.2 1.4 3 0 .9.5 1.6 1 1.6.6 0 1 .8 1 1.8s.9 2.4 2 3.2c1.1.8 2 2.2 2 3.2s.5 1.8 1 1.8c.6 0 1 .9 1 2s.5 2 1 2c.6 0 1 .8 1 1.8s.9 2.4 2 3.2c1.1.8 2 2.2 2 3.2s.5 1.8 1 1.8c.6 0 1 .8 1 1.8s.9 2.4 2 3.2c1.1.8 2 2.1 2 3 0 .9.9 2.2 2 3 1.1.8 2 2.2 2 3.2s.5 1.8 1 1.8c.6 0 1 .9 1 2s.5 2 1 2c.6 0 1 .6 1 1.3 0 .7.9 2.3 2 3.5 1.1 1.2 2 2.8 2 3.7 0 .8.5 1.5 1 1.5.6 0 1 .9 1 2s.5 2 1 2c.6 0 1 .6 1 1.3 0 .7.9 2.3 2 3.5 1.1 1.2 2 2.8 2 3.7 0 .8.5 1.5 1 1.5.6 0 1 .8 1 1.8s.9 2.4 2 3.2c1.1.8 2 2.2 2 3.2s.5 1.8 1 1.8c.6 0 1 .9 1 2s.5 2 1 2c.6 0 1 .9 1 2s.5 2 1 2c.6 0 1 .9 1 2s.5 2 1 2c.6 0 1 .9 1 2s.5 2 1 2c.6 0 1 .9 1 2s.5 2 1 2c.6 0 1 .9 1 2s.5 2 1 2c.6 0 1 .9 1 2s.5 2 1 2c.6 0 1 .9 1 2s-.4 2-1 2c-.5 0-1-.5-1-1 0-.6-2.2-1-5-1-2.7 0-5-.5-5-1 0-.6-2.2-1-5-1-2.7 0-5-.5-5-1 0-.6-2.7-1-6-1s-6-.4-6-1-3.3-1-7.9-1c-4.4 0-8.3-.5-8.6-1-.4-.6-8-1-19.5-1s-19.1.4-19.5 1c-.3.5-3.3 1-6.6 1s-5.9.4-5.9 1c0 .5-1.8 1-3.9 1-2.2 0-4.3.4-4.6 1-.3.5-2.2 1-4.1 1-1.9 0-3.4.4-3.4 1 0 .5-1.3 1-2.9 1-1.7 0-3.3.4-3.6 1-.3.5-1.7 1-3.1 1-1.3 0-2.4.4-2.4 1 0 .5-.9 1-2 1s-2-.5-2-1c0-.6.5-1 1-1 .6 0 1-.9 1-1.9 0-1.1.5-2.3 1-2.6.6-.3 1-1.4 1-2.4 0-.9.9-2.7 2-3.9 1.1-1.2 2-2.8 2-3.7 0-.8.5-1.5 1-1.5.6 0 1-.9 1-2s.5-2 1-2c.6 0 1-.8 1-1.8s.9-2.4 2-3.2c1.1-.8 2-2.2 2-3.2s.5-1.8 1-1.8c.6 0 1-.7 1-1.5 0-.9.9-2.5 2-3.7 1.1-1.2 2-2.8 2-3.5 0-.7.5-1.3 1-1.3.6 0 1-.9 1-2s.5-2 1-2c.6 0 1-.9 1-2s.5-2 1-2c.6 0 1-.9 1-2s.5-2 1-2c.6 0 1-.8 1-1.8s.9-2.4 2-3.2c1.1-.8 2-2.2 2-3.2s.5-1.8 1-1.8c.6 0 1-.9 1-2s.5-2 1-2c.6 0 1-.6 1-1.3 0-.7.9-2.3 2-3.5 1.1-1.2 2-2.8 2-3.7 0-.8.5-1.5 1-1.5.6 0 1-.8 1-1.8s.9-2.4 2-3.2c1.1-.8 2-2.2 2-3.2s.5-1.8 1-1.8c.6 0 1-.9 1-2s.5-2 1-2c.6 0 1-.8 1-1.8s.9-2.4 2-3.2c1.1-.8 2-2.2 2-3.2s.5-1.8 1-1.8c.6 0 1-.9 1-2s.5-2 1-2c.6 0 1-.8 1-1.8s.9-2.4 2-3.2c1.1-.8 2-2 2-2.8 0-1.7 2.2-4.1 3.8-4.2.7 0 2 .6 2.8 1.4zM614.5 543c.3.5 2.6 1 5.1 1 2.4 0 4.4.4 4.4 1 0 .5 1.4 1 3 1 1.7 0 3 .4 3 1 0 .5.9 1 2 1s2 .4 2 1c0 .5.8 1 1.8 1s2.4.9 3.2 2c.8 1.1 2.2 2 3.2 2 1.3 0 1.8.8 1.8 3 0 2.3-.4 3-2 3-1.1 0-2 .4-2 1 0 .5-1.3 1-3 1-1.6 0-3 .4-3 1s-8 1-21.9 1c-13.6 0-22.2.4-22.6 1-.4.6-14.3 1-38.3 1h-37.7l-2.7-2.4c-2.2-1.8-2.8-3.2-2.8-6.2 0-4.4 3.5-9.4 6.7-9.4 1 0 2.3-.4 2.9-.9 1-1.1 10.1-1.9 27.9-2.7 6.6-.3 12.4-.9 13-1.5 1.3-1.3 55.2-1.2 56 .1z"/><path d="M590.8 346.4c-1.6 1.3-2.8 3.1-2.8 4 0 .9-.4 1.6-1 1.6s-1 3-1 7 .4 7 1 7 1 .7 1 1.5c0 .9.8 1.9 1.8 2.2.9.4 2 1.1 2.4 1.7.4.6 3 1 5.8.9 3.8-.2 5.6-.8 7.5-2.7 1.4-1.4 2.5-3.2 2.5-4.1 0-.8.5-1.5 1-1.5.6 0 1-2.5 1-5.5 0-5-.3-5.9-3.5-9-2.6-2.7-4.3-3.5-7-3.5-1.9 0-3.5-.5-3.5-1 0-1.7-2.4-1.1-5.2 1.4zm-420.2.9c-1.1.7-3.5 2.6-5.3 4.4-2.9 2.8-3.3 3.9-3.3 8.4 0 4.8.3 5.4 4.7 9.5 4.1 3.9 5.2 4.4 9.2 4.4 5 0 10.1-3.2 10.1-6.4 0-.9.5-1.6 1-1.6.6 0 1-.9 1-2s.5-2 1-2c.6 0 1-1.7 1-3.8 0-3.1-.7-4.5-3.5-7-1.9-1.8-4.1-3.2-5-3.2-.8 0-1.5-.5-1.5-1 0-1.4-7.1-1.1-9.4.3zM446 401c0 .5-.9 1-2 1s-2 .4-2 1c0 .5-.7 1-1.6 1-.9 0-2.9 1.3-4.4 3-1.5 1.6-3.3 3-4 3-.6 0-3.2 2.2-5.8 4.8-2.6 2.6-5.5 5.1-6.4 5.5-1 .3-1.8 1.3-1.8 2.2 0 .8-.4 1.5-1 1.5-.5 0-1 1.5-1 3.4 0 2.6.6 3.8 2.7 5.1 1.8 1.2 2.8 1.4 3.1.7.2-.7 1.7-1.2 3.3-1.2 1.6 0 2.9-.5 2.9-1 0-.6.8-1 1.8-1s2.4-.9 3.2-2c.8-1.1 2.1-2 3-2 .9 0 2.2-.9 3-2 .8-1.1 2.2-2 3.2-2s1.8-.5 1.8-1c0-.6 3.3-1 8-1s8 .4 8 1c0 1.6 14.9 1.3 16.6-.4 1.9-1.9 1.8-3.5-.4-5.5-.9-.9-2.3-2.8-3.1-4.4-.8-1.5-2.2-2.7-3-2.7-.9 0-2.3-.9-3.1-2-.8-1.1-2.2-2-3.2-2s-1.8-.5-1.8-1c0-.6-.9-1-1.9-1-1.1 0-2.3-.5-2.6-1-.3-.6-3.1-1-6.1-1-3 0-5.4.4-5.4 1zm-128 2c0 .5-1.3 1-3 1-1.6 0-3 .4-3 1 0 .5-.9 1-2 1s-2 .4-2 1c0 .5-.9 1-2 1s-2 .4-2 1c0 .5-.7 1-1.6 1-2 0-4.4 2.4-4.4 4.3 0 .9-.6 1.7-1.2 1.9-.9.3-.8.9.4 2.1 1.4 1.4 3.9 1.7 15.2 1.7 8.4 0 13.6.4 13.6 1 0 .5.9 1 2 1s2 .4 2 1c0 .5.8 1 1.8 1s2.4.9 3.2 2c.8 1.1 2.1 2 3 2 .9 0 2.2.9 3 2 .8 1.1 2.2 2 3.2 2s1.8.4 1.8 1c0 .5 2.3 1 5 1 2.8 0 5-.5 5-1 0-2.1 1.9-.9 3.2 2 .7 1.6 1.6 3 2 3 .5 0 .8.7.8 1.6 0 1.9 2.4 4.4 4.2 4.4 2.6 0 3.8-5.3 3.8-16.7 0-6.9-.4-11.3-1-11.3-.5 0-1-1.1-1-2.5 0-1.6-1.3-3.9-3.5-6.1-5.2-5.2-6.5-3.4-6.5 9 0 5.3-.3 9.6-.6 9.6s-2.3-1.8-4.4-4c-2.1-2.2-4.4-4-5-4-1.5 0-4-2.5-4-4 0-2.2-8.9-10-11.5-10-1.4 0-2.5-.5-2.5-1 0-.6-2.7-1-6-1s-6 .4-6 1z"/><path d="M316 427c0 .5-2.2 1-5 1-2.7 0-5 .4-5 1 0 .5-.9 1-2 1s-2 .4-2 1c0 .5-.9 1-2 1s-2 .4-2 1c0 .5-.9 1-2 1s-2 .4-2 1c0 .5-.8 1-1.8 1s-2.4.9-3.2 2c-.8 1.1-2 2-2.8 2-1.8 0-4.2 2.5-4.2 4.4 0 .9-.4 1.6-1 1.6-.5 0-1 1.3-1 3 0 2.8.2 3 3.9 3 2.2 0 4.3-.5 4.6-1 .3-.6 2.2-1 4.1-1 1.9 0 3.4-.5 3.4-1 0-1.3 33.2-1.4 34.6-.1.5.5 4.1 1.2 7.9 1.5 3.9.3 9.1.8 11.7 1.2 5.3.7 7.8-.8 7.8-4.6 0-2.4-2.2-5-4.2-5-.8 0-2-.9-2.8-2-.8-1.1-2.2-2-3.2-2s-1.8-.5-1.8-1c0-.6-.9-1-2-1s-2-.5-2-1c0-.6-.9-1-2-1s-2-.5-2-1c0-.6-.9-1-2-1s-2-.5-2-1c0-.6-1.3-1-3-1-1.6 0-3-.5-3-1 0-.6-1.8-1-4-1s-4-.5-4-1c0-.6-.9-1-2-1s-2 .4-2 1zm132 2c0 .5-1.3 1-3 1-1.6 0-3 .4-3 1 0 .5-.9 1-1.9 1-1.1 0-2.3.4-2.6 1-.3.5-1.7 1-3.1 1-1.3 0-2.4.4-2.4 1 0 .5-.9 1-2 1s-2 .4-2 1c0 .5-.6 1-1.3 1-1.8 0-6.7 2.4-6.7 3.2 0 .5-.9.8-2 .8-1.3 0-2 .7-2 2 0 1.1-.4 2-1 2-1.4 0-1.2 5.4.2 6.8 1.5 1.5 6.1 1.6 8.8.2 1.1-.6 2.9-1.5 4-2 1.1-.6 3.1-1 4.4-1 1.4 0 2.8-.5 3.1-1 .3-.6 2.8-1 5.5-1s5.2-.5 5.5-1c.3-.6 3.5-1 7.1-1 3.6 0 6.4.4 6.4 1 0 .5 2.3 1 5 1 2.8 0 5 .4 5 1 0 .5 1.5 1 3.4 1s3.8.4 4.1 1c.9 1.4 11.1 1.2 13.7-.3 5.3-2.9 5.2-3.3-.6-9.2-3.1-3-6.1-5.5-6.9-5.5-.7 0-1.9-.9-2.7-2-.8-1.1-2.2-2-3.2-2s-1.8-.5-1.8-1c0-.6-1.3-1-3-1-1.6 0-3-.5-3-1 0-.6-4.3-1-11-1s-11 .4-11 1z"/><path d="M299.5 453c-.3.5-1.5 1-2.6 1-1 0-3.3 1.3-5.1 3-1.7 1.6-3.5 3-4 3-1.2 0-13.3 12.3-14.8 15-1 1.8-.8 2.4.9 3.9 1.6 1.4 3.2 1.7 6.9 1.3 2.6-.3 4.9-.9 5-1.3.2-.5 1.7-.9 3.3-.9 1.6 0 2.9-.5 2.9-1 0-.6.9-1 2-1s2-.5 2-1c0-.6.8-1 1.8-1s2.2-.4 2.8-.9c1-1 32.9-3.1 47.2-3.1 10.5 0 12.2-.8 12.2-6 0-5.1-2.5-6.5-14.5-7.6-4.6-.5-7.3-1.3-11.7-3.5-2.5-1.3-33.5-1.2-34.3.1zm162 0c-.3.6-5 1-10.5 1s-10.2.4-10.5 1c-.3.5-3.9 1-8 1s-7.7.4-8 1c-.3.5-1.7 1-3.1 1-3.3 0-5.4 2.2-5.4 5.4 0 2.1.5 2.6 2.4 2.6 1.4 0 2.8.4 3.1 1 .3.5 4.4 1 9 1s8.7.4 9 1c.3.5 2.6 1 5 1s4.7.4 5 1c.3.5 2.8 1 5.5 1s5.2.4 5.5 1c.3.5 2.6 1 5.1 1 2.4 0 4.4.4 4.4 1 0 .5 1.4 1 3 1 1.7 0 3 .4 3 1 0 .5.9 1 2 1s3.5.9 5.5 2c4.3 2.4 12.9 2.7 15.1.6 1.6-1.7 1.9-4.6.4-4.6-.5 0-1-.6-1-1.4 0-1.9-16.5-18.6-18.4-18.6-.8 0-1.8-.5-2.1-1-.3-.6-1.9-1-3.5-1s-3.2-.5-3.5-1c-.3-.6-2.4-1-4.5-1s-4.2.4-4.5 1zm-48.2 24.5c-2.9 3.3-.8 10.5 3.1 10.5.9 0 1.6.4 1.6 1 0 .5 1.4 1 3 1 1.7 0 3 .4 3 1 0 .5 1.8 1 4 1s4 .4 4 1 2.7 1 6 1 6 .4 6 1c0 .5 1.8 1 4 1s4 .4 4 1c0 .5 1.8 1 4 1s4 .4 4 1c0 .5 1.4 1 3 1 1.7 0 3 .4 3 1 0 .5 1.1 1 2.4 1 1.4 0 2.8.4 3.1 1 .3.5 1.5 1 2.6 1 1 0 1.9.4 1.9 1 0 .5.8 1 1.8 1s2.4.9 3.2 2c.8 1.1 2.1 2 2.8 2 .8 0 2.7 1.3 4.2 3 1.5 1.6 3.5 3 4.4 3 .9 0 1.6.4 1.6 1 0 .5 2.3 1 5 1h5v-4c0-2.2-.4-4-1-4-.5 0-1-1.4-1-3 0-1.7-.4-3-1-3-.5 0-1-.9-1-2s-.4-2-1-2c-.5 0-1-.7-1-1.5 0-2.1-12.3-14.5-14.3-14.5-1 0-1.7-.5-1.7-1 0-.6-1.8-1-3.9-1-2.2 0-4.3-.5-4.6-1-.4-.6-5.3-1-11.5-1s-11.1-.4-11.5-1c-.4-.6-6.7-1-15.5-1s-15.1-.4-15.5-1c-.9-1.5-4.8-1.2-6.2.5zM356 501c0 .5-1.4 1-3 1-1.7 0-3.8.4-4.8.9-4.8 2.4-13.1 5.1-16 5.1-1.2 0-2.2.4-2.2 1 0 .5-1.3 1-3 1-1.6 0-3 .4-3 1 0 .5-1.3 1-3 1-1.6 0-3 .4-3 1 0 .5-1.1 1-2.4 1-1.4 0-2.8.4-3.1 1-.3.5-1.5 1-2.6 1-1 0-1.9.4-1.9 1 0 .5-.6 1-1.3 1-1.8 0-6.7 2.4-6.7 3.2 0 .5-.7.8-1.5.8-2 0-6.5 4.5-6.5 6.5 0 .8-.3 1.5-.7 1.5-.9 0-3.3 4.9-3.3 6.7 0 .7-.4 1.3-1 1.3-1.6 0-1.2 8.9.4 10.6 3.2 3.1 7.2 1.5 14.9-5.9 2.7-2.6 5.5-4.7 6.3-4.7.8 0 1.4-.5 1.4-1 0-.6.8-1 1.8-1s2.4-.9 3.2-2c.8-1.1 2.2-2 3.2-2s1.8-.5 1.8-1c0-.6 1.1-1 2.4-1 1.4 0 2.8-.5 3.1-1 .3-.6 1.5-1 2.6-1 1 0 1.9-.5 1.9-1 0-.6 1.4-1 3-1 1.7 0 3-.5 3-1 0-.6 1.4-1 3-1 1.7 0 3-.5 3-1 0-.6 1.1-1 2.4-1 1.4 0 2.8-.5 3.1-1 .3-.6 1.5-1 2.6-1 1 0 1.9-.5 1.9-1 0-.6 1.4-1 3-1 1.7 0 3-.5 3-1 0-.6.9-1 2-1s2-.5 2-1c0-.6.6-1 1.3-1 .6 0 2.4-1.1 4-2.4 3-2.6 3.7-7.7 1.3-10.2-1.7-1.6-12.6-2-12.6-.4zm51.3 2.5c-.7.8-1.3 1.9-1.3 2.5 0 1.6 6.7 8 8.5 8 .8 0 1.5.4 1.5 1 0 .5.9 1 2 1s2 .3 2 .7c0 .9 4.9 3.3 6.7 3.3.7 0 1.3.4 1.3 1 0 .5.9 1 2 1s2 .4 2 1c0 .5 1.4 1 3 1 1.7 0 3 .4 3 1 0 .5 1.1 1 2.4 1 1.4 0 2.8.4 3.1 1 .3.5 1.5 1 2.6 1 1 0 1.9.4 1.9 1 0 .5.9 1 2 1s2 .4 2 1c0 .5.8 1 1.8 1s2.4.9 3.2 2c.8 1.1 2 2 2.7 2 .8 0 3.4 2 5.9 4.5 2.4 2.5 4.9 4.5 5.4 4.5s2 1.1 3.4 2.5c2.5 2.5 7.6 3.5 7.6 1.5 0-.6.9-1 2-1 1.7 0 2-.7 2-5 0-2.8-.4-5-1-5-.5 0-1-1.4-1-3 0-1.7-.4-3-1-3-.5 0-1-.9-1-2s-.4-2-1-2c-.5 0-1-.7-1-1.6 0-1.9-2.4-4.4-4.2-4.4-.8 0-2-.9-2.8-2-.8-1.1-2.2-2-3.2-2s-1.8-.5-1.8-1c0-.6-.9-1-1.9-1-1.1 0-2.3-.5-2.6-1-.3-.6-1.7-1-3.1-1-1.3 0-2.4-.5-2.4-1 0-.6-1.3-1-3-1-1.6 0-3-.5-3-1 0-.6-1.3-1-3-1-1.6 0-3-.5-3-1 0-.6-1.8-1-4-1s-4-.5-4-1c0-.6-1.8-1-4-1s-4-.5-4-1c0-.6-2.2-1-5-1-2.7 0-5-.5-5-1 0-1.6-11.3-1.2-12.7.5zM362 527c0 .5-1.3 1-3 1-1.6 0-3 .4-3 1 0 .5-.9 1-2 1s-2 .4-2 1c0 .5-.9 1-2 1s-2 .4-2 1c0 .5-.9 1-2 1s-2 .4-2 1c0 .5-1.3 1-3 1-1.6 0-3 .4-3 1 0 .5-.9 1-2 1s-2 .4-2 1c0 .5-.9 1-2 1s-2 .4-2 1c0 .5-1.3 1-3 1-1.6 0-3 .4-3 1 0 .5-.6 1-1.3 1-2 0-10.7 8.5-10.7 10.4 0 .9-.4 1.6-1 1.6-.5 0-1 .9-1 2s-.4 2-1 2c-.5 0-1 .9-1 2s-.4 2-1 2c-1.5 0-1.2 4.9.4 6.6 1.7 1.6 4.2 1.8 5.1.4.3-.6 1.4-1 2.4-1 .9 0 2.7-.9 3.9-2 1.2-1.1 2.8-2 3.7-2 .8 0 1.5-.5 1.5-1 0-.6.8-1 1.8-1s2.4-.9 3.2-2c.8-1.1 2.1-2 3-2 .9 0 2.2-.9 3-2 .8-1.1 2.2-2 3.2-2s1.8-.5 1.8-1c0-.6.8-1 1.8-1s2.4-.9 3.2-2c.8-1.1 2.1-2 3-2 .9 0 2.2-.9 3-2 .8-1.1 2.2-2 3.2-2s1.8-.5 1.8-1c0-.6.6-1 1.3-1 .6 0 2.8-1.4 4.7-3 1.9-1.6 3.9-3 4.3-3 1.4 0 5.7-4.8 5.7-6.4 0-.8.6-1.6 1.2-1.8.9-.3.8-.9-.4-2.1-1.8-1.9-10.8-2.4-10.8-.7zm38 3.5c0 2.6 3.9 7.5 6 7.5.6 0 2 .9 3.2 2 1.2 1.1 2.8 2 3.5 2 .7 0 1.3.4 1.3.8 0 .5 1.2 1.5 2.8 2.3 1.5.8 3.7 2.4 5 3.6 1.3 1.3 2.7 2.3 3.2 2.3s2 1.1 3.4 2.5 3 2.5 3.6 2.5c.5 0 2.4 1.3 4.2 3 1.7 1.6 3.6 3 4.2 3 .6 0 1.8.9 2.6 2s2.2 2 3.2 2 1.8.4 1.8 1c0 .5.9 1 2 1s2 .3 2 .7c0 1.2 5.1 3.3 7.7 3.3 1.3 0 2.3-.5 2.3-1 0-.6.9-1 2-1 1.7 0 2-.7 2-5 0-2.8-.4-5-1-5-.5 0-1-.7-1-1.5 0-2-10.5-12.5-12.5-12.5-.8 0-1.5-.3-1.5-.8 0-.8-4.9-3.2-6.7-3.2-.7 0-1.3-.5-1.3-1 0-.6-.9-1-2-1s-2-.5-2-1c0-.6-.9-1-2-1s-2-.5-2-1c0-.6-.9-1-2-1s-2-.5-2-1c0-.6-.9-1-2-1s-2-.5-2-1c0-.6-.9-1-2-1s-2-.5-2-1c0-.6-1.8-1-4-1s-4-.5-4-1c0-.6-3-1-7-1-6.8 0-7 .1-7 2.5zM366.5 547c-.3.5-1.5 1-2.6 1-1 0-1.9.4-1.9 1 0 .5-.9 1-2 1s-2 .4-2 1c0 .5-.9 1-1.9 1-1.1 0-2.3.4-2.6 1-.3.5-1.7 1-3.1 1-1.3 0-2.4.4-2.4 1 0 .5-1.2 1-2.6 1-1.5 0-3.4.8-4.3 1.7-.9 1-2.5 2.3-3.5 2.9-1.1.6-2.4 1.9-3 3-.6 1-1.9 2.6-2.8 3.5-1 .9-1.8 2.4-1.8 3.3 0 .9-.4 1.6-1 1.6-.5 0-1 .9-1 2s-.4 2-1 2c-.5 0-1 2-1 4.5 0 3.4.4 4.7 1.7 5.2.9.4 1.9.1 2.1-.5.2-.7 1.2-1.2 2.3-1.2 1 0 1.9-.5 1.9-1 0-.6.9-1 2-1s2-.5 2-1c0-.6.8-1 1.8-1s2.4-.9 3.2-2c.8-1.1 2.1-2 2.8-2 .8 0 2.7-1.4 4.2-3 1.5-1.7 3.4-3 4.2-3 .7 0 2-.9 2.8-2 .8-1.1 2.2-2 3.2-2s1.8-.5 1.8-1c0-.6.8-1 1.8-1s2.4-.9 3.2-2c.8-1.1 2.2-2 3.2-2s1.8-.4 1.8-.9 1.4-1.4 3-2.1c1.8-.8 3-2 3-3.1s.5-1.9 1-1.9c.6 0 1-1.4 1-3v-3h-6.4c-3.6 0-6.8.4-7.1 1zm28.8.5c-.7.8-1.3 1.9-1.3 2.6 0 1.2 5.8 6.9 7.1 6.9.4 0 1.9 1.1 3.3 2.5s3.1 2.5 3.8 2.5c.8 0 2 .9 2.8 2 .8 1.1 2 2 2.8 2 .7 0 2.8 1.6 4.8 3.5 1.9 1.9 3.9 3.5 4.4 3.5.5 0 2.5 1.6 4.4 3.5 2 1.9 4.2 3.5 5.1 3.5.8 0 1.5.3 1.5.7 0 2.6 10.6 4.3 12.8 2.1 1.5-1.5 1.6-4.8.2-4.8-.5 0-1-.9-1-2s-.4-2-1-2c-.5 0-1-.9-1-2s-.4-2-1-2c-.5 0-1-.7-1-1.5 0-2-8.5-10.5-10.5-10.5-.8 0-1.5-.5-1.5-1 0-.6-.9-1-2-1s-2-.5-2-1c0-.6-1.3-1-3-1-1.6 0-3-.5-3-1 0-.6-1.3-1-3-1-1.6 0-3-.5-3-1 0-.6-1.3-1-3-1-1.6 0-3-.5-3-1 0-.6-1.8-1-4-1s-4-.5-4-1c0-1.5-3.3-1.1-4.7.5zM370 565c0 .5-.9 1-2 1s-2 .4-2 1c0 .5-.7 1-1.6 1-.8 0-3.2 1.7-5.2 3.8-2 2.1-4.5 4.1-5.4 4.5-1 .3-1.8 1.2-1.8 1.9 0 .8-.9 2-2 2.8-1.1.8-2 2.2-2 3.1 0 1-.6 2-1.2 2.3-1 .5-1 .7 0 1.2.6.3 1.2 1.4 1.2 2.5 0 1.4.7 1.9 3 1.9 1.7 0 3-.5 3-1 0-.6.8-1 1.8-1s2.4-.9 3.2-2c.8-1.1 2-2 2.8-2 1.6 0 7.3-5.7 9.1-9.3.8-1.5 1.8-2.7 2.3-2.7.4 0 .8-.9.8-2s.5-2 1-2c.6 0 1-1.4 1-3 0-2.7-.3-3-3-3-1.6 0-3 .4-3 1zm24 1c0 1.1.5 2 1 2 .6 0 1 .6 1 1.2 0 .7 2.3 3.8 5 6.7 2.8 3 5 5.9 5 6.4s.8 1.7 1.8 2.6c1 .9 2.1 2.4 2.5 3.3.3 1 1.3 1.8 2.2 1.8.8 0 1.5.4 1.5 1 0 .5 2.3 1 5 1h5v-5c0-2.8-.4-5-1-5-.5 0-1-.7-1-1.5 0-2-12.5-14.5-14.4-14.5-.8 0-1.8-.5-2.1-1-.3-.6-3.1-1-6.1-1-4.7 0-5.4.2-5.4 2z"/><path d="M389.5 577c-.3.5-2.8 1-5.5 1s-5.2.4-5.5 1c-.3.5-1.5 1-2.6 1-1.8 0-1.9.8-1.9 10 0 6-.4 10-1 10-.5 0-1 2.2-1 5 0 2.7-.4 5-1 5-.5 0-1 .7-1 1.5 0 1.9-4.4 6.5-6.2 6.5-.8 0-2 .9-2.8 2-.8 1.1-2.2 2-3.2 2s-1.8.3-1.8.8c0 .4-1.5 1.3-3.2 2.1-1.8.8-4.5 2.2-6 3.3-1.4 1-3.6 1.8-4.7 1.8-1.2 0-2.1.4-2.1 1 0 .5-.9 1-2 1s-2 .4-2 1c0 .5-.9 1-2 1s-2 .4-2 1c0 .5-1.3 1-3 1-1.6 0-3 .4-3 1 0 .5-1.8 1-4 1s-4 .4-4 1c0 .5-1.8 1-3.9 1-2.2 0-4.3.4-4.6 1-.3.5-2.8 1-5.5 1s-5.2.5-5.5 1c-.3.5-2.8 1-5.6 1-2.7 0-4.9.4-4.9 1 0 .5-2.2 1-5 1-2.7 0-5 .4-5 1 0 .5-1.8 1-4 1s-4 .4-4 1c0 .5-1 1-2.2 1-5.7 0-13.8 5-13.8 8.5 0 .8-.4 1.5-1 1.5-.5 0-1 1.3-1 3 0 1.6-.4 3-1 3-.5 0-1 1.3-1 3 0 1.6.5 3 1 3 .6 0 1 .7 1 1.6 0 .9 1.2 2.7 2.8 4 2.1 1.9 3.9 2.4 8 2.4 2.8 0 5.2-.5 5.2-1 0-.6 2.6-1 5.9-1 3.3 0 6.3-.5 6.6-1 .4-.6 6-1 13.5-1s13.1-.4 13.5-1c.4-.6 6.7-1 15.5-1s15.1-.4 15.5-1c.4-.6 12.8-1 33.9-1 21.8 0 33.6-.4 34.3-1.1.6-.6 6.4-.8 16.9-.5 8.7.4 26.3.8 38.9 1.2 12.7.3 23.4.9 24 1.5.5.5 2.8.9 5.2.9 2.4 0 4.3.4 4.3 1 0 .5 1.4 1 3 1 1.7 0 3 .4 3 1s3 1 7 1 7-.4 7-1 .9-1 2-1c1.3 0 2-.7 2-2 0-1.1.5-2 1-2 .6 0 1-1.8 1-4s-.4-4-1-4c-.5 0-1-.7-1-1.5 0-2-4.5-6.5-6.5-6.5-.8 0-1.5-.5-1.5-1 0-.6-.9-1-2-1s-2-.5-2-1c0-.6-1.5-1-3.4-1s-3.8-.5-4.1-1c-.3-.6-2.4-1-4.5-1s-4.2-.5-4.5-1c-.3-.6-2.6-1-5-1s-4.7-.5-5-1c-.3-.5-2.4-1-4.5-1s-4.2-.5-4.5-1c-.3-.6-1.9-1-3.6-1-1.6 0-2.9-.5-2.9-1 0-.6-1.8-1-4-1s-4-.5-4-1c0-.6-1.3-1-3-1-1.6 0-3-.5-3-1 0-.6-1.3-1-3-1-1.6 0-3-.5-3-1 0-.6-.9-1-2-1s-2-.5-2-1c0-.6-1.3-1-3-1-1.6 0-3-.5-3-1 0-.6-.9-1-2-1s-2-.5-2-1c0-.6-.9-1-2-1s-2-.5-2-1c0-.6-.9-1-2-1s-2-.5-2-1c0-.6-.9-1-2-1s-2-.5-2-1c0-.6-.8-1-1.8-1s-2.4-.9-3.2-2c-.8-1.1-2.1-2-3-2-.9 0-2.2-.9-3-2-.8-1.1-1.9-2-2.5-2-.5 0-2.2-1.1-3.7-2.4-2.1-1.7-2.8-3.2-2.8-6 0-2-.4-3.6-1-3.6s-1-5.3-1-14v-14h-3.9c-2.2 0-4.3.4-4.6 1z"/></g><path d="M586 616.4c.7.7 1.3.7 2 0 .6-.6.3-1-1-1s-1.6.4-1 1z" fill="#FFF" fill-opacity=".08"/><path d="M369.5 333.5c0 1.3.2 2.6.5 2.9.3.3.6-.5.5-1.9 0-1.3-.2-2.6-.5-2.9-.3-.3-.6.5-.5 1.9z" fill="#FFF" fill-opacity=".01"/><path d="M421.9 154.7c-1.3 1.6-1.2 1.7.4.4.9-.7 1.7-1.5 1.7-1.7 0-.8-.8-.3-2.1 1.3zm-62.9 5.7c0 .2.8 1 1.8 1.7 1.5 1.3 1.6 1.2.3-.4s-2.1-2.1-2.1-1.3zm125 294c.7.7 1.3.7 2 0 .6-.6.3-1-1-1s-1.6.4-1 1zM339.9 556.7c-1.3 1.6-1.2 1.7.4.4.9-.7 1.7-1.5 1.7-1.7 0-.8-.8-.3-2.1 1.3z" fill="#FFF" fill-opacity=".06"/><path d="M340.9 108.7c-1.3 1.6-1.2 1.7.4.4.9-.7 1.7-1.5 1.7-1.7 0-.8-.8-.3-2.1 1.3zm18.5 53.1c.4.3 1.4.7 2.2.8.9.1 1.3 0 1-.4-.4-.3-1.4-.7-2.2-.8-.9-.1-1.3 0-1 .4zm28.5 5.9c-1.3 1.6-1.2 1.7.4.4 1.6-1.3 2.1-2.1 1.3-2.1-.2 0-1 .8-1.7 1.7zm38 6c-1.3 1.6-1.2 1.7.4.4.9-.7 1.7-1.5 1.7-1.7 0-.8-.8-.3-2.1 1.3zM380 198.4c.7.7 1.3.7 2 0 .6-.6.3-1-1-1s-1.6.4-1 1zm-22.1 29.3c-1.3 1.6-1.2 1.7.4.4.9-.7 1.7-1.5 1.7-1.7 0-.8-.8-.3-2.1 1.3zm60.1 22.7c0 .2.8 1 1.8 1.7 1.5 1.3 1.6 1.2.3-.4s-2.1-2.1-2.1-1.3zm4 6c0 .2.8 1 1.8 1.7 1.5 1.3 1.6 1.2.3-.4s-2.1-2.1-2.1-1.3zm-96.6 13.4c.4.3 1.4.7 2.2.8.9.1 1.3 0 1-.4-.4-.3-1.4-.7-2.2-.8-.9-.1-1.3 0-1 .4zm10.6 4.6c0 .2.8 1 1.8 1.7 1.5 1.3 1.6 1.2.3-.4s-2.1-2.1-2.1-1.3zm-146.1 67.3c-1.3 1.6-1.2 1.7.4.4.9-.7 1.7-1.5 1.7-1.7 0-.8-.8-.3-2.1 1.3zm266 6c-1.3 1.6-1.2 1.7.4.4 1.6-1.3 2.1-2.1 1.3-2.1-.2 0-1 .8-1.7 1.7zm132 0c-1.3 1.6-1.2 1.7.4.4 1.6-1.3 2.1-2.1 1.3-2.1-.2 0-1 .8-1.7 1.7zm-152 24c-1.3 1.6-1.2 1.7.4.4 1.6-1.3 2.1-2.1 1.3-2.1-.2 0-1 .8-1.7 1.7zM356 442.4c0 .2.8 1 1.8 1.7 1.5 1.3 1.6 1.2.3-.4s-2.1-2.1-2.1-1.3zm193.9 1.3c-1.3 1.6-1.2 1.7.4.4 1.6-1.3 2.1-2.1 1.3-2.1-.2 0-1 .8-1.7 1.7zM224 454.4c0 .2.8 1 1.8 1.7 1.5 1.3 1.6 1.2.3-.4s-2.1-2.1-2.1-1.3zm135.6 13.4c-.2.4.4.8 1.4.8 1 0 1.6-.4 1.4-.8-.3-.4-.9-.8-1.4-.8-.5 0-1.1.4-1.4.8zm31.9 6.3c-.3.4.2.6 1 .5 2.1-.3 2.8-1.3 1-1.3-.9 0-1.8.4-2 .8zm14.4 29.6c-1.3 1.6-1.2 1.7.4.4 1.6-1.3 2.1-2.1 1.3-2.1-.2 0-1 .8-1.7 1.7zm-268 12c-1.3 1.6-1.2 1.7.4.4.9-.7 1.7-1.5 1.7-1.7 0-.8-.8-.3-2.1 1.3zm-4 6c-1.3 1.6-1.2 1.7.4.4.9-.7 1.7-1.5 1.7-1.7 0-.8-.8-.3-2.1 1.3zm-16 18c-1.3 1.6-1.2 1.7.4.4.9-.7 1.7-1.5 1.7-1.7 0-.8-.8-.3-2.1 1.3zm160.1 4.7c0 .2.8 1 1.8 1.7 1.5 1.3 1.6 1.2.3-.4s-2.1-2.1-2.1-1.3zm215.9 1.3c-1.3 1.6-1.2 1.7.4.4 1.6-1.3 2.1-2.1 1.3-2.1-.2 0-1 .8-1.7 1.7zm164.1-1.3c0 .2.8 1 1.8 1.7 1.5 1.3 1.6 1.2.3-.4s-2.1-2.1-2.1-1.3zm-346.1 7.3c-1.3 1.6-1.2 1.7.4.4 1.6-1.3 2.1-2.1 1.3-2.1-.2 0-1 .8-1.7 1.7zm33 1c-1.3 1.6-1.2 1.7.4.4 1.6-1.3 2.1-2.1 1.3-2.1-.2 0-1 .8-1.7 1.7zm-77.3 3.6c.3 1 .9 1.5 1.2 1.2.3-.3 0-1.1-.7-1.8-1-.9-1.1-.8-.5.6zm66.8 2.9-1.9 2.3 2.3-1.9c1.2-1.1 2.2-2.1 2.2-2.3 0-.8-.8-.2-2.6 1.9zm76.1 5.8c1 1.1 2 2 2.3 2 .3 0-.3-.9-1.3-2s-2-2-2.3-2c-.3 0 .3.9 1.3 2zm-13.1 10.8c.4.3 1.4.7 2.2.8.9.1 1.3 0 1-.4-.4-.3-1.4-.7-2.2-.8-.9-.1-1.3 0-1 .4zm-49.5 5.9c-1.3 1.6-1.2 1.7.4.4 1.6-1.3 2.1-2.1 1.3-2.1-.2 0-1 .8-1.7 1.7zm-2.9 5.2c0 .6.4 1.3 1 1.6.6.3.7-.1.4-.9-.7-1.8-1.4-2.1-1.4-.7zm173 71.5c0 .2.8 1 1.8 1.7 1.5 1.3 1.6 1.2.3-.4s-2.1-2.1-2.1-1.3z" fill="#FFF" fill-opacity=".19"/><path d="M362 358.4c.7.7 1.3.7 2 0 .6-.6.3-1-1-1s-1.6.4-1 1z" fill="#FFF" fill-opacity=".11"/><path d="M378.8 86.7c3.4.2 9 .2 12.5 0 3.4-.2.6-.3-6.3-.3-6.9 0-9.7.1-6.2.3zm-14.5 2c.9.2 2.5.2 3.5 0 .9-.3.1-.5-1.8-.5-1.9 0-2.7.2-1.7.5zm39 0c1.5.2 3.9.2 5.5 0 1.5-.2.2-.4-2.8-.4s-4.3.2-2.7.4zm18.5 4c.6.2 1.8.2 2.5 0 .6-.3.1-.5-1.3-.5-1.4 0-1.9.2-1.2.5zm-62 144c.6.2 1.8.2 2.5 0 .6-.3.1-.5-1.3-.5-1.4 0-1.9.2-1.2.5zm82 2c.6.2 1.8.2 2.5 0 .6-.3.1-.5-1.3-.5-1.4 0-1.9.2-1.2.5zm-166.5 124c1.5.2 3.9.2 5.5 0 1.5-.2.2-.4-2.8-.4s-4.3.2-2.7.4zm224.5 0c.6.2 1.8.2 2.5 0 .6-.3.1-.5-1.3-.5-1.4 0-1.9.2-1.2.5zm-237 2c1.2.2 3.2.2 4.5 0 1.2-.2.2-.4-2.3-.4s-3.5.2-2.2.4zm246 0c1.2.2 3.2.2 4.5 0 1.2-.2.2-.4-2.3-.4s-3.5.2-2.2.4zm-282.5 4c2 .2 5.4.2 7.5 0 2-.2.3-.4-3.8-.4s-5.8.2-3.7.4zm302.5 0c1.2.2 3.2.2 4.5 0 1.2-.2.2-.4-2.3-.4s-3.5.2-2.2.4zm9.5 2c.9.2 2.5.2 3.5 0 .9-.3.1-.5-1.8-.5-1.9 0-2.7.2-1.7.5zm-364 4c.9.2 2.5.2 3.5 0 .9-.3.1-.5-1.8-.5-1.9 0-2.7.2-1.7.5zm254 24c.9.2 2.5.2 3.5 0 .9-.3.1-.5-1.8-.5-1.9 0-2.7.2-1.7.5zm-85 2c3.7.2 9.7.2 13.5 0 3.7-.2.6-.3-6.8-.3-7.4 0-10.5.1-6.7.3zm121 22c2 .2 5.4.2 7.5 0 2-.2.3-.4-3.8-.4s-5.8.2-3.7.4zm-115.5 12c1.2.2 3.2.2 4.5 0 1.2-.2.2-.4-2.3-.4s-3.5.2-2.2.4zm102.5 12c1.5.2 3.9.2 5.5 0 1.5-.2.2-.4-2.8-.4s-4.3.2-2.7.4zm-151.6 2c1.8.2 5 .2 7 0 2.1-.2.7-.4-3.2-.4-3.8 0-5.5.2-3.8.4zm21.6 0c1.5.2 3.9.2 5.5 0 1.5-.2.2-.4-2.8-.4s-4.3.2-2.7.4zm117.5 0c1.2.2 3.2.2 4.5 0 1.2-.2.2-.4-2.3-.4s-3.5.2-2.2.4zm24 0c1.2.2 3.2.2 4.5 0 1.2-.2.2-.4-2.3-.4s-3.5.2-2.2.4zm-180.5 4c.9.2 2.5.2 3.5 0 .9-.3.1-.5-1.8-.5-1.9 0-2.7.2-1.7.5zm69.5 0c.6.2 1.8.2 2.5 0 .6-.3.1-.5-1.3-.5-1.4 0-1.9.2-1.2.5zm128 0c.6.2 1.8.2 2.5 0 .6-.3.1-.5-1.3-.5-1.4 0-1.9.2-1.2.5zm-62 2c.6.2 1.8.2 2.5 0 .6-.3.1-.5-1.3-.5-1.4 0-1.9.2-1.2.5zm-79 16c3.4.2 9 .2 12.5 0 3.4-.2.6-.3-6.3-.3-6.9 0-9.7.1-6.2.3zm103.5 0c.9.2 2.5.2 3.5 0 .9-.3.1-.5-1.8-.5-1.9 0-2.7.2-1.7.5zm-137.5 2c1.2.2 3.2.2 4.5 0 1.2-.2.2-.4-2.3-.4s-3.5.2-2.2.4zm148 0c1.2.2 3.2.2 4.5 0 1.2-.2.2-.4-2.3-.4s-3.5.2-2.2.4zm19 4c.6.2 1.8.2 2.5 0 .6-.3.1-.5-1.3-.5-1.4 0-1.9.2-1.2.5zm-184 2c.6.2 1.8.2 2.5 0 .6-.3.1-.5-1.3-.5-1.4 0-1.9.2-1.2.5zm201.5 4c1.5.2 3.9.2 5.5 0 1.5-.2.2-.4-2.8-.4s-4.3.2-2.7.4zm-69.5 8c.6.2 1.8.2 2.5 0 .6-.3.1-.5-1.3-.5-1.4 0-1.9.2-1.2.5zm-73.5 4c.9.2 2.5.2 3.5 0 .9-.3.1-.5-1.8-.5-1.9 0-2.7.2-1.7.5zm88.5 0c1.2.2 3.2.2 4.5 0 1.2-.2.2-.4-2.3-.4s-3.5.2-2.2.4zm-101.5 2c1.5.2 3.9.2 5.5 0 1.5-.2.2-.4-2.8-.4s-4.3.2-2.7.4zm113 0c.9.2 2.5.2 3.5 0 .9-.3.1-.5-1.8-.5-1.9 0-2.7.2-1.7.5zm-136 4c.9.2 2.5.2 3.5 0 .9-.3.1-.5-1.8-.5-1.9 0-2.7.2-1.7.5zm151.5 0c.6.2 1.8.2 2.5 0 .6-.3.1-.5-1.3-.5-1.4 0-1.9.2-1.2.5zm-77 2c1.2.2 3.2.2 4.5 0 1.2-.2.2-.4-2.3-.4s-3.5.2-2.2.4zm-110.5 16c.9.2 2.5.2 3.5 0 .9-.3.1-.5-1.8-.5-1.9 0-2.7.2-1.7.5zm79.5 0c.6.2 1.8.2 2.5 0 .6-.3.1-.5-1.3-.5-1.4 0-1.9.2-1.2.5zm143 0c1.2.2 3.2.2 4.5 0 1.2-.2.2-.4-2.3-.4s-3.5.2-2.2.4zm-159 6c.6.2 1.8.2 2.5 0 .6-.3.1-.5-1.3-.5-1.4 0-1.9.2-1.2.5zm96 0c.6.2 1.8.2 2.5 0 .6-.3.1-.5-1.3-.5-1.4 0-1.9.2-1.2.5zm-102 2c.6.2 1.8.2 2.5 0 .6-.3.1-.5-1.3-.5-1.4 0-1.9.2-1.2.5zm-173 16c1.2.2 3.2.2 4.5 0 1.2-.2.2-.4-2.3-.4s-3.5.2-2.2.4zm68 0c1.2.2 3.2.2 4.5 0 1.2-.2.2-.4-2.3-.4s-3.5.2-2.2.4zm348.5 0c7 .2 18.4.2 25.5 0 7-.1 1.2-.3-12.8-.3s-19.8.2-12.7.3zm-425.5 2c.6.2 1.8.2 2.5 0 .6-.3.1-.5-1.3-.5-1.4 0-1.9.2-1.2.5zm88.5 0c.9.2 2.5.2 3.5 0 .9-.3.1-.5-1.8-.5-1.9 0-2.7.2-1.7.5zm301.5 0c2.8.2 7.6.2 10.5 0 2.8-.2.5-.3-5.3-.3s-8.1.1-5.2.3zm78.5 0c.9.2 2.5.2 3.5 0 .9-.3.1-.5-1.8-.5-1.9 0-2.7.2-1.7.5zm-364.5 4c.6.2 1.8.2 2.5 0 .6-.3.1-.5-1.3-.5-1.4 0-1.9.2-1.2.5zm36 2c.6.2 1.8.2 2.5 0 .6-.3.1-.5-1.3-.5-1.4 0-1.9.2-1.2.5zm188 0c.6.2 1.8.2 2.5 0 .6-.3.1-.5-1.3-.5-1.4 0-1.9.2-1.2.5zm-20 22c.6.2 1.8.2 2.5 0 .6-.3.1-.5-1.3-.5-1.4 0-1.9.2-1.2.5zm-17.5 12c.9.2 2.5.2 3.5 0 .9-.3.1-.5-1.8-.5-1.9 0-2.7.2-1.7.5zm-90.5 8c.6.2 1.8.2 2.5 0 .6-.3.1-.5-1.3-.5-1.4 0-1.9.2-1.2.5zm67 0c1.2.2 3.2.2 4.5 0 1.2-.2.2-.4-2.3-.4s-3.5.2-2.2.4zm131.5 22c2 .2 5.4.2 7.5 0 2-.2.3-.4-3.8-.4s-5.8.2-3.7.4zm33.5 0c.6.2 1.8.2 2.5 0 .6-.3.1-.5-1.3-.5-1.4 0-1.9.2-1.2.5zm14 0c1.7.2 4.7.2 6.5 0 1.7-.2.3-.4-3.3-.4-3.6 0-5 .2-3.2.4zm-421 2c1.2.2 3.2.2 4.5 0 1.2-.2.2-.4-2.3-.4s-3.5.2-2.2.4zm55 0c.6.2 1.8.2 2.5 0 .6-.3.1-.5-1.3-.5-1.4 0-1.9.2-1.2.5zm334 0c.6.2 1.8.2 2.5 0 .6-.3.1-.5-1.3-.5-1.4 0-1.9.2-1.2.5zm-142 54c1.7.2 4.7.2 6.5 0 1.7-.2.3-.4-3.3-.4-3.6 0-5 .2-3.2.4zm-106.5 4c3.7.2 9.7.2 13.5 0 3.7-.2.6-.3-6.8-.3-7.4 0-10.5.1-6.7.3zm175 0c.9.2 2.5.2 3.5 0 .9-.3.1-.5-1.8-.5-1.9 0-2.7.2-1.7.5zm-202.5 2c2.8.2 7.6.2 10.5 0 2.8-.2.5-.3-5.3-.3s-8.1.1-5.2.3zm210 0c.6.2 1.8.2 2.5 0 .6-.3.1-.5-1.3-.5-1.4 0-1.9.2-1.2.5zm-237 4c1.2.2 3.2.2 4.5 0 1.2-.2.2-.4-2.3-.4s-3.5.2-2.2.4z" fill="#FFF" fill-opacity=".25"/><path d="M369.4 289c0 1.3.4 1.6 1 1 .7-.7.7-1.3 0-2-.6-.6-1-.3-1 1zm-41.6 183.7c.7.3 1.6.2 1.9-.1.4-.3-.2-.6-1.3-.5-1.1 0-1.4.3-.6.6z" fill="#FFF" fill-opacity=".11"/><path d="M413 452.4c0 .2.8 1 1.8 1.7 1.5 1.3 1.6 1.2.3-.4s-2.1-2.1-2.1-1.3z" fill="#FFF" fill-opacity=".09"/><path d="M355.7 350.1c.7.7 1.5 1 1.8.7.3-.3-.2-.9-1.2-1.2-1.4-.6-1.5-.5-.6.5z" fill="#FFF" fill-opacity=".02"/><path d="m330.4 105.2-1.9 2.3 2.3-1.9c2.1-1.8 2.7-2.6 1.9-2.6-.2 0-1.2 1-2.3 2.2zm112.1-.2c1 1.1 2 2 2.3 2 .3 0-.3-.9-1.3-2s-2-2-2.3-2c-.3 0 .3.9 1.3 2zm-104 24c1 1.1 2 2 2.3 2 .3 0-.3-.9-1.3-2s-2-2-2.3-2c-.3 0 .3.9 1.3 2zm-32.1 36.2-1.9 2.3 2.3-1.9c2.1-1.8 2.7-2.6 1.9-2.6-.2 0-1.2 1-2.3 2.2zm34.1-.2c1 1.1 2 2 2.3 2 .3 0-.3-.9-1.3-2s-2-2-2.3-2c-.3 0 .3.9 1.3 2zm26 0c1 1.1 2 2 2.3 2 .3 0-.3-.9-1.3-2s-2-2-2.3-2c-.3 0 .3.9 1.3 2zm59.9.2-1.9 2.3 2.3-1.9c2.1-1.8 2.7-2.6 1.9-2.6-.2 0-1.2 1-2.3 2.2zm42.1-.2c1 1.1 2 2 2.3 2 .3 0-.3-.9-1.3-2s-2-2-2.3-2c-.3 0 .3.9 1.3 2zm-96 6c1 1.1 2 2 2.3 2 .3 0-.3-.9-1.3-2s-2-2-2.3-2c-.3 0 .3.9 1.3 2zm-64 24c1 1.1 2 2 2.3 2 .3 0-.3-.9-1.3-2s-2-2-2.3-2c-.3 0 .3.9 1.3 2zm81.5 1.4c.7.7 1.3.7 2 0 .6-.6.3-1-1-1s-1.6.4-1 1zm74.4 4.8-1.9 2.3 2.3-1.9c1.2-1.1 2.2-2.1 2.2-2.3 0-.8-.8-.2-2.6 1.9zm-6 6-1.9 2.3 2.3-1.9c2.1-1.8 2.7-2.6 1.9-2.6-.2 0-1.2 1-2.3 2.2zm-58.8.6c-.2.4.4.8 1.4.8 1 0 1.6-.4 1.4-.8-.3-.4-.9-.8-1.4-.8-.5 0-1.1.4-1.4.8zm14.8 5.4-1.9 2.3 2.3-1.9c2.1-1.8 2.7-2.6 1.9-2.6-.2 0-1.2 1-2.3 2.2zM400.5 231c1 1.1 2 2 2.3 2 .3 0-.3-.9-1.3-2s-2-2-2.3-2c-.3 0 .3.9 1.3 2zm-78 6c1 1.1 2 2 2.3 2 .3 0-.3-.9-1.3-2s-2-2-2.3-2c-.3 0 .3.9 1.3 2zm9.9.2-1.9 2.3 2.3-1.9c2.1-1.8 2.7-2.6 1.9-2.6-.2 0-1.2 1-2.3 2.2zm77.6-.8c.7.7 1.3.7 2 0 .6-.6.3-1-1-1s-1.6.4-1 1zm28.5.6c1 1.1 2 2 2.3 2 .3 0-.3-.9-1.3-2s-2-2-2.3-2c-.3 0 .3.9 1.3 2zm13.9.2-1.9 2.3 2.3-1.9c2.1-1.8 2.7-2.6 1.9-2.6-.2 0-1.2 1-2.3 2.2zM308.5 261c1 1.1 2 2 2.3 2 .3 0-.3-.9-1.3-2s-2-2-2.3-2c-.3 0 .3.9 1.3 2zm151.9.2-1.9 2.3 2.3-1.9c2.1-1.8 2.7-2.6 1.9-2.6-.2 0-1.2 1-2.3 2.2zm-27.9 1.8c1 1.1 2 2 2.3 2 .3 0-.3-.9-1.3-2s-2-2-2.3-2c-.3 0 .3.9 1.3 2zm-16.1 16.2-1.9 2.3 2.3-1.9c2.1-1.8 2.7-2.6 1.9-2.6-.2 0-1.2 1-2.3 2.2zm-57.9 5.8c1 1.1 2 2 2.3 2 .3 0-.3-.9-1.3-2s-2-2-2.3-2c-.3 0 .3.9 1.3 2zm46 6c1 1.1 2 2 2.3 2 .3 0-.3-.9-1.3-2s-2-2-2.3-2c-.3 0 .3.9 1.3 2zm-62 6c1 1.1 2 2 2.3 2 .3 0-.3-.9-1.3-2s-2-2-2.3-2c-.3 0 .3.9 1.3 2zm85.9.2-1.9 2.3 2.3-1.9c1.2-1.1 2.2-2.1 2.2-2.3 0-.8-.8-.2-2.6 1.9zm-81.9 5.8c1 1.1 2 2 2.3 2 .3 0-.3-.9-1.3-2s-2-2-2.3-2c-.3 0 .3.9 1.3 2zm-182 66c1 1.1 2 2 2.3 2 .3 0-.3-.9-1.3-2s-2-2-2.3-2c-.3 0 .3.9 1.3 2zm441.9.2-1.9 2.3 2.3-1.9c1.2-1.1 2.2-2.1 2.2-2.3 0-.8-.8-.2-2.6 1.9zM300.5 375c1 1.1 2 2 2.3 2 .3 0-.3-.9-1.3-2s-2-2-2.3-2c-.3 0 .3.9 1.3 2zm167.9.2-1.9 2.3 2.3-1.9c1.2-1.1 2.2-2.1 2.2-2.3 0-.8-.8-.2-2.6 1.9zM308.5 381c1 1.1 2 2 2.3 2 .3 0-.3-.9-1.3-2s-2-2-2.3-2c-.3 0 .3.9 1.3 2zm145.9 6.2-1.9 2.3 2.3-1.9c1.2-1.1 2.2-2.1 2.2-2.3 0-.8-.8-.2-2.6 1.9zM562.5 399c1 1.1 2 2 2.3 2 .3 0-.3-.9-1.3-2s-2-2-2.3-2c-.3 0 .3.9 1.3 2zm19.9.2-1.9 2.3 2.3-1.9c1.2-1.1 2.2-2.1 2.2-2.3 0-.8-.8-.2-2.6 1.9zm-150 30-1.9 2.3 2.3-1.9c2.1-1.8 2.7-2.6 1.9-2.6-.2 0-1.2 1-2.3 2.2zm-244 6-1.9 2.3 2.3-1.9c2.1-1.8 2.7-2.6 1.9-2.6-.2 0-1.2 1-2.3 2.2zm54.1 59.8c1 1.1 2 2 2.3 2 .3 0-.3-.9-1.3-2s-2-2-2.3-2c-.3 0 .3.9 1.3 2zm149.9 6.2-1.9 2.3 2.3-1.9c1.2-1.1 2.2-2.1 2.2-2.3 0-.8-.8-.2-2.6 1.9zm18.1 11.8c1 1.1 2 2 2.3 2 .3 0-.3-.9-1.3-2s-2-2-2.3-2c-.3 0 .3.9 1.3 2zm76 0c1 1.1 2 2 2.3 2 .3 0-.3-.9-1.3-2s-2-2-2.3-2c-.3 0 .3.9 1.3 2zm-348.1 12.2-1.9 2.3 2.3-1.9c2.1-1.8 2.7-2.6 1.9-2.6-.2 0-1.2 1-2.3 2.2zm235 3.8c0 1.3.4 1.6 1 1 .7-.7.7-1.3 0-2-.6-.6-1-.3-1 1zm-239 2.2-1.9 2.3 2.3-1.9c2.1-1.8 2.7-2.6 1.9-2.6-.2 0-1.2 1-2.3 2.2zm500.9 1.3c0 .8.4 1.2.9.9.5-.3.6-1 .3-1.5-.9-1.3-1.2-1.1-1.2.6zm-266.9 4.7-1.9 2.3 2.3-1.9c2.1-1.8 2.7-2.6 1.9-2.6-.2 0-1.2 1-2.3 2.2zm34.1-.2c1 1.1 2 2 2.3 2 .3 0-.3-.9-1.3-2s-2-2-2.3-2c-.3 0 .3.9 1.3 2zm-100.1 6.2-1.9 2.3 2.3-1.9c1.2-1.1 2.2-2.1 2.2-2.3 0-.8-.8-.2-2.6 1.9zm164.1-.2c1 1.1 2 2 2.3 2 .3 0-.3-.9-1.3-2s-2-2-2.3-2c-.3 0 .3.9 1.3 2zm-180 6c1 1.1 2 2 2.3 2 .3 0-.3-.9-1.3-2s-2-2-2.3-2c-.3 0 .3.9 1.3 2zm63.9.2-1.9 2.3 2.3-1.9c2.1-1.8 2.7-2.6 1.9-2.6-.2 0-1.2 1-2.3 2.2zm70.1-.2c1 1.1 2 2 2.3 2 .3 0-.3-.9-1.3-2s-2-2-2.3-2c-.3 0 .3.9 1.3 2zm54 0c1 1.1 2 2 2.3 2 .3 0-.3-.9-1.3-2s-2-2-2.3-2c-.3 0 .3.9 1.3 2zm-78 6c1 1.1 2 2 2.3 2 .3 0-.3-.9-1.3-2s-2-2-2.3-2c-.3 0 .3.9 1.3 2zm8 6c1 1.1 2 2 2.3 2 .3 0-.3-.9-1.3-2s-2-2-2.3-2c-.3 0 .3.9 1.3 2zm-288 6c1 1.1 2 2 2.3 2 .3 0-.3-.9-1.3-2s-2-2-2.3-2c-.3 0 .3.9 1.3 2zm161.9.2-1.9 2.3 2.3-1.9c1.2-1.1 2.2-2.1 2.2-2.3 0-.8-.8-.2-2.6 1.9zm378 0-1.9 2.3 2.3-1.9c2.1-1.8 2.7-2.6 1.9-2.6-.2 0-1.2 1-2.3 2.2zm-307 7-2.9 3.3 3.3-2.9c3-2.8 3.7-3.6 2.9-3.6-.2 0-1.6 1.5-3.3 3.2zm301-1-1.9 2.3 2.3-1.9c2.1-1.8 2.7-2.6 1.9-2.6-.2 0-1.2 1-2.3 2.2zM124.5 579c1 1.1 2 2 2.3 2 .3 0-.3-.9-1.3-2s-2-2-2.3-2c-.3 0 .3.9 1.3 2zm217.9.2-1.9 2.3 2.3-1.9c1.2-1.1 2.2-2.1 2.2-2.3 0-.8-.8-.2-2.6 1.9zm86.1-.2c1 1.1 2 2 2.3 2 .3 0-.3-.9-1.3-2s-2-2-2.3-2c-.3 0 .3.9 1.3 2zm217.9.2-1.9 2.3 2.3-1.9c2.1-1.8 2.7-2.6 1.9-2.6-.2 0-1.2 1-2.3 2.2zM130.5 585c1 1.1 2 2 2.3 2 .3 0-.3-.9-1.3-2s-2-2-2.3-2c-.3 0 .3.9 1.3 2zm233.9.2-1.9 2.3 2.3-1.9c1.2-1.1 2.2-2.1 2.2-2.3 0-.8-.8-.2-2.6 1.9zm42.1-.2c1 1.1 2 2 2.3 2 .3 0-.3-.9-1.3-2s-2-2-2.3-2c-.3 0 .3.9 1.3 2zm100 0c1 1.1 2 2 2.3 2 .3 0-.3-.9-1.3-2s-2-2-2.3-2c-.3 0 .3.9 1.3 2zm135.9.2-1.9 2.3 2.3-1.9c1.2-1.1 2.2-2.1 2.2-2.3 0-.8-.8-.2-2.6 1.9zm-380 6-1.9 2.3 2.3-1.9c1.2-1.1 2.2-2.1 2.2-2.3 0-.8-.8-.2-2.6 1.9zm-6 6-1.9 2.3 2.3-1.9c2.1-1.8 2.7-2.6 1.9-2.6-.2 0-1.2 1-2.3 2.2zm376 0-1.9 2.3 2.3-1.9c2.1-1.8 2.7-2.6 1.9-2.6-.2 0-1.2 1-2.3 2.2zm-382 6-1.9 2.3 2.3-1.9c2.1-1.8 2.7-2.6 1.9-2.6-.2 0-1.2 1-2.3 2.2zm376 0-1.9 2.3 2.3-1.9c2.1-1.8 2.7-2.6 1.9-2.6-.2 0-1.2 1-2.3 2.2zm-384 6-1.9 2.3 2.3-1.9c2.1-1.8 2.7-2.6 1.9-2.6-.2 0-1.2 1-2.3 2.2zm376 0-1.9 2.3 2.3-1.9c1.2-1.1 2.2-2.1 2.2-2.3 0-.8-.8-.2-2.6 1.9zm-384 6-1.9 2.3 2.3-1.9c2.1-1.8 2.7-2.6 1.9-2.6-.2 0-1.2 1-2.3 2.2z" fill="#FFF" fill-opacity=".18"/><path d="M413.4 426.1c-.3.6-.2 1.5.3 2s.9.1.9-1.1c0-2.3-.2-2.4-1.2-.9z" fill="#FFF" fill-opacity=".02"/><path d="M355.4 412.1c-.3.6-.2 1.5.3 2s.9.1.9-1.1c0-2.3-.2-2.4-1.2-.9z" fill="#FFF" fill-opacity=".04"/><path d="M295.4 238.1c-.3.6-.2 1.5.3 2s.9.1.9-1.1c0-2.3-.2-2.4-1.2-.9zM590 616.4c.7.7 1.3.7 2 0 .6-.6.3-1-1-1s-1.6.4-1 1zm-176.2 56.3c.6.2 1.8.2 2.5 0 .6-.3.1-.5-1.3-.5-1.4 0-1.9.2-1.2.5z" fill="#FFF" fill-opacity=".03"/><path d="M393.2 297c0 1.4.2 1.9.5 1.2.2-.6.2-1.8 0-2.5-.3-.6-.5-.1-.5 1.3z" fill="#FFF" fill-opacity=".16"/><path d="M393.4 193c0 1.3.4 1.6 1 1 .7-.7.7-1.3 0-2-.6-.6-1-.3-1 1z" fill="#FFF" fill-opacity=".1"/><path d="M446 240.4c.7.7 1.3.7 2 0 .6-.6.3-1-1-1s-1.6.4-1 1z" fill="#FFF" fill-opacity=".07"/><path d="M394.2 297c0 1.4.2 1.9.5 1.2.2-.6.2-1.8 0-2.5-.3-.6-.5-.1-.5 1.3z" fill="#FFF" fill-opacity=".46"/></svg>