<svg version="1.0" xmlns="http://www.w3.org/2000/svg" viewBox="0 0 590 576"><path d="M284.8 40.7c10.5.2 27.9.2 38.5 0 10.5-.1 1.9-.2-19.3-.2s-29.8.1-19.2.2zm-142 4c.6.2 1.8.2 2.5 0 .6-.3.1-.5-1.3-.5-1.4 0-1.9.2-1.2.5zm103 0c1.2.2 3 .2 4 0 .9-.3-.1-.5-2.3-.4-2.2 0-3 .2-1.7.4zm111 0c1.2.2 3 .2 4 0 .9-.3-.1-.5-2.3-.4-2.2 0-3 .2-1.7.4zm8.1 1.6c.5.5 1.9.7 3.2.5 2-.3 1.9-.5-.9-.9-2-.3-2.9-.2-2.3.4zm-226.1.4c.7.3 1.6.2 1.9-.1.4-.3-.2-.6-1.3-.5-1.1 0-1.4.3-.6.6zm9 0c.7.3 1.6.2 1.9-.1.4-.3-.2-.6-1.3-.5-1.1 0-1.4.3-.6.6zm90 0c1.2.2 3 .2 4 0 .9-.3-.1-.5-2.3-.4-2.2 0-3 .2-1.7.4zm-84 4c.7.3 1.6.2 1.9-.1.4-.3-.2-.6-1.3-.5-1.1 0-1.4.3-.6.6zm71.5 0c.9.2 2.3.2 3 0 .6-.3-.1-.5-1.8-.5-1.6 0-2.2.2-1.2.5zm150.5 0c.7.3 1.6.2 1.9-.1.4-.3-.2-.6-1.3-.5-1.1 0-1.4.3-.6.6zm-155 2c.7.3 1.6.2 1.9-.1.4-.3-.2-.6-1.3-.5-1.1 0-1.4.3-.6.6zm159.5 0c.9.2 2.3.2 3 0 .6-.3-.1-.5-1.8-.5-1.6 0-2.2.2-1.2.5zm-167.5 4c.7.3 1.6.2 1.9-.1.4-.3-.2-.6-1.3-.5-1.1 0-1.4.3-.6.6zm-4 2c.7.3 1.6.2 1.9-.1.4-.3-.2-.6-1.3-.5-1.1 0-1.4.3-.6.6zm-109.5 4c3.1.2 8.3.2 11.5 0 3.1-.2.5-.3-5.8-.3s-8.9.1-5.7.3zm103.5 0c.7.3 1.6.2 1.9-.1.4-.3-.2-.6-1.3-.5-1.1 0-1.4.3-.6.6zm197 0c.7.3 1.6.2 1.9-.1.4-.3-.2-.6-1.3-.5-1.1 0-1.4.3-.6.6zm79 0c.7.3 1.6.2 1.9-.1.4-.3-.2-.6-1.3-.5-1.1 0-1.4.3-.6.6zm-359 2c.7.3 1.6.2 1.9-.1.4-.3-.2-.6-1.3-.5-1.1 0-1.4.3-.6.6zm355 0c.7.3 1.6.2 1.9-.1.4-.3-.2-.6-1.3-.5-1.1 0-1.4.3-.6.6zm-347 4c.7.3 1.6.2 1.9-.1.4-.3-.2-.6-1.3-.5-1.1 0-1.4.3-.6.6zm148 0c.7.3 1.6.2 1.9-.1.4-.3-.2-.6-1.3-.5-1.1 0-1.4.3-.6.6zm68.5 0c.9.2 2.3.2 3 0 .6-.3-.1-.5-1.8-.5-1.6 0-2.2.2-1.2.5zm-153.5 2c.7.3 1.6.2 1.9-.1.4-.3-.2-.6-1.3-.5-1.1 0-1.4.3-.6.6zm159 0c.7.3 1.6.2 1.9-.1.4-.3-.2-.6-1.3-.5-1.1 0-1.4.3-.6.6zm-214 4c.7.3 1.6.2 1.9-.1.4-.3-.2-.6-1.3-.5-1.1 0-1.4.3-.6.6zm47 2c.7.3 1.6.2 1.9-.1.4-.3-.2-.6-1.3-.5-1.1 0-1.4.3-.6.6zm336 10c.7.3 1.6.2 1.9-.1.4-.3-.2-.6-1.3-.5-1.1 0-1.4.3-.6.6zm-450 6c.7.3 1.6.2 1.9-.1.4-.3-.2-.6-1.3-.5-1.1 0-1.4.3-.6.6zm17.5 0c.9.2 2.3.2 3 0 .6-.3-.1-.5-1.8-.5-1.6 0-2.2.2-1.2.5zm144 0c1.5.2 3.9.2 5.5 0 1.5-.2.2-.4-2.8-.4s-4.3.2-2.7.4zm10.5 0c.6.2 1.8.2 2.5 0 .6-.3.1-.5-1.3-.5-1.4 0-1.9.2-1.2.5zm-176 2c.7.3 1.6.2 1.9-.1.4-.3-.2-.6-1.3-.5-1.1 0-1.4.3-.6.6zm27.5 0c.9.2 2.3.2 3 0 .6-.3-.1-.5-1.8-.5-1.6 0-2.2.2-1.2.5zm160 0c4.3.2 11 .2 15 0 4-.1.5-.3-7.8-.3-8.2 0-11.5.2-7.2.3zm86 0c1.5.2 3.7.2 5 0 1.2-.2 0-.4-2.8-.4-2.7 0-3.8.2-2.2.4zm31.5 0c2.9.2 7.4.2 10 0 2.6-.2.2-.3-5.3-.3s-7.6.1-4.7.3zm-311 4c.7.3 1.6.2 1.9-.1.4-.3-.2-.6-1.3-.5-1.1 0-1.4.3-.6.6zm68 0c2.8.2 7.6.2 10.5 0 2.8-.2.5-.3-5.3-.3s-8.1.1-5.2.3zm198 0c.7.3 1.6.2 1.9-.1.4-.3-.2-.6-1.3-.5-1.1 0-1.4.3-.6.6zm165 0c.7.3 1.6.2 1.9-.1.4-.3-.2-.6-1.3-.5-1.1 0-1.4.3-.6.6zM117.5 100c-1.3.6-1.5.9-.5.9.8 0 2.2-.4 3-.9 1.8-1.2.2-1.2-2.5 0zm26.8.7c.9.2 2.3.2 3 0 .6-.3-.1-.5-1.8-.5-1.6 0-2.2.2-1.2.5zm176.5 0c.7.3 1.6.2 1.9-.1.4-.3-.2-.6-1.3-.5-1.1 0-1.4.3-.6.6zm138 4c.7.3 1.6.2 1.9-.1.4-.3-.2-.6-1.3-.5-1.1 0-1.4.3-.6.6zm-9.5 2c1.5.2 3.9.2 5.5 0 1.5-.2.2-.4-2.8-.4s-4.3.2-2.7.4zm52.5 0c.6.2 1.8.2 2.5 0 .6-.3.1-.5-1.3-.5-1.4 0-1.9.2-1.2.5zm-98 6c.7.3 1.6.2 1.9-.1.4-.3-.2-.6-1.3-.5-1.1 0-1.4.3-.6.6zm-164.5 4c.9.2 2.3.2 3 0 .6-.3-.1-.5-1.8-.5-1.6 0-2.2.2-1.2.5zm-158.5 8c.7.3 1.6.2 1.9-.1.4-.3-.2-.6-1.3-.5-1.1 0-1.4.3-.6.6zm384.5 0c.9.2 2.3.2 3 0 .6-.3-.1-.5-1.8-.5-1.6 0-2.2.2-1.2.5zm-327.5 4c.7.3 1.6.2 1.9-.1.4-.3-.2-.6-1.3-.5-1.1 0-1.4.3-.6.6zm313 0c.7.3 1.6.2 1.9-.1.4-.3-.2-.6-1.3-.5-1.1 0-1.4.3-.6.6zm-4 2c.7.3 1.6.2 1.9-.1.4-.3-.2-.6-1.3-.5-1.1 0-1.4.3-.6.6zm-301 4c.6.2 1.8.2 2.5 0 .6-.3.1-.5-1.3-.5-1.4 0-1.9.2-1.2.5zm108.5 2c2 .2 5.4.2 7.5 0 2-.2.3-.4-3.8-.4s-5.8.2-3.7.4zm-26.5 4c.6.2 1.8.2 2.5 0 .6-.3.1-.5-1.3-.5-1.4 0-1.9.2-1.2.5zm121 0c1.2.2 3.2.2 4.5 0 1.2-.2.2-.4-2.3-.4s-3.5.2-2.2.4zm194 6c.7.3 1.6.2 1.9-.1.4-.3-.2-.6-1.3-.5-1.1 0-1.4.3-.6.6zm-414 8c.7.3 1.6.2 1.9-.1.4-.3-.2-.6-1.3-.5-1.1 0-1.4.3-.6.6zm215 4c.6.2 1.8.2 2.5 0 .6-.3.1-.5-1.3-.5-1.4 0-1.9.2-1.2.5zm-132 2c.7.3 1.6.2 1.9-.1.4-.3-.2-.6-1.3-.5-1.1 0-1.4.3-.6.6zm286 4c.6.2 1.8.2 2.5 0 .6-.3.1-.5-1.3-.5-1.4 0-1.9.2-1.2.5zm-25.8 3.7c.7.7 1.3.7 2 0 .6-.6.3-1-1-1s-1.6.4-1 1zm-433.7 2.3c3.7.2 9.7.2 13.5 0 3.7-.2.6-.3-6.8-.3-7.4 0-10.5.1-6.7.3zm112.5 0c.7.3 1.6.2 1.9-.1.4-.3-.2-.6-1.3-.5-1.1 0-1.4.3-.6.6zm315 0c.7.3 1.6.2 1.9-.1.4-.3-.2-.6-1.3-.5-1.1 0-1.4.3-.6.6zm-405 2c1.2.2 3.2.2 4.5 0 1.2-.2.2-.4-2.3-.4s-3.5.2-2.2.4zm82.5 0c.9.2 2.3.2 3 0 .6-.3-.1-.5-1.8-.5-1.6 0-2.2.2-1.2.5zm326.5 0c.6.2 1.8.2 2.5 0 .6-.3.1-.5-1.3-.5-1.4 0-1.9.2-1.2.5zm-197 4c.7.3 1.6.2 1.9-.1.4-.3-.2-.6-1.3-.5-1.1 0-1.4.3-.6.6zm29 0c.7.3 1.6.2 1.9-.1.4-.3-.2-.6-1.3-.5-1.1 0-1.4.3-.6.6zm-206 2c.7.3 1.6.2 1.9-.1.4-.3-.2-.6-1.3-.5-1.1 0-1.4.3-.6.6zm151 0c1.2.2 3 .2 4 0 .9-.3-.1-.5-2.3-.4-2.2 0-3 .2-1.7.4zm20.5 0c.9.2 2.3.2 3 0 .6-.3-.1-.5-1.8-.5-1.6 0-2.2.2-1.2.5zm39 0c.9.2 2.3.2 3 0 .6-.3-.1-.5-1.8-.5-1.6 0-2.2.2-1.2.5zm53.5 0c.6.2 1.8.2 2.5 0 .6-.3.1-.5-1.3-.5-1.4 0-1.9.2-1.2.5zm148 4c.6.2 1.8.2 2.5 0 .6-.3.1-.5-1.3-.5-1.4 0-1.9.2-1.2.5zm-60 6c.7.3 1.6.2 1.9-.1.4-.3-.2-.6-1.3-.5-1.1 0-1.4.3-.6.6zm89.5 0c2 .2 5.4.2 7.5 0 2-.2.3-.4-3.8-.4s-5.8.2-3.7.4zm-11 2c1.5.2 3.7.2 5 0 1.2-.2 0-.4-2.8-.4-2.7 0-3.8.2-2.2.4zm25.5 0c.7.3 1.6.2 1.9-.1.4-.3-.2-.6-1.3-.5-1.1 0-1.4.3-.6.6zm-402.5 4c.9.2 2.3.2 3 0 .6-.3-.1-.5-1.8-.5-1.6 0-2.2.2-1.2.5zm34 0c.9.2 2.5.2 3.5 0 .9-.3.1-.5-1.8-.5-1.9 0-2.7.2-1.7.5zm278 0c1.5.2 3.7.2 5 0 1.2-.2 0-.4-2.8-.4-2.7 0-3.8.2-2.2.4zm12.5 0c1.2.2 3 .2 4 0 .9-.3-.1-.5-2.3-.4-2.2 0-3 .2-1.7.4zm-335 2c1.2.2 3.2.2 4.5 0 1.2-.2.2-.4-2.3-.4s-3.5.2-2.2.4zm170.5 12c.9.2 2.5.2 3.5 0 .9-.3.1-.5-1.8-.5-1.9 0-2.7.2-1.7.5zm185 0c.9.2 2.3.2 3 0 .6-.3-.1-.5-1.8-.5-1.6 0-2.2.2-1.2.5zm-395.5 4c.7.3 1.6.2 1.9-.1.4-.3-.2-.6-1.3-.5-1.1 0-1.4.3-.6.6zm187.5 0c.9.2 2.3.2 3 0 .6-.3-.1-.5-1.8-.5-1.6 0-2.2.2-1.2.5zm217.5 0c.7.3 1.6.2 1.9-.1.4-.3-.2-.6-1.3-.5-1.1 0-1.4.3-.6.6zm-409 2c.7.3 1.6.2 1.9-.1.4-.3-.2-.6-1.3-.5-1.1 0-1.4.3-.6.6zm197 0c.7.3 1.6.2 1.9-.1.4-.3-.2-.6-1.3-.5-1.1 0-1.4.3-.6.6zM182 219c0 .5.5 1 1 1 .6 0 1-.5 1-1 0-.6-.4-1-1-1-.5 0-1 .4-1 1zm285.8-.3c.7.3 1.6.2 1.9-.1.4-.3-.2-.6-1.3-.5-1.1 0-1.4.3-.6.6zm-159 2c.7.3 1.6.2 1.9-.1.4-.3-.2-.6-1.3-.5-1.1 0-1.4.3-.6.6zm-151.9 3c-1.3 1.6-1.2 1.7.3.5.9-.8 2.3-1 2.9-.6.8.4.9.3.5-.4-1-1.7-2.1-1.5-3.7.5zm65.2-.7c-1.8 1.1 6 2.3 10.9 1.7 2.5-.3 1.9-.4-2-.5-3.1-.1-6-.6-6.6-1.2-.5-.5-1.5-.6-2.3 0zm-70.7 1.8c0 1.9 1.9 2.4 3.1.9.3-.4.2-.5-.2-.2-.3.3-1.1-.2-1.7-1.1-1-1.3-1.2-1.3-1.2.4zm281.7-.4c-.9 1-.8 1.5.2 1.9.8.3 1.3-.3 1.3-1.4 0-2.3 0-2.3-1.5-.5zm-240.4.3c1.8.2 5 .2 7 0 2.1-.2.7-.4-3.2-.4-3.8 0-5.5.2-3.8.4zm16.6 0c1.5.2 3.9.2 5.5 0 1.5-.2.2-.4-2.8-.4s-4.3.2-2.7.4zm76.5 0c.7.3 1.6.2 1.9-.1.4-.3-.2-.6-1.3-.5-1.1 0-1.4.3-.6.6zm17 0c.7.3 1.6.2 1.9-.1.4-.3-.2-.6-1.3-.5-1.1 0-1.4.3-.6.6zm-117.5 2c.9.2 2.3.2 3 0 .6-.3-.1-.5-1.8-.5-1.6 0-2.2.2-1.2.5zm53.5 0c1.2.2 3 .2 4 0 .9-.3-.1-.5-2.3-.4-2.2 0-3 .2-1.7.4zm51 0c.7.3 1.6.2 1.9-.1.4-.3-.2-.6-1.3-.5-1.1 0-1.4.3-.6.6zm97 4c2.8.2 7.6.2 10.5 0 2.8-.2.5-.3-5.3-.3s-8.1.1-5.2.3zm22.7.2c-.6.5-1.9 1.1-3 1.4-1.9.4-1.9.5.1.6 1.2 0 2.7-.6 3.4-1.4 1.4-1.6 1-2-.5-.6zm5.3 1.3c.6.6 1.8.8 2.8.6 1.4-.3 1.2-.5-.9-1-1.9-.3-2.5-.2-1.9.4zm-46.1.5c1.8.2 5 .2 7 0 2.1-.2.7-.4-3.2-.4-3.8 0-5.5.2-3.8.4zm-17.9 4c.7.3 1.6.2 1.9-.1.4-.3-.2-.6-1.3-.5-1.1 0-1.4.3-.6.6zm-41.5 2c.9.2 2.5.2 3.5 0 .9-.3.1-.5-1.8-.5-1.9 0-2.7.2-1.7.5zm35.5 0c.7.3 1.6.2 1.9-.1.4-.3-.2-.6-1.3-.5-1.1 0-1.4.3-.6.6zm-197.2 3.2c-.4.5-.2 2 .3 3.3.9 2.1.9 2 .8-.9-.2-3.6-.3-3.8-1.1-2.4zM232 247c0 .5.5 1 1 1 .6 0 1-.5 1-1 0-.6-.4-1-1-1-.5 0-1 .4-1 1zm78.8 3.7c.6.2 1.8.2 2.5 0 .6-.3.1-.5-1.3-.5-1.4 0-1.9.2-1.2.5zm205 4c.7.3 1.6.2 1.9-.1.4-.3-.2-.6-1.3-.5-1.1 0-1.4.3-.6.6zm-399 2c.6.2 1.8.2 2.5 0 .6-.3.1-.5-1.3-.5-1.4 0-1.9.2-1.2.5zm63.5 6c3.2.2 8.1.2 11 0 2.9-.2.3-.3-5.8-.3-6 0-8.4.1-5.2.3zm35.5 4c1.2.2 3 .2 4 0 .9-.3-.1-.5-2.3-.4-2.2 0-3 .2-1.7.4zm21.5 0c1.5.2 3.7.2 5 0 1.2-.2 0-.4-2.8-.4-2.7 0-3.8.2-2.2.4zm128 0c2 .2 5.4.2 7.5 0 2-.2.3-.4-3.8-.4s-5.8.2-3.7.4zm101.5 0c.6.2 1.8.2 2.5 0 .6-.3.1-.5-1.3-.5-1.4 0-1.9.2-1.2.5zm-256 2c.7.3 1.6.2 1.9-.1.4-.3-.2-.6-1.3-.5-1.1 0-1.4.3-.6.6zm36 0c1.2.2 3 .2 4 0 .9-.3-.1-.5-2.3-.4-2.2 0-3 .2-1.7.4zm65 0c.7.3 1.6.2 1.9-.1.4-.3-.2-.6-1.3-.5-1.1 0-1.4.3-.6.6zm42.5 0c1.5.2 3.7.2 5 0 1.2-.2 0-.4-2.8-.4-2.7 0-3.8.2-2.2.4zm24 0c.9.2 2.3.2 3 0 .6-.3-.1-.5-1.8-.5-1.6 0-2.2.2-1.2.5zm-273.5 4c.7.3 1.6.2 1.9-.1.4-.3-.2-.6-1.3-.5-1.1 0-1.4.3-.6.6zm98 0c.7.3 1.6.2 1.9-.1.4-.3-.2-.6-1.3-.5-1.1 0-1.4.3-.6.6zm61 0c1.2.2 3.2.2 4.5 0 1.2-.2.2-.4-2.3-.4s-3.5.2-2.2.4zm14 0c1.2.2 3 .2 4 0 .9-.3-.1-.5-2.3-.4-2.2 0-3 .2-1.7.4zm50.5 0c.9.2 2.3.2 3 0 .6-.3-.1-.5-1.8-.5-1.6 0-2.2.2-1.2.5zm14.5 0c.7.3 1.6.2 1.9-.1.4-.3-.2-.6-1.3-.5-1.1 0-1.4.3-.6.6zm45 0c.7.3 1.6.2 1.9-.1.4-.3-.2-.6-1.3-.5-1.1 0-1.4.3-.6.6zM272 274c-.9.6-1 1-.3 1 .6 0 1.5-.5 1.8-1 .8-1.2.4-1.2-1.5 0zm66.8.7c.7.3 1.6.2 1.9-.1.4-.3-.2-.6-1.3-.5-1.1 0-1.4.3-.6.6zm53 0c.7.3 1.6.2 1.9-.1.4-.3-.2-.6-1.3-.5-1.1 0-1.4.3-.6.6zm19.5 0c.9.2 2.3.2 3 0 .6-.3-.1-.5-1.8-.5-1.6 0-2.2.2-1.2.5zm74.5 10c.7.3 1.6.2 1.9-.1.4-.3-.2-.6-1.3-.5-1.1 0-1.4.3-.6.6zm-305 30c.7.3 1.6.2 1.9-.1.4-.3-.2-.6-1.3-.5-1.1 0-1.4.3-.6.6zm11 30c.7.3 1.6.2 1.9-.1.4-.3-.2-.6-1.3-.5-1.1 0-1.4.3-.6.6zm64 0c1.2.2 3.2.2 4.5 0 1.2-.2.2-.4-2.3-.4s-3.5.2-2.2.4zm145 0c.7.3 1.6.2 1.9-.1.4-.3-.2-.6-1.3-.5-1.1 0-1.4.3-.6.6zm-204.5 2c.9.2 2.3.2 3 0 .6-.3-.1-.5-1.8-.5-1.6 0-2.2.2-1.2.5zm48.5 0c1.8.2 4.5.2 6 0s0-.4-3.3-.4-4.5.2-2.7.4zm19.5 0c.9.2 2.3.2 3 0 .6-.3-.1-.5-1.8-.5-1.6 0-2.2.2-1.2.5zm65.5 0c1.2.2 3.2.2 4.5 0 1.2-.2.2-.4-2.3-.4s-3.5.2-2.2.4zm60.5 0c1.5.2 3.7.2 5 0 1.2-.2 0-.4-2.8-.4-2.7 0-3.8.2-2.2.4zm-172.5 4c.6.2 1.8.2 2.5 0 .6-.3.1-.5-1.3-.5-1.4 0-1.9.2-1.2.5zm136.5 0c4.2.2 11.2.2 15.5 0 4.2-.1.7-.3-7.8-.3s-12 .2-7.7.3zm-172 18c.9.2 2.3.2 3 0 .6-.3-.1-.5-1.8-.5-1.6 0-2.2.2-1.2.5zm223.5 0c1.2.2 3 .2 4 0 .9-.3-.1-.5-2.3-.4-2.2 0-3 .2-1.7.4zm-216.5 2c1.5.2 3.7.2 5 0 1.2-.2 0-.4-2.8-.4-2.7 0-3.8.2-2.2.4zm188.5 0c4.6.2 11.8.2 16 0 4.2-.1.5-.3-8.3-.3s-12.3.2-7.7.3zm-127 48c.6.2 1.8.2 2.5 0 .6-.3.1-.5-1.3-.5-1.4 0-1.9.2-1.2.5zm27.5 22c.9.2 2.5.2 3.5 0 .9-.3.1-.5-1.8-.5-1.9 0-2.7.2-1.7.5zm11.5 0c.6.2 1.8.2 2.5 0 .6-.3.1-.5-1.3-.5-1.4 0-1.9.2-1.2.5zm15.5 0c2.6.2 6.8.2 9.5 0 2.6-.2.4-.3-4.8-.3s-7.4.1-4.7.3zm32 0c.9.2 2.3.2 3 0 .6-.3-.1-.5-1.8-.5-1.6 0-2.2.2-1.2.5zm-11.5 2c.6.2 1.8.2 2.5 0 .6-.3.1-.5-1.3-.5-1.4 0-1.9.2-1.2.5zm-19 42c.7.3 1.6.2 1.9-.1.4-.3-.2-.6-1.3-.5-1.1 0-1.4.3-.6.6zm-87 4c.7.3 1.6.2 1.9-.1.4-.3-.2-.6-1.3-.5-1.1 0-1.4.3-.6.6zm73 0c1.2.2 3.2.2 4.5 0 1.2-.2.2-.4-2.3-.4s-3.5.2-2.2.4zm-42 6c.6.2 1.8.2 2.5 0 .6-.3.1-.5-1.3-.5-1.4 0-1.9.2-1.2.5zm92.5 2c.9.2 2.5.2 3.5 0 .9-.3.1-.5-1.8-.5-1.9 0-2.7.2-1.7.5zm-8.5 4c.7.3 1.6.2 1.9-.1.4-.3-.2-.6-1.3-.5-1.1 0-1.4.3-.6.6zm-64.5 30c.9.2 2.3.2 3 0 .6-.3-.1-.5-1.8-.5-1.6 0-2.2.2-1.2.5zm33 0c4.3.2 11 .2 15 0 4-.1.5-.3-7.8-.3-8.2 0-11.5.2-7.2.3zm-23.5 2c2.8.2 7.6.2 10.5 0 2.8-.2.5-.3-5.3-.3s-8.1.1-5.2.3z" fill="none"/><path d="M247.4 496.1c-.3.6-.2 1.5.3 2s.9.1.9-1.1c0-2.3-.2-2.4-1.2-.9z" fill="#FFF" fill-opacity=".07"/><path d="M284.8 41.7c10 .2 26.4.2 36.5 0 10-.1 1.8-.2-18.3-.2s-28.3.1-18.2.2zm-38.5 4c.9.2 2.5.2 3.5 0 .9-.3.1-.5-1.8-.5-1.9 0-2.7.2-1.7.5zm110 0c.9.2 2.5.2 3.5 0 .9-.3.1-.5-1.8-.5-1.9 0-2.7.2-1.7.5zm-118 2c.9.2 2.5.2 3.5 0 .9-.3.1-.5-1.8-.5-1.9 0-2.7.2-1.7.5zm-12.5 4c.6.2 1.8.2 2.5 0 .6-.3.1-.5-1.3-.5-1.4 0-1.9.2-1.2.5zm154 2c.6.2 1.8.2 2.5 0 .6-.3.1-.5-1.3-.5-1.4 0-1.9.2-1.2.5zm-280 10c2.8.2 7.6.2 10.5 0 2.8-.2.5-.3-5.3-.3s-8.1.1-5.2.3zm244 6c.6.2 1.8.2 2.5 0 .6-.3.1-.5-1.3-.5-1.4 0-1.9.2-1.2.5zm-258 24c.6.2 1.8.2 2.5 0 .6-.3.1-.5-1.3-.5-1.4 0-1.9.2-1.2.5zm145 0c1.2.2 3.2.2 4.5 0 1.2-.2.2-.4-2.3-.4s-3.5.2-2.2.4zm-139 2c.6.2 1.8.2 2.5 0 .6-.3.1-.5-1.3-.5-1.4 0-1.9.2-1.2.5zm160 0c3.9.2 10.5.2 14.5 0 3.9-.1.7-.3-7.3-.3s-11.2.2-7.2.3zm88 0c1.7.2 4.7.2 6.5 0 1.7-.2.3-.4-3.3-.4-3.6 0-5 .2-3.2.4zm29.5 0c2.6.2 6.8.2 9.5 0 2.6-.2.4-.3-4.8-.3s-7.4.1-4.7.3zm-242.5 4c2.3.2 6.1.2 8.5 0 2.3-.2.4-.4-4.3-.4s-6.6.2-4.2.4zm322.5 8c1.5.2 3.9.2 5.5 0 1.5-.2.2-.4-2.8-.4s-4.3.2-2.7.4zm52.5 0c.6.2 1.8.2 2.5 0 .6-.3.1-.5-1.3-.5-1.4 0-1.9.2-1.2.5zm-403.1 9.4c.7.7 1.5 1 1.8.7.3-.3-.2-.9-1.2-1.2-1.4-.6-1.5-.5-.6.5zm141.1.6c.6.2 1.8.2 2.5 0 .6-.3.1-.5-1.3-.5-1.4 0-1.9.2-1.2.5zM93 119c0 .5 1 1 2.3 1 1.8 0 1.9-.2.7-1-1.9-1.3-3-1.3-3 0zm372.8 6.7c.6.2 1.8.2 2.5 0 .6-.3.1-.5-1.3-.5-1.4 0-1.9.2-1.2.5zM282 129c-.9.6-1 1-.3 1 .6 0 1.5-.5 1.8-1 .8-1.2.4-1.2-1.5 0zm-135 6c-2.3.7-2.3.8-.3.9 1.2.1 2.5-.4 2.8-.9.3-.6.5-1 .3-.9-.2.1-1.4.5-2.8.9zm111 2-7.5.6 7.2.2c3.9.1 7.5-.3 7.8-.8.3-.6.5-.9.3-.8-.2.1-3.7.4-7.8.8zm-29.7 4.7c.9.2 2.5.2 3.5 0 .9-.3.1-.5-1.8-.5-1.9 0-2.7.2-1.7.5zm120.5 0c1.2.2 3.2.2 4.5 0 1.2-.2.2-.4-2.3-.4s-3.5.2-2.2.4zM263.5 153c2.7 1.2 4.3 1.2 2.5 0-.8-.5-2.2-.9-3-.9-1 0-.8.3.5.9zm-10.5 2c0 .5 1.9 1 4.3 1 3.1 0 3.8-.3 2.7-1-2-1.3-7-1.3-7 0zm93 4c-3.3.7-3.1.7 1.8.9 2.9 0 5.2-.3 5.2-.9 0-1.1-1.7-1.1-7 0zm150.8 6.2c.6.6 1.8.8 2.8.6 1.4-.3 1.2-.5-.9-1-1.9-.3-2.5-.2-1.9.4zm-456.6 6.5c3.2.2 8.4.2 11.5 0 3.2-.2.6-.3-5.7-.3s-8.9.1-5.8.3zM63 173l-4.5.7 4.2.1c2.3.1 4.5-.3 4.8-.8.3-.6.5-.9.3-.8-.2 0-2.3.4-4.8.8zm80.8.7c.6.2 1.8.2 2.5 0 .6-.3.1-.5-1.3-.5-1.4 0-1.9.2-1.2.5zm326 0c.6.2 1.8.2 2.5 0 .6-.3.1-.5-1.3-.5-1.4 0-1.9.2-1.2.5zm-169.1 3.4c.7.7 1.5 1 1.8.7.3-.3-.2-.9-1.2-1.2-1.4-.6-1.5-.5-.6.5zm-54.4 2.6c.9.2 2.5.2 3.5 0 .9-.3.1-.5-1.8-.5-1.9 0-2.7.2-1.7.5zm21.5 0c.6.2 1.8.2 2.5 0 .6-.3.1-.5-1.3-.5-1.4 0-1.9.2-1.2.5zm38 0c.6.2 1.8.2 2.5 0 .6-.3.1-.5-1.3-.5-1.4 0-1.9.2-1.2.5zm200.9 3.5c.2.5 1.3.8 2.3.8 1 0 2.1-.3 2.3-.8.3-.4-.8-.7-2.3-.7-1.5 0-2.6.3-2.3.7zm32.6 6.5c1.5.2 3.9.2 5.5 0 1.5-.2.2-.4-2.8-.4s-4.3.2-2.7.4zm-12.5 2c1.2.2 3.2.2 4.5 0 1.2-.2.2-.4-2.3-.4s-3.5.2-2.2.4zm-377 4c.6.2 1.8.2 2.5 0 .6-.3.1-.5-1.3-.5-1.4 0-1.9.2-1.2.5zm34 0c.6.2 1.8.2 2.5 0 .6-.3.1-.5-1.3-.5-1.4 0-1.9.2-1.2.5zm276.5 0c.9.2 2.5.2 3.5 0 .9-.3.1-.5-1.8-.5-1.9 0-2.7.2-1.7.5zm14 0c.9.2 2.5.2 3.5 0 .9-.3.1-.5-1.8-.5-1.9 0-2.7.2-1.7.5zm-338.5 2c1.7.2 4.7.2 6.5 0 1.7-.2.3-.4-3.3-.4-3.6 0-5 .2-3.2.4zM87 201c-2.3.7-2.3.8-.3.9 1.2.1 2.5-.4 2.8-.9.3-.6.5-1 .3-.9-.2.1-1.4.5-2.8.9zm222.8 8.7c.6.2 1.8.2 2.5 0 .6-.3.1-.5-1.3-.5-1.4 0-1.9.2-1.2.5zm182.5 0c.9.2 2.5.2 3.5 0 .9-.3.1-.5-1.8-.5-1.9 0-2.7.2-1.7.5zm-206.5 4c.6.2 1.8.2 2.5 0 .6-.3.1-.5-1.3-.5-1.4 0-1.9.2-1.2.5zM401 219c0 .5.5 1 1 1 .6 0 1-.5 1-1 0-.6-.4-1-1-1-.5 0-1 .4-1 1zm-207.2 6.7c1.7.2 4.7.2 6.5 0 1.7-.2.3-.4-3.3-.4-3.6 0-5 .2-3.2.4zm20 0c3.9.2 10.5.2 14.5 0 3.9-.1.7-.3-7.3-.3s-11.2.2-7.2.3zm-28 2c.6.2 1.8.2 2.5 0 .6-.3.1-.5-1.3-.5-1.4 0-1.9.2-1.2.5zm52.5 0c.9.2 2.5.2 3.5 0 .9-.3.1-.5-1.8-.5-1.9 0-2.7.2-1.7.5zm150 4c2 .2 5.4.2 7.5 0 2-.2.3-.4-3.8-.4s-5.8.2-3.7.4zm-18.5 2c1.7.2 4.7.2 6.5 0 1.7-.2.3-.4-3.3-.4-3.6 0-5 .2-3.2.4zm36.5 0c.9.2 2.5.2 3.5 0 .9-.3.1-.5-1.8-.5-1.9 0-2.7.2-1.7.5zm9.5 0c.6.2 1.8.2 2.5 0 .6-.3.1-.5-1.3-.5-1.4 0-1.9.2-1.2.5zm-106 6c.6.2 1.8.2 2.5 0 .6-.3.1-.5-1.3-.5-1.4 0-1.9.2-1.2.5zm-130 24c2.8.2 7.6.2 10.5 0 2.8-.2.5-.3-5.3-.3s-8.1.1-5.2.3zm38 4c.6.2 1.8.2 2.5 0 .6-.3.1-.5-1.3-.5-1.4 0-1.9.2-1.2.5zm19 0c1.2.2 3.2.2 4.5 0 1.2-.2.2-.4-2.3-.4s-3.5.2-2.2.4zm130 0c1.2.2 3.2.2 4.5 0 1.2-.2.2-.4-2.3-.4s-3.5.2-2.2.4zm-120.5 2c.9.2 2.5.2 3.5 0 .9-.3.1-.5-1.8-.5-1.9 0-2.7.2-1.7.5zm63.5 0c.6.2 1.8.2 2.5 0 .6-.3.1-.5-1.3-.5-1.4 0-1.9.2-1.2.5zm45 0c1.2.2 3.2.2 4.5 0 1.2-.2.2-.4-2.3-.4s-3.5.2-2.2.4zm23 0c.6.2 1.8.2 2.5 0 .6-.3.1-.5-1.3-.5-1.4 0-1.9.2-1.2.5zm-113.5 4c.9.2 2.5.2 3.5 0 .9-.3.1-.5-1.8-.5-1.9 0-2.7.2-1.7.5zm15.5 0c.6.2 1.8.2 2.5 0 .6-.3.1-.5-1.3-.5-1.4 0-1.9.2-1.2.5zm48 0c.6.2 1.8.2 2.5 0 .6-.3.1-.5-1.3-.5-1.4 0-1.9.2-1.2.5zm84 2c.6.2 1.8.2 2.5 0 .6-.3.1-.5-1.3-.5-1.4 0-1.9.2-1.2.5zM320 279l-3.5.7 4.2.2c2.3 0 4.5-.4 4.8-.9.7-1.1-.3-1.1-5.5 0zm-62.2 66.7c.6.2 1.8.2 2.5 0 .6-.3.1-.5-1.3-.5-1.4 0-1.9.2-1.2.5zm-62 2c.6.2 1.8.2 2.5 0 .6-.3.1-.5-1.3-.5-1.4 0-1.9.2-1.2.5zm49.5 0c1.5.2 3.9.2 5.5 0 1.5-.2.2-.4-2.8-.4s-4.3.2-2.7.4zm18.5 0c.6.2 1.8.2 2.5 0 .6-.3.1-.5-1.3-.5-1.4 0-1.9.2-1.2.5zm66.5 0c.9.2 2.5.2 3.5 0 .9-.3.1-.5-1.8-.5-1.9 0-2.7.2-1.7.5zm61.5 0c1.2.2 3 .2 4 0 .9-.3-.1-.5-2.3-.4-2.2 0-3 .2-1.7.4zm-174 4c.6.2 1.8.2 2.5 0 .6-.3.1-.5-1.3-.5-1.4 0-1.9.2-1.2.5zm136.5 0c4.2.2 11.2.2 15.5 0 4.2-.1.7-.3-7.8-.3s-12 .2-7.7.3zm-172.5 18c.6.2 1.8.2 2.5 0 .6-.3.1-.5-1.3-.5-1.4 0-1.9.2-1.2.5zm224.5 0c.9.2 2.5.2 3.5 0 .9-.3.1-.5-1.8-.5-1.9 0-2.7.2-1.7.5zm-217.5 2c1.2.2 3.2.2 4.5 0 1.2-.2.2-.4-2.3-.4s-3.5.2-2.2.4zm189.5 0c4.2.2 11.2.2 15.5 0 4.2-.1.7-.3-7.8-.3s-12 .2-7.7.3zM270 441c-.9.6-1 1-.3 1 .6 0 1.5-.5 1.8-1 .8-1.2.4-1.2-1.5 0zm10 0-3.5.7 3.2.2c1.7 0 3.5-.4 3.8-.9.3-.6.5-.9.3-.9-.2.1-1.9.5-3.8.9zm8.8.2c.6.6 1.8.8 2.8.6 1.4-.3 1.2-.5-.9-1-1.9-.3-2.5-.2-1.9.4zm20.2-.2-10.5.6 10.2.2c5.9.1 10.4-.2 10.8-.8.3-.6.5-.9.3-.8-.2.1-5 .5-10.8.8zm28.8.7c.6.2 1.8.2 2.5 0 .6-.3.1-.5-1.3-.5-1.4 0-1.9.2-1.2.5zm-13.1 1.5c.2.5 1.3.8 2.3.8 1 0 2.1-.3 2.3-.8.3-.4-.8-.7-2.3-.7-1.5 0-2.6.3-2.3.7zm-31.9 46.5c1.2.2 3.2.2 4.5 0 1.2-.2.2-.4-2.3-.4s-3.5.2-2.2.4zm51 8c.6.2 1.8.2 2.5 0 .6-.3.1-.5-1.3-.5-1.4 0-1.9.2-1.2.5zm-74 34c.6.2 1.8.2 2.5 0 .6-.3.1-.5-1.3-.5-1.4 0-1.9.2-1.2.5zm35.5 0c3.7.2 9.7.2 13.5 0 3.7-.2.6-.3-6.8-.3-7.4 0-10.5.1-6.7.3zm-25.5 2c2.8.2 7.6.2 10.5 0 2.8-.2.5-.3-5.3-.3s-8.1.1-5.2.3z" fill="#FFF" fill-opacity=".25"/><path d="M412 229c0 .5.5 1 1 1 .6 0 1-.5 1-1 0-.6-.4-1-1-1-.5 0-1 .4-1 1z" fill="#FFF" fill-opacity=".11"/><path d="M258 174.4c.7.7 1.3.7 2 0 .6-.6.3-1-1-1s-1.6.4-1 1zm153.4 53.7c-1 1.7 1.3 3.6 2.7 2.2 1.2-1.2.4-3.3-1.1-3.3-.5 0-1.2.5-1.6 1.1zm2.6.9c0 .5-.4 1-1 1-.5 0-1-.5-1-1 0-.6.5-1 1-1 .6 0 1 .4 1 1z" fill="#FFF" fill-opacity=".04"/><g fill="#FFF" stroke-width="0"><path d="M265.5 43c-.3.5-3.5 1-7.1 1-3.6 0-6.4.4-6.4 1 0 .5-1.8 1-4 1s-4 .4-4 1c0 .5-1.8 1-4 1s-4 .4-4 1c0 .5-1.3 1-3 1-1.6 0-3 .4-3 1 0 .5-1.3 1-3 1-1.6 0-3 .4-3 1 0 .5-.9 1-2 1s-2 .4-2 1c0 .5-.9 1-2 1s-2 .4-2 1c0 .5-.9 1-2 1s-2 .4-2 1c0 .5-.8 1-1.8 1s-2.4.9-3.2 2c-.8 1.1-2.1 2-3 2-.9 0-2.2.9-3 2-.8 1.1-2.1 2-3 2-.9 0-2.2.9-3 2-.8 1.1-2.1 2-2.8 2-.8 0-2.7 1.3-4.2 3-1.5 1.6-3.5 3-4.4 3-.9 0-1.6.4-1.6 1 0 .5-.9 1-2 1-1.6 0-2-.7-2-3 0-1.7-.4-3-1-3-.5 0-1-.6-1-1.4 0-.7-1.4-2.7-3-4.4-1.7-1.8-3-3.6-3-4.1 0-.5-1.2-1.7-2.7-2.7-1.6-.9-3.5-2.6-4.4-3.6-.9-1-2.3-1.8-3-1.8-.8 0-2.1-.9-2.9-2-.8-1.1-2.1-2-3-2-.9 0-2.2-.9-3-2-.8-1.1-2.2-2-3.2-2s-1.8-.5-1.8-1c0-.6-.9-1-2-1s-2 .4-2 1c0 .5-.9 1-2 1-1.8 0-2 .7-2 6 0 3.3.4 6 1 6s1 1.3 1 3c0 1.6.5 3 1 3 .6 0 1 1.3 1 3 0 1.6.5 3 1 3 .6 0 1 .9 1 1.9 0 1.1.5 2.3 1 2.6.6.3 1 1.7 1 3.1 0 1.3.5 2.4 1 2.4.6 0 1 .9 1 2s.4 2 .8 2c.5 0 1.5 1.2 2.3 2.7.8 1.6 3.5 4.9 6.2 7.5 3.2 3.2 4.7 5.5 4.7 7.2 0 1.4-.4 2.6-1 2.6-.5 0-1 .9-1 2s-.4 2-1 2c-.5 0-1-.5-1-1 0-.6-.6-1-1.3-1-.7 0-2.3-.9-3.5-2-1.2-1.1-2.8-2-3.7-2-.8 0-1.5-.5-1.5-1 0-.6-1.3-1-2.9-1-1.7 0-3.3-.5-3.6-1-.3-.6-4.8-1-10.1-1-5.6 0-9.4.4-9.4 1 0 .5-1.1 1-2.4 1-2.6 0-13.6 9.9-13.6 12.3 0 1.4-4 3.7-6.5 3.7-.8 0-1.5.4-1.5 1 0 .5-1.3 1-3 1-1.6 0-3 .4-3 1 0 .5-.9 1-2 1s-2 .4-2 1c0 .5-.9 1-2 1s-2 .4-2 .9-.9 1.2-2 1.6c-4 1.3-12 10.6-12 14 0 .8-.4 1.5-1 1.5s-1 6-1 16v16h-5c-2.7 0-5-.5-5-1 0-.6-4.7-1-12.2-1-12.3.1-15.8.9-15.8 3.9 0 1.5 4.5 6.1 5.9 6.1.6 0 3.4 2.3 6.2 5 2.8 2.8 5.7 5 6.5 5 .8 0 1.4.4 1.4 1 0 .5.9 1 2 1s2 .4 2 1c0 .5 1.4 1 3 1 1.7 0 3 .4 3 1s2.6 1 5.8 1c5 0 6.2-.4 8-2.5 1.2-1.4 2.2-3.6 2.2-5s.2-2.5.5-2.5c1 0 5.5 4.9 5.5 5.9 0 .5 1.3 1.8 3 2.8 1.6.9 3 2.1 3 2.5 0 .4 1.4.8 3 .8 1.7 0 3 .4 3 1 0 .5 1.4 1 3 1 1.7 0 3 .4 3 1 0 .5 2.3 1 5 1 2.8 0 5 .4 5 1 0 .5 1 1 2.3 1 2 0 7.7 3.9 7.7 5.4 0 .3-4 .6-9 .6-5.3 0-9 .4-9 1 0 .5-.9 1-2 1s-2 .4-2 1c0 .5-.6 1-1.2 1-1.9 0-6.8 4.5-6.8 6.1 0 .8-.9 2.1-2 2.9-1.1.8-2 2.2-2 3.2s-.4 1.8-1 1.8c-.5 0-1 .9-1 2s-.4 2-.9 2c-1.3 0-2.2 6.1-2.8 17.7-.3 6.9-.1 10.3.6 10.3.6 0 1.1 1.3 1.1 3 0 1.6.5 3 1 3 .6 0 1 .9 1 2s.5 2 1 2c.6 0 1 .7 1 1.5 0 1.9 4.4 6.5 6.3 6.5 1.9 0 3.7-2.1 3.7-4.2 0-1 .5-1.8 1-1.8.6 0 1-1.5 1-3.3 0-1.9.8-4.2 2-5.5 1.1-1.2 2-2.6 2-3.3 0-1.4 5-5.9 6.5-5.9.6 0 1.7-.9 2.5-2s2-2 2.6-2c.6 0 2.5-1.4 4.2-3 1.8-1.7 3.9-3 4.7-3 .8 0 1.5-.5 1.5-1 0-.6.9-1 2-1 1.7 0 2 .7 2 4.9 0 2.8.5 5.3 1 5.6.6.3 1 3.5 1 7.1 0 3.6.4 6.4 1 6.4s1 1.3 1 3c0 1.6.5 3 1 3 .6 0 1 .9 1 2s.5 2 1 2c.6 0 1 .9 1 2s.5 2 1 2c.6 0 1 .9 1 2s.4 2 .8 2c.5 0 1.5 1.2 2.3 2.7.8 1.6 2.2 3.5 3.1 4.4 1 .9 1.8 2.3 1.8 3 0 .8.9 2.1 2 2.9 2.1 1.5 2.8 7 1 7-.5 0-1 .8-1 1.8s-.9 2.4-2 3.2c-1.1.8-2 2.1-2 3 0 .9-.9 2.2-2 3-1.1.8-2 2.2-2 3.2s-.4 1.8-1 1.8c-.5 0-1 .9-1 2s-.4 2-1 2c-.5 0-1 1.8-1 4s.5 4 1 4c.6 0 1 .9 1 2s.5 2 1 2c.6 0 1 .9 1 2s.3 2 .8 2c.8 0 3.2 4.9 3.2 6.7 0 .7.5 1.3 1 1.3.6 0 1 .9 1 2s.5 2 1 2c.6 0 1 .8 1 1.8s.9 2.4 2 3.2c1.1.8 2 2.1 2 2.8 0 1.5 12.7 14.2 14.2 14.2 1.2 0 7.8 7 7.8 8.2 0 .5 1.4 2.2 3 4 1.7 1.7 3 3.7 3 4.4 0 .8.4 1.4.8 1.4 1.2 0 5.2 7.8 5.2 10 0 1.1.5 2.2 1 2.5.6.3 1 4.8 1 10 0 5.7.4 9.6 1.1 10.1.7.4.8 2 .4 4.3-.4 2-.9 7.4-1.2 12.1-.2 4.7-.9 8.9-1.4 9.5-1.2 1.3-1.2 23.5.1 23.5.6 0 1 1.1 1 2.3 0 2.3 7.8 11.7 9.7 11.7.5 0 2.6 1.6 4.7 3.5s4.2 3.5 4.6 3.5c.5 0 3.4 2.5 6.5 5.5 3.2 3 6.2 5.5 6.7 5.5s3 2.1 5.6 4.8c2.6 2.6 6.3 5.9 8.2 7.2 1.9 1.4 6.4 5.4 10 9 3.6 3.6 8.1 7.6 10 9 1.9 1.3 4.4 3.2 5.4 4.2 1.1 1 3.5 1.8 5.3 1.8 1.8 0 3.3.4 3.3.8s1.5 1.3 3.3 2c4.1 1.5 28.3 1.6 29.2.2.4-.6 6.3-1 14.6-1 13.7 0 16.1-.5 19.7-3.7.7-.7 1.7-1.3 2.2-1.3.5 0 2.7-1.8 5-4s4.6-4 5-4c.5 0 2.5-1.6 4.4-3.5 2-1.9 3.9-3.5 4.4-3.5.5 0 3.5-2.5 6.7-5.5 3.1-3 6.1-5.5 6.5-5.5.5 0 4.3-3.4 8.5-7.5 4.3-4.1 8.1-7.5 8.7-7.5 1.8 0 14.8-14.1 15.3-16.8.3-1.5.9-4.1 1.3-5.7.8-3.3.7-26.9-.3-46.4-.4-8.2-.3-12.7.4-13.4.6-.6 1.1-2.1 1.1-3.3 0-1.3.4-2.6 1-2.9.6-.3 1-1.7 1-3s.5-2.7 1-3c.6-.3 1-1.9 1-3.5s.5-3.2 1-3.5c.6-.3 1-1.5 1-2.6 0-1 .5-1.9 1-1.9.6 0 1-1.1 1-2.4 0-1.6 2.7-5.1 8.5-11.1 4.7-4.9 8.5-9.2 8.5-9.6 0-.5 1.5-2.3 3.3-4.1 1.7-1.8 3.8-4.5 4.6-6.1.8-1.5 1.8-2.7 2.3-2.7.4 0 .8-.6.8-1.3 0-.6.9-2.3 2-3.7 1.1-1.4 2-3.5 2-4.8 0-1.2.5-2.2 1-2.2.6 0 1-2.8 1-6.4 0-3.6-.4-6.8-1-7.1-.5-.3-1-2.4-1-4.6 0-2.1-.4-3.9-1-3.9-.5 0-1-1.4-1-3 0-1.7-.4-3-1-3-.5 0-1-.9-1-1.9 0-1.1-.6-2.2-1.2-2.5-1-.5-1-.7 0-1.2.6-.3 1.2-1.4 1.2-2.5 0-1 .4-1.9.9-1.9s1.1-1.2 1.4-2.8c.3-1.5 1.7-4.1 3.1-5.7 1.4-1.7 2.6-3.3 2.6-3.8 0-.4 1.4-2.1 3-3.9 1.7-1.7 3-3.7 3-4.4 0-.8.5-1.4 1-1.4.6 0 1-.9 1-2s.5-2 1-2c.6 0 1-1.3 1-2.9 0-1.7.4-3.3 1-3.6.6-.3 1-4.4 1-9s-.4-8.7-1-9c-.5-.3-1-2.2-1-4.1 0-1.9-.4-3.4-1-3.4-.5 0-1-1.4-1-3 0-1.7-.4-3-1-3-.5 0-1-1-1-2.3-.1-4.2-2.3-5.8-15.7-11.4-1.4-.6-.7 6.5.8 8.1.5.6.9 2 .9 3.3 0 1.3.5 2.3 1 2.3.6 0 1 1.3 1 3 0 1.6.5 3 1 3 .6 0 1 1.3 1 2.9 0 1.7.5 3.3 1 3.6.6.3 1 3.7 1 7.5s-.4 7.2-1 7.5c-.5.3-1 1.5-1 2.5 0 2.1-3.3 8.4-5.5 10.7-.8.7-2.2 2.7-3.2 4.3-.9 1.7-2 3-2.4 3-.4 0-1.2 1.3-1.9 3-.7 1.6-1.6 3-2.1 3-1.6 0-1.4-13.3.2-13.8.5-.2.9-1.2.9-2.3 0-1 .5-1.9 1-1.9.6 0 1-1.8 1-4s.5-4 1-4c.6 0 1-7 1-19s-.4-19-1-19c-.5 0-1-1.4-1-3 0-1.7-.4-3-1-3-.5 0-1-1-1-2.3 0-1.3-.9-3.3-2-4.5-1.1-1.2-2-2.6-2-3.3 0-.6-1.3-2.4-3-3.9-1.6-1.5-3-3.5-3-4.4 0-.9-.4-1.6-1-1.6-.5 0-1-1.4-1-3 0-1.7-.4-3-1-3-.5 0-1-2-1-4.4 0-2.5-.4-4.8-1-5.1-.5-.3-1-3.1-1-6.1 0-3.5-.5-6.1-1.4-7-2-1.9-2.6-1.8-2.6.5 0 1.1-.4 2.3-1 2.6-.5.3-1 2.2-1 4.1 0 1.9-.4 3.4-1 3.4-.5 0-1 2.2-1 5 0 2.7.5 5 1 5 .6 0 1 1.8 1 4s.5 4 1 4c.6 0 1 .9 1 2s.5 2 1 2c.6 0 1 .9 1 2s.4 2 .9 2 1.1 1.3 1.4 2.9c.3 1.6 1.3 3.6 2.2 4.4.8.9 1.5 2.2 1.5 3 0 .9.4 1.7.9 1.9.5.1 1.1 1.4 1.3 2.8.3 2.5.2 2.5-8.1 2.8-4.9.2-8.8-.1-9.5-.8-1.3-1.3-19.3-1.3-20.1 0-.3.5-4.2 1-8.6 1-4.6 0-7.9.4-7.9 1 0 .5-1.9 1-4.2 1-4.1 0-11 1.9-12.4 3.3-.4.4-1.8.7-3.1.7-1.2 0-2.3.4-2.3 1 0 .5-.7 1-1.5 1-.9 0-2.7 1.1-4 2.5-2.5 2.4-3.3 5.5-1.5 5.5.6 0 1 .9 1 2 0 1.6.7 2 3 2 1.7 0 3-.5 3-1 0-.6 2.3-1 5-1 2.8 0 5-.5 5-1 0-.6 2.6-1 5.9-1 3.3 0 6.3-.5 6.6-1 .4-.6 5.5-1 12-1s11.6.4 12 1c.3.5 3.1 1 6.1 1 3 0 5.4.4 5.4 1 0 .5 1.4 1 3 1 1.7 0 3 .4 3 1 0 .5.9 1 2 1s2 .4 2 1c0 .5.7 1 1.5 1 2.9 0 8.5 6.7 8.5 10 0 3.9-5.8 10-9.4 10-1.3 0-2.6.5-2.8 1.1-.5 1.4-15.1 1.5-15.6 0-.2-.6-1.2-1.1-2.3-1.1-1 0-1.9-.5-1.9-1 0-.6-.9-1-2-1s-2-.5-2-1c0-.6-.9-1-2-1s-2-.5-2-1c0-.6-1.3-1-2.9-1-1.7 0-3.3-.5-3.6-1-.3-.6-3.3-1-6.5-1s-6.2.4-6.5 1c-.3.5-2.8 1-5.6 1-2.7 0-4.9.4-4.9 1 0 .5-1.1 1-2.4 1-1.4 0-2.8.4-3.1 1-.3.5-1.5 1-2.6 1-1 0-1.9.4-1.9 1 0 .5-.9 1-2 1s-2 .4-2 1c0 .5-.9 1-2 1s-2 .4-2 1c0 .5-.9 1-1.9 1-1.1 0-2.1.6-2.4 1.2-.3 1-.9 1-2.6 0-1.1-.6-3.9-1.2-6.2-1.2-3.5 0-6.9-1.7-6.9-3.4 0-1 6.9-.6 7.5.4.9 1.4 7.8 1.3 9.3-.2 1.9-1.9 1.4-2.8-1.7-2.8-1.7 0-3.3-.5-3.6-1-.3-.6-3.1-1-6.1-1-3 0-5.4-.5-5.4-1 0-.6-1.3-1-3-1-1.6 0-3-.5-3-1 0-.6.5-1 1-1 .6 0 1-1.1 1-2.5 0-2.8 2-7.5 3.2-7.5.4 0 .8-1.4.8-3 0-2.3-.4-3-2-3-1.1 0-2 .4-2 1 0 .5-.9 1-2 1-3.5 0-2.5-4.7 2-9 2.2-2.1 4-4.1 4-4.4 0-.3-1.1-.6-2.5-.6-2.9 0-7.5 4-7.5 6.5 0 .8-.4 1.5-1 1.5-.5 0-1 1.3-1 2.9 0 1.7-.4 3.3-1 3.6-.5.3-1 2.8-1 5.6 0 2.7-.6 5.8-1.2 6.9-1 1.6-1 2.4 0 4 .6 1.1 1.2 2.9 1.2 4 0 2.3 7 9.7 11.3 11.9 1.5.8 2.7 1.8 2.7 2.3 0 .4 1.4.8 3 .8 1.7 0 3 .4 3 1 0 .5.9 1 2 1 1.6 0 2 .7 2 3 0 1.6-.4 3-1 3s-1 3.7-1 9 .4 9 1 9 1 .8 1 1.8.9 2.4 2 3.2c1.1.8 2 2 2 2.7 0 1.9 8.6 10.3 10.5 10.3.8 0 1.5.4 1.5 1 0 .5.9 1 2 1s2 .4 2 1c0 .5.9 1 2 1s2 .4 2 1c0 .5 1.4 1 3 1 1.7 0 3 .4 3 1s7.7 1 21 1 21-.4 21-1 .9-1 2-1 2-.5 2-1c0-.6.9-1 2-1s2-.5 2-1c0-.6.9-1 2-1 1.3 0 2-.7 2-2 0-1.1.4-2 .8-2 1.2 0 3.2-4.7 3.2-7.5 0-1.4.5-2.5 1-2.5.6 0 1 3.2 1 7.5 0 7.3-.1 7.7-3.5 11-1.9 1.9-4.1 3.5-5 3.5-.8 0-1.5.4-1.5 1 0 .5-.9 1-1.9 1-1.1 0-2.3.4-2.6 1-.3.5-3.1 1-6.1 1-3 0-5.4.4-5.4 1 0 .5-2.2 1-5 1-2.7 0-5 .4-5 1s-6 1-16 1-16-.4-16-1-2.2-1-5-1c-2.7 0-5-.5-5-1 0-.6-1.8-1-4-1h-4v4.6c0 3.8.5 5.1 3 7.4l3 2.8v18c0 11 .4 18.3 1 18.7.6.3 1 1.5 1 2.6 0 1 .5 1.9 1 1.9.6 0 1-7.9 1-21.6v-21.6l-3-2.8c-2.9-2.7-4-6-2-6 .6 0 1 .4 1 1 0 .5 1.7 1 3.8 1 2.1 0 4.2.4 4.7.9.6.5 4.4 1.2 8.5 1.5 4.1.2 9.4.8 11.6 1.1 2.6.4 4.4.3 4.8-.4.4-.6 3.4-1.1 6.7-1.1 3.3 0 5.9-.4 5.9-1s2.4-1 5.4-1c3 0 5.8-.5 6.1-1 .3-.6 2.8-1 5.6-1 2.7 0 4.9-.5 4.9-1 0-.6.9-1 2-1s2-.5 2-1c0-.6.7-1 1.5-1 2.2 0 8.5-6.6 8.5-8.9 0-1.1.5-2.3 1-2.6.6-.3 1-3.7 1-7.6 0-3.9-.4-6.9-1-6.9-.5 0-1-.8-1-1.8s-.9-2.4-2-3.2c-1.6-1.2-2-2.6-2-7.2 0-3.1-.4-6-1-6.3-.5-.3-1-2.2-1-4.1 0-1.9-.4-3.4-1-3.4-1.6 0-1.2-5 .5-6.6 2.7-2.7 4.5.5 4.5 8 0 3.7.4 6.6 1 6.6s1 1.3 1 3c0 1.6.5 3 1 3 .6 0 1 .7 1 1.5 0 2 8.5 10.5 10.5 10.5 1 0 1.5 1 1.5 3 0 1.6.5 3 1 3 .6 0 1 1.8 1 3.9 0 2.2.5 4.1 1.3 4.4 1 .3 1 .9 0 2.6-.7 1.1-1.3 2.8-1.3 3.6 0 .8-.4 1.5-1 1.5-.5 0-1 .8-1 1.8s-.9 2.4-2 3.2c-1.1.8-2 1.9-2 2.6 0 .6-2 3.2-4.5 5.8-2.5 2.7-4.5 5.1-4.5 5.5 0 .3-1.3 2.1-2.9 3.8-2.2 2.6-3.7 3.3-6.5 3.3-2 0-3.6.4-3.6 1s-6.3 1-17 1-17 .4-17 1c0 .5-1.2 1-2.6 1-1.8 0-4 1.4-7 4.6-4.3 4.4-4.4 4.7-4.4 11 0 3.6.4 6.4 1 6.4s1 2.7 1 6-.4 6-1 6c-.5 0-1 1.3-1 3 0 1.6-.4 3-1 3s-1 3.8-1 9.4c0 5.3-.4 9.8-1 10.1-.5.3-1 1.3-1 2.1 0 1.5-2.3 4.4-3.4 4.4-.3 0-.6-3.4-.6-7.6 0-6.9-1.1-10.4-3.4-10.4-.3 0-.6 4.2-.6 9.4s-.3 9.7-.7 9.9c-.5.3-2.6.7-4.8.9l-4 .3-.3-9.3c-.1-5-.7-9.2-1.2-9.2-.6 0-1 .9-1 1.9 0 1.1-.4 2.3-1 2.6-.5.3-1 4-1 8.1v7.4h-6v-9c0-5-.3-9-.6-9-2.1 0-3.4 3.5-3.4 9.4v6.6h-11c-8.9 0-11-.3-11-1.4 0-.8.4-1.8 1-2.1 1-.6 1.4-14.5.4-14.5-2.1 0-3.4 3.5-3.4 9 0 6.8-1.3 9-5.4 9-2.6 0-2.6-.1-2.6-8 0-4.4-.4-8-.8-8-1.1 0-3.2 8.3-3.2 12.5 0 3.4-.1 3.5-4.2 3.5h-4.3l.3-9c.3-6.1 0-9-.7-9-.6 0-1.1.9-1.1 2s-.4 2-1 2-1 3-1 7c0 6.9-.1 7-2.6 7-4.3 0-5.4-2.1-5.4-10.4 0-4.4-.4-7.6-1-7.6-.5 0-1 .9-1 2s-.4 2-1 2-1 2.7-1 6v6h-8.2l.7-3.8c.3-2 .9-6.5 1.2-10 .4-5.8.3-6.2-1.6-6.2-1.9 0-2.1.6-2.1 6 0 7.8-1.9 14-4.2 14-1.4 0-1.8-.8-1.8-3.4 0-1.9-.4-3.8-1-4.1-.6-.4-1-6.7-1-15.5s-.4-15.1-1-15.5c-.5-.3-1-4-1-8.1 0-4.3-.4-7.4-1-7.4-.5 0-1-2.1-1-4.6 0-2.5-.6-5.2-1.4-5.9-1-1.1-6-1.5-20.2-1.9-21-.5-30.4-1.3-30.4-2.7 0-.5-1.3-.9-3-.9-1.6 0-3-.5-3-1 0-.6-.7-1-1.5-1-1.9 0-7.5-5.5-9.4-9.3-.8-1.5-1.8-2.7-2.3-2.7-.4 0-.8-.9-.8-2s-.3-2-.7-2c-2 0-3.3-6.1-3.3-15.4v-10l5-4.7c2.8-2.6 5-5.4 5-6.3 0-.9.5-1.6 1-1.6.6 0 1-.9 1-2s.5-2 1-2c.6 0 1-.9 1-2s.5-2 1-2c.6 0 1-.9 1-2s.5-2 1-2c.6 0 1-.9 1-2s.5-2 1-2c.6 0 1-1.6 1-3.6 0-1.9.7-4.2 1.5-5 1.3-1.4 1.7-1.4 3 0 1.7 1.7 2 4.6.5 4.6-.5 0-1 1.3-1 3 0 1.6-.4 3-1 3s-1 3.3-1 8c0 6.7-.3 8-1.6 8-.9 0-1.8.9-2.1 2-.3 1.1-.9 2-1.4 2-.5 0-.9.9-.9 2s-.4 2-1 2c-.5 0-1 1.1-1 2.4 0 1.4-.4 2.8-1 3.1-.5.3-1 1.5-1 2.6 0 1 .5 1.9 1 1.9.6 0 1 1.1 1 2.5 0 2.9 7.9 11.5 10.5 11.5.8 0 1.5.4 1.5 1 0 .5.9 1 2 1s2 .4 2 1c0 .5 1.4 1 3 1 1.7 0 3 .4 3 1 0 .5 1.7 1 3.8 1 2.1 0 4.3.5 4.9 1.1 1.6 1.6 37.3-.5 37.3-2.2 0-.5 4.5-.9 10-.9h10v4c0 2.2-.4 4-1 4-.5 0-1 .9-1 2s-.4 2-1 2-1 3.5-1 8.4c0 4.7.5 8.8 1 9.1.6.3 1 2.4 1 4.6 0 2.1-.4 3.9-1 3.9-.5 0-1 .9-1 2s-.4 2-1 2c-.5 0-1 1.3-1 3 0 1.6-.4 3-1 3-.5 0-1 2.2-1 5 0 2.7.3 5 .6 5 1.6 0 3.4-3.3 3.4-6.4 0-2 .5-3.6 1-3.6.6 0 1-.9 1-2s.5-2 1-2c.6 0 1-1.4 1-3 0-1.7.5-3 1-3 .6 0 1-1.8 1-4s-.4-4-1-4-1-3.7-1-9 .4-9 1-9 1-.9 1-2 .5-2 1-2c.6 0 1-2.7 1-6v-6h-3c-1.6 0-3-.5-3-1 0-.6-1.8-1-4-1s-4 .4-4 1-2.6 1-5.8 1c-3.2 0-6.2.4-6.7.9-.6.5-4.4 1.2-8.5 1.5-4.1.3-9.7.8-12.3 1.2-3.1.4-5.3.2-6-.5-.6-.6-4.2-1.1-7.9-1.1-3.9 0-6.8-.4-6.8-1s-1.3-1-3-1c-1.6 0-3-.5-3-1 0-.6-.9-1-2-1s-2-.5-2-1c0-.6-.7-1-1.5-1-2 0-8.5-6.5-8.5-8.5 0-.8-.4-1.5-1-1.5-.5 0-1-1.4-1-3 0-1.7.5-3 1-3 .6 0 1-.9 1-2s.5-2 1-2c.6 0 1-.7 1-1.5 0-3.2 3.4-1.1 4.3 2.7 1.1 4.4 10.1 12.7 16 14.9 5.5 2 15.2 2.6 16.2.9.4-.6 5.3-1 11.5-1s11.1-.4 11.5-1c.3-.6 2.8-1 5.6-1 2.7 0 4.9-.5 4.9-1 0-.6.9-1 2-1s2-.5 2-1c0-.6.9-1 2-1s2-.5 2-1c0-.6.7-1 1.5-1 1.9 0 5.5-3.5 7.4-7.3.8-1.5 1.8-2.7 2.3-2.7.4 0 .8-.9.8-2s.5-2 1-2c.6 0 1-1.4 1-3 0-1.7.5-3 1-3 .6 0 1-2.3 1-5 0-2.8-.4-5-1-5-.5 0-1-1.2-1-2.6 0-1.5-.9-3.5-2.1-4.5-1.9-1.6-2-2-.6-3.4.9-.8 2.7-1.5 4.1-1.5 1.4 0 2.6-.5 2.6-1 0-.6.6-1 1.3-1 1.8 0 6.7-2.4 6.7-3.3 0-.4.7-.7 1.6-.7 2.1 0 6.4-4.9 6.4-7.2 0-.9.5-2 1-2.3.6-.3 1-2.4 1-4.6 0-2.1-.4-3.9-1-3.9s-1-3.3-1-8-.4-8-1-8c-.5 0-1-.7-1-1.5 0-.9-1.1-2.7-2.5-4-2.4-2.5-5.5-3.3-5.5-1.5 0 .5.5 1 1 1 .6 0 1 .8 1 1.8s.9 2.4 2 3.2c2.1 1.5 2.8 7 1 7-.5 0-1-.5-1-1 0-.6-1.8-1-4-1-4 0-4 0-4 3.8 0 3.2.4 3.9 3 5 2.5 1.1 3 1.9 3 4.9 0 4.4-1.9 6.3-6.4 6.3-2 0-3.6.4-3.6 1 0 .5-1.3 1-3 1-1.6 0-3-.5-3-1 0-.6-1.8-1-4-1-3.3 0-4 .3-4 2 0 2.7-.7 2.5-4-1-1.5-1.7-3.5-3-4.4-3-.9 0-1.6-.5-1.6-1 0-.6-1.8-1-4-1s-4-.5-4-1c0-.6-2.2-1-4.9-1-2.8 0-5.3-.5-5.6-1-.3-.6-2.6-1-5-1s-4.7.4-5 1c-.3.5-2.2 1-4.1 1-1.9 0-4.2.4-5.2.9-.9.5-3.2 1.6-4.9 2.3-1.8.7-3.3 1.6-3.3 2 0 .5-.9.8-2 .8s-2 .4-2 .8c0 1.2-4.6 3.2-7.4 3.2-1.3 0-2.7-.7-3-1.6-.8-2.2-.9-2 1.9-4.8 1.4-1.4 2.5-3.7 2.5-5.1V264h-10.6c-16 0-17.4-3.1-6.5-13.7 4.1-4 4.8-4.3 10.1-4.3 3.1 0 6-.4 6.5-.9 1.3-1.3 13.8-2.1 40.3-2.7l22.2-.5v-2.6c0-3.4-6.4-9.3-10.1-9.3-1.5 0-3.1-.5-3.4-1-.3-.6-2.4-1-4.6-1-2.1 0-3.9-.5-3.9-1 0-.6-8.3-1-23-1s-23 .4-23 1c0 .5-1.3 1-3 1-1.6 0-3 .4-3 1 0 .5-1.3 1-2.8 1-1.6 0-3.4.8-4.2 2-.8 1.1-1.8 2-2.2 2-.4 0-.8-.9-.8-2s.5-2 1-2c.6 0 1-1.8 1-4s.5-4 1-4c.6 0 1-1.4 1-3 0-1.7.5-3 1-3 .6 0 1-.9 1-2s.5-2 1-2c.6 0 1-.9 1-2s.5-2 1-2c.6 0 1-.9 1-2s.5-2 1-2c.6 0 1-1.4 1-3 0-1.7.5-3 1-3 .6 0 1-.5 1-1 0-1.5-4.9-1.2-6.6.4-.8.8-1.4 2.2-1.4 3 0 .9-.4 1.6-1 1.6-.5 0-1 .9-1 2s-.4 2-1 2c-.5 0-1 1.3-1 3 0 1.6-.4 3-1 3-.5 0-1 1.7-1 3.8 0 2.6-.6 4.2-2 5.2-1.1.8-2 2.2-2 3.2s-.4 1.8-1 1.8c-.5 0-1 .8-1 1.8s-.9 2.4-2 3.2c-1.1.8-2 2.2-2 3.2s-.4 1.8-1 1.8c-.5 0-1 .9-1 2s-.4 2-1 2c-.5 0-1 .9-1 2s-.4 2-1 2c-.5 0-1 .9-1 2s-.4 2-1 2-1 3.3-1 8 .4 8 1 8 1 1.1 1 2.4c0 1.4.5 2.8 1 3.1.6.3 1 1.5 1 2.6 0 1 .5 1.9 1 1.9 1.6 0 1.2 8.9-.4 10.6-1.9 1.9-2.6 1.8-2.6-.4 0-1-.9-2.4-2-3.2-1.1-.8-2-2.2-2-3.2s-.4-1.8-1-1.8c-.5 0-1-.7-1-1.6 0-.9-.8-2.4-1.9-3.3-2.5-2.2-3.4-7.5-3.3-20.6 0-11.7.8-19.2 2.3-20.1.5-.3.9-2.2.9-4.2 0-2.9.5-4 2.2-4.7 1.2-.6 2.6-1.9 3.2-3 .6-1.1 1.9-2.7 2.9-3.6.9-.9 1.7-2.2 1.7-2.9 0-1.3 6.8-8 8.2-8 1.3 0 11.2-10.3 12.7-13.3.8-1.5 1.8-2.7 2.3-2.7.4 0 .8-.9.8-2s.5-2 1-2c.6 0 1-1.4 1-3 0-1.7.5-3 1-3 .6 0 1-1.5 1-3.4s.5-3.8 1-4.1c.6-.3 1-2.4 1-4.6 0-3.2.3-3.9 2-3.9 1.3 0 2 .7 2 2 0 1.1.5 2 1 2 .6 0 1 .9 1 1.9 0 1.1.6 2.1 1.3 2.4.8.3.5 1.1-1 2.4-1.3 1.1-2.3 2.8-2.3 3.7 0 .9-.4 1.6-.8 1.6s-1.4 2-2.1 4.5c-1.6 5.5-1.8 30.8-.2 31.3.6.2 1.1 1 1.1 1.9 0 1.9 2.4 4.3 4.4 4.3.9 0 1.6.4 1.6 1 0 .5.9 1 2 1 1.3 0 2-.7 2-1.9 0-1.1.5-2.3 1-2.6.6-.4 1-7.2 1-17.1 0-10.3-.4-16.4-1-16.4-.5 0-1-1.8-1-4s.3-4 .6-4 2.3 1.8 4.4 4c3.1 3.2 4.6 4 7.4 4 2 0 3.6.4 3.6 1 0 .5 2.3 1 5 1 2.8 0 5 .4 5 1 0 .5.8 1 1.8 1s2.4.9 3.2 2c.8 1.1 2.2 2 3.2 2s1.8.4 1.8 1c0 .5.9 1 2 1s2 .4 2 1c0 .5 1.8 1 4 1s4 .4 4 1 4 1 10 1 10-.4 10-1 1.1-1 2.4-1c1.2 0 3.7-1.3 5.4-3 3.7-3.5 6.2-3.9 6.2-1 0 1.1-.4 2-1 2-.5 0-1 2.5-1 5.5 0 4.6.4 6 2.5 8 2.4 2.5 7.5 3.5 7.5 1.5 0-.6.7-1 1.5-1 1.8 0 6.5-4.4 6.5-6 0-1.7 3.1-4.5 3.8-3.4.4.5 1.9 1.5 3.5 2.3 1.5.8 2.7 1.8 2.7 2.3 0 .4.9.8 2 .8s2 .4 2 1c0 .5.9 1 2 1 1.3 0 2-.7 2-1.8 0-1 .9-2.4 2-3.2 1.6-1.1 2-2.6 2-6.8 0-4.7-.4-5.6-3.5-8.7-1.9-1.9-4.3-3.5-5.4-3.5-1.1 0-2.3-.5-2.6-1-.3-.6-1.9-1-3.6-1-1.6 0-2.9-.5-2.9-1 0-.6-.9-1-2-1-1.8 0-2-.7-2-5.4 0-3 .5-5.8 1-6.1.6-.3 1-1.5 1-2.6 0-1.2.7-1.9 2-1.9s2 .7 2 2c0 1.1.5 2 1 2 .6 0 1 .8 1 1.8s.9 2.4 2 3.2c1.1.8 2 2.1 2 2.8 0 .7 1.8 3.1 4 5.2s4 4.3 4 4.8c0 1.5 7 8.2 8.6 8.2.8 0 1.4.4 1.4.9 0 1.4 6.4 2.3 19.8 2.8 8.2.3 12.2.1 12.2-.6 0-.6 1.4-1.1 3-1.1 1.7 0 3-.5 3-1 0-.6.9-1 2-1s2-.5 2-1c0-.6.8-1 1.8-1s2.4-.9 3.2-2c.8-1.1 2.2-2 3.2-2s1.8-.5 1.8-1c0-.6 1.8-1 4-1s4-.5 4-1c0-.6 1.8-1 4-1s4-.5 4-1c0-.6.8-1 1.8-1s2.4-.9 3.2-2c.8-1.1 2.2-2 3.2-2 .9 0 2-.9 2.3-2 .3-1.1 1.2-2.6 1.8-3.3 1.9-2.1 3.7-5.5 3.7-7.2 0-.8.5-1.5 1-1.5.6 0 1-1.4 1-3 0-1.7.5-3 1-3 .6 0 1-1.8 1-4s.5-4 1-4c.6 0 1-2.7 1-6s-.4-6-1-6c-.5 0-1-1.4-1-3 0-1.7-.4-3-1-3-.5 0-1-.9-1-2s-.4-2-1-2c-.5 0-1-.7-1-1.5 0-1.7-8.4-10.5-10-10.5-.6 0-4.6-3.6-9-8s-8.6-8-9.5-8c-.8 0-1.5-.5-1.5-1 0-.6-4-1-10-1h-10v-5c0-2.8-.4-5-1-5-.5 0-1-.9-1-2s-.4-2-1-2c-.5 0-1-.7-1-1.6 0-1.8-1.5-3.4-5.2-5.3-1.6-.8-2.8-1.8-2.8-2.3 0-.4-.9-.8-2-.8s-2-.5-2-1c0-.6-1.3-1-3-1-1.6 0-3-.5-3-1 0-.6-1.8-1-4-1s-4 .4-4 1c0 .5.5 1 1 1 .6 0 1 1.3 1 3 0 1.6.5 3 1 3 .6 0 1 1.3 1 3 0 1.6.5 3 1 3 .6 0 1 .7 1 1.5 0 .9.9 2.5 2 3.7 1.1 1.2 2 2.7 2 3.4 0 .6 1.4 1.7 3 2.4 4.8 2 3.5 3-3.9 3-3.9 0-7.3.4-7.6 1-.3.5-2.2 1-4.1 1-1.9 0-3.4.4-3.4 1 0 .5-.9 1-2 1s-2 .4-2 1c0 .5-.7 1-1.6 1-1.9 0-6.4 4.8-6.4 6.7 0 .7-.4 1.3-.8 1.3-1.2 0-5.2 7.8-5.2 10.1 0 1-.4 1.9-1 1.9-.5 0-1 2.2-1 4.9 0 2.8-.4 5.3-1 5.6-.5.3-1 4-1 8.1s-.3 7.4-.6 7.4c-1.4 0-3.4-3.1-3.4-5.4 0-1.4-.4-2.6-1-2.6s-1-3.1-1-7.4c0-4.1-.4-7.8-1-8.1-.5-.3-1-1.9-1-3.6 0-3.5-2.2-10.9-3.2-10.9-.5 0-.8-1.8-.8-4s.5-4 1-4c.6 0 1-2.3 1-5 0-2.8-.4-5-1-5-.5 0-1-1.3-1-2.8 0-1.6-.8-3.4-2-4.2-1.1-.8-2-2-2-2.8 0-.7-1.6-2.8-3.5-4.7-1.9-1.9-4-3.5-4.7-3.5-.8 0-2-.9-2.8-2-.8-1.1-2.2-2-3.2-2s-1.8-.5-1.8-1c0-.6-1.8-1-4-1h-4v6c0 3.3.4 6 1 6s1 .9 1 2 .4 2 .8 2c.5 0 1.5 1.2 2.3 2.7.8 1.6 3.1 4.5 5.2 6.5 2 2 3.7 3.9 3.7 4.2 0 .3-1.3.6-3 .6-1.6 0-3-.5-3-1 0-.6-5.6-1-14.9-1-8.3 0-15.2-.4-15.5-.8-.8-1.4-14.4-1.3-16.8 0-3.1 1.8-6.8 5.5-6.8 6.8 0 1.3-16.6 18-18 18-1.6 0-8 6.7-8 8.5 0 .8-.4 1.5-1 1.5-.5 0-1 .7-1 1.6 0 1.5-2.3 4.4-3.4 4.4-.3 0-.6-.7-.6-1.5 0-2-10.5-12.5-12.5-12.5-.8 0-1.5-.5-1.5-1 0-.6-.9-1-2-1s-2-.5-2-1c0-.6.5-1 1-1 .6 0 1-.9 1-1.9 0-1.5 1.8-3.1 3.5-3.1.2 0 1.5 1.1 2.9 2.5s3.2 2.5 4.1 2.5c.8 0 1.5.4 1.5 1 0 1.5 3 1.2 4.7-.6 1.2-1.1 1.3-1.8.4-2.7-.6-.6-1.1-2.6-1.1-4.4 0-1.8-.4-3.3-1-3.3-.5 0-1-1.3-1-2.9 0-1.6-.6-3.1-1.2-3.4-.9-.3-.7-1 .8-2.3 1.1-1.1 2.3-2.7 2.7-3.7.3-.9 1.1-1.7 1.7-1.7.7 0 2.9-1.8 5-4s4.5-4 5.2-4c.7 0 2-.9 2.8-2 .8-1.1 2.1-2 3-2 .9 0 2.2-.9 3-2 .8-1.1 2.2-2 3.2-2s1.8-.5 1.8-1c0-.6.6-1 1.3-1 .7 0 2.3-.9 3.5-2 1.2-1.1 2.8-2 3.6-2 .8 0 1.8-.5 2.1-1 .3-.6 1.7-1 3.1-1 1.3 0 2.4-.5 2.4-1 0-.6.9-1 2-1s2-.5 2-1c0-.6 1.8-1 4-1s4-.5 4-1c0-.6 2-1 4.4-1 2.5 0 4.8-.5 5.1-1 .3-.6 3.3-1 6.6-1s5.9-.4 5.9-1 4-1 10-1c6.4 0 10-.4 10-1.1 0-.7 3.6-.8 11.3-.5 6.1.3 16.4.8 22.7 1.2 6.3.3 11.9.9 12.4 1.5.6.5 3.8.9 7.2.9 3.5 0 6.6.4 6.9 1 .3.5 2.6 1 5.1 1 2.4 0 4.4.4 4.4 1 0 .5 1.8 1 4 1s4 .4 4 1c0 .5 1.4 1 3 1 1.7 0 3 .4 3 1 0 .5 1.4 1 3 1 1.7 0 3 .4 3 1 0 .5.9 1 2 1s2 .4 2 1c0 .5.9 1 2 1s2 .4 2 1c0 .5.6 1 1.3 1 .7 0 2.3.9 3.5 2 1.2 1.1 2.6 2 3.3 2 .6 0 2.4 1.3 3.9 3 1.5 1.6 3.2 3 3.7 3s3.4 2.2 6.3 5c2.9 2.7 5.8 5 6.4 5 .6 0 1.7 1.2 2.4 2.7 1.4 3.2 1.6 11.3.2 11.3-1.5 0-1.2 8.9.3 10.3 2.4 2.2 5.7 3.7 8.2 3.7 2.4 0 2.5.2 2.5 6.4 0 3.6-.4 6.8-1 7.1-.5.3-1 4.8-1 9.9 0 5-.4 9.6-.9 10.1-1.8 1.9-3.8 26.5-2.2 26.5.6 0 1.1 1.3 1.1 3 0 1.6.5 3 1 3 .6 0 1 .9 1 2s.5 2 1 2c.6 0 1 .9 1 2s.5 2 1 2c.6 0 1 .9 1 2s.4 2 .9 2 1.3.9 1.6 2.1c1 2.9 8.4 9.9 10.6 9.9 1 0 2.1.4 2.4 1 .3.5 4.2 1 8.6 1h7.9v9c0 5.3.4 9 1 9s1 1.3 1 3c0 1.6.5 3 1 3 .6 0 1 .9 1 2s.5 2 1 2c.6 0 1 .9 1 2s.5 2 1 2c.6 0 1 .7 1 1.5 0 .9 1.1 2.7 2.5 4.1 1.4 1.4 2.5 2.9 2.5 3.3 0 1.2 5.6 7.1 6.8 7.1.5 0 2.3 1.3 4 3 1.8 1.6 3.9 3 4.7 3 .8 0 1.5.4 1.5 1 0 .5.9 1 2 1s2 .4 2 1c0 1.5 9.6 1.2 10.9-.3.8-1 .6-2.4-.9-5.5-1.1-2.3-2-4.8-2-5.7 0-.8-.4-1.5-1-1.5-.5 0-1-.9-1-2s-.4-2-1-2c-.5 0-1-.9-1-2s-.4-2-1-2c-.5 0-1-.9-1-2s-.4-2-1-2c-.5 0-1-.7-1-1.5s-1.3-2.9-3-4.7c-1.6-1.7-3-3.5-3-4 0-1.2-16.8-17.8-18.1-17.8-1.1 0-3.9-2.4-3.9-3.4 0-.3 2.9-.6 6.4-.6 3.6 0 6.8-.5 7.1-1 .3-.6 1.9-1 3.5-1 1.5 0 3-.6 3.2-1.2.7-2.1 3.8 1.7 3.8 4.6 0 1.4.5 2.6 1 2.6.6 0 1 .9 1 2s.5 2 1 2c.6 0 1 .8 1 1.8s.9 2.4 2 3.2c1.1.8 2 2 2 2.7 0 1.9 8.6 10.3 10.5 10.3.8 0 1.5.4 1.5 1 0 .5.9 1 2 1s2 .4 2 1c0 .5.9 1 2 1s2 .4 2 1c0 .5 1.8 1 4 1s4 .4 4 1c0 .5.9 1 2 1s2-.5 2-1c0-.6 1.4-1 3-1 2.5 0 3-.4 3-2.5 0-1.4-1.3-3.9-3-5.7-1.6-1.7-3-3.5-3-4 0-1.2-13.8-14.8-15-14.8-.5 0-2.5-1.6-4.4-3.5-2-1.9-4.2-3.5-5.1-3.5-.8 0-1.5-.5-1.5-1 0-.6-.9-1-2-1s-2-.5-2-1c0-.6-1.8-1-4-1s-4-.2-4-.5 1.1-1.7 2.5-3c2.1-2.2 3.3-2.5 10-2.5 6.1 0 7.5.3 7.5 1.6 0 2 2.4 4.4 4.4 4.4.9 0 1.6.4 1.6 1 0 .5 1.4 1 3 1 1.7 0 3 .4 3 1s3.3 1 8 1 8-.4 8-1 1.3-1 2.8-1c1.6 0 3.4-.8 4.2-2 .8-1.1 2-2 2.8-2 1.5 0 5.5-3.7 7.1-6.8 2.4-4.5.5-9.2-3.8-9.2-1.1 0-2.3-.5-2.6-1-.3-.6-3.5-1-7-1s-6.7.4-7 1c-.3.5-2.8 1-5.6 1-2.7 0-4.9.4-4.9 1 0 .5-1.3 1-3 1-2 0-3-.5-3-1.5 0-.8 1.4-2.9 3-4.7 1.7-1.7 3-4.2 3-5.4 0-1.3.5-2.4 1-2.4.6 0 1-1.4 1-3 0-1.7.5-3 1-3 .6 0 1 .4 1 1 0 .5 2.3 1 5 1 2.8 0 5-.5 5-1 0-.6.8-1 1.8-1s2.4-.9 3.2-2c.8-1.1 1.9-2 2.5-2 1.6 0 5.8-4.2 7.4-7.3.8-1.5 1.8-2.7 2.3-2.7.4 0 .8-1.3.8-2.9 0-1.6.6-3.1 1.3-3.4 1-.4 1-.7 0-1.8-.7-.7-1.3-2.3-1.3-3.6 0-2.1-.4-2.3-5-2.3-2.7 0-5 .4-5 1 0 .5-.7 1-1.6 1-.8 0-3.7 2.2-6.4 5-4 4.2-5.5 5-8.4 5H526v-7.9c0-4.4-.4-8.3-1-8.6-.5-.3-1-2-1-3.6 0-2.2-1.3-4.2-5.5-8.4-3-3-5.9-5.5-6.5-5.5-1.2 0-4-2.4-4-3.4s3.9-.6 4.5.4c.3.5 3.4 1 6.8 1 5.1 0 6.5-.4 7.7-2 .8-1.1 2-2 2.8-2 .7 0 1.6-.8 1.9-1.8.4-.9 1.5-2.4 2.5-3.3 1-.9 1.8-2.4 1.8-3.3 0-.9.5-1.6 1-1.6.6 0 1-2.3 1-5 0-2.8.5-5 1-5 .6 0 1-2.1 1-4.8 0-4.1-.3-4.9-2.7-6-3.2-1.4-15.3-1.6-15.3-.2 0 .5-.7 1-1.6 1-2 0-4.4 2.4-4.4 4.4 0 .9-.4 1.6-1 1.6-.5 0-1 .9-1 2s-.4 2-1 2c-.5 0-1 .7-1 1.5 0 2.3-6.6 8.5-9.1 8.5-1.2 0-2.9-.8-3.8-1.8-.9-.9-2.8-2.3-4.3-3.1-1.6-.8-2.8-1.8-2.8-2.3 0-.4-.9-.8-2-.8s-2-.5-2-1c0-.6-3-1-7-1s-7 .4-7 1c0 .5-1.3 1-2.8 1-1.6 0-3.4.8-4.2 2-.8 1.1-2.2 2-3.2 2s-1.8.4-1.8 1c0 .5-.9 1-2 1s-2 .4-2 1-2.7 1-6 1-6-.4-6-1-.9-1-2-1-2-.5-2-1c0-.6.5-1 1-1 .6 0 1-.8 1-1.8s.9-2.4 2-3.2c1.1-.8 2-2.2 2-3.2 0-2.4 2.6-2.3 5.2.2 1.2 1.1 3.1 2 4.3 2 1.1 0 2.6.5 3.3 1.2.9.9 1.5.9 2.4 0 .7-.7 2.5-1.2 4-1.2s2.8-.5 2.8-1c0-.6.7-1 1.5-1 1.9 0 8.5-6.4 8.5-8.2 0-.8.9-2 2-2.8 1.1-.8 2-2.1 2-3 0-.9.9-2.2 2-3 1.1-.8 2-2.2 2-3.2s.5-1.8 1-1.8c.6 0 1-1.4 1-3 0-1.7.5-3 1-3 1.5 0 1.2-2.9-.4-4.6-1.6-1.6-8.6-1.9-8.6-.4 0 .5-.9 1-2 1s-2 .4-2 1c0 .5-.9 1-2 1s-2 .4-2 1c0 .5-.7 1-1.5 1-.9 0-5.2 3.6-9.6 8.1-7.7 7.7-10.3 9.4-8 5.1.6-1.2 1.1-3.2 1.1-4.6 0-1.4.5-2.6 1-2.6.6 0 1-4.3 1-11s-.4-11-1-11c-.5 0-1-1.2-1-2.6 0-3.4-2.2-5.4-5.8-5.4-2.2 0-4.4 1.4-8.6 5.4-3.1 3-5.6 6.1-5.6 7 0 .9-.4 1.6-1 1.6-.5 0-1 .9-1 2s-.4 2-1 2c-.5 0-1 .9-1 2s-.4 2-1 2c-.5 0-1 .6-1 1.3 0 2-8.5 10.7-10.4 10.7-.9 0-1.6-.5-1.6-1 0-.6-.6-1-1.4-1-.7 0-3.1-1.7-5.3-3.8-2.1-2-5.1-4.3-6.6-5.1-1.5-.8-2.7-1.8-2.7-2.3 0-.4-.9-.8-2-.8s-2-.5-2-1c0-.6-.9-1-2-1s-2-.4-2-.9-1.3-1.4-3-2.1c-1.6-.7-3-1.6-3-2.1s-.9-.9-2-.9-2-.5-2-1c0-.6-1.3-1-3-1-1.6 0-3-.5-3-1 0-.6-.9-1-2-1s-2-.5-2-1c0-.6-.9-1-1.9-1-1.1 0-2.3-.5-2.6-1-.3-.6-2.2-1-4.1-1-1.9 0-3.4-.5-3.4-1 0-.6-1.8-1-4-1s-4-.5-4-1c0-.6-2.6-1-5.9-1-3.3 0-6.3-.5-6.6-1-.4-.6-14.2-1-38-1s-37.6.4-38 1zM240 111c0 .5 1.2 1 2.6 1 2.3 0 5.4 2 5.4 3.4 0 .3-.9.6-2 .6s-2 .4-2 1c0 .5-1.1 1-2.5 1-1.7 0-4.1 1.5-7 4.5-4 4-4.5 4.9-4.5 9 0 2.5.5 4.5 1 4.5.6 0 1 .9 1 2s.5 2 1 2c.6 0 1 .4 1 1 0 .5-1.6 1-3.5 1-2.7 0-4.4-.8-7-3.5-1.9-1.9-3.5-4.3-3.5-5.4 0-1.1-.4-2.3-1-2.6-.5-.3-1-2.4-1-4.6 0-2.1.5-3.9 1-3.9.6 0 1-.7 1-1.5 0-2.6 6.6-8.5 9.5-8.5 1.4 0 2.5-.5 2.5-1 0-.6 1.8-1 4-1s4 .4 4 1zm250 0c0 .5.9 1 2 1 1.3 0 2 .7 2 1.9 0 1.1.6 2.1 1.3 2.4.6.2.9.8.5 1.2-.4.4-1.7-.2-2.9-1.4-1.3-1.2-3.1-2.1-4.2-2.1-1.7 0-4.7-2.2-4.7-3.4 0-.3 1.4-.6 3-.6 1.7 0 3 .4 3 1zm-218 1.8c0 .4 1 1.2 2.2 1.7 1.2.6 2.6 1.9 3.2 3 .6 1.1 2.3 3.1 3.9 4.6 3.2 3.2 3.7 7.9.9 7.9-1 0-2.5-1.2-3.3-2.7-.8-1.5-3.5-4.9-6.1-7.6-5.1-5.2-6-7.7-2.8-7.7 1.1 0 2 .3 2 .8zm68 1c0 1-.9 2.4-2 3.2-1.1.8-2 2-2 2.7 0 1.3-8.1 10.3-9.3 10.3-.4 0-.7-1.8-.7-4s.5-4 1-4c.6 0 1-.7 1-1.5 0-.9 1.1-2.7 2.5-4 1.3-1.4 3.1-2.5 4-2.5.8 0 1.5-.5 1.5-1 0-.6.9-1 2-1 1.3 0 2 .7 2 1.8zm40 1.2c0 .5.6 1 1.3 1 .7 0 2.5.6 4 1.2 2 1 2.7 2 2.7 4 0 1.6.5 2.8 1 2.8.6 0 1 1.3 1 3 0 1.6-.4 3-1 3-.5 0-1 1.8-1 4s-.4 4-1 4c-.5 0-1 .7-1 1.5 0 2-4.5 6.5-6.5 6.5-.8 0-1.5.4-1.5 1 0 .5-.9 1-2 1s-2-.5-2-1c0-.6.5-1 1-1 .6 0 1-1.6 1-3.5s.6-4.4 1.2-5.5c1-1.6 1-2.4 0-4-.6-1.1-1.2-2.9-1.2-4 0-2.5-8.1-11-10.4-11-1.9 0-2-.6-.3-2.5 1.4-1.7 14.7-2.1 14.7-.5zm-238 6c0 .5.7 1 1.5 1 .9 0 2.7 1.1 4 2.5 1.9 1.8 2.5 3.5 2.5 7 0 4.2-.2 4.5-2.6 4.5-1.6 0-3.7-1.2-5.4-3-1.5-1.7-3.5-3-4.4-3-.9 0-1.6-.5-1.6-1.1 0-.6-2.2-.9-5.7-.8-4.8.2-5.9 0-6.1-1.4-.4-2 2-4.7 4.2-4.7.9 0 1.6-.5 1.6-1 0-.6 2.7-1 6-1s6 .4 6 1zm332-.5c0 1.6-5.2 5.5-7.4 5.5-1.4 0-2.8.4-3.1 1-.3.5-2.6 1-5.1 1-2.4 0-4.4.4-4.4 1 0 .5-.9 1-2 1s-2 .4-2 1c0 .5-.9 1-2 1s-2 .4-2 1c0 .5-.9 1-2 1-3 0-2.4-2.6 1.5-6.5 2.1-2.2 4.4-3.5 6-3.5 1.4 0 2.5-.5 2.5-1 0-.6 1.8-1 4-1s4-.5 4-1c0-.6 2.7-1 6-1s6 .2 6 .5zm-210.5 10c1.4 1.3 2.5 3.6 2.5 5 0 2.5-.1 2.5-7.5 2.5-6.8 0-7.9-.3-10.1-2.5l-2.5-2.5 2.3-2.4c3.3-3.6 11.8-3.7 15.3-.1zm98.3 2 2.5 2.3-2.6 2.6c-1.4 1.4-3.3 2.6-4.2 2.6-.8 0-1.5.4-1.5 1 0 1.5-10.2 1.2-12.2-.4-3.5-2.6-1-9.9 3.6-10.8 4.9-.8 12 .5 14.4 2.7zM498 135c0 .5.8 1 1.8 1s2.4.9 3.2 2c.8 1.1 2.2 2 3.2 2 1.1 0 1.8.7 1.8 2 0 1.1.5 2 1 2 .6 0 1 3 1 7s-.4 7-1 7c-.5 0-1 .8-1 1.9 0 1.1-1.2 2.3-3 3.1-1.6.7-3 1.6-3 2.1s-1.3.9-3 .9c-2.3 0-3-.4-3-2 0-1.1.5-2 1-2 .6 0 1-3.7 1-9s-.4-9-1-9c-.5 0-1-.7-1-1.5 0-.9-.9-2.5-2-3.7-2.9-3.1-2.5-4.8 1-4.8 1.7 0 3 .4 3 1zm-390 4c0 1.6-.4 3-1 3-.5 0-1 .7-1 1.5s-1.3 2.9-3 4.7c-1.6 1.7-3 3.7-3 4.4 0 .8-.4 1.4-1 1.4-.5 0-1 1.3-1 3 0 1.6-.4 3-1 3-.5 0-1 1.8-1 4s.5 4 1 4c.6 0 1 .9 1 1.9 0 1.1.4 2.1.8 2.3 1.4.6 5.2 6.6 5.2 8.2 0 1.1-.9 1.6-3 1.6-1.6 0-3-.5-3-1 0-.6-.7-1-1.5-1-2 0-6.5-4.5-6.5-6.5 0-.8-.4-1.5-1-1.5-.5 0-1-1.3-1-2.9 0-1.7-.4-3.3-1-3.6-.5-.3-1-2.2-1-4.1 0-1.9.5-3.4 1-3.4.6 0 1-1.4 1-3 0-1.7.5-3 1-3 .6 0 1-.9 1-2s.5-2 1-2c.6 0 1-.7 1-1.5 0-.9 1.9-3.5 4.3-6 3.4-3.6 4.9-4.4 8-4.4 3.5-.1 3.7.1 3.7 2.9zm62.6 2.4c1.6 1.7 2 10.6.4 10.6-.5 0-1 1.2-1 2.6 0 1.8-1.8 4.3-6.6 9-3.7 3.5-7.3 6.4-8 6.4-.8 0-1.4.4-1.4 1 0 .5-.9 1-1.9 1-1.1 0-2.3.4-2.6 1-.3.5-2.2 1-4.1 1-1.9 0-3.4.4-3.4 1s-3.3 1-8 1c-7.3 0-8-.2-8-2 0-1.7.7-2 5-2 2.8 0 5-.5 5-1 0-.6.9-1 2-1s2-.5 2-1c0-.6.9-1 2-1s2-.5 2-1c0-.6.7-1 1.6-1 1.9 0 10.4-8.7 10.4-10.7 0-.7.5-1.3 1-1.3.6 0 1-.9 1-2s.4-2 .8-2c.5 0 1.5-1.2 2.3-2.8 1.7-3.3 2.8-4.5 5.4-6 2.5-1.4 2.4-1.5 4.1.2zm36 2c.8.8 1.4 2.2 1.4 3 0 .9.5 1.6 1 1.6.6 0 1 .9 1 2s.4 2 .8 2c.5 0 1.5 1.2 2.3 2.7.8 1.6 2.2 3.5 3.1 4.4 2.4 2.2 2.3 4.9-.2 4.9-1.1 0-2-.5-2-1 0-.6-.7-1-1.5-1-2 0-6.5-4.5-6.5-6.5 0-.8-.4-1.5-1-1.5s-1-2.7-1-6c0-6.3.3-6.9 2.6-4.6zm274.9 1.1c1.4 1.3 2.5 3.5 2.5 4.9 0 1.3.5 2.6 1.2 2.8 1.9.7-3.7 5.8-6.2 5.8-3.6 0-7-4.4-7-9 0-2.2.6-4.7 1.3-5.5 1.9-2.2 5.5-1.8 8.2 1zm-350.2.7c3.5 1.8 5.4 4.1 3.9 4.6-.6.2-1.2 1-1.2 1.9 0 1.9-2.4 4.3-4.4 4.3-.9 0-1.6.4-1.6 1 0 1.5-7 1.2-8.6-.4-.8-.8-1.4-2.4-1.4-3.6 0-2.4 4.2-7 6.5-7 .8 0 1.5-.5 1.5-1 0-1.3 2.6-1.3 5.3.2zm142.7 3.4c0 1.1-2.9 3.4-4.4 3.4-.9 0-1.6.4-1.6 1 0 .5-1.3 1-3 1-1.6 0-3 .4-3 1 0 .5-2.2 1-5 1-2.7 0-5-.5-5-1 0-.6 1.8-1 4-1s4-.5 4-1c0-.6 1.4-1 3-1 1.7 0 3-.5 3-1 0-.6 1.4-1 3-1 1.7 0 3-.5 3-1 0-.6.5-1 1-1 .6 0 1 .3 1 .6zm128 3.4c0 2.2-.4 4-1 4-.5 0-1 .9-1 1.9 0 1.2-1.2 2.5-3 3.3-1.6.7-3 1.6-3 2 0 .5-1.3.8-3 .8-3.5 0-3.8-1-1-3 1.1-.8 2-2 2-2.7 0-1.4 7.9-10.1 9.3-10.2.4-.1.7 1.7.7 3.9zm55.6-.3c.3 1 1 2.6 1.5 3.5.5 1 .9 2.2.9 2.8 0 .6 1.6 2.6 3.5 4.5 2.9 3 4.1 3.5 8 3.5 3.8 0 4.5.3 4.5 1.9 0 1.1.6 2.1 1.2 2.3.9.3.8.9-.4 2.1-1.8 1.8-8.8 2.4-8.8.7 0-.6-.9-1-2-1s-2-.5-2-1c0-.6-.7-1-1.6-1-1.9 0-5-3.3-5.9-6.1-.4-1.1-1.1-1.9-1.6-1.9s-.9-2.7-.9-6c0-4.7.3-6 1.5-6 .9 0 1.8.8 2.1 1.7zM341 154c.8 1.2 2.6 2 4.2 2 1.5 0 2.8.4 2.8 1 0 .5 1.4 1 3 1 1.7 0 3 .4 3 1s-2.7 1-6 1-6-.4-6-1-.7-1-1.6-1c-.8 0-2.2-.6-3-1.4-.8-.8-1.4-2.2-1.4-3 0-2.3 3.3-2 5 .4zm-53 4c0 1.1-.4 2-1 2-.5 0-1 .9-1 2s-.4 2-1 2c-.5 0-1 .6-1 1.3 0 .7-.9 2.3-2 3.5-1.1 1.2-2 2.6-2 3.2 0 2.7-7.6 8-11.5 8-1.4 0-2.5.4-2.5 1s-2.8 1-6.4 1c-3.6 0-6.8-.5-7.1-1-.3-.6-2.2-1-4.2-1-2.7 0-4.3-.8-6.9-3.4-1.9-1.9-3.4-4.3-3.4-5.3 0-1.8.6-1.9 5.8-1.5 3.1.2 6.1.8 6.7 1.3 1.3 1.2 18.2 1.1 19-.1.3-.6 1.4-1 2.3-1.1.9 0 4.6-3.1 8.2-6.9 3.6-3.7 6.8-6.9 7.3-6.9.4-.1.7.8.7 1.9zm36 3.5c0 .9 1.1 2.7 2.5 4 1.3 1.4 3.1 2.5 4 2.5.8 0 1.5.4 1.5 1 0 .5.9 1 2 1s2 .4 2 1c0 .5 1.4 1 3 1 2.3 0 3 .4 3 2s-.7 2-3 2c-1.6 0-3 .4-3 1 0 .5-.7 1-1.5 1-3.4 0-10.5-5.8-10.5-8.5 0-.8-.4-1.5-1-1.5-.5 0-1-1.8-1-4s.5-4 1-4c.6 0 1 .7 1 1.5zM438 173c0 .5.9 1 2 1s2 .4 2 1c0 .5.7 1 1.6 1 .9 0 2.9 1.3 4.4 3 1.5 1.6 3.2 3 3.7 3s2.9 1.8 5.3 4 5.4 4 6.7 4c1.3 0 2.3.4 2.3 1 0 .5.9 1 1.9 1 1.1 0 2.3-.5 2.6-1 .3-.6 2.2-1 4.1-1 1.9 0 3.4-.5 3.4-1 0-.6.6-1 1.3-1 .7 0 2.3-.9 3.5-2 1.2-1.1 2.8-2 3.7-2 .8 0 1.5.9 1.5 2s-.4 2-1 2c-.5 0-1 .7-1 1.6 0 2-2.4 4.4-4.4 4.4-.9 0-1.6.4-1.6 1 0 .5-1.8 1-4 1s-4 .4-4 1c0 .5-.9 1-1.9 1-1.1 0-2.3-.5-2.6-1-.3-.6-2.6-1-5.1-1-2.4 0-4.4-.5-4.4-1 0-.6-1.3-1-2.8-1-1.6 0-3.4-.8-4.2-2-.8-1.1-2-2-2.7-2-.8 0-3.8-2.5-6.8-5.5-4.6-4.5-5.5-6-5.5-9 0-1.9.5-3.5 1-3.5.6 0 1 .4 1 1zm-72 2.6c0 2.2-2.5 4.4-4.9 4.4-1.1 0-2.3.4-2.6 1-.3.5-3.3 1-6.6 1s-5.9-.4-5.9-1 .9-1 2-1 2-.5 2-1c0-.6 1.8-1 4-1s4-.5 4-1c0-.6 1.4-1 3-1 1.7 0 3-.5 3-1 0-.6.5-1 1-1 .6 0 1 .7 1 1.6zm144.6 1.8c.8.8 1.4 2.6 1.4 4 0 2.2-.4 2.6-3 2.6-2.8 0-3-.2-3-4 0-4.3 1.8-5.3 4.6-2.6zM164 186.5c0 1.3-7.1 7.5-8.5 7.5-.8 0-1.5.4-1.5 1 0 .5-1.3 1-3 1-1.6 0-3 .4-3 1s-3.3 1-8 1c-4.4 0-8-.4-8-.8 0-1.2 7.8-5.2 10-5.2 1.1 0 2.2-.5 2.5-1 .3-.6 2.2-1 4.1-1 1.9 0 3.4-.5 3.4-1 0-.6 1.4-1 3-1 1.7 0 3-.5 3-1 0-.6 1.4-1 3-1 1.7 0 3 .2 3 .5zM424 311c0 .5-.4 1-1 1-.5 0-1-.5-1-1 0-.6.5-1 1-1 .6 0 1 .4 1 1zm-26 79c0 1.1-.4 2-1 2-.5 0-1 1.3-1 3 0 1.6-.4 3-1 3-.5 0-1 1.3-1 3 0 1.6-.4 3-1 3-.5 0-1 1.3-1 3 0 1.6-.5 3-1 3-.7 0-1 11.2-1 34l.2 34.1-2.9 2.2c-1.5 1.2-3.9 3.3-5.3 4.7-1.4 1.4-4.5 4.1-7 6-2.5 1.9-6.9 5.9-9.8 8.7-2.9 2.9-5.6 5.3-6 5.3-.4 0-2.3 1.5-4.2 3.3-1.9 1.7-5.1 4.3-7 5.7-1.9 1.3-4.7 3.7-6.2 5.2-1.4 1.5-3 2.8-3.5 2.8s-2.9 1.8-5.3 4-5 4-5.7 4c-.7 0-1.3.4-1.3 1s-5.5 1-14.4 1c-8.6 0-14.7.4-15.1 1-.4.6-5.3 1-11.6 1-6.6 0-10.9-.4-10.9-1s-1.1-1-2.5-1c-3.6 0-5.9-1.6-14.2-9.8-4-3.9-7.7-7.2-8.1-7.2-.5 0-4.4-3.4-8.7-7.5-4.3-4.1-8.2-7.5-8.7-7.5s-3.1-2.3-5.8-5c-2.7-2.8-5.3-5-5.9-5-.6 0-3-1.8-5.2-4-2.3-2.2-4.6-4-5.1-4-1.1 0-6.9-5.9-8.5-8.8-1.5-2.5-1.8-17.3-.4-18.7 2.8-2.9 2.8-48.5 0-48.5-.5 0-.9-1.1-.9-2.5 0-1.3-.9-4-2-6-2.5-4.4-2.6-7.5-.2-7.5 1.6 0 4.2 4 4.2 6.7 0 .7.4 1.3.9 1.3 1.1 0 2.1 5.3 2.8 14.5.2 3.8.9 7.4 1.4 8 .5.5.9 7.1.9 14.6 0 8.1.4 14 1 14.4.6.3 1 2.2 1 4.1 0 2.6.8 4.3 3.5 6.9 1.9 1.9 4.1 3.5 5 3.5.8 0 1.5.4 1.5 1 0 .5 1.4 1 3 1 1.7 0 3 .4 3 1 0 .5 1.4 1 3 1 1.7 0 3 .4 3 1 0 .5 1.8 1 4 1s4 .4 4 1c0 1.5 2.9 1.2 4.6-.4 1.6-1.7 2-14.6.4-14.6s-1.1-3.2.8-4.6c1-.8 4.3-1.3 8-1.4h6.2v11.5c0 7 .4 11.5 1 11.5s1.1-.6 1.1-1.3c.1-.6.3-2.3.5-3.7.2-1.4.7-6 1-10.3.6-7.7.6-7.7 3.5-7.7 1.6 0 2.9.4 2.9 1 0 .5-.4 1-1 1-1.4 0-1.3 12.3.2 15.5.6 1.4 1.9 2.5 3 2.5 1.9 0 2.5-2.5.8-3.5-.5-.3-1-3.5-1-7.1 0-6.9 1.3-9.4 4.7-9.4 1.7 0 1.9.6 1.5 6-.3 4-.1 6 .7 6 .7 0 1.1 2 1.1 5 0 4.3.3 5 2 5s2-.7 2-3.9c0-2.2-.4-4.3-1-4.6-1.7-1.1-1.2-10.4.7-12.3 1.2-1.2 1.8-1.3 2.1-.4.2.6 1.7 1.2 3.3 1.2 2.9 0 2.9 0 2.9 6.2.1 5.7 1.5 9.8 3.4 9.8.3 0 .6-3.6.6-8v-8h5.8c5.3 0 6 .2 7 2.5.7 1.4 1.2 5.5 1.2 9 0 5.9.2 6.5 2.1 6.5 1.9 0 2-.4 1.6-5.3-.3-2.8-.9-6.9-1.2-9l-.7-3.7H324v7.6c0 6.9 1.1 10.4 3.4 10.4.3 0 .6-4.1.6-9v-9h6v8c0 7.3.2 8 2 8s2-.7 2-8v-8h8v8.6c0 6.1.4 9 1.4 10 1.5 1.5 10.2 2 10.8.6.2-.4 2.4-1.8 5.1-3.1 2.6-1.3 4.7-2.8 4.7-3.3 0-.4.9-.8 2-.8s2-.5 2-1c0-.6.7-1 1.5-1 2 0 6.5-4.5 6.5-6.5 0-.8.5-1.5 1-1.5.6 0 1-1.3 1-2.9 0-1.7.5-3.3 1-3.6.6-.4 1-8 1-19.5s.4-19.1 1-19.5c.6-.3 1-1.5 1-2.6 0-1 .5-1.9 1-1.9.6 0 1-.9 1-2s.4-2 .8-2 1.4-2.1 2.1-4.8c.7-2.6 1.4-5.3 1.7-6 .2-.6 1.5-1.2 2.9-1.2 1.8 0 2.5.5 2.5 2z"/><path d="m338.1 479-2.3 3h-11.2c-9.8 0-11.5.2-13.4 2-1.2 1.1-2.8 2-3.7 2-.8 0-1.5.4-1.5 1 0 .5-1.1 1-2.4 1-1.4 0-2.8.4-3.1 1-.3.5-2.8 1-5.6 1-2.7 0-4.9-.5-4.9-1 0-.6-.7-1-1.6-1-.9 0-2.9-1.4-4.4-3l-2.8-3h-12.1c-11.7 0-12.3-.1-14.7-2.5-1.4-1.4-3-2.3-3.5-2-1.6 1.1-1 3.5 1.6 6 1.9 2 3.4 2.5 7.4 2.5 2.7 0 5.3.4 5.6 1 .9 1.4 10.8 1.3 12.3-.2.8-.8 1.8-.3 4.1 2 1.6 1.8 3.6 3.2 4.5 3.2.9 0 1.6.4 1.6 1s3.3 1 8 1 8-.4 8-1 .7-1 1.5-1c.9 0 2.5-.9 3.7-2 1.2-1.1 2.8-2 3.5-2 .7 0 1.3-.5 1.3-1 0-.6 1.8-1 4-1s4 .4 4 1c0 .5 2.2 1 4.9 1 2.8 0 5.3-.5 5.6-1 .3-.6 1.6-1 2.8-1 1.3 0 2.9-.9 3.7-2 .8-1.1 2.4-2 3.5-2 2.6-.1 5.5-2.3 5.5-4.4 0-1.2-.9-1.6-3.7-1.6-3 0-4.3.6-6.2 3zM250 498c0 1.1.5 2 1 2 .6 0 1 .9 1 2s.5 2 1 2c.6 0 1 1 1 2.2 0 3.4 4.2 7.8 7.4 7.8 2.3 0 2.6-.4 2.6-3.5 0-3-.9-4.5-5.5-9-5.7-5.8-8.5-6.9-8.5-3.5zm92 1c0 .5-.9 1-2 1s-2 .4-2 1c0 .5-.7 1-1.5 1-1.8 0-8.5 6.4-8.5 8 0 1.8 2.7 4 4.7 4 2.2 0 9.3-6.1 9.3-8 0-.7 1.4-2.5 3-4 1.7-1.5 3-3.1 3-3.4 0-.3-1.3-.6-3-.6-1.6 0-3 .4-3 1zM311.3 63.5c-.7.8-1.3 2-1.3 2.7 0 .8-.9 2-2 2.8-1.1.8-2 2.1-2 3 0 .9-.9 2.2-2 3-1.2.8-2 2.6-2 4.2 0 1.5-.4 2.8-1 2.8-1.6 0-1.2 20.1.4 22.2 1.4 1.9 4.6 2.4 4.6.8 0-.6 1.1-1 2.5-1 2.9 0 7.5-4 7.5-6.5 0-.8.5-1.5 1-1.5.6 0 1-4.5 1-11.4 0-6.6-.4-11.7-1-12.1-.5-.3-1-2.8-1-5.6 0-4-.3-4.9-1.7-4.9-1 .1-2.4.7-3 1.5zM92.2 66.6 89.9 69l6.6 6.5c3.5 3.6 6.8 6.5 7.3 6.5.4 0 3.6 2.7 7 6 4.2 4 7.1 6 8.7 6 1.4 0 2.5.4 2.5 1s5 1 13 1h13v-4c0-2.2-.4-4-.9-4s-1.2-.9-1.6-2c-.8-2.4-7.9-10-9.4-10-.6 0-2.5-1.4-4.3-3-1.7-1.7-3.7-3-4.4-3-.8 0-1.4-.5-1.4-1 0-.6-.9-1-2-1s-2-.5-2-1c0-.6-1.1-1-2.4-1-1.4 0-2.8-.5-3.1-1-.4-.6-5.2-1-11.3-.9-10 0-10.8.2-13 2.5zM206 87c0 .5-.8 1-1.8 1s-2.4.9-3.2 2c-.8 1.1-2.2 2-3 2-.9 0-2.6 1.8-3.8 4.1-1.9 3.5-2.2 5.7-2.2 14.6 0 7.9.4 10.8 1.5 11.9 1.3 1.3 1.8 1.2 4-1 1.4-1.4 2.5-3 2.5-3.7 0-.6.8-1.9 1.8-2.8.9-.9 2.3-2.8 3.1-4.4.8-1.5 1.8-2.7 2.3-2.7.4 0 .8-.8.8-1.8s.9-2.4 2-3.2c1.1-.8 2-2.2 2-3.2s.5-1.8 1-1.8c2.1 0 1-7-1.5-9.5-2.4-2.5-5.5-3.3-5.5-1.5zM73.5 93c-.3.5-1.7 1-3.1 1-1.3 0-2.4.4-2.4 1 0 .5-.8 1-1.8 1s-2.4.9-3.2 2c-.8 1.1-2 2-2.8 2-1.8 0-6.2 4.6-6.2 6.5 0 .8-.4 1.5-1 1.5-1.5 0-1.2 7 .4 8.6.8.8 2.8 1.4 4.5 1.4 1.6 0 3.3.4 3.6 1 .4.6 6 1 13.6 1 7.9 0 12.9-.4 12.9-1s1.8-1 4-1 4-.5 4-1c0-.6.7-1 1.5-1 2.8 0 6.5-4.7 6.5-8.1 0-4-7.6-11.9-11.5-11.9-1.4 0-2.5-.5-2.5-1 0-.6-1.3-1-3-1-1.6 0-3-.5-3-1 0-.6-2.2-1-4.9-1-2.8 0-5.3.4-5.6 1zm314.9 94.1c-.3.5-1.2.9-2 .9s-2.6 1.1-3.9 2.5c-2 1.9-2.5 3.4-2.5 7.4 0 2.7.5 5.3 1 5.6.6.3 1 1.8 1 3.3 0 1.6.8 3.4 2 4.2 1.1.8 2 2 2 2.8 0 1.7 2.5 4.2 4.2 4.2.8 0 2 .9 2.8 2 .8 1.1 2.4 2 3.7 2 1.2 0 2.5.4 2.8 1 .3.5 2.4 1 4.6 1h3.9v-6c0-3.3-.4-6-1-6-.5 0-1-.9-1-2s-.4-2-1-2c-.5 0-1-.9-1-2s-.4-2-1-2c-.5 0-1-.7-1-1.6 0-.9-.8-2.4-1.7-3.3-2.6-2.3-4.3-5.7-4.3-8.3 0-1.8-.9-2.6-3.5-3.4-2-.6-3.8-.7-4.1-.3zM404 219c0 .5-.9 1-2 1s-2-.5-2-1c0-.6.9-1 2-1s2 .4 2 1zm-192.6-29.7c-1.1 1.3-2 4.9-3.1 12-.5 3.8 1.5 12.7 2.9 12.7.4 0 .8.7.8 1.5 0 .9 1.6 3.2 3.5 5.1 3.1 3.1 3.7 3.3 5 2 .8-.8 1.5-3 1.5-4.8 0-1.9.5-3.9 1.2-4.6.9-.9.9-1.5 0-2.4-.7-.7-1.2-2.9-1.2-5s-.4-3.8-1-3.8c-.5 0-1-.9-1-2s-.4-2-1-2c-.5 0-1-.7-1-1.5 0-.9-.9-2.5-2-3.7-1.1-1.2-2-2.8-2-3.5 0-1.6-1.2-1.6-2.6 0zM70 200.8c0 .5-1.2 1.5-2.7 2.3C63.5 205 54 214.6 54 216.5c0 .8-.4 1.5-1 1.5-.5 0-1 1.3-1 3 0 1.6-.4 3-1 3s-1 3.7-1 9 .4 9 1 9 1 .9 1 2c0 1.3.7 2 1.8 2 1 0 2.4-.9 3.2-2 .8-1.1 2-2 2.7-2 .8 0 4.3-2.9 7.8-6.5 3.6-3.6 6.9-6.5 7.4-6.5s3-2 5.7-4.5c2.6-2.5 5.1-4.5 5.6-4.5 1.5 0 3.8-2.7 3.8-4.4 0-.9.5-1.6 1-1.6.6 0 1-.9 1-2s-.4-2-1-2c-.5 0-1-1.8-1-4 0-3.8-.2-4-3-4-1.6 0-3-.5-3-1 0-.6-3-1-7-1-3.8 0-7 .4-7 .8zM308 211c0 .5-.7 1-1.5 1-.9 0-3.1 1.6-5.1 3.5-3.9 3.9-4.6 4.1-6.8 2-.8-.8-2.2-1.5-3-1.5-.9 0-1.6-.5-1.6-1 0-.6-1.3-1-3-1-1.6 0-3-.5-3-1 0-1.6-5-1.2-6.6.5-2.4 2.4.5 4.5 6 4.5 2.5 0 4.6.4 4.6 1 0 .5.9 1 2 1s2 .4 2 1c0 .5.9 1 2 1s2 .4 2 1c0 2.2 3.3.8 6.9-2.8 4.1-4.1 7.3-6.2 9.6-6.2.8 0 1.5-.9 1.5-2 0-1.6-.7-2-3-2-1.6 0-3 .4-3 1z"/><path d="M312 221c0 .5-.8 1-1.8 1s-2.4.9-3.2 2c-.8 1.1-2 2-2.8 2-1.8 0-6.2 4.6-6.2 6.5 0 2.2-.8 1.9-4-1.5-1.5-1.7-3.5-3-4.4-3-.9 0-1.6-.5-1.6-1 0-.6-.9-1-2-1s-2-.5-2-1c0-.6-1.3-1-3-1-2.6 0-3 .4-3 2.6 0 3.3 4.6 7.4 8.5 7.4.8 0 1.5.4 1.5 1 0 .5 1.2 1 2.6 1 1.5 0 3.4 1 4.4 2.2 1.6 2 1.9 2.1 3.4.6.9-.9 1.6-2.4 1.6-3.2 0-1.2 1-1.6 3.4-1.6 1.9 0 3.8-.5 4.1-1 .3-.6 1.3-1 2.1-1 2.2 0 6.4-4.6 6.4-7 0-1.2-.6-2.8-1.4-3.6-1.7-1.6-2.6-1.8-2.6-.4zm191.3 28.5c-.7.8-1.3 1.9-1.3 2.5 0 1.6 8.8 10 10.5 10 .8 0 1.5.4 1.5 1 0 1.4 7.4 1.2 8.8-.2 1.7-1.7 1.5-2.8-.6-2.8-1 0-2.4-.9-3.2-2-.8-1.1-2.1-2-3-2-.9 0-2.2-.9-3-2-.8-1.1-2.1-2-3-2-.9 0-2.2-.9-3-2-1.7-2.3-2.1-2.4-3.7-.5zM116 260c0 1.1-.4 2-1 2-.5 0-1 .9-1 2s-.4 2-1 2c-.5 0-1 .6-1 1.2 0 1.7-4.4 6.8-5.9 6.8s-6.1 4.5-6.1 6c0 2.3 7.2 7 7.8 5.1.2-.6 1-1.1 1.8-1.1 1.8 0 7.5-5.6 9.1-9 1.2-2.5 1.7-7.4 1.4-13.8-.1-2.5-.5-3.2-2.1-3.2-1.3 0-2 .7-2 2zm350 10.4c0 1.4-.4 2.8-1 3.1-.5.3-1 1.5-1 2.6 0 1 .5 1.9 1 1.9.6 0 1 1.1 1 2.5 0 2.8 9.9 13.5 12.5 13.5.8 0 1.5.4 1.5 1 0 .5 2.1 1 4.6 1 4.4 0 7.4-1.6 7.4-4 0-1.6-4.7-6-6.5-6-.8 0-1.5-.5-1.5-1 0-.6-.6-1-1.3-1-2 0-10.7-8.5-10.7-10.4 0-.9-.4-1.6-1-1.6-.5 0-1-.9-1-2 0-1.3-.7-2-2-2-1.5 0-2 .7-2 2.4zM292 311c0 1.6-.4 3-1 3-.5 0-1 .9-1 2s-.4 2-1 2c-.5 0-1 .9-1 2s-.4 2-1 2c-.5 0-1 .9-1 2s-.4 2-1 2c-.5 0-1 .9-1 2s-.4 2-1 2c-.5 0-1 .9-1 2s-.4 2-1 2c-.5 0-1 1.1-1 2.4 0 1.4-.4 2.8-1 3.1-.5.3-1 1.5-1 2.6 0 1-.4 1.9-1 1.9-.5 0-1 1.3-1 3 0 1.6-.4 3-1 3-.5 0-1 1.5-1 3.4s-.4 3.8-1 4.1c-.5.3-1 2.4-1 4.5s-.4 4.2-1 4.5c-.5.3-1 2.2-1 4.1 0 1.9.5 3.4 1 3.4.6 0 1 1.1 1 2.5 0 1.6 1.4 3.9 3.6 6.1 3.2 3.3 4.1 3.6 9.4 3.7 4.9.1 6.2-.2 7.8-2.1 2.4-2.7 6.3-2.8 8.2-.2 1.2 1.7 2.6 2 8.2 2 3.9 0 6.8-.4 6.8-1s.7-1 1.6-1c2 0 4.4-2.4 4.4-4.4 0-.9.5-1.6 1-1.6.6 0 1-1.8 1-4s.5-4 1-4c.6 0 1-.9 1-2s-.4-2-1-2c-.5 0-1-1.4-1-3 0-1.7-.4-3-1-3-.5 0-1-.9-1-2s-.4-2-1-2c-.5 0-1-.9-1-2s-.4-2-1-2c-.5 0-1-.9-1-1.9 0-1.1-.4-2.3-1-2.6-.5-.3-1-1.7-1-3.1 0-1.3-.4-2.4-1-2.4-.5 0-1-.9-1-2s-.4-2-.8-2c-.5 0-1.5-2.3-2.2-5-.7-2.8-1.7-5-2.2-5-.4 0-.8-.9-.8-2s-.4-2-1-2c-.5 0-1-1.4-1-3 0-1.7-.4-3-1-3-.5 0-1-1.6-1-3.6 0-4.8-1.9-6.4-7.4-6.4-4.4 0-4.6.1-4.6 3z"/></g><path d="M89.4 68.1c-.3.6.4 2.1 1.7 3.3l2.3 2.1-1.8-2.2c-1-1.2-1.5-2.7-1.1-3.2.3-.6.4-1.1.1-1.1-.3 0-.8.5-1.2 1.1zm244 0c-.3.6-.2 1.5.3 2s.9.1.9-1.1c0-2.3-.2-2.4-1.2-.9zM96.5 77c1 1.1 2 2 2.3 2 .3 0-.3-.9-1.3-2s-2-2-2.3-2c-.3 0 .3.9 1.3 2zm296 6c1 1.1 2 2 2.3 2 .3 0-.3-.9-1.3-2s-2-2-2.3-2c-.3 0 .3.9 1.3 2zm-196.1 6.2-1.9 2.3 2.3-1.9c2.1-1.8 2.7-2.6 1.9-2.6-.2 0-1.2 1-2.3 2.2zM154.5 95c1 1.1 2 2 2.3 2 .3 0-.3-.9-1.3-2s-2-2-2.3-2c-.3 0 .3.9 1.3 2zm122 0c1 1.1 2 2 2.3 2 .3 0-.3-.9-1.3-2s-2-2-2.3-2c-.3 0 .3.9 1.3 2zm197.9.2-1.9 2.3 2.3-1.9c1.2-1.1 2.2-2.1 2.2-2.3 0-.8-.8-.2-2.6 1.9zm-160 6-1.9 2.3 2.3-1.9c2.1-1.8 2.7-2.6 1.9-2.6-.2 0-1.2 1-2.3 2.2zm-212 12-1.9 2.3 2.3-1.9c2.1-1.8 2.7-2.6 1.9-2.6-.2 0-1.2 1-2.3 2.2zm432 0-1.9 2.3 2.3-1.9c1.2-1.1 2.2-2.1 2.2-2.3 0-.8-.8-.2-2.6 1.9zm-346 6-1.9 2.3 2.3-1.9c2.1-1.8 2.7-2.6 1.9-2.6-.2 0-1.2 1-2.3 2.2zm-41.9 5.8c1 1.1 2 2 2.3 2 .3 0-.3-.9-1.3-2s-2-2-2.3-2c-.3 0 .3.9 1.3 2zm101.9 6.2-1.9 2.3 2.3-1.9c2.1-1.8 2.7-2.6 1.9-2.6-.2 0-1.2 1-2.3 2.2zm14.1-.2c1 1.1 2 2 2.3 2 .3 0-.3-.9-1.3-2s-2-2-2.3-2c-.3 0 .3.9 1.3 2zm-142.1 18.2-1.9 2.3 2.3-1.9c1.2-1.1 2.2-2.1 2.2-2.3 0-.8-.8-.2-2.6 1.9zm220.1 5.8c1 1.1 2 2 2.3 2 .3 0-.3-.9-1.3-2s-2-2-2.3-2c-.3 0 .3.9 1.3 2zm53.9.2-1.9 2.3 2.3-1.9c2.1-1.8 2.7-2.6 1.9-2.6-.2 0-1.2 1-2.3 2.2zM214.5 159c1 1.1 2 2 2.3 2 .3 0-.3-.9-1.3-2s-2-2-2.3-2c-.3 0 .3.9 1.3 2zm-62.1 2.2-1.9 2.3 2.3-1.9c2.1-1.8 2.7-2.6 1.9-2.6-.2 0-1.2 1-2.3 2.2zm238 0-1.9 2.3 2.3-1.9c1.2-1.1 2.2-2.1 2.2-2.3 0-.8-.8-.2-2.6 1.9zm70.1-.2c1 1.1 2 2 2.3 2 .3 0-.3-.9-1.3-2s-2-2-2.3-2c-.3 0 .3.9 1.3 2zm-184.1 6.2-1.9 2.3 2.3-1.9c2.1-1.8 2.7-2.6 1.9-2.6-.2 0-1.2 1-2.3 2.2zm50.1-.2c1 1.1 2 2 2.3 2 .3 0-.3-.9-1.3-2s-2-2-2.3-2c-.3 0 .3.9 1.3 2zm223.9.2-1.9 2.3 2.3-1.9c1.2-1.1 2.2-2.1 2.2-2.3 0-.8-.8-.2-2.6 1.9zm-8 6-1.9 2.3 2.3-1.9c1.2-1.1 2.2-2.1 2.2-2.3 0-.8-.8-.2-2.6 1.9zM30.5 179c1 1.1 2 2 2.3 2 .3 0-.3-.9-1.3-2s-2-2-2.3-2c-.3 0 .3.9 1.3 2zm174 0c1 1.1 2 2 2.3 2 .3 0-.3-.9-1.3-2s-2-2-2.3-2c-.3 0 .3.9 1.3 2zm110 0c1 1.1 2 2 2.3 2 .3 0-.3-.9-1.3-2s-2-2-2.3-2c-.3 0 .3.9 1.3 2zm132 0c1 1.1 2 2 2.3 2 .3 0-.3-.9-1.3-2s-2-2-2.3-2c-.3 0 .3.9 1.3 2zm-408 6c1 1.1 2 2 2.3 2 .3 0-.3-.9-1.3-2s-2-2-2.3-2c-.3 0 .3.9 1.3 2zm40 6c1 1.1 2 2 2.3 2 .3 0-.3-.9-1.3-2s-2-2-2.3-2c-.3 0 .3.9 1.3 2zm154 0c1 1.1 2 2 2.3 2 .3 0-.3-.9-1.3-2s-2-2-2.3-2c-.3 0 .3.9 1.3 2zm-56.1 6.2-1.9 2.3 2.3-1.9c2.1-1.8 2.7-2.6 1.9-2.6-.2 0-1.2 1-2.3 2.2zm-6 6-1.9 2.3 2.3-1.9c2.1-1.8 2.7-2.6 1.9-2.6-.2 0-1.2 1-2.3 2.2zm-8 6-1.9 2.3 2.3-1.9c2.1-1.8 2.7-2.6 1.9-2.6-.2 0-1.2 1-2.3 2.2zm122.1-.2c1 1.1 2 2 2.3 2 .3 0-.3-.9-1.3-2s-2-2-2.3-2c-.3 0 .3.9 1.3 2zm146 0c1 1.1 2 2 2.3 2 .3 0-.3-.9-1.3-2s-2-2-2.3-2c-.3 0 .3.9 1.3 2zm80 0c1 1.1 2 2 2.3 2 .3 0-.3-.9-1.3-2s-2-2-2.3-2c-.3 0 .3.9 1.3 2zm-26.9 4.8c-.2.4.4.8 1.4.8 1 0 1.6-.4 1.4-.8-.3-.4-.9-.8-1.4-.8-.5 0-1.1.4-1.4.8zM214.5 221c1 1.1 2 2 2.3 2 .3 0-.3-.9-1.3-2s-2-2-2.3-2c-.3 0 .3.9 1.3 2zm87.9.2-1.9 2.3 2.3-1.9c1.2-1.1 2.2-2.1 2.2-2.3 0-.8-.8-.2-2.6 1.9zm90.1-.2c1 1.1 2 2 2.3 2 .3 0-.3-.9-1.3-2s-2-2-2.3-2c-.3 0 .3.9 1.3 2zm-314.1 6.2-1.9 2.3 2.3-1.9c2.1-1.8 2.7-2.6 1.9-2.6-.2 0-1.2 1-2.3 2.2zm-8 6-1.9 2.3 2.3-1.9c2.1-1.8 2.7-2.6 1.9-2.6-.2 0-1.2 1-2.3 2.2zm-6 6-1.9 2.3 2.3-1.9c2.1-1.8 2.7-2.6 1.9-2.6-.2 0-1.2 1-2.3 2.2zm436.1-.2c1 1.1 2 2 2.3 2 .3 0-.3-.9-1.3-2s-2-2-2.3-2c-.3 0 .3.9 1.3 2zm-217.1 3.1c-.3.6-.2 1.5.3 2s.9.1.9-1.1c0-2.3-.2-2.4-1.2-.9zm-227 3.1-1.9 2.3 2.3-1.9c2.1-1.8 2.7-2.6 1.9-2.6-.2 0-1.2 1-2.3 2.2zm254 0-1.9 2.3 2.3-1.9c1.2-1.1 2.2-2.1 2.2-2.3 0-.8-.8-.2-2.6 1.9zm-132.5 6.5c-1.3 1.6-1.2 1.7.4.4 1.6-1.3 2.1-2.1 1.3-2.1-.2 0-1 .8-1.7 1.7zM474.5 263c1 1.1 2 2 2.3 2 .3 0-.3-.9-1.3-2s-2-2-2.3-2c-.3 0 .3.9 1.3 2zm8 6c1 1.1 2 2 2.3 2 .3 0-.3-.9-1.3-2s-2-2-2.3-2c-.3 0 .3.9 1.3 2zm-180 12c1 1.1 2 2 2.3 2 .3 0-.3-.9-1.3-2s-2-2-2.3-2c-.3 0 .3.9 1.3 2zm166 6c1 1.1 2 2 2.3 2 .3 0-.3-.9-1.3-2s-2-2-2.3-2c-.3 0 .3.9 1.3 2zm-326 6c1 1.1 2 2 2.3 2 .3 0-.3-.9-1.3-2s-2-2-2.3-2c-.3 0 .3.9 1.3 2zm307.9.2-1.9 2.3 2.3-1.9c1.2-1.1 2.2-2.1 2.2-2.3 0-.8-.8-.2-2.6 1.9zm24.1-.2c1 1.1 2 2 2.3 2 .3 0-.3-.9-1.3-2s-2-2-2.3-2c-.3 0 .3.9 1.3 2zm-328 6c1 1.1 2 2 2.3 2 .3 0-.3-.9-1.3-2s-2-2-2.3-2c-.3 0 .3.9 1.3 2zm274 18c1 1.1 2 2 2.3 2 .3 0-.3-.9-1.3-2s-2-2-2.3-2c-.3 0 .3.9 1.3 2zm-254.1 6.2-1.9 2.3 2.3-1.9c2.1-1.8 2.7-2.6 1.9-2.6-.2 0-1.2 1-2.3 2.2zm100 6-1.9 2.3 2.3-1.9c2.1-1.8 2.7-2.6 1.9-2.6-.2 0-1.2 1-2.3 2.2zm64.1-.2c1 1.1 2 2 2.3 2 .3 0-.3-.9-1.3-2s-2-2-2.3-2c-.3 0 .3.9 1.3 2zm-138 6c1 1.1 2 2 2.3 2 .3 0-.3-.9-1.3-2s-2-2-2.3-2c-.3 0 .3.9 1.3 2zm-16 6c1 1.1 2 2 2.3 2 .3 0-.3-.9-1.3-2s-2-2-2.3-2c-.3 0 .3.9 1.3 2zm6 6c1 1.1 2 2 2.3 2 .3 0-.3-.9-1.3-2s-2-2-2.3-2c-.3 0 .3.9 1.3 2zm227.9.2-1.9 2.3 2.3-1.9c1.2-1.1 2.2-2.1 2.2-2.3 0-.8-.8-.2-2.6 1.9zM148.5 359c1 1.1 2 2 2.3 2 .3 0-.3-.9-1.3-2s-2-2-2.3-2c-.3 0 .3.9 1.3 2zm180 0c1 1.1 2 2 2.3 2 .3 0-.3-.9-1.3-2s-2-2-2.3-2c-.3 0 .3.9 1.3 2zm-176 6c1 1.1 2 2 2.3 2 .3 0-.3-.9-1.3-2s-2-2-2.3-2c-.3 0 .3.9 1.3 2zm281.9.2-1.9 2.3 2.3-1.9c1.2-1.1 2.2-2.1 2.2-2.3 0-.8-.8-.2-2.6 1.9zM158.5 371c1 1.1 2 2 2.3 2 .3 0-.3-.9-1.3-2s-2-2-2.3-2c-.3 0 .3.9 1.3 2zm265.9 6.2-1.9 2.3 2.3-1.9c1.2-1.1 2.2-2.1 2.2-2.3 0-.8-.8-.2-2.6 1.9zM274.5 383c1 1.1 2 2 2.3 2 .3 0-.3-.9-1.3-2s-2-2-2.3-2c-.3 0 .3.9 1.3 2zm143.9.2-1.9 2.3 2.3-1.9c1.2-1.1 2.2-2.1 2.2-2.3 0-.8-.8-.2-2.6 1.9zM212.5 461c1 1.1 2 2 2.3 2 .3 0-.3-.9-1.3-2s-2-2-2.3-2c-.3 0 .3.9 1.3 2zm163.9.2-1.9 2.3 2.3-1.9c2.1-1.8 2.7-2.6 1.9-2.6-.2 0-1.2 1-2.3 2.2zm-82.4 7.2c.7.7 1.3.7 2 0 .6-.6.3-1-1-1s-1.6.4-1 1zM190.5 485c1 1.1 2 2 2.3 2 .3 0-.3-.9-1.3-2s-2-2-2.3-2c-.3 0 .3.9 1.3 2zm147.9.2-1.9 2.3 2.3-1.9c2.1-1.8 2.7-2.6 1.9-2.6-.2 0-1.2 1-2.3 2.2zm-55.9 5.8c1 1.1 2 2 2.3 2 .3 0-.3-.9-1.3-2s-2-2-2.3-2c-.3 0 .3.9 1.3 2zm107.9 6.2-1.9 2.3 2.3-1.9c2.1-1.8 2.7-2.6 1.9-2.6-.2 0-1.2 1-2.3 2.2zM212.5 503c1 1.1 2 2 2.3 2 .3 0-.3-.9-1.3-2s-2-2-2.3-2c-.3 0 .3.9 1.3 2zm131.9.2-1.9 2.3 2.3-1.9c2.1-1.8 2.7-2.6 1.9-2.6-.2 0-1.2 1-2.3 2.2zm-4 6-1.9 2.3 2.3-1.9c2.1-1.8 2.7-2.6 1.9-2.6-.2 0-1.2 1-2.3 2.2zm36 0-1.9 2.3 2.3-1.9c2.1-1.8 2.7-2.6 1.9-2.6-.2 0-1.2 1-2.3 2.2zM226.5 515c1 1.1 2 2 2.3 2 .3 0-.3-.9-1.3-2s-2-2-2.3-2c-.3 0 .3.9 1.3 2zm135.9 6.2-1.9 2.3 2.3-1.9c1.2-1.1 2.2-2.1 2.2-2.3 0-.8-.8-.2-2.6 1.9zM240.5 527c1 1.1 2 2 2.3 2 .3 0-.3-.9-1.3-2s-2-2-2.3-2c-.3 0 .3.9 1.3 2zm6 6c1 1.1 2 2 2.3 2 .3 0-.3-.9-1.3-2s-2-2-2.3-2c-.3 0 .3.9 1.3 2zm93.9 6.2-1.9 2.3 2.3-1.9c1.2-1.1 2.2-2.1 2.2-2.3 0-.8-.8-.2-2.6 1.9z" fill="#FFF" fill-opacity=".18"/><path d="M289.3 58.7c2.6.2 6.8.2 9.5 0 2.6-.2.4-.3-4.8-.3s-7.4.1-4.7.3zm-20 2c2.6.2 6.8.2 9.5 0 2.6-.2.4-.3-4.8-.3s-7.4.1-4.7.3zm44.5 0c2.8.2 7.6.2 10.5 0 2.8-.2.5-.3-5.3-.3s-8.1.1-5.2.3zm-69.5 4c.9.2 2.5.2 3.5 0 .9-.3.1-.5-1.8-.5-1.9 0-2.7.2-1.7.5zm104 0c.9.2 2.5.2 3.5 0 .9-.3.1-.5-1.8-.5-1.9 0-2.7.2-1.7.5zm-112 2c.9.2 2.5.2 3.5 0 .9-.3.1-.5-1.8-.5-1.9 0-2.7.2-1.7.5zm120 0c.9.2 2.5.2 3.5 0 .9-.3.1-.5-1.8-.5-1.9 0-2.7.2-1.7.5zm13.5 4c.6.2 1.8.2 2.5 0 .6-.3.1-.5-1.3-.5-1.4 0-1.9.2-1.2.5zm-252 24c.6.2 1.8.2 2.5 0 .6-.3.1-.5-1.3-.5-1.4 0-1.9.2-1.2.5zm11 2c3.4.2 9 .2 12.5 0 3.4-.2.6-.3-6.3-.3-6.9 0-9.7.1-6.2.3zm99 16c.6.2 1.8.2 2.5 0 .6-.3.1-.5-1.3-.5-1.4 0-1.9.2-1.2.5zm14 0c.6.2 1.8.2 2.5 0 .6-.3.1-.5-1.3-.5-1.4 0-1.9.2-1.2.5zm128 2c1.7.2 4.7.2 6.5 0 1.7-.2.3-.4-3.3-.4-3.6 0-5 .2-3.2.4zm-314 4c.6.2 1.8.2 2.5 0 .6-.3.1-.5-1.3-.5-1.4 0-1.9.2-1.2.5zm13 2c3.4.2 9 .2 12.5 0 3.4-.2.6-.3-6.3-.3-6.9 0-9.7.1-6.2.3zm64.5 0c1.5.2 3.9.2 5.5 0 1.5-.2.2-.4-2.8-.4s-4.3.2-2.7.4zm332 0c1.5.2 3.9.2 5.5 0 1.5-.2.2-.4-2.8-.4s-4.3.2-2.7.4zm-45.5 4c.6.2 1.8.2 2.5 0 .6-.3.1-.5-1.3-.5-1.4 0-1.9.2-1.2.5zm30 0c.6.2 1.8.2 2.5 0 .6-.3.1-.5-1.3-.5-1.4 0-1.9.2-1.2.5zm-95.5 6c.9.2 2.5.2 3.5 0 .9-.3.1-.5-1.8-.5-1.9 0-2.7.2-1.7.5zm-252 6c.9.2 2.5.2 3.5 0 .9-.3.1-.5-1.8-.5-1.9 0-2.7.2-1.7.5zm373.5 6c.6.2 1.8.2 2.5 0 .6-.3.1-.5-1.3-.5-1.4 0-1.9.2-1.2.5zm-208 8c.6.2 1.8.2 2.5 0 .6-.3.1-.5-1.3-.5-1.4 0-1.9.2-1.2.5zm76 6c.6.2 1.8.2 2.5 0 .6-.3.1-.5-1.3-.5-1.4 0-1.9.2-1.2.5zm124 10c.6.2 1.8.2 2.5 0 .6-.3.1-.5-1.3-.5-1.4 0-1.9.2-1.2.5zm-339 6c1.2.2 3.2.2 4.5 0 1.2-.2.2-.4-2.3-.4s-3.5.2-2.2.4zm125 0c.6.2 1.8.2 2.5 0 .6-.3.1-.5-1.3-.5-1.4 0-1.9.2-1.2.5zm8.5 0c.9.2 2.5.2 3.5 0 .9-.3.1-.5-1.8-.5-1.9 0-2.7.2-1.7.5zm75.5 0c.6.2 1.8.2 2.5 0 .6-.3.1-.5-1.3-.5-1.4 0-1.9.2-1.2.5zm14.5 6c.9.2 2.5.2 3.5 0 .9-.3.1-.5-1.8-.5-1.9 0-2.7.2-1.7.5zm-138.5 6c.6.2 1.8.2 2.5 0 .6-.3.1-.5-1.3-.5-1.4 0-1.9.2-1.2.5zm170 0c.6.2 1.8.2 2.5 0 .6-.3.1-.5-1.3-.5-1.4 0-1.9.2-1.2.5zm-224 2c.6.2 1.8.2 2.5 0 .6-.3.1-.5-1.3-.5-1.4 0-1.9.2-1.2.5zm61 0c1.2.2 3.2.2 4.5 0 1.2-.2.2-.4-2.3-.4s-3.5.2-2.2.4zm-73 4c.6.2 1.8.2 2.5 0 .6-.3.1-.5-1.3-.5-1.4 0-1.9.2-1.2.5zm326 0c.6.2 1.8.2 2.5 0 .6-.3.1-.5-1.3-.5-1.4 0-1.9.2-1.2.5zm-418 6c.6.2 1.8.2 2.5 0 .6-.3.1-.5-1.3-.5-1.4 0-1.9.2-1.2.5zm188.5 0c.9.2 2.5.2 3.5 0 .9-.3.1-.5-1.8-.5-1.9 0-2.7.2-1.7.5zm100 0c3.1.2 8.3.2 11.5 0 3.1-.2.5-.3-5.8-.3s-8.9.1-5.7.3zm-281 2c1.5.2 3.9.2 5.5 0 1.5-.2.2-.4-2.8-.4s-4.3.2-2.7.4zm192 0c2.6.2 6.8.2 9.5 0 2.6-.2.4-.3-4.8-.3s-7.4.1-4.7.3zm-159.5 4c.6.2 1.8.2 2.5 0 .6-.3.1-.5-1.3-.5-1.4 0-1.9.2-1.2.5zm8.5 2c.9.2 2.5.2 3.5 0 .9-.3.1-.5-1.8-.5-1.9 0-2.7.2-1.7.5zm393 0c1.5.2 3.9.2 5.5 0 1.5-.2.2-.4-2.8-.4s-4.3.2-2.7.4zm-209.5 6c.6.2 1.8.2 2.5 0 .6-.3.1-.5-1.3-.5-1.4 0-1.9.2-1.2.5zm192 4c.6.2 1.8.2 2.5 0 .6-.3.1-.5-1.3-.5-1.4 0-1.9.2-1.2.5zm46.5 0c2 .2 5.4.2 7.5 0 2-.2.3-.4-3.8-.4s-5.8.2-3.7.4zm-80 2c2 .2 5.4.2 7.5 0 2-.2.3-.4-3.8-.4s-5.8.2-3.7.4zm21 0c1.5.2 3.9.2 5.5 0 1.5-.2.2-.4-2.8-.4s-4.3.2-2.7.4zm-165.5 18c.6.2 1.8.2 2.5 0 .6-.3.1-.5-1.3-.5-1.4 0-1.9.2-1.2.5zm-99.5 10c1.5.2 3.7.2 5 0 1.2-.2 0-.4-2.8-.4-2.7 0-3.8.2-2.2.4zm155 6c1.5.2 3.9.2 5.5 0 1.5-.2.2-.4-2.8-.4s-4.3.2-2.7.4zm37.5 0c1.2.2 3.2.2 4.5 0 1.2-.2.2-.4-2.3-.4s-3.5.2-2.2.4zm-48 2c1.2.2 3.2.2 4.5 0 1.2-.2.2-.4-2.3-.4s-3.5.2-2.2.4zm57 0c.6.2 1.8.2 2.5 0 .6-.3.1-.5-1.3-.5-1.4 0-1.9.2-1.2.5zm112.5 12c.9.2 2.5.2 3.5 0 .9-.3.1-.5-1.8-.5-1.9 0-2.7.2-1.7.5zm-21.5 10c1.2.2 3.2.2 4.5 0 1.2-.2.2-.4-2.3-.4s-3.5.2-2.2.4zm-179 2c.6.2 1.8.2 2.5 0 .6-.3.1-.5-1.3-.5-1.4 0-1.9.2-1.2.5zm-89 64c2.3.2 6.1.2 8.5 0 2.3-.2.4-.4-4.3-.4s-6.6.2-4.2.4zm123 0c.6.2 1.8.2 2.5 0 .6-.3.1-.5-1.3-.5-1.4 0-1.9.2-1.2.5zm-140.5 2c1.5.2 3.9.2 5.5 0 1.5-.2.2-.4-2.8-.4s-4.3.2-2.7.4zm156 0c5.3.2 14.1.2 19.5 0 5.3-.1.9-.3-9.8-.3-10.7 0-15.1.2-9.7.3zm-116 10c1.5.2 3.9.2 5.5 0 1.5-.2.2-.4-2.8-.4s-4.3.2-2.7.4zm145.5 0c1.2.2 3 .2 4 0 .9-.3-.1-.5-2.3-.4-2.2 0-3 .2-1.7.4zm-194.5 2c.9.2 2.5.2 3.5 0 .9-.3.1-.5-1.8-.5-1.9 0-2.7.2-1.7.5zm35 0c1.5.2 3.9.2 5.5 0 1.5-.2.2-.4-2.8-.4s-4.3.2-2.7.4zm101 0c.9.2 2.5.2 3.5 0 .9-.3.1-.5-1.8-.5-1.9 0-2.7.2-1.7.5zm46.5 0c1.2.2 3.2.2 4.5 0 1.2-.2.2-.4-2.3-.4s-3.5.2-2.2.4zm-87 28c.6.2 1.8.2 2.5 0 .6-.3.1-.5-1.3-.5-1.4 0-1.9.2-1.2.5zm-44.5 68c1.5.2 3.9.2 5.5 0 1.5-.2.2-.4-2.8-.4s-4.3.2-2.7.4zm14.5 0c.6.2 1.8.2 2.5 0 .6-.3.1-.5-1.3-.5-1.4 0-1.9.2-1.2.5zm138.4 4.3c0 1.4.2 1.9.5 1.2.2-.6.2-1.8 0-2.5-.3-.6-.5-.1-.5 1.3zm-182.4 11.7c.6.2 1.8.2 2.5 0 .6-.3.1-.5-1.3-.5-1.4 0-1.9.2-1.2.5zm6 2c.6.2 1.8.2 2.5 0 .6-.3.1-.5-1.3-.5-1.4 0-1.9.2-1.2.5zm123 4c1.2.2 3.2.2 4.5 0 1.2-.2.2-.4-2.3-.4s-3.5.2-2.2.4zm-93 14c1.2.2 3 .2 4 0 .9-.3-.1-.5-2.3-.4-2.2 0-3 .2-1.7.4zm58.5 0c.9.2 2.5.2 3.5 0 .9-.3.1-.5-1.8-.5-1.9 0-2.7.2-1.7.5zm-56.5 28c.6.2 1.8.2 2.5 0 .6-.3.1-.5-1.3-.5-1.4 0-1.9.2-1.2.5zm4 30c.6.2 1.8.2 2.5 0 .6-.3.1-.5-1.3-.5-1.4 0-1.9.2-1.2.5zm51.5 2c2.6.2 6.8.2 9.5 0 2.6-.2.4-.3-4.8-.3s-7.4.1-4.7.3zm-59-503c1.5.2 3.7.2 5 0 1.2-.2 0-.4-2.8-.4-2.7 0-3.8.2-2.2.4zm89 0c1.5.2 3.9.2 5.5 0 1.5-.2.2-.4-2.8-.4s-4.3.2-2.7.4zm104.5 0c.6.2 1.8.2 2.5 0 .6-.3.1-.5-1.3-.5-1.4 0-1.9.2-1.2.5zm6.3 4.9c0 1.1.3 1.4.6.6.3-.7.2-1.6-.1-1.9-.3-.4-.6.2-.5 1.3zm-318.8 4.9c0 2.7.2 3.8.4 2.2.2-1.5.2-3.7 0-5-.2-1.2-.4 0-.4 2.8zm94.5-3.8c.6.2 1.8.2 2.5 0 .6-.3.1-.5-1.3-.5-1.4 0-1.9.2-1.2.5zM458.4 63c0 5.8.1 8.1.3 5.2.2-2.8.2-7.6 0-10.5-.2-2.8-.3-.5-.3 5.3zm-319.3-.4c0 1.1.3 1.4.6.6.3-.7.2-1.6-.1-1.9-.3-.4-.6.2-.5 1.3zm346.7-.9c.6.2 1.8.2 2.5 0 .6-.3.1-.5-1.3-.5-1.4 0-1.9.2-1.2.5zm-230.5 1c1.5.2 3.9.2 5.5 0 1.5-.2.2-.4-2.8-.4s-4.3.2-2.7.4zm80 0c1.5.2 3.9.2 5.5 0 1.5-.2.2-.4-2.8-.4s-4.3.2-2.7.4zm-19 3.8c0 2.2.2 3 .4 1.7.2-1.2.2-3 0-4-.3-.9-.5.1-.4 2.3zm-175.2 2.1c0 1.1.3 1.4.6.6.3-.7.2-1.6-.1-1.9-.3-.4-.6.2-.5 1.3zm127.2-.9c.9.2 2.5.2 3.5 0 .9-.3.1-.5-1.8-.5-1.9 0-2.7.2-1.7.5zm69.5 0c.6.2 1.8.2 2.5 0 .6-.3.1-.5-1.3-.5-1.4 0-1.9.2-1.2.5zm26 1c.6.2 1.8.2 2.5 0 .6-.3.1-.5-1.3-.5-1.4 0-1.9.2-1.2.5zM265.3 74c0 3 .2 4.3.4 2.7.2-1.5.2-3.9 0-5.5-.2-1.5-.4-.2-.4 2.8zm224.9-3c0 1.4.2 1.9.5 1.2.2-.6.2-1.8 0-2.5-.3-.6-.5-.1-.5 1.3zm-155.1 1.6c0 1.1.3 1.4.6.6.3-.7.2-1.6-.1-1.9-.3-.4-.6.2-.5 1.3zm-156.8 4.3c.1 1.4.9 2.6 1.7 2.8 1 .3 1.1.2.4-.4-.7-.4-1.4-1.7-1.7-2.8-.5-1.6-.5-1.5-.4.4zm140.1 7.6c0 5.5.1 7.6.3 4.7.2-2.9.2-7.4 0-10-.2-2.6-.3-.2-.3 5.3zM456.2 77c0 1.4.2 1.9.5 1.2.2-.6.2-1.8 0-2.5-.3-.6-.5-.1-.5 1.3zm-155.1 1.6c0 1.1.3 1.4.6.6.3-.7.2-1.6-.1-1.9-.3-.4-.6.2-.5 1.3zm36 0c0 1.1.3 1.4.6.6.3-.7.2-1.6-.1-1.9-.3-.4-.6.2-.5 1.3zM299.4 92c0 5.2.1 7.4.3 4.7.2-2.6.2-6.8 0-9.5-.2-2.6-.3-.4-.3 4.8zm226.4-6.3c1.7.2 4.7.2 6.5 0 1.7-.2.3-.4-3.3-.4-3.6 0-5 .2-3.2.4zM294.2 89c0 1.4.2 1.9.5 1.2.2-.6.2-1.8 0-2.5-.3-.6-.5-.1-.5 1.3zm70 1c0 1.9.2 2.7.5 1.7.2-.9.2-2.5 0-3.5-.3-.9-.5-.1-.5 1.8zm-216 1.5c0 1.6.2 2.2.5 1.2.2-.9.2-2.3 0-3-.3-.6-.5.1-.5 1.8zM540.3 93c0 2.5.2 3.5.4 2.2.2-1.2.2-3.2 0-4.5-.2-1.2-.4-.2-.4 2.3zM76.8 91.7c1.2.2 3.2.2 4.5 0 1.2-.2.2-.4-2.3-.4s-3.5.2-2.2.4zM214.2 94c0 1.9.2 2.7.5 1.7.2-.9.2-2.5 0-3.5-.3-.9-.5-.1-.5 1.8zm82.1 2.5c0 2.2.2 3 .4 1.7.2-1.2.2-3 0-4-.3-.9-.5.1-.4 2.3zm-20.5 1.2c.6.2 1.8.2 2.5 0 .6-.3.1-.5-1.3-.5-1.4 0-1.9.2-1.2.5zm54 0c.6.2 1.8.2 2.5 0 .6-.3.1-.5-1.3-.5-1.4 0-1.9.2-1.2.5zm148 0c1.7.2 4.7.2 6.5 0 1.7-.2.3-.4-3.3-.4-3.6 0-5 .2-3.2.4zm-12 1c.7.3 1.6.2 1.9-.1.4-.3-.2-.6-1.3-.5-1.1 0-1.4.3-.6.6zm72.5 3.8c0 2.2.2 3 .4 1.7.2-1.2.2-3 0-4-.3-.9-.5.1-.4 2.3zm-377.2.1c0 1.1.3 1.4.6.6.3-.7.2-1.6-.1-1.9-.3-.4-.6.2-.5 1.3zm30.3 8.4c0 5.8.1 8.1.3 5.2.2-2.8.2-7.6 0-10.5-.2-2.8-.3-.5-.3 5.3zm221.9-6c0 2.5.2 3.5.4 2.2.2-1.2.2-3.2 0-4.5-.2-1.2-.4-.2-.4 2.3zm-227.2-.4c0 1.1.3 1.4.6.6.3-.7.2-1.6-.1-1.9-.3-.4-.6.2-.5 1.3zm108.1 1.4c0 1.9.2 2.7.5 1.7.2-.9.2-2.5 0-3.5-.3-.9-.5-.1-.5 1.8zm13.6-1.3c.6.2 1.8.2 2.5 0 .6-.3.1-.5-1.3-.5-1.4 0-1.9.2-1.2.5zm-203.6 2.8c0 1.6.2 2.2.5 1.2.2-.9.2-2.3 0-3-.3-.6-.5.1-.5 1.8zm-53 4.5c0 1.9.2 2.7.5 1.7.2-.9.2-2.5 0-3.5-.3-.9-.5-.1-.5 1.8zm137-1c0 1.4.2 1.9.5 1.2.2-.6.2-1.8 0-2.5-.3-.6-.5-.1-.5 1.3zm46.1-.3c.9.2 2.5.2 3.5 0 .9-.3.1-.5-1.8-.5-1.9 0-2.7.2-1.7.5zm252.5 0c.7.3 1.6.2 1.9-.1.4-.3-.2-.6-1.3-.5-1.1 0-1.4.3-.6.6zm-75.5 4.3c0 2.5.2 3.5.4 2.2.2-1.2.2-3.2 0-4.5-.2-1.2-.4-.2-.4 2.3zm80.9-1.6c.7.8 1.5 1.2 1.7 1.1.5-.6-1-2.5-2-2.5-.5 0-.4.6.3 1.4zm-194 6.1c0 1.6.2 2.2.5 1.2.2-.9.2-2.3 0-3-.3-.6-.5.1-.5 1.8zm158.1 3.2c.9.2 2.5.2 3.5 0 .9-.3.1-.5-1.8-.5-1.9 0-2.7.2-1.7.5zm65.5 0c.6.2 1.8.2 2.5 0 .6-.3.1-.5-1.3-.5-1.4 0-1.9.2-1.2.5zm-303.6 2.8c0 1.6.2 2.2.5 1.2.2-.9.2-2.3 0-3-.3-.6-.5.1-.5 1.8zm89.1 1c0 2.2.2 3 .4 1.7.2-1.2.2-3 0-4-.3-.9-.5.1-.4 2.3zm18.9-1c0 1.6.2 2.2.5 1.2.2-.9.2-2.3 0-3-.3-.6-.5.1-.5 1.8zm-43.1 1.1c0 1.1.3 1.4.6.6.3-.7.2-1.6-.1-1.9-.3-.4-.6.2-.5 1.3zm106 0c0 1.1.3 1.4.6.6.3-.7.2-1.6-.1-1.9-.3-.4-.6.2-.5 1.3zm34.2 3.4c0 3 .2 4.3.4 2.7.2-1.5.2-3.9 0-5.5-.2-1.5-.4-.2-.4 2.8zm-294.5-2.3c1.2.2 3.2.2 4.5 0 1.2-.2.2-.4-2.3-.4s-3.5.2-2.2.4zm20.5 2.8c0 2.2.2 3 .4 1.7.2-1.2.2-3 0-4-.3-.9-.5.1-.4 2.3zm80 0c0 2.2.2 3 .4 1.7.2-1.2.2-3 0-4-.3-.9-.5.1-.4 2.3zm71 1.5c0 3 .2 4.3.4 2.7.2-1.5.2-3.9 0-5.5-.2-1.5-.4-.2-.4 2.8zm75.8-3.4c0 1.1.3 1.4.6.6.3-.7.2-1.6-.1-1.9-.3-.4-.6.2-.5 1.3zm80.2-.9c.9.2 2.5.2 3.5 0 .9-.3.1-.5-1.8-.5-1.9 0-2.7.2-1.7.5zm-203 1c1.5.2 3.9.2 5.5 0 1.5-.2.2-.4-2.8-.4s-4.3.2-2.7.4zm133.9 4.8c0 1.6.2 2.2.5 1.2.2-.9.2-2.3 0-3-.3-.6-.5.1-.5 1.8zm30.9-.9c0 1.1.3 1.4.6.6.3-.7.2-1.6-.1-1.9-.3-.4-.6.2-.5 1.3zm23.9-.7c0 1 1.9 2.5 2.5 2 .1-.2-.3-1-1.1-1.7s-1.4-.8-1.4-.3zm-176.9 2.7c0 1.1.3 1.4.6.6.3-.7.2-1.6-.1-1.9-.3-.4-.6.2-.5 1.3zm228.7.1c.6.2 1.8.2 2.5 0 .6-.3.1-.5-1.3-.5-1.4 0-1.9.2-1.2.5zm-188.5 5.8c0 3.3.2 4.5.4 2.7.2-1.8.2-4.5 0-6s-.4 0-.4 3.3zm36.9-3.5c0 1.4.2 1.9.5 1.2.2-.6.2-1.8 0-2.5-.3-.6-.5-.1-.5 1.3zm182 0c0 1.4.2 1.9.5 1.2.2-.6.2-1.8 0-2.5-.3-.6-.5-.1-.5 1.3zm-417.1 1.6c0 1.1.3 1.4.6.6.3-.7.2-1.6-.1-1.9-.3-.4-.6.2-.5 1.3zm313 1.9c.1 2.2.4 6.5.9 9.5l.7 5.5.1-8c.1-4.4-.3-8.7-.8-9.5-.7-1.1-.9-.4-.9 2.5zm-43.9 1.5c0 1.9.2 2.7.5 1.7.2-.9.2-2.5 0-3.5-.3-.9-.5-.1-.5 1.8zm128.8-1.6c0 .2.7.7 1.6 1 .8.3 1.2.2.9-.4-.6-1-2.5-1.4-2.5-.6zM302.2 143c0 1.4.2 1.9.5 1.2.2-.6.2-1.8 0-2.5-.3-.6-.5-.1-.5 1.3zM67.4 157.5c0 8.2.2 11.5.3 7.2.2-4.3.2-11 0-15-.1-4-.3-.5-.3 7.8zM171.3 147c0 2.5.2 3.5.4 2.2.2-1.2.2-3.2 0-4.5-.2-1.2-.4-.2-.4 2.3zm33 .5c0 2.7.2 3.8.4 2.2.2-1.5.2-3.7 0-5-.2-1.2-.4 0-.4 2.8zm322.1 3 .1 7 3.5.1c3.4.2 3.4.2.3-.3-3.2-.4-3.2-.4-3.6-7.1l-.3-6.7v7zm-54.1-2c0 2.2.2 3 .4 1.7.2-1.2.2-3 0-4-.3-.9-.5.1-.4 2.3zm26 3.5c0 4.1.2 5.8.4 3.7.2-2 .2-5.4 0-7.5-.2-2-.4-.3-.4 3.8zm11-1c0 3.6.2 5 .4 3.2.2-1.7.2-4.7 0-6.5-.2-1.7-.4-.3-.4 3.3zm39-5.3c.9.2 2.5.2 3.5 0 .9-.3.1-.5-1.8-.5-1.9 0-2.7.2-1.7.5zm-65.1 3.3c0 1.4.2 1.9.5 1.2.2-.6.2-1.8 0-2.5-.3-.6-.5-.1-.5 1.3zm-82 2.5c0 1.6.2 2.2.5 1.2.2-.9.2-2.3 0-3-.3-.6-.5.1-.5 1.8zm17 0c0 1.6.2 2.2.5 1.2.2-.9.2-2.3 0-3-.3-.6-.5.1-.5 1.8zm-300.1 1.1c0 1.1.3 1.4.6.6.3-.7.2-1.6-.1-1.9-.3-.4-.6.2-.5 1.3zm336.2 2.9c0 2.7.2 3.8.4 2.2.2-1.5.2-3.7 0-5-.2-1.2-.4 0-.4 2.8zM88.2 155c0 1.4.2 1.9.5 1.2.2-.6.2-1.8 0-2.5-.3-.6-.5-.1-.5 1.3zm8.9 1.6c0 1.1.3 1.4.6.6.3-.7.2-1.6-.1-1.9-.3-.4-.6.2-.5 1.3zm459 0c0 1.1.3 1.4.6.6.3-.7.2-1.6-.1-1.9-.3-.4-.6.2-.5 1.3zm-433.8 1.1c.9.2 2.5.2 3.5 0 .9-.3.1-.5-1.8-.5-1.9 0-2.7.2-1.7.5zm293.8.9c0 1.1.3 1.4.6.6.3-.7.2-1.6-.1-1.9-.3-.4-.6.2-.5 1.3zm61.7-.9c.6.2 1.8.2 2.5 0 .6-.3.1-.5-1.3-.5-1.4 0-1.9.2-1.2.5zM86.2 161c0 1.4.2 1.9.5 1.2.2-.6.2-1.8 0-2.5-.3-.6-.5-.1-.5 1.3zm333.1 2c0 2.5.2 3.5.4 2.2.2-1.2.2-3.2 0-4.5-.2-1.2-.4-.2-.4 2.3zm-324.1.5c0 1.6.2 2.2.5 1.2.2-.9.2-2.3 0-3-.3-.6-.5.1-.5 1.8zm121-.9c-.7.8-.8 1.4-.3 1.4 1 0 2.5-1.9 2-2.5-.2-.1-1 .3-1.7 1.1zm105.9 1.1c0 2.5.1 2.6.9.8 1.2-2.7 1.2-3.5 0-3.5-.5 0-1 1.2-.9 2.7zM190.2 166c0 1.9.2 2.7.5 1.7.2-.9.2-2.5 0-3.5-.3-.9-.5-.1-.5 1.8zm199.6-2.3c.6.2 1.8.2 2.5 0 .6-.3.1-.5-1.3-.5-1.4 0-1.9.2-1.2.5zm84.8 3.6c.3 1 .9 1.5 1.2 1.2.3-.3 0-1.1-.7-1.8-1-.9-1.1-.8-.5.6zm-386.5 1.3c0 1.1.3 1.4.6.6.3-.7.2-1.6-.1-1.9-.3-.4-.6.2-.5 1.3zm212.2 3.9c0 2.2.2 3 .4 1.7.2-1.2.2-3 0-4-.3-.9-.5.1-.4 2.3zm-57.5-1.8c1.2.2 3.2.2 4.5 0 1.2-.2.2-.4-2.3-.4s-3.5.2-2.2.4zm174.5 5.8c0 3.3.2 4.5.4 2.7.2-1.8.2-4.5 0-6s-.4 0-.4 3.3zm-229.2-1.9c0 1.1.3 1.4.6.6.3-.7.2-1.6-.1-1.9-.3-.4-.6.2-.5 1.3zm152.9-.8c0 .7-1 1.3-2.2 1.3-1.9.1-2 .2-.4.6 2 .5 4.4-1.2 3.3-2.4-.4-.3-.7-.1-.7.5zm95.2 1.7c0 1.6.2 2.2.5 1.2.2-.9.2-2.3 0-3-.3-.6-.5.1-.5 1.8zm-305.9.2c2 .2 5.4.2 7.5 0 2-.2.3-.4-3.8-.4s-5.8.2-3.7.4zm395.8.9c0 1.1.3 1.4.6.6.3-.7.2-1.6-.1-1.9-.3-.4-.6.2-.5 1.3zm-166.3.1c.6.2 1.8.2 2.5 0 .6-.3.1-.5-1.3-.5-1.4 0-1.9.2-1.2.5zm146.6.7c-.3.8-.4 2.3-.1 3.3.3 1.2.5.9.6-.9 0-1.4.7-2.9 1.4-3.1.9-.4.9-.6-.1-.6-.7-.1-1.5.5-1.8 1.3zm24.4-.7c1.2.2 3.2.2 4.5 0 1.2-.2.2-.4-2.3-.4s-3.5.2-2.2.4zM202.2 179c0 1.4.2 1.9.5 1.2.2-.6.2-1.8 0-2.5-.3-.6-.5-.1-.5 1.3zm-99.2.8c0 .7-1 1.3-2.2 1.3-1.9.1-2 .2-.4.6 2 .5 4.4-1.2 3.3-2.4-.4-.3-.7-.1-.7.5zm83.1.8c0 1.1.3 1.4.6.6.3-.7.2-1.6-.1-1.9-.3-.4-.6.2-.5 1.3zm325 0c0 1.1.3 1.4.6.6.3-.7.2-1.6-.1-1.9-.3-.4-.6.2-.5 1.3zm-253.8 1.1c1.5.2 3.9.2 5.5 0 1.5-.2.2-.4-2.8-.4s-4.3.2-2.7.4zm92 0c1.5.2 3.9.2 5.5 0 1.5-.2.2-.4-2.8-.4s-4.3.2-2.7.4zm65 3.8c0 2.7.2 3.8.4 2.2.2-1.5.2-3.7 0-5-.2-1.2-.4 0-.4 2.8zm-22-2.8c.9.2 2.5.2 3.5 0 .9-.3.1-.5-1.8-.5-1.9 0-2.7.2-1.7.5zm-203 7.3c0 3 .2 4.3.4 2.7.2-1.5.2-3.9 0-5.5-.2-1.5-.4-.2-.4 2.8zm15.1 10c0 8.5.2 12 .3 7.7.2-4.2.2-11.2 0-15.5-.1-4.2-.3-.7-.3 7.8zm202.7-13.4c0 1.1.3 1.4.6.6.3-.7.2-1.6-.1-1.9-.3-.4-.6.2-.5 1.3zm12 0c0 1.1.3 1.4.6.6.3-.7.2-1.6-.1-1.9-.3-.4-.6.2-.5 1.3zm-265.3 2.1c.6.2 1.8.2 2.5 0 .6-.3.1-.5-1.3-.5-1.4 0-1.9.2-1.2.5zM76.2 191c0 1.4.2 1.9.5 1.2.2-.6.2-1.8 0-2.5-.3-.6-.5-.1-.5 1.3zm246 0c0 1.4.2 1.9.5 1.2.2-.6.2-1.8 0-2.5-.3-.6-.5-.1-.5 1.3zm-113 2c0 1.4.2 1.9.5 1.2.2-.6.2-1.8 0-2.5-.3-.6-.5-.1-.5 1.3zm196.1 2c0 2.5.2 3.5.4 2.2.2-1.2.2-3.2 0-4.5-.2-1.2-.4-.2-.4 2.3zm113-3c.2.8 1.4 1.6 2.8 1.7 1.9.1 2 .1.4-.4-1.1-.3-2.4-1-2.8-1.7-.6-.7-.7-.6-.4.4zm-139 5c0 2.5.2 3.5.4 2.2.2-1.2.2-3.2 0-4.5-.2-1.2-.4-.2-.4 2.3zm74.5-3.3c.6.2 1.8.2 2.5 0 .6-.3.1-.5-1.3-.5-1.4 0-1.9.2-1.2.5zm-122 1c.6.2 1.8.2 2.5 0 .6-.3.1-.5-1.3-.5-1.4 0-1.9.2-1.2.5zm-50.5 5.3c0 3 .2 4.3.4 2.7.2-1.5.2-3.9 0-5.5-.2-1.5-.4-.2-.4 2.8zm134.9-2.5c0 1.6.2 2.2.5 1.2.2-.9.2-2.3 0-3-.3-.6-.5.1-.5 1.8zm140-.5c0 1.4.2 1.9.5 1.2.2-.6.2-1.8 0-2.5-.3-.6-.5-.1-.5 1.3zm-482.4 2.7c1.7.2 4.7.2 6.5 0 1.7-.2.3-.4-3.3-.4-3.6 0-5 .2-3.2.4zm112.3.9c0 1.1.3 1.4.6.6.3-.7.2-1.6-.1-1.9-.3-.4-.6.2-.5 1.3zm21.2 1.9c0 2.2.2 3 .4 1.7.2-1.2.2-3 0-4-.3-.9-.5.1-.4 2.3zm-116.5-1.8c.7.3 1.6.2 1.9-.1.4-.3-.2-.6-1.3-.5-1.1 0-1.4.3-.6.6zm316.4 2.8c0 1.6.2 2.2.5 1.2.2-.9.2-2.3 0-3-.3-.6-.5.1-.5 1.8zm-317 2c0 1.6.2 2.2.5 1.2.2-.9.2-2.3 0-3-.3-.6-.5.1-.5 1.8zm99.1 2c0 2.7.2 3.8.4 2.2.2-1.5.2-3.7 0-5-.2-1.2-.4 0-.4 2.8zm32.9-2c0 1.6.2 2.2.5 1.2.2-.9.2-2.3 0-3-.3-.6-.5.1-.5 1.8zm195.9-.9c0 1.1.3 1.4.6.6.3-.7.2-1.6-.1-1.9-.3-.4-.6.2-.5 1.3zm-37 2c0 1.1.3 1.4.6.6.3-.7.2-1.6-.1-1.9-.3-.4-.6.2-.5 1.3zM175.2 209c0 1.4.2 1.9.5 1.2.2-.6.2-1.8 0-2.5-.3-.6-.5-.1-.5 1.3zm-68.4 2.7c2.3.2 6.1.2 8.5 0 2.3-.2.4-.4-4.3-.4s-6.6.2-4.2.4zm173 0c.6.2 1.8.2 2.5 0 .6-.3.1-.5-1.3-.5-1.4 0-1.9.2-1.2.5zm238 1c.6.2 1.8.2 2.5 0 .6-.3.1-.5-1.3-.5-1.4 0-1.9.2-1.2.5zm22 0c.6.2 1.8.2 2.5 0 .6-.3.1-.5-1.3-.5-1.4 0-1.9.2-1.2.5zm-366.6 2.8c0 1.6.2 2.2.5 1.2.2-.9.2-2.3 0-3-.3-.6-.5.1-.5 1.8zm235.1 2.5c0 3 .2 4.3.4 2.7.2-1.5.2-3.9 0-5.5-.2-1.5-.4-.2-.4 2.8zm78.8-1.4c0 1.1.3 1.4.6.6.3-.7.2-1.6-.1-1.9-.3-.4-.6.2-.5 1.3zm-309 2c0 1.1.3 1.4.6.6.3-.7.2-1.6-.1-1.9-.3-.4-.6.2-.5 1.3zm44 0c0 1.1.3 1.4.6.6.3-.7.2-1.6-.1-1.9-.3-.4-.6.2-.5 1.3zm235.2 5.9c0 4.4.2 6.1.4 3.7.2-2.3.2-5.9 0-8-.2-2-.4-.1-.4 4.3zm-173.5-5.8c.6.2 1.8.2 2.5 0 .6-.3.1-.5-1.3-.5-1.4 0-1.9.2-1.2.5zM51.2 221c0 1.4.2 1.9.5 1.2.2-.6.2-1.8 0-2.5-.3-.6-.5-.1-.5 1.3zm125 5c0 1.9.2 2.7.5 1.7.2-.9.2-2.5 0-3.5-.3-.9-.5-.1-.5 1.8zm103.6-2.3c.6.2 1.8.2 2.5 0 .6-.3.1-.5-1.3-.5-1.4 0-1.9.2-1.2.5zm36.3.9c0 1.1.3 1.4.6.6.3-.7.2-1.6-.1-1.9-.3-.4-.6.2-.5 1.3zm86.2.1c.9.2 2.5.2 3.5 0 .9-.3.1-.5-1.8-.5-1.9 0-2.7.2-1.7.5zm-353 8.3c0 4.7.2 6.6.4 4.2.2-2.3.2-6.1 0-8.5-.2-2.3-.4-.4-.4 4.3zm227.9-6c0 1.4.2 1.9.5 1.2.2-.6.2-1.8 0-2.5-.3-.6-.5-.1-.5 1.3zm-127.1.6c0 1.1.3 1.4.6.6.3-.7.2-1.6-.1-1.9-.3-.4-.6.2-.5 1.3zm29.7 2.1c.6.2 1.8.2 2.5 0 .6-.3.1-.5-1.3-.5-1.4 0-1.9.2-1.2.5zm252.3.9c0 1.1.3 1.4.6.6.3-.7.2-1.6-.1-1.9-.3-.4-.6.2-.5 1.3zM81.2 237c0 1.4.2 1.9.5 1.2.2-.6.2-1.8 0-2.5-.3-.6-.5-.1-.5 1.3zm277.6-1.3c1.2.2 3.2.2 4.5 0 1.2-.2.2-.4-2.3-.4s-3.5.2-2.2.4zm75.6 17.3c0 10.2.2 14.3.3 9.2.2-5 .2-13.4 0-18.5-.1-5-.3-.9-.3 9.3zm24.7-16.4c0 1.1.3 1.4.6.6.3-.7.2-1.6-.1-1.9-.3-.4-.6.2-.5 1.3zm-169.3.1c.6.2 1.8.2 2.5 0 .6-.3.1-.5-1.3-.5-1.4 0-1.9.2-1.2.5zm-68 6c2.8.2 7.6.2 10.5 0 2.8-.2.5-.3-5.3-.3s-8.1.1-5.2.3zm21.5 0c1.5.2 3.7.2 5 0 1.2-.2 0-.4-2.8-.4-2.7 0-3.8.2-2.2.4zm-163.9 8.8c0 4.9.1 7.1.3 4.8.2-2.3.2-6.4 0-9-.2-2.6-.3-.8-.3 4.2zm454.8-6.5c0 1.4.2 1.9.5 1.2.2-.6.2-1.8 0-2.5-.3-.6-.5-.1-.5 1.3zm-406.9 4c0 2.5.2 3.5.4 2.2.2-1.2.2-3.2 0-4.5-.2-1.2-.4-.2-.4 2.3zm328.8-2.4c0 1.1.3 1.4.6.6.3-.7.2-1.6-.1-1.9-.3-.4-.6.2-.5 1.3zm-82.3 2.1c2.8.2 7.6.2 10.5 0 2.8-.2.5-.3-5.3-.3s-8.1.1-5.2.3zm144.5 0c.9.2 2.5.2 3.5 0 .9-.3.1-.5-1.8-.5-1.9 0-2.7.2-1.7.5zm11.5 0c.6.2 1.8.2 2.5 0 .6-.3.1-.5-1.3-.5-1.4 0-1.9.2-1.2.5zM155.3 253c0 2.5.2 3.5.4 2.2.2-1.2.2-3.2 0-4.5-.2-1.2-.4-.2-.4 2.3zm145.9-2c0 1.4.2 1.9.5 1.2.2-.6.2-1.8 0-2.5-.3-.6-.5-.1-.5 1.3zm5.1-.1c.1 1.4.9 2.6 1.7 2.8 1 .3 1.1.2.4-.4-.7-.4-1.4-1.7-1.7-2.8-.5-1.6-.5-1.5-.4.4zm-17.1 2.1c0 1.4.2 1.9.5 1.2.2-.6.2-1.8 0-2.5-.3-.6-.5-.1-.5 1.3zm5.1 5c0 4.1.2 5.8.4 3.7.2-2 .2-5.4 0-7.5-.2-2-.4-.3-.4 3.8zm148.8-5.4c0 1.1.3 1.4.6.6.3-.7.2-1.6-.1-1.9-.3-.4-.6.2-.5 1.3zm15.1.4c0 1.4.2 1.9.5 1.2.2-.6.2-1.8 0-2.5-.3-.6-.5-.1-.5 1.3zm-175.9.7c.9.2 2.5.2 3.5 0 .9-.3.1-.5-1.8-.5-1.9 0-2.7.2-1.7.5zm31.8.9c0 1.1.3 1.4.6.6.3-.7.2-1.6-.1-1.9-.3-.4-.6.2-.5 1.3zm25.7.1c.6.2 1.8.2 2.5 0 .6-.3.1-.5-1.3-.5-1.4 0-1.9.2-1.2.5zm-60.6 2.8c0 1.6.2 2.2.5 1.2.2-.9.2-2.3 0-3-.3-.6-.5.1-.5 1.8zm-149.9 4c0 2.7.2 3.8.4 2.2.2-1.5.2-3.7 0-5-.2-1.2-.4 0-.4 2.8zm170-.5c0 2.5.2 3.5.4 2.2.2-1.2.2-3.2 0-4.5-.2-1.2-.4-.2-.4 2.3zm-179.1 0c0 1.4.2 1.9.5 1.2.2-.6.2-1.8 0-2.5-.3-.6-.5-.1-.5 1.3zm325.1 3c0 3 .2 4.3.4 2.7.2-1.5.2-3.9 0-5.5-.2-1.5-.4-.2-.4 2.8zm15 2c0 4.1.2 5.8.4 3.7.2-2 .2-5.4 0-7.5-.2-2-.4-.3-.4 3.8zm-379.2-1.4c0 1.1.3 1.4.6.6.3-.7.2-1.6-.1-1.9-.3-.4-.6.2-.5 1.3zm115 2c0 1.1.3 1.4.6.6.3-.7.2-1.6-.1-1.9-.3-.4-.6.2-.5 1.3zm31.7-.9c.6.2 1.8.2 2.5 0 .6-.3.1-.5-1.3-.5-1.4 0-1.9.2-1.2.5zm57.4 2.3c0 1.9.2 2.7.5 1.7.2-.9.2-2.5 0-3.5-.3-.9-.5-.1-.5 1.8zm-165 1.5c0 1.6.2 2.2.5 1.2.2-.9.2-2.3 0-3-.3-.6-.5.1-.5 1.8zm176 0c0 1.6.2 2.2.5 1.2.2-.9.2-2.3 0-3-.3-.6-.5.1-.5 1.8zm-198.1 1.1c0 1.1.3 1.4.6.6.3-.7.2-1.6-.1-1.9-.3-.4-.6.2-.5 1.3zm33 0c0 1.1.3 1.4.6.6.3-.7.2-1.6-.1-1.9-.3-.4-.6.2-.5 1.3zm185.7 1.1c1.2.2 3.2.2 4.5 0 1.2-.2.2-.4-2.3-.4s-3.5.2-2.2.4zm-17.6 3.3c0 1.4.2 1.9.5 1.2.2-.6.2-1.8 0-2.5-.3-.6-.5-.1-.5 1.3zm133 .5c0 1.6.2 2.2.5 1.2.2-.9.2-2.3 0-3-.3-.6-.5.1-.5 1.8zM161.3 279c0 2.5.2 3.5.4 2.2.2-1.2.2-3.2 0-4.5-.2-1.2-.4-.2-.4 2.3zm32.5-1.3c.6.2 1.8.2 2.5 0 .6-.3.1-.5-1.3-.5-1.4 0-1.9.2-1.2.5zm210.5 0c.9.2 2.5.2 3.5 0 .9-.3.1-.5-1.8-.5-1.9 0-2.7.2-1.7.5zm53.8.9c0 1.1.3 1.4.6.6.3-.7.2-1.6-.1-1.9-.3-.4-.6.2-.5 1.3zm-131.3.1c.7.3 1.6.2 1.9-.1.4-.3-.2-.6-1.3-.5-1.1 0-1.4.3-.6.6zm138.4 2.3c0 1.4.2 1.9.5 1.2.2-.6.2-1.8 0-2.5-.3-.6-.5-.1-.5 1.3zm-191.4 9.7c.6.2 1.8.2 2.5 0 .6-.3.1-.5-1.3-.5-1.4 0-1.9.2-1.2.5zm42 0c.6.2 1.8.2 2.5 0 .6-.3.1-.5-1.3-.5-1.4 0-1.9.2-1.2.5zm-133.6 2.8c0 1.6.2 2.2.5 1.2.2-.9.2-2.3 0-3-.3-.6-.5.1-.5 1.8zm226-.5c0 1.4.2 1.9.5 1.2.2-.6.2-1.8 0-2.5-.3-.6-.5-.1-.5 1.3zm5.1 3.5c0 3.3.2 4.5.4 2.7.2-1.8.2-4.5 0-6s-.4 0-.4 3.3zm14.8-1.9c0 1.1.3 1.4.6.6.3-.7.2-1.6-.1-1.9-.3-.4-.6.2-.5 1.3zm-243 2c0 1.1.3 1.4.6.6.3-.7.2-1.6-.1-1.9-.3-.4-.6.2-.5 1.3zm297.7.1c1.2.2 3.2.2 4.5 0 1.2-.2.2-.4-2.3-.4s-3.5.2-2.2.4zM274.2 299c0 1.4.2 1.9.5 1.2.2-.6.2-1.8 0-2.5-.3-.6-.5-.1-.5 1.3zm136 0c0 1.4.2 1.9.5 1.2.2-.6.2-1.8 0-2.5-.3-.6-.5-.1-.5 1.3zm-88.9 7.5c0 4.4.2 6.1.4 3.7.2-2.3.2-5.9 0-8-.2-2-.4-.1-.4 4.3zm-172.2-3.9c0 1.1.3 1.4.6.6.3-.7.2-1.6-.1-1.9-.3-.4-.6.2-.5 1.3zm34.2 4.9c0 3.8.2 5.3.4 3.2.2-2 .2-5.2 0-7-.2-1.7-.4-.1-.4 3.8zm93-1c0 2.2.2 3 .4 1.7.2-1.2.2-3 0-4-.3-.9-.5.1-.4 2.3zm136 2.5c0 2.5.2 3.5.4 2.2.2-1.2.2-3.2 0-4.5-.2-1.2-.4-.2-.4 2.3zm2.8-2.4c0 1.1.3 1.4.6.6.3-.7.2-1.6-.1-1.9-.3-.4-.6.2-.5 1.3zm-120.3 1.1c1.2.2 3.2.2 4.5 0 1.2-.2.2-.4-2.3-.4s-3.5.2-2.2.4zm9.4 5.8c0 1.6.2 2.2.5 1.2.2-.9.2-2.3 0-3-.3-.6-.5.1-.5 1.8zm-30.1 1.1c0 1.1.3 1.4.6.6.3-.7.2-1.6-.1-1.9-.3-.4-.6.2-.5 1.3zm32 6c0 1.1.3 1.4.6.6.3-.7.2-1.6-.1-1.9-.3-.4-.6.2-.5 1.3zm136 0c0 1.1.3 1.4.6.6.3-.7.2-1.6-.1-1.9-.3-.4-.6.2-.5 1.3zm-29.5 8.1c.9 7.8 1.4 7.9 1.4.5 0-3.5-.4-6.2-1-6.2s-.8 2.1-.4 5.7zm5.7-.2c0 3.3.2 4.5.4 2.7.2-1.8.2-4.5 0-6s-.4 0-.4 3.3zm-255.9 8c0 5.5.1 7.6.3 4.7.2-2.9.2-7.4 0-10-.2-2.6-.3-.2-.3 5.3zm281.8-7.5c0 1.4.2 1.9.5 1.2.2-.6.2-1.8 0-2.5-.3-.6-.5-.1-.5 1.3zm-309.1 1.6c0 1.1.3 1.4.6.6.3-.7.2-1.6-.1-1.9-.3-.4-.6.2-.5 1.3zm43 0c0 1.1.3 1.4.6.6.3-.7.2-1.6-.1-1.9-.3-.4-.6.2-.5 1.3zm253.1.4c0 1.4.2 1.9.5 1.2.2-.6.2-1.8 0-2.5-.3-.6-.5-.1-.5 1.3zm-256.1 5.6c0 1.1.3 1.4.6.6.3-.7.2-1.6-.1-1.9-.3-.4-.6.2-.5 1.3zm271.2 2.4c0 2.5.2 3.5.4 2.2.2-1.2.2-3.2 0-4.5-.2-1.2-.4-.2-.4 2.3zm-201.5-.3c1.2.2 3.2.2 4.5 0 1.2-.2.2-.4-2.3-.4s-3.5.2-2.2.4zm30.4 8.3c0 1.4.2 1.9.5 1.2.2-.6.2-1.8 0-2.5-.3-.6-.5-.1-.5 1.3zm-71.9 2.7c1.5.2 3.9.2 5.5 0 1.5-.2.2-.4-2.8-.4s-4.3.2-2.7.4zm26.5 0c1.7.2 4.7.2 6.5 0 1.7-.2.3-.4-3.3-.4-3.6 0-5 .2-3.2.4zm97.5 2.8c0 2.2.2 3 .4 1.7.2-1.2.2-3 0-4-.3-.9-.5.1-.4 2.3zm11.5-2.8c1.2.2 3.2.2 4.5 0 1.2-.2.2-.4-2.3-.4s-3.5.2-2.2.4zm42 0c1.2.2 3.2.2 4.5 0 1.2-.2.2-.4-2.3-.4s-3.5.2-2.2.4zM273.2 353c0 1.4.2 1.9.5 1.2.2-.6.2-1.8 0-2.5-.3-.6-.5-.1-.5 1.3zm-10.1 3.6c0 1.1.3 1.4.6.6.3-.7.2-1.6-.1-1.9-.3-.4-.6.2-.5 1.3zm5 0c0 1.1.3 1.4.6.6.3-.7.2-1.6-.1-1.9-.3-.4-.6.2-.5 1.3zm-54.8.1c2.6.2 6.8.2 9.5 0 2.6-.2.4-.3-4.8-.3s-7.4.1-4.7.3zm134.5 0c1.7.2 4.7.2 6.5 0 1.7-.2.3-.4-3.3-.4-3.6 0-5 .2-3.2.4zm23.5 0c1.5.2 3.9.2 5.5 0 1.5-.2.2-.4-2.8-.4s-4.3.2-2.7.4zm-100.1 4.8c0 1.6.2 2.2.5 1.2.2-.9.2-2.3 0-3-.3-.6-.5.1-.5 1.8zm52.9 1.1c0 1.1.3 1.4.6.6.3-.7.2-1.6-.1-1.9-.3-.4-.6.2-.5 1.3zm14.3 17.4c0 10.7.2 15.1.3 9.7.2-5.3.2-14.1 0-19.5-.1-5.3-.3-.9-.3 9.8zm-5 0c0 9.6.2 13.6.3 8.7.2-4.8.2-12.6 0-17.5-.1-4.8-.3-.8-.3 8.8zm-74.1-8c0 4.1.2 5.8.4 3.7.2-2 .2-5.4 0-7.5-.2-2-.4-.3-.4 3.8zm5 0c0 4.1.2 5.8.4 3.7.2-2 .2-5.4 0-7.5-.2-2-.4-.3-.4 3.8zm59.9 1.5c0 1.6.2 2.2.5 1.2.2-.9.2-2.3 0-3-.3-.6-.5.1-.5 1.8zm-116.4.2c5 .2 13.4.2 18.5 0 5-.1.9-.3-9.3-.3-10.2 0-14.3.2-9.2.3zm158 0c.6.2 1.8.2 2.5 0 .6-.3.1-.5-1.3-.5-1.4 0-1.9.2-1.2.5zm-94.6 3.3c0 1.4.2 1.9.5 1.2.2-.6.2-1.8 0-2.5-.3-.6-.5-.1-.5 1.3zm-32.9 4c0 2.5.2 3.5.4 2.2.2-1.2.2-3.2 0-4.5-.2-1.2-.4-.2-.4 2.3zm22.9 4.5c0 1.6.2 2.2.5 1.2.2-.9.2-2.3 0-3-.3-.6-.5.1-.5 1.8zm5 0c0 1.6.2 2.2.5 1.2.2-.9.2-2.3 0-3-.3-.6-.5.1-.5 1.8zm89.1 4c0 2.7.2 3.8.4 2.2.2-1.5.2-3.7 0-5-.2-1.2-.4 0-.4 2.8zm-75.5-2.8c.6.2 1.8.2 2.5 0 .6-.3.1-.5-1.3-.5-1.4 0-1.9.2-1.2.5zm26 0c1.7.2 4.7.2 6.5 0 1.7-.2.3-.4-3.3-.4-3.6 0-5 .2-3.2.4zm-65.5 6.3c0 3.6.2 5 .4 3.2.2-1.7.2-4.7 0-6.5-.2-1.7-.4-.3-.4 3.3zm23.8-.4c0 1.1.3 1.4.6.6.3-.7.2-1.6-.1-1.9-.3-.4-.6.2-.5 1.3zm131 2c0 1.1.3 1.4.6.6.3-.7.2-1.6-.1-1.9-.3-.4-.6.2-.5 1.3zm-37.8 6.9c0 2.7.2 3.8.4 2.2.2-1.5.2-3.7 0-5-.2-1.2-.4 0-.4 2.8zm-154.1-.5c0 1.4.2 1.9.5 1.2.2-.6.2-1.8 0-2.5-.3-.6-.5-.1-.5 1.3zm190 0c0 1.4.2 1.9.5 1.2.2-.6.2-1.8 0-2.5-.3-.6-.5-.1-.5 1.3zm-193.1 1.6c0 1.1.3 1.4.6.6.3-.7.2-1.6-.1-1.9-.3-.4-.6.2-.5 1.3zm55.2 2.4c0 2.5.2 3.5.4 2.2.2-1.2.2-3.2 0-4.5-.2-1.2-.4-.2-.4 2.3zm4.9-1.5c0 1.6.2 2.2.5 1.2.2-.9.2-2.3 0-3-.3-.6-.5.1-.5 1.8zM242.4 416c0 7.4.1 10.5.3 6.7.2-3.7.2-9.7 0-13.5-.2-3.7-.3-.6-.3 6.8zm148.8-9c0 1.4.2 1.9.5 1.2.2-.6.2-1.8 0-2.5-.3-.6-.5-.1-.5 1.3zm-185.9 5.5c0 3.3.2 4.5.4 2.7.2-1.8.2-4.5 0-6s-.4 0-.4 3.3zm-18 2.5c0 3.6.2 5 .4 3.2.2-1.7.2-4.7 0-6.5-.2-1.7-.4-.3-.4 3.3zm15 0c0 3.6.2 5 .4 3.2.2-1.7.2-4.7 0-6.5-.2-1.7-.4-.3-.4 3.3zm152.8-4.4c0 1.1.3 1.4.6.6.3-.7.2-1.6-.1-1.9-.3-.4-.6.2-.5 1.3zm29.3 17.4c0 9.6.2 13.6.3 8.7.2-4.8.2-12.6 0-17.5-.1-4.8-.3-.8-.3 8.8zm5 15.5c0 17.6.2 24.7.3 15.7.2-9 .2-23.4 0-32-.1-8.6-.3-1.3-.3 16.3zM353.3 423c0 4.7.2 6.6.4 4.2.2-2.3.2-6.1 0-8.5-.2-2.3-.4-.4-.4 4.3zm49.1 5c0 5.2.1 7.4.3 4.7.2-2.6.2-6.8 0-9.5-.2-2.6-.3-.4-.3 4.8zm-153.1-1c0 3.6.2 5 .4 3.2.2-1.7.2-4.7 0-6.5-.2-1.7-.4-.3-.4 3.3zm5-1c0 3 .2 4.3.4 2.7.2-1.5.2-3.9 0-5.5-.2-1.5-.4-.2-.4 2.8zm-46.9 9c0 6.9.1 9.7.3 6.2.2-3.4.2-9 0-12.5-.2-3.4-.3-.6-.3 6.3zm135.9-4c0 4.7.2 6.6.4 4.2.2-2.3.2-6.1 0-8.5-.2-2.3-.4-.4-.4 4.3zm-79 1c0 4.1.2 5.8.4 3.7.2-2 .2-5.4 0-7.5-.2-2-.4-.3-.4 3.8zm12 0c0 4.1.2 5.8.4 3.7.2-2 .2-5.4 0-7.5-.2-2-.4-.3-.4 3.8zm24-1.5c0 3.3.2 4.5.4 2.7.2-1.8.2-4.5 0-6s-.4 0-.4 3.3zm48 1.5c0 4.1.2 5.8.4 3.7.2-2 .2-5.4 0-7.5-.2-2-.4-.3-.4 3.8zm-60 1.5c0 3.8.2 5.3.4 3.2.2-2 .2-5.2 0-7-.2-1.7-.4-.1-.4 3.8zm7-1.5c0 3 .2 4.3.4 2.7.2-1.5.2-3.9 0-5.5-.2-1.5-.4-.2-.4 2.8zm29-1c0 2.5.2 3.5.4 2.2.2-1.2.2-3.2 0-4.5-.2-1.2-.4-.2-.4 2.3zm-120 .5c0 2.2.2 3 .4 1.7.2-1.2.2-3 0-4-.3-.9-.5.1-.4 2.3zm67 3c0 3.3.2 4.5.4 2.7.2-1.8.2-4.5 0-6s-.4 0-.4 3.3zm48 0c0 3.3.2 4.5.4 2.7.2-1.8.2-4.5 0-6s-.4 0-.4 3.3zm15 .5c0 3.6.2 5 .4 3.2.2-1.7.2-4.7 0-6.5-.2-1.7-.4-.3-.4 3.3zm-75.1-.3c-.2 4-.4 4.3-3.1 4.3-2 0-3.1-.6-3.4-1.8-.3-1.3-.4-1.2-.3.3.1 1.5.9 2.1 3.4 2.3 3.7.4 4.6-.9 3.9-6-.3-3-.4-2.9-.5.9zm70.1 1.8c0 3.3.2 4.5.4 2.7.2-1.8.2-4.5 0-6s-.4 0-.4 3.3zm-84.9 1c.1 2.2 2.8 2.8 3.2.7.1-.7 0-.8-.3-.2-.7 1.6-2.1 1.2-2.6-.8-.3-1.3-.4-1.2-.3.3zm38.8 0c0 1.6.2 2.2.5 1.2.2-.9.2-2.3 0-3-.3-.6-.5.1-.5 1.8zm-95.9 7.5c0 3.6.2 5 .4 3.2.2-1.7.2-4.7 0-6.5-.2-1.7-.4-.3-.4 3.3zm136.8-4.4c0 1.1.3 1.4.6.6.3-.7.2-1.6-.1-1.9-.3-.4-.6.2-.5 1.3zM202.2 448c0 1.9.2 2.7.5 1.7.2-.9.2-2.5 0-3.5-.3-.9-.5-.1-.5 1.8zm179.9 2.6c0 1.1.3 1.4.6.6.3-.7.2-1.6-.1-1.9-.3-.4-.6.2-.5 1.3zm22.1.4c0 1.4.2 1.9.5 1.2.2-.6.2-1.8 0-2.5-.3-.6-.5-.1-.5 1.3zm-195 3c0 1.9.2 2.7.5 1.7.2-.9.2-2.5 0-3.5-.3-.9-.5-.1-.5 1.8zm50.2 7c0 5.8.1 8.1.3 5.2.2-2.8.2-7.6 0-10.5-.2-2.8-.3-.5-.3 5.3zm4.9-5c0 3 .2 4.3.4 2.7.2-1.5.2-3.9 0-5.5-.2-1.5-.4-.2-.4 2.8zm25.4-3.3c.6.5 1.4 3.1 1.6 5.8l.4 5-.1-5.4c-.1-3.9-.5-5.6-1.6-5.8-1-.3-1.1-.2-.3.4zm6.7.7c-.3.7-.3 4-.1 7.2l.3 5.9.2-6.7.2-6.7 5.3-.4 5.2-.3-5.3-.2c-3.7-.1-5.4.2-5.8 1.2zm16 0c-.3.9-.4 2.1-.1 2.8.3.7.6.3.6-1 .1-2 .6-2.2 5.1-2.2h4.9l.4 6.2.3 6.3V459l-.1-6.5-5.3-.3c-3.9-.2-5.4.1-5.8 1.2zm16-.1c-.2.8-.3 4.7-.1 8.8l.3 7.4.2-8.3c.2-7.4.4-8.2 2.2-8.2 1.6 0 2 .8 2.3 6.2l.3 6.3V459c-.1-6-.3-6.5-2.4-6.8-1.2-.2-2.4.3-2.8 1.1zm10 .1c-.3.7-.3 4-.1 7.2l.3 5.9.2-6.7c.2-6 .4-6.7 2.5-7.1l2.2-.4-2.3-.2c-1.2 0-2.5.5-2.8 1.3zm-71.1 5.6c0 3.6.2 5 .4 3.2.2-1.7.2-4.7 0-6.5-.2-1.7-.4-.3-.4 3.3zm5-.5c0 3.3.2 4.5.4 2.7.2-1.8.2-4.5 0-6s-.4 0-.4 3.3zm5-2c0 2.2.2 3 .4 1.7.2-1.2.2-3 0-4-.3-.9-.5.1-.4 2.3zm5 .5c0 2.5.2 3.5.4 2.2.2-1.2.2-3.2 0-4.5-.2-1.2-.4-.2-.4 2.3zm63 4c0 4.7.2 6.6.4 4.2.2-2.3.2-6.1 0-8.5-.2-2.3-.4-.4-.4 4.3zm-159.9 3c0 5.2.1 7.4.3 4.7.2-2.6.2-6.8 0-9.5-.2-2.6-.3-.4-.3 4.8zm60.9-1c0 3.6.2 5 .4 3.2.2-1.7.2-4.7 0-6.5-.2-1.7-.4-.3-.4 3.3zm63 0c0 3.6.2 5 .4 3.2.2-1.7.2-4.7 0-6.5-.2-1.7-.4-.3-.4 3.3zm-109 1c0 3 .2 4.3.4 2.7.2-1.5.2-3.9 0-5.5-.2-1.5-.4-.2-.4 2.8zm79 2.5c0 2.2.2 3 .4 1.7.2-1.2.2-3 0-4-.3-.9-.5.1-.4 2.3zm34.9-.5c0 1.9.2 2.7.5 1.7.2-.9.2-2.5 0-3.5-.3-.9-.5-.1-.5 1.8zm-30 1.5c0 1.6.2 2.2.5 1.2.2-.9.2-2.3 0-3-.3-.6-.5.1-.5 1.8zm-49.9 3.2c.9.2 2.5.2 3.5 0 .9-.3.1-.5-1.8-.5-1.9 0-2.7.2-1.7.5zm108 5c.9.2 2.5.2 3.5 0 .9-.3.1-.5-1.8-.5-1.9 0-2.7.2-1.7.5zm-79.5 6c3.4.2 9 .2 12.5 0 3.4-.2.6-.3-6.3-.3-6.9 0-9.7.1-6.2.3zm57 0c2.8.2 7.6.2 10.5 0 2.8-.2.5-.3-5.3-.3s-8.1.1-5.2.3zm-49.5 7c.9.2 2.5.2 3.5 0 .9-.3.1-.5-1.8-.5-1.9 0-2.7.2-1.7.5zm54.5 0c1.2.2 3.2.2 4.5 0 1.2-.2.2-.4-2.3-.4s-3.5.2-2.2.4zm-32.5 6c2 .2 5.4.2 7.5 0 2-.2.3-.4-3.8-.4s-5.8.2-3.7.4zm-28.1 14.8c0 1.6.2 2.2.5 1.2.2-.9.2-2.3 0-3-.3-.6-.5.1-.5 1.8zm16.6 39.2c3.4.2 9 .2 12.5 0 3.4-.2.6-.3-6.3-.3-6.9 0-9.7.1-6.2.3z" fill="#FFF" fill-opacity=".25"/><path d="M288 78.4c0 .2.8 1 1.8 1.7 1.5 1.3 1.6 1.2.3-.4s-2.1-2.1-2.1-1.3zm4 6c0 .2.8 1 1.8 1.7 1.5 1.3 1.6 1.2.3-.4s-2.1-2.1-2.1-1.3zM53.9 103.7c-1.3 1.6-1.2 1.7.4.4.9-.7 1.7-1.5 1.7-1.7 0-.8-.8-.3-2.1 1.3zM191 121.4c0 .2.8 1 1.8 1.7 1.5 1.3 1.6 1.2.3-.4s-2.1-2.1-2.1-1.3zM71.9 133.7c-1.3 1.6-1.2 1.7.4.4.9-.7 1.7-1.5 1.7-1.7 0-.8-.8-.3-2.1 1.3zm450.1-1.3c0 .2.8 1 1.8 1.7 1.5 1.3 1.6 1.2.3-.4s-2.1-2.1-2.1-1.3zm-310 55c0 .2.7.7 1.6 1 .8.3 1.2.2.9-.4-.6-1-2.5-1.4-2.5-.6zm342 5c0 .2.8 1 1.8 1.7 1.5 1.3 1.6 1.2.3-.4s-2.1-2.1-2.1-1.3zm-154 6c0 .2.8 1 1.8 1.7 1.5 1.3 1.6 1.2.3-.4s-2.1-2.1-2.1-1.3zm92.9 8.3c-1.3 1.6-1.2 1.7.4.4.9-.7 1.7-1.5 1.7-1.7 0-.8-.8-.3-2.1 1.3zm-85.5 5.1c.4.3 1.4.7 2.2.8.9.1 1.3 0 1-.4-.4-.3-1.4-.7-2.2-.8-.9-.1-1.3 0-1 .4zm-186.5 10.9c-1.3 1.6-1.2 1.7.4.4 1.6-1.3 2.1-2.1 1.3-2.1-.2 0-1 .8-1.7 1.7zm35.1 11.7c0 .2.8 1 1.8 1.7 1.5 1.3 1.6 1.2.3-.4s-2.1-2.1-2.1-1.3zm228 0c0 .2.8 1 1.8 1.7 1.5 1.3 1.6 1.2.3-.4s-2.1-2.1-2.1-1.3zm-170.4 7.3c-.6 1.4-.5 1.5.5.6.7-.7 1-1.5.7-1.8-.3-.3-.9.2-1.2 1.2zm218.4-1.3c0 .2.8 1 1.8 1.7 1.5 1.3 1.6 1.2.3-.4s-2.1-2.1-2.1-1.3zm-31 13c0 .2.8 1 1.8 1.7 1.5 1.3 1.6 1.2.3-.4s-2.1-2.1-2.1-1.3zm5 5c0 .2.8 1 1.8 1.7 1.5 1.3 1.6 1.2.3-.4s-2.1-2.1-2.1-1.3zm-356 12c0 .2.8 1 1.8 1.7 1.5 1.3 1.6 1.2.3-.4s-2.1-2.1-2.1-1.3zm-50.1 7.3c-1.3 1.6-1.2 1.7.4.4.9-.7 1.7-1.5 1.7-1.7 0-.8-.8-.3-2.1 1.3zm83.7 12.1c-.2.4.4.8 1.4.8 1 0 1.6-.4 1.4-.8-.3-.4-.9-.8-1.4-.8-.5 0-1.1.4-1.4.8zm226 0c-.2.4.4.8 1.4.8 1 0 1.6-.4 1.4-.8-.3-.4-.9-.8-1.4-.8-.5 0-1.1.4-1.4.8zM272 294.4c0 .2.8 1 1.8 1.7 1.5 1.3 1.6 1.2.3-.4s-2.1-2.1-2.1-1.3zm64 110c.7.7 1.3.7 2 0 .6-.6.3-1-1-1s-1.6.4-1 1zm-80.3 5.7c.7.7 1.5 1 1.8.7.3-.3-.2-.9-1.2-1.2-1.4-.6-1.5-.5-.6.5zm87.8 11.9c-.3.6.1.7.9.4 1.8-.7 2.1-1.4.7-1.4-.6 0-1.3.4-1.6 1zm-23.6 5.7c-1.3 1.6-1.2 1.7.4.4 1.6-1.3 2.1-2.1 1.3-2.1-.2 0-1 .8-1.7 1.7zm6.1 42.7c.7.7 1.3.7 2 0 .6-.6.3-1-1-1s-1.6.4-1 1zm72.9 18.3c-1.3 1.6-1.2 1.7.4.4 1.6-1.3 2.1-2.1 1.3-2.1-.2 0-1 .8-1.7 1.7zm-5 5c-1.3 1.6-1.2 1.7.4.4.9-.7 1.7-1.5 1.7-1.7 0-.8-.8-.3-2.1 1.3zm-46.3 6c-.6 1.4-.5 1.5.5.6.7-.7 1-1.5.7-1.8-.3-.3-.9.2-1.2 1.2zm-85.6 4.7c0 .2.8 1 1.8 1.7 1.5 1.3 1.6 1.2.3-.4s-2.1-2.1-2.1-1.3zm-40 6c0 .2.8 1 1.8 1.7 1.5 1.3 1.6 1.2.3-.4s-2.1-2.1-2.1-1.3z" fill="#FFF" fill-opacity=".19"/><path d="M442.9 46.7c-1.3 1.6-1.2 1.7.4.4.9-.7 1.7-1.5 1.7-1.7 0-.8-.8-.3-2.1 1.3zm-5.5 5.5-1.9 2.3 2.3-1.9c1.2-1.1 2.2-2.1 2.2-2.3 0-.8-.8-.2-2.6 1.9zM155 51.4c0 .2.8 1 1.8 1.7 1.5 1.3 1.6 1.2.3-.4s-2.1-2.1-2.1-1.3zm7 5c0 .2.8 1 1.8 1.7 1.5 1.3 1.6 1.2.3-.4s-2.1-2.1-2.1-1.3zm-69.1 8.3c-1.3 1.6-1.2 1.7.4.4 1.6-1.3 2.1-2.1 1.3-2.1-.2 0-1 .8-1.7 1.7zm108 0c-1.3 1.6-1.2 1.7.4.4.9-.7 1.7-1.5 1.7-1.7 0-.8-.8-.3-2.1 1.3zm-7 5c-1.3 1.6-1.2 1.7.4.4.9-.7 1.7-1.5 1.7-1.7 0-.8-.8-.3-2.1 1.3zM408 68.4c0 .2.8 1 1.8 1.7 1.5 1.3 1.6 1.2.3-.4s-2.1-2.1-2.1-1.3zm59.4 1.8-1.9 2.3 2.3-1.9c1.2-1.1 2.2-2.1 2.2-2.3 0-.8-.8-.2-2.6 1.9zM277 69.4c0 .2.8 1 1.8 1.7 1.5 1.3 1.6 1.2.3-.4s-2.1-2.1-2.1-1.3zm-91.1 6.3c-1.3 1.6-1.2 1.7.4.4 1.6-1.3 2.1-2.1 1.3-2.1-.2 0-1 .8-1.7 1.7zm99.6.3c1 1.1 2 2 2.3 2 .3 0-.3-.9-1.3-2s-2-2-2.3-2c-.3 0 .3.9 1.3 2zm136.4-.3c-1.3 1.6-1.2 1.7.4.4 1.6-1.3 2.1-2.1 1.3-2.1-.2 0-1 .8-1.7 1.7zm39.5.5-1.9 2.3 2.3-1.9c2.1-1.8 2.7-2.6 1.9-2.6-.2 0-1.2 1-2.3 2.2zM137 75.4c0 .2.8 1 1.8 1.7 1.5 1.3 1.6 1.2.3-.4s-2.1-2.1-2.1-1.3zm220 0c0 .2.8 1 1.8 1.7 1.5 1.3 1.6 1.2.3-.4s-2.1-2.1-2.1-1.3zM211.5 88c1 1.1 2 2 2.3 2 .3 0-.3-.9-1.3-2s-2-2-2.3-2c-.3 0 .3.9 1.3 2zm305.4.7c-1.3 1.6-1.2 1.7.4.4.9-.7 1.7-1.5 1.7-1.7 0-.8-.8-.3-2.1 1.3zM389.5 100c1 1.1 2 2 2.3 2 .3 0-.3-.9-1.3-2s-2-2-2.3-2c-.3 0 .3.9 1.3 2zm-332.6.7c-1.3 1.6-1.2 1.7.4.4.9-.7 1.7-1.5 1.7-1.7 0-.8-.8-.3-2.1 1.3zm54.5 5.5-1.9 2.3 2.3-1.9c2.1-1.8 2.7-2.6 1.9-2.6-.2 0-1.2 1-2.3 2.2zm104 0-1.9 2.3 2.3-1.9c2.1-1.8 2.7-2.6 1.9-2.6-.2 0-1.2 1-2.3 2.2zm180.1-.2c1 1.1 2 2 2.3 2 .3 0-.3-.9-1.3-2s-2-2-2.3-2c-.3 0 .3.9 1.3 2zm102.5-1.6c0 .2.8 1 1.8 1.7 1.5 1.3 1.6 1.2.3-.4s-2.1-2.1-2.1-1.3zm7.9 1.3c-1.3 1.6-1.2 1.7.4.4.9-.7 1.7-1.5 1.7-1.7 0-.8-.8-.3-2.1 1.3zm-296.5 6.5-1.9 2.3 2.3-1.9c2.1-1.8 2.7-2.6 1.9-2.6-.2 0-1.2 1-2.3 2.2zm190.6-1.8c0 .2.8 1 1.8 1.7 1.5 1.3 1.6 1.2.3-.4s-2.1-2.1-2.1-1.3zm-302.1 7.3c-1.3 1.6-1.2 1.7.4.4.9-.7 1.7-1.5 1.7-1.7 0-.8-.8-.3-2.1 1.3zm106 0c-1.3 1.6-1.2 1.7.4.4.9-.7 1.7-1.5 1.7-1.7 0-.8-.8-.3-2.1 1.3zm204.1-1.3c0 .2.8 1 1.8 1.7 1.5 1.3 1.6 1.2.3-.4s-2.1-2.1-2.1-1.3zm-171.1 2.3c-1.3 1.6-1.2 1.7.4.4.9-.7 1.7-1.5 1.7-1.7 0-.8-.8-.3-2.1 1.3zm34.1-1.3c0 .2.8 1 1.8 1.7 1.5 1.3 1.6 1.2.3-.4s-2.1-2.1-2.1-1.3zm-91.5 6.6c1 1.1 2 2 2.3 2 .3 0-.3-.9-1.3-2s-2-2-2.3-2c-.3 0 .3.9 1.3 2zm51.9.2-1.9 2.3 2.3-1.9c2.1-1.8 2.7-2.6 1.9-2.6-.2 0-1.2 1-2.3 2.2zm100 0-1.9 2.3 2.3-1.9c1.2-1.1 2.2-2.1 2.2-2.3 0-.8-.8-.2-2.6 1.9zm138.5-.5c-1.3 1.6-1.2 1.7.4.4.9-.7 1.7-1.5 1.7-1.7 0-.8-.8-.3-2.1 1.3zm-96.9-.3c0 .2.8 1 1.8 1.7 1.5 1.3 1.6 1.2.3-.4s-2.1-2.1-2.1-1.3zm140 0c0 .2.8 1 1.8 1.7 1.5 1.3 1.6 1.2.3-.4s-2.1-2.1-2.1-1.3zm-437.6 6.8-1.9 2.3 2.3-1.9c2.1-1.8 2.7-2.6 1.9-2.6-.2 0-1.2 1-2.3 2.2zm110.1-.2c1 1.1 2 2 2.3 2 .3 0-.3-.9-1.3-2s-2-2-2.3-2c-.3 0 .3.9 1.3 2zm334 0c1 1.1 2 2 2.3 2 .3 0-.3-.9-1.3-2s-2-2-2.3-2c-.3 0 .3.9 1.3 2zm-380.5-.6c0 .2.8 1 1.8 1.7 1.5 1.3 1.6 1.2.3-.4s-2.1-2.1-2.1-1.3zm109 5c0 .2.8 1 1.8 1.7 1.5 1.3 1.6 1.2.3-.4s-2.1-2.1-2.1-1.3zm-27 1c0 .2.8 1 1.8 1.7 1.5 1.3 1.6 1.2.3-.4s-2.1-2.1-2.1-1.3zm139.9 1.3c-1.3 1.6-1.2 1.7.4.4 1.6-1.3 2.1-2.1 1.3-2.1-.2 0-1 .8-1.7 1.7zm22 6c-1.3 1.6-1.2 1.7.4.4 1.6-1.3 2.1-2.1 1.3-2.1-.2 0-1 .8-1.7 1.7zm-281 5c-1.3 1.6-1.2 1.7.4.4.9-.7 1.7-1.5 1.7-1.7 0-.8-.8-.3-2.1 1.3zm439 1c-1.3 1.6-1.2 1.7.4.4 1.6-1.3 2.1-2.1 1.3-2.1-.2 0-1 .8-1.7 1.7zm-5.5 5.5-1.9 2.3 2.3-1.9c2.1-1.8 2.7-2.6 1.9-2.6-.2 0-1.2 1-2.3 2.2zm-62.4-.8c0 .2.8 1 1.8 1.7 1.5 1.3 1.6 1.2.3-.4s-2.1-2.1-2.1-1.3zm-265 5c0 .2.8 1 1.8 1.7 1.5 1.3 1.6 1.2.3-.4s-2.1-2.1-2.1-1.3zm-43.1 2.3c-1.3 1.6-1.2 1.7.4.4.9-.7 1.7-1.5 1.7-1.7 0-.8-.8-.3-2.1 1.3zm-5 5c-1.3 1.6-1.2 1.7.4.4 1.6-1.3 2.1-2.1 1.3-2.1-.2 0-1 .8-1.7 1.7zm35.2 6.6c-1.3 2.1-1.2 2.1.5.5 1-1 1.6-2 1.3-2.2-.3-.3-1.1.5-1.8 1.7zm129.9-.9c0 .2.8 1 1.8 1.7 1.5 1.3 1.6 1.2.3-.4s-2.1-2.1-2.1-1.3zm-233 5c0 .2.8 1 1.8 1.7 1.5 1.3 1.6 1.2.3-.4s-2.1-2.1-2.1-1.3zm318.1.9c.2.1 1.3.9 2.4 1.7 1.9 1.4 1.9 1.4.6-.3-.7-.9-1.8-1.7-2.4-1.7-.6 0-.8.1-.6.3zm31.4 6.7c1 1.1 2 2 2.3 2 .3 0-.3-.9-1.3-2s-2-2-2.3-2c-.3 0 .3.9 1.3 2zm-282.1 6.2-1.9 2.3 2.3-1.9c2.1-1.8 2.7-2.6 1.9-2.6-.2 0-1.2 1-2.3 2.2zm222 0-1.9 2.3 2.3-1.9c1.2-1.1 2.2-2.1 2.2-2.3 0-.8-.8-.2-2.6 1.9zm-200.5 6.5c-1.3 1.6-1.2 1.7.4.4.9-.7 1.7-1.5 1.7-1.7 0-.8-.8-.3-2.1 1.3zM59.4 208.2l-1.9 2.3 2.3-1.9c2.1-1.8 2.7-2.6 1.9-2.6-.2 0-1.2 1-2.3 2.2zm242 6-1.9 2.3 2.3-1.9c2.1-1.8 2.7-2.6 1.9-2.6-.2 0-1.2 1-2.3 2.2zm121.6-.8c0 .2.8 1 1.8 1.7 1.5 1.3 1.6 1.2.3-.4s-2.1-2.1-2.1-1.3zm82 0c0 .2.8 1 1.8 1.7 1.5 1.3 1.6 1.2.3-.4s-2.1-2.1-2.1-1.3zm-334.1 7.3c-1.3 1.6-1.2 1.7.4.4.9-.7 1.7-1.5 1.7-1.7 0-.8-.8-.3-2.1 1.3zm140.5-.5c-.4.7-.3.8.5.4.6-.4 2-.2 2.9.6 1.5 1.2 1.6 1.1.3-.5-1.6-2-2.7-2.2-3.7-.5zm157.6-.8c0 .2.8 1 1.8 1.7 1.5 1.3 1.6 1.2.3-.4s-2.1-2.1-2.1-1.3zm6.5 6.6c1 1.1 2 2 2.3 2 .3 0-.3-.9-1.3-2s-2-2-2.3-2c-.3 0 .3.9 1.3 2zm44 0c1 1.1 2 2 2.3 2 .3 0-.3-.9-1.3-2s-2-2-2.3-2c-.3 0 .3.9 1.3 2zm-218.6.7c-1.3 1.6-1.2 1.7.4.4 1.6-1.3 2.1-2.1 1.3-2.1-.2 0-1 .8-1.7 1.7zm-125 5c-1.3 1.6-1.2 1.7.4.4.9-.7 1.7-1.5 1.7-1.7 0-.8-.8-.3-2.1 1.3zm118.1-1.3c0 .2.8 1 1.8 1.7 1.5 1.3 1.6 1.2.3-.4s-2.1-2.1-2.1-1.3zm187.5 1.6c1 1.1 2 2 2.3 2 .3 0-.3-.9-1.3-2s-2-2-2.3-2c-.3 0 .3.9 1.3 2zm44 0c1 1.1 2 2 2.3 2 .3 0-.3-.9-1.3-2s-2-2-2.3-2c-.3 0 .3.9 1.3 2zm-272.5-.6c0 .2.8 1 1.8 1.7 1.5 1.3 1.6 1.2.3-.4s-2.1-2.1-2.1-1.3zm36.5 12.6c1 1.1 2 2 2.3 2 .3 0-.3-.9-1.3-2s-2-2-2.3-2c-.3 0 .3.9 1.3 2zm47.9.2-1.9 2.3 2.3-1.9c2.1-1.8 2.7-2.6 1.9-2.6-.2 0-1.2 1-2.3 2.2zM517 255.4c0 .2.8 1 1.8 1.7 1.5 1.3 1.6 1.2.3-.4s-2.1-2.1-2.1-1.3zM257.5 274c1 1.1 2 2 2.3 2 .3 0-.3-.9-1.3-2s-2-2-2.3-2c-.3 0 .3.9 1.3 2zm158.4-.3c-1.3 1.6-1.2 1.7.4.4.9-.7 1.7-1.5 1.7-1.7 0-.8-.8-.3-2.1 1.3zm60.1 4.7c0 .2.8 1 1.8 1.7 1.5 1.3 1.6 1.2.3-.4s-2.1-2.1-2.1-1.3zm-321 1c0 .2.8 1 1.8 1.7 1.5 1.3 1.6 1.2.3-.4s-2.1-2.1-2.1-1.3zm332 6c0 .2.8 1 1.8 1.7 1.5 1.3 1.6 1.2.3-.4s-2.1-2.1-2.1-1.3zm-342.1 25.3c-1.3 1.6-1.2 1.7.4.4 1.6-1.3 2.1-2.1 1.3-2.1-.2 0-1 .8-1.7 1.7zm-4 6c-1.3 1.6-1.2 1.7.4.4 1.6-1.3 2.1-2.1 1.3-2.1-.2 0-1 .8-1.7 1.7zm42.6 23.3c1 1.1 2 2 2.3 2 .3 0-.3-.9-1.3-2s-2-2-2.3-2c-.3 0 .3.9 1.3 2zm225.4.7c-1.3 1.6-1.2 1.7.4.4.9-.7 1.7-1.5 1.7-1.7 0-.8-.8-.3-2.1 1.3zM335.5 358c1 1.1 2 2 2.3 2 .3 0-.3-.9-1.3-2s-2-2-2.3-2c-.3 0 .3.9 1.3 2zm84.4-.3c-1.3 1.6-1.2 1.7.4.4 1.6-1.3 2.1-2.1 1.3-2.1-.2 0-1 .8-1.7 1.7zM173.5 364c1 1.1 2 2 2.3 2 .3 0-.3-.9-1.3-2s-2-2-2.3-2c-.3 0 .3.9 1.3 2zm188.4 11.7c-1.3 1.6-1.2 1.7.4.4.9-.7 1.7-1.5 1.7-1.7 0-.8-.8-.3-2.1 1.3zm-65 49c-1.3 1.7-1.3 1.7.6.3 1.1-.8 2.2-1.6 2.4-1.7.2-.2 0-.3-.6-.3s-1.7.8-2.4 1.7zM205.5 478c1 1.1 2 2 2.3 2 .3 0-.3-.9-1.3-2s-2-2-2.3-2c-.3 0 .3.9 1.3 2zm47.5-.6c0 .2.8 1 1.8 1.7 1.5 1.3 1.6 1.2.3-.4s-2.1-2.1-2.1-1.3zm30.5 6.6c1 1.1 2 2 2.3 2 .3 0-.3-.9-1.3-2s-2-2-2.3-2c-.3 0 .3.9 1.3 2zm97.9.2-1.9 2.3 2.3-1.9c1.2-1.1 2.2-2.1 2.2-2.3 0-.8-.8-.2-2.6 1.9zm-168.4-.8c0 .2.8 1 1.8 1.7 1.5 1.3 1.6 1.2.3-.4s-2.1-2.1-2.1-1.3zm14.5 12.6c1 1.1 2 2 2.3 2 .3 0-.3-.9-1.3-2s-2-2-2.3-2c-.3 0 .3.9 1.3 2zm139.9.2-1.9 2.3 2.3-1.9c2.1-1.8 2.7-2.6 1.9-2.6-.2 0-1.2 1-2.3 2.2zm-114.4-.8c0 .2.8 1 1.8 1.7 1.5 1.3 1.6 1.2.3-.4s-2.1-2.1-2.1-1.3zm6.5 6.6c1 1.1 2 2 2.3 2 .3 0-.3-.9-1.3-2s-2-2-2.3-2c-.3 0 .3.9 1.3 2zm73.4.7c-1.3 1.6-1.2 1.7.4.4 1.6-1.3 2.1-2.1 1.3-2.1-.2 0-1 .8-1.7 1.7zm-91.4 5.3c1 1.1 2 2 2.3 2 .3 0-.3-.9-1.3-2s-2-2-2.3-2c-.3 0 .3.9 1.3 2zm111.4.7c-1.3 1.6-1.2 1.7.4.4 1.6-1.3 2.1-2.1 1.3-2.1-.2 0-1 .8-1.7 1.7zM255.5 520c1 1.1 2 2 2.3 2 .3 0-.3-.9-1.3-2s-2-2-2.3-2c-.3 0 .3.9 1.3 2zm6 6c1 1.1 2 2 2.3 2 .3 0-.3-.9-1.3-2s-2-2-2.3-2c-.3 0 .3.9 1.3 2zm70.4-.3c-1.3 1.6-1.2 1.7.4.4 1.6-1.3 2.1-2.1 1.3-2.1-.2 0-1 .8-1.7 1.7z" fill="#FFF" fill-opacity=".19"/><path d="M518 124.4c.7.7 1.3.7 2 0 .6-.6.3-1-1-1s-1.6.4-1 1z" fill="#FFF" fill-opacity=".07"/><path d="M494.5 117c-.3.5-.1 1 .4 1 .6 0 1.1-.5 1.1-1 0-.6-.2-1-.4-1-.3 0-.8.4-1.1 1z" fill="#FFF" fill-opacity=".44"/><path d="M363.8 358.7c.6.2 1.8.2 2.5 0 .6-.3.1-.5-1.3-.5-1.4 0-1.9.2-1.2.5z" fill="#FFF" fill-opacity=".2"/><path d="M395 390c-.9.6-1 1-.3 1 .6 0 1.5-.5 1.8-1 .8-1.2.4-1.2-1.5 0zm-147.6 88.1c-.3.6-.2 1.5.3 2s.9.1.9-1.1c0-2.3-.2-2.4-1.2-.9z" fill="#FFF" fill-opacity=".02"/><path d="M404.2 469c0 1.4.2 1.9.5 1.2.2-.6.2-1.8 0-2.5-.3-.6-.5-.1-.5 1.3z" fill="#FFF" fill-opacity=".13"/><path d="M121.4 265c0 1.3.4 1.6 1 1 .7-.7.7-1.3 0-2-.6-.6-1-.3-1 1z" fill="#FFF" fill-opacity=".09"/><path d="M397.4 191c0 1.3.4 1.6 1 1 .7-.7.7-1.3 0-2-.6-.6-1-.3-1 1zm-128 162c0 1.3.4 1.6 1 1 .7-.7.7-1.3 0-2-.6-.6-1-.3-1 1zm66 74c0 1.3.4 1.6 1 1 .7-.7.7-1.3 0-2-.6-.6-1-.3-1 1z" fill="#FFF" fill-opacity=".03"/><path d="M249.5 476c-.3.6.1.7.9.4 1.8-.7 2.1-1.4.7-1.4-.6 0-1.3.4-1.6 1z" fill="#FFF" fill-opacity=".1"/><path d="M146.1 245.6c0 1.1.3 1.4.6.6.3-.7.2-1.6-.1-1.9-.3-.4-.6.2-.5 1.3z" fill="#FFF" fill-opacity=".26"/><path d="M403.2 469c0 1.4.2 1.9.5 1.2.2-.6.2-1.8 0-2.5-.3-.6-.5-.1-.5 1.3z" fill="#FFF" fill-opacity=".38"/><path d="M263.6 469.7c-.6 1.4-.5 1.5.5.6.7-.7 1-1.5.7-1.8-.3-.3-.9.2-1.2 1.2z" fill="#FFF" fill-opacity=".12"/><path d="M323.4 195c0 1.3.4 1.6 1 1 .7-.7.7-1.3 0-2-.6-.6-1-.3-1 1zm-165.8 28.8c-.2.4.4.8 1.4.8 1 0 1.6-.4 1.4-.8-.3-.4-.9-.8-1.4-.8-.5 0-1.1.4-1.4.8zm64.2.9c.6.2 1.8.2 2.5 0 .6-.3.1-.5-1.3-.5-1.4 0-1.9.2-1.2.5zm-67.9 2c-1.3 1.6-1.2 1.7.4.4 1.6-1.3 2.1-2.1 1.3-2.1-.2 0-1 .8-1.7 1.7zm3 3c-1.3 1.6-1.2 1.7.4.4.9-.7 1.7-1.5 1.7-1.7 0-.8-.8-.3-2.1 1.3zm252.6 2.3c-.7 1.2.2 1.2 3 0 1.9-.8 1.9-.9-.2-.9-1.2-.1-2.5.3-2.8.9zM150 235.5c-1 1.2-1 1.9-.2 2.7 1.7 1.7 3.7-.5 2.5-2.7-.9-1.5-1.1-1.5-2.3 0zm2 1.5c0 .5-.4 1-1 1-.5 0-1-.5-1-1 0-.6.5-1 1-1 .6 0 1 .4 1 1zm-5 8.4c0 .8.4 1.7.9 2 .5.4.7-.3.4-1.4-.6-2.3-1.3-2.6-1.3-.6z" fill="#FFF" fill-opacity=".01"/><path d="M260 474.4c.7.7 1.3.7 2 0 .6-.6.3-1-1-1s-1.6.4-1 1z" fill="#FFF" fill-opacity=".12"/><path d="M158.3 225.5c0 .8.4 1.2.9.9.4-.3.8-.9.8-1.5 0-.5-.4-.9-.8-.9-.5 0-.9.7-.9 1.5zm275.7-.4c0 .5.5.7 1 .4.6-.3 1-.8 1-1.1 0-.2-.4-.4-1-.4-.5 0-1 .5-1 1.1zm-282 9.3c.7.7 1.3.7 2 0 .6-.6.3-1-1-1s-1.6.4-1 1zm-2 2.6c0 .5.5 1 1 1 .6 0 1-.5 1-1 0-.6-.4-1-1-1-.5 0-1 .4-1 1z" fill="#FFF" fill-opacity=".02"/><path d="M156.5 227c.3.5.8 1 1.1 1 .2 0 .4-.5.4-1 0-.6-.5-1-1.1-1-.5 0-.7.4-.4 1zm182.9 174c0 1.3.4 1.6 1 1 .7-.7.7-1.3 0-2-.6-.6-1-.3-1 1z" fill="#FFF" fill-opacity=".05"/></svg>