<svg version="1.0" xmlns="http://www.w3.org/2000/svg" viewBox="0 0 524 642"><path d="M277.4 456.1c-.3.6-.2 1.5.3 2s.9.1.9-1.1c0-2.3-.2-2.4-1.2-.9z" fill="#FFF" fill-opacity=".06"/><path d="M147.9 61.7c-1.3 1.6-1.2 1.7.4.4 1.6-1.3 2.1-2.1 1.3-2.1-.2 0-1 .8-1.7 1.7zM364 60.4c0 .2.8 1 1.8 1.7 1.5 1.3 1.6 1.2.3-.4s-2.1-2.1-2.1-1.3zm-215 7c0 .2.8 1 1.8 1.7 1.5 1.3 1.6 1.2.3-.4s-2.1-2.1-2.1-1.3zm45.9 145.3c-1.3 1.6-1.2 1.7.4.4.9-.7 1.7-1.5 1.7-1.7 0-.8-.8-.3-2.1 1.3zm59.1 4.7c0 .2.7.7 1.6 1 .8.3 1.2.2.9-.4-.6-1-2.5-1.4-2.5-.6zm-52 5c0 .2.8 1 1.8 1.7 1.5 1.3 1.6 1.2.3-.4s-2.1-2.1-2.1-1.3zm-50 66c0 .2.8 1 1.8 1.7 1.5 1.3 1.6 1.2.3-.4s-2.1-2.1-2.1-1.3zm4 6c0 .2.8 1 1.8 1.7 1.5 1.3 1.6 1.2.3-.4s-2.1-2.1-2.1-1.3zm4 6c0 .2.8 1 1.8 1.7 1.5 1.3 1.6 1.2.3-.4s-2.1-2.1-2.1-1.3zm88 6c0 .2.8 1 1.8 1.7 1.5 1.3 1.6 1.2.3-.4s-2.1-2.1-2.1-1.3zm56 0c0 .2.8 1 1.8 1.7 1.5 1.3 1.6 1.2.3-.4s-2.1-2.1-2.1-1.3zm-8 12c0 .2.8 1 1.8 1.7 1.5 1.3 1.6 1.2.3-.4s-2.1-2.1-2.1-1.3zm33.9 7.3c-1.3 1.6-1.2 1.7.4.4 1.6-1.3 2.1-2.1 1.3-2.1-.2 0-1 .8-1.7 1.7zm2.1 6.7c.7.7 1.3.7 2 0 .6-.6.3-1-1-1s-1.6.4-1 1zm-60.1 17.3c-1.3 1.6-1.2 1.7.4.4 1.6-1.3 2.1-2.1 1.3-2.1-.2 0-1 .8-1.7 1.7zm-82 6c-1.3 1.6-1.2 1.7.4.4.9-.7 1.7-1.5 1.7-1.7 0-.8-.8-.3-2.1 1.3zM152 494.4c.7.7 1.3.7 2 0 .6-.6.3-1-1-1s-1.6.4-1 1z" fill="#FFF" fill-opacity=".19"/><path d="M292.3 43.7c2 .2 5.4.2 7.5 0 2-.2.3-.4-3.8-.4s-5.8.2-3.7.4zm-108.5 6c.6.2 1.8.2 2.5 0 .6-.3.1-.5-1.3-.5-1.4 0-1.9.2-1.2.5zm56.5 0c.9.2 2.5.2 3.5 0 .9-.3.1-.5-1.8-.5-1.9 0-2.7.2-1.7.5zm90 0c.9.2 2.5.2 3.5 0 .9-.3.1-.5-1.8-.5-1.9 0-2.7.2-1.7.5zm-166.5 6c.6.2 1.8.2 2.5 0 .6-.3.1-.5-1.3-.5-1.4 0-1.9.2-1.2.5zm214.5 18c.9.2 2.5.2 3.5 0 .9-.3.1-.5-1.8-.5-1.9 0-2.7.2-1.7.5zM79.2 115.5c0 1.6.2 2.2.5 1.2.2-.9.2-2.3 0-3-.3-.6-.5.1-.5 1.8zm359 8.5c0 1.9.2 2.7.5 1.7.2-.9.2-2.5 0-3.5-.3-.9-.5-.1-.5 1.8zm-357.9 4.7c.9.2 2.5.2 3.5 0 .9-.3.1-.5-1.8-.5-1.9 0-2.7.2-1.7.5zm171.5 12c1.7.2 4.7.2 6.5 0 1.7-.2.3-.4-3.3-.4-3.6 0-5 .2-3.2.4zm34 6c.6.2 1.8.2 2.5 0 .6-.3.1-.5-1.3-.5-1.4 0-1.9.2-1.2.5zm19.4 7.3c0 1.9.2 2.7.5 1.7.2-.9.2-2.5 0-3.5-.3-.9-.5-.1-.5 1.8zm-244.1.7c-.1 1.2-.7 2.4-1.3 2.6-1 .4-1 .6 0 .6 1.5.1 2.6-2.3 1.9-4.1-.3-.7-.6-.3-.6.9zm246.1 6.3c0 1.4.2 1.9.5 1.2.2-.6.2-1.8 0-2.5-.3-.6-.5-.1-.5 1.3zm155 10c0 1.4.2 1.9.5 1.2.2-.6.2-1.8 0-2.5-.3-.6-.5-.1-.5 1.3zm-411 2.5c0 1.6.2 2.2.5 1.2.2-.9.2-2.3 0-3-.3-.6-.5.1-.5 1.8zm413 6c0 1.6.2 2.2.5 1.2.2-.9.2-2.3 0-3-.3-.6-.5.1-.5 1.8zm-415 2.5c0 1.9.2 2.7.5 1.7.2-.9.2-2.5 0-3.5-.3-.9-.5-.1-.5 1.8zm118.1.7c1.5.2 3.7.2 5 0 1.2-.2 0-.4-2.8-.4-2.7 0-3.8.2-2.2.4zM466.4 202c0 9.6.2 13.6.3 8.7.2-4.8.2-12.6 0-17.5-.1-4.8-.3-.8-.3 8.8zm-419.1-8c0 3 .2 4.3.4 2.7.2-1.5.2-3.9 0-5.5-.2-1.5-.4-.2-.4 2.8zm111-1c0 2.5.2 3.5.4 2.2.2-1.2.2-3.2 0-4.5-.2-1.2-.4-.2-.4 2.3zm194.9-2c0 1.4.2 1.9.5 1.2.2-.6.2-1.8 0-2.5-.3-.6-.5-.1-.5 1.3zm-59.9 2.7c1.5.2 3.9.2 5.5 0 1.5-.2.2-.4-2.8-.4s-4.3.2-2.7.4zm62 7.3c0 2.5.2 3.5.4 2.2.2-1.2.2-3.2 0-4.5-.2-1.2-.4-.2-.4 2.3zm-136-1.3c2.6.2 6.8.2 9.5 0 2.6-.2.4-.3-4.8-.3s-7.4.1-4.7.3zM45.4 215c0 8 .2 11.2.3 7.2.2-3.9.2-10.5 0-14.5-.1-3.9-.3-.7-.3 7.3zm185.7-8.4c0 1.1.3 1.4.6.6.3-.7.2-1.6-.1-1.9-.3-.4-.6.2-.5 1.3zm5 0c0 1.1.3 1.4.6.6.3-.7.2-1.6-.1-1.9-.3-.4-.6.2-.5 1.3zm45 0c0 1.1.3 1.4.6.6.3-.7.2-1.6-.1-1.9-.3-.4-.6.2-.5 1.3zm-74.8.1c2 .2 5.4.2 7.5 0 2-.2.3-.4-3.8-.4s-5.8.2-3.7.4zm26.9 7.3c0 1.9.2 2.7.5 1.7.2-.9.2-2.5 0-3.5-.3-.9-.5-.1-.5 1.8zm5 0c0 1.9.2 2.7.5 1.7.2-.9.2-2.5 0-3.5-.3-.9-.5-.1-.5 1.8zm41 0c0 1.9.2 2.7.5 1.7.2-.9.2-2.5 0-3.5-.3-.9-.5-.1-.5 1.8zm5 0c0 1.9.2 2.7.5 1.7.2-.9.2-2.5 0-3.5-.3-.9-.5-.1-.5 1.8zm41.6-2.3c.6.2 1.8.2 2.5 0 .6-.3.1-.5-1.3-.5-1.4 0-1.9.2-1.2.5zm-164 6c.6.2 1.8.2 2.5 0 .6-.3.1-.5-1.3-.5-1.4 0-1.9.2-1.2.5zm184 0c.6.2 1.8.2 2.5 0 .6-.3.1-.5-1.3-.5-1.4 0-1.9.2-1.2.5zm-63.5 9.3c0 4.7.2 6.6.4 4.2.2-2.3.2-6.1 0-8.5-.2-2.3-.4-.4-.4 4.3zm-5-2c0 3 .2 4.3.4 2.7.2-1.5.2-3.9 0-5.5-.2-1.5-.4-.2-.4 2.8zm-41.9 6c0 5.8.1 8.1.3 5.2.2-2.8.2-7.6 0-10.5-.2-2.8-.3-.5-.3 5.3zm4.7-5.8c-.1 2.7.3 4.8.7 4.8.4 0 .6-1.7.4-3.8-.5-5.8-1-6.2-1.1-1zm228.3 26.3c0 14.8.2 21.1.3 13.8.2-7.2.2-19.4 0-27-.1-7.6-.3-1.7-.3 13.2zm-169.2-22c0 1.6.2 2.2.5 1.2.2-.9.2-2.3 0-3-.3-.6-.5.1-.5 1.8zM112.4 241c0 6.9.1 9.7.3 6.2.2-3.4.2-9 0-12.5-.2-3.4-.3-.6-.3 6.3zm54.7-10.4c0 1.1.3 1.4.6.6.3-.7.2-1.6-.1-1.9-.3-.4-.6.2-.5 1.3zm226.7.1c.6.2 1.8.2 2.5 0 .6-.3.1-.5-1.3-.5-1.4 0-1.9.2-1.2.5zm-149.6 4.8c0 1.6.2 2.2.5 1.2.2-.9.2-2.3 0-3-.3-.6-.5.1-.5 1.8zm53.1 6.5c0 4.1.2 5.8.4 3.7.2-2 .2-5.4 0-7.5-.2-2-.4-.3-.4 3.8zm-169.5-5.3c.6.2 1.8.2 2.5 0 .6-.3.1-.5-1.3-.5-1.4 0-1.9.2-1.2.5zm147.5 7.3c0 4.1.2 5.8.4 3.7.2-2 .2-5.4 0-7.5-.2-2-.4-.3-.4 3.8zm5.1 1.5c0 4.9.1 7.1.3 4.8.2-2.3.2-6.4 0-9-.2-2.6-.3-.8-.3 4.2zm121 2c0 4.9.1 7.1.3 4.8.2-2.3.2-6.4 0-9-.2-2.6-.3-.8-.3 4.2zm-358 7.5c0 6.9.1 9.7.3 6.2.2-3.4.2-9 0-12.5-.2-3.4-.3-.6-.3 6.3zm172.8-9.5c0 1.6.2 2.2.5 1.2.2-.9.2-2.3 0-3-.3-.6-.5.1-.5 1.8zm21.1 2.5c0 3 .2 4.3.4 2.7.2-1.5.2-3.9 0-5.5-.2-1.5-.4-.2-.4 2.8zm119 1.5c0 2.7.2 3.8.4 2.2.2-1.5.2-3.7 0-5-.2-1.2-.4 0-.4 2.8zm-112 5c0 4.4.2 6.1.4 3.7.2-2.3.2-5.9 0-8-.2-2-.4-.1-.4 4.3zm-85-.5c0 3 .2 4.3.4 2.7.2-1.5.2-3.9 0-5.5-.2-1.5-.4-.2-.4 2.8zm59 1c0 2.5.2 3.5.4 2.2.2-1.2.2-3.2 0-4.5-.2-1.2-.4-.2-.4 2.3zm21 3.5c0 2.2.2 3 .4 1.7.2-1.2.2-3 0-4-.3-.9-.5.1-.4 2.3zm114.8.1c0 1.1.3 1.4.6.6.3-.7.2-1.6-.1-1.9-.3-.4-.6.2-.5 1.3zm-78.8 4.9c0 2.7.2 3.8.4 2.2.2-1.5.2-3.7 0-5-.2-1.2-.4 0-.4 2.8zm-163.1-.5c0 1.4.2 1.9.5 1.2.2-.6.2-1.8 0-2.5-.3-.6-.5-.1-.5 1.3zm49 0c0 1.4.2 1.9.5 1.2.2-.6.2-1.8 0-2.5-.3-.6-.5-.1-.5 1.3zm119.1 1.5c0 2.2.2 3 .4 1.7.2-1.2.2-3 0-4-.3-.9-.5.1-.4 2.3zm119 0c0 2.2.2 3 .4 1.7.2-1.2.2-3 0-4-.3-.9-.5.1-.4 2.3zM220.4 273c0 5.8.1 8.1.3 5.2.2-2.8.2-7.6 0-10.5-.2-2.8-.3-.5-.3 5.3zm77-1.5c0 4.9.1 7.1.3 4.8.2-2.3.2-6.4 0-9-.2-2.6-.3-.8-.3 4.2zm-55.2-3.5c0 1.9.2 2.7.5 1.7.2-.9.2-2.5 0-3.5-.3-.9-.5-.1-.5 1.8zm-5 1c0 1.4.2 1.9.5 1.2.2-.6.2-1.8 0-2.5-.3-.6-.5-.1-.5 1.3zm39.9 3.6c0 1.1.3 1.4.6.6.3-.7.2-1.6-.1-1.9-.3-.4-.6.2-.5 1.3zm5 0c0 1.1.3 1.4.6.6.3-.7.2-1.6-.1-1.9-.3-.4-.6.2-.5 1.3zm-160.3 5.1c1.7.2 4.7.2 6.5 0 1.7-.2.3-.4-3.3-.4-3.6 0-5 .2-3.2.4zm157.4 2.3c0 1.9.2 2.7.5 1.7.2-.9.2-2.5 0-3.5-.3-.9-.5-.1-.5 1.8zm5 0c0 1.9.2 2.7.5 1.7.2-.9.2-2.5 0-3.5-.3-.9-.5-.1-.5 1.8zm91.6-2.3c.6.2 1.8.2 2.5 0 .6-.3.1-.5-1.3-.5-1.4 0-1.9.2-1.2.5zm8 0c.6.2 1.8.2 2.5 0 .6-.3.1-.5-1.3-.5-1.4 0-1.9.2-1.2.5zM45.4 305c0 12.4.2 17.4.3 11.2.2-6.1.2-16.3 0-22.5-.1-6.1-.3-1.1-.3 11.3zm253.7-20.4c0 1.1.3 1.4.6.6.3-.7.2-1.6-.1-1.9-.3-.4-.6.2-.5 1.3zm-69.8 5.4c0 3 .2 4.3.4 2.7.2-1.5.2-3.9 0-5.5-.2-1.5-.4-.2-.4 2.8zm5-1.5c0 2.2.2 3 .4 1.7.2-1.2.2-3 0-4-.3-.9-.5.1-.4 2.3zm46.9-1c0 1.6.2 2.2.5 1.2.2-.9.2-2.3 0-3-.3-.6-.5.1-.5 1.8zm5-.5c0 1.4.2 1.9.5 1.2.2-.6.2-1.8 0-2.5-.3-.6-.5-.1-.5 1.3zm184.2 12.5c0 8.2.2 11.5.3 7.2.2-4.3.2-11 0-15-.1-4-.3-.5-.3 7.8zM138.3 297c0 2.5.2 3.5.4 2.2.2-1.2.2-3.2 0-4.5-.2-1.2-.4-.2-.4 2.3zm140.8-2.4c0 1.1.3 1.4.6.6.3-.7.2-1.6-.1-1.9-.3-.4-.6.2-.5 1.3zm5 0c0 1.1.3 1.4.6.6.3-.7.2-1.6-.1-1.9-.3-.4-.6.2-.5 1.3zm89.2 4.9c0 2.7.2 3.8.4 2.2.2-1.5.2-3.7 0-5-.2-1.2-.4 0-.4 2.8zm-175-2.8c.9.2 2.3.2 3 0 .6-.3-.1-.5-1.8-.5-1.6 0-2.2.2-1.2.5zm13.8 5.9c0 1.1.3 1.4.6.6.3-.7.2-1.6-.1-1.9-.3-.4-.6.2-.5 1.3zm-71.9 2.4c0 1.4.2 1.9.5 1.2.2-.6.2-1.8 0-2.5-.3-.6-.5-.1-.5 1.3zm231.1 6.5c0 2.7.2 3.8.4 2.2.2-1.5.2-3.7 0-5-.2-1.2-.4 0-.4 2.8zm-182.2 1.1c0 1.1.3 1.4.6.6.3-.7.2-1.6-.1-1.9-.3-.4-.6.2-.5 1.3zm141 6.5c0 2.4.4 6.2.9 8.4.6 2.9.7 1.7.3-4-.6-8.8-1.3-11.4-1.2-4.4zm-142.9.4c0 1.6.2 2.2.5 1.2.2-.9.2-2.3 0-3-.3-.6-.5.1-.5 1.8zm126 2.5c0 1.9.2 2.7.5 1.7.2-.9.2-2.5 0-3.5-.3-.9-.5-.1-.5 1.8zm155.1 2c0 3 .2 4.3.4 2.7.2-1.5.2-3.9 0-5.5-.2-1.5-.4-.2-.4 2.8zm-266 .5c0 2.2.2 3 .4 1.7.2-1.2.2-3 0-4-.3-.9-.5.1-.4 2.3zm13 4.5c0 2.5.2 3.5.4 2.2.2-1.2.2-3.2 0-4.5-.2-1.2-.4-.2-.4 2.3zm87 4c0 2.5.2 3.5.4 2.2.2-1.2.2-3.2 0-4.5-.2-1.2-.4-.2-.4 2.3zm12.8-2.4c0 1.1.3 1.4.6.6.3-.7.2-1.6-.1-1.9-.3-.4-.6.2-.5 1.3zM200.2 334c0 1.9.2 2.7.5 1.7.2-.9.2-2.5 0-3.5-.3-.9-.5-.1-.5 1.8zm-153 1.5c0 1.6.2 2.2.5 1.2.2-.9.2-2.3 0-3-.3-.6-.5.1-.5 1.8zm419 0c0 1.6.2 2.2.5 1.2.2-.9.2-2.3 0-3-.3-.6-.5.1-.5 1.8zm-227.9 5c0 2.2.2 3 .4 1.7.2-1.2.2-3 0-4-.3-.9-.5.1-.4 2.3zm-23.2 2.1c0 1.1.3 1.4.6.6.3-.7.2-1.6-.1-1.9-.3-.4-.6.2-.5 1.3zm249 0c0 1.1.3 1.4.6.6.3-.7.2-1.6-.1-1.9-.3-.4-.6.2-.5 1.3zM266.2 346c0 1.9.2 2.7.5 1.7.2-.9.2-2.5 0-3.5-.3-.9-.5-.1-.5 1.8zm-17 1c0 1.4.2 1.9.5 1.2.2-.6.2-1.8 0-2.5-.3-.6-.5-.1-.5 1.3zm191.1 5.5c0 3.3.2 4.5.4 2.7.2-1.8.2-4.5 0-6s-.4 0-.4 3.3zm3-1.5c0 2.5.2 3.5.4 2.2.2-1.2.2-3.2 0-4.5-.2-1.2-.4-.2-.4 2.3zm-259.1 1c0 1.9.2 2.7.5 1.7.2-.9.2-2.5 0-3.5-.3-.9-.5-.1-.5 1.8zm67.1 4.5c0 3.3.2 4.5.4 2.7.2-1.8.2-4.5 0-6s-.4 0-.4 3.3zm13 1c0 3.8.2 5.3.4 3.2.2-2 .2-5.2 0-7-.2-1.7-.4-.1-.4 3.8zm65 1.5c0 4.7.2 6.6.4 4.2.2-2.3.2-6.1 0-8.5-.2-2.3-.4-.4-.4 4.3zm-173.1-4c0 1.4.2 1.9.5 1.2.2-.6.2-1.8 0-2.5-.3-.6-.5-.1-.5 1.3zm201 .5c0 1.6.2 2.2.5 1.2.2-.9.2-2.3 0-3-.3-.6-.5.1-.5 1.8zm-88 2.5c0 1.9.2 2.7.5 1.7.2-.9.2-2.5 0-3.5-.3-.9-.5-.1-.5 1.8zm-95.9 2.5c0 2.2.2 3 .4 1.7.2-1.2.2-3 0-4-.3-.9-.5.1-.4 2.3zm4.8-.3c.1 1.8.5 4.4.9 5.8.6 1.9.8 1.1.9-3.3.1-3.2-.3-5.7-.9-5.7-.5 0-1 1.5-.9 3.2zm129.2 2.3c0 3.3.2 4.5.4 2.7.2-1.8.2-4.5 0-6s-.4 0-.4 3.3zm138-2c0 2.2.2 3 .4 1.7.2-1.2.2-3 0-4-.3-.9-.5.1-.4 2.3zm-237.2.1c0 1.1.3 1.4.6.6.3-.7.2-1.6-.1-1.9-.3-.4-.6.2-.5 1.3zm38.1.4c0 1.4.2 1.9.5 1.2.2-.6.2-1.8 0-2.5-.3-.6-.5-.1-.5 1.3zm93.9-.4c0 1.1.3 1.4.6.6.3-.7.2-1.6-.1-1.9-.3-.4-.6.2-.5 1.3zm118 0c0 1.1.3 1.4.6.6.3-.7.2-1.6-.1-1.9-.3-.4-.6.2-.5 1.3zm-300 2c0 1.1.3 1.4.6.6.3-.7.2-1.6-.1-1.9-.3-.4-.6.2-.5 1.3zm29.1 1.4c0 1.9.2 2.7.5 1.7.2-.9.2-2.5 0-3.5-.3-.9-.5-.1-.5 1.8zm-125.9 4c0 3 .2 4.3.4 2.7.2-1.5.2-3.9 0-5.5-.2-1.5-.4-.2-.4 2.8zm377-1c0 2.5.2 3.5.4 2.2.2-1.2.2-3.2 0-4.5-.2-1.2-.4-.2-.4 2.3zm-254.1.5c0 1.6.2 2.2.5 1.2.2-.9.2-2.3 0-3-.3-.6-.5.1-.5 1.8zm26.1 1.5c0 2.5.2 3.5.4 2.2.2-1.2.2-3.2 0-4.5-.2-1.2-.4-.2-.4 2.3zm115.8-2.4c0 1.1.3 1.4.6.6.3-.7.2-1.6-.1-1.9-.3-.4-.6.2-.5 1.3zm-96.7 9.9c0 5.5.1 7.6.3 4.7.2-2.9.2-7.4 0-10-.2-2.6-.3-.2-.3 5.3zm89.8-7.5c0 1.4.2 1.9.5 1.2.2-.6.2-1.8 0-2.5-.3-.6-.5-.1-.5 1.3zm136.9-.4c0 1.1.3 1.4.6.6.3-.7.2-1.6-.1-1.9-.3-.4-.6.2-.5 1.3zM288.3 374c0 3 .2 4.3.4 2.7.2-1.5.2-3.9 0-5.5-.2-1.5-.4-.2-.4 2.8zm158.9-2.5c0 1.6.2 2.2.5 1.2.2-.9.2-2.3 0-3-.3-.6-.5.1-.5 1.8zM185.3 377c0 3.6.2 5 .4 3.2.2-1.7.2-4.7 0-6.5-.2-1.7-.4-.3-.4 3.3zm8.9-4c0 1.4.2 1.9.5 1.2.2-.6.2-1.8 0-2.5-.3-.6-.5-.1-.5 1.3zm111 1c0 1.9.2 2.7.5 1.7.2-.9.2-2.5 0-3.5-.3-.9-.5-.1-.5 1.8zm9.1.5c0 2.2.2 3 .4 1.7.2-1.2.2-3 0-4-.3-.9-.5.1-.4 2.3zm14 .5c0 2.5.2 3.5.4 2.2.2-1.2.2-3.2 0-4.5-.2-1.2-.4-.2-.4 2.3zm-254.2 4.2c.1 6.8.6 6.1 1.1-1.5.2-2.6 0-4.7-.4-4.7-.5 0-.7 2.8-.7 6.2zm127.1-3.7c0 1.6.2 2.2.5 1.2.2-.9.2-2.3 0-3-.3-.6-.5.1-.5 1.8zm-138 1.5c0 1.4.2 1.9.5 1.2.2-.6.2-1.8 0-2.5-.3-.6-.5-.1-.5 1.3zm149.1 6c0 4.7.2 6.6.4 4.2.2-2.3.2-6.1 0-8.5-.2-2.3-.4-.4-.4 4.3zm224-4.5c0 2.2.2 3 .4 1.7.2-1.2.2-3 0-4-.3-.9-.5.1-.4 2.3zm-122.2 3.1c0 1.1.3 1.4.6.6.3-.7.2-1.6-.1-1.9-.3-.4-.6.2-.5 1.3zm-27.9 1.4c0 1.4.2 1.9.5 1.2.2-.6.2-1.8 0-2.5-.3-.6-.5-.1-.5 1.3zm17 0c0 1.4.2 1.9.5 1.2.2-.6.2-1.8 0-2.5-.3-.6-.5-.1-.5 1.3zm27.1 1.5c0 2.2.2 3 .4 1.7.2-1.2.2-3 0-4-.3-.9-.5.1-.4 2.3zm-76.1.5c0 1.4.2 1.9.5 1.2.2-.6.2-1.8 0-2.5-.3-.6-.5-.1-.5 1.3zm7 1c0 1.9.2 2.7.5 1.7.2-.9.2-2.5 0-3.5-.3-.9-.5-.1-.5 1.8zm-89 1c0 1.4.2 1.9.5 1.2.2-.6.2-1.8 0-2.5-.3-.6-.5-.1-.5 1.3zm262 1c0 1.9.2 2.7.5 1.7.2-.9.2-2.5 0-3.5-.3-.9-.5-.1-.5 1.8zm-353 1c0 1.4.2 1.9.5 1.2.2-.6.2-1.8 0-2.5-.3-.6-.5-.1-.5 1.3zm102 0c0 1.4.2 1.9.5 1.2.2-.6.2-1.8 0-2.5-.3-.6-.5-.1-.5 1.3zm19.9-.4c0 1.1.3 1.4.6.6.3-.7.2-1.6-.1-1.9-.3-.4-.6.2-.5 1.3zm98.1.9c0 1.6.2 2.2.5 1.2.2-.9.2-2.3 0-3-.3-.6-.5.1-.5 1.8zm42-.5c0 1.4.2 1.9.5 1.2.2-.6.2-1.8 0-2.5-.3-.6-.5-.1-.5 1.3zm-19.9 4c0 2.5.2 3.5.4 2.2.2-1.2.2-3.2 0-4.5-.2-1.2-.4-.2-.4 2.3zm10.5-1.3c.6.2 1.8.2 2.5 0 .6-.3.1-.5-1.3-.5-1.4 0-1.9.2-1.2.5zM83.2 395c0 1.4.2 1.9.5 1.2.2-.6.2-1.8 0-2.5-.3-.6-.5-.1-.5 1.3zm349 0c0 1.4.2 1.9.5 1.2.2-.6.2-1.8 0-2.5-.3-.6-.5-.1-.5 1.3zm-240 2.5c0 1.6.2 2.2.5 1.2.2-.9.2-2.3 0-3-.3-.6-.5.1-.5 1.8zm106.9-.9c0 1.1.3 1.4.6.6.3-.7.2-1.6-.1-1.9-.3-.4-.6.2-.5 1.3zM85.2 401c0 1.4.2 1.9.5 1.2.2-.6.2-1.8 0-2.5-.3-.6-.5-.1-.5 1.3zm120 0c0 1.4.2 1.9.5 1.2.2-.6.2-1.8 0-2.5-.3-.6-.5-.1-.5 1.3zm91.9 1.6c0 1.1.3 1.4.6.6.3-.7.2-1.6-.1-1.9-.3-.4-.6.2-.5 1.3zM192.3 407c0 3 .2 4.3.4 2.7.2-1.5.2-3.9 0-5.5-.2-1.5-.4-.2-.4 2.8zm-105.2-.4c0 1.1.3 1.4.6.6.3-.7.2-1.6-.1-1.9-.3-.4-.6.2-.5 1.3zm120.1.4c0 1.4.2 1.9.5 1.2.2-.6.2-1.8 0-2.5-.3-.6-.5-.1-.5 1.3zm99 4c0 1.4.2 1.9.5 1.2.2-.6.2-1.8 0-2.5-.3-.6-.5-.1-.5 1.3zm37 1c0 1.9.2 2.7.5 1.7.2-.9.2-2.5 0-3.5-.3-.9-.5-.1-.5 1.8zm-134 1c0 1.4.2 1.9.5 1.2.2-.6.2-1.8 0-2.5-.3-.6-.5-.1-.5 1.3zm111.9.6c0 1.1.3 1.4.6.6.3-.7.2-1.6-.1-1.9-.3-.4-.6.2-.5 1.3zm-61.3 2.1c.6.2 1.8.2 2.5 0 .6-.3.1-.5-1.3-.5-1.4 0-1.9.2-1.2.5zm-151.5 7.8c0 3.8.2 5.3.4 3.2.2-2 .2-5.2 0-7-.2-1.7-.4-.1-.4 3.8zm60-1c0 3.3.2 4.5.4 2.7.2-1.8.2-4.5 0-6s-.4 0-.4 3.3zm240.3.7c.9 8.4 1.4 8.6 1.4.5 0-4-.4-6.7-1-6.7-.7 0-.9 2.1-.4 6.2zm-67.3.8c0 3 .2 4.3.4 2.7.2-1.5.2-3.9 0-5.5-.2-1.5-.4-.2-.4 2.8zm-230.1 0c0 1.9.2 2.7.5 1.7.2-.9.2-2.5 0-3.5-.3-.9-.5-.1-.5 1.8zm118.1 4.5c0 4.4.2 6.1.4 3.7.2-2.3.2-5.9 0-8-.2-2-.4-.1-.4 4.3zm58.5-5.8c.6.2 1.8.2 2.5 0 .6-.3.1-.5-1.3-.5-1.4 0-1.9.2-1.2.5zm5.3 3.9c0 1.1.3 1.4.6.6.3-.7.2-1.6-.1-1.9-.3-.4-.6.2-.5 1.3zm-77.7 9.9c0 5.5.1 7.6.3 4.7.2-2.9.2-7.4 0-10-.2-2.6-.3-.2-.3 5.3zm68.9-3c0 3.8.2 5.3.4 3.2.2-2 .2-5.2 0-7-.2-1.7-.4-.1-.4 3.8zm121.8-4.9c0 1.1.3 1.4.6.6.3-.7.2-1.6-.1-1.9-.3-.4-.6.2-.5 1.3zm-129.7.8c-.3.7-.3 3.5-.1 6.2l.3 4.9.2-5.7c.2-4.4.6-5.8 2-6.1 1.6-.4 1.6-.5-.1-.6-1 0-2 .5-2.3 1.3zM103.2 431c0 1.4.2 1.9.5 1.2.2-.6.2-1.8 0-2.5-.3-.6-.5-.1-.5 1.3zm10 .5c0 1.6.2 2.2.5 1.2.2-.9.2-2.3 0-3-.3-.6-.5.1-.5 1.8zm121 2c0 1.6.2 2.2.5 1.2.2-.9.2-2.3 0-3-.3-.6-.5.1-.5 1.8zm12 .5c0 1.9.2 2.7.5 1.7.2-.9.2-2.5 0-3.5-.3-.9-.5-.1-.5 1.8zm20.9-1.4c0 1.1.3 1.4.6.6.3-.7.2-1.6-.1-1.9-.3-.4-.6.2-.5 1.3zm24 0c0 1.1.3 1.4.6.6.3-.7.2-1.6-.1-1.9-.3-.4-.6.2-.5 1.3zm-29 2c0 1.1.3 1.4.6.6.3-.7.2-1.6-.1-1.9-.3-.4-.6.2-.5 1.3zm17.2 1.9c0 2.2.2 3 .4 1.7.2-1.2.2-3 0-4-.3-.9-.5.1-.4 2.3zm124.8-1.9c0 1.1.3 1.4.6.6.3-.7.2-1.6-.1-1.9-.3-.4-.6.2-.5 1.3zM251.2 438c0 1.9.2 2.7.5 1.7.2-.9.2-2.5 0-3.5-.3-.9-.5-.1-.5 1.8zm87.9-.4c0 1.1.3 1.4.6.6.3-.7.2-1.6-.1-1.9-.3-.4-.6.2-.5 1.3zm-224 1c0 1.1.3 1.4.6.6.3-.7.2-1.6-.1-1.9-.3-.4-.6.2-.5 1.3zm149.6-.2c-.4 1-.5 2.1-.2 2.4.9.9 1.7-.6 1.3-2.5-.3-1.7-.4-1.7-1.1.1zm-26.4 1.3c.9.2 2.5.2 3.5 0 .9-.3.1-.5-1.8-.5-1.9 0-2.7.2-1.7.5zm61.8.9c0 1.1.3 1.4.6.6.3-.7.2-1.6-.1-1.9-.3-.4-.6.2-.5 1.3zm102 0c0 1.1.3 1.4.6.6.3-.7.2-1.6-.1-1.9-.3-.4-.6.2-.5 1.3zm-285 4c0 1.1.3 1.4.6.6.3-.7.2-1.6-.1-1.9-.3-.4-.6.2-.5 1.3zm109.3 8.5c-.5.8-.3.9.6.4.7-.4 1.6-.2 2.2.6.8 1.2.9 1.2.6 0-.6-2-2.4-2.5-3.4-1zm61.2-.4c.7.4 1.4 1.7 1.7 2.8.5 1.6.5 1.5.4-.4-.1-1.4-.9-2.6-1.7-2.8-1-.3-1.1-.2-.4.4zm-32.4 4.8c0 1.6.2 2.2.5 1.2.2-.9.2-2.3 0-3-.3-.6-.5.1-.5 1.8zm5 0c0 1.6.2 2.2.5 1.2.2-.9.2-2.3 0-3-.3-.6-.5.1-.5 1.8zm8.9-.9c0 1.1.3 1.4.6.6.3-.7.2-1.6-.1-1.9-.3-.4-.6.2-.5 1.3zm13 0c0 1.1.3 1.4.6.6.3-.7.2-1.6-.1-1.9-.3-.4-.6.2-.5 1.3zm21.1 6.9c0 1.6.2 2.2.5 1.2.2-.9.2-2.3 0-3-.3-.6-.5.1-.5 1.8zM150 469.2c0 1.9.2 2 1 .8 1.3-1.9 1.3-3 0-3-.5 0-1 1-1 2.2zm126.8.5c1.2.2 3 .2 4 0 .9-.3-.1-.5-2.3-.4-2.2 0-3 .2-1.7.4zM152.2 478c0 1.9.2 2.7.5 1.7.2-.9.2-2.5 0-3.5-.3-.9-.5-.1-.5 1.8zm47.1.5c0 2.2.2 3 .4 1.7.2-1.2.2-3 0-4-.3-.9-.5.1-.4 2.3zm67.9-.5c0 1.9.2 2.7.5 1.7.2-.9.2-2.5 0-3.5-.3-.9-.5-.1-.5 1.8zm93.6 7.7c.5 7.6 1 8.3 1.1 1.5 0-3.4-.2-6.2-.7-6.2-.4 0-.6 2.1-.4 4.7zm-90.5-3c.9.2 2.5.2 3.5 0 .9-.3.1-.5-1.8-.5-1.9 0-2.7.2-1.7.5zm-116 6.3c0 2.5.2 3.5.4 2.2.2-1.2.2-3.2 0-4.5-.2-1.2-.4-.2-.4 2.3zm104 10.7c2 .2 5.4.2 7.5 0 2-.2.3-.4-3.8-.4s-5.8.2-3.7.4zm28.5 38.8c.2 1.9.6 3.5.8 3.5.2 0 .4-1.6.4-3.5s-.4-3.5-.8-3.5-.6 1.6-.4 3.5zm-54.7 2.1c0 1.1.3 1.4.6.6.3-.7.2-1.6-.1-1.9-.3-.4-.6.2-.5 1.3zm-1.9 6.9c0 1.6.2 2.2.5 1.2.2-.9.2-2.3 0-3-.3-.6-.5.1-.5 1.8zm59.1 3c0 3.3.2 4.5.4 2.7.2-1.8.2-4.5 0-6s-.4 0-.4 3.3zm-48.1.5c0 1.4.2 1.9.5 1.2.2-.6.2-1.8 0-2.5-.3-.6-.5-.1-.5 1.3zm-13 5c0 1.9.2 2.7.5 1.7.2-.9.2-2.5 0-3.5-.3-.9-.5-.1-.5 1.8zm63.2 12.5c0 5.5.1 7.6.3 4.7.2-2.9.2-7.4 0-10-.2-2.6-.3-.2-.3 5.3zm-65.2-2.5c0 1.9.2 2.7.5 1.7.2-.9.2-2.5 0-3.5-.3-.9-.5-.1-.5 1.8zm20.9-1.4c0 1.1.3 1.4.6.6.3-.7.2-1.6-.1-1.9-.3-.4-.6.2-.5 1.3zm2.1 6.4c0 1.4.2 1.9.5 1.2.2-.6.2-1.8 0-2.5-.3-.6-.5-.1-.5 1.3zm2 9c0 1.9.2 2.7.5 1.7.2-.9.2-2.5 0-3.5-.3-.9-.5-.1-.5 1.8zm15-1c0 1.4.2 1.9.5 1.2.2-.6.2-1.8 0-2.5-.3-.6-.5-.1-.5 1.3zm-12.9 11.5c0 3.3.2 4.5.4 2.7.2-1.8.2-4.5 0-6s-.4 0-.4 3.3zm10.9-3c0 1.6.2 2.2.5 1.2.2-.9.2-2.3 0-3-.3-.6-.5.1-.5 1.8zm-2.1 7.1c0 1.1.3 1.4.6.6.3-.7.2-1.6-.1-1.9-.3-.4-.6.2-.5 1.3z" fill="#FFF" fill-opacity=".25"/><path d="M208.8 44.7c3.9.2 10.5.2 14.5 0 3.9-.1.7-.3-7.3-.3s-11.2.2-7.2.3zm76 0c.7.3 1.6.2 1.9-.1.4-.3-.2-.6-1.3-.5-1.1 0-1.4.3-.6.6zm24.5 0c1.5.2 3.7.2 5 0 1.2-.2 0-.4-2.8-.4-2.7 0-3.8.2-2.2.4zm-118.5 2c1.8.2 4.5.2 6 0s0-.4-3.3-.4-4.5.2-2.7.4zm42 0c1.2.2 3 .2 4 0 .9-.3-.1-.5-2.3-.4-2.2 0-3 .2-1.7.4zm48 0c.7.3 1.6.2 1.9-.1.4-.3-.2-.6-1.3-.5-1.1 0-1.4.3-.6.6zm38.5 0c1.5.2 3.7.2 5 0 1.2-.2 0-.4-2.8-.4-2.7 0-3.8.2-2.2.4zm-142.5 4c.7.3 1.6.2 1.9-.1.4-.3-.2-.6-1.3-.5-1.1 0-1.4.3-.6.6zm77.5 0c3.1.2 8.3.2 11.5 0 3.1-.2.5-.3-5.8-.3s-8.9.1-5.7.3zm85 0c1.5.2 3.7.2 5 0 1.2-.2 0-.4-2.8-.4-2.7 0-3.8.2-2.2.4zM170.5 52l-3 .8 2.7.1c1.5 0 3-.4 3.3-.9.3-.6.5-.9.3-.9-.2.1-1.6.5-3.3.9zm177.8.7c.9.2 2.3.2 3 0 .6-.3-.1-.5-1.8-.5-1.6 0-2.2.2-1.2.5zm-192.5 4c1.2.2 3 .2 4 0 .9-.3-.1-.5-2.3-.4-2.2 0-3 .2-1.7.4zm-5 2c.7.3 1.6.2 1.9-.1.4-.3-.2-.6-1.3-.5-1.1 0-1.4.3-.6.6zM138.5 70l-11 .6 10.5.2c5.8.1 11.2-.3 12-.8.8-.5 1.1-.9.5-.8-.5.1-5.9.5-12 .8zm233.8.7c.9.2 2.3.2 3 0 .6-.3-.1-.5-1.8-.5-1.6 0-2.2.2-1.2.5zm14.5 4c1.2.2 3 .2 4 0 .9-.3-.1-.5-2.3-.4-2.2 0-3 .2-1.7.4zm7.5 2c.9.2 2.3.2 3 0 .6-.3-.1-.5-1.8-.5-1.6 0-2.2.2-1.2.5zm9.5 4c.7.3 1.6.2 1.9-.1.4-.3-.2-.6-1.3-.5-1.1 0-1.4.3-.6.6zm-319 50c.7.3 1.6.2 1.9-.1.4-.3-.2-.6-1.3-.5-1.1 0-1.4.3-.6.6zm-8 4c.7.3 1.6.2 1.9-.1.4-.3-.2-.6-1.3-.5-1.1 0-1.4.3-.6.6zm84 60c.7.3 1.6.2 1.9-.1.4-.3-.2-.6-1.3-.5-1.1 0-1.4.3-.6.6zm143 0c.7.3 1.6.2 1.9-.1.4-.3-.2-.6-1.3-.5-1.1 0-1.4.3-.6.6zm4 2c.7.3 1.6.2 1.9-.1.4-.3-.2-.6-1.3-.5-1.1 0-1.4.3-.6.6zm-105.1 4c1.8.2 5 .2 7 0 2.1-.2.7-.4-3.2-.4-3.8 0-5.5.2-3.8.4zm-5.9 2c.7.3 1.6.2 1.9-.1.4-.3-.2-.6-1.3-.5-1.1 0-1.4.3-.6.6zm-19 10c2.3.2 5.9.2 8 0 2-.2.1-.4-4.3-.4-4.4 0-6.1.2-3.7.4zm133.5 0c.9.2 2.3.2 3 0 .6-.3-.1-.5-1.8-.5-1.6 0-2.2.2-1.2.5zm22 0c1.5.2 3.7.2 5 0 1.2-.2 0-.4-2.8-.4-2.7 0-3.8.2-2.2.4zm-165.5 2c1.2.2 3 .2 4 0 .9-.3-.1-.5-2.3-.4-2.2 0-3 .2-1.7.4zm174 0c.7.3 1.6.2 1.9-.1.4-.3-.2-.6-1.3-.5-1.1 0-1.4.3-.6.6zm-82.2 1.1c-.2.4.4.8 1.4.8 1 0 1.6-.4 1.4-.8-.3-.4-.9-.8-1.4-.8-.5 0-1.1.4-1.4.8zm-102.8 2.9c.7.3 1.6.2 1.9-.1.4-.3-.2-.6-1.3-.5-1.1 0-1.4.3-.6.6zm94 0c.7.3 1.6.2 1.9-.1.4-.3-.2-.6-1.3-.5-1.1 0-1.4.3-.6.6zm144 54c.7.3 1.6.2 1.9-.1.4-.3-.2-.6-1.3-.5-1.1 0-1.4.3-.6.6zm-5.5 2c.9.2 2.3.2 3 0 .6-.3-.1-.5-1.8-.5-1.6 0-2.2.2-1.2.5zm-254 4c1.5.2 3.7.2 5 0 1.2-.2 0-.4-2.8-.4-2.7 0-3.8.2-2.2.4zm235.5 0c.7.3 1.6.2 1.9-.1.4-.3-.2-.6-1.3-.5-1.1 0-1.4.3-.6.6zm-227 2c.7.3 1.6.2 1.9-.1.4-.3-.2-.6-1.3-.5-1.1 0-1.4.3-.6.6zm223 0c.7.3 1.6.2 1.9-.1.4-.3-.2-.6-1.3-.5-1.1 0-1.4.3-.6.6zm-157 18c.7.3 1.6.2 1.9-.1.4-.3-.2-.6-1.3-.5-1.1 0-1.4.3-.6.6zm99 0c1.7.2 4.7.2 6.5 0 1.7-.2.3-.4-3.3-.4-3.6 0-5 .2-3.2.4zm40 6c.7.3 1.6.2 1.9-.1.4-.3-.2-.6-1.3-.5-1.1 0-1.4.3-.6.6zm-121 6c1.2.2 3.2.2 4.5 0 1.2-.2.2-.4-2.3-.4s-3.5.2-2.2.4zm51.5 0c.9.2 2.3.2 3 0 .6-.3-.1-.5-1.8-.5-1.6 0-2.2.2-1.2.5zm8.5 0c.7.3 1.6.2 1.9-.1.4-.3-.2-.6-1.3-.5-1.1 0-1.4.3-.6.6zm-48 4c.7.3 1.6.2 1.9-.1.4-.3-.2-.6-1.3-.5-1.1 0-1.4.3-.6.6zm21 8c.7.3 1.6.2 1.9-.1.4-.3-.2-.6-1.3-.5-1.1 0-1.4.3-.6.6zm90 10c.7.3 1.6.2 1.9-.1.4-.3-.2-.6-1.3-.5-1.1 0-1.4.3-.6.6zm-187 2c.7.3 1.6.2 1.9-.1.4-.3-.2-.6-1.3-.5-1.1 0-1.4.3-.6.6zm179.5 0c.9.2 2.3.2 3 0 .6-.3-.1-.5-1.8-.5-1.6 0-2.2.2-1.2.5zm-169.5 4c.7.3 1.6.2 1.9-.1.4-.3-.2-.6-1.3-.5-1.1 0-1.4.3-.6.6zm163 0c.7.3 1.6.2 1.9-.1.4-.3-.2-.6-1.3-.5-1.1 0-1.4.3-.6.6zm-159 2c.7.3 1.6.2 1.9-.1.4-.3-.2-.6-1.3-.5-1.1 0-1.4.3-.6.6zm168 28c.6.2 1.8.2 2.5 0 .6-.3.1-.5-1.3-.5-1.4 0-1.9.2-1.2.5zm-6 24c.6.2 1.8.2 2.5 0 .6-.3.1-.5-1.3-.5-1.4 0-1.9.2-1.2.5zm-146.2 2c-.6 1.4-.5 1.5.5.6.7-.7 1-1.5.7-1.8-.3-.3-.9.2-1.2 1.2zm-19.3 0c.9.2 2.5.2 3.5 0 .9-.3.1-.5-1.8-.5-1.9 0-2.7.2-1.7.5zm147.4 1.2c-.4 1.7-.3 2.1.5 1.3.5-.5.8-1.6.6-2.3-.3-.8-.7-.3-1.1 1zM194 405c0 .5.5 1 1 1 .6 0 1-.5 1-1 0-.6-.4-1-1-1-.5 0-1 .4-1 1zm144.6.8c-.3.5.1.9.9.9s1.2-.4.9-.9c-.3-.4-.7-.8-.9-.8-.2 0-.6.4-.9.8zm-113.8.9c.7.3 1.6.2 1.9-.1.4-.3-.2-.6-1.3-.5-1.1 0-1.4.3-.6.6zm7 0c.7.3 1.6.2 1.9-.1.4-.3-.2-.6-1.3-.5-1.1 0-1.4.3-.6.6zm56 0c1.2.2 3.2.2 4.5 0 1.2-.2.2-.4-2.3-.4s-3.5.2-2.2.4zm-11 4c.7.3 1.6.2 1.9-.1.4-.3-.2-.6-1.3-.5-1.1 0-1.4.3-.6.6zm-24 2c.6.2 1.8.2 2.5 0 .6-.3.1-.5-1.3-.5-1.4 0-1.9.2-1.2.5zm66.8 3c-.6 1.4-.5 1.5.5.6.7-.7 1-1.5.7-1.8-.3-.3-.9.2-1.2 1.2zm-75.8 1c.6.2 1.8.2 2.5 0 .6-.3.1-.5-1.3-.5-1.4 0-1.9.2-1.2.5zm24 0c.6.2 1.8.2 2.5 0 .6-.3.1-.5-1.3-.5-1.4 0-1.9.2-1.2.5zm57.7 13.3c-.3.5.1 1 1 1s1.3-.5 1-1c-.3-.6-.8-1-1-1-.2 0-.7.4-1 1zm-116.7 16.7c1.2.2 3.2.2 4.5 0 1.2-.2.2-.4-2.3-.4s-3.5.2-2.2.4zm112.4 2c.4 2.1 3.3 2.5 3.3.3 0-.8-.8-1.6-1.8-1.8-1.4-.3-1.8.1-1.5 1.5zm2.8.3c0 .5-.4 1-1 1-.5 0-1-.5-1-1 0-.6.5-1 1-1 .6 0 1 .4 1 1zm-86.7 17.7c.9.2 2.5.2 3.5 0 .9-.3.1-.5-1.8-.5-1.9 0-2.7.2-1.7.5zm33.5 4c.7.3 1.6.2 1.9-.1.4-.3-.2-.6-1.3-.5-1.1 0-1.4.3-.6.6zm-48.5 8c.9.2 2.3.2 3 0 .6-.3-.1-.5-1.8-.5-1.6 0-2.2.2-1.2.5zm7.5 4c.7.3 1.6.2 1.9-.1.4-.3-.2-.6-1.3-.5-1.1 0-1.4.3-.6.6zm17.5 14c1.5.2 3.7.2 5 0 1.2-.2 0-.4-2.8-.4-2.7 0-3.8.2-2.2.4z" fill="none"/><path d="m107.4 82.2-1.9 2.3 2.3-1.9c2.1-1.8 2.7-2.6 1.9-2.6-.2 0-1.2 1-2.3 2.2zm297.6-.8c0 .2.8 1 1.8 1.7 1.5 1.3 1.6 1.2.3-.4s-2.1-2.1-2.1-1.3zM99.4 88.2l-1.9 2.3 2.3-1.9c2.1-1.8 2.7-2.6 1.9-2.6-.2 0-1.2 1-2.3 2.2zm314.1-.2c1 1.1 2 2 2.3 2 .3 0-.3-.9-1.3-2s-2-2-2.3-2c-.3 0 .3.9 1.3 2zM93.4 94.2l-1.9 2.3 2.3-1.9c2.1-1.8 2.7-2.6 1.9-2.6-.2 0-1.2 1-2.3 2.2zm326.1-.2c1 1.1 2 2 2.3 2 .3 0-.3-.9-1.3-2s-2-2-2.3-2c-.3 0 .3.9 1.3 2zm6 6c1 1.1 2 2 2.3 2 .3 0-.3-.9-1.3-2s-2-2-2.3-2c-.3 0 .3.9 1.3 2zm-342.6 6.7c-1.3 1.6-1.2 1.7.4.4 1.6-1.3 2.1-2.1 1.3-2.1-.2 0-1 .8-1.7 1.7zm346.1-1.3c0 .2.8 1 1.8 1.7 1.5 1.3 1.6 1.2.3-.4s-2.1-2.1-2.1-1.3zm-2 24c0 .2.8 1 1.8 1.7 1.5 1.3 1.6 1.2.3-.4s-2.1-2.1-2.1-1.3zm6.5 6.6c1 1.1 2 2 2.3 2 .3 0-.3-.9-1.3-2s-2-2-2.3-2c-.3 0 .3.9 1.3 2zm-358.6.7c-1.3 1.6-1.2 1.7.4.4.9-.7 1.7-1.5 1.7-1.7 0-.8-.8-.3-2.1 1.3zm366.6 5.3c1 1.1 2 2 2.3 2 .3 0-.3-.9-1.3-2s-2-2-2.3-2c-.3 0 .3.9 1.3 2zm6 6c1 1.1 2 2 2.3 2 .3 0-.3-.9-1.3-2s-2-2-2.3-2c-.3 0 .3.9 1.3 2zm6 6c1 1.1 2 2 2.3 2 .3 0-.3-.9-1.3-2s-2-2-2.3-2c-.3 0 .3.9 1.3 2zm-280.6 30.7c-1.3 1.6-1.2 1.7.4.4.9-.7 1.7-1.5 1.7-1.7 0-.8-.8-.3-2.1 1.3zm-5.5 5.5-1.9 2.3 2.3-1.9c2.1-1.8 2.7-2.6 1.9-2.6-.2 0-1.2 1-2.3 2.2zm120 6-1.9 2.3 2.3-1.9c2.1-1.8 2.7-2.6 1.9-2.6-.2 0-1.2 1-2.3 2.2zm-96 12-1.9 2.3 2.3-1.9c2.1-1.8 2.7-2.6 1.9-2.6-.2 0-1.2 1-2.3 2.2zm130.1-.2c1 1.1 2 2 2.3 2 .3 0-.3-.9-1.3-2s-2-2-2.3-2c-.3 0 .3.9 1.3 2zm-12.6 6.7c-1.3 1.6-1.2 1.7.4.4 1.6-1.3 2.1-2.1 1.3-2.1-.2 0-1 .8-1.7 1.7zm-43.4 5.3c1 1.1 2 2 2.3 2 .3 0-.3-.9-1.3-2s-2-2-2.3-2c-.3 0 .3.9 1.3 2zm37.9.2-1.9 2.3 2.3-1.9c2.1-1.8 2.7-2.6 1.9-2.6-.2 0-1.2 1-2.3 2.2zm-104.4-.8c0 .2.8 1 1.8 1.7 1.5 1.3 1.6 1.2.3-.4s-2.1-2.1-2.1-1.3zm49.9 1.3c-1.3 1.6-1.2 1.7.4.4.9-.7 1.7-1.5 1.7-1.7 0-.8-.8-.3-2.1 1.3zm-5.5 5.5-1.9 2.3 2.3-1.9c2.1-1.8 2.7-2.6 1.9-2.6-.2 0-1.2 1-2.3 2.2zm28.1-.2c1 1.1 2 2 2.3 2 .3 0-.3-.9-1.3-2s-2-2-2.3-2c-.3 0 .3.9 1.3 2zm-62 6c1 1.1 2 2 2.3 2 .3 0-.3-.9-1.3-2s-2-2-2.3-2c-.3 0 .3.9 1.3 2zm141.5 5.4c0 .2.8 1 1.8 1.7 1.5 1.3 1.6 1.2.3-.4s-2.1-2.1-2.1-1.3zm-55.8 18.1c0 1.6.2 2.2.5 1.2.2-.9.2-2.3 0-3-.3-.6-.5.1-.5 1.8zM107 267.4c0 .2.8 1 1.8 1.7 1.5 1.3 1.6 1.2.3-.4s-2.1-2.1-2.1-1.3zm42.5 18.6c1 1.1 2 2 2.3 2 .3 0-.3-.9-1.3-2s-2-2-2.3-2c-.3 0 .3.9 1.3 2zm211.9.2-1.9 2.3 2.3-1.9c2.1-1.8 2.7-2.6 1.9-2.6-.2 0-1.2 1-2.3 2.2zM237 297.4c0 .2.8 1 1.8 1.7 1.5 1.3 1.6 1.2.3-.4s-2.1-2.1-2.1-1.3zm39.9 1.3c-1.3 1.6-1.2 1.7.4.4 1.6-1.3 2.1-2.1 1.3-2.1-.2 0-1 .8-1.7 1.7zm-83.5 5.5-1.9 2.3 2.3-1.9c2.1-1.8 2.7-2.6 1.9-2.6-.2 0-1.2 1-2.3 2.2zm78 0-1.9 2.3 2.3-1.9c1.2-1.1 2.2-2.1 2.2-2.3 0-.8-.8-.2-2.6 1.9zm-26.4-.8c0 .2.8 1 1.8 1.7 1.5 1.3 1.6 1.2.3-.4s-2.1-2.1-2.1-1.3zm-79 5c0 .2.8 1 1.8 1.7 1.5 1.3 1.6 1.2.3-.4s-2.1-2.1-2.1-1.3zm177.4 1.8-1.9 2.3 2.3-1.9c2.1-1.8 2.7-2.6 1.9-2.6-.2 0-1.2 1-2.3 2.2zM241 315.4c0 .2.8 1 1.8 1.7 1.5 1.3 1.6 1.2.3-.4s-2.1-2.1-2.1-1.3zm6.5 6.6c1 1.1 2 2 2.3 2 .3 0-.3-.9-1.3-2s-2-2-2.3-2c-.3 0 .3.9 1.3 2zm16.4-.3c-1.3 1.6-1.2 1.7.4.4 1.6-1.3 2.1-2.1 1.3-2.1-.2 0-1 .8-1.7 1.7zm69 1c-1.3 1.6-1.2 1.7.4.4.9-.7 1.7-1.5 1.7-1.7 0-.8-.8-.3-2.1 1.3zm34 0c-1.3 1.6-1.2 1.7.4.4 1.6-1.3 2.1-2.1 1.3-2.1-.2 0-1 .8-1.7 1.7zM153.5 328c1 1.1 2 2 2.3 2 .3 0-.3-.9-1.3-2s-2-2-2.3-2c-.3 0 .3.9 1.3 2zm181.4 12.7c-1.3 1.6-1.2 1.7.4.4 1.6-1.3 2.1-2.1 1.3-2.1-.2 0-1 .8-1.7 1.7zm-60 6c-1.3 1.6-1.2 1.7.4.4 1.6-1.3 2.1-2.1 1.3-2.1-.2 0-1 .8-1.7 1.7zm-81.5 5.5-1.9 2.3 2.3-1.9c2.1-1.8 2.7-2.6 1.9-2.6-.2 0-1.2 1-2.3 2.2zm7.6-.8c0 .2.8 1 1.8 1.7 1.5 1.3 1.6 1.2.3-.4s-2.1-2.1-2.1-1.3zm-39 17c0 .2.8 1 1.8 1.7 1.5 1.3 1.6 1.2.3-.4s-2.1-2.1-2.1-1.3zm5.9 1.3c-1.3 1.6-1.2 1.7.4.4.9-.7 1.7-1.5 1.7-1.7 0-.8-.8-.3-2.1 1.3zm12 24c-1.3 1.6-1.2 1.7.4.4.9-.7 1.7-1.5 1.7-1.7 0-.8-.8-.3-2.1 1.3zm95 19c-1.3 1.6-1.2 1.7.4.4 1.6-1.3 2.1-2.1 1.3-2.1-.2 0-1 .8-1.7 1.7zm-6 60c-1.3 1.6-1.2 1.7.4.4 1.6-1.3 2.1-2.1 1.3-2.1-.2 0-1 .8-1.7 1.7zm-50.9 3.7c0 .2.8 1 1.8 1.7 1.5 1.3 1.6 1.2.3-.4s-2.1-2.1-2.1-1.3zm97.9 1.3c-1.3 1.6-1.2 1.7.4.4 1.6-1.3 2.1-2.1 1.3-2.1-.2 0-1 .8-1.7 1.7zm-23 1c-1.3 1.6-1.2 1.7.4.4 1.6-1.3 2.1-2.1 1.3-2.1-.2 0-1 .8-1.7 1.7zm-7.5 5.5-1.9 2.3 2.3-1.9c2.1-1.8 2.7-2.6 1.9-2.6-.2 0-1.2 1-2.3 2.2zm-54.4-.8c0 .2.8 1 1.8 1.7 1.5 1.3 1.6 1.2.3-.4s-2.1-2.1-2.1-1.3zm6.5 6.6c1 1.1 2 2 2.3 2 .3 0-.3-.9-1.3-2s-2-2-2.3-2c-.3 0 .3.9 1.3 2zm39.4.7c-1.3 1.6-1.2 1.7.4.4 1.6-1.3 2.1-2.1 1.3-2.1-.2 0-1 .8-1.7 1.7zm-34.9 3.7c0 .2.8 1 1.8 1.7 1.5 1.3 1.6 1.2.3-.4s-2.1-2.1-2.1-1.3zm29.4 1.8-1.9 2.3 2.3-1.9c1.2-1.1 2.2-2.1 2.2-2.3 0-.8-.8-.2-2.6 1.9z" fill="#FFF" fill-opacity=".19"/><g fill="#FFF" stroke-width="0"><path d="M288 45c0 .5-.9 1-2 1s-2 .4-2 1c0 .5-.9 1-1.9 1-1.1 0-2.3.4-2.6 1-.3.5-1.9 1-3.5 1s-3.2.4-3.5 1c-.4.6-5.7 1-12.5 1s-12.1-.4-12.5-1c-.3-.6-2.6-1-5.1-1-2.4 0-4.4-.5-4.4-1 0-.6-1.8-1-4-1s-4-.5-4-1c0-.6-5.3-1-13.9-1-8.3 0-14.2.4-14.6 1-.3.5-3.5 1-7.1 1-3.6 0-6.4.4-6.4 1 0 .5-1.3 1-2.9 1-1.7 0-3.3.4-3.6 1-.3.5-1.7 1-3.1 1-1.3 0-2.4.4-2.4 1 0 .5-1.8 1-4 1s-4 .4-4 1c0 .5-1.3 1-3 1-1.6 0-3 .4-3 1 0 .5-1.5 1-3.4 1s-3.8.4-4.1 1c-.3.5-1.3 1-2.1 1-1.8 0-4.4 2.4-4.4 4 0 .7 1.4 2.5 3 4 1.7 1.5 3 3.1 3 3.4 0 .3-5.8.6-13 .6-8 0-13 .4-13 1 0 .5-1.3 1-3 1-1.6 0-3 .4-3 1 0 .5-.6 1-1.3 1-1.8 0-6.7 2.4-6.7 3.2 0 .5-.7.8-1.6.8-.9 0-2.9 1.3-4.4 3-1.5 1.6-3.3 3-3.9 3-1.5 0-16.1 14.6-16.1 16.1 0 .6-1.3 2.4-3 3.9-1.6 1.5-3 3.5-3 4.4 0 .9-.4 1.6-1 1.6-.5 0-1 1.8-1 4s-.4 4-1 4c-.5 0-1 .9-1 1.9 0 1.1-.6 2.1-1.2 2.3-.9.3-.8 1 .5 2.2 1.4 1.4 2.7 1.7 6 1.2 2.3-.4 6.1-.9 8.5-1.2 2.3-.3 4.2-1 4.2-1.5s.9-.9 2-.9 2 .4 2 1c0 .5-.9 1-2 1s-2 .4-2 1c0 .5-.9 1-2 1s-2 .4-2 1c0 .5-.9 1-2 1s-2 .4-2 1c0 .5-.9 1-2 1s-2 .4-2 1c0 .5-.9 1-2 1s-2 .4-2 1c0 .5-.8 1-1.8 1s-2.4.9-3.2 2c-.8 1.1-2 2-2.6 2-.6 0-2 1.2-3 2.7-.9 1.6-2.6 3.5-3.6 4.4-1 .9-1.8 2.4-1.8 3.3 0 .9-.4 1.6-1 1.6-.5 0-1 1.3-1 3 0 2.3-.4 3-2 3-1.3 0-2 .7-2 2 0 1.1-.4 2-1 2-.5 0-1 .9-1 2s-.4 2-1 2c-.5 0-1 .9-1 2s-.4 2-1 2c-.5 0-1 1.8-1 4s-.4 4-1 4c-.5 0-1 2-1 4.4 0 2.5-.5 4.8-1 5.1-.6.3-1 3.3-1 6.6 0 3.2-.4 5.9-.9 5.9-2.7 0-2.8 126.7-.1 129.4.6.6 1 3.2 1 5.8 0 2.6.5 4.8 1 4.8.6 0 1 .9 1 2s.5 2 1 2c.6 0 1 .9 1 2s.5 2 1 2c.6 0 1 .8 1 1.8s.9 2.4 2 3.2c1.1.8 2 2.2 2 3.2s.5 1.8 1 1.8c.6 0 1 .9 1 2s.5 2 1 2c.6 0 1 2.7 1 6s.4 6 1 6 1 1.1 1 2.5c0 2.9 5.9 9.5 8.5 9.5 1.2 0 1.5-1.4 1.5-7 0-4 .4-7 1-7s1 .7 1 1.5.5 2.5 1.2 3.8c2.4 4.7 2.8 5.7 2.8 7.2 0 .8.5 1.5 1 1.5.6 0 1 1.3 1 3 0 1.6.5 3 1 3 .6 0 1 1.3 1 3 0 1.6.5 3 1 3 .6 0 1 1.3 1 3 0 1.6.5 3 1 3 .6 0 1 1.3 1 3 0 1.6.5 3 1 3 .6 0 1 .9 1 2s.5 2 1 2c.6 0 1 .7 1 1.6 0 .9 2.7 4.3 6 7.6 3.9 4 6 6.9 6 8.4 0 1.3.4 2.4.8 2.4 2.3 0 3.2-3 3.2-10.2 0-4.3.3-7.8.6-7.8 1.7 0 3.3 3.9 3.4 7.7 0 2.4.5 4.3 1 4.3.6 0 1 1.8 1 4s.5 4 1 4c.6 0 1 1.3 1 3 0 1.6.5 3 1 3 .6 0 1 1.3 1 3 0 1.6.5 3 1 3 .6 0 1 .9 1 1.9 0 1.1.5 2.3 1 2.6.6.3 1 1.7 1 3.1 0 1.3.5 2.4 1 2.4.6 0 1 .6 1 1.3 0 .7.9 2.3 2 3.5 1.1 1.2 2 2.7 2 3.4 0 .8.9 2 2 2.8 1.1.8 2 2.1 2 3 0 .9.9 2.2 2 3 1.1.8 2 2.1 2 2.8 0 1.8 12.8 14.2 14.6 14.2.8 0 1.4.4 1.4 1 0 .5.5 1 1 1 1.3 0 1.3-9.7 0-10.5-.5-.3-1-2.6-1-5s-.5-4.7-1-5c-1.3-.8-1.3-7.5 0-7.5.6 0 1 .9 1 2s.5 2 1 2c.6 0 1 .7 1 1.5 0 .9.9 2.5 2 3.7 1.1 1.2 2 2.8 2 3.5 0 .7.5 1.3 1 1.3.6 0 1 .9 1 2s.4 2 .8 2c.5 0 1.5 1.2 2.3 2.8.8 1.5 2.2 3.4 3.1 4.3 1 .9 1.8 2.2 1.8 2.9 0 .6 1.3 2.5 3 4 1.6 1.5 3 3.3 3 3.9 0 .6 2.3 3.4 5 6.2 2.8 2.8 5 5.6 5 6.3 0 .6.9 1.8 2 2.6s2 2.1 2 3c0 .9.9 2.2 2 3 1.1.8 2 2 2 2.6 0 .6 1.3 2.5 3 4.2 1.7 1.8 3 3.7 3 4.3 0 .6 1.4 2.4 3 3.9 1.7 1.5 3 3.4 3 4.2 0 .7.9 2 2 2.8 1.1.8 2 2 2 2.8 0 .7.9 2.2 2 3.4 1.1 1.2 2 2.8 2 3.5 0 .7.5 1.3 1 1.3.6 0 1 .9 1 2s.5 2 1 2c.6 0 1 .9 1 2s.5 2 1 2c.6 0 1 .9 1 2s.5 2 1 2c.6 0 1 .7 1 1.6 0 .8.7 2.2 1.5 3 2.4 2.4 4.5-.5 4.5-6 0-2.5.4-4.8 1-5.1.6-.3 1-2.6 1-5.1 0-2.4.5-4.4 1-4.4.6 0 1-1.8 1-4s.5-4 1-4c.6 0 1-1.4 1-3 0-2.3.4-3 2-3 1.3 0 2 .7 2 2 0 1.1.5 2 1 2 .6 0 1 .6 1 1.3 0 .7.9 2.3 2 3.5 1.1 1.2 2 3.3 2 4.7 0 1.4.5 2.5 1 2.5.6 0 1 .9 1 2s.5 2 1 2c.6 0 1 .9 1 2s.5 2 1 2c.6 0 1 1.3 1 3 0 1.6.5 3 1 3 .6 0 1 1.8 1 4s.5 4 1 4c.6 0 1 1.8 1 4s.5 4 1 4c.6 0 1 2.9 1 6.6 0 6.4 1.3 9.4 4 9.4 2 0 4-2.8 4-5.4 0-1.4.5-2.6 1-2.6.6 0 1-1.8 1-3.9 0-2.2.4-4.3 1-4.6.5-.3 1-2.2 1-4.1 0-1.9.5-3.4 1-3.4.6 0 1-.9 1-1.9 0-1.1.5-2.3 1-2.6.6-.3 1-1.7 1-3.1 0-1.3.5-2.4 1-2.4.6 0 1-.9 1-2s.5-2 1-2c.6 0 1-.9 1-2s.5-2 1-2c.6 0 1-.9 1-2s.5-2 1-2c.6 0 1-.9 1-2s.5-2 1-2c.6 0 1-.9 1-2s.3-2 .8-2c.8 0 3.2-4.9 3.2-6.7 0-.7.5-1.3 1-1.3.6 0 1-.9 1-2s.5-2 1-2c.6 0 1 2.2 1 5 0 2.7.5 5 1 5 .6 0 1 3 1 7s.4 7 1 7 1 4.3 1 11c0 10.3.1 11 2 11 1.6 0 2-.7 2-3 0-1.7.5-3 1-3 .6 0 1-.9 1-2s.5-2 1-2c.6 0 1-.9 1-2s.5-2 1-2c.6 0 1-.9 1-2s.5-2 1-2c.6 0 1-.9 1-2s.5-2 1-2c.6 0 1-.6 1-1.3 0-.7.9-2.3 2-3.5 1.1-1.2 2-2.7 2-3.4 0-.8.9-2 2-2.8 1.1-.8 2-2.1 2-3 0-.9.9-2.2 2-3 1.1-.8 2-2.1 2-3 0-.9.9-2.2 2-3 1.1-.8 2-2.1 2-2.8 0-.8 1.4-2.7 3-4.2 1.7-1.5 3-3.3 3-4 0-.7 1.4-2.5 3-4 1.7-1.5 3-3.3 3-4 0-.6 1.8-2.9 4-5s4-4.3 4-4.8 1.8-2.8 4-5.1c2.2-2.2 4-4.5 4-5 0-.4 1.4-2.2 3-3.9 1.7-1.8 3-3.8 3-4.5 0-.7.9-1.9 2-2.7 1.1-.8 2-2.2 2-3.2s.5-1.8 1.1-1.8c.7 0 1 2.7.9 7.7-.1 4.3-.2 8.4-.1 9 .1 1.5 4.1 1.8 4.1.3 0-.6.7-1 1.5-1 1.8 0 10.5-8.4 10.5-10.1 0-.6 1.4-2.4 3-3.9 1.7-1.5 3-3.4 3-4.2 0-.7.9-2 2-2.8 1.1-.8 2-2.2 2-3.2s.5-1.8 1-1.8c.6 0 1-.9 1-2s.5-2 1-2c.6 0 1-.9 1-2s.5-2 1-2c.6 0 1-.9 1-2s.5-2 1-2c.6 0 1-.9 1-2s.5-2 1-2c.6 0 1-.9 1-1.9 0-1.1.5-2.3 1-2.6.6-.3 1-1.7 1-3.1 0-1.3.5-2.4 1-2.4.6 0 1-1.4 1-3 0-1.7.5-3 1-3 .6 0 1-1.4 1-3 0-1.7.5-3 1-3 .6 0 1-1.5 1-3.4s.5-3.8 1-4.1c.6-.3 1-2.4 1-4.6 0-2.1.5-3.9 1-3.9.6 0 1 3.3 1 8 0 6.5.3 8 1.5 8 1.9 0 5.5-3.5 7.4-7.3.8-1.5 1.8-2.7 2.3-2.7.4 0 .8-.9.8-2s.5-2 1-2c.6 0 1-.9 1-2s.5-2 1-2c.6 0 1-.9 1-2s.5-2 1-2c.6 0 1-1.1 1-2.4 0-1.4.5-2.8 1-3.1.6-.3 1-1.7 1-3s.5-2.7 1-3c.6-.3 1-1.9 1-3.6 0-1.6.5-2.9 1-2.9.6 0 1-1.8 1-4s.5-4 1-4c.6 0 1-2.3 1-5 0-2.8.5-5 1-5 .6 0 1-2.8 1-6.4 0-3.6.5-6.8 1-7.1.6-.3 1-4 1-8.2 0-6.4.2-7.4 1.6-6.9.9.3 1.8.6 2 .6.2 0 .4 2.2.4 5 0 2.7.5 5 1 5 .6 0 1 2.2 1 4.9 0 2.8.5 5.3 1 5.6.6.3 1 2.4 1 4.6 0 2.3.7 4.7 1.5 5.5 1.3 1.4 1.7 1.4 3 0 .8-.8 1.5-2.2 1.5-3 0-.9.5-1.6 1-1.6.6 0 1-1.5 1-3.4s.5-3.8 1-4.1c.6-.3 1-1.9 1-3.6 0-1.6.5-2.9 1-2.9.6 0 1-1.1 1-2.4 0-1.4.5-2.8 1-3.1.6-.3 1-1.7 1-3s.5-2.7 1-3c.6-.3 1-1.9 1-3.6 0-1.6.5-2.9 1-2.9.6 0 1-1.8 1-3.9 0-2.2.5-4.3 1-4.6.6-.3 1-3.7 1-7.4s.5-7.2 1-7.7c.7-.7.9-6.7.6-17.5-.3-9-.8-29.9-1.1-46.4-.4-16.7-1-30.4-1.6-31-.5-.5-.9-9-.9-19.2 0-11.5-.4-18.3-1-18.3-.5 0-1-1.8-1-4s-.4-4-1-4c-.5 0-1-1.8-1-4s-.4-4-1-4c-.5 0-1-.9-1-2s-.4-2-1-2c-.5 0-1-.9-1-2s-.4-2-1-2c-.5 0-1-.7-1-1.5 0-1.7-16.4-18.5-18-18.5-1 0-12-10.5-12-11.5 0-.9 3.9-.5 4.5.5.9 1.5 4.4 1.2 6.1-.4 1.6-1.6 1.9-8.6.4-8.6-.5 0-1-.6-1-1.3 0-1.8-2.4-6.7-3.2-6.7-.5 0-.8-.8-.8-1.8s-.9-2.4-2-3.2c-1.1-.8-2-2-2-2.7 0-1.7-16.6-18.3-18.3-18.3-.7 0-1.9-.9-2.7-2-.8-1.1-2.2-2-3.2-2s-1.8-.5-1.8-1c0-.6-.9-1-2-1s-2-.5-2-1c0-.6-1.3-1-3-1-1.6 0-3-.5-3-1 0-.6-1.8-1-4-1s-4-.5-4-1c0-.6-1.8-1-3.9-1-2.2 0-4.3-.5-4.6-1-.3-.6-1.5-1-2.6-1-2.4 0-4.9-2.2-4.9-4.4 0-.9-.4-1.6-1-1.6-.5 0-1-.7-1-1.6 0-.8-.6-2.1-1.2-2.7-1.9-1.8-9.8-5.7-11.4-5.7-.8 0-1.4-.5-1.4-1 0-.6-1.3-1-2.9-1-1.7 0-3.3-.5-3.6-1-.3-.6-2.6-1-5.1-1-2.4 0-4.4-.5-4.4-1 0-.6-2.2-1-5-1-2.7 0-5-.5-5-1 0-.6-2.2-1-5-1-2.7 0-5-.5-5-1 0-.6-2.4-1-5.4-1-3 0-5.8-.5-6.1-1-.3-.6-4.2-1-8.6-1-4.6 0-7.9.4-7.9 1zm-26 96c0 .6 3 1 7 1s7 .4 7 1c0 .5 1.5 1 3.4 1s3.8.4 4.1 1c.3.5 1.9 1 3.6 1 1.6 0 2.9.4 2.9 1 0 .5 2.3 1 5 1 2.8 0 5 .4 5 1 0 .5 1.4 1 3 1 2.8 0 3 .2 3 4 0 2.2.5 4 1 4 .6 0 1 1.3 1 3 0 1.6.5 3 1 3 .6 0 1 1.3 1 3 0 1.6.5 3 1 3 .6 0 1 1 1 2.2 0 2.8 4.1 7.8 6.4 7.8.9 0 1.6.4 1.6 1 0 .5.9 1 2 1s2 .4 2 1 3.8 1 9.4 1c5.3 0 9.8.4 10.1 1 .3.5 2.2 1 4.1 1 4.2 0 6.4 1.9 6.4 5.4 0 1.4.5 2.6 1 2.6.6 0 1 2.6 1 5.9 0 3.3-.4 6.3-1 6.6-.5.3-1 1.8-1 3.3 0 3.7-4.1 8.2-7.4 8.2-1.4 0-2.6-.5-2.6-1 0-.6-.9-1-1.9-1-1.1 0-2.3-.5-2.6-1-.3-.6-2.6-1-5.1-1-2.4 0-4.4-.5-4.4-1 0-.6-1.2-1-2.6-1-1.7 0-3.9-1.4-6.4-4-2.1-2.2-4.4-4-5-4-.7 0-2.5-1.4-4-3-1.5-1.7-3.5-3-4.4-3-.9 0-1.6-.5-1.6-1 0-.6-.9-1-2-1s-2-.5-2-1c0-.6-2.5-1-5.5-1-6 0-8.5 1.6-11.4 7.2-.8 1.6-1.8 2.8-2.3 2.8-.4 0-.8 1.3-.8 3 0 1.6-.4 3-1 3-.5 0-1 1.8-1 4s-.4 4-1 4-1 3-1 7c0 3.8-.2 7-.5 7s-3.7-3.2-7.5-7c-6.3-6.4-10-8.6-10-6 0 .5.5 1 1 1 .6 0 1 .7 1 1.5 0 .9 3.1 4.7 6.9 8.4l7 6.9v16.3c-.1 10.9.3 16.5 1 16.7.6.2 1.1 1.7 1.1 3.3 0 1.6.5 2.9 1 2.9.6 0 1 1.8 1 4s.5 4 1 4c.6 0 1 1.8 1 4s-.4 4-1 4c-.5 0-1 1.1-1 2.5 0 1.7-1.7 4.3-5.5 8-5.8 5.8-6 6.2-4.6 8.4.7 1 2.2.1 6.5-4.2 3.1-3.1 5.6-6.3 5.6-7.2 0-.8.5-1.5 1-1.5.6 0 1-1.5 1-3.4s.5-3.8 1-4.1c.6-.3 1-1.9 1-3.6 0-1.6-.4-2.9-1-2.9-.5 0-1-1.8-1-4s-.4-4-1-4c-.5 0-1-1.4-1-3 0-1.7-.4-3-1-3-.5 0-1-2.2-1-4.9 0-3-.5-5.1-1.2-5.4-1-.3-1-.9 0-2.6.7-1.2 1.2-5.8 1.2-11.6 0-5.7.4-9.5 1-9.5s1-3.7 1-9 .4-9 1-9 1-1.8 1-4 .5-4 1-4c.6 0 1-.9 1-2s.5-2 1-2c.6 0 1-.7 1-1.5 0-2.9 4.7-6.5 8.5-6.5 1.9 0 3.5.4 3.5.9s1.3 1.1 2.8 1.4c1.6.3 4.3 2 6.1 3.6 1.8 1.7 3.6 3.1 4.1 3.1.4 0 1.7.9 3 2 2 1.7 2.1 2.1.7 3.5-.9.8-2.5 1.5-3.7 1.5-2.4 0-11 8.2-11 10.5 0 .8-.4 1.5-1 1.5-.5 0-1 1.8-1 4s-.4 4-.9 4-1.2 3.9-1.5 8.7c-.2 4.9-.8 10.8-1.1 13.1-.5 2.8-.3 4.8.4 5.5.7.7 1.1 5 1.1 10.9s.4 9.8 1 9.8 1 1.3 1 2.8c0 3.2 1.6 5.2 4.2 5.2 1 0 1.8.4 1.8 1s5.3 1 14 1 14-.4 14-1 .7-1 1.5-1c.9 0 3.1-1.6 5-3.5s3.5-4.1 3.5-5c0-.8.3-1.5.8-1.5.8 0 3.2-4.9 3.2-6.7 0-.7.5-1.3 1-1.3.6 0 1-1.1 1-2.4 0-1.4.5-2.8 1-3.1.6-.3 1-1.5 1-2.6 0-1 .5-1.9 1-1.9.6 0 1-1.4 1-3 0-1.7.5-3 1-3 .6 0 1-2.7 1-6s-.4-6-1-6c-.5 0-1-.8-1-1.8s-.9-2.4-2-3.2c-1.1-.8-2-2.2-2-3.2s-.4-1.8-1-1.8c-.5 0-1-.7-1-1.5 0-2.6 1.8-1.7 7.5 4 3 3 6.1 5.5 7 5.5.8 0 1.5.4 1.5 1s2.9 1 6.6 1c6.5 0 6.6 0 11.2-4.8 2.6-2.6 5.9-5.3 7.5-6.1 1.5-.8 2.7-1.8 2.7-2.3 0-1.4 5-.9 6.6.6.8.8 1.4 2.1 1.4 3 0 .8.5 1.8 1 2.1.6.3 1 5.2 1 11s-.4 10.7-1 11c-.5.3-1 3.1-1 6.1 0 3-.4 5.4-1 5.4-.5 0-1 .9-1 2 0 1.3-.7 2-2 2-1.1 0-2 .4-2 1 0 .5-1.3 1-3 1-1.6 0-3 .4-3 1 0 .5-1.3 1-2.9 1-1.6 0-3.2.6-3.5 1.2-.5 1-.7 1-1.2 0-.7-1.4-6.4-1.7-6.4-.2 0 .5-.9 1-2 1s-2 .4-2 1c0 .5-.7 1-1.5 1-.9 0-3.1 1.6-5 3.5s-3.5 4.1-3.5 5c0 .8-.4 1.5-1 1.5-.5 0-1 .9-1 2s-.4 2-.9 2-1.1 1.2-1.4 2.8c-.6 2.9-3.8 7.2-5.4 7.2-1.3 0-7.3 5.8-10.6 10.3-1.6 2-3.9 4.8-5.3 6.2-1.6 1.6-2.4 3.5-2.4 6 0 1.9.2 3.5.5 3.5s4.1-3.6 8.5-8 8.6-8 9.5-8c.8 0 1.5-.5 1.5-1 0-.6.7-1 1.5-1 1.7 0 10.5-8.4 10.5-10 0-2.9 6-10 8.5-10 1.2 0 1.5 1.3 1.5 6 0 3.3-.4 6-1 6s-1 2.7-1 6-.4 6-1 6c-.5 0-1 .7-1 1.6 0 1.9-8.7 10.4-10.7 10.4-.7 0-1.3.4-1.3 1 0 .5-.9 1-2 1s-2 .4-2 1c0 .5-.9 1-1.9 1-1.1 0-2.3.4-2.6 1-.3.5-2.1 1-3.8 1-2.1 0-3.8.7-4.7 2-.8 1.1-2.1 2-2.9 2-2 0-6.1 5.1-6.1 7.7 0 1.3-.4 2.3-1 2.3s-1 3.7-1 9 .4 9 1 9 1 .8 1 1.8.9 2.4 2 3.2c1.1.8 2 2.1 2 3 0 .9.9 2.2 2 3 1.1.8 2 2.1 2 3 0 .9.9 2.2 2 3 1.2.8 2 2.6 2 4.2 0 1.5.5 2.8 1 2.8.6 0 1 .9 1 2s-.4 2-1 2c-.5 0-1-.5-1-1 0-.6-1.3-1-3-1-1.6 0-3-.5-3-1 0-.6-1.2-1-2.6-1-3.8 0-5.4-2.2-5.4-7.4 0-2.5-.4-4.6-1-4.6-.5 0-1-2.3-1-5 0-2.8-.4-5-1-5-.5 0-1-1.4-1-3 0-1.7-.4-3-1-3-.5 0-1-.9-1-2s-.4-2-1-2c-.5 0-1-.7-1-1.5s-.8-2.4-1.7-3.6c-3.6-4.3-10.3-4.8-10.3-.8 0 1-.4 1.9-1 1.9s-1 3-1 7-.4 7-1 7c-.5 0-1 2-1 4.4 0 2.5-.4 4.8-1 5.1-.5.3-1 1.9-1 3.6 0 1.6-.4 2.9-1 2.9-.5 0-1 1.8-1 4s-.4 4-1 4c-.5 0-1 1.3-1 3 0 1.6-.4 3-1 3-.5 0-1 1.3-1 3 0 1.6-.4 3-1 3-.5 0-1 .9-1 2 0 2.1-1.5 2.7-2.5 1-.3-.6-2.2-1-4.1-1-1.9 0-3.4.4-3.4 1 0 .5-1.3 1-3 1-1.6 0-3 .4-3 1 0 .5-.7 1-1.6 1-.9 0-2.9 1.3-4.4 3-2.8 3-8.2 4.2-9.5 2-.3-.6-2.4-1-4.6-1-2.1 0-3.9-.5-3.9-1 0-.6-.9-1-2-1s-2 .4-2 1c0 .5-.9 1-2 1s-2 .4-2 1c0 .5-1.3 1-2.9 1-2 0-3.2-.6-3.6-1.9-.8-2.8-4-6.1-5.8-6.1-.8 0-1.7-.5-1.9-1.1-.5-1.5-9.1-1.5-9.6 0-.7 2-4.2 1.3-4.2-.9 0-1.1-.4-2-1-2-.5 0-1-.9-1-2s-.4-2-1-2c-.5 0-1-1.1-1-2.4 0-1.4-.4-2.8-1-3.1-.5-.3-1-1.5-1-2.6 0-1-.4-1.9-1-1.9s-1-3.7-1-9-.4-9-1-9c-.5 0-1-2.3-1-5 0-2.8-.4-5-1-5-.5 0-1-1.1-1-2.5 0-2.8-5.9-9.5-8.4-9.5-.8 0-1.6-.5-1.8-1.2-.6-1.6-7.8 5.6-7.8 7.7 0 .8-.4 1.5-1 1.5-.5 0-1 1.7-1 3.8 0 2.1-.4 4.2-.9 4.8-.5.5-1.2 4.3-1.4 8.4-1 14.5-3.4 19-10.2 19H172v-5.6c0-5.2.3-5.8 4-9.4 2.2-2.1 4-4.5 4-5.2 0-.7.9-2 2-2.8 1.8-1.3 2-2.6 2-13.2 0-6.5-.3-11.8-.8-11.8-.4 0-1.2-1-1.7-2.3-.6-1.2-2-2.6-3.2-3.2-1.3-.5-2.3-1.3-2.3-1.7 0-.5-.9-.8-2-.8s-2-.4-2-.8c0-.5-2.2-1.5-5-2.2-2.7-.7-5-1.7-5-2.2 0-.4-.6-.8-1.4-.8-1.9 0-12.6-10.7-12.6-12.6 0-.8-.4-1.4-1-1.4-.5 0-1-.9-1-2s-.4-2-1-2c-.5 0-1-.9-1-2s-.4-2-1-2c-.5 0-1-.9-1-2s-.4-2-1-2c-.5 0-1-1.4-1-3 0-1.7-.4-3-1-3-1.7 0-1.2-11 .4-11.6 1.7-.6 9.3 6.6 11.5 10.9.8 1.5 1.8 2.7 2.3 2.7.4 0 .8 1 .8 2.2 0 2.8 4.1 7.8 6.4 7.8.9 0 1.6.4 1.6 1 0 .5.9 1 2 1s2 .4 2 1c0 .5.8 1 1.8 1s2.4.9 3.2 2c.8 1.2 2.6 2 4.2 2 3.3 0 3.6-1 .8-3-1.1-.8-2-2-2-2.7 0-.7-1.2-2-2.7-3-3.3-2.1-8.3-7.1-8.3-8.4 0-.4-1.1-1.9-2.5-3.3s-2.5-3.1-2.5-3.8c0-.8-.9-2-2-2.8-1.1-.8-2-2-2-2.7 0-1.9-8.6-10.3-10.5-10.3-.8 0-1.5-.5-1.5-1 0-.6-2.2-1-5-1-2.7 0-5-.5-5-1 0-.6-3-1-7-1s-7-.4-7-1-.7-1-1.5-1c-1.9 0-10.8-8.7-10.1-9.9.3-.5 1.7-.6 3.1-.3 2.2.4 2.5.1 2.5-2.2 0-1.4.6-3.5 1.2-4.6 1-1.6 1-2.4 0-4-1.5-2.5-1.7-27-.2-27 .6 0 1 .4 1 1 0 .5.9 1 2 1s2 .4 2 1c0 .5.9 1 2 1s2 .4 2 1c0 .5.9 1 2 1s2 .4 2 1c0 1.8 5.5 1.1 7-1 .8-1.1 2-2 2.7-2 .7 0 4-2.7 7.4-6 3.3-3.3 6.5-6 7-6s2.3-1.4 4.1-3c1.7-1.7 3.6-3 4.2-3 .6 0 1.8-.9 2.6-2s2-2 2.6-2c.7 0 3.5-2.3 6.3-5 2.8-2.8 5.6-5 6.1-5 .6 0 3.1-2 5.6-4.5 2.4-2.5 4.9-4.5 5.4-4.5 1.3 0 11-9.9 11-11.2 0-.5 1.4-2.3 3-3.8 1.7-1.5 3-3.2 3-3.8 0-.5 1.4-2.3 3-4 1.7-1.8 3-3.6 3-4.1 0-1.6 14.8-16.1 16.4-16.1.9 0 1.6-.3 1.6-.8 0-.8 4.9-3.2 6.7-3.2.7 0 1.3-.5 1.3-1 0-.6 2.2-1 4.9-1 2.8 0 5.3-.5 5.6-1 .3-.6 4-1 8.1-1 4.3 0 7.4.4 7.4 1zm-86 41.5c0 1.3-13.1 13.5-14.5 13.5-.8 0-1.5.4-1.5 1 0 .5-.4 1-1 1-.5 0-1-2-1-4.5 0-3.8.6-5.1 3.3-8 2.9-3 3.8-3.4 9-3.4 3.1-.1 5.7.1 5.7.4zm-16 164.4c0 .5 1.3 1.1 2.9 1.4 1.5.3 4.7 2.4 7 4.6 3.5 3.4 4.1 4.5 4.1 8.1 0 3.3-.6 4.7-3.5 7.5-1.9 1.9-3.9 3.5-4.5 3.5-2.1 0-8-6.9-8-9.4 0-1.4-.4-2.8-1-3.1-1.4-.9-1.2-7.6.3-10.8 1.2-2.6 2.7-3.6 2.7-1.8zm194 .9c0 1 .9 2.4 2 3.2 1.4 1 2 2.6 2 5.2 0 2.1-.4 3.8-1 3.8-.5 0-1 .9-1 2s-.4 2-1 2c-.5 0-1 .7-1 1.6 0 2.3-3 4.3-6.3 4.4-3.1 0-5.7-2-5.7-4.4 0-.9-.4-1.6-1-1.6-.5 0-1-1.4-1-3 0-1.7.5-3 1-3 .6 0 1-.7 1-1.5 0-.9 1.6-3.1 3.5-5s4.1-3.5 5-3.5c.8 0 1.5-.5 1.5-1 0-.6.5-1 1-1 .6 0 1 .8 1 1.8zM180 363c0 6.3-.2 7-2 7-1.3 0-2-.7-2-2 0-1.1.5-2 1-2 .6 0 1-2.3 1-5 0-2.8.5-5 1-5 .6 0 1 3 1 7zm20.4 2.7c1.4 8.1 2.7 17 3.2 22.3.3 3 1 5.9 1.5 6.5.5.5.9 2.8.9 5.2 0 2.4.5 4.3 1 4.3.6 0 1 1.3 1 3 0 1.6.5 3 1 3 .6 0 1 1.3 1 3 0 1.6.5 3 1 3 .6 0 1 .9 1 2s.5 2 1 2c.6 0 1 1.3 1 3 0 1.6.5 3 1 3 .6 0 1 4.3 1 11v11h-4.5c-3.5 0-5.2-.6-7-2.5-1.4-1.3-2.5-3.1-2.5-3.9 0-.8-.4-1.8-1-2.1-.5-.3-1-1.7-1-3.1 0-1.3-.4-2.4-1-2.4-.5 0-1-.9-1-1.9 0-1.1-.4-2.3-1-2.6-.5-.3-1-1.9-1-3.5s-.4-3.2-1-3.5c-.5-.3-1-1.9-1-3.5s-.5-3.2-1.1-3.6c-1.8-1.1.4-46.8 2.2-48 .5-.3.9-1.6.9-3 0-1.7.6-2.4 1.9-2.4 1.4 0 2 1 2.5 3.7zm119.6 6.6c0 4.2.4 8.5.9 9.5 3.6 7.2 3.6 7 1.1 29.7-1.5 14.1-2.2 18.5-3.1 19.1-.5.3-.9 1.4-.9 2.5 0 2.1-1.6 5.3-4.2 8.3-1 1.1-1.8 2.6-1.8 3.3 0 .7-.9 1.3-2 1.3s-2 .4-2 1c0 1.8-3.1 1-5.5-1.5-2.4-2.3-3.5-7.5-1.6-7.5.5 0 1.2-1.9 1.5-4.3 3.8-25.4 5.5-34.5 6.7-35.3.5-.3.9-1.6.9-2.9 0-1.3.5-2.7 1-3 .6-.3 1-1.7 1-3s.5-2.7 1-3c.6-.3 1-5 1-10.6 0-11.1 1.1-14.5 4.2-12.6 1.5 1 1.8 2.5 1.8 9zM70 377c0 .5-.4 1-1 1-.5 0-1-.5-1-1 0-.6.5-1 1-1 .6 0 1 .4 1 1zm270.3 26.3c2.4 2.6 3.7 5.8 3.7 9.2 0 1.9-.4 3.5-.9 3.5s-1.2 3.7-1.4 8.2c-.6 10.2-1.6 15.8-2.8 15.8-.5 0-.9 1.3-.9 3 0 1.6-.4 3-.8 3-.5 0-1.5 1.2-2.3 2.7-.8 1.6-1.6 3-1.9 3.3-1.2 1.2-5 9.3-5 10.6 0 .8-.4 1.4-1 1.4-.5 0-1 .8-1 1.8s-.9 2.4-2 3.2c-1.1.8-2 2-2 2.8 0 1.8-6.6 8.2-8.5 8.2-1.7 0-2.2-6.5-.5-7.5.6-.3 1-1.7 1-3s.5-2.7 1-3c.6-.3 1-1.9 1-3.5s.5-3.2 1-3.5c.6-.3 1-2.1 1-4s.5-3.7 1-4c.6-.3 1-1.9 1-3.5s.4-3.1.9-3.4c.5-.3 1.1-2.3 1.4-4.3 1-6.9 1.8-10.8 2.6-12.8 2.2-5.5 3.1-9.6 3.1-14.3 0-2.9.5-5.2 1-5.2.6 0 1-.5 1-1.2 0-3.8 7.6-6.5 10.3-3.5zM178 406.9c0 .5.8 1.1 1.8 1.3 2.2.6 4.9 6.2 7.2 14.8.6 2.5 1.6 5.9 2.1 7.6.5 1.7.9 4.2.9 5.7 0 1.4.5 2.9 1 3.2.6.3 1 2.1 1 4s.5 3.7 1 4c.6.3 1 2.4 1 4.5s.5 4.2 1 4.5c.6.3 1 2.4 1 4.5s.5 4.2 1 4.5c.6.3 1 2.4 1 4.6 0 2.1.5 3.9 1 3.9.6 0 1 2.2 1 5 0 3.8-.4 5-1.5 5-1.8 0-5-3-8.5-8-1.3-1.9-3.1-4.2-4-5-2.1-2-10-17.3-10-19.4 0-.9-.4-1.6-1-1.6-.5 0-1-1-1-2.3 0-1.3-.3-2.7-.7-3-2.2-2.3-5.3-14.8-5.3-21.8 0-9.3 1.8-14.3 5.7-15.7 3.6-1.3 4.3-1.4 4.3-.3zm52 22.1c0 8.3-.1 9-2 9-1.5 0-2-.7-2-2.8 0-1.5-.4-3.2-.9-3.8-1-.9-1.5-5.1-1.3-9.2.2-1.7.8-2.2 3.2-2.2h3v9zm64-3c0 2.2-.4 4-1 4-.5 0-1 1.3-1 3 0 1.6-.4 3-1 3-.5 0-1 .7-1 1.6 0 1.8-2.7 4.3-4.7 4.4-.9 0-1.3-2.2-1.3-8 0-4.7.4-8 1-8s1-.9 1-2c0-1.7.7-2 4-2h4v4zm-12 2.9c0 .6-.4 1.3-1 1.6-.5.3-1 3.1-1 6.1 0 4.7-.2 5.4-2 5.4s-2-.7-2-7v-7h3c1.7 0 3 .4 3 .9zm-38 3c0 1.1-.6 2.1-1.2 2.4-1 .4-1 .7 0 1.8.6.7 1.2 1.9 1.2 2.6 0 1.8-6.7 1.7-8.6-.1-.8-.8-1.4-3.1-1.4-5V430h5c4.3 0 5 .3 5 1.9zm10 .1c0 1.1-.4 2-1 2-.5 0-1 2-1 4.5 0 5-.9 5.6-4 2.3-1.4-1.5-2-3.5-2-6.5V430h4c3.3 0 4 .3 4 2zm14 1c0 1.6-.4 3-1 3-.5 0-1 1.8-1 4s-.4 4-1 4c-.5 0-1-1.4-1-3 0-1.7-.4-3-1-3-.5 0-1-1.4-1-3 0-1.7-.4-3-1-3-.5 0-1-.5-1-1 0-.6 1.8-1 4-1 3.8 0 4 .2 4 3zm-38 21.9c0 1.6.6 3.1 1.4 3.4 1.9.8 2.6-.1 2.6-3.5 0-2.1.5-2.8 2-2.8 1.1 0 2 .4 2 1 0 .5.9 1 2 1 1.3 0 2 .7 2 2s.7 2 2 2 2-.7 2-2c0-1.7.7-2 5-2h5v4c0 3.3.3 4 2 4s2-.7 2-4v-4h5c4.9 0 5 .1 5 3 0 1.6.4 3 .9 3s1.5-1.4 2.3-3c1-2.3 1.9-3 4-3 2.4 0 2.8.4 2.8 3 0 1.6.5 3 1 3 .6 0 1-1.2 1-2.6 0-3 2.4-5.3 5.7-5.4 1.8 0 2.2.6 2.5 3.7.4 4.6 3.1 5.3 3.6 1 .4-3.4.8-3.4 4.2.3 1.5 1.6 3.5 3 4.4 3 1.2 0 1.6 1 1.6 4 0 2.2-.4 4-1 4-.5 0-1 .7-1 1.6 0 1.8-10.3 12.4-12 12.4-.6 0-2.9 1.8-5 4s-4.4 4-5 4c-.6 0-3.3 2.2-6 5l-4.9 5h-7.5c-4.1 0-7.8-.5-8.1-1-.3-.6-2.4-1-4.6-1-3.6 0-4.6-.7-10.9-7-3.8-3.9-7.5-7-8.2-7-.8 0-2-.9-2.8-2-.8-1.1-2.6-2-4-2s-3.2-.9-4-2c-.8-1.1-2.2-2-3.2-2s-1.8-.6-1.8-1.3c0-.7-.9-2.3-2-3.5-1.1-1.2-2-2.8-2-3.7 0-.8-.4-1.5-1-1.5-.5 0-1-1.1-1-2.4 0-2.2.6-2.6 4.7-3.2 2.6-.4 5.6-1.5 6.7-2.5 1.1-1.1 3-1.9 4.3-1.9 1.6 0 2.3-.6 2.3-2 0-1.3.7-2 2-2 1.5 0 2 .7 2 2.9z"/><path d="M214 201c0 .6-3 1-7 1s-7 .4-7 1c0 .5-.7 1-1.5 1-2 0-8.5 6.5-8.5 8.5 0 1.2-1.5 1.5-8 1.5-4.7 0-8 .4-8 1 0 .5-1.8 1-4 1s-4 .4-4 1c0 .5-1.3 1-3 1-1.6 0-3 .4-3 1 0 .5-.9 1-2 1-1.3 0-2 .7-2 1.8 0 1.2 1.4 2.2 4.8 3.2 2.6.7 5.3 1.9 6 2.6 1.4 1.5 1.6 6.4.2 6.4-.5 0-1 .9-1 2s-.4 2-1 2c-.5 0-1 .9-1 2s-.4 2-1 2c-.5 0-1 .9-1 1.9 0 1.1-.4 2.3-1 2.6-.5.3-1 3.5-1 7.1 0 3.6.4 6.4 1 6.4s1 1.3 1 3c0 1.6.5 3 1 3 .6 0 1 .9 1 2s.5 2 1 2c.6 0 1 .9 1 2s.4 2 .8 2c.5 0 1.5 1.2 2.3 2.7.8 1.6 2.2 3.5 3.1 4.4 1 .9 1.8 2.2 1.8 2.8 0 .6.8 1.5 1.8 1.8.9.4 2.4 1.4 3.2 2.2 2 2.1 5.6 4.1 7.5 4.1.8 0 1.5.4 1.5 1 0 .5 1.8 1 4 1s4 .4 4 1c0 .5 2 1 4.4 1 2.5 0 4.8-.5 5.1-1 .3-.6 1.7-1 3.1-1 2.8 0 9.4-6 9.4-8.5 0-.8.5-1.5 1-1.5.6 0 1-4.3 1-10.9 0-6.3-.4-11.2-1-11.6-.5-.3-1-3.1-1-6.1 0-3-.4-5.4-1-5.4-.5 0-1-1.5-1-3.3 0-3.4-2-8.7-3.2-8.7-.5 0-.8-.7-.8-1.5 0-.9-1.6-3.1-3.5-5.1-1.9-1.9-3.5-3.9-3.5-4.3 0-1.3-5.7-7.1-6.9-7.1-.7 0-2.3-1.1-3.7-2.5l-2.5-2.5 3.5-3.5c2-1.9 4.2-3.5 5.1-3.5.8 0 1.5-.5 1.5-1 0-.6 3.3-1 7.9-1 4.4 0 8.3-.5 8.6-1 .3-.6 3.5-1 7.1-1h6.4v3c0 1.6.5 3 1 3 .6 0 1 1.8 1 4s.5 4 1 4c.6 0 1 4.7 1 12s.4 12 1 12 1 2.7 1 6 .4 6 1 6 1 2.2 1 4.9c0 2.8-.4 5.3-1 5.6-.5.3-1 2.2-1 4.1 0 1.9-.4 3.4-1 3.4-.5 0-1 .9-1 2s-.4 2-1 2c-.5 0-1 .9-1 2s-.4 2-1 2c-.5 0-1 .9-1 2s-.4 2-1 2-1 2.6-1 5.8c0 4.6.4 6 2 7.2 1.1.8 2 2 2 2.8 0 1.5 2.4 4.2 3.8 4.2.5 0 3 2 5.6 4.5 5.4 5 6.6 5.5 6.6 2.4 0-2-6.4-8.9-8.2-8.9-1.5 0-5.8-4.8-5.8-6.5 0-.8-.4-1.5-1-1.5-.5 0-1-2.3-1-5 0-2.8.5-5 1-5 .6 0 1-.9 1-2s.5-2 1-2c.6 0 1-.9 1-2s.5-2 1-2c.6 0 1-.9 1-2s.5-2 1-2c.6 0 1-1.8 1-4s.5-4 1.1-4c.9 0 .9-9.8 0-21.5 0-.6.2-3 .5-5.4.5-3.7 1.6-5.4 6.5-10.2 5.4-5.3 7.4-8.9 4.9-8.9-.5 0-1 .4-1 1 0 .5-.7 1-1.5 1-2 0-10.5 8.5-10.5 10.5 0 .8-.4 1.5-1 1.5s-1-2.8-1-6.4c0-3.6-.4-6.8-1-7.1-.5-.3-1-2.4-1-4.6 0-2.1-.4-3.9-1-3.9-.5 0-1-1.4-1-3 0-1.7-.4-3-1-3-.5 0-1-.9-1-2 0-1.9-.7-2-10-2-6 0-10 .4-10 1z"/><path d="M202 299c0 .5-.7 1-1.5 1-2 0-8.5 6.5-8.5 8.5 0 .8-.4 1.5-1 1.5-.5 0-1 1.3-1 3 0 1.6-.4 3-1 3-.5 0-1 1.8-1 4s.5 4 1 4c.6 0 1 .6 1 1.3 0 1.8 2.4 6.7 3.3 6.7.4 0 .7.7.7 1.6 0 2 2.4 4.4 4.4 4.4 1.2 0 1.6-1 1.6-4 0-2.2.5-4 1-4 .6 0 1-2.2 1-4.9 0-2.8.5-5.3 1-5.6.6-.3 1-1.6 1-2.8 0-1.3.9-2.9 2-3.7 1.1-.8 2-2.1 2-3 0-.9.9-2.2 2-3 1.2-.8 2-2.6 2-4.2 0-2.1-.5-2.8-2-2.8-1.1 0-2-.5-2-1 0-.6-1.3-1-3-1-1.6 0-3 .4-3 1zm104 2c0 .5-.9 1-2 1s-2 .2-2 .5 2.3 2.8 5 5.6c3.2 3.3 5 6 5 7.5 0 1.3.5 2.4 1 2.4.6 0 1 2 1 4.4 0 2.5.5 4.8 1 5.1.6.3 1 1.9 1 3.6 0 1.6.5 2.9 1 2.9.6 0 1 .9 1 2s.7 2 1.5 2c2 0 6.5-4.5 6.5-6.5 0-.8.5-1.5 1-1.5.6 0 1-.9 1-2s.5-2 1-2c1.4 0 1.2-10.6-.2-13.2-.7-1.2-3.6-4.6-6.5-7.5-5-5.1-5.3-5.3-10.7-5.3-3.1 0-5.6.4-5.6 1zm-24.7 10.7c-1.8.3-3.3.8-3.3 1.4 0 .5-.6.9-1.2.9-.7 0-2.9 1.4-4.8 3s-3.9 3-4.4 3c-.5 0-1.6.8-2.5 1.8-.9.9-2.8 2.3-4.3 3.1-1.6.8-2.8 1.8-2.8 2.3 0 .4-1.1.8-2.6.8-1.8 0-4.2-1.8-8.4-6-3.2-3.3-6.6-6-7.4-6-.9 0-1.6-.5-1.6-1 0-.6-.9-1-2-1s-2-.5-2-1c0-.6-1.8-1-4-1s-4 .4-4 1c0 .5-.7 1-1.6 1-2.2 0-5.4 3.8-6.1 7.2-.3 1.6-.9 2.8-1.4 2.8-.5 0-.9 4.9-.9 11 0 6.7.4 11 1 11s1 .7 1 1.6c0 .9 1.4 2.9 3 4.4 1.7 1.5 3 3.4 3 4.2 0 .7.9 2 2 2.8 1.1.8 2 2.2 2 3.2 0 .9.5 2 1 2.3.6.4 1 5.5 1 12.1 0 6.3.4 11.4.9 11.4s1.1.9 1.4 2c.3 1.1 1.2 2 2.1 2 .9 0 1.6.4 1.6 1s3.3 1 8 1c7.3 0 8-.2 8-2 0-1.1.5-2 1-2 .6 0 1-1.8 1-4v-4h8v4.2c0 3.1.7 5.1 2.4 7 2.1 2.5 3 2.8 8.5 2.8 6.4 0 9.1-1.3 9.1-4.4 0-.9.5-1.6 1-1.6.6 0 1-.9 1-2s.5-2 1-2c.6 0 1-1.4 1-3 0-1.7.5-3 1-3 1.5 0 1.3-11.7-.2-12.3-1-.3-1-.9 0-2.6.6-1.1 1.2-2.9 1.2-3.9s.9-2.8 2-4c1.1-1.2 2-2.7 2-3.4 0-.8.9-2 2-2.8 1.1-.8 2-2 2-2.8 0-.7.9-2.2 2-3.4 1.1-1.2 2-3.2 2-4.5 0-1.3.5-2.3 1-2.3.6 0 1-2.3 1-5 0-2.8-.4-5-1-5-.5 0-1-.9-1-2s-.4-2-1-2c-.5 0-1-.8-1-1.8s-.9-2.4-2-3.2c-1.1-.8-2-2.2-2-3.2 0-1.1-.7-1.8-1.9-1.8-1.1 0-2.1-.4-2.3-.8-.4-1.2-4.6-1.9-8.5-1.5zm-1.3 25.8c0 4.1-1.4 6.9-5.2 10.6-1.6 1.5-2.8 3.4-2.8 4.3 0 .9-.4 1.6-1 1.6-.5 0-1 1.8-1 4s-.4 4-1 4c-.5 0-1 .9-1 2 0 1.3-.7 2-2 2-1.8 0-2-.7-2-8 0-4.7.4-8 1-8s1-1.6 1-3.5c0-2.7.8-4.4 3.5-7 1.9-1.9 4.1-3.5 5-3.5.8 0 1.5-.5 1.5-1 0-.6.9-1 2-1 1.6 0 2 .7 2 3.5zm-36.7-.3c1.5.7 2.7 2 2.7 2.8 0 .9.9 2.2 2 3 1.2.8 2 2.6 2 4.2 0 1.5.5 2.8 1 2.8 1.7 0 1.2 13.6-.5 15-2.1 1.8-4.5-.4-4.5-4.1 0-1.6-.4-2.9-1-2.9-.5 0-1-.7-1-1.6 0-.8-.7-2.2-1.5-3.1-.9-.8-1.9-2.8-2.2-4.4-.3-1.6-.9-2.9-1.4-2.9-.5 0-.9-2.3-.9-5 0-5.4.7-5.9 5.3-3.8zM236 469c0 .5-.9 1-2 1-2.1 0-2.8 2.4-1 3.5.6.3 1 1.3 1 2.1 0 1.9 4.5 6.4 6.4 6.4.8 0 1.6.5 1.8 1.1.4 1.3 4.4-.6 6.5-3.1 2.6-3.2.5-7.3-5.5-10.8-2.6-1.4-7.2-1.6-7.2-.2zm38 2c0 .5-.7 1-1.6 1-2.6 0-4.4 2.6-4.4 6.4 0 3.5.1 3.6 3.5 3.6 3.7 0 8.5-3.5 8.5-6.2 0-.8.9-2 2-2.8 3.1-2.3 2.4-3-3-3-2.7 0-5 .4-5 1z"/></g><path d="M248 314.4c.7.7 1.3.7 2 0 .6-.6.3-1-1-1s-1.6.4-1 1z" fill="#FFF" fill-opacity=".11"/><path d="M336 405c0 .5.5 1 1 1 .6 0 1-.5 1-1 0-.6-.4-1-1-1-.5 0-1 .4-1 1zm-10.6 27.1c-1 1.7 1.3 3.6 2.7 2.2 1.2-1.2.4-3.3-1.1-3.3-.5 0-1.2.5-1.6 1.1zm2.6.9c0 .5-.4 1-1 1-.5 0-1-.5-1-1 0-.6.5-1 1-1 .6 0 1 .4 1 1z" fill="#FFF" fill-opacity=".02"/><path d="M180 342.4c0 .2.8 1 1.8 1.7 1.5 1.3 1.6 1.2.3-.4s-2.1-2.1-2.1-1.3z" fill="#FFF" fill-opacity=".13"/><path d="M209.3 45.7c3.7.2 9.7.2 13.5 0 3.7-.2.6-.3-6.8-.3-7.4 0-10.5.1-6.7.3zm99.5 0c1.2.2 3.2.2 4.5 0 1.2-.2.2-.4-2.3-.4s-3.5.2-2.2.4zm-116 2c1.2.2 3.2.2 4.5 0 1.2-.2.2-.4-2.3-.4s-3.5.2-2.2.4zm39.5 0c.9.2 2.5.2 3.5 0 .9-.3.1-.5-1.8-.5-1.9 0-2.7.2-1.7.5zm86.5 0c1.2.2 3.2.2 4.5 0 1.2-.2.2-.4-2.3-.4s-3.5.2-2.2.4zm-64.5 4c3.1.2 8.3.2 11.5 0 3.1-.2.5-.3-5.8-.3s-8.9.1-5.7.3zm84 0c.9.2 2.5.2 3.5 0 .9-.3.1-.5-1.8-.5-1.9 0-2.7.2-1.7.5zm-168.5 2c.6.2 1.8.2 2.5 0 .6-.3.1-.5-1.3-.5-1.4 0-1.9.2-1.2.5zm178 0c.6.2 1.8.2 2.5 0 .6-.3.1-.5-1.3-.5-1.4 0-1.9.2-1.2.5zm-190 4c.6.2 1.8.2 2.5 0 .6-.3.1-.5-1.3-.5-1.4 0-1.9.2-1.2.5zm-23 14c3.4.2 9 .2 12.5 0 3.4-.2.6-.3-6.3-.3-6.9 0-9.7.1-6.2.3zm251.5 4c.9.2 2.5.2 3.5 0 .9-.3.1-.5-1.8-.5-1.9 0-2.7.2-1.7.5zm7.5 2c.6.2 1.8.2 2.5 0 .6-.3.1-.5-1.3-.5-1.4 0-1.9.2-1.2.5zM97 125c0 .5.5 1 1 1 .6 0 1-.5 1-1 0-.6-.4-1-1-1-.5 0-1 .4-1 1zm106.8 76.7c1.7.2 4.7.2 6.5 0 1.7-.2.3-.4-3.3-.4-3.6 0-5 .2-3.2.4zm-26.5 12c1.5.2 3.9.2 5.5 0 1.5-.2.2-.4-2.8-.4s-4.3.2-2.7.4zm134.5 0c.6.2 1.8.2 2.5 0 .6-.3.1-.5-1.3-.5-1.4 0-1.9.2-1.2.5zm20.5 0c.9.2 2.5.2 3.5 0 .9-.3.1-.5-1.8-.5-1.9 0-2.7.2-1.7.5zm-164 2c.9.2 2.5.2 3.5 0 .9-.3.1-.5-1.8-.5-1.9 0-2.7.2-1.7.5zm221.5 60c.6.2 1.8.2 2.5 0 .6-.3.1-.5-1.3-.5-1.4 0-1.9.2-1.2.5zm-255 4c1.2.2 3.2.2 4.5 0 1.2-.2.2-.4-2.3-.4s-3.5.2-2.2.4zm68 17.5c.6.6 1.8.8 2.8.6 1.4-.3 1.2-.5-.9-1-1.9-.3-2.5-.2-1.9.4zm106.5 2.5c1.5.2 3.9.2 5.5 0 1.5-.2.2-.4-2.8-.4s-4.3.2-2.7.4zm-81 12c.9.2 2.5.2 3.5 0 .9-.3.1-.5-1.8-.5-1.9 0-2.7.2-1.7.5zm51.5 0c.6.2 1.8.2 2.5 0 .6-.3.1-.5-1.3-.5-1.4 0-1.9.2-1.2.5zm64 24c.6.2 1.8.2 2.5 0 .6-.3.1-.5-1.3-.5-1.4 0-1.9.2-1.2.5zM265 365.4c.7.7 1.3.7 2 0 .6-.6.3-1-1-1s-1.6.4-1 1zm-87 3.6c-.9.6-1 1-.3 1 .6 0 1.5-.5 1.8-1 .8-1.2.4-1.2-1.5 0zm167.8.7c.6.2 1.8.2 2.5 0 .6-.3.1-.5-1.3-.5-1.4 0-1.9.2-1.2.5zm-6 24c.6.2 1.8.2 2.5 0 .6-.3.1-.5-1.3-.5-1.4 0-1.9.2-1.2.5zm-166.9 1.6c.5.5 2.1.7 3.7.5 2.7-.3 2.6-.4-.8-.9-2.2-.3-3.4-.1-2.9.4zm114.9 12.4c.6.2 1.8.2 2.5 0 .6-.3.1-.5-1.3-.5-1.4 0-1.9.2-1.2.5zm-44 10c.6.2 1.8.2 2.5 0 .6-.3.1-.5-1.3-.5-1.4 0-1.9.2-1.2.5zm24 0c.6.2 1.8.2 2.5 0 .6-.3.1-.5-1.3-.5-1.4 0-1.9.2-1.2.5zm9.2 23.7c.7.7 1.3.7 2 0 .6-.6.3-1-1-1s-1.6.4-1 1zm-66 5.6-4.5.7 4.2.1c2.3.1 4.5-.3 4.8-.8.3-.6.5-.9.3-.8-.2 0-2.3.4-4.8.8zm26.8 20.7c.6.2 1.8.2 2.5 0 .6-.3.1-.5-1.3-.5-1.4 0-1.9.2-1.2.5zm-16 12c.6.2 1.8.2 2.5 0 .6-.3.1-.5-1.3-.5-1.4 0-1.9.2-1.2.5zm24.5 18c.9.2 2.5.2 3.5 0 .9-.3.1-.5-1.8-.5-1.9 0-2.7.2-1.7.5z" fill="#FFF" fill-opacity=".25"/><path d="M326 433c0 .5.5 1 1 1 .6 0 1-.5 1-1 0-.6-.4-1-1-1-.5 0-1 .4-1 1z" fill="#FFF" fill-opacity=".07"/><path d="M335.4 404.1c-1 1.7 1.3 3.6 2.7 2.2 1.2-1.2.4-3.3-1.1-3.3-.5 0-1.2.5-1.6 1.1zm2.6.9c0 .5-.4 1-1 1-.5 0-1-.5-1-1 0-.6.5-1 1-1 .6 0 1 .4 1 1zm-16 44c0 .5.5 1 1 1 .6 0 1-.5 1-1 0-.6-.4-1-1-1-.5 0-1 .4-1 1z" fill="#FFF" fill-opacity=".01"/><path d="M90.3 126.7c.9.2 2.5.2 3.5 0 .9-.3.1-.5-1.8-.5-1.9 0-2.7.2-1.7.5zm150 16c.9.2 2.5.2 3.5 0 .9-.3.1-.5-1.8-.5-1.9 0-2.7.2-1.7.5zm25.5 0c1.7.2 4.7.2 6.5 0 1.7-.2.3-.4-3.3-.4-3.6 0-5 .2-3.2.4zm12 2c.6.2 1.8.2 2.5 0 .6-.3.1-.5-1.3-.5-1.4 0-1.9.2-1.2.5zm15 4c1.2.2 3.2.2 4.5 0 1.2-.2.2-.4-2.3-.4s-3.5.2-2.2.4zm9 2c.6.2 1.8.2 2.5 0 .6-.3.1-.5-1.3-.5-1.4 0-1.9.2-1.2.5zm27 34c2.3.2 6.1.2 8.5 0 2.3-.2.4-.4-4.3-.4s-6.6.2-4.2.4zm17.5 2c.9.2 2.5.2 3.5 0 .9-.3.1-.5-1.8-.5-1.9 0-2.7.2-1.7.5zm-52.5 12c.6.2 1.8.2 2.5 0 .6-.3.1-.5-1.3-.5-1.4 0-1.9.2-1.2.5zm-70.5 6c1.5.2 3.9.2 5.5 0 1.5-.2.2-.4-2.8-.4s-4.3.2-2.7.4zm144.5 40c1.7.2 4.7.2 6.5 0 1.7-.2.3-.4-3.3-.4-3.6 0-5 .2-3.2.4zm-58 48c1.7.2 4.7.2 6.5 0 1.7-.2.3-.4-3.3-.4-3.6 0-5 .2-3.2.4zm15.5 0c1.5.2 3.9.2 5.5 0 1.5-.2.2-.4-2.8-.4s-4.3.2-2.7.4zm-135 2c.9.2 2.5.2 3.5 0 .9-.3.1-.5-1.8-.5-1.9 0-2.7.2-1.7.5zm17.5 0c.6.2 1.8.2 2.5 0 .6-.3.1-.5-1.3-.5-1.4 0-1.9.2-1.2.5zm-34 28c.6.2 1.8.2 2.5 0 .6-.3.1-.5-1.3-.5-1.4 0-1.9.2-1.2.5zm82.5 60c.9.2 2.5.2 3.5 0 .9-.3.1-.5-1.8-.5-1.9 0-2.7.2-1.7.5zm-16 12c2 .2 5.4.2 7.5 0 2-.2.3-.4-3.8-.4s-5.8.2-3.7.4zm29.5 2c1.7.2 4.7.2 6.5 0 1.7-.2.3-.4-3.3-.4-3.6 0-5 .2-3.2.4zm66 6c.7.3 1.6.2 1.9-.1.4-.3-.2-.6-1.3-.5-1.1 0-1.4.3-.6.6zm-14.6 6.8c0 1.6.2 2.2.5 1.2.2-.9.2-2.3 0-3-.3-.6-.5.1-.5 1.8zm7 7.5c0 1.4.2 1.9.5 1.2.2-.6.2-1.8 0-2.5-.3-.6-.5-.1-.5 1.3zm-89.9 13.7c.9.2 2.5.2 3.5 0 .9-.3.1-.5-1.8-.5-1.9 0-2.7.2-1.7.5zm10 0c.9.2 2.5.2 3.5 0 .9-.3.1-.5-1.8-.5-1.9 0-2.7.2-1.7.5zm15.5 0c.6.2 1.8.2 2.5 0 .6-.3.1-.5-1.3-.5-1.4 0-1.9.2-1.2.5zm-1 24c1.2.2 3.2.2 4.5 0 1.2-.2.2-.4-2.3-.4s-3.5.2-2.2.4zm13 0c.6.2 1.8.2 2.5 0 .6-.3.1-.5-1.3-.5-1.4 0-1.9.2-1.2.5zm-62 6c.6.2 1.8.2 2.5 0 .6-.3.1-.5-1.3-.5-1.4 0-1.9.2-1.2.5z" fill="#FFF" fill-opacity=".25"/><path d="m218.4 155.2-1.9 2.3 2.3-1.9c2.1-1.8 2.7-2.6 1.9-2.6-.2 0-1.2 1-2.3 2.2zm-10 12-1.9 2.3 2.3-1.9c2.1-1.8 2.7-2.6 1.9-2.6-.2 0-1.2 1-2.3 2.2zM314.5 179c1 1.1 2 2 2.3 2 .3 0-.3-.9-1.3-2s-2-2-2.3-2c-.3 0 .3.9 1.3 2zm-152.1 6.2-1.9 2.3 2.3-1.9c2.1-1.8 2.7-2.6 1.9-2.6-.2 0-1.2 1-2.3 2.2zm32 0-1.9 2.3 2.3-1.9c2.1-1.8 2.7-2.6 1.9-2.6-.2 0-1.2 1-2.3 2.2zm-14 12-1.9 2.3 2.3-1.9c2.1-1.8 2.7-2.6 1.9-2.6-.2 0-1.2 1-2.3 2.2zm-8 6-1.9 2.3 2.3-1.9c2.1-1.8 2.7-2.6 1.9-2.6-.2 0-1.2 1-2.3 2.2zm-30 24-1.9 2.3 2.3-1.9c2.1-1.8 2.7-2.6 1.9-2.6-.2 0-1.2 1-2.3 2.2zm108 0-1.9 2.3 2.3-1.9c2.1-1.8 2.7-2.6 1.9-2.6-.2 0-1.2 1-2.3 2.2zm14.1-.2c1 1.1 2 2 2.3 2 .3 0-.3-.9-1.3-2s-2-2-2.3-2c-.3 0 .3.9 1.3 2zm6 6c1 1.1 2 2 2.3 2 .3 0-.3-.9-1.3-2s-2-2-2.3-2c-.3 0 .3.9 1.3 2zm86 6c1 1.1 2 2 2.3 2 .3 0-.3-.9-1.3-2s-2-2-2.3-2c-.3 0 .3.9 1.3 2zm25.9.2-1.9 2.3 2.3-1.9c2.1-1.8 2.7-2.6 1.9-2.6-.2 0-1.2 1-2.3 2.2zM170.5 281c1 1.1 2 2 2.3 2 .3 0-.3-.9-1.3-2s-2-2-2.3-2c-.3 0 .3.9 1.3 2zm168.9 7.2-2.9 3.3 3.3-2.9c3-2.8 3.7-3.6 2.9-3.6-.2 0-1.6 1.5-3.3 3.2zM142.5 293c1 1.1 2 2 2.3 2 .3 0-.3-.9-1.3-2s-2-2-2.3-2c-.3 0 .3.9 1.3 2zm69.9.2-1.9 2.3 2.3-1.9c2.1-1.8 2.7-2.6 1.9-2.6-.2 0-1.2 1-2.3 2.2zm66 12-1.9 2.3 2.3-1.9c2.1-1.8 2.7-2.6 1.9-2.6-.2 0-1.2 1-2.3 2.2zm-33.9 5.8c1 1.1 2 2 2.3 2 .3 0-.3-.9-1.3-2s-2-2-2.3-2c-.3 0 .3.9 1.3 2zm28.5-.5c-.7.9-2 1.3-2.9 1-1.3-.5-1.4-.4-.3.7 1 1 1.6.8 3.4-1 1.2-1.2 2-2.2 1.6-2.2-.3 0-1.1.7-1.8 1.5zm85.4.7-1.9 2.3 2.3-1.9c1.2-1.1 2.2-2.1 2.2-2.3 0-.8-.8-.2-2.6 1.9zm-181 9.8c0 1.3.4 1.6 1 1 .7-.7.7-1.3 0-2-.6-.6-1-.3-1 1zm165 2.2-1.9 2.3 2.3-1.9c2.1-1.8 2.7-2.6 1.9-2.6-.2 0-1.2 1-2.3 2.2zm-6 6-1.9 2.3 2.3-1.9c2.1-1.8 2.7-2.6 1.9-2.6-.2 0-1.2 1-2.3 2.2zm-12 6-1.9 2.3 2.3-1.9c2.1-1.8 2.7-2.6 1.9-2.6-.2 0-1.2 1-2.3 2.2zm-56 6-1.9 2.3 2.3-1.9c2.1-1.8 2.7-2.6 1.9-2.6-.2 0-1.2 1-2.3 2.2zM54.5 353c1 1.1 2 2 2.3 2 .3 0-.3-.9-1.3-2s-2-2-2.3-2c-.3 0 .3.9 1.3 2zm114 0c1 1.1 2 2 2.3 2 .3 0-.3-.9-1.3-2s-2-2-2.3-2c-.3 0 .3.9 1.3 2zm52 0c1 1.1 2 2 2.3 2 .3 0-.3-.9-1.3-2s-2-2-2.3-2c-.3 0 .3.9 1.3 2zm123.9.2-1.9 2.3 2.3-1.9c1.2-1.1 2.2-2.1 2.2-2.3 0-.8-.8-.2-2.6 1.9zM224.5 359c1 1.1 2 2 2.3 2 .3 0-.3-.9-1.3-2s-2-2-2.3-2c-.3 0 .3.9 1.3 2zm224.3 18 2.2 2.4 2.3-2.4 2.2-2.4-2.2 1.8c-2.2 1.9-2.4 1.9-4.5 0l-2.3-1.8 2.3 2.4zm-382.3 6c1 1.1 2 2 2.3 2 .3 0-.3-.9-1.3-2s-2-2-2.3-2c-.3 0 .3.9 1.3 2zm107.9.2-1.9 2.3 2.3-1.9c2.1-1.8 2.7-2.6 1.9-2.6-.2 0-1.2 1-2.3 2.2zm90.1 11.8c1 1.1 2 2 2.3 2 .3 0-.3-.9-1.3-2s-2-2-2.3-2c-.3 0 .3.9 1.3 2zm15.9.2-1.9 2.3 2.3-1.9c2.1-1.8 2.7-2.6 1.9-2.6-.2 0-1.2 1-2.3 2.2zM92.5 419c1 1.1 2 2 2.3 2 .3 0-.3-.9-1.3-2s-2-2-2.3-2c-.3 0 .3.9 1.3 2zm321.9 12.2-1.9 2.3 2.3-1.9c1.2-1.1 2.2-2.1 2.2-2.3 0-.8-.8-.2-2.6 1.9zM270 460.4c.7.7 1.3.7 2 0 .6-.6.3-1-1-1s-1.6.4-1 1zm10 0c.7.7 1.3.7 2 0 .6-.6.3-1-1-1s-1.6.4-1 1zm3.5 9.4c.4.8-.1 2.3-1.1 3.5-1.8 2.2-1.8 2.2.6 0 2-1.9 2.2-2.5 1.1-3.5-1.1-1.1-1.3-1-.6 0zm-49 9.2c1 1.1 2 2 2.3 2 .3 0-.3-.9-1.3-2s-2-2-2.3-2c-.3 0 .3.9 1.3 2zm43.9.2-1.9 2.3 2.3-1.9c2.1-1.8 2.7-2.6 1.9-2.6-.2 0-1.2 1-2.3 2.2zM140.5 485c1 1.1 2 2 2.3 2 .3 0-.3-.9-1.3-2s-2-2-2.3-2c-.3 0 .3.9 1.3 2zm217.9.2-1.9 2.3 2.3-1.9c1.2-1.1 2.2-2.1 2.2-2.3 0-.8-.8-.2-2.6 1.9zm-4 6-1.9 2.3 2.3-1.9c1.2-1.1 2.2-2.1 2.2-2.3 0-.8-.8-.2-2.6 1.9zm20 0-1.9 2.3 2.3-1.9c1.2-1.1 2.2-2.1 2.2-2.3 0-.8-.8-.2-2.6 1.9zM168.5 497c1 1.1 2 2 2.3 2 .3 0-.3-.9-1.3-2s-2-2-2.3-2c-.3 0 .3.9 1.3 2zm10 12c1 1.1 2 2 2.3 2 .3 0-.3-.9-1.3-2s-2-2-2.3-2c-.3 0 .3.9 1.3 2zm161.9.2-1.9 2.3 2.3-1.9c2.1-1.8 2.7-2.6 1.9-2.6-.2 0-1.2 1-2.3 2.2zm-9 11-2.9 3.3 3.3-2.9c3-2.8 3.7-3.6 2.9-3.6-.2 0-1.6 1.5-3.3 3.2zM200.5 539c1 1.1 2 2 2.3 2 .3 0-.3-.9-1.3-2s-2-2-2.3-2c-.3 0 .3.9 1.3 2zm4 6c1 1.1 2 2 2.3 2 .3 0-.3-.9-1.3-2s-2-2-2.3-2c-.3 0 .3.9 1.3 2zm17.5 29.4c.7.7 1.3.7 2 0 .6-.6.3-1-1-1s-1.6.4-1 1zm32.5 24.6c1 1.1 2 2 2.3 2 .3 0-.3-.9-1.3-2s-2-2-2.3-2c-.3 0 .3.9 1.3 2zm5.9.2-1.9 2.3 2.3-1.9c1.2-1.1 2.2-2.1 2.2-2.3 0-.8-.8-.2-2.6 1.9z" fill="#FFF" fill-opacity=".18"/><path d="M320 294.4c.7.7 1.3.7 2 0 .6-.6.3-1-1-1s-1.6.4-1 1z" fill="#FFF" fill-opacity=".02"/><path d="M267.4 308.1c-.3.6-.2 1.5.3 2s.9.1.9-1.1c0-2.3-.2-2.4-1.2-.9z" fill="#FFF" fill-opacity=".15"/><path d="m336.4 317.2-1.9 2.3 2.3-1.9c2.1-1.8 2.7-2.6 1.9-2.6-.2 0-1.2 1-2.3 2.2z" fill="#FFF" fill-opacity=".07"/><path d="M232 460.4c.7.7 1.3.7 2 0 .6-.6.3-1-1-1s-1.6.4-1 1zm127.4 33.7c-.3.6-.2 1.5.3 2s.9.1.9-1.1c0-2.3-.2-2.4-1.2-.9z" fill="#FFF" fill-opacity=".09"/><path d="M43.1 239.6c0 1.1.3 1.4.6.6.3-.7.2-1.6-.1-1.9-.3-.4-.6.2-.5 1.3z" fill="#FFF" fill-opacity=".15"/><path d="M283.6 309.8c-.2.4.4.8 1.4.8 1 0 1.6-.4 1.4-.8-.3-.4-.9-.8-1.4-.8-.5 0-1.1.4-1.4.8z" fill="#FFF" fill-opacity=".12"/></svg>