<svg version="1.0" xmlns="http://www.w3.org/2000/svg" viewBox="0 0 514 602"><path d="M412 235.4c0 .2.8 1 1.8 1.7 1.5 1.3 1.6 1.2.3-.4s-2.1-2.1-2.1-1.3zm-220.1 7.3c-1.3 1.6-1.2 1.7.4.4.9-.7 1.7-1.5 1.7-1.7 0-.8-.8-.3-2.1 1.3zm94 66c-1.3 1.6-1.2 1.7.4.4 1.6-1.3 2.1-2.1 1.3-2.1-.2 0-1 .8-1.7 1.7zm-44.9 2.2c0 .6.4 1.3 1 1.6.6.3.7-.1.4-.9-.7-1.8-1.4-2.1-1.4-.7zm180.9 9.8c-1.3 1.6-1.2 1.7.4.4 1.6-1.3 2.1-2.1 1.3-2.1-.2 0-1 .8-1.7 1.7zM282 349.4c0 .2.8 1 1.8 1.7 1.5 1.3 1.6 1.2.3-.4s-2.1-2.1-2.1-1.3zm6 6c0 .2.8 1 1.8 1.7 1.5 1.3 1.6 1.2.3-.4s-2.1-2.1-2.1-1.3zm-69.1 182.3c-1.3 1.6-1.2 1.7.4.4 1.6-1.3 2.1-2.1 1.3-2.1-.2 0-1 .8-1.7 1.7z" fill="#FFF" fill-opacity=".06"/><path d="M373 63.4c0 .2.8 1 1.8 1.7 1.5 1.3 1.6 1.2.3-.4s-2.1-2.1-2.1-1.3zM111.9 81.7c-1.3 1.6-1.2 1.7.4.4 1.6-1.3 2.1-2.1 1.3-2.1-.2 0-1 .8-1.7 1.7zm28.5 7.5-1.9 2.3 2.3-1.9c2.1-1.8 2.7-2.6 1.9-2.6-.2 0-1.2 1-2.3 2.2zm231.5 4.5c-1.3 1.6-1.2 1.7.4.4.9-.7 1.7-1.5 1.7-1.7 0-.8-.8-.3-2.1 1.3zm18.1 4.7c0 .2.8 1 1.8 1.7 1.5 1.3 1.6 1.2.3-.4s-2.1-2.1-2.1-1.3zm48 12c0 .2.8 1 1.8 1.7 1.5 1.3 1.6 1.2.3-.4s-2.1-2.1-2.1-1.3zm4 6c0 .2.8 1 1.8 1.7 1.5 1.3 1.6 1.2.3-.4s-2.1-2.1-2.1-1.3zM69.9 129.7c-1.3 1.6-1.2 1.7.4.4.9-.7 1.7-1.5 1.7-1.7 0-.8-.8-.3-2.1 1.3zm80.1 10.7c0 .2.8 1 1.8 1.7 1.5 1.3 1.6 1.2.3-.4s-2.1-2.1-2.1-1.3zm-13.1 80.3c-1.3 1.6-1.2 1.7.4.4.9-.7 1.7-1.5 1.7-1.7 0-.8-.8-.3-2.1 1.3zm253.6.3c1 1.1 2 2 2.3 2 .3 0-.3-.9-1.3-2s-2-2-2.3-2c-.3 0 .3.9 1.3 2zm75.5 15.4c0 .2.8 1 1.8 1.7 1.5 1.3 1.6 1.2.3-.4s-2.1-2.1-2.1-1.3zm-26 1c0 .2.7.7 1.6 1 .8.3 1.2.2.9-.4-.6-1-2.5-1.4-2.5-.6zm-216.1 6.3c-1.3 1.6-1.2 1.7.4.4.9-.7 1.7-1.5 1.7-1.7 0-.8-.8-.3-2.1 1.3zm208 24c-1.3 1.6-1.2 1.7.4.4 1.6-1.3 2.1-2.1 1.3-2.1-.2 0-1 .8-1.7 1.7zm-116 6c-1.3 1.6-1.2 1.7.4.4.9-.7 1.7-1.5 1.7-1.7 0-.8-.8-.3-2.1 1.3zM95.5 286.1c-.3.4.2.6 1 .5 2.1-.3 2.8-1.3 1-1.3-.9 0-1.8.4-2 .8zm3 6.9c1 1.1 2 2 2.3 2 .3 0-.3-.9-1.3-2s-2-2-2.3-2c-.3 0 .3.9 1.3 2zm130.2 4c.7.8 2 1.5 2.9 1.6.9.1 1.3-.1.9-.4-.4-.4-1-.7-1.3-.7-.4 0-1.4-.4-2.2-.9-1.2-.7-1.3-.6-.3.4zm-136.2 8c1 1.1 2 2 2.3 2 .3 0-.3-.9-1.3-2s-2-2-2.3-2c-.3 0 .3.9 1.3 2zm144 0c1 1.1 2 2 2.3 2 .3 0-.3-.9-1.3-2s-2-2-2.3-2c-.3 0 .3.9 1.3 2zM118 308.4c0 .2.8 1 1.8 1.7 1.5 1.3 1.6 1.2.3-.4s-2.1-2.1-2.1-1.3zm289.9 1.3c-1.3 1.6-1.2 1.7.4.4 1.6-1.3 2.1-2.1 1.3-2.1-.2 0-1 .8-1.7 1.7zm-151 1c-1.3 1.6-1.2 1.7.4.4 1.6-1.3 2.1-2.1 1.3-2.1-.2 0-1 .8-1.7 1.7zM110 326.4c0 .2.8 1 1.8 1.7 1.5 1.3 1.6 1.2.3-.4s-2.1-2.1-2.1-1.3zm262 0c0 .2.8 1 1.8 1.7 1.5 1.3 1.6 1.2.3-.4s-2.1-2.1-2.1-1.3zm-36 6c0 .2.8 1 1.8 1.7 1.5 1.3 1.6 1.2.3-.4s-2.1-2.1-2.1-1.3zm-208 12c0 .2.8 1 1.8 1.7 1.5 1.3 1.6 1.2.3-.4s-2.1-2.1-2.1-1.3zm152.5 2.6c1 1.1 2 2 2.3 2 .3 0-.3-.9-1.3-2s-2-2-2.3-2c-.3 0 .3.9 1.3 2zm6 6c1 1.1 2 2 2.3 2 .3 0-.3-.9-1.3-2s-2-2-2.3-2c-.3 0 .3.9 1.3 2zm43.9.2-1.9 2.3 2.3-1.9c1.2-1.1 2.2-2.1 2.2-2.3 0-.8-.8-.2-2.6 1.9zM170 356.4c0 .2.8 1 1.8 1.7 1.5 1.3 1.6 1.2.3-.4s-2.1-2.1-2.1-1.3zm150 2c.7.7 1.3.7 2 0 .6-.6.3-1-1-1s-1.6.4-1 1zm8.5 12.6c1 1.1 2 2 2.3 2 .3 0-.3-.9-1.3-2s-2-2-2.3-2c-.3 0 .3.9 1.3 2zM224 374.4c0 .2.8 1 1.8 1.7 1.5 1.3 1.6 1.2.3-.4s-2.1-2.1-2.1-1.3zm-38.1 7.3c-1.3 1.6-1.2 1.7.4.4.9-.7 1.7-1.5 1.7-1.7 0-.8-.8-.3-2.1 1.3zm0 48c-1.3 1.6-1.2 1.7.4.4.9-.7 1.7-1.5 1.7-1.7 0-.8-.8-.3-2.1 1.3zM324 470.4c0 .2.8 1 1.8 1.7 1.5 1.3 1.6 1.2.3-.4s-2.1-2.1-2.1-1.3zm-38.1 43.3c-1.3 1.6-1.2 1.7.4.4.9-.7 1.7-1.5 1.7-1.7 0-.8-.8-.3-2.1 1.3zm-68.4 24.4c-.3.4.2.6 1 .5 2.1-.3 2.8-1.3 1-1.3-.9 0-1.8.4-2 .8z" fill="#FFF" fill-opacity=".19"/><path d="M161.8 39.7c.6.2 1.8.2 2.5 0 .6-.3.1-.5-1.3-.5-1.4 0-1.9.2-1.2.5zm6.4 5.3c0 1.4.2 1.9.5 1.2.2-.6.2-1.8 0-2.5-.3-.6-.5-.1-.5 1.3zm205.6.7c.7.3 1.6.2 1.9-.1.4-.3-.2-.6-1.3-.5-1.1 0-1.4.3-.6.6zm-6.7 6.9c0 1.1.3 1.4.6.6.3-.7.2-1.6-.1-1.9-.3-.4-.6.2-.5 1.3zM156.2 67c0 1.4.2 1.9.5 1.2.2-.6.2-1.8 0-2.5-.3-.6-.5-.1-.5 1.3zm2 27c0 1.9.2 2.7.5 1.7.2-.9.2-2.5 0-3.5-.3-.9-.5-.1-.5 1.8zm213 3c0 1.4.2 1.9.5 1.2.2-.6.2-1.8 0-2.5-.3-.6-.5-.1-.5 1.3zm-239.1 3.6c0 1.1.3 1.4.6.6.3-.7.2-1.6-.1-1.9-.3-.4-.6.2-.5 1.3zm26.2 3.9c0 2.2.2 3 .4 1.7.2-1.2.2-3 0-4-.3-.9-.5.1-.4 2.3zm-28.3 3c0 1.6.5 3.7 1 4.5.7 1.2 1 .8 1-1.5 0-1.7-.5-3.7-1-4.5-.7-1.2-1-.8-1 1.5zm273.4 6.5c0 5.2.1 7.4.3 4.7.2-2.6.2-6.8 0-9.5-.2-2.6-.3-.4-.3 4.8zm-32.1-1c0 2.5.2 3.5.4 2.2.2-1.2.2-3.2 0-4.5-.2-1.2-.4-.2-.4 2.3zm-215.1 2c0 1.4.2 1.9.5 1.2.2-.6.2-1.8 0-2.5-.3-.6-.5-.1-.5 1.3zm242.1 6c0 4.7.2 6.6.4 4.2.2-2.3.2-6.1 0-8.5-.2-2.3-.4-.4-.4 4.3zm-270.1 1 .1 7.5.7-6c.4-3.3.3-6.7-.1-7.5-.5-.9-.8 1.7-.7 6zm81.1-2.5c0 2.7.2 3.8.4 2.2.2-1.5.2-3.7 0-5-.2-1.2-.4 0-.4 2.8zm108.9.5c0 1.9.2 2.7.5 1.7.2-.9.2-2.5 0-3.5-.3-.9-.5-.1-.5 1.8zm-92 1c0 1.4.2 1.9.5 1.2.2-.6.2-1.8 0-2.5-.3-.6-.5-.1-.5 1.3zm-72 2.5c0 1.6.2 2.2.5 1.2.2-.9.2-2.3 0-3-.3-.6-.5.1-.5 1.8zm219 0c0 1.6.2 2.2.5 1.2.2-.9.2-2.3 0-3-.3-.6-.5.1-.5 1.8zm-145 3.5c0 1.4.2 1.9.5 1.2.2-.6.2-1.8 0-2.5-.3-.6-.5-.1-.5 1.3zm173 2.5c0 1.6.2 2.2.5 1.2.2-.9.2-2.3 0-3-.3-.6-.5.1-.5 1.8zm-249.1 1.1c0 1.1.3 1.4.6.6.3-.7.2-1.6-.1-1.9-.3-.4-.6.2-.5 1.3zm223 0c0 1.1.3 1.4.6.6.3-.7.2-1.6-.1-1.9-.3-.4-.6.2-.5 1.3zM230.2 133c0 1.4.2 1.9.5 1.2.2-.6.2-1.8 0-2.5-.3-.6-.5-.1-.5 1.3zm-96 1.6c-.7.8-.8 1.4-.3 1.4 1 0 2.5-1.9 2-2.5-.2-.1-1 .3-1.7 1.1zM381.3 147c0 3.6.2 5 .4 3.2.2-1.7.2-4.7 0-6.5-.2-1.7-.4-.3-.4 3.3zm-318.1-2c0 1.4.2 1.9.5 1.2.2-.6.2-1.8 0-2.5-.3-.6-.5-.1-.5 1.3zm89.1 1.5c0 2.2.2 3 .4 1.7.2-1.2.2-3 0-4-.3-.9-.5.1-.4 2.3zm134.9-1.5c0 1.4.2 1.9.5 1.2.2-.6.2-1.8 0-2.5-.3-.6-.5-.1-.5 1.3zm-225.9 9.5c0 3.3.2 4.5.4 2.7.2-1.8.2-4.5 0-6s-.4 0-.4 3.3zm223.9-3.5c0 1.4.2 1.9.5 1.2.2-.6.2-1.8 0-2.5-.3-.6-.5-.1-.5 1.3zm-45.1 3.6c0 1.1.3 1.4.6.6.3-.7.2-1.6-.1-1.9-.3-.4-.6.2-.5 1.3zm43.1 2.4c0 1.4.2 1.9.5 1.2.2-.6.2-1.8 0-2.5-.3-.6-.5-.1-.5 1.3zm180.9 1.6c0 1.1.3 1.4.6.6.3-.7.2-1.6-.1-1.9-.3-.4-.6.2-.5 1.3zm-174 2c0 1.1.3 1.4.6.6.3-.7.2-1.6-.1-1.9-.3-.4-.6.2-.5 1.3zm-8.9 4.4c0 1.4.2 1.9.5 1.2.2-.6.2-1.8 0-2.5-.3-.6-.5-.1-.5 1.3zm185.1 3.5c0 3.3.2 4.5.4 2.7.2-1.8.2-4.5 0-6s-.4 0-.4 3.3zm-229.2-1.9c0 1.1.3 1.4.6.6.3-.7.2-1.6-.1-1.9-.3-.4-.6.2-.5 1.3zm51.1 1.4c0 1.9.2 2.7.5 1.7.2-.9.2-2.5 0-3.5-.3-.9-.5-.1-.5 1.8zm-42 1c0 1.4.2 1.9.5 1.2.2-.6.2-1.8 0-2.5-.3-.6-.5-.1-.5 1.3zm33 5c0 1.9.2 2.7.5 1.7.2-.9.2-2.5 0-3.5-.3-.9-.5-.1-.5 1.8zm-40 .5c0 1.6.2 2.2.5 1.2.2-.9.2-2.3 0-3-.3-.6-.5.1-.5 1.8zm9 .5c0 1.4.2 1.9.5 1.2.2-.6.2-1.8 0-2.5-.3-.6-.5-.1-.5 1.3zm38.1 1.5c0 2.2.2 3 .4 1.7.2-1.2.2-3 0-4-.3-.9-.5.1-.4 2.3zm-188.5 2.2c.6.2 1.8.2 2.5 0 .6-.3.1-.5-1.3-.5-1.4 0-1.9.2-1.2.5zm315.5 0c3.7.2 9.7.2 13.5 0 3.7-.2.6-.3-6.8-.3-7.4 0-10.5.1-6.7.3zM241.2 182c0 1.9.2 2.7.5 1.7.2-.9.2-2.5 0-3.5-.3-.9-.5-.1-.5 1.8zm197.3-1c-.3.6.1.7.9.4 1.8-.7 2.1-1.4.7-1.4-.6 0-1.3.4-1.6 1zm-188.2 4c0 2.5.2 3.5.4 2.2.2-1.2.2-3.2 0-4.5-.2-1.2-.4-.2-.4 2.3zm27 0c0 2.5.2 3.5.4 2.2.2-1.2.2-3.2 0-4.5-.2-1.2-.4-.2-.4 2.3zm7 1.5c0 2.2.2 3 .4 1.7.2-1.2.2-3 0-4-.3-.9-.5.1-.4 2.3zm158-2.8c.9.2 2.5.2 3.5 0 .9-.3.1-.5-1.8-.5-1.9 0-2.7.2-1.7.5zM243.2 192c0 1.9.2 2.7.5 1.7.2-.9.2-2.5 0-3.5-.3-.9-.5-.1-.5 1.8zm-174 3.5c0 1.6.2 2.2.5 1.2.2-.9.2-2.3 0-3-.3-.6-.5.1-.5 1.8zm167 0c0 1.6.2 2.2.5 1.2.2-.9.2-2.3 0-3-.3-.6-.5.1-.5 1.8zm16 .5c0 1.9.2 2.7.5 1.7.2-.9.2-2.5 0-3.5-.3-.9-.5-.1-.5 1.8zm23.1 1c0 2.5.2 3.5.4 2.2.2-1.2.2-3.2 0-4.5-.2-1.2-.4-.2-.4 2.3zm7 0c0 2.5.2 3.5.4 2.2.2-1.2.2-3.2 0-4.5-.2-1.2-.4-.2-.4 2.3zm10.8-.4c0 1.1.3 1.4.6.6.3-.7.2-1.6-.1-1.9-.3-.4-.6.2-.5 1.3zm-47.8 6.4c0 2.5.2 3.5.4 2.2.2-1.2.2-3.2 0-4.5-.2-1.2-.4-.2-.4 2.3zm-12 2.5c0 2.7.2 3.8.4 2.2.2-1.5.2-3.7 0-5-.2-1.2-.4 0-.4 2.8zm57.8-2.9c0 1.1.3 1.4.6.6.3-.7.2-1.6-.1-1.9-.3-.4-.6.2-.5 1.3zm5.1.4c0 1.4.2 1.9.5 1.2.2-.6.2-1.8 0-2.5-.3-.6-.5-.1-.5 1.3zm-57.9 3.5c0 2.2.2 3 .4 1.7.2-1.2.2-3 0-4-.3-.9-.5.1-.4 2.3zm34.9-1c0 1.6.2 2.2.5 1.2.2-.9.2-2.3 0-3-.3-.6-.5.1-.5 1.8zm7 0c0 1.6.2 2.2.5 1.2.2-.9.2-2.3 0-3-.3-.6-.5.1-.5 1.8zm-17.9 2.2c.9.2 2.5.2 3.5 0 .9-.3.1-.5-1.8-.5-1.9 0-2.7.2-1.7.5zm-3.1 3.3c0 1.4.2 1.9.5 1.2.2-.6.2-1.8 0-2.5-.3-.6-.5-.1-.5 1.3zm-121.1 1.6c0 1.1.3 1.4.6.6.3-.7.2-1.6-.1-1.9-.3-.4-.6.2-.5 1.3zm251.2 2.4c0 2.5.2 3.5.4 2.2.2-1.2.2-3.2 0-4.5-.2-1.2-.4-.2-.4 2.3zm-154.2-.4c0 1.1.3 1.4.6.6.3-.7.2-1.6-.1-1.9-.3-.4-.6.2-.5 1.3zm-90.8 5.1c2 .2 5.4.2 7.5 0 2-.2.3-.4-3.8-.4s-5.8.2-3.7.4zm99.5 0c.6.2 1.8.2 2.5 0 .6-.3.1-.5-1.3-.5-1.4 0-1.9.2-1.2.5zm-72 6c.6.2 1.8.2 2.5 0 .6-.3.1-.5-1.3-.5-1.4 0-1.9.2-1.2.5zm188 0c.7.3 1.6.2 1.9-.1.4-.3-.2-.6-1.3-.5-1.1 0-1.4.3-.6.6zm-276.5 8.8c0 2.2.2 3 .4 1.7.2-1.2.2-3 0-4-.3-.9-.5.1-.4 2.3zm104.5-2.8c.6.2 1.8.2 2.5 0 .6-.3.1-.5-1.3-.5-1.4 0-1.9.2-1.2.5zm-78 1c.6.2 1.8.2 2.5 0 .6-.3.1-.5-1.3-.5-1.4 0-1.9.2-1.2.5zm-52.7 5.9c0 1.1.3 1.4.6.6.3-.7.2-1.6-.1-1.9-.3-.4-.6.2-.5 1.3zm153.7-.9c1.2.2 3.2.2 4.5 0 1.2-.2.2-.4-2.3-.4s-3.5.2-2.2.4zm231.4 3.3c0 1.4.2 1.9.5 1.2.2-.6.2-1.8 0-2.5-.3-.6-.5-.1-.5 1.3zm26.1 1.5c0 2.2.2 3 .4 1.7.2-1.2.2-3 0-4-.3-.9-.5.1-.4 2.3zm-52.2.1c0 1.1.3 1.4.6.6.3-.7.2-1.6-.1-1.9-.3-.4-.6.2-.5 1.3zM220.2 246c0 1.9.2 2.7.5 1.7.2-.9.2-2.5 0-3.5-.3-.9-.5-.1-.5 1.8zm19.5-1.3c.6.5 1.4 3.1 1.6 5.8l.4 5-.1-5.4c-.1-3.9-.5-5.6-1.6-5.8-1-.3-1.1-.2-.3.4zm17.1 13.5c.4 21.7.8 23.5 1 4.5.1-9.7-.1-17.7-.5-17.7-.5 0-.7 6-.5 13.2zM270 248c0 1.6.2 3 .4 3s.6-1.4.8-3c.3-1.7.1-3-.4-3-.4 0-.8 1.3-.8 3zm18.3 6c0 4.1.2 5.8.4 3.7.2-2 .2-5.4 0-7.5-.2-2-.4-.3-.4 3.8zm17.7-6c0 .5.5 1 1 1 .6 0 1-.5 1-1 0-.6-.4-1-1-1-.5 0-1 .4-1 1zm-167.7 2.7c2 .2 5.4.2 7.5 0 2-.2.3-.4-3.8-.4s-5.8.2-3.7.4zm213.5 0c.6.2 1.8.2 2.5 0 .6-.3.1-.5-1.3-.5-1.4 0-1.9.2-1.2.5zm52 0c.6.2 1.8.2 2.5 0 .6-.3.1-.5-1.3-.5-1.4 0-1.9.2-1.2.5zm-149.5 3.8c0 2.2.2 3 .4 1.7.2-1.2.2-3 0-4-.3-.9-.5.1-.4 2.3zm40.9-1.5c0 1.4.2 1.9.5 1.2.2-.6.2-1.8 0-2.5-.3-.6-.5-.1-.5 1.3zm51 .5c0 1.6.2 2.2.5 1.2.2-.9.2-2.3 0-3-.3-.6-.5.1-.5 1.8zm-113.9 4c0 2.7.2 3.8.4 2.2.2-1.5.2-3.7 0-5-.2-1.2-.4 0-.4 2.8zm7 6c0 2.7.2 3.8.4 2.2.2-1.5.2-3.7 0-5-.2-1.2-.4 0-.4 2.8zm31.1 12c0 9.3.2 13.3.3 8.8.2-4.5.2-12.2 0-17-.1-4.8-.3-1.2-.3 8.2zm24.9-12.5c0 2.5.2 3.5.4 2.2.2-1.2.2-3.2 0-4.5-.2-1.2-.4-.2-.4 2.3zm113.5-1.3c1.2.2 3.2.2 4.5 0 1.2-.2.2-.4-2.3-.4s-3.5.2-2.2.4zm-96.7 6c.1 6.2.6 5.6 1.1-1.5.2-2.3 0-4.2-.4-4.2-.5 0-.7 2.6-.7 5.7zm-59.8.3c0 3 .2 4.3.4 2.7.2-1.5.2-3.9 0-5.5-.2-1.5-.4-.2-.4 2.8zm23-1c0 2.5.2 3.5.4 2.2.2-1.2.2-3.2 0-4.5-.2-1.2-.4-.2-.4 2.3zm-62.1.5c0 1.6.2 2.2.5 1.2.2-.9.2-2.3 0-3-.3-.6-.5.1-.5 1.8zm206.9-.9c0 1.1.3 1.4.6.6.3-.7.2-1.6-.1-1.9-.3-.4-.6.2-.5 1.3zm-217.3 2.1c1.2.2 3.2.2 4.5 0 1.2-.2.2-.4-2.3-.4s-3.5.2-2.2.4zm-34.5 5c.9.2 2.5.2 3.5 0 .9-.3.1-.5-1.8-.5-1.9 0-2.7.2-1.7.5zm196 0c2 .2 5.4.2 7.5 0 2-.2.3-.4-3.8-.4s-5.8.2-3.7.4zM104.2 277c0 1.4.2 1.9.5 1.2.2-.6.2-1.8 0-2.5-.3-.6-.5-.1-.5 1.3zm146.1 6c0 4.7.2 6.6.4 4.2.2-2.3.2-6.1 0-8.5-.2-2.3-.4-.4-.4 4.3zm59.9-6c0 1.4.2 1.9.5 1.2.2-.6.2-1.8 0-2.5-.3-.6-.5-.1-.5 1.3zm117 0c0 1.4.2 1.9.5 1.2.2-.6.2-1.8 0-2.5-.3-.6-.5-.1-.5 1.3zm-44 2.5c0 1.6.2 2.2.5 1.2.2-.9.2-2.3 0-3-.3-.6-.5.1-.5 1.8zm-275.4.2c.6.2 1.8.2 2.5 0 .6-.3.1-.5-1.3-.5-1.4 0-1.9.2-1.2.5zm106.4 2.3c0 1.9.2 2.7.5 1.7.2-.9.2-2.5 0-3.5-.3-.9-.5-.1-.5 1.8zm99.1.5c0 2.2.2 3 .4 1.7.2-1.2.2-3 0-4-.3-.9-.5.1-.4 2.3zm66.9-.5c0 1.9.2 2.7.5 1.7.2-.9.2-2.5 0-3.5-.3-.9-.5-.1-.5 1.8zm-42.2 5.5c0 2.7.3 4.6.6 4.2.3-.3.6-2.2.6-4.2s-.3-3.9-.6-4.2c-.3-.4-.6 1.5-.6 4.2zm-82.8.5c0 1.9.2 2.7.5 1.7.2-.9.2-2.5 0-3.5-.3-.9-.5-.1-.5 1.8zm138.6-1.3c.7.3 1.6.2 1.9-.1.4-.3-.2-.6-1.3-.5-1.1 0-1.4.3-.6.6zM97.2 289c0 1.4.2 1.9.5 1.2.2-.6.2-1.8 0-2.5-.3-.6-.5-.1-.5 1.3zm42.6 2.7c.6.2 1.8.2 2.5 0 .6-.3.1-.5-1.3-.5-1.4 0-1.9.2-1.2.5zm68.4 2.3c0 1.9.2 2.7.5 1.7.2-.9.2-2.5 0-3.5-.3-.9-.5-.1-.5 1.8zm10.1-2.3c.9.2 2.5.2 3.5 0 .9-.3.1-.5-1.8-.5-1.9 0-2.7.2-1.7.5zm-38.5 1c.6.2 1.8.2 2.5 0 .6-.3.1-.5-1.3-.5-1.4 0-1.9.2-1.2.5zm190 0c.6.2 1.8.2 2.5 0 .6-.3.1-.5-1.3-.5-1.4 0-1.9.2-1.2.5zM213.4 305c0 5.8.1 8.1.3 5.2.2-2.8.2-7.6 0-10.5-.2-2.8-.3-.5-.3 5.3zm102.6-6.8c0 3.6.4 3.5 1.4-.5.4-1.6.2-2.7-.4-2.7-.5 0-1 1.4-1 3.2zm-142.2-.5c.6.2 1.8.2 2.5 0 .6-.3.1-.5-1.3-.5-1.4 0-1.9.2-1.2.5zm179 0c1.2.2 3.2.2 4.5 0 1.2-.2.2-.4-2.3-.4s-3.5.2-2.2.4zm13 0c.6.2 1.8.2 2.5 0 .6-.3.1-.5-1.3-.5-1.4 0-1.9.2-1.2.5zm8.2 4.3c0 .5.5 1 1 1 .6 0 1-.5 1-1 0-.6-.4-1-1-1-.5 0-1 .4-1 1zm-32.7 4.5c0 2.2.2 3 .4 1.7.2-1.2.2-3 0-4-.3-.9-.5.1-.4 2.3zm-27 2.5c0 2.5.2 3.5.4 2.2.2-1.2.2-3.2 0-4.5-.2-1.2-.4-.2-.4 2.3zm59.8 1.6c0 1.1.3 1.4.6.6.3-.7.2-1.6-.1-1.9-.3-.4-.6.2-.5 1.3zm-100.3.1c1.7.2 4.7.2 6.5 0 1.7-.2.3-.4-3.3-.4-3.6 0-5 .2-3.2.4zm124 0c.6.2 1.8.2 2.5 0 .6-.3.1-.5-1.3-.5-1.4 0-1.9.2-1.2.5zm-277.5 3.8c0 2.2.2 3 .4 1.7.2-1.2.2-3 0-4-.3-.9-.5.1-.4 2.3zm286.9-1.5c0 1.4.2 1.9.5 1.2.2-.6.2-1.8 0-2.5-.3-.6-.5-.1-.5 1.3zm-328.1 1.6c0 1.1.3 1.4.6.6.3-.7.2-1.6-.1-1.9-.3-.4-.6.2-.5 1.3zm367.1.9c0 1.6.2 2.2.5 1.2.2-.9.2-2.3 0-3-.3-.6-.5.1-.5 1.8zm-199.4.2c1.2.2 3.2.2 4.5 0 1.2-.2.2-.4-2.3-.4s-3.5.2-2.2.4zm29 0c.6.2 1.8.2 2.5 0 .6-.3.1-.5-1.3-.5-1.4 0-1.9.2-1.2.5zm-60.6 3.8c0 1.6.2 2.2.5 1.2.2-.9.2-2.3 0-3-.3-.6-.5.1-.5 1.8zm97-.5c0 1.4.2 1.9.5 1.2.2-.6.2-1.8 0-2.5-.3-.6-.5-.1-.5 1.3zm3 0c0 1.4.2 1.9.5 1.2.2-.6.2-1.8 0-2.5-.3-.6-.5-.1-.5 1.3zm92 2c0 1.4.2 1.9.5 1.2.2-.6.2-1.8 0-2.5-.3-.6-.5-.1-.5 1.3zm-271.4.7c.6.2 1.8.2 2.5 0 .6-.3.1-.5-1.3-.5-1.4 0-1.9.2-1.2.5zm260 0c1.7.2 4.7.2 6.5 0 1.7-.2.3-.4-3.3-.4-3.6 0-5 .2-3.2.4zm-85.6 3.3c0 1.4.2 1.9.5 1.2.2-.6.2-1.8 0-2.5-.3-.6-.5-.1-.5 1.3zm-93.1 1.6c0 1.1.3 1.4.6.6.3-.7.2-1.6-.1-1.9-.3-.4-.6.2-.5 1.3zm91.1 5.4c0 1.4.2 1.9.5 1.2.2-.6.2-1.8 0-2.5-.3-.6-.5-.1-.5 1.3zm-89.1.6c0 1.1.3 1.4.6.6.3-.7.2-1.6-.1-1.9-.3-.4-.6.2-.5 1.3zm122.2 2.9c0 2.7.2 3.8.4 2.2.2-1.5.2-3.7 0-5-.2-1.2-.4 0-.4 2.8zm-139.5-1.8c.6.2 1.8.2 2.5 0 .6-.3.1-.5-1.3-.5-1.4 0-1.9.2-1.2.5zm117 0c1.2.2 3.2.2 4.5 0 1.2-.2.2-.4-2.3-.4s-3.5.2-2.2.4zm19.5 6.3c0 3 .2 4.3.4 2.7.2-1.5.2-3.9 0-5.5-.2-1.5-.4-.2-.4 2.8zm76.8-3.3c-.1 1.2-.7 2.4-1.3 2.6-1 .4-1 .6 0 .6 1.5.1 2.6-2.3 1.9-4.1-.3-.7-.6-.3-.6.9zm-193.9 2.8c0 1.6.2 2.2.5 1.2.2-.9.2-2.3 0-3-.3-.6-.5.1-.5 1.8zm85-.5c0 1.4.2 1.9.5 1.2.2-.6.2-1.8 0-2.5-.3-.6-.5-.1-.5 1.3zm-166.9 1.7c2.6.2 6.8.2 9.5 0 2.6-.2.4-.3-4.8-.3s-7.4.1-4.7.3zm233.3.2c-.3.4.6.6 1.9.3 1.4-.2 2.5-.6 2.5-.8 0-.8-3.9-.4-4.4.5zM107.2 343c0 1.4.2 1.9.5 1.2.2-.6.2-1.8 0-2.5-.3-.6-.5-.1-.5 1.3zm204.1 1.5c0 2.2.2 3 .4 1.7.2-1.2.2-3 0-4-.3-.9-.5.1-.4 2.3zm-61.1.1c-.7.8-.8 1.4-.3 1.4 1 0 2.5-1.9 2-2.5-.2-.1-1 .3-1.7 1.1zm-27 3.4c0 1.9.2 2.7.5 1.7.2-.9.2-2.5 0-3.5-.3-.9-.5-.1-.5 1.8zm-60.9-1.3c.9.2 2.5.2 3.5 0 .9-.3.1-.5-1.8-.5-1.9 0-2.7.2-1.7.5zm12.5 0c1.2.2 3.2.2 4.5 0 1.2-.2.2-.4-2.3-.4s-3.5.2-2.2.4zm173 0c.6.2 1.8.2 2.5 0 .6-.3.1-.5-1.3-.5-1.4 0-1.9.2-1.2.5zm70.7.3c-.3.6.1.7.9.4 1.8-.7 2.1-1.4.7-1.4-.6 0-1.3.4-1.6 1zm-21.8 2.9c-.4 1.8-.7 4.5-.6 6 .1 1.7.4 1.1 1-1.9.5-2.5.8-5.2.6-6-.2-.8-.6 0-1 1.9zm-238.9 1.8c.6.2 1.8.2 2.5 0 .6-.3.1-.5-1.3-.5-1.4 0-1.9.2-1.2.5zm213.5 0c1.5.2 3.9.2 5.5 0 1.5-.2.2-.4-2.8-.4s-4.3.2-2.7.4zm-18.2 6.9c0 1.1.3 1.4.6.6.3-.7.2-1.6-.1-1.9-.3-.4-.6.2-.5 1.3zm-181 1.9c0 1.1.4 2.9.9 4 .8 1.8.9 1.8.9-.5 0-1.4-.4-3.2-.9-4-.8-1.2-1-1.2-.9.5zm28 2.1c0 1.1.3 1.4.6.6.3-.7.2-1.6-.1-1.9-.3-.4-.6.2-.5 1.3zm125.1.4c0 1.4.2 1.9.5 1.2.2-.6.2-1.8 0-2.5-.3-.6-.5-.1-.5 1.3zm26.9-.4c0 1.1.3 1.4.6.6.3-.7.2-1.6-.1-1.9-.3-.4-.6.2-.5 1.3zm-122.9 6.9c0 1.6.2 2.2.5 1.2.2-.9.2-2.3 0-3-.3-.6-.5.1-.5 1.8zm67 0c0 1.6.2 2.2.5 1.2.2-.9.2-2.3 0-3-.3-.6-.5.1-.5 1.8zm-85.4.2c1.2.2 3.2.2 4.5 0 1.2-.2.2-.4-2.3-.4s-3.5.2-2.2.4zm103.5 0c.9.2 2.5.2 3.5 0 .9-.3.1-.5-1.8-.5-1.9 0-2.7.2-1.7.5zm-80.5 7c.6.2 1.8.2 2.5 0 .6-.3.1-.5-1.3-.5-1.4 0-1.9.2-1.2.5zm87.3 3.9c0 1.1.3 1.4.6.6.3-.7.2-1.6-.1-1.9-.3-.4-.6.2-.5 1.3zm-92.9 3.4c0 1.9.2 2.7.5 1.7.2-.9.2-2.5 0-3.5-.3-.9-.5-.1-.5 1.8zm66.9 2.6c0 1.1.3 1.4.6.6.3-.7.2-1.6-.1-1.9-.3-.4-.6.2-.5 1.3zm-65.9 8.4c0 1.4.2 1.9.5 1.2.2-.6.2-1.8 0-2.5-.3-.6-.5-.1-.5 1.3zm67.1 1.5c0 2.2.2 3 .4 1.7.2-1.2.2-3 0-4-.3-.9-.5.1-.4 2.3zm-105.2 8.1c0 1.1.3 1.4.6.6.3-.7.2-1.6-.1-1.9-.3-.4-.6.2-.5 1.3zm103 0c0 1.1.3 1.4.6.6.3-.7.2-1.6-.1-1.9-.3-.4-.6.2-.5 1.3zm3 2c0 1.1.3 1.4.6.6.3-.7.2-1.6-.1-1.9-.3-.4-.6.2-.5 1.3zm20.7.1c.6.2 1.8.2 2.5 0 .6-.3.1-.5-1.3-.5-1.4 0-1.9.2-1.2.5zm-15 6c1.2.2 3.2.2 4.5 0 1.2-.2.2-.4-2.3-.4s-3.5.2-2.2.4zm25.5 0c.9.2 2.5.2 3.5 0 .9-.3.1-.5-1.8-.5-1.9 0-2.7.2-1.7.5zm-10.5 5c.6.2 1.8.2 2.5 0 .6-.3.1-.5-1.3-.5-1.4 0-1.9.2-1.2.5zm-23.6 9.8c0 1.6.2 2.2.5 1.2.2-.9.2-2.3 0-3-.3-.6-.5.1-.5 1.8zm-66.1 1.1c0 1.1.3 1.4.6.6.3-.7.2-1.6-.1-1.9-.3-.4-.6.2-.5 1.3zm3 0c0 1.1.3 1.4.6.6.3-.7.2-1.6-.1-1.9-.3-.4-.6.2-.5 1.3zm66 0c0 1.1.3 1.4.6.6.3-.7.2-1.6-.1-1.9-.3-.4-.6.2-.5 1.3zM185.2 433c0 1.4.2 1.9.5 1.2.2-.6.2-1.8 0-2.5-.3-.6-.5-.1-.5 1.3zm5.1 3.7c2 .2 5.4.2 7.5 0 2-.2.3-.4-3.8-.4s-5.8.2-3.7.4zm28 0c.9.2 2.5.2 3.5 0 .9-.3.1-.5-1.8-.5-1.9 0-2.7.2-1.7.5zm108 0c.9.2 2.5.2 3.5 0 .9-.3.1-.5-1.8-.5-1.9 0-2.7.2-1.7.5zm-102.1 12.8c0 1.6.3 3.9.8 5 .8 1.8.9 1.8.8-.5 0-1.4-.4-3.6-.8-5-.8-2.4-.8-2.4-.8.5zm-23.9 5.2c2 .2 5.4.2 7.5 0 2-.2.3-.4-3.8-.4s-5.8.2-3.7.4zm107.5 0c.6.2 1.8.2 2.5 0 .6-.3.1-.5-1.3-.5-1.4 0-1.9.2-1.2.5zm-10.7 15.9c0 1.1.3 1.4.6.6.3-.7.2-1.6-.1-1.9-.3-.4-.6.2-.5 1.3zm-11.3 1.1c.6.2 1.8.2 2.5 0 .6-.3.1-.5-1.3-.5-1.4 0-1.9.2-1.2.5zm-86.7 4.9c0 1.1.3 1.4.6.6.3-.7.2-1.6-.1-1.9-.3-.4-.6.2-.5 1.3zm32.2 2.4c0 2.5.2 3.5.4 2.2.2-1.2.2-3.2 0-4.5-.2-1.2-.4-.2-.4 2.3zm63 2.5c0 2.7.2 3.8.4 2.2.2-1.5.2-3.7 0-5-.2-1.2-.4 0-.4 2.8zm13.5-2.8c.6.2 1.8.2 2.5 0 .6-.3.1-.5-1.3-.5-1.4 0-1.9.2-1.2.5zm-63.5 23c.9.2 2.5.2 3.5 0 .9-.3.1-.5-1.8-.5-1.9 0-2.7.2-1.7.5zm-5 7.3c0 2.5.2 3.5.4 2.2.2-1.2.2-3.2 0-4.5-.2-1.2-.4-.2-.4 2.3zm44.8-2.4c0 1.1.3 1.4.6.6.3-.7.2-1.6-.1-1.9-.3-.4-.6.2-.5 1.3zm-57.8 1.1c.9.2 2.5.2 3.5 0 .9-.3.1-.5-1.8-.5-1.9 0-2.7.2-1.7.5zm87.5 0c2.8.2 7.6.2 10.5 0 2.8-.2.5-.3-5.3-.3s-8.1.1-5.2.3zm24.6 14.3c0 5.2.1 7.4.3 4.7.2-2.6.2-6.8 0-9.5-.2-2.6-.3-.4-.3 4.8zm-53.2-4.5c0 1.6.2 2.2.5 1.2.2-.9.2-2.3 0-3-.3-.6-.5.1-.5 1.8zm-101.8 8c0 4.9.1 7.1.3 4.8.2-2.3.2-6.4 0-9-.2-2.6-.3-.8-.3 4.2zm58.6 7.4c0 2.2.5 4.3 1 4.6.6.4 1-1.2 1-3.9 0-2.5-.4-4.6-1-4.6-.5 0-1 1.8-1 3.9zm94.3 3.6c0 2.2.2 3 .4 1.7.2-1.2.2-3 0-4-.3-.9-.5.1-.4 2.3zm-60.3-.6c0 .6.5 1.3 1 1.6.6.3 1-.1 1-.9 0-.9-.4-1.6-1-1.6-.5 0-1 .4-1 .9zm-90.8 4.1c0 1.9.2 2.7.5 1.7.2-.9.2-2.5 0-3.5-.3-.9-.5-.1-.5 1.8zm115.1 1.5c0 2.7.2 3.8.4 2.2.2-1.5.2-3.7 0-5-.2-1.2-.4 0-.4 2.8zm-81.1-.5c0 1.4.2 1.9.5 1.2.2-.6.2-1.8 0-2.5-.3-.6-.5-.1-.5 1.3zm21 0c0 1.4.2 1.9.5 1.2.2-.6.2-1.8 0-2.5-.3-.6-.5-.1-.5 1.3zm38.9 1.6c0 1.1.3 1.4.6.6.3-.7.2-1.6-.1-1.9-.3-.4-.6.2-.5 1.3zm-40.9 4.4c0 1.4.2 1.9.5 1.2.2-.6.2-1.8 0-2.5-.3-.6-.5-.1-.5 1.3z" fill="#FFF" fill-opacity=".25"/><path d="M156.8 40.7c.7.3 1.6.2 1.9-.1.4-.3-.2-.6-1.3-.5-1.1 0-1.4.3-.6.6zm-4 2c.7.3 1.6.2 1.9-.1.4-.3-.2-.6-1.3-.5-1.1 0-1.4.3-.6.6zm227 4c.7.3 1.6.2 1.9-.1.4-.3-.2-.6-1.3-.5-1.1 0-1.4.3-.6.6zm-233 2c.7.3 1.6.2 1.9-.1.4-.3-.2-.6-1.3-.5-1.1 0-1.4.3-.6.6zm-8 4c.7.3 1.6.2 1.9-.1.4-.3-.2-.6-1.3-.5-1.1 0-1.4.3-.6.6zm-16 18c.7.3 1.6.2 1.9-.1.4-.3-.2-.6-1.3-.5-1.1 0-1.4.3-.6.6zm254 18c.6.2 1.8.2 2.5 0 .6-.3.1-.5-1.3-.5-1.4 0-1.9.2-1.2.5zm5 2c.7.3 1.6.2 1.9-.1.4-.3-.2-.6-1.3-.5-1.1 0-1.4.3-.6.6zm-281 6c.7.3 1.6.2 1.9-.1.4-.3-.2-.6-1.3-.5-1.1 0-1.4.3-.6.6zm208 16c.7.3 1.6.2 1.9-.1.4-.3-.2-.6-1.3-.5-1.1 0-1.4.3-.6.6zm118 72c.7.3 1.6.2 1.9-.1.4-.3-.2-.6-1.3-.5-1.1 0-1.4.3-.6.6zm23.5 0c.9.2 2.3.2 3 0 .6-.3-.1-.5-1.8-.5-1.6 0-2.2.2-1.2.5zm-343.3.7c0 .2.7.7 1.6 1 .8.3 1.2.2.9-.4-.6-1-2.5-1.4-2.5-.6zm315.8 1.3c.7.3 1.6.2 1.9-.1.4-.3-.2-.6-1.3-.5-1.1 0-1.4.3-.6.6zm-309 4c.7.3 1.6.2 1.9-.1.4-.3-.2-.6-1.3-.5-1.1 0-1.4.3-.6.6zm183.5 0c.9.2 2.5.2 3.5 0 .9-.3.1-.5-1.8-.5-1.9 0-2.7.2-1.7.5zm-167.5 12c.7.3 1.6.2 1.9-.1.4-.3-.2-.6-1.3-.5-1.1 0-1.4.3-.6.6zm123.5 12c.9.2 2.3.2 3 0 .6-.3-.1-.5-1.8-.5-1.6 0-2.2.2-1.2.5zm24 0c1.5.2 3.9.2 5.5 0 1.5-.2.2-.4-2.8-.4s-4.3.2-2.7.4zm-118.5 6c1.2.2 3 .2 4 0 .9-.3-.1-.5-2.3-.4-2.2 0-3 .2-1.7.4zm215 0c2.3.2 6.1.2 8.5 0 2.3-.2.4-.4-4.3-.4s-6.6.2-4.2.4zm-207.5 2c.9.2 2.3.2 3 0 .6-.3-.1-.5-1.8-.5-1.6 0-2.2.2-1.2.5zm199 0c.9.2 2.3.2 3 0 .6-.3-.1-.5-1.8-.5-1.6 0-2.2.2-1.2.5zm-187.5 4c.7.3 1.6.2 1.9-.1.4-.3-.2-.6-1.3-.5-1.1 0-1.4.3-.6.6zm175 0c.7.3 1.6.2 1.9-.1.4-.3-.2-.6-1.3-.5-1.1 0-1.4.3-.6.6zm-294 2c.6.2 1.8.2 2.5 0 .6-.3.1-.5-1.3-.5-1.4 0-1.9.2-1.2.5zm26 0c.6.2 1.8.2 2.5 0 .6-.3.1-.5-1.3-.5-1.4 0-1.9.2-1.2.5zm97.5 0c.9.2 2.3.2 3 0 .6-.3-.1-.5-1.8-.5-1.6 0-2.2.2-1.2.5zm165 0c.9.2 2.3.2 3 0 .6-.3-.1-.5-1.8-.5-1.6 0-2.2.2-1.2.5zm-281.5 4c.7.3 1.6.2 1.9-.1.4-.3-.2-.6-1.3-.5-1.1 0-1.4.3-.6.6zm275 0c.7.3 1.6.2 1.9-.1.4-.3-.2-.6-1.3-.5-1.1 0-1.4.3-.6.6zm-25.5 2c.9.2 2.5.2 3.5 0 .9-.3.1-.5-1.8-.5-1.9 0-2.7.2-1.7.5zm-115 4c1.5.2 3.7.2 5 0 1.2-.2 0-.4-2.8-.4-2.7 0-3.8.2-2.2.4zm125.5 0c.7.3 1.6.2 1.9-.1.4-.3-.2-.6-1.3-.5-1.1 0-1.4.3-.6.6zm4 2c.7.3 1.6.2 1.9-.1.4-.3-.2-.6-1.3-.5-1.1 0-1.4.3-.6.6zm8 4c.7.3 1.6.2 1.9-.1.4-.3-.2-.6-1.3-.5-1.1 0-1.4.3-.6.6zm63.5 18c.9.2 2.3.2 3 0 .6-.3-.1-.5-1.8-.5-1.6 0-2.2.2-1.2.5zm16.5 0c.7.3 1.6.2 1.9-.1.4-.3-.2-.6-1.3-.5-1.1 0-1.4.3-.6.6zm-286 2c.7.3 1.6.2 1.9-.1.4-.3-.2-.6-1.3-.5-1.1 0-1.4.3-.6.6zm265 0c.7.3 1.6.2 1.9-.1.4-.3-.2-.6-1.3-.5-1.1 0-1.4.3-.6.6zm-259 4c.7.3 1.6.2 1.9-.1.4-.3-.2-.6-1.3-.5-1.1 0-1.4.3-.6.6zm19 2c1.7.2 4.7.2 6.5 0 1.7-.2.3-.4-3.3-.4-3.6 0-5 .2-3.2.4zm43 0c1.2.2 3.2.2 4.5 0 1.2-.2.2-.4-2.3-.4s-3.5.2-2.2.4zm90 0c.6.2 1.8.2 2.5 0 .6-.3.1-.5-1.3-.5-1.4 0-1.9.2-1.2.5zm31 0c1.7.2 4.7.2 6.5 0 1.7-.2.3-.4-3.3-.4-3.6 0-5 .2-3.2.4zm-144.5 4c.9.2 2.3.2 3 0 .6-.3-.1-.5-1.8-.5-1.6 0-2.2.2-1.2.5zm175.5 0c1.2.2 3 .2 4 0 .9-.3-.1-.5-2.3-.4-2.2 0-3 .2-1.7.4zm-5 2c.7.3 1.6.2 1.9-.1.4-.3-.2-.6-1.3-.5-1.1 0-1.4.3-.6.6zm70 6c1.8.2 4.5.2 6 0s0-.4-3.3-.4-4.5.2-2.7.4zm-299 4c.6.2 1.8.2 2.5 0 .6-.3.1-.5-1.3-.5-1.4 0-1.9.2-1.2.5zm10.5 0c.9.2 2.3.2 3 0 .6-.3-.1-.5-1.8-.5-1.6 0-2.2.2-1.2.5zm274 0c2 .2 5.4.2 7.5 0 2-.2.3-.4-3.8-.4s-5.8.2-3.7.4zm-267.5 1.5c.5.5 1.6.8 2.3.6.8-.3.3-.7-1-1.1-1.7-.4-2.1-.3-1.3.5zM308 288c-.9.6-1 1-.3 1 .6 0 1.5-.5 1.8-1 .8-1.2.4-1.2-1.5 0zm-162.2 4.7c.7.3 1.6.2 1.9-.1.4-.3-.2-.6-1.3-.5-1.1 0-1.4.3-.6.6zm286.5 2c1.5.2 3.9.2 5.5 0 1.5-.2.2-.4-2.8-.4s-4.3.2-2.7.4zm-328.5 4c.7.3 1.6.2 1.9-.1.4-.3-.2-.6-1.3-.5-1.1 0-1.4.3-.6.6zm76 0c.7.3 1.6.2 1.9-.1.4-.3-.2-.6-1.3-.5-1.1 0-1.4.3-.6.6zm165 0c.7.3 1.6.2 1.9-.1.4-.3-.2-.6-1.3-.5-1.1 0-1.4.3-.6.6zm78 0c.7.3 1.6.2 1.9-.1.4-.3-.2-.6-1.3-.5-1.1 0-1.4.3-.6.6zm-339.5 8c.9.2 2.3.2 3 0 .6-.3-.1-.5-1.8-.5-1.6 0-2.2.2-1.2.5zm32.5 0c.7.3 1.6.2 1.9-.1.4-.3-.2-.6-1.3-.5-1.1 0-1.4.3-.6.6zm77 0c2.3.2 5.9.2 8 0 2-.2.1-.4-4.3-.4-4.4 0-6.1.2-3.7.4zm134.5 0c2 .2 5.4.2 7.5 0 2-.2.3-.4-3.8-.4s-5.8.2-3.7.4zm-55.5 6c.7.3 1.6.2 1.9-.1.4-.3-.2-.6-1.3-.5-1.1 0-1.4.3-.6.6zm9 0c.7.3 1.6.2 1.9-.1.4-.3-.2-.6-1.3-.5-1.1 0-1.4.3-.6.6zm-157.1 6c1.8.2 5 .2 7 0 2.1-.2.7-.4-3.2-.4-3.8 0-5.5.2-3.8.4zm239.1 4c1.2.2 3 .2 4 0 .9-.3-.1-.5-2.3-.4-2.2 0-3 .2-1.7.4zm26 0c.7.3 1.6.2 1.9-.1.4-.3-.2-.6-1.3-.5-1.1 0-1.4.3-.6.6zm-245 2c.7.3 1.6.2 1.9-.1.4-.3-.2-.6-1.3-.5-1.1 0-1.4.3-.6.6zm17 0c2.8.2 7.6.2 10.5 0 2.8-.2.5-.3-5.3-.3s-8.1.1-5.2.3zm186 0c.7.3 1.6.2 1.9-.1.4-.3-.2-.6-1.3-.5-1.1 0-1.4.3-.6.6zm23 0c.7.3 1.6.2 1.9-.1.4-.3-.2-.6-1.3-.5-1.1 0-1.4.3-.6.6zm13.5 0c.9.2 2.3.2 3 0 .6-.3-.1-.5-1.8-.5-1.6 0-2.2.2-1.2.5zm-199.5 4c.7.3 1.6.2 1.9-.1.4-.3-.2-.6-1.3-.5-1.1 0-1.4.3-.6.6zm9 2c.7.3 1.6.2 1.9-.1.4-.3-.2-.6-1.3-.5-1.1 0-1.4.3-.6.6zm139.5 0c.9.2 2.3.2 3 0 .6-.3-.1-.5-1.8-.5-1.6 0-2.2.2-1.2.5zm-124.5 4c.7.3 1.6.2 1.9-.1.4-.3-.2-.6-1.3-.5-1.1 0-1.4.3-.6.6zm-92.5 2c1.5.2 3.7.2 5 0 1.2-.2 0-.4-2.8-.4-2.7 0-3.8.2-2.2.4zm293.5 0c.6.2 1.8.2 2.5 0 .6-.3.1-.5-1.3-.5-1.4 0-1.9.2-1.2.5zm-8 4c.7.3 1.6.2 1.9-.1.4-.3-.2-.6-1.3-.5-1.1 0-1.4.3-.6.6zm-264.5 6c2.6.2 6.8.2 9.5 0 2.6-.2.4-.3-4.8-.3s-7.4.1-4.7.3zm253 0c.9.2 2.5.2 3.5 0 .9-.3.1-.5-1.8-.5-1.9 0-2.7.2-1.7.5zm-237 2c.9.2 2.3.2 3 0 .6-.3-.1-.5-1.8-.5-1.6 0-2.2.2-1.2.5zm231 0c.9.2 2.3.2 3 0 .6-.3-.1-.5-1.8-.5-1.6 0-2.2.2-1.2.5zm-219.5 4c.7.3 1.6.2 1.9-.1.4-.3-.2-.6-1.3-.5-1.1 0-1.4.3-.6.6zm174 0c1.2.2 3.2.2 4.5 0 1.2-.2.2-.4-2.3-.4s-3.5.2-2.2.4zm20 0c1.2.2 3 .2 4 0 .9-.3-.1-.5-2.3-.4-2.2 0-3 .2-1.7.4zm-190 2c.7.3 1.6.2 1.9-.1.4-.3-.2-.6-1.3-.5-1.1 0-1.4.3-.6.6zm13.5 0c2 .2 5.4.2 7.5 0 2-.2.3-.4-3.8-.4s-5.8.2-3.7.4zm165 0c.9.2 2.3.2 3 0 .6-.3-.1-.5-1.8-.5-1.6 0-2.2.2-1.2.5zm-148.5 4c.7.3 1.6.2 1.9-.1.4-.3-.2-.6-1.3-.5-1.1 0-1.4.3-.6.6zm2 12c.7.3 1.6.2 1.9-.1.4-.3-.2-.6-1.3-.5-1.1 0-1.4.3-.6.6zm22 2c.7.3 1.6.2 1.9-.1.4-.3-.2-.6-1.3-.5-1.1 0-1.4.3-.6.6zm83 0c.7.3 1.6.2 1.9-.1.4-.3-.2-.6-1.3-.5-1.1 0-1.4.3-.6.6zm20.5 0c.9.2 2.3.2 3 0 .6-.3-.1-.5-1.8-.5-1.6 0-2.2.2-1.2.5zm-86.5 10c.7.3 1.6.2 1.9-.1.4-.3-.2-.6-1.3-.5-1.1 0-1.4.3-.6.6zm43 0c.7.3 1.6.2 1.9-.1.4-.3-.2-.6-1.3-.5-1.1 0-1.4.3-.6.6zm-47 2c.7.3 1.6.2 1.9-.1.4-.3-.2-.6-1.3-.5-1.1 0-1.4.3-.6.6zm51.5 0c.9.2 2.3.2 3 0 .6-.3-.1-.5-1.8-.5-1.6 0-2.2.2-1.2.5zm31 6c.9.2 2.5.2 3.5 0 .9-.3.1-.5-1.8-.5-1.9 0-2.7.2-1.7.5zm-103.5 4c1.2.2 3.2.2 4.5 0 1.2-.2.2-.4-2.3-.4s-3.5.2-2.2.4zm93 0c.7.3 1.6.2 1.9-.1.4-.3-.2-.6-1.3-.5-1.1 0-1.4.3-.6.6zm-85 2c.7.3 1.6.2 1.9-.1.4-.3-.2-.6-1.3-.5-1.1 0-1.4.3-.6.6zm-14.5 18c2 .2 5.4.2 7.5 0 2-.2.3-.4-3.8-.4s-5.8.2-3.7.4zm105.5 0c.6.2 1.8.2 2.5 0 .6-.3.1-.5-1.3-.5-1.4 0-1.9.2-1.2.5zm-26.5 4c.9.2 2.3.2 3 0 .6-.3-.1-.5-1.8-.5-1.6 0-2.2.2-1.2.5zm37.5 0c.7.3 1.6.2 1.9-.1.4-.3-.2-.6-1.3-.5-1.1 0-1.4.3-.6.6zm-89 2c.7.3 1.6.2 1.9-.1.4-.3-.2-.6-1.3-.5-1.1 0-1.4.3-.6.6zm93 0c.7.3 1.6.2 1.9-.1.4-.3-.2-.6-1.3-.5-1.1 0-1.4.3-.6.6zm6 4c.7.3 1.6.2 1.9-.1.4-.3-.2-.6-1.3-.5-1.1 0-1.4.3-.6.6zm-145 2c.7.3 1.6.2 1.9-.1.4-.3-.2-.6-1.3-.5-1.1 0-1.4.3-.6.6zm18.5 10c.9.2 2.5.2 3.5 0 .9-.3.1-.5-1.8-.5-1.9 0-2.7.2-1.7.5zm112.2 1.3-10 .6 10.8.2c6.6.1 10.7-.2 10.7-.8 0-.6-.3-.9-.7-.8-.5.1-5.3.5-10.8.8zm-120.2.7c.9.2 2.3.2 3 0 .6-.3-.1-.5-1.8-.5-1.6 0-2.2.2-1.2.5zm15 0c.9.2 2.3.2 3 0 .6-.3-.1-.5-1.8-.5-1.6 0-2.2.2-1.2.5zm21.5 4c2.3.2 5.9.2 8 0 2-.2.1-.4-4.3-.4-4.4 0-6.1.2-3.7.4zm44 0c.7.3 1.6.2 1.9-.1.4-.3-.2-.6-1.3-.5-1.1 0-1.4.3-.6.6zm-51 2c.7.3 1.6.2 1.9-.1.4-.3-.2-.6-1.3-.5-1.1 0-1.4.3-.6.6zm59 0c1.8.2 4.5.2 6 0s0-.4-3.3-.4-4.5.2-2.7.4zm-78.5 18c.9.2 2.3.2 3 0 .6-.3-.1-.5-1.8-.5-1.6 0-2.2.2-1.2.5zm9 0c.9.2 2.3.2 3 0 .6-.3-.1-.5-1.8-.5-1.6 0-2.2.2-1.2.5zm87.5 0c1.2.2 3.2.2 4.5 0 1.2-.2.2-.4-2.3-.4s-3.5.2-2.2.4zm12 4c.7.3 1.6.2 1.9-.1.4-.3-.2-.6-1.3-.5-1.1 0-1.4.3-.6.6zm4 2c.7.3 1.6.2 1.9-.1.4-.3-.2-.6-1.3-.5-1.1 0-1.4.3-.6.6zm-122 36c4.5.2 11.9.2 16.5 0 4.5-.1.8-.3-8.3-.3-9.1 0-12.8.2-8.2.3zm95.7 3.3-6 .7 5.7.1c3.1.1 6-.3 6.3-.8.3-.6.5-.9.3-.8-.2.1-3 .4-6.3.8zm38.3.7c.7.3 1.6.2 1.9-.1.4-.3-.2-.6-1.3-.5-1.1 0-1.4.3-.6.6zm-52.5 12c.9.2 2.3.2 3 0 .6-.3-.1-.5-1.8-.5-1.6 0-2.2.2-1.2.5z" fill="none"/><path d="M381 47.4c0 .2.8 1 1.8 1.7 1.5 1.3 1.6 1.2.3-.4s-2.1-2.1-2.1-1.3zm-244.1 7.3c-1.3 1.6-1.2 1.7.4.4.9-.7 1.7-1.5 1.7-1.7 0-.8-.8-.3-2.1 1.3zM389 53.4c0 .2.8 1 1.8 1.7 1.5 1.3 1.6 1.2.3-.4s-2.1-2.1-2.1-1.3zm6.5 6.6c1 1.1 2 2 2.3 2 .3 0-.3-.9-1.3-2s-2-2-2.3-2c-.3 0 .3.9 1.3 2zm-262.6.7c-1.3 1.6-1.2 1.7.4.4.9-.7 1.7-1.5 1.7-1.7 0-.8-.8-.3-2.1 1.3zM401.5 66c1 1.1 2 2 2.3 2 .3 0-.3-.9-1.3-2s-2-2-2.3-2c-.3 0 .3.9 1.3 2zm-272.6.7c-1.3 1.6-1.2 1.7.4.4 1.6-1.3 2.1-2.1 1.3-2.1-.2 0-1 .8-1.7 1.7zm-8 6c-1.3 1.6-1.2 1.7.4.4 1.6-1.3 2.1-2.1 1.3-2.1-.2 0-1 .8-1.7 1.7zm-5.5 5.5-1.9 2.3 2.3-1.9c2.1-1.8 2.7-2.6 1.9-2.6-.2 0-1.2 1-2.3 2.2zm296.1-.2c1 1.1 2 2 2.3 2 .3 0-.3-.9-1.3-2s-2-2-2.3-2c-.3 0 .3.9 1.3 2zm-36.6 12.7c-1.3 1.6-1.2 1.7.4.4.9-.7 1.7-1.5 1.7-1.7 0-.8-.8-.3-2.1 1.3zm-271 5c-1.3 1.6-1.2 1.7.4.4.9-.7 1.7-1.5 1.7-1.7 0-.8-.8-.3-2.1 1.3zm283.6.3c1 1.1 2 2 2.3 2 .3 0-.3-.9-1.3-2s-2-2-2.3-2c-.3 0 .3.9 1.3 2zm36 0c1 1.1 2 2 2.3 2 .3 0-.3-.9-1.3-2s-2-2-2.3-2c-.3 0 .3.9 1.3 2zm-328.1 6.2-1.9 2.3 2.3-1.9c2.1-1.8 2.7-2.6 1.9-2.6-.2 0-1.2 1-2.3 2.2zm334.1-.2c1 1.1 2 2 2.3 2 .3 0-.3-.9-1.3-2s-2-2-2.3-2c-.3 0 .3.9 1.3 2zm-340.1 6.2-1.9 2.3 2.3-1.9c2.1-1.8 2.7-2.6 1.9-2.6-.2 0-1.2 1-2.3 2.2zm346.1-.2c1 1.1 2 2 2.3 2 .3 0-.3-.9-1.3-2s-2-2-2.3-2c-.3 0 .3.9 1.3 2zm-352.1 6.2-1.9 2.3 2.3-1.9c1.2-1.1 2.2-2.1 2.2-2.3 0-.8-.8-.2-2.6 1.9zm223.5.5c-1.3 1.6-1.2 1.7.4.4 1.6-1.3 2.1-2.1 1.3-2.1-.2 0-1 .8-1.7 1.7zm-229.5 5.5-1.9 2.3 2.3-1.9c1.2-1.1 2.2-2.1 2.2-2.3 0-.8-.8-.2-2.6 1.9zm224 0-1.9 2.3 2.3-1.9c1.2-1.1 2.2-2.1 2.2-2.3 0-.8-.8-.2-2.6 1.9zM453 185.4c0 .2.8 1 1.8 1.7 1.5 1.3 1.6 1.2.3-.4s-2.1-2.1-2.1-1.3zm-158.1 7.3c-1.3 1.6-1.2 1.7.4.4 1.6-1.3 2.1-2.1 1.3-2.1-.2 0-1 .8-1.7 1.7zM120 196.4c0 .2.8 1 1.8 1.7 1.5 1.3 1.6 1.2.3-.4s-2.1-2.1-2.1-1.3zm274.9 8.3c-1.3 1.6-1.2 1.7.4.4.9-.7 1.7-1.5 1.7-1.7 0-.8-.8-.3-2.1 1.3zM269.5 210c1 1.1 2 2 2.3 2 .3 0-.3-.9-1.3-2s-2-2-2.3-2c-.3 0 .3.9 1.3 2zm-131.6 11.7c-1.3 1.6-1.2 1.7.4.4.9-.7 1.7-1.5 1.7-1.7 0-.8-.8-.3-2.1 1.3zm99.5 6.5-1.9 2.3 2.3-1.9c2.1-1.8 2.7-2.6 1.9-2.6-.2 0-1.2 1-2.3 2.2zm58.1 5.8c1 1.1 2 2 2.3 2 .3 0-.3-.9-1.3-2s-2-2-2.3-2c-.3 0 .3.9 1.3 2zM67 233.4c0 .2.8 1 1.8 1.7 1.5 1.3 1.6 1.2.3-.4s-2.1-2.1-2.1-1.3zm271.9 1.3c-1.3 1.6-1.2 1.7.4.4 1.6-1.3 2.1-2.1 1.3-2.1-.2 0-1 .8-1.7 1.7zm-111.5 5.5-1.9 2.3 2.3-1.9c2.1-1.8 2.7-2.6 1.9-2.6-.2 0-1.2 1-2.3 2.2zm74.1-.2c1 1.1 2 2 2.3 2 .3 0-.3-.9-1.3-2s-2-2-2.3-2c-.3 0 .3.9 1.3 2zm135.9.2-1.9 2.3 2.3-1.9c2.1-1.8 2.7-2.6 1.9-2.6-.2 0-1.2 1-2.3 2.2zm20 0-1.9 2.3 2.3-1.9c2.1-1.8 2.7-2.6 1.9-2.6-.2 0-1.2 1-2.3 2.2zM103.5 246c1 1.1 2 2 2.3 2 .3 0-.3-.9-1.3-2s-2-2-2.3-2c-.3 0 .3.9 1.3 2zm347.9.2-1.9 2.3 2.3-1.9c2.1-1.8 2.7-2.6 1.9-2.6-.2 0-1.2 1-2.3 2.2zM77 245.4c0 .2.8 1 1.8 1.7 1.5 1.3 1.6 1.2.3-.4s-2.1-2.1-2.1-1.3zm355.9 1.3c-1.3 1.6-1.2 1.7.4.4.9-.7 1.7-1.5 1.7-1.7 0-.8-.8-.3-2.1 1.3zM82 250.4c0 .2.8 1 1.8 1.7 1.5 1.3 1.6 1.2.3-.4s-2.1-2.1-2.1-1.3zm345.4 1.8-1.9 2.3 2.3-1.9c1.2-1.1 2.2-2.1 2.2-2.3 0-.8-.8-.2-2.6 1.9zm18 0-1.9 2.3 2.3-1.9c1.2-1.1 2.2-2.1 2.2-2.3 0-.8-.8-.2-2.6 1.9zm-10 12-1.9 2.3 2.3-1.9c1.2-1.1 2.2-2.1 2.2-2.3 0-.8-.8-.2-2.6 1.9zM139 269.4c0 .2.8 1 1.8 1.7 1.5 1.3 1.6 1.2.3-.4s-2.1-2.1-2.1-1.3zm6.3 6.1c1.7 1.9 1.7 1.9 3.5 0 1.6-1.8 1.6-1.8 0-.6-1.5 1.1-2.1 1.1-3.5 0-1.7-1.2-1.7-1.2 0 .6zm66.2.5c1 1.1 2 2 2.3 2 .3 0-.3-.9-1.3-2s-2-2-2.3-2c-.3 0 .3.9 1.3 2zm122 0c1 1.1 2 2 2.3 2 .3 0-.3-.9-1.3-2s-2-2-2.3-2c-.3 0 .3.9 1.3 2zm44 0c1 1.1 2 2 2.3 2 .3 0-.3-.9-1.3-2s-2-2-2.3-2c-.3 0 .3.9 1.3 2zm-264 6c1 1.1 2 2 2.3 2 .3 0-.3-.9-1.3-2s-2-2-2.3-2c-.3 0 .3.9 1.3 2zm112 12c1 1.1 2 2 2.3 2 .3 0-.3-.9-1.3-2s-2-2-2.3-2c-.3 0 .3.9 1.3 2zm155.9.2-1.9 2.3 2.3-1.9c1.2-1.1 2.2-2.1 2.2-2.3 0-.8-.8-.2-2.6 1.9zM97 293.4c0 .2.8 1 1.8 1.7 1.5 1.3 1.6 1.2.3-.4s-2.1-2.1-2.1-1.3zm50 0c0 .2.8 1 1.8 1.7 1.5 1.3 1.6 1.2.3-.4s-2.1-2.1-2.1-1.3zm34 6c0 .2.8 1 1.8 1.7 1.5 1.3 1.6 1.2.3-.4s-2.1-2.1-2.1-1.3zm161.9 1.3c-1.3 1.6-1.2 1.7.4.4.9-.7 1.7-1.5 1.7-1.7 0-.8-.8-.3-2.1 1.3zM186 304.4c0 .2.8 1 1.8 1.7 1.5 1.3 1.6 1.2.3-.4s-2.1-2.1-2.1-1.3zm48 0c0 .2.8 1 1.8 1.7 1.5 1.3 1.6 1.2.3-.4s-2.1-2.1-2.1-1.3zm177.4 1.8-1.9 2.3 2.3-1.9c2.1-1.8 2.7-2.6 1.9-2.6-.2 0-1.2 1-2.3 2.2zm-153.5 5.5c-1.3 1.6-1.2 1.7.4.4 1.6-1.3 2.1-2.1 1.3-2.1-.2 0-1 .8-1.7 1.7zm26 0c-1.3 1.6-1.2 1.7.4.4 1.6-1.3 2.1-2.1 1.3-2.1-.2 0-1 .8-1.7 1.7zM140 322.4c0 .2.8 1 1.8 1.7 1.5 1.3 1.6 1.2.3-.4s-2.1-2.1-2.1-1.3zm279.4 1.8-1.9 2.3 2.3-1.9c2.1-1.8 2.7-2.6 1.9-2.6-.2 0-1.2 1-2.3 2.2zm-312.4-.8c0 .2.8 1 1.8 1.7 1.5 1.3 1.6 1.2.3-.4s-2.1-2.1-2.1-1.3zm102 12c0 .2.8 1 1.8 1.7 1.5 1.3 1.6 1.2.3-.4s-2.1-2.1-2.1-1.3zm-83.5 6.6c1 1.1 2 2 2.3 2 .3 0-.3-.9-1.3-2s-2-2-2.3-2c-.3 0 .3.9 1.3 2zm119.9 6.2-1.9 2.3 2.3-1.9c2.1-1.8 2.7-2.6 1.9-2.6-.2 0-1.2 1-2.3 2.2zm-6 6-1.9 2.3 2.3-1.9c2.1-1.8 2.7-2.6 1.9-2.6-.2 0-1.2 1-2.3 2.2zm46.1-.2c1 1.1 2 2 2.3 2 .3 0-.3-.9-1.3-2s-2-2-2.3-2c-.3 0 .3.9 1.3 2zm69.4.7c-1.3 1.6-1.2 1.7.4.4 1.6-1.3 2.1-2.1 1.3-2.1-.2 0-1 .8-1.7 1.7zm-121.5 5.5-1.9 2.3 2.3-1.9c2.1-1.8 2.7-2.6 1.9-2.6-.2 0-1.2 1-2.3 2.2zM218 370.4c0 .2.8 1 1.8 1.7 1.5 1.3 1.6 1.2.3-.4s-2.1-2.1-2.1-1.3zm-28.6 7.8-1.9 2.3 2.3-1.9c2.1-1.8 2.7-2.6 1.9-2.6-.2 0-1.2 1-2.3 2.2zm146.1-.2c1 1.1 2 2 2.3 2 .3 0-.3-.9-1.3-2s-2-2-2.3-2c-.3 0 .3.9 1.3 2zm-138.1 18.2-1.9 2.3 2.3-1.9c2.1-1.8 2.7-2.6 1.9-2.6-.2 0-1.2 1-2.3 2.2zm132.1-.2c1 1.1 2 2 2.3 2 .3 0-.3-.9-1.3-2s-2-2-2.3-2c-.3 0 .3.9 1.3 2zm-24.6.7c-1.3 1.6-1.2 1.7.4.4.9-.7 1.7-1.5 1.7-1.7 0-.8-.8-.3-2.1 1.3zM223.5 420c1 1.1 2 2 2.3 2 .3 0-.3-.9-1.3-2s-2-2-2.3-2c-.3 0 .3.9 1.3 2zm-26.6.7c-1.3 1.6-1.2 1.7.4.4.9-.7 1.7-1.5 1.7-1.7 0-.8-.8-.3-2.1 1.3zm106 0c-1.3 1.6-1.2 1.7.4.4 1.6-1.3 2.1-2.1 1.3-2.1-.2 0-1 .8-1.7 1.7zm-111 5c-1.3 1.6-1.2 1.7.4.4 1.6-1.3 2.1-2.1 1.3-2.1-.2 0-1 .8-1.7 1.7zm1.5 18.5-1.9 2.3 2.3-1.9c2.1-1.8 2.7-2.6 1.9-2.6-.2 0-1.2 1-2.3 2.2zm28.1-.2c1 1.1 2 2 2.3 2 .3 0-.3-.9-1.3-2s-2-2-2.3-2c-.3 0 .3.9 1.3 2zm112 0c1 1.1 2 2 2.3 2 .3 0-.3-.9-1.3-2s-2-2-2.3-2c-.3 0 .3.9 1.3 2zm-119.9 17.8c-.2.4.4.8 1.4.8 1 0 1.6-.4 1.4-.8-.3-.4-.9-.8-1.4-.8-.5 0-1.1.4-1.4.8zm-10.2 6.4-1.9 2.3 2.3-1.9c2.1-1.8 2.7-2.6 1.9-2.6-.2 0-1.2 1-2.3 2.2zm88.1 5.8c1 1.1 2 2 2.3 2 .3 0-.3-.9-1.3-2s-2-2-2.3-2c-.3 0 .3.9 1.3 2zm-58 36c1 1.1 2 2 2.3 2 .3 0-.3-.9-1.3-2s-2-2-2.3-2c-.3 0 .3.9 1.3 2zm55.4.7c-1.3 1.6-1.2 1.7.4.4 1.6-1.3 2.1-2.1 1.3-2.1-.2 0-1 .8-1.7 1.7zm46.1-1.3c0 .2.8 1 1.8 1.7 1.5 1.3 1.6 1.2.3-.4s-2.1-2.1-2.1-1.3zm-91.4 12.3c-.6 1.4-.5 1.5.5.6.7-.7 1-1.5.7-1.8-.3-.3-.9.2-1.2 1.2zm34.4.7c.7.7 1.3.7 2 0 .6-.6.3-1-1-1s-1.6.4-1 1z" fill="#FFF" fill-opacity=".19"/><g fill="#FFF" stroke-width="0"><path d="M160 41c0 .5-.9 1-2 1s-2 .3-2 .8c0 .4-1 1.2-2.2 1.7-1.3.6-2.7 2-3.3 3.2-.5 1.3-1.8 2.3-2.7 2.3-1 0-1.8.4-1.8 1 0 .5-.9 1-2 1s-2 .4-2 1c0 .5-.7 1-1.6 1-1.9 0-4.4 2.4-4.4 4.2 0 .8-.9 2-2 2.8-1.1.8-2 2-2 2.8 0 1.5-6.5 8.2-8 8.2-.6 0-3.5 2.5-6.5 5.5-3.8 3.7-5.5 6.3-5.5 8 0 1.4-.4 2.5-1 2.5-.5 0-1 .6-1 1.3 0 1.7-6.4 8.7-7.9 8.7S74 124.7 74 126.2c0 .6-.8 1.8-1.7 2.7-1.7 1.5-3.1 3.6-5.3 8.1-.5 1.1-1.4 2.9-2 4-.5 1.1-1 3.1-1 4.5s-.4 2.5-1 2.5c-1.3 0-1.3 13.7 0 14.5.6.3 1 1.7 1 3.1 0 1.3.5 2.4 1 2.4.6 0 1 .7 1 1.6 0 1.9 2.4 4.4 4.2 4.4.8 0 2 .9 2.8 2 .8 1.1 2.4 2 3.7 2 1.2 0 2.5.4 2.8 1 .8 1.2 16.5 1.3 16.5.1s5.9-2.2 16.5-2.7c5-.2 9.2-.9 9.3-1.4.2-.6 1.6-1 3.1-1s3.3-.9 4.1-2c.8-1.1 2.2-2 3.2-2s1.8-.5 1.8-1c0-.6.6-1 1.4-1 1.9 0 14.6-12.5 14.6-14.4 0-.9.5-1.6 1-1.6.6 0 1-2.2 1-4.8 0-3.6-.5-5.1-2-6.2-2.6-1.8-2.6-4.2 0-5.8 1.3-.8 2-2.3 2-4.2 0-1.7.5-3 1-3 .6 0 1-1.8 1-3.9 0-2.2.5-4.3 1-4.6.6-.3 1-2.4 1-4.5s.5-4.2 1-4.5c.6-.3 1-4.9 1-10.1 0-11.2-.9-12.7-7.2-12.6-2.3.1-4.4.4-4.7.9-.3.4-1.8 1.4-3.3 2.2-1.5.8-3.3 2.7-4 4.3-.7 1.5-1.6 2.8-2 2.8-.5 0-.8.9-.8 2s-.4 2-1 2c-.5 0-1 .9-1 2s-.4 2-1 2c-.5 0-1 2.2-1 5 0 2.7-.4 5-1 5-.5 0-1 1.1-1 2.4 0 1.4.5 2.8 1 3.1.6.3 1 1.7 1 3s.5 2.7 1 3c.6.3 1 1.5 1 2.6 0 1 .5 1.9 1 1.9.6 0 1 .9 1 1.9 0 1.1.6 2.1 1.3 2.4.7.2.8.8.3 1.3s-1.1.4-1.3-.4c-.3-.6-1.2-1.2-2-1.2-.9 0-2.6-1.2-3.9-2.8-2.1-2.4-2.4-3.7-2.4-11.4 0-4.8.5-9 1-9.3.6-.3 1-2.4 1-4.6 0-2.1.5-3.9 1-3.9.6 0 1-1.4 1-3 0-1.7.4-3 .8-3 .5 0 1.5-1.2 2.3-2.7.8-1.6 5.3-6.7 10.2-11.5 4.8-4.7 8.7-9.3 8.7-10.1 0-.9.5-1.9 1-2.2.6-.3 1-2.5 1-4.8 0-3.1.5-4.7 2-5.7 1.1-.8 2-2 2-2.7 0-.7 1.8-3.2 4-5.4 4.3-4.4 5.3-8.8 2.6-11.5-1.7-1.6-6.6-1.9-6.6-.4zm209.6 7.5c-1.8 2.7-2.2 7.5-.6 7.5.6 0 1 .7 1 1.6 0 .8 1.8 3.3 4 5.4 4.4 4.2 4.8 5 2.4 5-2.2 0-5.3 3.2-3.6 3.8.6.2 1.2 1 1.2 1.8 0 1.6 12.4 14.4 13.9 14.4 1.6 0 14.1 12.8 14.1 14.4 0 .9.5 1.6 1.1 1.6.7 0 .9 3.4.5 10.2-.6 12.9-1.5 19.8-2.7 19.8-.5 0-.9.7-.9 1.6 0 2-2.4 4.4-4.4 4.4-.9 0-1.6-.8-1.6-2 0-1.1.5-2 1-2 .6 0 1-1.1 1-2.4 0-1.4.5-2.8 1-3.1.6-.3 1-4.6 1-9.6 0-5.3-.4-8.9-1-8.9-.5 0-1-.6-1-1.3 0-1.8-2.4-6.7-3.2-6.7-.5 0-.8-.7-.8-1.5 0-2-8.5-10.5-10.5-10.5-.8 0-1.5-.5-1.5-1 0-1.8-3.1-1-5.5 1.5-1.6 1.5-2.5 3.6-2.5 5.5 0 1.7-.5 4.1-1.1 5.2-.8 1.4-.8 2.3 0 3.1.6.6 1.1 3.7 1.1 6.8 0 3.2.5 6.1 1 6.4.6.3 1 2.4 1 4.6 0 2.1.5 3.9 1 3.9.6 0 1 1.3 1 2.8 0 1.6.8 3.4 2 4.2 1.1.8 2 2.2 2 3.2s.5 1.8 1 1.8c.6 0 1 3 1 7s.4 7 1 7 1 .9 1 2 .5 2 1 2c.6 0 1 .7 1 1.5 0 3.8 13.7 16.5 17.8 16.5 1.2 0 2.2.4 2.2 1s5.3 1 14 1 14 .4 14 1c0 .5 1.8 1 4 1s4 .4 4 1 3.5 1 8.5 1c8.4 0 8.6-.1 12-3.5 3.3-3.2 3.5-3.8 3.5-10 0-3.7-.4-6.5-1-6.5-.5 0-1-1.3-1-2.9 0-1.7-.4-3.3-1-3.6-.5-.3-1-1.7-1-3.1 0-1.3-.4-2.4-1-2.4-.5 0-1-.9-1-2s-.4-2-1-2c-.5 0-1-.9-1-2s-.4-2-1-2c-.5 0-1-.9-1-2s-.4-2-1-2c-.5 0-1-.9-1-2s-.4-2-1-2c-.5 0-1-.9-1-2s-.4-2-.8-2c-.5 0-1.5-1.2-2.3-2.8-.8-1.5-2.2-3.4-3.1-4.3-1-.9-1.8-2.3-1.8-3 0-.8-.9-2.1-2-2.9-1.1-.8-2-2-2-2.8 0-.7-4.5-5.7-10-11.2-5.5-5.5-10-10.6-10-11.5 0-.8-.4-1.5-1-1.5-.5 0-1-.8-1-1.8s-.9-2.4-2-3.2c-1.1-.8-2-2.1-2-2.8 0-.8-1.3-2.7-3-4.2-1.6-1.5-3-3.3-3-3.9 0-1.4-19.7-21.1-21-21.1-.5 0-2-1.1-3.4-2.5s-3.2-2.5-4.1-2.5c-.8 0-1.5-.5-1.5-1 0-.6-1.5-1-3.4-1-2.5 0-3.8.6-5 2.5zm-157.3 64c-1.8 1.9-2.3 3.6-2.3 8 0 4.8.2 5.5 2 5.5 1.1 0 2 .4 2 1 0 .5.9 1 2 1s2 .4 2 1c0 .5.7 1 1.6 1 2 0 4.4 2.4 4.4 4.4 0 .9.5 1.6 1 1.6.6 0 1 .9 1 2s.3 2 .8 2c.8 0 3.2 4.9 3.2 6.7 0 .7.5 1.3 1 1.3.6 0 1 .9 1 2s.5 2 1 2c.6 0 1 1.1 1 2.4 0 1.4.5 2.8 1 3.1.6.3 1 1.5 1 2.6 0 1 .5 1.9 1 1.9.6 0 1 1.8 1 4s.5 4 1 4c.6 0 1 1.8 1 4s.5 4 1 4c.6 0 1 2 1 4.4 0 2.5.5 4.8 1 5.1.6.3 1 2.4 1 4.5s.5 4.2 1 4.5c.6.3 1 2.9 1 5.6 0 6 2 9 4.5 6.5 1.8-1.7 1.9-3.8.4-5.3-.8-.8-.8-1.3 0-1.7 1.4-.9 1.5-9.3.1-10.1-.5-.3-1-3.3-1-6.5s-.4-6.2-1-6.5c-.5-.3-1-1.9-1-3.6 0-1.6-.4-2.9-1-2.9-.5 0-1-1.4-1-3 0-1.7-.4-3-1-3-.5 0-1-.9-1-2s-.4-2-1-2c-.5 0-1-.9-1-2s-.4-2-1-2c-.5 0-1-1.4-1-3 0-1.7-.4-3-1-3-.5 0-1-.9-1-2s-.4-2-1-2c-.5 0-1-.9-1-2s-.4-2-1-2c-.5 0-1-.9-1-2s-.4-2-1-2c-.5 0-1-.9-1-2s-.4-2-1-2c-.5 0-1-1.4-1-3 0-1.7-.4-3-1-3-.5 0-1-1.4-1-3 0-1.7-.4-3-1-3-.5 0-1-1.1-1-2.5 0-3.1-5.5-9.5-8.2-9.5-1 0-1.8-.5-1.8-1 0-1.6-1.3-1.1-3.7 1.5zm98.3 1.2c-2.5.7-14.6 12.9-14.6 14.8 0 .8-.4 1.5-1 1.5-.5 0-1 .9-1 2s-.4 2-1 2c-.5 0-1 .9-1 2s-.4 2-1 2c-.5 0-1 .9-1 2s-.4 2-1 2c-.5 0-1 1.3-1 3 0 1.6-.4 3-1 3-.5 0-1 1.3-1 3 0 1.6-.4 3-1 3-.5 0-1 1.3-1 2.9 0 1.7-.4 3.3-1 3.6-.5.3-1 2.4-1 4.5s-.4 4.2-1 4.5c-.5.3-1 2.4-1 4.5s-.4 4.2-1 4.5c-.5.3-1 3-1 6s-.4 5.7-1 6c-.5.3-1 3.1-1 6.1 0 3-.4 5.4-1 5.4-.5 0-1 1.8-1 4 0 3.8.2 4 3 4s3-.2 3-4c0-2.2.5-4 1-4 .6 0 1-2.3 1-5 0-2.8.5-5 1-5 .6 0 1-2.3 1-5 0-2.8.5-5 1-5 .6 0 1-2.3 1-5 0-2.8.5-5 1-5 .6 0 1-1.8 1-4s.5-4 1-4c.6 0 1-1.4 1-3 0-1.7.5-3 1-3 .6 0 1-1.1 1-2.4 0-1.4.5-2.8 1-3.1.6-.3 1-1.5 1-2.6 0-1 .5-1.9 1-1.9.6 0 1-.9 1-2s.5-2 1-2c.6 0 1-1 1-2.3 0-1.3.9-3.3 2-4.5 1.1-1.2 2-2.6 2-3.2 0-1.9 5.6-6 8-6 .6 0 2-.9 3.2-2 1.2-1.1 2.8-2 3.5-2 .8 0 1.3-1.4 1.3-3.9 0-3-.6-4.4-2.2-5.5-1.2-.9-2.5-1.5-2.8-1.5-.3.1-1.3.3-2.4.6zM77.5 183c-.3.5-1.5 1-2.6 1-2.4 0-4.9 2.2-4.9 4.3 0 .9-.6 1.8-1.2 2.1-1 .5-1 .7 0 1.2.6.3 1.2 2.3 1.2 4.5 0 2.1.5 3.9 1 3.9.6 0 1 .6 1 1.2 0 2 4.5 6.8 6.4 6.8.9 0 1.6.4 1.6 1 0 .5 1.1 1 2.5 1 2.9 0 9.5 5.9 9.5 8.5 0 .8.5 1.5 1 1.5.6 0 1 .7 1 1.5 0 .9 2 3.6 4.5 6 4.2 4.2 4.8 4.5 10 4.5 4.8 0 5.5.2 5.5 2 0 1.1-.4 2-1 2-.5 0-1 .7-1 1.5 0 2 6.5 8.5 8.5 8.5.8 0 1.5.4 1.5.9 0 1 6.2 1.8 19.5 2.7 4.4.3 8.4 1 9 1.5.5.5 2.4.9 4.2.9 1.8 0 3.3.4 3.3 1s3.3 1 8 1 8-.4 8-1 .8-1 1.8-1 2.4-.9 3.2-2c.8-1.1 2-2 2.7-2 .7 0 2.7-1.4 4.5-3 1.7-1.7 3.6-3 4.2-3 1.5 0 3.9-5.4 2.6-5.8-.5-.2-1-1.2-1-2.3 0-1.4-.7-1.9-3-1.9-1.6 0-3-.5-3-1 0-.6-1.3-1-3-1-1.6 0-3-.5-3-1 0-.6-.9-1-2-1s-2-.5-2-1c0-.6-1.3-1-3-1-1.6 0-3-.5-3-1 0-.6-1.3-1-3-1-1.6 0-3-.5-3-1 0-.6-1.8-1-4-1s-4-.5-4-1c0-.6-3.3-1-7.8-1-6.6 0-8 .3-9.2 2-.8 1.1-2.2 2-3.1 2-1 0-1.9.6-2.2 1.2-.2.7-.8 1-1.2.6-.4-.4.9-2.3 2.8-4.2 3.2-3.2 3.5-4 3-7.3-.6-3.9-6.3-10.3-9-10.3-.7 0-1.3-.5-1.3-1 0-.6-.6-1-1.4-1-.8 0-3.7-2.3-6.5-5-2.8-2.8-5.7-5-6.4-5-.7 0-1.9-.9-2.7-2-.8-1.1-2.2-2-3.2-2s-1.8-.3-1.8-.8c0-1-5-3.2-7.1-3.2-1 0-2.1-.5-2.4-1-.3-.6-4.6-1-9.5-1s-9.2.4-9.5 1zm52.5 44c0 .5-.4 1-1 1-.5 0-1-.5-1-1 0-.6.5-1 1-1 .6 0 1 .4 1 1zm-4 2c0 .5-.4 1-1 1-.5 0-1-.5-1-1 0-.6.5-1 1-1 .6 0 1 .4 1 1zm308.5-46c-.3.5-1.5 1-2.6 1-1 0-1.9.4-1.9 1 0 .5-.9 1-2 1s-2 .4-2 1c0 .5-.9 1-2 1s-2 .4-2 1c0 .5-.8 1-1.8 1s-2.4.9-3.2 2c-.8 1.1-2.2 2-3.2 2s-1.8.4-1.8 1c0 .5-.7 1-1.5 1-.9 0-2.5.9-3.7 2-1.2 1.1-2.8 2-3.5 2-.7 0-1.3.4-1.3.8 0 .5-1.2 1.5-2.7 2.3-1.6.8-4.3 2.8-6 4.6-2.7 2.6-3.3 4-3.3 7.4 0 3.3.6 4.7 3.1 7 1.7 1.6 3.5 2.9 4 2.9.4 0 1.9 1.1 3.3 2.5s3.2 2.5 4.1 2.5c.8 0 1.5.4 1.5 1 0 .5.9 1 2 1s2 .4 2 1c0 .5.9 1 2 1s2 .4 2 1c0 .5 1.4 1 3 1 1.7 0 3-.5 3-1 0-.6.9-1 2-1s2-.5 2-1c0-.6.7-1 1.5-1 .9 0 4-2.5 7-5.5s5.5-6.1 5.5-7c0-.8.5-1.5 1-1.5.6 0 1-.9 1-2s.5-2 1-2c.6 0 1-.9 1-2s.5-2 1-2c.6 0 1-.9 1-2 0-1.8.7-2 7.8-2 7.4 0 7.7-.1 9-2.8.8-1.7.9-2.8.2-3-.5-.2-1-1.2-1-2.2 0-1-.4-2.2-1-2.5-.5-.3-1-1.4-1-2.3 0-2.8-4.5-7.2-7.4-7.2-1.4 0-2.6-.5-2.6-1 0-.6-1.8-1-4-1s-4-.5-4-1c0-.6-1.1-1-2.4-1-1.4 0-2.8.4-3.1 1z"/><path d="M233.4 195.5c-.6 2-.7 3.8-.3 4.1.5.3.9 3.2.9 6.5s.4 5.9 1 5.9 1 1.3 1 3c0 1.6.5 3 1 3 .6 0 1 .7 1 1.6 0 .9.9 2.5 2.1 3.5l2.1 1.8-5.1 5c-2.8 2.7-5.1 5.5-5.1 6.1 0 .6-1.8 2.9-4 5s-4 4.4-4 5c0 1.2-2.4 4-3.4 4-.3 0-.6-2.1-.6-4.6 0-2.6-.6-5.2-1.4-6-1.7-1.6-10.6-2-10.6-.4 0 .5-2 1-4.4 1-2.5 0-4.8.4-5.1 1-.3.5-1.3 1-2.2 1-.9 0-2.3.8-3.2 1.8-.9.9-2.8 2.3-4.3 3.1-1.6.8-2.8 2-2.8 2.6 0 .6-.9 2.1-2 3.3-1.1 1.2-2 2.6-2 3.2 0 1.6 4.7 6 6.5 6 .8 0 1.5.4 1.5 1 0 .5.9 1 2 1s2 .4 2 1c0 .5 1.4 1 3 1 1.7 0 3 .4 3 1 0 .5 2.1 1 4.6 1 3.9 0 5.1-.5 7.5-3.1 1.6-1.8 3.3-2.8 3.7-2.4.4.4.1 1-.5 1.2-1.5.6-1.7 7.9-.3 8.8.6.3 1 1.6 1 2.8 0 1.3.9 2.9 2 3.7 1.1.8 2 2 2 2.7 0 .7 2.7 4 6 7.4 3.3 3.3 6 6.7 6 7.5 0 .8.4 1.4.9 1.4s1.2.9 1.6 2c.9 2.7 8 10 9.8 10 .9 0 1.7.5 1.9 1.1.2.7 2.3 1.2 4.6 1.2 3.1 0 4.7-.6 6.1-2.2 1.5-1.7 3-2.1 7.5-2.1 3.1 0 5.6.4 5.6 1s2.9 1 6.8 1c5.6 0 7-.3 8.2-2 .8-1.1 2-2 2.7-2 1.9 0 16.3-14.6 16.3-16.5 0-.8.5-1.5 1-1.5.6 0 1-.9 1-2s.5-2 1-2c.6 0 1-.9 1-2s.5-2 1-2c.6 0 1-1.4 1-3 0-1.7.5-3 1-3 1.5 0 1.3-13.7-.2-14.3-.7-.2-1-.8-.6-1.2.9-1 3.8 1.9 3.8 3.8 0 .8 1.4 2 3.1 2.7 3.7 1.6 18.2 1.6 18.7.1.2-.6 1-1.1 1.9-1.1.8 0 3-1.5 4.9-3.4 2.6-2.6 3.4-4.2 3.4-7 0-2.6-.4-3.6-1.5-3.6-.9 0-2.5-.9-3.7-2-1.2-1.1-2.8-2-3.5-2-.7 0-1.3-.5-1.3-1 0-.6-.9-1-2-1s-2-.5-2-1c0-.6-.9-1-2-1s-2-.5-2-1c0-.6-.9-1-2-1s-2-.3-2-.8c0-1-5-3.2-7.2-3.2-2.3 0-6.8 4.3-6.8 6.4 0 .8-.4 1.8-1 2.1-.5.3-1 1.7-1 3.1 0 1.3-.4 2.4-1 2.4-.5 0-1-.9-1-2s-.4-2-1-2c-.5 0-1-.7-1-1.5 0-.9-3.1-4.7-7-8.5-3.8-3.8-7-7.5-7-8.2 0-.8-.9-2-2-2.8-2.7-2-2.5-3.5 1-7.2 1.7-1.7 3-3.7 3-4.4 0-.8.5-1.4 1-1.4.6 0 1-.9 1-1.9 0-1.1.5-2.3 1-2.6.6-.3 1-2.2 1-4.1 0-1.9.5-3.4 1-3.4.6 0 1-.8 1-1.8 0-.9.9-2.3 2-3 2.8-1.7 2.5-3.2-.6-3.2-3.3 0-5.4 2.1-5.4 5.4 0 1.4-.4 2.6-1 2.6-.5 0-1 1.3-1 3 0 1.6-.4 3-1 3-.5 0-1 .9-1 2s-.4 2-1 2c-.5 0-1 .7-1 1.6 0 2.9-2.7 4.4-8 4.4-4.7 0-5.5-.3-9-4-3.1-3.2-4.6-4-7.4-4-3.2 0-3.6.3-3.6 2.6 0 3-2.1 5.4-4.7 5.4-2.3 0-7.3 2.2-7.3 3.2 0 1.4-5.1.8-6.6-.6-.8-.8-1.4-2.6-1.4-4s-.4-2.6-1-2.6c-.5 0-1-2.4-1-5.4 0-3-.4-5.8-1-6.1-.5-.3-1-2.4-1-4.6 0-4.8-1.2-5-2.6-.4zm8.6 54.9c0 3.6-.4 6.8-1 7.1-.5.3-1 3.3-1 6.6 0 4.7-.3 5.9-1.6 5.9-1.7 0-3.2-1.4-5.1-4.8-1.5-2.6-1.7-13.2-.3-13.2.6 0 1-.7 1-1.5 0-2.1 4.1-6.4 6.3-6.4 1.4-.1 1.7.9 1.7 6.3zm16 12.5c0 11.6-.4 19.2-1 19.6-.5.3-1 2.4-1 4.6 0 2.3-.7 4.7-1.5 5.5-1.3 1.4-1.7 1.4-3 0-1.8-1.7-2.2-18.6-.5-18.6.6 0 1-3 1-7s.4-7 1-7 1-1.8 1-4c0-4.4 2-12 3.2-12 .5 0 .8 8.5.8 18.9zm14-17.1c0 1 .3 2.2.7 2.6.4.4.9 3 1.1 5.9.2 2.8.8 5.9 1.3 6.9.5.9.9 4.2.9 7.2 0 3.4.4 5.6 1.1 5.6 1.1 0 1 2.1-.6 12.5-.5 3.3-1.9 7.4-3.2 9.4-.1.2-.9-.3-1.7-1.2-1.2-1.2-1.5-5-1.6-19.8-.2-27.9-.1-30.9 1-30.9.6 0 1 .8 1 1.8zm19.2 1.4c4.5 2.6 4.8 3.4 4.8 12.5-.1 9.8-1.2 12.3-5.4 12.3-1.9 0-2.6-.5-2.6-2 0-1.1-.4-2-1-2-.5 0-1-.9-1-1.9 0-1.1.5-2.3 1-2.6.6-.3 1-4.4 1-9.1 0-4.6.2-8.4.5-8.4s1.5.6 2.7 1.2zM220 253c0 .5-.4 1-1 1-.5 0-1-.5-1-1 0-.6.5-1 1-1 .6 0 1 .4 1 1zm150-30c0 .5-1.3 1-3 1-1.6 0-3 .4-3 1 0 .5-1.3 1-2.9 1-1.7 0-3.3.4-3.6 1-.3.5-1.7 1-3.1 1-1.3 0-2.4.4-2.4 1 0 .5-1.3 1-2.8 1-1.6 0-3.4.8-4.2 2-.8 1.1-2 2-2.8 2-1.6 0-4.2 2.4-4.2 4s8.7 10 10.5 10c.8 0 1.5.4 1.5 1 0 .5 1.3 1 2.9 1 1.6 0 3.1.5 3.3 1.1.5 1.5 45.1 1.4 45.6-.1.2-.5 1.7-1 3.3-1 1.6 0 2.9-.5 2.9-1 0-.6.9-1 2-1s2-.5 2-1c0-.6.9-1 2-1 1.5 0 2-.7 2-2.5 0-2.7-4-7.5-6.2-7.5-.8 0-2-.9-2.8-2-.8-1.1-2.1-2-3-2-.9 0-2.2-.9-3-2-.8-1.1-2.2-2-3.2-2s-1.8-.5-1.8-1c0-.6-.9-1-2-1s-2-.3-2-.8c0-.4-1.8-1.3-4-2-4.8-1.4-18-1.6-18-.2zm-312 8.9c0 1.1-.6 2.2-1.2 2.5-1 .5-1 .7 0 1.2.6.3 1.2 1.9 1.2 3.5s.5 2.9 1 2.9c.6 0 1 .9 1 2s.5 2 1 2c.6 0 1 .9 1 2s.5 2 1 2c.6 0 1 .9 1 2s.5 2 1 2c.6 0 1 .8 1 1.8s.9 2.4 2 3.2c1.1.8 2 2.2 2 3.2s.5 1.8 1 1.8c.6 0 1 .6 1 1.4 0 .7 1.8 3.2 4 5.5 2.2 2.2 4 4.7 4 5.5 0 .8.9 1.8 2 2.1 1.1.4 3.2 1.7 4.5 3.1 1.3 1.3 3.1 2.4 4 2.4.8 0 1.5.4 1.5 1 0 .5.9 1 2 1s2-.5 2-1c0-.6.7-1 1.5-1 2.3 0 6.5-4.6 6.5-6.9 0-2.9-2.4-5.7-12.3-14.8-3.1-2.9-5.7-5.6-5.7-6.1 0-.6-2.1-3.2-4.8-5.9-2.6-2.6-5.8-6.4-7.2-8.3-3.4-4.8-6.7-8-8.2-8-.8 0-2-.9-2.8-2-1.9-2.6-5-2.6-5-.1zm26 3.1c0 2.7.5 5 1 5 .6 0 1 .9 1 2s.5 2 1 2c.6 0 1 .6 1 1.3 0 1.8 2.4 6.7 3.3 6.7.4 0 .7.7.7 1.5 0 2 6.5 8.5 8.5 8.5.8 0 1.5.4 1.5 1 0 .5 2.1 1 4.6 1 6.7 0 9.7-3.9 5.4-7-1.1-.8-2-2-2-2.7 0-.8-2.8-4.2-6.2-7.7-3.5-3.5-7.2-7.5-8.4-8.8-2.9-3.3-8.7-7.8-10.1-7.8-.9 0-1.3 1.7-1.3 5zm380 2c0 .5-.7 1-1.6 1-1.6 0-22.4 20.5-22.4 22.2 0 .5-1.8 2.7-4 4.8-2.2 2.1-4 4.5-4 5.2 0 .7-.9 2-2 2.8-1.2.8-2 2.6-2 4.2 0 1.5-.4 2.8-1 2.8-.5 0-1 .9-1 2 0 1.8-.7 2-6 2s-6 .2-6 2-.7 2-8.4 2c-4.7 0-8.8.4-9.1 1-.3.5-2.4 1-4.6 1-2.1 0-3.9.4-3.9 1 0 .5-.7 1-1.5 1-2 0-10.5 8.5-10.5 10.5 0 .8-.4 1.5-1 1.5-.5 0-1-.8-1-1.8 0-2.9-5.5-4.5-14.8-4.4-4.7.1-9 .6-9.6 1.2-.5.5-1.8 1-2.9 1-3.1 0-4.7 2.5-4.7 7.4 0 5-.8 5.7-3 2.6-1.2-1.7-2.6-2-8.2-2-3.9 0-6.8.4-6.8 1 0 .5-.7 1-1.6 1-2 0-4.4 2.4-4.4 4.4 0 .9-.4 1.6-1 1.6-.5 0-1 1.3-1 3 0 1.6.5 3 1 3 .6 0 1 .7 1 1.5 0 2.3 4.6 6.5 7 6.5 2.4 0 5.8-1.8 8.1-4.3.9-.9 2.2-1.7 2.8-1.7 1.7 0 4.1-2.6 4.1-4.4 0-.9.5-1.6 1-1.6.6 0 1-.9 1-2s.5-2 1-2c.6 0 1 .7 1 1.5 0 .9 1.1 2.7 2.5 4 1.9 2 3.4 2.5 7.4 2.5 2.7 0 5.3-.5 5.6-1 .3-.6 1.5-1 2.6-1 1 0 1.9-.5 1.9-1 0-.6.9-1 2-1s2-.5 2-1c0-.6.7-1 1.6-1 2.3 0 4.4-2.5 4.4-5.3 0-1.4.7-2.8 1.6-3.1 1.5-.6 6.3 2.2 6.4 3.6 0 1.2 14 1 14-.2 0-.6 1.4-1 3-1 1.7 0 3-.5 3-1 0-.6.7-1 1.5-1 2 0 10.5-8.5 10.5-10.5 0-.8.5-1.5 1-1.5.6 0 1 .4 1 1 0 .5.9 1 2 1s2-.5 2-1c0-.6 1.1-1 2.5-1 2.9 0 7.5-4 7.5-6.5 0-1 .9-1.5 2.8-1.5 1.6 0 3.4-.8 4.2-2 .8-1.1 2-2 2.8-2 1.8 0 8.2-6.6 8.2-8.5 0-.8.5-1.5 1-1.5.6 0 1-1.1 1-2.4 0-1.4-.4-2.8-1-3.1-1.6-1-1.1-2.5.8-2.5 1 0 2.4-.9 3.2-2 .8-1.1 1.9-2 2.5-2 1.6 0 6.5-4.6 6.5-6.1 0-.8.9-2.1 2-2.9 1.1-.8 2-2.2 2-3.2s.5-1.8 1-1.8c1.6 0 1.2-8.9-.4-10.6-1.7-1.6-2.6-1.8-2.6-.4z"/><path d="M438.3 240.5c-1.3 1.3-2.3 2.9-2.3 3.5 0 .6-3.1 4.2-7 8-6.8 6.7-8.6 10-5.5 10 1.9 0 14.5-12.4 14.5-14.3 0-.7.9-1.9 2-2.7 1.2-.8 2-2.6 2-4.2 0-3.4-.8-3.4-3.7-.3zm-321.8 22c-2.2.8-4.1 1.9-4.3 2.5-.2.5-1.2 1-2.3 1-1.2 0-1.9.7-1.9 2 0 1.1.5 2 1 2 .6 0 1 .8 1 1.8s1.2 2.5 2.8 3.3c1.5.8 3.4 2.2 4.3 3.1.9 1 2.4 1.8 3.3 1.8.9 0 1.6.4 1.6 1 0 .5.9 1 2 1s2 .4 2 1 3.7 1 9 1c8.3 0 9-.1 9-2 0-1.1.3-2 .6-2 1 0 3.4 2.8 3.4 4 0 1.6 4.7 6 6.5 6 .8 0 1.5.4 1.5 1 0 .5.9 1 2 1s2 .4 2 1 3.7 1 9 1 9-.4 9-1 1.4-1 3-1c1.7 0 3-.5 3-1 0-.6.5-1 1-1 .6 0 1 .9 1 1.9 0 1.1.5 2.3 1 2.6.6.3 1 1.5 1 2.6 0 3.6 2.4 4.9 9 4.9 5.1 0 6.5-.4 8.5-2.5 1.6-1.5 2.5-3.5 2.5-5.6 0-2.2.9-3.9 3-5.9 5.1-4.7 3.5-11-3.8-14.9-2.6-1.4-9.2-1.5-9.2-.1 0 .5-.9 1-1.9 1-1.2 0-2.5 1.2-3.3 3-.7 1.6-1.6 3-2 3-.5 0-.8.7-.8 1.6 0 1.5-2.3 4.4-3.5 4.4-.3 0-.4-.8-.1-1.8.7-2.2-2.4-6.2-4.8-6.2-.9 0-1.6-.5-1.6-1 0-.6-1.3-1-3-1-1.6 0-3-.5-3-1 0-.6-1.8-1-4-1s-4-.5-4-1c0-.6-2.7-1-6-1s-6 .4-6 1c0 .5-.7 1-1.6 1-.9 0-2.5 1-3.5 2.1l-1.8 2.1-4-4.1c-2.2-2.2-4.6-4.1-5.3-4.1-.7 0-2-.9-2.8-2-.8-1.1-2.2-2-3.2-2s-1.8-.4-1.8-.9c0-.8-3.4-2.4-7.5-3.5-1.1-.3-3.8.1-6 .9zm289.5.5c0 .5-1.3 1-3 1-1.6 0-3 .4-3 .9s-1.3 1.1-3 1.4c-1.6.4-5.2 2.8-8 5.6-3.9 3.8-5 5.6-5 8 0 4.1 4.3 9.2 6.2 7.3.7-.7 2.7-1.2 4.5-1.2 1.8 0 3.3-.5 3.3-1 0-.6.9-1 2-1s2-.5 2-1c0-.6.9-1 2-1s2-.5 2-1c0-.6.9-1 2-1s2-.4 2-.9.8-1.2 1.9-1.6c2.8-.9 6.1-4 6.1-5.9 0-.9.5-1.6 1-1.6.6 0 1-1.4 1-3 0-2.3-.4-3-2-3-1.1 0-2-.5-2-1 0-.6-2.2-1-5-1-2.7 0-5 .4-5 1zm-88.7 10.5c-.7.8-1.3 2.1-1.3 3 0 .8-.4 1.5-1 1.5-.5 0-1 2.2-1 5 0 2.7.5 5 1 5 .6 0 1 .9 1 2s-.4 2-1 2c-.5 0-1-.5-1-1 0-.6-1.6-1-3.5-1-3.2 0-4.7 1.2-15.5 12-6.6 6.6-12.6 12-13.5 12-.8 0-1.5.4-1.5 1 0 .5-1.3 1-3 1-1.6 0-3-.5-3-1 0-.6-.9-1-2-1s-2-.5-2-1c0-.6-.9-1-2-1s-2-.5-2-1c0-1.8-5.5-1.1-7 1-.8 1.1-2.2 2-3.2 2s-1.8.4-1.8 1c0 .5-2.2 1-5 1-2.7 0-5-.3-5-.8 0-.4-1.3-1.3-3-2-1.6-.8-3-2-3-2.9 0-.8-1.8-3.2-4-5.3-2.2-2.1-4-4.3-4-5 0-.6-1.6-2.6-3.5-4.5-3.7-3.8-8.5-4.7-11.1-2.1-1.7 1.7-2.1 22.6-.4 22.6.6 0 1 1.8 1 4s.5 4 1 4c.6 0 1 1.3 1 3 0 1.6.5 3 1 3 .6 0 1 1.3 1 3 0 1.6.5 3 1 3 .6 0 1 1.8 1 4s.5 4 1 4c.6 0 1 1.6 1 3.6 0 1.9.6 4.2 1.4 5 2 2 7.5 1.8 9.5-.4.9-.9 2.8-2.3 4.4-3.1 1.5-.8 2.7-1.8 2.7-2.3 0-.4.9-.8 2-.8s2-.5 2-1c0-.6.9-1 2-1s2-.5 2-1c0-.6.5-1 1-1 .6 0 1 .9 1 2s-.7 2-1.5 2-5.3 3.8-10 8.5-8.5 9.2-8.5 10c0 .8-.4 1.5-1 1.5-1.5 0-1.2 7 .4 8.6.8.8 2.6 1.4 4 1.4s2.6.4 2.6 1c0 .5 1.4 1 3 1 2.1 0 3 .5 3 1.6 0 2-2.4 4.4-4.4 4.4-.9 0-1.6.4-1.6 1 0 .5-.7 1-1.6 1-2.4 0-6.4 5.1-6.4 8.2 0 2.8-1.9 7.8-2.9 7.8-.4 0-1.3-.9-2.1-2s-2.2-2-3.2-2-1.8-.5-1.8-1c0-.6-1.8-1-4-1s-4 .4-4 1c0 .5-.4 1-1 1-.5 0-1-.9-1-2 0-1.7-.7-2-4.5-2-4.1 0-5 .5-9 4.5-4.6 4.6-5.5 7.6-3.1 10.1 1.7 1.6 6.6 1.9 6.6.4 0-.6.8-1 1.8-1s2.4-.9 3.2-2c1.5-2.1 4.5-2.7 5.5-1 .3.5 1.4 1 2.4 1 .9 0 2.7.9 3.9 2 3.8 3.6 11.2 2 11.2-2.4 0-.9.5-1.6 1-1.6.6 0 1 .7 1 1.5 0 3.5 8.1 8.5 13.8 8.5 1.2 0 2.2.3 2.2.6 0 1.1-5.4 5.4-6.7 5.4-.7 0-1.3.4-1.3 1 0 .5-.8 1-1.7 1-1.9 0-4.3 4.1-4.3 7.2 0 2.3 6.3 8.8 8.5 8.8.8 0 1.5.4 1.5 1 0 .5 1.5 1 3.4 1s3.8.4 4.1 1c.4.6 6.3 1 14.6 1 8.6 0 13.9-.4 13.9-1s1-1 2.2-1c2.8 0 8.9-2.1 10.6-3.7.6-.6 1.2-1.9 1.2-2.7 0-.9.5-1.6 1-1.6.6 0 1-1.6 1-3.5 0-4.2-3.4-8.5-6.8-8.5-2 0-6.2-2.7-5.1-3.3.2-.1 1.4-.8 2.6-1.5 1.3-.6 2.9-1.2 3.7-1.2.7 0 1.9-1.4 2.6-3 .7-1.7 1.6-3 2.1-3s.9-1.4.9-3c0-1.7.5-3 1-3 .6 0 1-2.3 1-5 0-2.8-.4-5-1-5-.5 0-1-.7-1-1.6 0-.9-.9-1.8-2-2.1-1.1-.3-2-.9-2-1.4 0-.5-1.3-.9-3-.9-1.6 0-3-.5-3-1 0-.6-1.3-1-3-1-1.6 0-3-.3-3-.6 0-1.1 2.9-3.4 4.4-3.4.9 0 1.6-.5 1.6-1 0-.6 1.6-1 3.5-1 7 0 11.6-9.3 6.5-13-1.1-.8-2-2-2-2.7 0-1.7-9.7-11.4-13.3-13.2-2.9-1.5-3.7-5.1-1.1-5.1.8 0 4.2 2.7 7.4 6 4.7 4.8 6.5 6 9 6 3.3 0 8-3.8 8-6.5 0-.8.3-1.5.8-1.5.9 0 3.2-7.2 3.2-10 0-1.1.5-2 1-2 .6 0 1-1.8 1-4s.5-4 1-4c.6 0 1-1.4 1-3 0-1.7.5-3 1-3 .6 0 1-1.3 1-2.9 0-1.7.5-3.3 1-3.6.6-.3 1-3 1-6s.5-5.7 1-6c.6-.3 1-2.6 1-5.1 0-2.4.5-4.4 1-4.4.6 0 1 .7 1 1.5 0 3.2 4.7 6.5 9 6.5s9-3.3 9-6.5c0-.8.5-1.5 1-1.5.6 0 1-2.7 1-6s-.4-6-1-6c-.5 0-1-.7-1-1.5 0-.9-1.6-3.1-3.5-5-3.1-3.1-4-3.5-8.7-3.5-3.3.1-5.8.6-6.5 1.5zM358 275c0 .5-1.8 1-4 1s-4 .4-4 1c0 .5-.7 1-1.5 1-.9 0-2.7 1.1-4 2.5-1.4 1.3-2.5 3.1-2.5 4 0 .8-.4 1.5-1 1.5-.5 0-1 .9-1 2s.5 2 1 2c.6 0 1 .8 1 1.7 0 1 1.2 2.4 2.7 3 3.2 1.5 15.3 1.7 15.3.3 0-.6 1.8-1 4-1s4-.5 4-1c0-.6 1.1-1 2.5-1 1.6 0 3.9-1.3 6-3.5 4.3-4.2 4.7-8.4 1-12-2.2-2.3-3.2-2.5-11-2.5-5 0-8.5.4-8.5 1z"/><path d="M106 281c0 .5-.7 1-1.5 1-2.3 0-6.5 4.6-6.5 7 0 3.4 2.4 5 7.4 5 3.5 0 4.6.4 4.6 1.5 0 1.9 4.4 6.5 6.2 6.5.8 0 2 .9 2.8 2 .8 1.1 2 2 2.7 2 .7 0 2.3.5 3.6 1.2 4.7 2.4 5.7 2.8 7.2 2.8.8 0 1.5.4 1.5 1 0 .5 2.2 1 4.8 1 3.6 0 5.1-.5 6.2-2 .8-1.1 2-2 2.8-2 1.6 0 4.2-2.4 4.2-3.9 0-.6.5-1.1 1-1.1.6 0 1 .9 1 1.9 0 1.1.5 2.3 1 2.6.6.3 1 1.3 1 2.2 0 2.2 5.9 7.3 9.2 8 1.5.3 2.8.9 2.8 1.4 0 .5 2.3.9 5 .9 2.8 0 5-.5 5-1 0-.6 1.3-1 2.9-1 1.6 0 3.1-.6 3.3-1.2.6-1.7 3.8 1.4 3.8 3.6 0 .9.5 1.6 1 1.6.6 0 1 .7 1 1.6 0 2 2.4 4.4 4.4 4.4.9 0 1.6.4 1.6 1 0 1.4 4.6 1.2 7.2-.3 3.4-1.9 6.8-5.5 6.8-7.1 0-.8.6-1.6 1.3-1.9.8-.3.5-1.1-1-2.4-1.3-1.1-2.3-2.6-2.3-3.3 0-.7-1.2-2.3-2.7-3.6-2.4-2-3.9-2.4-9.6-2.4-6.7 0-7-.1-10.7-4-2.1-2.2-4.6-4-5.4-4-.9 0-1.6-.5-1.6-1 0-.6-1.3-1-3-1-1.6 0-3-.5-3-1 0-.6-2.7-1-6-1s-6 .4-6 1c0 .5-.9 1-1.9 1-1.1 0-2.2.6-2.5 1.2-.5 1-.7 1-1.2 0-.3-.6-1.3-1.2-2.3-1.2-.9 0-2.3-.9-3.1-2-.8-1.1-2.2-2-3.2-2s-1.8-.5-1.8-1c0-.6-1.3-1-3-1-1.6 0-3-.5-3-1 0-.6-1.3-1-2.9-1-1.6 0-3.1-.5-3.3-1.1-.2-.6-3.5-1-8.1-1-6.2 0-7.7-.3-7.7-1.5 0-2.4-4.7-6.4-7.5-6.4-1.4 0-2.5.4-2.5 1z"/><path d="M87.3 293.5c-2.1 2.3-1.6 3.2 4.8 9.7 3.5 3.5 5.6 6.4 4.9 6.6-.6.2-1.7-.1-2.3-.7-1.6-1.6-11.6-1.4-13.3.3-2.1 2.2-1.8 7.9.6 9.6 1.1.8 2 2.1 2 3 0 .9.9 2.2 2 3 1.1.8 2 2 2 2.7 0 1.9 10.6 12.3 12.5 12.3.8 0 1.5.4 1.5 1 0 .5.9 1 2 1s2-.5 2-1c0-.6.5-1 1-1 .6 0 1 1.3 1 3 0 1.6.5 3 1 3 .6 0 1 .7 1 1.5 0 .9 1.1 2.7 2.5 4 2 2.1 3.4 2.5 7.9 2.5 3.4 0 5.6-.5 5.8-1.2.5-1.5 3.8 1.3 3.8 3.2 0 1.9 8.9 10 10.9 10 1.1 0 2.3.4 2.6 1 .4.6 5.3 1 11.6 1 6.6 0 10.9-.4 10.9-1s.7-1 1.6-1c2.2 0 4.4-2.5 4.4-5s-2.2-5-4.4-5c-.9 0-1.6-.5-1.6-1 0-.6-.9-1-2-1s-2-.5-2-1c0-.6-1.3-1-3-1-1.6 0-3-.5-3-1 0-.6-1.3-1-3-1-1.6 0-3-.5-3-1 0-.6-3.7-1-9-1s-9 .4-9 1c0 .5-.4 1-1 1-.5 0-1-.7-1-1.5 0-.9-2-3.6-4.5-6-4.2-4.2-4.8-4.5-10-4.5-3 0-5.5-.5-5.5-1 0-.6.5-1 1-1 .6 0 1-1.6 1-3.6 0-2.7-.7-4.3-3-6.4-1.6-1.5-3-3.3-3-4 0-.6-1.9-2.9-4.1-5.1-2.3-2.2-3.9-4.2-3.6-4.5.3-.3 2.6 1.5 5.2 4 2.5 2.6 5.9 4.9 7.6 5.3 1.6.3 2.9.9 2.9 1.4 0 .5 1.4.9 3 .9 2.3 0 3 .4 3 2 0 1.1.5 2 1 2 .6 0 1 .7 1 1.5 0 2.2 6.6 8.5 8.9 8.5 1.1 0 2.3.4 2.6 1 .3.6 4.9 1 10.3 1 8.6 0 9.9.2 11.2 2 .8 1.1 2.2 2 3.1 2 1 0 1.9.5 2.1 1 .2.7 4.3 1.1 10.6 1.1 8.1 0 10.6-.4 11.9-1.6.8-.9 2.2-1.4 3-1.1.8.3 1.7.6 1.9.6.2 0 .4.7.4 1.5 0 1.6 4.3 6.5 5.7 6.5.4 0 1.9.9 3.3 2 2.9 2.3 5.2 2.5 8.2.7 3.3-1.8 4.8-3.4 4.8-5 0-.9.5-1.7 1.1-1.9.7-.2 1.2-2.3 1.2-4.5 0-4.3-1.9-7.3-4.7-7.3-.9 0-1.6-.5-1.6-1 0-.6-1.5-1-3.4-1s-3.8-.5-4.1-1c-1-1.6-5.5-1.2-7.3.6-1.5 1.5-1.8 1.4-3.8-1-1.3-1.4-3-2.6-3.9-2.6-.8 0-1.5-.5-1.5-1 0-.6-1.1-1-2.4-1-1.4 0-2.8-.5-3.1-1-.3-.6-5-1-10.6-1-5.9 0-9.9.4-9.9 1 0 .5-.9 1-2 1-1.3 0-2 .7-2 2 0 2.7-.7 2.5-4-1-1.5-1.7-3.4-3-4.2-3-.7 0-2-.9-2.8-2-.8-1.2-2.6-2-4.2-2-1.5 0-2.8-.5-2.8-1 0-.6-3-1-7-1h-7v-4.6c0-4.7-1.6-7.4-4.4-7.4-.9 0-1.6-.4-1.6-.9s-1.3-1.4-3-2.1c-1.6-.7-3-1.6-3-2 0-.3-1.2-1.3-2.7-2.1-1.6-.8-3.9-2.5-5.3-3.9-2.3-2.3-8.2-5.1-10.6-5-.5.1-1.5.7-2.1 1.5zM430 297c0 .5-.9 1-2 1s-2 .4-2 1c0 .5-.6 1-1.4 1-2.4 0-9.9 4.3-13.3 7.7-3 3-3.3 3.8-3.3 9.3 0 4.4.5 6.6 1.7 7.8 1.2 1.2 1.8 1.3 2.1.4.2-.6 1.2-1.2 2.3-1.2 1 0 1.9-.5 1.9-1 0-.6.6-1 1.3-1 .7 0 2.3-.9 3.5-2 1.2-1.1 2.6-2 3.2-2 .5 0 2.4-1.4 4.2-3 1.7-1.7 3.5-3 4-3 1.5 0 5.8-4.8 5.8-6.5 0-.8.5-1.5 1-1.5.6 0 1-.9 1-1.9 0-1.1.6-2.1 1.2-2.3.9-.3.8-.9-.4-2.1-1.8-1.9-10.8-2.4-10.8-.7zm10 14c0 .5-1.3 1-2.8 1-1.6 0-3.4.8-4.2 2-.8 1.1-2 2-2.7 2-1.9 0-16.3 14.6-16.3 16.5 0 .8.5 1.5 1 1.5.6 0 1 1.3 1 2.9 0 1.6.6 3.1 1.3 3.4.7.2.8.8.3 1.3s-1.1.4-1.3-.4c-.3-.6-1.3-1.2-2.4-1.2-1 0-1.9-.5-1.9-1 0-.6-.9-1-2-1s-2 .4-2 1c0 .5-.9 1-2 1s-2 .4-2 1c0 .5-.6 1-1.4 1-3.6 0-6.1 9.6-3.3 12.4 2.4 2.4 6.1 4 6.5 2.7.2-.6 1.5-1.1 2.8-1.1 2.8 0 9.4-6 9.4-8.5 0-.9.9-1.5 2.3-1.5 2.5-.1 5.7-2.2 5.7-3.8 0-.6 4.1-5.2 9-10.1 5-5 9-9.8 9-10.6 0-.8.5-1.5 1-1.5 1.5 0 1.2-7-.4-8.6-1.7-1.6-4.6-1.9-4.6-.4zm-48 12c0 .5-.9 1-2 1s-2 .4-2 1c0 .5-.9 1-1.9 1-2.3 0-10.1 4-10.1 5.2 0 .4-.4.8-1 .8-.5 0-1-.7-1-1.6 0-2-2.4-4.4-4.4-4.4-.9 0-1.6-.5-1.6-1 0-.6-3.7-1-9-1s-9 .4-9 1c0 .5-.7 1-1.5 1-.9 0-2.7 1.1-4 2.5-2 1.9-2.5 3.4-2.5 7.5s.5 5.6 2.5 7.5c1.3 1.4 3.6 2.5 5 2.5s2.5.4 2.5 1c0 1.4 12.6 1.2 15.2-.3 3.4-1.9 4.8-3.4 4.8-5.1 0-1.1.9-1.6 3-1.6 1.7 0 3 .4 3 1 0 .5 2.3 1 5 1 2.8 0 5-.5 5-1 0-.6 1.5-1 3.4-1s3.8-.5 4.1-1c.3-.6 1.5-1 2.6-1 1 0 1.9-.5 1.9-1 0-.6.7-1 1.5-1 .9 0 3.1-1.6 5.1-3.5 3.1-3.1 3.3-3.7 2.2-5.7-2.5-4.3-3.5-4.8-10.2-4.8-3.7 0-6.6.4-6.6 1zm-66 10c0 .5-2.1 1-4.6 1-4.7 0-7.4 1.6-7.4 4.4 0 .9-.4 1.6-1 1.6-.5 0-1 2.2-1 5 0 2.7.5 5 1 5 .6 0 1 .7 1 1.6 0 2 2.4 4.4 4.3 4.4.9 0 1.8.6 2.1 1.2.5 1 .7 1 1.2 0 .3-.6 1.2-1.2 2-1.2 2.2 0 5.4-2.1 10.1-6.7 4-3.9 4.3-4.7 4.3-9.3 0-3.1-.6-5.7-1.4-6.6-1.7-1.6-10.6-2-10.6-.4zm62 15.9c0 1.1-8.9 2.7-26.4 4.7-2.7.4-5.6 1.2-6.3 1.9-1.5 1.6-1.8 6.5-.3 6.5.6 0 1 .7 1 1.6 0 3.5 2.6 4.4 12.9 4.4 5.6 0 10.3-.4 10.6-1 .3-.6 2.4-1 4.6-1 2.1 0 3.9-.5 3.9-1 0-.6.7-1 1.5-1 .9 0 2.7-1.1 4-2.5 2.9-2.8 3.5-9.7 1.1-12.1-1.6-1.5-6.6-1.9-6.6-.5zm-54.5 6.5c-8.6 3.2-9.7 9.5-2.9 16.3 1.9 1.8 3.4 2.3 7.9 2.3 3 0 5.5-.5 5.5-1 0-.6.7-1 1.6-1 2 0 4.4-2.4 4.4-4.4 0-.9.5-1.6 1-1.6.6 0 1-1.4 1-3 0-1.7-.4-3-1-3-.5 0-1-.9-1-2 0-1.6-.7-2-3-2-1.6 0-3-.5-3-1 0-1.3-6.7-1.1-10.5.4z"/><path d="M176.3 358.5c-3.1 3.3-3 7.9.2 11 2.1 2.2 3.3 2.5 10 2.5 4.1 0 7.5-.4 7.5-.9s.9-1.1 2-1.4c1.1-.3 2-1.2 2-2.1 0-.9.5-1.6 1-1.6.6 0 1-1.4 1-3 0-2.3-.4-3-2-3-1.1 0-2-.5-2-1 0-.6-.9-1-2-1s-2-.5-2-1c0-.6-2.9-1-6.7-.9-5.8 0-7.1.4-9 2.4zm31.4 13.5c-.3 1.4-1.4 2-3.1 2-1.4 0-2.6-.5-2.6-1 0-.6-.9-1-2-1s-2 .4-2 1c0 .5-.7 1-1.5 1-2 0-10.5 8.5-10.5 10.5 0 .8-.4 1.5-1 1.5-1.5 0-1.2 2.9.4 4.6 1.7 1.6 4.6 1.9 4.6.4 0-.6.9-1 2-1s2-.5 2-1c0-.6.7-1 1.6-1 1.8 0 4.4-2.3 4.4-4 0-1.4 4.6-6 5.9-6 .6 0 3.4 2.2 6.2 5 2.8 2.7 5.7 5 6.5 5 .8 0 1.4.4 1.4 1 0 1.5 4.9 1.2 6.6-.4 1.6-1.6 1.9-8.6.4-8.6-.5 0-1-.7-1-1.6 0-1.9-2.4-4.4-4.2-4.4-.8 0-2-.9-2.8-2-1.1-1.5-2.6-2-6.1-2-3.8 0-4.8.4-5.2 2zm101.3 0c-.8 1.1-2 2-2.8 2-1.7 0-6.2 4.5-6.2 6.2 0 .8-.9 2-2 2.8-1.2.8-2 2.6-2 4.2 0 2.6.3 2.8 3.9 2.8 2.2 0 4.3-.5 4.6-1 .3-.6 1.7-1 3.1-1 1.3 0 2.4-.5 2.4-1 0-.6.6-1 1.3-1 .7 0 2.4-.5 3.8-1.2 2.5-1.1 4.9-4.9 4.9-7.5 0-.7.5-1.3 1-1.3 1.5 0 1.2-2.9-.4-4.6-2.3-2.2-9.9-1.8-11.6.6zm14.3 4.7c-2.1 4.3-1.6 6.1 3 10.8 4.2 4.3 5.9 4.9 13 4.6 2.4-.1 2.7-.5 2.7-3.6 0-2.9-.9-4.4-4.4-7.9-7.3-7.4-12.1-8.7-14.3-3.9zm-7.8 16.3c-.3.5-1.7 1-3.1 1-1.3 0-2.4.4-2.4 1 0 .5-.7 1-1.6 1-.9 0-2.4.8-3.3 1.8-.9 1-2.4 2.1-3.3 2.5-1 .3-1.8 1.3-1.8 2.2 0 .8-.4 1.5-1 1.5-1.5 0-1.2 4.9.4 6.6 2.3 2.2 9.9 1.8 11.6-.6.8-1.1 2.2-2 3.2-2s1.8-.5 1.8-1c0-2.2 5.3-.9 8 2 2 2.1 3.7 3 6 3 4.2 0 7.2-3.3 6.3-6.8-.9-3.8-8.7-11.2-11.8-11.2-1.4 0-2.5-.5-2.5-1 0-.6-1.3-1-2.9-1-1.7 0-3.3.4-3.6 1zM204 417c0 .5-.7 1-1.6 1-.8 0-3.7 2.2-6.4 5-2.7 2.7-5.4 5-6 5-2 0-4 2.8-4 5.4 0 2.6.1 2.6 8 2.6 4.7 0 8-.4 8-1s.7-1 1.5-1 2.5-.6 3.6-1.3c1.7-1 2.3-1 2.6 0 .3.7 1.3 1.3 2.3 1.3 1 0 2.2.4 2.5 1 .3.5 2.4 1 4.6 1 2.9 0 4.7-.7 6.4-2.5 2.5-2.4 3.5-7.5 1.5-7.5-.5 0-1-.7-1-1.5 0-2-4.5-6.5-6.5-6.5-.8 0-1.5-.5-1.5-1 0-.6-3-1-7-1s-7 .4-7 1zm108 0c0 .5-1.1 1-2.5 1-3.2 0-11.5 8-11.5 11 0 4.1 2.2 5 12.4 5 5.2 0 9.8.4 10.1 1 .3.5 3.2 1 6.4 1 3.1 0 6.1.4 6.7 1 .6.6 1.9.1 3.8-1.5 2.6-2.2 2.7-2.5 1.2-4-.9-.9-2.1-2.5-2.6-3.6-.6-1-1.5-1.9-2.1-1.9-.5 0-1.9-.9-3.1-2-1.2-1.1-2.8-2-3.5-2-.7 0-1.3-.5-1.3-1 0-.6-.9-1-2-1s-2-.5-2-1c0-.6-1.3-1-2.9-1-1.7 0-3.3-.5-3.6-1-.3-.6-1.3-1-2.1-1s-1.4.4-1.4 1zm-107 22c-.8.5-2.5 1-3.8 1-2.9 0-9 6.1-9.3 9.2-.5 5.1.1 6.8 2.1 6.8 1.1 0 2-.5 2-1 0-.6 3.3-1 8-1s8 .4 8 1c0 1.6 8.9 1.2 10.6-.4.8-.8 1.4-2.9 1.4-4.6 0-3.9-5.7-10-9.4-10-1.4 0-2.8-.5-3.1-1-.8-1.3-4.5-1.3-6.5 0zm104 2.8c-.8.9-2.7 2.4-4.2 3.1-3.4 1.8-3.9 6-.8 6.8 1.1.3 2 .9 2 1.4 0 .5 1.4.9 3 .9 1.7 0 3 .4 3 1s3.5 1 8.6 1c8.4 0 8.7-.1 12-3.4 1.9-1.9 3.4-3.9 3.4-4.6 0-.7-1.7-2.8-3.7-4.6-3.6-3.3-3.8-3.4-12.7-3.4-7.4 0-9.4.4-10.6 1.8zm-77 3.2c0 .5-.8 1-1.7 1-1 0-2.4 1.2-3 2.7-1.5 3.2-1.7 9.3-.3 9.3.6 0 1 .7 1 1.5s1.4 2.9 3 4.7c1.7 1.7 3 3.7 3 4.4 0 .7.6 1.5 1.3 1.8.8.3.5 1.1-1 2.4-3 2.7-3.2 10.5-.3 14.2 1.1 1.4 2 3 2 3.7 0 .6 1.4 1.7 3 2.5 1.7.7 3 1.6 3 2 0 .5.6.8 1.3.8 1.3 0 6.7 4.3 6.7 5.4 0 .3-1.6.6-3.6.6-1.9 0-4.2.6-5 1.4-1.6 1.7-2 10.6-.4 10.6.6 0 1 .7 1 1.6 0 .9.9 2.5 2.1 3.5 1.9 1.6 2 2 .6 3.4s-1.8 1.3-4.1-1c-1.4-1.4-2.6-3.2-2.6-4 0-.8-.4-1.5-1-1.5-.5 0-1-.7-1-1.5 0-2.9-4.7-6.5-8.5-6.5-1.9 0-3.5-.5-3.5-1 0-.6-6-1-16-1s-16 .4-16 1c0 .5-.8 1-1.7 1-1.7 0-4.3 4-4.3 6.7 0 .7-.4 1.3-1 1.3s-1 4-1 10 .4 10 1 10 1 1.7 1 3.8c0 2.6.6 4.2 2 5.2 1.1.8 2 2.2 2 3.2 0 1.1.7 1.8 2 1.8 1.1 0 2 .4 2 1 0 .5.9 1 2 1s2-.5 2-1c0-.6 1-1 2.3-1 1.2 0 3.8-1.4 5.7-3 1.9-1.6 3.9-3 4.3-3 .4 0 3.5-2.8 6.8-6.1 3.3-3.4 6.3-5.8 6.7-5.4.4.4.1 1-.5 1.2-.7.3-1.3 1.3-1.3 2.4 0 1-.4 1.9-1 1.9-2.5 0 .1 10.1 3.5 13.6 3.6 3.6 6.9 3.8 10.4.5 1.9-1.8 3.1-3.9 3.1-5.5 0-1.4.5-2.6 1-2.6.6 0 1-1.4 1-3 0-1.7.5-3 1-3 .6 0 1-2.3 1-5 0-2.8.5-5 1-5 .6 0 1 2.6 1 5.8 0 4.6.4 6 2 7.2 1.1.8 2 2 2 2.7 0 .8 2.9 4.3 6.5 7.8 4.5 4.6 7.2 6.5 9 6.5 1.4 0 2.5-.6 2.5-1.4 0-.7 1.4-2.7 3-4.4 1.7-1.8 3-3.8 3-4.6 0-.8.5-1.8 1-2.1.6-.3 1-1.9 1-3.5s.5-3.2 1-3.5c.6-.3 1-1.5 1-2.6 0-1 .5-1.9 1-1.9.6 0 1 1.3 1 3 0 1.6.5 3 1 3 .6 0 1 1.3 1 3 0 1.6.5 3 1 3 .6 0 1 .7 1 1.5s.5 2.6 1.2 4c.9 2.1 1.8 2.5 5.4 2.5 3.5 0 5-.6 7.9-3.2 3.2-3 3.5-3.7 3.5-9 0-3.2-.4-5.8-1-5.8-.5 0-1-.9-1-2s-.4-2-1-2c-.5 0-1-.9-1-2s.5-2 1-2c.6 0 1 .4 1 1 0 .5.6 1 1.3 1 1.6 0 8.7 6.4 8.7 7.8 0 2.1 9.1 10.2 11.6 10.2 1.3 0 2.4.4 2.4 1 0 .5.9 1 2 1s2-.5 2-1c0-.6.6-1 1.3-1 2.7 0 6.7-2.6 6.7-4.3 0-.9.5-1.7 1-1.7.6 0 1-2.3 1-5 0-2.8.5-5 1-5 .6 0 1-3.9 1-9.6 0-9.8-.9-12.4-4.4-12.4-.8 0-1.8-.4-2.1-1-.4-.6-6-1-13.5-1s-13.1.4-13.5 1c-.3.6-3.5 1-7.1 1-5.6 0-6.8.4-8.9 2.5-1.7 1.6-2.5 3.5-2.5 6 0 3.2-.2 3.5-2.9 3.5-1.6 0-3.1.6-3.3 1.2-.3.9-.9.8-2.1-.4-2.4-2.3-2.1-3.6 1.3-6.8 1.7-1.5 3-3.5 3-4.4 0-.9.5-1.6 1-1.6 1.5 0 1.2-4.9-.4-6.6-.8-.8-2.5-1.4-3.8-1.4-2.4 0-4.8-1.6-4.8-3.2 0-.4 1.8-.8 4-.8s4-.5 4-1c0-.6.9-1 2-1s2-.5 2-1c0-.6.7-1 1.6-1 2 0 4.4-2.4 4.4-4.4 0-.9.5-1.6 1-1.6.6 0 1-2.5 1-5.5 0-4.6-.4-6-2.5-8-1.3-1.4-3.6-2.5-5-2.5s-2.5-.3-2.5-.6c0-1.2 9.3-9.4 10.7-9.4.7 0 1.3-.7 1.3-1.5 0-.9.9-2.5 2-3.7 4.7-5.1.6-10.3-9.1-11.3-11.6-1.2-56.9-1.7-56.9-.5z"/><path d="M214 463c0 .5-1.1 1-2.5 1-1.6 0-3.9 1.3-5.9 3.4-4.1 4.1-5.6 6.7-5.6 10 0 2.4.4 2.6 4 2.6 2.2 0 4-.5 4-1 0-.6.9-1 2-1s2-.5 2-1c0-.6 2.3-1 5-1 2.8 0 5-.5 5-1 0-.6.8-1 1.8-1s2.4-1.1 3.2-2.4c1.1-2.1 1-2.7-.3-4-.9-.9-2.3-1.6-3.1-1.6-.9 0-1.6-.5-1.6-1 0-.6-1.3-1-3-1-1.6 0-3-.5-3-1 0-.6-.4-1-1-1-.5 0-1 .4-1 1zm90 2c0 .5-.7 1-1.6 1-2.2 0-4.4 2.5-4.4 5 0 2.7 2.2 5 4.9 5 1.1 0 2.3.4 2.6 1 .3.5 1.9 1 3.6 1 1.6 0 2.9.4 2.9 1 0 .5 2 1 4.5 1 3.5 0 5.2-.6 7-2.5 1.4-1.3 2.5-2.9 2.5-3.5 0-1.7-2.6-4-4.4-4-.9 0-1.6-.5-1.6-1 0-.6-.9-1-2-1s-2-.5-2-1c0-.6-.9-1-1.9-1-1.1 0-2.3-.5-2.6-1-.3-.6-2.2-1-4.1-1-1.9 0-3.4.4-3.4 1z"/></g><path d="M136.9 221.7c-1.3 1.6-1.2 1.7.4.4.9-.7 1.7-1.5 1.7-1.7 0-.8-.8-.3-2.1 1.3zM97 292.4c0 .2.8 1 1.8 1.7 1.5 1.3 1.6 1.2.3-.4s-2.1-2.1-2.1-1.3zm138 12c0 .2.8 1 1.8 1.7 1.5 1.3 1.6 1.2.3-.4s-2.1-2.1-2.1-1.3zm21.9 7.3c-1.3 1.6-1.2 1.7.4.4 1.6-1.3 2.1-2.1 1.3-2.1-.2 0-1 .8-1.7 1.7zm28.1 40.7c0 .2.8 1 1.8 1.7 1.5 1.3 1.6 1.2.3-.4s-2.1-2.1-2.1-1.3z" fill="#FFF" fill-opacity=".07"/><path d="M394.7 139.1c.7.7 1.5 1 1.8.7.3-.3-.2-.9-1.2-1.2-1.4-.6-1.5-.5-.6.5zM80 181c-1 .7 1.1 1 6.8 1 4.8 0 8.2-.4 8.2-1 0-1.3-13-1.3-15 0zm355-.6c0 .9 3 1.4 3.5.6.4-.6-.3-1-1.4-1-1.2 0-2.1.2-2.1.4zm14.8 5.3c.6.2 1.8.2 2.5 0 .6-.3.1-.5-1.3-.5-1.4 0-1.9.2-1.2.5zm-152 6c.6.2 1.8.2 2.5 0 .6-.3.1-.5-1.3-.5-1.4 0-1.9.2-1.2.5zm-44 24c.6.2 1.8.2 2.5 0 .6-.3.1-.5-1.3-.5-1.4 0-1.9.2-1.2.5zm23.5 0c1.5.2 3.9.2 5.5 0 1.5-.2.2-.4-2.8-.4s-4.3.2-2.7.4zm-119 6c.9.2 2.5.2 3.5 0 .9-.3.1-.5-1.8-.5-1.9 0-2.7.2-1.7.5zm216 0c2 .2 5.4.2 7.5 0 2-.2.3-.4-3.8-.4s-5.8.2-3.7.4zm-208.5 2c.6.2 1.8.2 2.5 0 .6-.3.1-.5-1.3-.5-1.4 0-1.9.2-1.2.5zm200 0c.6.2 1.8.2 2.5 0 .6-.3.1-.5-1.3-.5-1.4 0-1.9.2-1.2.5zm-184 6c.6.2 1.8.2 2.5 0 .6-.3.1-.5-1.3-.5-1.4 0-1.9.2-1.2.5zm167 0c.7.3 1.6.2 1.9-.1.4-.3-.2-.6-1.3-.5-1.1 0-1.4.3-.6.6zm-146.5 10c.9.2 2.5.2 3.5 0 .9-.3.1-.5-1.8-.5-1.9 0-2.7.2-1.7.5zm199.5 24c.6.2 1.8.2 2.5 0 .6-.3.1-.5-1.3-.5-1.4 0-1.9.2-1.2.5zM109 265c0 .5.5 1 1 1 .6 0 1-.5 1-1 0-.6-.4-1-1-1-.5 0-1 .4-1 1zm129 4c-.9.6-1 1-.3 1 .6 0 1.5-.5 1.8-1 .8-1.2.4-1.2-1.5 0zm50.8 2.2c.6.6 1.8.8 2.8.6 1.4-.3 1.2-.5-.9-1-1.9-.3-2.5-.2-1.9.4zm-131.5.5c1.5.2 3.9.2 5.5 0 1.5-.2.2-.4-2.8-.4s-4.3.2-2.7.4zm43 0c.9.2 2.5.2 3.5 0 .9-.3.1-.5-1.8-.5-1.9 0-2.7.2-1.7.5zm121 0c1.5.2 3.9.2 5.5 0 1.5-.2.2-.4-2.8-.4s-4.3.2-2.7.4zm-145.5 4c.6.2 1.8.2 2.5 0 .6-.3.1-.5-1.3-.5-1.4 0-1.9.2-1.2.5zm176.5 0c.9.2 2.5.2 3.5 0 .9-.3.1-.5-1.8-.5-1.9 0-2.7.2-1.7.5zM420 283l-5.5.7 5.2.1c2.8.1 5.5-.3 5.8-.8.3-.6.5-.9.3-.8-.2.1-2.8.4-5.8.8zm-14 4-7.5.6 7.2.2c3.9.1 7.5-.3 7.8-.8.3-.6.5-.9.3-.8-.2.1-3.7.4-7.8.8zm-278.2.7c.6.2 1.8.2 2.5 0 .6-.3.1-.5-1.3-.5-1.4 0-1.9.2-1.2.5zm262.5 2c.9.2 2.5.2 3.5 0 .9-.3.1-.5-1.8-.5-1.9 0-2.7.2-1.7.5zM161 295c0 .5 2.3 1 5 1 2.8 0 5-.5 5-1 0-.6-2.2-1-5-1-2.7 0-5 .4-5 1zm271.8.7c1.2.2 3.2.2 4.5 0 1.2-.2.2-.4-2.3-.4s-3.5.2-2.2.4zm-349 12c.6.2 1.8.2 2.5 0 .6-.3.1-.5-1.3-.5-1.4 0-1.9.2-1.2.5zm108 0c1.7.2 4.7.2 6.5 0 1.7-.2.3-.4-3.3-.4-3.6 0-5 .2-3.2.4zm136 0c1.7.2 4.7.2 6.5 0 1.7-.2.3-.4-3.3-.4-3.6 0-5 .2-3.2.4zm-206.9 11.6c.4.4 3.5.7 6.7.5l5.9-.3-6.7-.5c-3.7-.3-6.3-.1-5.9.3zm229.6 3.6c.3.6 4 1.1 8.7 1.1 4.5 0 7.9-.2 7.7-.4-.2-.2-4.2-.7-8.8-1-5.8-.5-8.1-.4-7.6.3zm-189.2 2.8c2.6.2 6.8.2 9.5 0 2.6-.2.4-.3-4.8-.3s-7.4.1-4.7.3zm32.5 6c.6.2 1.8.2 2.5 0 .6-.3.1-.5-1.3-.5-1.4 0-1.9.2-1.2.5zm135 0c1.2.2 3.2.2 4.5 0 1.2-.2.2-.4-2.3-.4s-3.5.2-2.2.4zm-214 6c1.2.2 3.2.2 4.5 0 1.2-.2.2-.4-2.3-.4s-3.5.2-2.2.4zm22 10c2.3.2 6.1.2 8.5 0 2.3-.2.4-.4-4.3-.4s-6.6.2-4.2.4zm253 0c.6.2 1.8.2 2.5 0 .6-.3.1-.5-1.3-.5-1.4 0-1.9.2-1.2.5zm-238 2c.6.2 1.8.2 2.5 0 .6-.3.1-.5-1.3-.5-1.4 0-1.9.2-1.2.5zm232 0c.6.2 1.8.2 2.5 0 .6-.3.1-.5-1.3-.5-1.4 0-1.9.2-1.2.5zm-45.5 4c.9.2 2.5.2 3.5 0 .9-.3.1-.5-1.8-.5-1.9 0-2.7.2-1.7.5zm20 0c.9.2 2.5.2 3.5 0 .9-.3.1-.5-1.8-.5-1.9 0-2.7.2-1.7.5zm-176.5 2c1.7.2 4.7.2 6.5 0 1.7-.2.3-.4-3.3-.4-3.6 0-5 .2-3.2.4zm164 0c.6.2 1.8.2 2.5 0 .6-.3.1-.5-1.3-.5-1.4 0-1.9.2-1.2.5zm-20 18c.6.2 1.8.2 2.5 0 .6-.3.1-.5-1.3-.5-1.4 0-1.9.2-1.2.5zm-46 10c.6.2 1.8.2 2.5 0 .6-.3.1-.5-1.3-.5-1.4 0-1.9.2-1.2.5zm6 2c.6.2 1.8.2 2.5 0 .6-.3.1-.5-1.3-.5-1.4 0-1.9.2-1.2.5zm32 6c.6.2 1.8.2 2.5 0 .6-.3.1-.5-1.3-.5-1.4 0-1.9.2-1.2.5zm-103.5 4c.9.2 2.5.2 3.5 0 .9-.3.1-.5-1.8-.5-1.9 0-2.7.2-1.7.5zm-6.5 20c1.7.2 4.7.2 6.5 0 1.7-.2.3-.4-3.3-.4-3.6 0-5 .2-3.2.4zm78 4c.6.2 1.8.2 2.5 0 .6-.3.1-.5-1.3-.5-1.4 0-1.9.2-1.2.5zm-86 20c.6.2 1.8.2 2.5 0 .6-.3.1-.5-1.3-.5-1.4 0-1.9.2-1.2.5zm14 0c.6.2 1.8.2 2.5 0 .6-.3.1-.5-1.3-.5-1.4 0-1.9.2-1.2.5zm99.5 0c1.5.2 3.9.2 5.5 0 1.5-.2.2-.4-2.8-.4s-4.3.2-2.7.4zM242 443c-6.4.4-1.6.6 15 .7 13.5.1 23.4-.3 22-.7-2.9-.9-22.9-.9-37 0zm45.3 2.7c1.5.2 3.9.2 5.5 0 1.5-.2.2-.4-2.8-.4s-4.3.2-2.7.4zm-77.5 18c.6.2 1.8.2 2.5 0 .6-.3.1-.5-1.3-.5-1.4 0-1.9.2-1.2.5zm8 0c.6.2 1.8.2 2.5 0 .6-.3.1-.5-1.3-.5-1.4 0-1.9.2-1.2.5zm88 0c.6.2 1.8.2 2.5 0 .6-.3.1-.5-1.3-.5-1.4 0-1.9.2-1.2.5zm-105.5 42c4.2.2 11.2.2 15.5 0 4.2-.1.7-.3-7.8-.3s-12 .2-7.7.3zm93 4c1.5.2 3.9.2 5.5 0 1.5-.2.2-.4-2.8-.4s-4.3.2-2.7.4zM283 521c-2.3.7-2.3.8-.3.9 1.2.1 2.5-.4 2.8-.9.3-.6.5-1 .3-.9-.2.1-1.4.5-2.8.9z" fill="#FFF" fill-opacity=".25"/><path d="M136.5 137c-.3.5-.1 1 .4 1 .6 0 1.1-.5 1.1-1 0-.6-.2-1-.4-1-.3 0-.8.4-1.1 1z" fill="#FFF" fill-opacity=".44"/><path d="M323.8 439.7c.7.3 1.6.2 1.9-.1.4-.3-.2-.6-1.3-.5-1.1 0-1.4.3-.6.6z" fill="#FFF" fill-opacity=".22"/><path d="M124 229c0 .5.5 1 1 1 .6 0 1-.5 1-1 0-.6-.4-1-1-1-.5 0-1 .4-1 1z" fill="#FFF" fill-opacity=".46"/><path d="M337.4 407c0 1.3.4 1.6 1 1 .7-.7.7-1.3 0-2-.6-.6-1-.3-1 1z" fill="#FFF" fill-opacity=".12"/><path d="M123.8 174.7c.6.2 1.8.2 2.5 0 .6-.3.1-.5-1.3-.5-1.4 0-1.9.2-1.2.5zm-17.5 2c.9.2 2.5.2 3.5 0 .9-.3.1-.5-1.8-.5-1.9 0-2.7.2-1.7.5zm11.5 0c.6.2 1.8.2 2.5 0 .6-.3.1-.5-1.3-.5-1.4 0-1.9.2-1.2.5zm329 6c2.3.2 6.1.2 8.5 0 2.3-.2.4-.4-4.3-.4s-6.6.2-4.2.4zm1.5 24c2 .2 5.4.2 7.5 0 2-.2.3-.4-3.8-.4s-5.8.2-3.7.4zm-366.5 4c.6.2 1.8.2 2.5 0 .6-.3.1-.5-1.3-.5-1.4 0-1.9.2-1.2.5zm194 0c.6.2 1.8.2 2.5 0 .6-.3.1-.5-1.3-.5-1.4 0-1.9.2-1.2.5zm140 26c.6.2 1.8.2 2.5 0 .6-.3.1-.5-1.3-.5-1.4 0-1.9.2-1.2.5zm-291.5 12c.9.2 2.5.2 3.5 0 .9-.3.1-.5-1.8-.5-1.9 0-2.7.2-1.7.5zm29.5 4c.6.2 1.8.2 2.5 0 .6-.3.1-.5-1.3-.5-1.4 0-1.9.2-1.2.5zm206 0c1.7.2 4.7.2 6.5 0 1.7-.2.3-.4-3.3-.4-3.6 0-5 .2-3.2.4zm27.5 0c2.6.2 6.7.2 9 0s.2-.3-4.8-.3c-4.9 0-6.8.1-4.2.3zm-225 2c2 .2 5.4.2 7.5 0 2-.2.3-.4-3.8-.4s-5.8.2-3.7.4zm-58.5 10c.6.2 1.8.2 2.5 0 .6-.3.1-.5-1.3-.5-1.4 0-1.9.2-1.2.5zm92 2c.6.2 1.8.2 2.5 0 .6-.3.1-.5-1.3-.5-1.4 0-1.9.2-1.2.5zm124 0c.6.2 1.8.2 2.5 0 .6-.3.1-.5-1.3-.5-1.4 0-1.9.2-1.2.5zm12 0c.6.2 1.8.2 2.5 0 .6-.3.1-.5-1.3-.5-1.4 0-1.9.2-1.2.5zm-201 18c2.3.2 6.1.2 8.5 0 2.3-.2.4-.4-4.3-.4s-6.6.2-4.2.4zm301 4c.6.2 1.8.2 2.5 0 .6-.3.1-.5-1.3-.5-1.4 0-1.9.2-1.2.5zm-329 6c1.2.2 3.2.2 4.5 0 1.2-.2.2-.4-2.3-.4s-3.5.2-2.2.4zm71 0c.6.2 1.8.2 2.5 0 .6-.3.1-.5-1.3-.5-1.4 0-1.9.2-1.2.5zm188.5 0c.9.2 2.5.2 3.5 0 .9-.3.1-.5-1.8-.5-1.9 0-2.7.2-1.7.5zm-12.5 2c1.7.2 4.7.2 6.5 0 1.7-.2.3-.4-3.3-.4-3.6 0-5 .2-3.2.4zm72 0c.6.2 1.8.2 2.5 0 .6-.3.1-.5-1.3-.5-1.4 0-1.9.2-1.2.5zm-228 6c1.7.2 4.7.2 6.5 0 1.7-.2.3-.4-3.3-.4-3.6 0-5 .2-3.2.4zm131 0c1.2.2 3.2.2 4.5 0 1.2-.2.2-.4-2.3-.4s-3.5.2-2.2.4zm-63.5 6c1.5.2 3.9.2 5.5 0 1.5-.2.2-.4-2.8-.4s-4.3.2-2.7.4zm-124.5 4c1.2.2 3.2.2 4.5 0 1.2-.2.2-.4-2.3-.4s-3.5.2-2.2.4zm249 0c1.7.2 4.7.2 6.5 0 1.7-.2.3-.4-3.3-.4-3.6 0-5 .2-3.2.4zm-206 6c.6.2 1.8.2 2.5 0 .6-.3.1-.5-1.3-.5-1.4 0-1.9.2-1.2.5zm-9 2c1.2.2 3.2.2 4.5 0 1.2-.2.2-.4-2.3-.4s-3.5.2-2.2.4zm-55 4c.6.2 1.8.2 2.5 0 .6-.3.1-.5-1.3-.5-1.4 0-1.9.2-1.2.5zm265 18c1.2.2 3.2.2 4.5 0 1.2-.2.2-.4-2.3-.4s-3.5.2-2.2.4zm-25 6c1.7.2 4.7.2 6.5 0 1.7-.2.3-.4-3.3-.4-3.6 0-5 .2-3.2.4zm-238.5 6c1.5.2 3.9.2 5.5 0 1.5-.2.2-.4-2.8-.4s-4.3.2-2.7.4zm175 2c.9.2 2.5.2 3.5 0 .9-.3.1-.5-1.8-.5-1.9 0-2.7.2-1.7.5zm115.5 0c.6.2 1.8.2 2.5 0 .6-.3.1-.5-1.3-.5-1.4 0-1.9.2-1.2.5zm-25.5 10c.9.2 2.5.2 3.5 0 .9-.3.1-.5-1.8-.5-1.9 0-2.7.2-1.7.5zm-232.5 2c2.8.2 7.6.2 10.5 0 2.8-.2.5-.3-5.3-.3s-8.1.1-5.2.3zm213.5 0c2.6.2 6.8.2 9.5 0 2.6-.2.4-.3-4.8-.3s-7.4.1-4.7.3zm-181 4c2 .2 5.4.2 7.5 0 2-.2.3-.4-3.8-.4s-5.8.2-3.7.4zm153 2c1.5.2 3.9.2 5.5 0 1.5-.2.2-.4-2.8-.4s-4.3.2-2.7.4zm-95.5 4c.6.2 1.8.2 2.5 0 .6-.3.1-.5-1.3-.5-1.4 0-1.9.2-1.2.5zm46.5 0c.9.2 2.5.2 3.5 0 .9-.3.1-.5-1.8-.5-1.9 0-2.7.2-1.7.5zm-64.5 12c.6.2 1.8.2 2.5 0 .6-.3.1-.5-1.3-.5-1.4 0-1.9.2-1.2.5zm76.5 0c.9.2 2.5.2 3.5 0 .9-.3.1-.5-1.8-.5-1.9 0-2.7.2-1.7.5zm-78 20c.9.2 2.5.2 3.5 0 .9-.3.1-.5-1.8-.5-1.9 0-2.7.2-1.7.5zm85 24c2.6.2 6.8.2 9.5 0 2.6-.2.4-.3-4.8-.3s-7.4.1-4.7.3zm-61.5 6c.6.2 1.8.2 2.5 0 .6-.3.1-.5-1.3-.5-1.4 0-1.9.2-1.2.5zm36 0c.6.2 1.8.2 2.5 0 .6-.3.1-.5-1.3-.5-1.4 0-1.9.2-1.2.5zm-63.5 16c.9.2 2.5.2 3.5 0 .9-.3.1-.5-1.8-.5-1.9 0-2.7.2-1.7.5zm98 0c.9.2 2.5.2 3.5 0 .9-.3.1-.5-1.8-.5-1.9 0-2.7.2-1.7.5zm11.5 0c.6.2 1.8.2 2.5 0 .6-.3.1-.5-1.3-.5-1.4 0-1.9.2-1.2.5zm-111 20c1.2.2 3.2.2 4.5 0 1.2-.2.2-.4-2.3-.4s-3.5.2-2.2.4zm-12.5 4c.9.2 2.3.2 3 0 .6-.3-.1-.5-1.8-.5-1.6 0-2.2.2-1.2.5zm112.5 0c1.2.2 3.2.2 4.5 0 1.2-.2.2-.4-2.3-.4s-3.5.2-2.2.4zm-37 18c.6.2 1.8.2 2.5 0 .6-.3.1-.5-1.3-.5-1.4 0-1.9.2-1.2.5zm9 56c1.2.2 3.2.2 4.5 0 1.2-.2.2-.4-2.3-.4s-3.5.2-2.2.4zm-25 4c.6.2 1.8.2 2.5 0 .6-.3.1-.5-1.3-.5-1.4 0-1.9.2-1.2.5z" fill="#FFF" fill-opacity=".25"/><path d="M273.1 255.6c0 1.1.3 1.4.6.6.3-.7.2-1.6-.1-1.9-.3-.4-.6.2-.5 1.3z" fill="#FFF" fill-opacity=".24"/><path d="M416.5 341c-.3.5-.1 1 .4 1 .6 0 1.1-.5 1.1-1 0-.6-.2-1-.4-1-.3 0-.8.4-1.1 1z" fill="#FFF" fill-opacity=".45"/><path d="M119.6 259.8c-.2.4.4.8 1.4.8 1 0 1.6-.4 1.4-.8-.3-.4-.9-.8-1.4-.8-.5 0-1.1.4-1.4.8z" fill="#FFF" fill-opacity=".1"/><path d="m162.4 55.2-1.9 2.3 2.3-1.9c1.2-1.1 2.2-2.1 2.2-2.3 0-.8-.8-.2-2.6 1.9zM370.5 61c1 1.1 2 2 2.3 2 .3 0-.3-.9-1.3-2s-2-2-2.3-2c-.3 0 .3.9 1.3 2zm.9 9.1c-.3.6-.2 1.5.3 2s.9.1.9-1.1c0-2.3-.2-2.4-1.2-.9zm5.1 8.9c1 1.1 2 2 2.3 2 .3 0-.3-.9-1.3-2s-2-2-2.3-2c-.3 0 .3.9 1.3 2zm-232.1 6.2-1.9 2.3 2.3-1.9c2.1-1.8 2.7-2.6 1.9-2.6-.2 0-1.2 1-2.3 2.2zm238.1-.2c1 1.1 2 2 2.3 2 .3 0-.3-.9-1.3-2s-2-2-2.3-2c-.3 0 .3.9 1.3 2zm14 12c1 1.1 2 2 2.3 2 .3 0-.3-.9-1.3-2s-2-2-2.3-2c-.3 0 .3.9 1.3 2zm-248.1 60.2-1.9 2.3 2.3-1.9c2.1-1.8 2.7-2.6 1.9-2.6-.2 0-1.2 1-2.3 2.2zm-6 6-1.9 2.3 2.3-1.9c2.1-1.8 2.7-2.6 1.9-2.6-.2 0-1.2 1-2.3 2.2zm244.1-.2c1 1.1 2 2 2.3 2 .3 0-.3-.9-1.3-2s-2-2-2.3-2c-.3 0 .3.9 1.3 2zm73.9 18.2-1.9 2.3 2.3-1.9c2.1-1.8 2.7-2.6 1.9-2.6-.2 0-1.2 1-2.3 2.2zM248 210.4c.7.7 1.3.7 2 0 .6-.6.3-1-1-1s-1.6.4-1 1zm-9.5 12.6c1 1.1 2 2 2.3 2 .3 0-.3-.9-1.3-2s-2-2-2.3-2c-.3 0 .3.9 1.3 2zm197.9.2-1.9 2.3 2.3-1.9c2.1-1.8 2.7-2.6 1.9-2.6-.2 0-1.2 1-2.3 2.2zM98.5 229c1 1.1 2 2 2.3 2 .3 0-.3-.9-1.3-2s-2-2-2.3-2c-.3 0 .3.9 1.3 2zm331.9.2-1.9 2.3 2.3-1.9c1.2-1.1 2.2-2.1 2.2-2.3 0-.8-.8-.2-2.6 1.9zM112.5 241c1 1.1 2 2 2.3 2 .3 0-.3-.9-1.3-2s-2-2-2.3-2c-.3 0 .3.9 1.3 2zm226 0c1 1.1 2 2 2.3 2 .3 0-.3-.9-1.3-2s-2-2-2.3-2c-.3 0 .3.9 1.3 2zm-102.1 6.2-1.9 2.3 2.3-1.9c2.1-1.8 2.7-2.6 1.9-2.6-.2 0-1.2 1-2.3 2.2zm108.1-.2c1 1.1 2 2 2.3 2 .3 0-.3-.9-1.3-2s-2-2-2.3-2c-.3 0 .3.9 1.3 2zm89.9 6.2-1.9 2.3 2.3-1.9c1.2-1.1 2.2-2.1 2.2-2.3 0-.8-.8-.2-2.6 1.9zm30 0-1.9 2.3 2.3-1.9c1.2-1.1 2.2-2.1 2.2-2.3 0-.8-.8-.2-2.6 1.9zM94.5 259c1 1.1 2 2 2.3 2 .3 0-.3-.9-1.3-2s-2-2-2.3-2c-.3 0 .3.9 1.3 2zm88 0c1 1.1 2 2 2.3 2 .3 0-.3-.9-1.3-2s-2-2-2.3-2c-.3 0 .3.9 1.3 2zm245.9.2-1.9 2.3 2.3-1.9c2.1-1.8 2.7-2.6 1.9-2.6-.2 0-1.2 1-2.3 2.2zM74.5 271c1 1.1 2 2 2.3 2 .3 0-.3-.9-1.3-2s-2-2-2.3-2c-.3 0 .3.9 1.3 2zm12 12c1 1.1 2 2 2.3 2 .3 0-.3-.9-1.3-2s-2-2-2.3-2c-.3 0 .3.9 1.3 2zm355.9.2-1.9 2.3 2.3-1.9c2.1-1.8 2.7-2.6 1.9-2.6-.2 0-1.2 1-2.3 2.2zM150.5 289c1 1.1 2 2 2.3 2 .3 0-.3-.9-1.3-2s-2-2-2.3-2c-.3 0 .3.9 1.3 2zm59.9.2-1.9 2.3 2.3-1.9c2.1-1.8 2.7-2.6 1.9-2.6-.2 0-1.2 1-2.3 2.2zm14.1-.2c1 1.1 2 2 2.3 2 .3 0-.3-.9-1.3-2s-2-2-2.3-2c-.3 0 .3.9 1.3 2zm151.9.2-1.9 2.3 2.3-1.9c2.1-1.8 2.7-2.6 1.9-2.6-.2 0-1.2 1-2.3 2.2zm50 6-1.9 2.3 2.3-1.9c2.1-1.8 2.7-2.6 1.9-2.6-.2 0-1.2 1-2.3 2.2zm15 3.8c0 1.3.4 1.6 1 1 .7-.7.7-1.3 0-2-.6-.6-1-.3-1 1zm-352.9 2c1 1.1 2 2 2.3 2 .3 0-.3-.9-1.3-2s-2-2-2.3-2c-.3 0 .3.9 1.3 2zm24 0c1 1.1 2 2 2.3 2 .3 0-.3-.9-1.3-2s-2-2-2.3-2c-.3 0 .3.9 1.3 2zm76 0c1 1.1 2 2 2.3 2 .3 0-.3-.9-1.3-2s-2-2-2.3-2c-.3 0 .3.9 1.3 2zm15.9.2-1.9 2.3 2.3-1.9c2.1-1.8 2.7-2.6 1.9-2.6-.2 0-1.2 1-2.3 2.2zm116.1-.2c1 1.1 2 2 2.3 2 .3 0-.3-.9-1.3-2s-2-2-2.3-2c-.3 0 .3.9 1.3 2zm11.9.2-1.9 2.3 2.3-1.9c2.1-1.8 2.7-2.6 1.9-2.6-.2 0-1.2 1-2.3 2.2zm80 0-1.9 2.3 2.3-1.9c2.1-1.8 2.7-2.6 1.9-2.6-.2 0-1.2 1-2.3 2.2zm-262 6-1.9 2.3 2.3-1.9c2.1-1.8 2.7-2.6 1.9-2.6-.2 0-1.2 1-2.3 2.2zm6.1 5.8c1 1.1 2 2 2.3 2 .3 0-.3-.9-1.3-2s-2-2-2.3-2c-.3 0 .3.9 1.3 2zm-76 6c1 1.1 2 2 2.3 2 .3 0-.3-.9-1.3-2s-2-2-2.3-2c-.3 0 .3.9 1.3 2zm103.1-1.2c-.2.4.4.8 1.4.8 1 0 1.6-.4 1.4-.8-.3-.4-.9-.8-1.4-.8-.5 0-1.1.4-1.4.8zm157.8.4c-.5.7-.3.8.5.4.7-.5 2.2 0 3.4 1.1l2.2 1.8-1.9-2.3c-2.1-2.5-3.2-2.7-4.2-1zM84.5 325c1 1.1 2 2 2.3 2 .3 0-.3-.9-1.3-2s-2-2-2.3-2c-.3 0 .3.9 1.3 2zm123.9.2-1.9 2.3 2.3-1.9c2.1-1.8 2.7-2.6 1.9-2.6-.2 0-1.2 1-2.3 2.2zm234 0-1.9 2.3 2.3-1.9c2.1-1.8 2.7-2.6 1.9-2.6-.2 0-1.2 1-2.3 2.2zm-34 6-1.9 2.3 2.3-1.9c2.1-1.8 2.7-2.6 1.9-2.6-.2 0-1.2 1-2.3 2.2zm28 0-1.9 2.3 2.3-1.9c2.1-1.8 2.7-2.6 1.9-2.6-.2 0-1.2 1-2.3 2.2zM94.5 337c1 1.1 2 2 2.3 2 .3 0-.3-.9-1.3-2s-2-2-2.3-2c-.3 0 .3.9 1.3 2zm32 0c1 1.1 2 2 2.3 2 .3 0-.3-.9-1.3-2s-2-2-2.3-2c-.3 0 .3.9 1.3 2zm303.9.2-1.9 2.3 2.3-1.9c1.2-1.1 2.2-2.1 2.2-2.3 0-.8-.8-.2-2.6 1.9zM154.5 343c1 1.1 2 2 2.3 2 .3 0-.3-.9-1.3-2s-2-2-2.3-2c-.3 0 .3.9 1.3 2zm188 0c1 1.1 2 2 2.3 2 .3 0-.3-.9-1.3-2s-2-2-2.3-2c-.3 0 .3.9 1.3 2zm-154 6c1 1.1 2 2 2.3 2 .3 0-.3-.9-1.3-2s-2-2-2.3-2c-.3 0 .3.9 1.3 2zm145.9.2-1.9 2.3 2.3-1.9c1.2-1.1 2.2-2.1 2.2-2.3 0-.8-.8-.2-2.6 1.9zm-208.8 4.6c-.2.4.4.8 1.4.8 1 0 1.6-.4 1.4-.8-.3-.4-.9-.8-1.4-.8-.5 0-1.1.4-1.4.8zm172.8 1.4-1.9 2.3 2.3-1.9c2.1-1.8 2.7-2.6 1.9-2.6-.2 0-1.2 1-2.3 2.2zm16.1-.2c1 1.1 2 2 2.3 2 .3 0-.3-.9-1.3-2s-2-2-2.3-2c-.3 0 .3.9 1.3 2zm84 0c1 1.1 2 2 2.3 2 .3 0-.3-.9-1.3-2s-2-2-2.3-2c-.3 0 .3.9 1.3 2zm13.9.2-1.9 2.3 2.3-1.9c2.1-1.8 2.7-2.6 1.9-2.6-.2 0-1.2 1-2.3 2.2zM132.5 361c1 1.1 2 2 2.3 2 .3 0-.3-.9-1.3-2s-2-2-2.3-2c-.3 0 .3.9 1.3 2zm261.9.2-1.9 2.3 2.3-1.9c2.1-1.8 2.7-2.6 1.9-2.6-.2 0-1.2 1-2.3 2.2zm-37.9 5.8c1 1.1 2 2 2.3 2 .3 0-.3-.9-1.3-2s-2-2-2.3-2c-.3 0 .3.9 1.3 2zm-144 18c1 1.1 2 2 2.3 2 .3 0-.3-.9-1.3-2s-2-2-2.3-2c-.3 0 .3.9 1.3 2zm-28 6c1 1.1 2 2 2.3 2 .3 0-.3-.9-1.3-2s-2-2-2.3-2c-.3 0 .3.9 1.3 2zm41.9 18.2-1.9 2.3 2.3-1.9c2.2-1.9 2.2-1.9 4.5 0l2.2 1.9-1.9-2.3c-1.1-1.2-2.2-2.2-2.6-2.2-.4 0-1.5 1-2.6 2.2zm96.1-.2c1 1.1 2 2 2.3 2 .3 0-.3-.9-1.3-2s-2-2-2.3-2c-.3 0 .3.9 1.3 2zm-96.1 24.2-1.9 2.3 2.3-1.9c1.2-1.1 2.2-2.1 2.2-2.3 0-.8-.8-.2-2.6 1.9zm6.1-.2c1 1.1 2 2 2.3 2 .3 0-.3-.9-1.3-2s-2-2-2.3-2c-.3 0 .3.9 1.3 2zm66 0c1 1.1 2 2 2.3 2 .3 0-.3-.9-1.3-2s-2-2-2.3-2c-.3 0 .3.9 1.3 2zm-70 30c1 1.1 2 2 2.3 2 .3 0-.3-.9-1.3-2s-2-2-2.3-2c-.3 0 .3.9 1.3 2zm57.9 6.2-1.9 2.3 2.3-1.9c2.1-1.8 2.7-2.6 1.9-2.6-.2 0-1.2 1-2.3 2.2zm12.1 5.8c1 1.1 2 2 2.3 2 .3 0-.3-.9-1.3-2s-2-2-2.3-2c-.3 0 .3.9 1.3 2zm-8.1 18.2-1.9 2.3 2.3-1.9c2.1-1.8 2.7-2.6 1.9-2.6-.2 0-1.2 1-2.3 2.2zm-12 24-1.9 2.3 2.3-1.9c2.1-1.8 2.7-2.6 1.9-2.6-.2 0-1.2 1-2.3 2.2zm-64 24-1.9 2.3 2.3-1.9c2.1-1.8 2.7-2.6 1.9-2.6-.2 0-1.2 1-2.3 2.2zm30.1-.2c1 1.1 2 2 2.3 2 .3 0-.3-.9-1.3-2s-2-2-2.3-2c-.3 0 .3.9 1.3 2zm4 6c1 1.1 2 2 2.3 2 .3 0-.3-.9-1.3-2s-2-2-2.3-2c-.3 0 .3.9 1.3 2zm-24 6c1 1.1 2 2 2.3 2 .3 0-.3-.9-1.3-2s-2-2-2.3-2c-.3 0 .3.9 1.3 2zm9.9.2-1.9 2.3 2.3-1.9c1.2-1.1 2.2-2.1 2.2-2.3 0-.8-.8-.2-2.6 1.9zm20.1-.2c1 1.1 2 2 2.3 2 .3 0-.3-.9-1.3-2s-2-2-2.3-2c-.3 0 .3.9 1.3 2zm39.9.2-1.9 2.3 2.3-1.9c1.2-1.1 2.2-2.1 2.2-2.3 0-.8-.8-.2-2.6 1.9z" fill="#FFF" fill-opacity=".18"/><path d="M77.4 310.1c-.3.6-.2 1.5.3 2s.9.1.9-1.1c0-2.3-.2-2.4-1.2-.9zM228 356.4c.7.7 1.3.7 2 0 .6-.6.3-1-1-1s-1.6.4-1 1zM343.4 389c0 1.3.4 1.6 1 1 .7-.7.7-1.3 0-2-.6-.6-1-.3-1 1zm-139.8 2.8c-.2.4.4.8 1.4.8 1 0 1.6-.4 1.4-.8-.3-.4-.9-.8-1.4-.8-.5 0-1.1.4-1.4.8z" fill="#FFF" fill-opacity=".01"/><path d="M213.6 343.7c-.6 1.4-.5 1.5.5.6.7-.7 1-1.5.7-1.8-.3-.3-.9.2-1.2 1.2z" fill="#FFF" fill-opacity=".11"/><path d="M106 234.4c.7.7 1.3.7 2 0 .6-.6.3-1-1-1s-1.6.4-1 1zm88 178c.7.7 1.3.7 2 0 .6-.6.3-1-1-1s-1.6.4-1 1z" fill="#FFF" fill-opacity=".02"/><path d="M159.4 99c0 1.3.4 1.6 1 1 .7-.7.7-1.3 0-2-.6-.6-1-.3-1 1zm246 217.1c-.3.6-.2 1.5.3 2s.9.1.9-1.1c0-2.3-.2-2.4-1.2-.9z" fill="#FFF" fill-opacity=".04"/><path d="M113.4 333c0 1.3.4 1.6 1 1 .7-.7.7-1.3 0-2-.6-.6-1-.3-1 1z" fill="#FFF" fill-opacity=".08"/><path d="M250 314.4c.7.7 1.3.7 2 0 .6-.6.3-1-1-1s-1.6.4-1 1z" fill="#FFF" fill-opacity=".09"/><path d="M399 227.4c0 .2.8 1 1.8 1.7 1.5 1.3 1.6 1.2.3-.4s-2.1-2.1-2.1-1.3zm-298.1 55.3c-1.3 1.6-1.2 1.7.4.4.9-.7 1.7-1.5 1.7-1.7 0-.8-.8-.3-2.1 1.3zm200 12c-1.3 1.6-1.2 1.7.4.4 1.6-1.3 2.1-2.1 1.3-2.1-.2 0-1 .8-1.7 1.7zm-6 6c-1.3 1.6-1.2 1.7.4.4 1.6-1.3 2.1-2.1 1.3-2.1-.2 0-1 .8-1.7 1.7zM103 317.4c0 .2.8 1 1.8 1.7 1.5 1.3 1.6 1.2.3-.4s-2.1-2.1-2.1-1.3z" fill="#FFF" fill-opacity=".38"/><path d="M230 556.4c.7.7 1.3.7 2 0 .6-.6.3-1-1-1s-1.6.4-1 1z" fill="#FFF" fill-opacity=".13"/></svg>