<svg version="1.0" xmlns="http://www.w3.org/2000/svg" viewBox="0 0 644 746"><path d="M248.8 76.7c.6.2 1.8.2 2.5 0 .6-.3.1-.5-1.3-.5-1.4 0-1.9.2-1.2.5zm187 40c.7.3 1.6.2 1.9-.1.4-.3-.2-.6-1.3-.5-1.1 0-1.4.3-.6.6zm-229 8c.7.3 1.6.2 1.9-.1.4-.3-.2-.6-1.3-.5-1.1 0-1.4.3-.6.6zm243.5 0c.9.2 2.3.2 3 0 .6-.3-.1-.5-1.8-.5-1.6 0-2.2.2-1.2.5zm-251.5 4c.7.3 1.6.2 1.9-.1.4-.3-.2-.6-1.3-.5-1.1 0-1.4.3-.6.6zm261 0c.7.3 1.6.2 1.9-.1.4-.3-.2-.6-1.3-.5-1.1 0-1.4.3-.6.6zm-265 2c.7.3 1.6.2 1.9-.1.4-.3-.2-.6-1.3-.5-1.1 0-1.4.3-.6.6zm270 0c1.2.2 3 .2 4 0 .9-.3-.1-.5-2.3-.4-2.2 0-3 .2-1.7.4zm-281.5 4c.9.2 2.3.2 3 0 .6-.3-.1-.5-1.8-.5-1.6 0-2.2.2-1.2.5zm297.5 0c1.2.2 3 .2 4 0 .9-.3-.1-.5-2.3-.4-2.2 0-3 .2-1.7.4zm-303.5 2c.9.2 2.3.2 3 0 .6-.3-.1-.5-1.8-.5-1.6 0-2.2.2-1.2.5zm311 0c.9.2 2.3.2 3 0 .6-.3-.1-.5-1.8-.5-1.6 0-2.2.2-1.2.5zm-323 4c.9.2 2.3.2 3 0 .6-.3-.1-.5-1.8-.5-1.6 0-2.2.2-1.2.5zm333 0c.9.2 2.3.2 3 0 .6-.3-.1-.5-1.8-.5-1.6 0-2.2.2-1.2.5zm-339 2c.9.2 2.3.2 3 0 .6-.3-.1-.5-1.8-.5-1.6 0-2.2.2-1.2.5zm344.5 0c.7.3 1.6.2 1.9-.1.4-.3-.2-.6-1.3-.5-1.1 0-1.4.3-.6.6zm-355 4c.7.3 1.6.2 1.9-.1.4-.3-.2-.6-1.3-.5-1.1 0-1.4.3-.6.6zm301 0c.7.3 1.6.2 1.9-.1.4-.3-.2-.6-1.3-.5-1.1 0-1.4.3-.6.6zm62 0c.7.3 1.6.2 1.9-.1.4-.3-.2-.6-1.3-.5-1.1 0-1.4.3-.6.6zm-367 2c.7.3 1.6.2 1.9-.1.4-.3-.2-.6-1.3-.5-1.1 0-1.4.3-.6.6zm309 0c.7.3 1.6.2 1.9-.1.4-.3-.2-.6-1.3-.5-1.1 0-1.4.3-.6.6zm62 0c.7.3 1.6.2 1.9-.1.4-.3-.2-.6-1.3-.5-1.1 0-1.4.3-.6.6zm-381 4c.7.3 1.6.2 1.9-.1.4-.3-.2-.6-1.3-.5-1.1 0-1.4.3-.6.6zm327 0c.7.3 1.6.2 1.9-.1.4-.3-.2-.6-1.3-.5-1.1 0-1.4.3-.6.6zm62 0c.7.3 1.6.2 1.9-.1.4-.3-.2-.6-1.3-.5-1.1 0-1.4.3-.6.6zm-393 2c.7.3 1.6.2 1.9-.1.4-.3-.2-.6-1.3-.5-1.1 0-1.4.3-.6.6zm335 0c.7.3 1.6.2 1.9-.1.4-.3-.2-.6-1.3-.5-1.1 0-1.4.3-.6.6zm62 0c.7.3 1.6.2 1.9-.1.4-.3-.2-.6-1.3-.5-1.1 0-1.4.3-.6.6zm-337 4c.7.3 1.6.2 1.9-.1.4-.3-.2-.6-1.3-.5-1.1 0-1.4.3-.6.6zm285 0c.7.3 1.6.2 1.9-.1.4-.3-.2-.6-1.3-.5-1.1 0-1.4.3-.6.6zm58 0c.7.3 1.6.2 1.9-.1.4-.3-.2-.6-1.3-.5-1.1 0-1.4.3-.6.6zm-347 2c.7.3 1.6.2 1.9-.1.4-.3-.2-.6-1.3-.5-1.1 0-1.4.3-.6.6zm293 0c.7.3 1.6.2 1.9-.1.4-.3-.2-.6-1.3-.5-1.1 0-1.4.3-.6.6zm58 0c.7.3 1.6.2 1.9-.1.4-.3-.2-.6-1.3-.5-1.1 0-1.4.3-.6.6zM177.5 164c-1.3.6-1.5.9-.5.9.8 0 2.2-.4 3-.9 1.8-1.2.2-1.2-2.5 0zm-64.7.7c.7.3 1.6.2 1.9-.1.4-.3-.2-.6-1.3-.5-1.1 0-1.4.3-.6.6zm375 0c.7.3 1.6.2 1.9-.1.4-.3-.2-.6-1.3-.5-1.1 0-1.4.3-.6.6zm56 0c.7.3 1.6.2 1.9-.1.4-.3-.2-.6-1.3-.5-1.1 0-1.4.3-.6.6zm-371 2c.7.3 1.6.2 1.9-.1.4-.3-.2-.6-1.3-.5-1.1 0-1.4.3-.6.6zm319 0c.7.3 1.6.2 1.9-.1.4-.3-.2-.6-1.3-.5-1.1 0-1.4.3-.6.6zm-387 4c.7.3 1.6.2 1.9-.1.4-.3-.2-.6-1.3-.5-1.1 0-1.4.3-.6.6zm62 0c.7.3 1.6.2 1.9-.1.4-.3-.2-.6-1.3-.5-1.1 0-1.4.3-.6.6zm333 0c.7.3 1.6.2 1.9-.1.4-.3-.2-.6-1.3-.5-1.1 0-1.4.3-.6.6zm-337 2c.7.3 1.6.2 1.9-.1.4-.3-.2-.6-1.3-.5-1.1 0-1.4.3-.6.6zm-66 4c.7.3 1.6.2 1.9-.1.4-.3-.2-.6-1.3-.5-1.1 0-1.4.3-.6.6zm60 0c.7.3 1.6.2 1.9-.1.4-.3-.2-.6-1.3-.5-1.1 0-1.4.3-.6.6zM300.5 236l-13 .6 12.7.2c7.6.1 12.9-.2 13.3-.8.3-.6.5-.9.3-.8-.2.1-6.1.5-13.3.8zm77.3.7c1.8.2 4.5.2 6 0s0-.4-3.3-.4-4.5.2-2.7.4zm11.1 1.6c.5.5 2.4.7 4.2.5 3.3-.3 3.3-.4-.8-.8-2.3-.3-3.9-.2-3.4.3zm-183.6.4c2 .2 5.4.2 7.5 0 2-.2.3-.4-3.8-.4s-5.8.2-3.7.4zm70.5 0c2.3.2 5.9.2 8 0 2-.2.1-.4-4.3-.4-4.4 0-6.1.2-3.7.4zm205 0c.7.3 1.6.2 1.9-.1.4-.3-.2-.6-1.3-.5-1.1 0-1.4.3-.6.6zm-299.5 4c2.6.2 6.8.2 9.5 0 2.6-.2.4-.3-4.8-.3s-7.4.1-4.7.3zm74 0c.9.2 2.3.2 3 0 .6-.3-.1-.5-1.8-.5-1.6 0-2.2.2-1.2.5zm149 0c.9.2 2.3.2 3 0 .6-.3-.1-.5-1.8-.5-1.6 0-2.2.2-1.2.5zm38.5 0c.7.3 1.6.2 1.9-.1.4-.3-.2-.6-1.3-.5-1.1 0-1.4.3-.6.6zm23 0c1.7.2 4.7.2 6.5 0 1.7-.2.3-.4-3.3-.4-3.6 0-5 .2-3.2.4zm-215 2c.7.3 1.6.2 1.9-.1.4-.3-.2-.6-1.3-.5-1.1 0-1.4.3-.6.6zm112 10c.6.2 1.8.2 2.5 0 .6-.3.1-.5-1.3-.5-1.4 0-1.9.2-1.2.5zm-128.5 2c1.5.2 3.7.2 5 0 1.2-.2 0-.4-2.8-.4-2.7 0-3.8.2-2.2.4zm196 4c.9.2 2.3.2 3 0 .6-.3-.1-.5-1.8-.5-1.6 0-2.2.2-1.2.5zm-118 8c6.4.2 17 .2 23.5 0 6.4-.1 1.1-.3-11.8-.3s-18.2.2-11.7.3zm232.5 10c.7.3 1.6.2 1.9-.1.4-.3-.2-.6-1.3-.5-1.1 0-1.4.3-.6.6zm-10 6c.7.3 1.6.2 1.9-.1.4-.3-.2-.6-1.3-.5-1.1 0-1.4.3-.6.6zm-10 6c.7.3 1.6.2 1.9-.1.4-.3-.2-.6-1.3-.5-1.1 0-1.4.3-.6.6zm-395 2c.7.3 1.6.2 1.9-.1.4-.3-.2-.6-1.3-.5-1.1 0-1.4.3-.6.6zm10 6c.7.3 1.6.2 1.9-.1.4-.3-.2-.6-1.3-.5-1.1 0-1.4.3-.6.6zm369.5 0c.9.2 2.3.2 3 0 .6-.3-.1-.5-1.8-.5-1.6 0-2.2.2-1.2.5zm-359.5 4c.7.3 1.6.2 1.9-.1.4-.3-.2-.6-1.3-.5-1.1 0-1.4.3-.6.6zm351 0c.7.3 1.6.2 1.9-.1.4-.3-.2-.6-1.3-.5-1.1 0-1.4.3-.6.6zm-346 2c1.2.2 3 .2 4 0 .9-.3-.1-.5-2.3-.4-2.2 0-3 .2-1.7.4zm30 0c.7.3 1.6.2 1.9-.1.4-.3-.2-.6-1.3-.5-1.1 0-1.4.3-.6.6zm291 0c.7.3 1.6.2 1.9-.1.4-.3-.2-.6-1.3-.5-1.1 0-1.4.3-.6.6zm17.5 0c.9.2 2.3.2 3 0 .6-.3-.1-.5-1.8-.5-1.6 0-2.2.2-1.2.5zm-323.5 4c1.7.2 4.7.2 6.5 0 1.7-.2.3-.4-3.3-.4-3.6 0-5 .2-3.2.4zm85 2c.6.2 1.8.2 2.5 0 .6-.3.1-.5-1.3-.5-1.4 0-1.9.2-1.2.5zm148 0c.6.2 1.8.2 2.5 0 .6-.3.1-.5-1.3-.5-1.4 0-1.9.2-1.2.5zm-175 4c.7.3 1.6.2 1.9-.1.4-.3-.2-.6-1.3-.5-1.1 0-1.4.3-.6.6zm203 0c.7.3 1.6.2 1.9-.1.4-.3-.2-.6-1.3-.5-1.1 0-1.4.3-.6.6zm-199 2c.7.3 1.6.2 1.9-.1.4-.3-.2-.6-1.3-.5-1.1 0-1.4.3-.6.6zm-21 12c.7.3 1.6.2 1.9-.1.4-.3-.2-.6-1.3-.5-1.1 0-1.4.3-.6.6zm239 0c.7.3 1.6.2 1.9-.1.4-.3-.2-.6-1.3-.5-1.1 0-1.4.3-.6.6zm-210 4c.7.3 1.6.2 1.9-.1.4-.3-.2-.6-1.3-.5-1.1 0-1.4.3-.6.6zm45 6c.6.2 1.8.2 2.5 0 .6-.3.1-.5-1.3-.5-1.4 0-1.9.2-1.2.5zm89 2c1.2.2 3.2.2 4.5 0 1.2-.2.2-.4-2.3-.4s-3.5.2-2.2.4zm-138 22c.7.3 1.6.2 1.9-.1.4-.3-.2-.6-1.3-.5-1.1 0-1.4.3-.6.6zm8 6c.7.3 1.6.2 1.9-.1.4-.3-.2-.6-1.3-.5-1.1 0-1.4.3-.6.6zm169 0c.7.3 1.6.2 1.9-.1.4-.3-.2-.6-1.3-.5-1.1 0-1.4.3-.6.6zm-10.5 2c1.5.2 3.7.2 5 0 1.2-.2 0-.4-2.8-.4-2.7 0-3.8.2-2.2.4zm-77.5 18c.7.3 1.6.2 1.9-.1.4-.3-.2-.6-1.3-.5-1.1 0-1.4.3-.6.6zm9.5 0c.9.2 2.3.2 3 0 .6-.3-.1-.5-1.8-.5-1.6 0-2.2.2-1.2.5zm-28.5 22c.7.3 1.6.2 1.9-.1.4-.3-.2-.6-1.3-.5-1.1 0-1.4.3-.6.6zm56 6c1.2.2 3.2.2 4.5 0 1.2-.2.2-.4-2.3-.4s-3.5.2-2.2.4zm-125 12c.7.3 1.6.2 1.9-.1.4-.3-.2-.6-1.3-.5-1.1 0-1.4.3-.6.6zm26 2c1.2.2 3 .2 4 0 .9-.3-.1-.5-2.3-.4-2.2 0-3 .2-1.7.4zm133 0c1.2.2 3.2.2 4.5 0 1.2-.2.2-.4-2.3-.4s-3.5.2-2.2.4zm10.5 4c1.5.2 3.9.2 5.5 0 1.5-.2.2-.4-2.8-.4s-4.3.2-2.7.4zm10 2c.9.2 2.5.2 3.5 0 .9-.3.1-.5-1.8-.5-1.9 0-2.7.2-1.7.5zm-166.5 6c.7.3 1.6.2 1.9-.1.4-.3-.2-.6-1.3-.5-1.1 0-1.4.3-.6.6zm157.5 0c.9.2 2.3.2 3 0 .6-.3-.1-.5-1.8-.5-1.6 0-2.2.2-1.2.5zm-137.5 66c.7.3 1.6.2 1.9-.1.4-.3-.2-.6-1.3-.5-1.1 0-1.4.3-.6.6zm102 16c.7.3 1.6.2 1.9-.1.4-.3-.2-.6-1.3-.5-1.1 0-1.4.3-.6.6zm-72 8c.7.3 1.6.2 1.9-.1.4-.3-.2-.6-1.3-.5-1.1 0-1.4.3-.6.6zm22 28c.7.3 1.6.2 1.9-.1.4-.3-.2-.6-1.3-.5-1.1 0-1.4.3-.6.6zm27.5 104c1.5.2 3.9.2 5.5 0 1.5-.2.2-.4-2.8-.4s-4.3.2-2.7.4z" fill="none"/><path d="M221.9 138.7c-1.3 1.6-1.2 1.7.4.4.9-.7 1.7-1.5 1.7-1.7 0-.8-.8-.3-2.1 1.3zM234 431.4c0 .2.8 1 1.8 1.7 1.5 1.3 1.6 1.2.3-.4s-2.1-2.1-2.1-1.3z" fill="#FFF" fill-opacity=".06"/><path d="M413.5 82c1 1.1 2 2 2.3 2 .3 0-.3-.9-1.3-2s-2-2-2.3-2c-.3 0 .3.9 1.3 2zm-172.6 6.7c-1.3 1.6-1.2 1.7.4.4.9-.7 1.7-1.5 1.7-1.7 0-.8-.8-.3-2.1 1.3zm-4 6c-1.3 1.6-1.2 1.7.4.4.9-.7 1.7-1.5 1.7-1.7 0-.8-.8-.3-2.1 1.3zm-8 12c-1.3 1.6-1.2 1.7.4.4.9-.7 1.7-1.5 1.7-1.7 0-.8-.8-.3-2.1 1.3zm-12 12c-1.3 1.6-1.2 1.7.4.4 1.6-1.3 2.1-2.1 1.3-2.1-.2 0-1 .8-1.7 1.7zm2.5 23.5-1.9 2.3 2.3-1.9c1.2-1.1 2.2-2.1 2.2-2.3 0-.8-.8-.2-2.6 1.9zm218.6-1.8c0 .2.8 1 1.8 1.7 1.5 1.3 1.6 1.2.3-.4s-2.1-2.1-2.1-1.3zm-226.6 7.8-1.9 2.3 2.3-1.9c1.2-1.1 2.2-2.1 2.2-2.3 0-.8-.8-.2-2.6 1.9zM545 165.4c0 .2.8 1 1.8 1.7 1.5 1.3 1.6 1.2.3-.4s-2.1-2.1-2.1-1.3zm-44 6c0 .2.8 1 1.8 1.7 1.5 1.3 1.6 1.2.3-.4s-2.1-2.1-2.1-1.3zm6.5 6.6c1 1.1 2 2 2.3 2 .3 0-.3-.9-1.3-2s-2-2-2.3-2c-.3 0 .3.9 1.3 2zm-412.6.7c-1.3 1.6-1.2 1.7.4.4 1.6-1.3 2.1-2.1 1.3-2.1-.2 0-1 .8-1.7 1.7zm462.1-1.3c0 .2.8 1 1.8 1.7 1.5 1.3 1.6 1.2.3-.4s-2.1-2.1-2.1-1.3zm-467.6 6.8-1.9 2.3 2.3-1.9c2.1-1.8 2.7-2.6 1.9-2.6-.2 0-1.2 1-2.3 2.2zm58 0-1.9 2.3 2.3-1.9c2.1-1.8 2.7-2.6 1.9-2.6-.2 0-1.2 1-2.3 2.2zm366.1-.2c1 1.1 2 2 2.3 2 .3 0-.3-.9-1.3-2s-2-2-2.3-2c-.3 0 .3.9 1.3 2zm48.5-1.6c0 .2.8 1 1.8 1.7 1.5 1.3 1.6 1.2.3-.4s-2.1-2.1-2.1-1.3zm-419.1 8.3c-1.3 1.6-1.2 1.7.4.4.9-.7 1.7-1.5 1.7-1.7 0-.8-.8-.3-2.1 1.3zm358 30c-1.3 1.6-1.2 1.7.4.4.9-.7 1.7-1.5 1.7-1.7 0-.8-.8-.3-2.1 1.3zm-4 6c-1.3 1.6-1.2 1.7.4.4 1.6-1.3 2.1-2.1 1.3-2.1-.2 0-1 .8-1.7 1.7zm-5.5 5.5-1.9 2.3 2.3-1.9c2.1-1.8 2.7-2.6 1.9-2.6-.2 0-1.2 1-2.3 2.2zm-326.4-.8c0 .2.8 1 1.8 1.7 1.5 1.3 1.6 1.2.3-.4s-2.1-2.1-2.1-1.3zm2 5.5c0 .6.4 1.3 1 1.6.6.3.7-.1.4-.9-.7-1.8-1.4-2.1-1.4-.7zM415.5 250c1 1.1 2 2 2.3 2 .3 0-.3-.9-1.3-2s-2-2-2.3-2c-.3 0 .3.9 1.3 2zm-173.6 5.7c-1.3 1.6-1.2 1.7.4.4.9-.7 1.7-1.5 1.7-1.7 0-.8-.8-.3-2.1 1.3zm179.6.3c1 1.1 2 2 2.3 2 .3 0-.3-.9-1.3-2s-2-2-2.3-2c-.3 0 .3.9 1.3 2zm-132.5-.6c0 .2.8 1 1.8 1.7 1.5 1.3 1.6 1.2.3-.4s-2.1-2.1-2.1-1.3zm71.9 1.3c-1.3 1.6-1.2 1.7.4.4 1.6-1.3 2.1-2.1 1.3-2.1-.2 0-1 .8-1.7 1.7zm-133.5 5.5-1.9 2.3 2.3-1.9c2.1-1.8 2.7-2.6 1.9-2.6-.2 0-1.2 1-2.3 2.2zm65.6-.8c0 .2.8 1 1.8 1.7 1.5 1.3 1.6 1.2.3-.4s-2.1-2.1-2.1-1.3zm140 0c0 .2.8 1 1.8 1.7 1.5 1.3 1.6 1.2.3-.4s-2.1-2.1-2.1-1.3zm124.9 6.3c-1.3 1.6-1.2 1.7.4.4.9-.7 1.7-1.5 1.7-1.7 0-.8-.8-.3-2.1 1.3zM107 273.4c0 .2.8 1 1.8 1.7 1.5 1.3 1.6 1.2.3-.4s-2.1-2.1-2.1-1.3zm443.9 1.3c-1.3 1.6-1.2 1.7.4.4.9-.7 1.7-1.5 1.7-1.7 0-.8-.8-.3-2.1 1.3zM113.5 280c1 1.1 2 2 2.3 2 .3 0-.3-.9-1.3-2s-2-2-2.3-2c-.3 0 .3.9 1.3 2zm429.4.7c-1.3 1.6-1.2 1.7.4.4.9-.7 1.7-1.5 1.7-1.7 0-.8-.8-.3-2.1 1.3zM118 284.4c0 .2.8 1 1.8 1.7 1.5 1.3 1.6 1.2.3-.4s-2.1-2.1-2.1-1.3zm8 6c0 .2.8 1 1.8 1.7 1.5 1.3 1.6 1.2.3-.4s-2.1-2.1-2.1-1.3zm346 12c0 .2.8 1 1.8 1.7 1.5 1.3 1.6 1.2.3-.4s-2.1-2.1-2.1-1.3zm-43.1 14.3c-1.3 1.6-1.2 1.7.4.4 1.6-1.3 2.1-2.1 1.3-2.1-.2 0-1 .8-1.7 1.7zm-215.3 11c-.6 1.4-.5 1.5.5.6.7-.7 1-1.5.7-1.8-.3-.3-.9.2-1.2 1.2zm-8.2 6.5-1.9 2.3 2.3-1.9c2.1-1.8 2.7-2.6 1.9-2.6-.2 0-1.2 1-2.3 2.2zm250.1-.2c1 1.1 2 2 2.3 2 .3 0-.3-.9-1.3-2s-2-2-2.3-2c-.3 0 .3.9 1.3 2zm-214.5-.6c0 .2.8 1 1.8 1.7 1.5 1.3 1.6 1.2.3-.4s-2.1-2.1-2.1-1.3zm46 6c0 .2.8 1 1.8 1.7 1.5 1.3 1.6 1.2.3-.4s-2.1-2.1-2.1-1.3zm146.4 12.8-1.9 2.3 2.3-1.9c2.1-1.8 2.7-2.6 1.9-2.6-.2 0-1.2 1-2.3 2.2zm-212.5.5c-1.3 1.6-1.2 1.7.4.4.9-.7 1.7-1.5 1.7-1.7 0-.8-.8-.3-2.1 1.3zm206.5 5.5-1.9 2.3 2.3-1.9c2.1-1.8 2.7-2.6 1.9-2.6-.2 0-1.2 1-2.3 2.2zm-40.4-.8c0 .2.8 1 1.8 1.7 1.5 1.3 1.6 1.2.3-.4s-2.1-2.1-2.1-1.3zm-142 12c0 .2.8 1 1.8 1.7 1.5 1.3 1.6 1.2.3-.4s-2.1-2.1-2.1-1.3zm74.9 24.3c-1.3 1.6-1.2 1.7.4.4 1.6-1.3 2.1-2.1 1.3-2.1-.2 0-1 .8-1.7 1.7zm47.5.5-1.9 2.3 2.3-1.9c1.2-1.1 2.2-2.1 2.2-2.3 0-.8-.8-.2-2.6 1.9zm-6 6-1.9 2.3 2.3-1.9c2.1-1.8 2.7-2.6 1.9-2.6-.2 0-1.2 1-2.3 2.2zm-62.5 18.5c-1.3 1.6-1.2 1.7.4.4.9-.7 1.7-1.5 1.7-1.7 0-.8-.8-.3-2.1 1.3zm68.1-1.3c0 .2.8 1 1.8 1.7 1.5 1.3 1.6 1.2.3-.4s-2.1-2.1-2.1-1.3zm-72.1 7.3c-1.3 1.6-1.2 1.7.4.4 1.6-1.3 2.1-2.1 1.3-2.1-.2 0-1 .8-1.7 1.7zm-63.4 5.3c1 1.1 2 2 2.3 2 .3 0-.3-.9-1.3-2s-2-2-2.3-2c-.3 0 .3.9 1.3 2zm10-1.1c-.3.5-.2 1.2.3 1.5.5.3.9-.1.9-.9 0-1.7-.3-1.9-1.2-.6zm187.4 1.8c-1.3 1.6-1.2 1.7.4.4 1.6-1.3 2.1-2.1 1.3-2.1-.2 0-1 .8-1.7 1.7zM246 440.4c0 .2.8 1 1.8 1.7 1.5 1.3 1.6 1.2.3-.4s-2.1-2.1-2.1-1.3zm9.5 7.6c1 1.1 2 2 2.3 2 .3 0-.3-.9-1.3-2s-2-2-2.3-2c-.3 0 .3.9 1.3 2zm20 66c1 1.1 2 2 2.3 2 .3 0-.3-.9-1.3-2s-2-2-2.3-2c-.3 0 .3.9 1.3 2zm8 6c1 1.1 2 2 2.3 2 .3 0-.3-.9-1.3-2s-2-2-2.3-2c-.3 0 .3.9 1.3 2zm6 6c1 1.1 2 2 2.3 2 .3 0-.3-.9-1.3-2s-2-2-2.3-2c-.3 0 .3.9 1.3 2zm-14 12c1 1.1 2 2 2.3 2 .3 0-.3-.9-1.3-2s-2-2-2.3-2c-.3 0 .3.9 1.3 2zm40 18c1 1.1 2 2 2.3 2 .3 0-.3-.9-1.3-2s-2-2-2.3-2c-.3 0 .3.9 1.3 2zm29.9.2-1.9 2.3 2.3-1.9c1.2-1.1 2.2-2.1 2.2-2.3 0-.8-.8-.2-2.6 1.9zm6.1 59.8c1 1.1 2 2 2.3 2 .3 0-.3-.9-1.3-2s-2-2-2.3-2c-.3 0 .3.9 1.3 2zM306 626.4c0 .2.8 1 1.8 1.7 1.5 1.3 1.6 1.2.3-.4s-2.1-2.1-2.1-1.3zM283.5 646c1 1.1 2 2 2.3 2 .3 0-.3-.9-1.3-2s-2-2-2.3-2c-.3 0 .3.9 1.3 2zm93.4.7c-1.3 1.6-1.2 1.7.4.4.9-.7 1.7-1.5 1.7-1.7 0-.8-.8-.3-2.1 1.3zm-4 6c-1.3 1.6-1.2 1.7.4.4 1.6-1.3 2.1-2.1 1.3-2.1-.2 0-1 .8-1.7 1.7zm-79.4 5.3c1 1.1 2 2 2.3 2 .3 0-.3-.9-1.3-2s-2-2-2.3-2c-.3 0 .3.9 1.3 2zm23.9.2-1.9 2.3 2.3-1.9c2.1-1.8 2.7-2.6 1.9-2.6-.2 0-1.2 1-2.3 2.2zm50 0-1.9 2.3 2.3-1.9c2.1-1.8 2.7-2.6 1.9-2.6-.2 0-1.2 1-2.3 2.2zm-28.4-.8c0 .2.8 1 1.8 1.7 1.5 1.3 1.6 1.2.3-.4s-2.1-2.1-2.1-1.3zm5 5c0 .2.8 1 1.8 1.7 1.5 1.3 1.6 1.2.3-.4s-2.1-2.1-2.1-1.3zm-31.1 2.3c-1.3 1.6-1.2 1.7.4.4.9-.7 1.7-1.5 1.7-1.7 0-.8-.8-.3-2.1 1.3z" fill="#FFF" fill-opacity=".19"/><path d="M449.8 125.7c.6.2 1.8.2 2.5 0 .6-.3.1-.5-1.3-.5-1.4 0-1.9.2-1.2.5zm14.5 6c.9.2 2.5.2 3.5 0 .9-.3.1-.5-1.8-.5-1.9 0-2.7.2-1.7.5zm-280.5 4c.6.2 1.8.2 2.5 0 .6-.3.1-.5-1.3-.5-1.4 0-1.9.2-1.2.5zm296 0c.6.2 1.8.2 2.5 0 .6-.3.1-.5-1.3-.5-1.4 0-1.9.2-1.2.5zm-302 2c.6.2 1.8.2 2.5 0 .6-.3.1-.5-1.3-.5-1.4 0-1.9.2-1.2.5zm-12 4c.6.2 1.8.2 2.5 0 .6-.3.1-.5-1.3-.5-1.4 0-1.9.2-1.2.5zm332 0c.6.2 1.8.2 2.5 0 .6-.3.1-.5-1.3-.5-1.4 0-1.9.2-1.2.5zm-338 2c.6.2 1.8.2 2.5 0 .6-.3.1-.5-1.3-.5-1.4 0-1.9.2-1.2.5zm135 94c3.4.2 9 .2 12.5 0 3.4-.2.6-.3-6.3-.3-6.9 0-9.7.1-6.2.3zm82.5 0c1.5.2 3.9.2 5.5 0 1.5-.2.2-.4-2.8-.4s-4.3.2-2.7.4zm-171.5 2c1.7.2 4.7.2 6.5 0 1.7-.2.3-.4-3.3-.4-3.6 0-5 .2-3.2.4zm70.5 0c2 .2 5.4.2 7.5 0 2-.2.3-.4-3.8-.4s-5.8.2-3.7.4zm114 0c.9.2 2.5.2 3.5 0 .9-.3.1-.5-1.8-.5-1.9 0-2.7.2-1.7.5zm-209 4c2.6.2 6.8.2 9.5 0 2.6-.2.4-.3-4.8-.3s-7.4.1-4.7.3zm74.5 0c.6.2 1.8.2 2.5 0 .6-.3.1-.5-1.3-.5-1.4 0-1.9.2-1.2.5zm148 0c.6.2 1.8.2 2.5 0 .6-.3.1-.5-1.3-.5-1.4 0-1.9.2-1.2.5zm62 0c1.7.2 4.7.2 6.5 0 1.7-.2.3-.4-3.3-.4-3.6 0-5 .2-3.2.4zm-229.5 14c.9.2 2.5.2 3.5 0 .9-.3.1-.5-1.8-.5-1.9 0-2.7.2-1.7.5zm193.5 4c.6.2 1.8.2 2.5 0 .6-.3.1-.5-1.3-.5-1.4 0-1.9.2-1.2.5zm-117.5 8c6.4.2 17 .2 23.5 0 6.4-.1 1.1-.3-11.8-.3s-18.2.2-11.7.3zm197.5 30c.6.2 1.8.2 2.5 0 .6-.3.1-.5-1.3-.5-1.4 0-1.9.2-1.2.5zm-355.5 6c.9.2 2.5.2 3.5 0 .9-.3.1-.5-1.8-.5-1.9 0-2.7.2-1.7.5zm339.5 0c.6.2 1.8.2 2.5 0 .6-.3.1-.5-1.3-.5-1.4 0-1.9.2-1.2.5zm-324 4c1.7.2 4.7.2 6.5 0 1.7-.2.3-.4-3.3-.4-3.6 0-5 .2-3.2.4zM433 315c-2.4.8-2.3.8.8.9 1.7.1 3.2-.4 3.2-.9 0-1.1-.5-1.1-4 0zm-218 12c0 .5.9 1 2 1s2-.5 2-1c0-.6-.9-1-2-1s-2 .4-2 1zm226 0c0 .5 1.5 1 3.3 1 2.4 0 2.8-.3 1.7-1-2-1.3-5-1.3-5 0zm-202.3 6.1c.7.7 1.5 1 1.8.7.3-.3-.2-.9-1.2-1.2-1.4-.6-1.5-.5-.6.5zm135.6 8.6c.9.2 2.5.2 3.5 0 .9-.3.1-.5-1.8-.5-1.9 0-2.7.2-1.7.5zm28.5 30c1.2.2 3.2.2 4.5 0 1.2-.2.2-.4-2.3-.4s-3.5.2-2.2.4zm-70 17.5c.6.6 1.8.8 2.8.6 1.4-.3 1.2-.5-.9-1-1.9-.3-2.5-.2-1.9.4zm29.5 28.5c.9.2 2.5.2 3.5 0 .9-.3.1-.5-1.8-.5-1.9 0-2.7.2-1.7.5zm-124.5 12c.6.2 1.8.2 2.5 0 .6-.3.1-.5-1.3-.5-1.4 0-1.9.2-1.2.5zm24.5 2c.9.2 2.5.2 3.5 0 .9-.3.1-.5-1.8-.5-1.9 0-2.7.2-1.7.5zm134 0c.9.2 2.5.2 3.5 0 .9-.3.1-.5-1.8-.5-1.9 0-2.7.2-1.7.5zm10.5 4c1.2.2 3.2.2 4.5 0 1.2-.2.2-.4-2.3-.4s-3.5.2-2.2.4zm9.5 2c.9.2 2.5.2 3.5 0 .9-.3.1-.5-1.8-.5-1.9 0-2.7.2-1.7.5zm-8 6c.9.2 2.5.2 3.5 0 .9-.3.1-.5-1.8-.5-1.9 0-2.7.2-1.7.5zm-139.6 65.4c.7.7 1.5 1 1.8.7.3-.3-.2-.9-1.2-1.2-1.4-.6-1.5-.5-.6.5zm80.6 156.6c1.5.2 3.9.2 5.5 0 1.5-.2.2-.4-2.8-.4s-4.3.2-2.7.4z" fill="#FFF" fill-opacity=".25"/><path d="M252 78.4c0 .2.8 1 1.8 1.7 1.5 1.3 1.6 1.2.3-.4s-2.1-2.1-2.1-1.3zm-26.1 31.3c-1.3 1.6-1.2 1.7.4.4.9-.7 1.7-1.5 1.7-1.7 0-.8-.8-.3-2.1 1.3zM426 156.4c0 .2.8 1 1.8 1.7 1.5 1.3 1.6 1.2.3-.4s-2.1-2.1-2.1-1.3zM85.9 187.7c-1.3 1.6-1.2 1.7.4.4 1.6-1.3 2.1-2.1 1.3-2.1-.2 0-1 .8-1.7 1.7zm-4 6c-1.3 1.6-1.2 1.7.4.4 1.6-1.3 2.1-2.1 1.3-2.1-.2 0-1 .8-1.7 1.7zm166 54c-1.3 1.6-1.2 1.7.4.4 1.6-1.3 2.1-2.1 1.3-2.1-.2 0-1 .8-1.7 1.7zm48.1 16.7c0 .2.8 1 1.8 1.7 1.5 1.3 1.6 1.2.3-.4s-2.1-2.1-2.1-1.3zm103.9 49.3c-1.3 1.6-1.2 1.7.4.4 1.6-1.3 2.1-2.1 1.3-2.1-.2 0-1 .8-1.7 1.7zM108 318.4c0 .2.8 1 1.8 1.7 1.5 1.3 1.6 1.2.3-.4s-2.1-2.1-2.1-1.3zm126 0c0 .2.8 1 1.8 1.7 1.5 1.3 1.6 1.2.3-.4s-2.1-2.1-2.1-1.3zm10 18c0 .2.8 1 1.8 1.7 1.5 1.3 1.6 1.2.3-.4s-2.1-2.1-2.1-1.3zm171.9 1.3c-1.3 1.6-1.2 1.7.4.4.9-.7 1.7-1.5 1.7-1.7 0-.8-.8-.3-2.1 1.3zM219 354.9c0 .6.4 1.3 1 1.6.6.3.7-.1.4-.9-.7-1.8-1.4-2.1-1.4-.7zm131 53.5c0 .2.8 1 1.8 1.7 1.5 1.3 1.6 1.2.3-.4s-2.1-2.1-2.1-1.3zm-1 7c0 .2.8 1 1.8 1.7 1.5 1.3 1.6 1.2.3-.4s-2.1-2.1-2.1-1.3zm21 5c0 .2.8 1 1.8 1.7 1.5 1.3 1.6 1.2.3-.4s-2.1-2.1-2.1-1.3zm-109.6 8.8-1.9 2.3 2.3-1.9c1.2-1.1 2.2-2.1 2.2-2.3 0-.8-.8-.2-2.6 1.9zm7.6 3.2c0 .2.8 1 1.8 1.7 1.5 1.3 1.6 1.2.3-.4s-2.1-2.1-2.1-1.3zm85 54.5c0 .6.4 1.3 1 1.6.6.3.7-.1.4-.9-.7-1.8-1.4-2.1-1.4-.7zm-59.1 96.8c-1.3 1.6-1.2 1.7.4.4 1.6-1.3 2.1-2.1 1.3-2.1-.2 0-1 .8-1.7 1.7z" fill="#FFF" fill-opacity=".19"/><g fill="#FFF" stroke-width="0"><path d="M246.8 81.9c-1 2.2-2.9 5.1-4.3 6.5-1.4 1.4-2.5 3.1-2.5 3.8 0 .8-.9 2-2 2.8-1.1.8-2 2.1-2 3 0 .9-.9 2.2-2 3-1.1.8-2 2.1-2 2.8 0 .8-1.3 2.7-3 4.2-1.6 1.5-3 3.4-3 4 0 1.3-3.7 5-5 5-.5 0-2.2 1.3-3.9 2.9-1.8 1.7-4.1 3.3-5.2 3.6-1 .4-1.9 1.1-1.9 1.6s-.9.9-2 .9-2 .4-2 1c0 .5-.9 1-2 1s-2 .4-2 1c0 .5-.9 1-2 1s-2 .4-2 1c0 .5-.9 1-1.9 1-1.1 0-2.3.4-2.6 1-.3.5-1.7 1-3.1 1-1.3 0-2.4.4-2.4 1 0 .5-1.3 1-3 1-1.6 0-3 .4-3 1 0 .5-1.3 1-3 1-1.6 0-3 .4-3 1 0 .5-1.3 1-3 1-1.6 0-3 .4-3 1 0 .5-1.3 1-3 1-1.6 0-3 .4-3 1 0 .5-1.3 1-3 1-1.6 0-3 .4-3 1 0 .5-1.3 1-3 1-1.6 0-3 .4-3 1 0 .5-.9 1-2 1s-2 .4-2 1c0 .5-.9 1-1.9 1-1.1 0-2.3.4-2.6 1-.3.5-1.7 1-3.1 1-1.3 0-2.4.4-2.4 1 0 .5-.9 1-2 1s-2 .4-2 1c0 .5-.9 1-2 1s-2 .4-2 1c0 .5-.9 1-2 1s-2 .4-2 .9-1.3 1.4-3 2.1c-1.6.7-3 1.6-3 2.1s-.9.9-2 .9-2 .4-2 1c0 .5-.6 1-1.4 1-.7 0-2.7 1.3-4.4 3-1.8 1.6-3.6 3-4 3-.5 0-2.3 1.3-4 3-1.8 1.6-3.6 3-4.2 3-1.5 0-12 10.7-12 12.3 0 .7-.9 1.9-2 2.7-1.1.8-2 2.2-2 3.2s-.4 1.8-1 1.8c-.5 0-1 .9-1 2s-.4 2-1 2c-.5 0-1 .9-1 2s-.4 2-1 2c-.5 0-1 .9-1 2s-.4 2-1 2c-.5 0-1 .9-1 2s-.4 2-1 2c-.5 0-1 1.8-1 4s-.4 4-1 4-1 2.6-1 5.9c0 3.3-.4 6.3-1 6.6-1.3.8-1.3 13.2 0 14 .6.3 1 4 1 8.1 0 4.3.4 7.4 1 7.4s1 1.8 1 4 .5 4 1 4c.6 0 1 1.3 1 3 0 1.6.5 3 1 3 .6 0 1 1 1 2.2 0 1.3.9 3.4 2 4.8s2 3.1 2 3.7c0 .7.5 1.3 1 1.3.6 0 1 .7 1 1.5 0 1.7 22.4 24.5 24.1 24.5.6 0 2.4 1.3 3.9 3 1.5 1.6 3.3 3 3.9 3 .7 0 2.1.9 3.3 2 1.2 1.1 2.8 2 3.5 2 .7 0 1.3.4 1.3 1 0 .5.9 1 2 1s2 .4 2 1c0 .5.9 1 2 1s2 .4 2 1c0 .5.9 1 2 1s2 .4 2 1c0 .5 1.4 1 3 1 1.7 0 3 .4 3 1 0 .5 1.4 1 3 1 1.7 0 3 .4 3 1 0 .5 1.4 1 3 1 1.7 0 3 .4 3 1 0 .5 1.8 1 4 1s4 .4 4 1c0 .5 1.8 1 4 1s4 .4 4 1 3.7 1 9 1 9-.4 9-1 .6-1 1.3-1c1.8 0 6.7-2.4 6.7-3.3 0-.4.8-.7 1.8-.7s2.5-1.2 3.3-2.8c1.5-3 10.5-12.2 11.9-12.2.5 0 1.5.7 2.4 1.5.8.8 3.1 1.5 5 1.5 2 0 3.6.4 3.6 1 0 .5-1.8 1-4 1s-4 .4-4 1c0 .5-.7 1-1.5 1-2 0-8.5 6.5-8.5 8.5 0 .8-.4 1.5-1 1.5s-1 3.3-1 8-.4 8-1 8-1 3-1 7 .4 7 1 7 1 1.1 1 2.4c0 1.4.5 2.8 1 3.1.6.3 1 1.5 1 2.6 0 1 .5 1.9 1 1.9.6 0 1 .9 1 2s.5 2 1 2c.6 0 1 1.3 1 3 0 1.6.5 3 1 3 .6 0 1 1.3 1 3 0 1.6.5 3 1 3 .6 0 1 2.2 1 5 0 2.7.5 5 1 5 .6 0 1 2 1 4.4 0 2.5-.4 4.8-1 5.1-1.3.8-1.3 7.2 0 8 .6.3 1 2.4 1 4.6 0 2.1.5 3.9 1 3.9.6 0 1 .7 1 1.5s.6 2.5 1.3 3.7c1.7 3 11.4 12.8 12.7 12.8.6 0 2.4 1.3 4.2 3 1.7 1.6 3.5 3 4 3 1.5 0 7.8 6.8 7.8 8.5 0 .8.5 1.5 1 1.5.6 0 1 .9 1 2s.5 2 1 2c.6 0 1 1.8 1 4s.5 4 1 4c.6 0 1 8.5 1 23.5 0 25.1.1 25.6 5.3 30.6 1.5 1.5 2.7 3.2 2.7 3.9 0 .7 1.3 2.5 3 4 2.1 2 3 3.7 3 5.9 0 1.7.6 4 1.2 5.1 1 1.6 1 2.4 0 4-1.4 2.4-1.6 11-.2 11 .6 0 1 1.5 1 3.3 0 1.8.6 3.9 1.2 4.5 1 1 1 1.7 0 3.2-.6 1.1-1.2 3.1-1.2 4.5s-.4 2.5-1 2.5-1 3.5-1 8.4c0 4.7.5 8.8 1 9.1.6.3 1 3.4 1 6.7 0 3.4.6 7.7 1.3 9.6 1 2.8 1 3.6 0 3.9-.7.3-1.3 1.3-1.3 2.4 0 1-.4 1.9-1 1.9-.5 0-1 1.3-1 3 0 1.6-.4 3-1 3-.5 0-1 2.2-1 5 0 2.7.5 5 1 5 .6 0 1 .9 1 2s.5 2 1 2c.6 0 1 .9 1 2s.5 2 1 2c.6 0 1 .9 1 2s.5 2 1 2c.6 0 1 .9 1 2s.5 2 1 2c.6 0 1 .8 1 1.8s.9 2.4 2 3.2c1.1.8 2 2 2 2.8 0 1.7 6.5 8.2 8.2 8.2.8 0 2 .9 2.8 2 .8 1.1 2.2 2 3.2 2s1.8.4 1.8 1c0 .5.9 1 2 1s2 .4 2 1c0 .5 2.3 1 5 1 2.8 0 5-.5 5-1 0-.6 1.3-1 2.8-1 1.6 0 3.4-.8 4.2-2 .8-1.1 2.1-2 2.8-2 .8 0 2.7-1.4 4.2-3 2.2-2.4 3.6-3 7-3 3.5 0 4.7.6 8 4 2.1 2.2 4.6 4 5.4 4 .9 0 1.6.4 1.6 1 0 .5.9 1 2 1s2 .4 2 1 2.7 1 6 1 6-.4 6-1 .9-1 2-1 2-.5 2-1c0-.6.9-1 2-1s2-.5 2-1c0-.6.8-1 1.8-1s2.4-.9 3.2-2c.8-1.1 2-2 2.7-2 1.7 0 10.3-8.6 10.3-10.3 0-.7.9-1.9 2-2.7 1.1-.8 2-2.2 2-3.2s.4-1.8.9-1.8 1.6-1.7 2.4-3.8c.8-2.1 2.2-4.4 3.1-5.1 1.2-1 1.6-3.2 1.6-8.2 0-3.9-.4-6.9-1-6.9-.5 0-1-1.4-1-3 0-1.7-.4-3-1-3-.5 0-1-2-1-4.4 0-2.5.5-4.8 1-5.1.6-.3 1-1.5 1-2.6 0-1 .5-1.9 1-1.9.6 0 1-3.3 1-8s-.4-8-1-8c-.5 0-1-.9-1-2s-.4-2-1-2c-.5 0-1-2-1-4.4 0-2.5-.4-4.8-1-5.1-.5-.3-1-4.2-1-8.5s.5-8.2 1-8.5c.6-.3 1-2.2 1-4.1 0-1.9.5-3.4 1-3.4.6 0 1-.9 1-2s.5-2 1-2c.6 0 1-.9 1-2s.5-2 1-2c.6 0 1-.9 1-2s.5-2 1-2c.6 0 1-.9 1-2s.5-2 1-2c.6 0 1-1 1-2.3 0-1.3.9-3.3 2-4.5 1.1-1.2 2-2.8 2-3.7 0-.8.5-1.5 1-1.5.6 0 1-.9 1-2s.5-2 1-2c.6 0 1-2.7 1-6 0-5.3-.2-6-2-6s-2-.7-2-6c0-3.7-.4-6-1.1-6-.7 0-.9-1.8-.5-5.3 1.2-11 1.8-14.7 2.7-14.7.5 0 .9-.9.9-1.9 0-2.3 4-10.1 5.2-10.1.4 0 .8-.6.8-1.4 0-1.5 14.3-16.6 15.8-16.6 1.6 0 10.2-8.8 10.2-10.4 0-.9.5-1.6 1-1.6.6 0 1-.9 1-2s.5-2 1-2c.6 0 1-2 1-4.4 0-2.5.5-4.8 1-5.1.6-.4 1-6.8 1-16s.4-15.6 1-16c.5-.3 1-1.9 1-3.6 0-1.6.5-2.9 1-2.9.6 0 1-1.1 1-2.4 0-1.4.5-2.8 1-3.1.6-.3 1-1.5 1-2.6 0-1 .5-1.9 1-1.9.6 0 1-.9 1-2s.5-2 1-2c.6 0 1-1.8 1-4s.5-4 1-4c.6 0 1-2.4 1-5.3s.5-5.8 1.2-6.5c.9-.9.9-1.5 0-2.4-.7-.7-1.2-2.7-1.2-4.5 0-1.8-.4-3.3-1-3.3-.5 0-1-1.1-1-2.5 0-2.9-5.9-9.5-8.5-9.5-.8 0-1.5-.5-1.5-1 0-.6-1.8-1-4-1s-4-.5-4-1c0-.6 1.4-1 3-1 1.7 0 3-.5 3-1 0-.6.9-1 1.9-1 1.1 0 2.1-.5 2.3-1.2.3-.7 4.6 2.9 9.6 8s9.8 9.2 10.7 9.2c.8 0 1.5.4 1.5 1s4 1 10 1 10-.4 10-1 1.4-1 3-1c1.7 0 3-.5 3-1 0-.6 1.4-1 3-1 1.7 0 3-.5 3-1 0-.6 1.4-1 3-1 1.7 0 3-.5 3-1 0-.6.9-1 2-1s2-.5 2-1c0-.6.9-1 2-1s2-.5 2-1c0-.6.9-1 2-1s2-.5 2-1c0-.6.9-1 2-1s2-.5 2-1c0-.6.9-1 2-1s2-.5 2-1c0-.6.9-1 2-1s2-.5 2-1c0-.6.9-1 2-1s2-.5 2-1c0-.6.9-1 2-1s2-.5 2-1c0-.6.8-1 1.8-1s2.4-.9 3.2-2c.8-1.1 2-2 2.7-2 .8 0 3.3-1.9 5.7-4.3 2.4-2.3 5.5-5.2 6.8-6.3 4.3-4 9.8-10.4 9.8-11.5 0-.7.8-1.9 1.8-2.8.9-.9 2.3-2.8 3.1-4.4.8-1.5 1.8-2.7 2.3-2.7.4 0 .8-.9.8-2s.5-2 1-2c.6 0 1-.9 1-2s.5-2 1-2c.6 0 1-.9 1-2s.5-2 1-2c.6 0 1-.9 1-2s.5-2 1-2c.6 0 1-1.4 1-3 0-1.7.5-3 1-3 .6 0 1-1.8 1-3.9 0-2.2.5-4.3 1-4.6.6-.4 1-5.5 1-12.1 0-6.9-.4-11.4-1-11.4-.5 0-1-1.1-1-2.5s-.9-3.5-2-4.7c-1.1-1.2-2-2.8-2-3.5 0-.7-.4-1.3-1-1.3-.5 0-1-.9-1-2s-.4-2-1-2c-.5 0-1-.6-1-1.3 0-.7-.9-2.3-2-3.5-1.1-1.2-2-2.7-2-3.4 0-.8-.9-2-2-2.8-1.1-.8-2-2.1-2-2.8 0-.8-1.3-2.6-2.8-4-1.5-1.5-3.9-4.3-5.2-6.2-3.3-4.7-20.5-22-22-22-.6 0-2-.9-3.2-2-1.2-1.1-2.8-2-3.5-2-.7 0-1.3-.5-1.3-1 0-.6-.7-1-1.5-1-.9 0-2.5-.9-3.7-2-1.2-1.1-2.8-2-3.5-2-.7 0-1.3-.5-1.3-1 0-.6-.9-1-2-1s-2-.5-2-1c0-.6-.9-1-2-1s-2-.5-2-1c0-.6-.9-1-2-1s-2-.5-2-1c0-.6-.9-1-2-1s-2-.5-2-1c0-.6-.9-1-2-1s-2-.5-2-1c0-.6-.9-1-2-1s-2-.5-2-1c0-.6-1.3-1-3-1-1.6 0-3-.5-3-1 0-.6-.9-1-1.9-1-1.1 0-2.3-.5-2.6-1-.3-.6-1.7-1-3-1s-2.7-.5-3-1c-.3-.6-2.2-1-4.1-1-1.9 0-3.4-.5-3.4-1 0-.6-1.8-1-4-1s-4-.5-4-1c0-.6-1.8-1-4-1s-4-.5-4-1c0-.6-1-1-2.3-1-1.3 0-3.3-.9-4.5-2-1.2-1.1-3.4-2-5-2-1.5 0-3.8-.9-5-2-1.2-1.1-2.8-2-3.7-2-.8 0-1.5-.4-1.5-.8 0-.5-1.2-1.5-2.7-2.3-3.4-1.7-5.3-3.4-5.3-4.7 0-.5-1.3-2.3-3-4-1.6-1.8-3-3.9-3-4.7 0-.8-.4-1.5-1-1.5-.5 0-1-.9-1-2s-.4-2-1-2c-.5 0-1-.9-1-2s-.4-2-1-2c-.5 0-1-.9-1-2s-.4-2-1-2c-.5 0-1-.9-1-2s-.4-2-1-2c-.5 0-1-.7-1-1.5 0-2.9-4.7-6.5-8.5-6.5-2.8 0-3.5.4-3.5 2 0 1.1-.4 2-1 2-.5 0-1 1.8-1 4s-.4 4-1 4-1 6.3-1 17 .4 17 1 17 1 1.8 1 4 .5 4 1 4c.6 0 1 .7 1 1.5 0 1.9 12.4 14.5 14.3 14.5.7 0 1.9.9 2.7 2 .8 1.1 2.1 2 2.9 2 .7 0 2.1.8 3 1.8.9.9 2.8 2.3 4.4 3.1 1.5.8 2.7 1.8 2.7 2.3 0 .4.9.8 1.9.8 1.1 0 2.1.3 2.3.7.2.5 2.4 1.9 5.1 3.2 2.6 1.3 4.7 2.8 4.7 3.3 0 .4.9.8 2 .8s2 .4 2 1c0 .5 1.4 1 3 1 1.7 0 3 .3 3 .7 0 .8 4.8 3.3 6.2 3.3.5 0 1.8.9 3 2s2.8 2 3.5 2c.7 0 1.3.4 1.3 1 0 .5.9 1 2 1s2 .4 2 1c0 .5.9 1 2 1s2 .4 2 1c0 .5.9 1 2 1s2 .4 2 1c0 .5.9 1 2 1s2 .4 2 1c0 .5.7 1 1.6 1 1.9 0 10.4 8.7 10.4 10.7 0 .7.5 1.3 1 1.3.6 0 1 .9 1 2s.5 2 1 2c.6 0 1 .9 1 2s.5 2 1 2c.6 0 1 .9 1 2s-.4 2-1 2c-.5 0-1 1.3-1 2.8 0 1.6-.8 3.4-2 4.2-1.1.8-2 2.1-2 2.8 0 1.8-12.8 14.2-14.6 14.2-.8 0-1.4.4-1.4 1 0 .5-.9 1-2 1s-2 .4-2 1c0 .5-.9 1-2 1s-2 .4-2 1-3 1-7 1-7-.4-7-1-3.3-1-8-1-8 .4-8 1c0 .5-.7 1-1.6 1-.9 0-1.8.9-2.1 2-.3 1.1-.9 2-1.4 2-.5 0-.9 1.8-.9 4s-.4 4-1 4c-.5 0-1 1.8-1 4s.5 4 1 4c.6 0 1 .4 1 1 0 1.8-3.5 1.1-5-1-.8-1.2-2.6-2-4.2-2-1.5 0-2.8-.5-2.8-1 0-.6-.7-1-1.5-1-.9 0-4.4-2.9-7.9-6.4-3.6-3.5-7.4-6.7-8.5-7.1-1.2-.3-2.1-1.1-2.1-1.6s-1.3-.9-3-.9c-1.6 0-3-.5-3-1 0-.6-1.3-1-3-1-1.6 0-3-.5-3-1 0-.6-2.2-1-5-1-2.7 0-5-.5-5-1 0-.6-2.6-1-5.8-1-3.2 0-6.3-.5-6.9-1.1-1.6-1.6-85.3.5-85.3 2.1 0 .6-3.6 1-7.9 1-4.4 0-8.3.4-8.6 1-.3.5-3.1 1-6.1 1-3 0-5.4.4-5.4 1 0 .5-1.3 1-3 1-1.6 0-3 .4-3 1 0 .5-.7 1-1.6 1-1.8 0-4.4 2.3-4.4 4 0 .6-1.6 2.6-3.5 4.5-2.8 2.8-4.2 3.5-7.4 3.5-3.5 0-4.6.7-10.1 6.1-3.4 3.3-6.5 5.7-6.8 5.3-.4-.4-.1-.9.6-1.1 1.5-.6 1.8-22.3.2-22.3-.5 0-1-.9-1-2 0-1.3-.7-2-2-2-1.1 0-2-.5-2-1 0-.6-3-1-7-1s-7 .4-7 1c0 .5-1.3 1-3 1-1.6 0-3 .4-3 1s-3.8 1-9.4 1c-9.8 0-14.2-1.2-18.6-5-2-1.7-2.2-2.3-1-3 1.2-.7 1.1-1.2-.8-2.8-1.2-1.1-2.2-2.7-2.2-3.6 0-.9-.4-1.6-1-1.6-.5 0-1-.9-1-2s-.4-2-1-2-1-3.7-1-9 .4-9 1-9 1-.7 1-1.5c0-1.9 14.4-16.5 16.3-16.5.7 0 1.9-.9 2.7-2 .8-1.1 2.2-2 3.2-2s1.8-.5 1.8-1c0-.6.9-1 2-1s2-.5 2-1c0-.6.9-1 2-1s2-.5 2-1c0-.6.9-1 2-1s2-.5 2-1c0-.6.7-1 1.5-1s2.4-.5 3.5-1c1.1-.6 2.9-1.5 4-2 1.1-.6 2.6-1 3.3-1 .7 0 1.9-.9 2.7-2 .8-1.1 2.4-2 3.5-2 1.2 0 3.1-.9 4.3-2 1.2-1.1 2.8-2 3.7-2 .8 0 1.5-.5 1.5-1 0-.6.6-1 1.3-1 .6 0 2.5-1.1 4.1-2.5 1.6-1.4 3.3-2.5 3.7-2.5.4 0 2.6-1.7 4.8-3.8 2.2-2 5.4-4.7 7.1-6 1.6-1.3 3-2.8 3-3.4 0-.5 1.4-2.3 3-3.8 1.7-1.5 3-3.5 3-4.4 0-.9.5-1.6 1-1.6.6 0 1-.9 1-2s.5-2 1-2c.6 0 1-1.8 1-3.9 0-2.2.5-4.3 1-4.6.6-.3 1-5.2 1-11.1 0-6.3-.4-10.4-1-10.4-.5 0-1-1.8-1-4s-.4-4-1-4c-.5 0-1-.9-1-2s-.4-2-1-2c-.5 0-1-.9-1-2s-.4-2-1-2c-.5 0-1-.7-1-1.6 0-1.9-2.4-4.4-4.2-4.4-.7 0-2.1 1.8-3 3.9zM228 134.5c0 1.1-11 11.5-12.1 11.5-.6 0-2.4 1.3-3.9 3-1.5 1.6-3.5 3-4.4 3-.9 0-1.6.4-1.6.8 0 .5-2.1 2-4.7 3.3-2.7 1.3-4.9 2.7-5.1 3.1-.2.5-1.7.8-3.3.8-1.6 0-2.9.4-2.9 1 0 .5-.9 1-2 1s-2 .4-2 1c0 .5-.9 1-2 1s-2 .4-2 1c0 .5-1.3 1-3 1-1.6 0-3 .4-3 1 0 .5-.8 1-1.8 1s-2.4.9-3.2 2c-.8 1.1-2.2 2-3.2 2s-1.8.4-1.8 1c0 .5-.8 1-1.8 1s-2.4.9-3.2 2c-.8 1.1-2.1 2-3 2-.9 0-2.2.9-3 2-.8 1.1-2 2-2.8 2-1.7 0-6.2 4.5-6.2 6.2 0 .8-.9 2-2 2.8-1.1.8-2 2.2-2 3.2s-.4 1.8-1 1.8c-.5 0-1 1.3-1 3 0 1.6-.4 3-1 3s-1 3.7-1 9 .4 9 1 9 1 1.8 1 4 .5 4 1 4c.6 0 1 .9 1 2s.5 2 1 2c.6 0 1 .9 1 2s.5 2 1 2c.6 0 1 .6 1 1.3 0 .7.9 2.3 2 3.5 1.1 1.2 2 2.6 2 3.2 0 1.6 8.8 10 10.5 10 .8 0 1.5.4 1.5 1 0 .5.9 1 2 1s2 .4 2 1c0 .5.9 1 2 1s2 .4 2 1 4.8 1 12.5 1c12 0 12.7.1 15 2.5 2 1.9 2.5 3.4 2.5 7.4 0 2.7-.4 5.3-1 5.6-.5.3-1 2.4-1 4.6 0 2.1-.4 3.9-1 3.9-.5 0-1 1.3-1 3 0 1.6-.4 3-1 3-.5 0-1 1.3-1 3 0 1.6-.4 3-1 3-.5 0-1 .9-1 2s-.4 2-1 2c-.5 0-1 .7-1 1.6 0 2-2.4 4.4-4.4 4.4-.9 0-1.6.4-1.6 1 0 .5-.9 1-2 1s-2 .4-2 1-3.1 1-7.4 1c-4.1 0-7.8-.5-8.1-1-.3-.6-1.5-1-2.6-1-1 0-1.9-.5-1.9-1 0-.6-1.8-1-4-1s-4-.5-4-1c0-.6-.9-1-2-1s-2-.5-2-1c0-.6-1.3-1-3-1-1.6 0-3-.5-3-1 0-.6-.7-1-1.5-1-.9 0-2.5-.9-3.7-2-1.2-1.1-2.8-2-3.5-2-.7 0-1.3-.5-1.3-1 0-.6-.8-1-1.8-1s-2.4-.9-3.2-2c-.8-1.1-2-2-2.7-2-1.7 0-20.3-18.8-20.3-20.5 0-.8-.4-1.5-1-1.5-.5 0-1-.9-1-2s-.4-2-1-2c-.5 0-1-1.4-1-3 0-1.7-.4-3-1-3-.5 0-1-2.2-1-4.9 0-2.8-.5-5.3-1-5.6-1.3-.8-1.3-23.2 0-24 .6-.3 1-2.6 1-5.1 0-2.4.5-4.4 1-4.4.6 0 1-1.4 1-3 0-1.7.5-3 1-3 .6 0 1-.7 1-1.6 0-2.1 20.3-22.4 22.4-22.4.9 0 1.6-.5 1.6-1 0-.6.9-1 2-1s2-.5 2-1c0-.6.9-1 2-1s2-.5 2-1c0-.6.9-1 2-1s2-.5 2-1c0-.6.9-1 2-1s2-.5 2-1c0-.6.9-1 2-1s2-.5 2-1c0-.6.9-1 2-1s2-.5 2-1c0-.6 1.1-1 2.4-1 1.4 0 2.8-.5 3.1-1 .3-.6 1.5-1 2.6-1 1 0 1.9-.3 1.9-.8 0-.8 4.9-3.2 6.7-3.2.7 0 1.3-.5 1.3-1 0-.6.9-1 2-1s2-.5 2-1c0-.6.9-1 2-1s2-.5 2-1c0-.6.9-1 2-1s2-.5 2-1c0-.6.9-1 2-1s2-.5 2-1c0-.6.9-1 2-1s2-.5 2-1c0-.6.9-1 2-1s2-.5 2-1c0-.6.9-1 2-1s2-.5 2-1c0-.6.8-1 1.8-1 .9 0 4.1-1.4 7.1-3 3-1.7 6-3 6.8-3 .8 0 2.3-.9 3.5-2 1.2-1.1 3.2-2 4.5-2 1.3 0 2.3-.5 2.3-1 0-.6.9-1 2-1s2-.5 2-1c0-.6.5-1 1-1 .6 0 1 .2 1 .5zm204 .5c0 .5.9 1 2 1s2 .4 2 1c0 .5.9 1 2 1s2 .4 2 1c0 .5.9 1 1.9 1 1.1 0 2.3.4 2.6 1 .3.5 1.7 1 3.1 1 1.3 0 2.4.4 2.4 1 0 .5.9 1 2 1s2 .4 2 1c0 .5 1.4 1 3 1 1.7 0 3 .4 3 1 0 .5 1.4 1 3 1 1.7 0 3 .4 3 1 0 .5 1.4 1 3 1 1.7 0 3 .4 3 1 0 .5 1.4 1 3 1 1.7 0 3 .4 3 1 0 .5.9 1 2 1s2 .4 2 1c0 .5 1.4 1 3 1 1.7 0 3 .4 3 1 0 .5 1.4 1 3 1 1.7 0 3 .4 3 1 0 .5 1.4 1 3 1 1.7 0 3 .4 3 1 0 .5.9 1 2 1s2 .4 2 1c0 .5 1.1 1 2.4 1 1.4 0 2.8.4 3.1 1 .3.5 1.5 1 2.6 1 1 0 1.9.4 1.9 1 0 .5.6 1 1.3 1 .7 0 2.3.9 3.5 2 1.2 1.1 2.8 2 3.7 2 .8 0 1.5.4 1.5 1 0 .5.7 1 1.5 1s2.9 1.3 4.7 3c1.7 1.6 3.5 3 4 3 1.2 0 21.8 20.8 21.8 22.1 0 .6 1.4 2.4 3 3.9 1.7 1.5 3 3.5 3 4.4 0 .9.5 1.6 1 1.6.6 0 1 .9 1 2s.5 2 1 2c.6 0 1 1.3 1 3 0 1.6.5 3 1 3 .6 0 1 2.3 1 5 0 2.8.5 5.9 1.2 6.9.9 1.5.9 2.8 0 5.9-.7 2.2-1.2 6.2-1.2 9.1 0 2.8-.4 5.1-1 5.1-.5 0-1 .9-1 2s-.4 2-1 2c-.5 0-1 .9-1 2s-.4 2-1 2c-.5 0-1 .7-1 1.5 0 1.9-14.4 16.5-16.2 16.5-.8 0-2 .9-2.8 2-.8 1.1-2.2 2-3.2 2s-1.8.4-1.8 1c0 .5-.6 1-1.3 1-.7 0-2.3.9-3.5 2-1.2 1.1-2.8 2-3.7 2-.8 0-1.5.4-1.5 1 0 .5-.6 1-1.3 1-.7 0-2.2.8-3.3 1.8-1.1 1-3.2 2.2-4.6 2.5-1.5.4-3.3 1.4-4.2 2.2-.8.8-2.6 1.5-4 1.5s-2.6.4-2.6 1c0 .5-.9 1-2 1s-2 .4-2 1c0 .5-.9 1-1.9 1-1.1 0-2.3.4-2.6 1-.3.5-2.2 1-4.1 1-1.9 0-3.4.4-3.4 1s-3 1-7 1-7-.4-7-1-.7-1-1.5-1c-2.9 0-10.5-9.1-10.5-12.5 0-.8-.4-1.5-1-1.5-.5 0-1-.9-1-2s-.4-2-.9-2c-.9 0-1.7-3.3-2.7-11.8-.4-2.7-.2-4.2.5-4.2.6 0 1.1-.7 1.1-1.5 0-2.6 6.6-8.5 9.5-8.5 1.4 0 2.5-.5 2.5-1 0-.6 2.7-1 6-1s6-.4 6-1 1.4-1 3-1c1.7 0 3-.5 3-1 0-.6 1.4-1 3-1 1.7 0 3-.5 3-1 0-.6.9-1 2-1s2-.5 2-1c0-.6.9-1 2-1s2-.5 2-1c0-.6.7-1 1.5-1 .9 0 2.1-.4 2.8-1 .7-.5 2.7-2.1 4.5-3.6 1.7-1.4 3.2-3.2 3.2-4 0-.8.5-1.4 1-1.4.6 0 1-.9 1-2s.5-2 1-2c.6 0 1-.9 1-2s.5-2 1-2c.6 0 1-.9 1-2s.5-2 1-2c.6 0 1-4.3 1-11s-.4-11-1-11c-.5 0-1-1.4-1-3 0-1.7-.4-3-1-3-.5 0-1-.9-1-2s-.4-2-1-2c-.5 0-1-.9-1-2s-.4-2-1-2c-.5 0-1-.6-1-1.4 0-2-16.5-18.6-18.4-18.6-.9 0-1.6-.5-1.6-1 0-.6-.9-1-2-1s-2-.5-2-1c0-.6-.9-1-2-1s-2-.5-2-1c0-.6-.9-1-2-1s-2-.5-2-1c0-.6-.9-1-2-1s-2-.5-2-1c0-.6-.9-1-2-1s-2-.5-2-1c0-.6-.9-1-2-1s-2-.5-2-1c0-.6-1.1-1-2.4-1-1.4 0-2.8-.5-3.1-1-.3-.6-1.5-1-2.6-1-1 0-1.9-.5-1.9-1 0-.6-.9-1-2-1s-2-.5-2-1c0-.6-.9-1-2-1s-2-.5-2-1c0-.6-.9-1-2-1s-2-.5-2-1c0-.6-.9-1-2-1s-2-.5-2-1c0-.6-.9-1-2-1s-2-.5-2-1c0-.6-.8-1-1.8-1s-2.4-.9-3.2-2c-.8-1.1-2-2-2.8-2-1.2 0-6.2-4.3-6.2-5.5 0-.3.5-.5 1-.5.6 0 1 .4 1 1zm-46 118c0 .5 1.4 1 3 1 1.7 0 3 .4 3 1 0 .5.9 1 2 1s2 .4 2 1c0 .5.7 1 1.5 1 1.7 0 8.5 6.3 8.5 7.8 0 .5 2.4 3.5 5.3 6.6 5 5.2 5.7 5.6 10 5.6 4.7 0 4.7 0 4.7 3.4 0 1.9.5 3.8 1 4.1.6.3 1 3 1 6s.5 5.7 1 6c.6.3 1 2.4 1 4.6 0 2.1.5 3.9 1 3.9.6 0 1 .9 1 2s.5 2 1 2c.6 0 1 .9 1 2 0 1.3.7 2 2 2 1.1 0 2 .4 2 1 0 .5-1.6 1-3.5 1-2.7 0-4.4.8-7 3.5-1.9 1.9-3.5 4.3-3.5 5.4 0 1.1-.4 2.3-1 2.6-.5.3-1 1.5-1 2.6 0 1-.4 1.9-1 1.9-.5 0-1 .8-1 1.8s-.9 2.4-2 3.2c-2.1 1.5-2.8 7-1 7 .6 0 1 .9 1 2 0 1.5.7 2 2.8 2 1.6 0 3.4-.8 4.2-2 .8-1.1 2.2-2 3.2-2s1.8-.5 1.8-1c0-.6.9-1 1.9-1 1.1 0 2.1-.6 2.4-1.3.3-1 .9-1 2.6 0 1.1.7 3.2 1.3 4.6 1.3 1.4 0 2.5.4 2.5 1 0 .5.9 1 2 1 1.8 0 2 .7 2 7 0 4-.4 7-1 7-.5 0-1 1.3-1 3 0 1.6-.4 3-1 3-.5 0-1 .9-1 2s-.4 2-1 2c-.5 0-1 1.3-1 3 0 1.6-.4 3-1 3s-1 3.3-1 8-.4 8-1 8c-.5 0-1 .9-1 2s-.4 2-.8 2c-.5 0-1.5 1.1-2.2 2.5-.7 1.4-1.7 2.5-2.2 2.5-.4 0-.8-4.7-.8-10.5 0-6.3.4-10.5 1-10.5s1-1.4 1-3c0-1.7.5-3 1-3 .6 0 1-1.4 1-3 0-1.7.5-3 1-3 .6 0 1-1.4 1-3 0-1.7.4-3 .9-3 1 0 2-6.8 1.3-8.8-.9-2.5-3.4-1-11.3 6.8-4.4 4.4-8.5 8-9.1 8-.6 0-1.8.8-2.7 1.8-2.2 2.3-7.8 4.2-12.9 4.2-2.3 0-4.2.4-4.2 1 0 .5-1.3 1-3 1-1.6 0-3 .4-3 1 0 .5-.8 1-1.7 1-3.4 0-6.3 4.1-6.3 8.8 0 3.6.5 4.9 3 7.2 1.7 1.5 3 3.3 3 4 0 .7 1.4 2.5 3 4 1.7 1.5 3 3.5 3 4.4 0 .9.5 1.6 1 1.6.6 0 1 3.3 1 8s-.4 8-1 8c-1.4 0-1.2 2.9.3 4.4 1.9 1.9 6 1.4 8.4-1 1.2-1.3 3.6-3.1 5.3-4 1.6-1 3-2.2 3-2.6 0-.4.9-.8 2-.8s2-.5 2-1c0-.6.8-1 1.8-1s2.4-.9 3.2-2c.8-1.1 2-2 2.8-2 2 0 4.2-2.6 4.2-4.9 0-1.2.5-2.1 1-2.1 1.5 0 1.3 19.5-.2 22.2-.7 1.3-3.3 4.2-5.7 6.5-3.8 3.7-5 4.3-8.8 4.3-2.3 0-4.3-.5-4.3-1 0-.6-2.2-1-5-1-2.7 0-5 .3-5 .6 0 1.3 3 3.4 5 3.4s5 2.1 5 3.4c0 .3-1.8.6-4 .6s-4 .4-4 1c0 .5-.7 1-1.6 1-2.8 0-4.4 2.7-4.4 7.4 0 2.5-.4 4.6-1 4.6-.5 0-1 .9-1 2s-.4 2-1 2c-.5 0-1 .9-1 1.9 0 1.1-.4 2.3-1 2.6-.5.3-1 2.2-1 4.1 0 1.9-.4 3.4-1 3.4s-1 3.3-1 8-.4 8-1 8-1 4.7-1 12 .4 12 1 12 1 1.3 1 3c0 1.6-.4 3-1 3-.5 0-1 1.1-1 2.5s-.9 3.5-2 4.7c-1.1 1.2-2 2.8-2 3.5 0 .7-.4 1.3-1 1.3-.5 0-1 .9-1 2s-.4 2-1 2c-.5 0-1 1.3-1 3 0 1.6-.4 3-.9 3-1.3 0-2.2 7.6-2.7 23.4-.3 9-.1 14.3.5 14.9.6.6 1.1 2.6 1.1 4.4 0 1.8.5 3.3 1 3.3.6 0 1 .9 1 2s.5 2 1 2c1.8 0 1.1 10.4-1 14.8-1.1 2.2-2 4.8-2 5.7 0 .8-.4 1.5-1 1.5-.5 0-1 2.2-1 5 0 2.7.5 5 1 5 .6 0 1 1.3 1 3 0 1.6.5 3 1 3 .6 0 1 2.8 1 6.4 0 5.6-.3 6.6-3 9.4-1.6 1.8-3 3.6-3 4.2 0 1.5-10.7 12-12.3 12-.7 0-1.9.9-2.7 2-1.2 1.6-2.6 2-7.7 2-6.2 0-6.5-.1-10.8-4.5-2.5-2.4-4.5-5.1-4.5-6 0-.8-.4-1.5-1-1.5-.5 0-1-.9-1-2 0-1.7-.7-2-4.6-2-4.3 0-5 .4-10 5.5-3 3-5.4 5.9-5.4 6.5 0 .6-1.1 2.2-2.5 3.5-1.8 1.9-3.5 2.5-6.5 2.5-3.8 0-4.7-.6-11.6-7.5-4.1-4.1-7.4-7.9-7.4-8.4s-1.8-2.7-4-5c-3.7-3.8-4-4.5-4-9.6 0-3 .5-5.5 1-5.5.6 0 1-1.5 1-3.4s.4-3.8 1-4.1c.6-.3 1-2.8 1-5.6 0-2.7-.4-4.9-1-4.9-.5 0-1-.7-1-1.6 0-.9-1.3-2.9-3-4.4-2.7-2.6-3-3.4-3-9.4 0-3.7.4-6.6 1-6.6s1-.7 1-1.6c0-.9 1.4-2.9 3-4.4 2.5-2.3 3-3.6 3-7.4 0-2.5-.4-4.6-1-4.6-.5 0-1-.9-1-2s-.4-2-1-2c-.5 0-1-1.4-1-3 0-1.7-.4-3-1-3s-1-4.5-1-11.6v-11.6l-4-3.8c-3.2-3.1-4-4.6-4-7.4 0-2 .2-3.6.5-3.6 1 0 9.5 8.9 9.5 10 0 .5 2.7 3.7 6 7.1 3.3 3.3 6 6.7 6 7.5 0 .8.5 1.4 1 1.4.6 0 1 .8 1 1.8s.4 2.2.9 2.8c.5.5 1.2 4.7 1.4 9.4.3 4.7.8 10 1.2 11.8.6 2.6.3 3.6-1.4 5.1-1.1 1-2.1 2.6-2.1 3.5 0 .9-.4 1.6-1 1.6-.5 0-1 1.3-1 3 0 1.6-.4 3-1 3-.5 0-1 1.8-1 4s-.4 4-1 4-1 4.7-1 12 .4 12 1 12 1 .9 1 2 .5 2 1 2c.6 0 1 .9 1 2s.5 2 1 2c.6 0 1 .6 1 1.4 0 1.9 10.5 12.6 12.4 12.6.9 0 1.6.4 1.6 1 0 .5 2 1 4.5 1 3.5 0 5.2-.6 7-2.5 1.4-1.3 2.5-3.1 2.5-4 0-.8.5-1.5 1-1.5.6 0 1-6.3 1-17s.4-17 1-17 1-7.7 1-21-.4-21-1-21c-.5 0-1-.7-1-1.5 0-.9-.8-1.9-1.7-2.2-2.6-1-10.3-9-10.3-10.8 0-.8-.4-1.5-1-1.5-.5 0-1-.9-1-2s-.4-2-1-2c-.5 0-1-.9-1-2s-.4-2-1-2c-.5 0-1-.7-1-1.6 0-1.9-4.8-6.4-6.7-6.4-.9 0-1.3-1.9-1.3-6 0-3.3.4-6 1-6s1-1.8 1-4 .5-4 1-4c.6 0 1-1.4 1-3 0-1.7.5-3 1-3 .6 0 1-1.3 1-2.9 0-1.7.4-3.3 1-3.6 1.3-.8 1.3-7.5 0-7.5-.5 0-1-.9-1-1.9 0-1.1-.4-2.3-1-2.6-.5-.3-1-1.7-1-3.1 0-1.3-.4-2.4-1-2.4-.5 0-1-1.8-1-4s.5-4 1-4c.6 0 1-.9 1-2s.5-2 1-2c.6 0 1-.9 1-2s.5-2 1-2c.6 0 1-.9 1-1.9 0-1.1.5-2.3 1-2.6.6-.3 1-1.7 1-3.1 0-1.3.5-2.4 1-2.4.6 0 1-3.3 1-8 0-4.5.5-8.9 1.2-10 .9-1.4.9-2.4.1-4.2-1.4-2.8-2.2-15.8-1-15.8 1.4 0 3.7-2.7 3.7-4.4 0-.9.5-1.6 1-1.6.6 0 1-.9 1-2s.5-2 1-2c.6 0 1-.9 1-2s.5-2 1-2c.6 0 1-.9 1-2s.5-2 1-2c.6 0 1-.7 1-1.6 0-.9 1.2-2.7 2.8-4 2.8-2.5 5.2-3.1 5.2-1.4 0 .5-.4 1-1 1s-1 7.3-1 19.9c0 13.7-.4 20.2-1.1 20.7-.8.5-.9 3.2-.5 8.8.4 4.4.5 10.6.4 13.6-.4 7.7 0 48.5.7 80 .6 25 1.1 29 3.6 29 1.3 0 1.2-67.7-.1-68.5-.6-.4-1-5.5-1-12s.4-11.6 1-12c.6-.4 1-15.2 1-41.1 0-36.1.2-40.4 1.6-40.4 2 0 4.4 2.4 4.4 4.4 0 .9.5 1.6 1 1.6.6 0 1 .6 1 1.3 0 .7.9 2.3 2 3.5 1.1 1.2 2 2.5 2 3.1 0 .5 2.3 3.3 5.2 6.2 2.9 2.9 4.6 5.5 4 5.7-.7.2-1.2 2.1-1.2 4.3 0 2.1-.4 3.9-1 3.9s-1 4-1 10 .4 10 1 10 1 .9 1 2 .5 2 1 2c.6 0 1 .9 1 2s.5 2 1 2c.6 0 1 1.8 1 4s.5 4 1 4c.6 0 1 3.1 1 7.2 0 7-1.5 13.5-3.5 15.1-.6.6-.6 1 .3 1.4.6.2 1.2 1.8 1.2 3.4 0 1.6.5 2.9 1 2.9.6 0 1 .9 1 1.9 0 1.1.5 2.3 1 2.6.6.4 1 6.2 1 14.1 0 8.3-.4 13.4-1 13.4-.5 0-1 .9-1 2s-.4 2-1 2c-.5 0-1 1.3-1 3 0 1.6-.4 3-1 3s-1 2.8-1 6.4v6.4l-7 7.1c-3.8 3.9-7 7.7-7 8.4 0 .7-.9 1.9-2 2.7-1.1.8-2 2.2-2 3.2s-.4 1.8-1 1.8c-.5 0-1 1.3-1 3 0 1.6-.5 3-1.1 3-.7 0-.8 3.1-.4 9.7.3 5.4.8 17 1.1 25.8.3 8.8.9 16.4 1.5 17 .5.5.9 3.7.9 7.2v6.3h3c1.7 0 3 .4 3 1 0 .5 1.8 1 4 1s4 .4 4 1 3.2 1 7.6 1c7.8 0 10.4-1.1 10.4-4.4 0-.9.5-1.6 1-1.6.6 0 1-1.4 1-3 0-1.7.5-3 1-3 .6 0 1-1.8 1-4s.5-4 1-4c.6 0 1-4.5 1-11.4 0-6.6-.4-11.7-1-12.1-.5-.3-1-1.9-1-3.6 0-1.6-.5-3.9-1.2-5.2-2.5-4.9-2.8-5.8-2.8-8.7 0-1.6-.4-3-1-3s-1-4.7-1-12 .4-12 1-12 1-.9 1-2 .4-2 .8-2c.5 0 1.5-2.2 2.2-5 .7-2.7 1.7-5 2.2-5 .4 0 .8-.9.8-1.9 0-1.1.5-2.3 1-2.6.6-.3 1-3.1 1-6.1 0-3-.4-5.4-1-5.4-.5 0-1-.9-1-2 0-1.3-.7-2-2-2-1.1 0-2-.5-2-1 0-.6-1.3-1-3-1h-3v-13c0-8-.4-13-1-13-.5 0-1-1.4-1-3 0-1.7-.4-3-1-3-.5 0-1-1.8-1-4s.5-4 1-4c.6 0 1-4 1-10s-.4-10-1-10c-.5 0-1-1.8-1-4s-.4-4-1-4c-.5 0-1-.9-1-2s-.4-2-1-2c-.5 0-1-.9-1-2s-.4-2-1-2-1-3.5-1-8.4c0-4.7.5-8.8 1-9.1.6-.3 1-2.8 1-5.6 0-2.7.5-4.9 1-4.9.6 0 1-.7 1-1.6 0-1.8-2.3-4.4-4-4.4-.6 0-1.4-.8-1.7-1.8-.4-.9-1.4-2.4-2.2-3.2-.9-.8-2.2-2.7-3-4.3-.8-1.5-1.8-2.7-2.3-2.7-.4 0-.8-.9-.8-2s-.4-2-1-2c-.5 0-1-.7-1-1.5 0-2.5-4.6-6.5-7.5-6.5-2.3 0-2.5-.4-2.5-4 0-2.2-.4-4-1-4s-1-4.6-1-11.9c0-6.9-.4-12.2-1-12.6-.6-.4-1-10.8-1-28s.4-27.6 1-28c.6-.3 1-3.1 1-6.1 0-3 .5-5.4 1-5.4.6 0 1-1.2 1-2.6 0-2.5 4.2-7.4 6.3-7.4.5 0 2.2-1.4 3.7-3 1.7-1.8 3.8-3 5.4-3 1.4 0 2.6-.5 2.6-1 0-.6.7-1 1.6-1 1.8 0 4.4-2.3 4.4-4 0-1.4 4.6-6 6-6 1.7 0 4-2.6 4-4.4 0-2.3-3.3-2-5 .4-.8 1.1-2 2-2.8 2-1.6 0-4.2 2.4-4.2 3.9 0 .5-1.5 2.1-3.3 3.5l-3.4 2.6h-23.1c-22.8 0-26.2-.3-26.2-2.2 0-.6-1.3-2.3-3-3.8-1.6-1.5-3-3.3-3-4 0-1.6-2.6-4-4.4-4-.9 0-1.6.8-1.6 2 0 1.1.4 2 .9 2s1.3.9 1.6 2c.4 1.1 1.7 3.2 3.1 4.5 1.3 1.3 2.4 2.8 2.4 3.2 0 .4 1.1 2 2.4 3.5 1.9 2.3 3.2 2.8 7 2.8 2.5 0 4.6.4 4.6 1 0 .5.6 1 1.3 1 2.5 0 8.7 6.7 8.7 9.4 0 1.4.5 2.6 1 2.6.6 0 1 .9 1 2s.5 2 1 2c.6 0 1 2.6 1 5.9 0 3.3.5 6.3 1 6.6.6.4 1 10.8 1 28s.4 27.6 1 28c.6.3 1 5.2 1 11.1 0 6.3.4 10.4 1 10.4s1 1.3 1 2.9c0 2.1-.6 3.2-2 3.6-3.1 1-7 5.3-7.7 8.6-.3 1.6-.9 2.9-1.4 2.9-.5 0-.9.9-.9 2s-.4 2-1 2c-.5 0-1 .7-1 1.5 0 .9-1.1 2.7-2.4 4.1-2.1 2.3-2.6 2.5-4.7 1.2-3-1.7-6.9-5.9-6.9-7.6 0-.6-.4-1.2-1-1.2-.5 0-1-.9-1-2s-.4-2-1-2c-.5 0-1-1.4-1-3 0-1.7-.4-3-1-3-.5 0-1-2.3-1-5 0-2.8.5-5 1-5 .6 0 1-.9 1-2s.5-2 1-2c.6 0 1-1.5 1-3.3 0-1.8.5-3.8 1.2-4.5.9-.9.9-1.5 0-2.4-.7-.7-1.2-2.7-1.2-4.5 0-1.8-.4-3.3-1-3.3-.5 0-1-.7-1-1.5s-.4-2.4-1-3.5c-.5-1.1-1.4-2.9-2-4-.5-1.1-1-2.7-1-3.5 0-.8-.4-1.5-1-1.5-.5 0-1-1.2-1-2.6 0-1.4-.6-3.2-1.4-4-2.1-2.1-4.6-1.7-4.6.6 0 1.1-.4 2-1 2-.5 0-1 .9-1 2s-.4 2-1 2c-.5 0-1 .9-1 2s-.4 2-1 2c-.5 0-1 .9-1 2s-.4 2-1 2c-.5 0-1 .7-1 1.6 0 3.3-2.6 4.4-10.4 4.4-4.2 0-7.6.3-7.6.6 0 2.2 3.5 3.4 10 3.4 6.2 0 7.4-.3 9.5-2.5 1.4-1.3 2.5-2.8 2.5-3.3 0-1.4 2.5-6.2 3.3-6.2.4 0 .7-.7.7-1.6 0-1.5 2.3-4.4 3.4-4.4.3 0 .6 1.3.6 3 0 1.6.5 3 1 3 .6 0 1 .9 1 2s.5 2 1 2c.6 0 1 .9 1 2s.5 2 1 2c.6 0 1 1.3 1 3 0 1.6.5 3 1 3 .6 0 1 1.3 1 3 0 1.6-.4 3-1 3-.5 0-1 1.3-1 3 0 1.6-.4 3-1 3-.5 0-1 .9-1 2s-.4 2-1 2c-.5 0-1 2.2-1 5 0 2.7.5 5 1 5 .6 0 1 1.3 1 3 0 1.6.5 3 1 3 .6 0 1 .9 1 2s.5 2 1 2c.6 0 1 .7 1 1.6 0 .9.8 2.4 1.8 3.3.9.9 2.3 2.8 3.1 4.3.8 1.6 1.8 2.8 2.3 2.8.4 0 .8.4.8 1 0 .5-.7 1-1.6 1-1.9 0-4.4 2.4-4.4 4.2 0 .8-.9 2-2 2.8-1.1.8-2 2.2-2 3.2s-.4 1.8-1 1.8c-.5 0-1 1.3-1 3 0 1.6-.4 3-1 3-.5 0-1 .9-1 2s-.4 2-1 2c-.5 0-1 1.3-1 3 0 1.6-.4 3-1 3-.5 0-1 .7-1 1.5 0 1.8-4.4 6.5-6 6.5-1.7 0-4-2.6-4-4.4 0-.9-.4-1.6-1-1.6-.5 0-1-.9-1-2s-.4-2-1-2c-.5 0-1-.9-1-2s-.4-2-1-2c-.5 0-1-1.2-1-2.6 0-1.4-.6-3.2-1.4-4-1.6-1.6-8.6-1.9-8.6-.4 0 .6-2.6 1-5.9 1-3.3 0-6.3-.5-6.6-1-.3-.6-1.7-1-3.1-1-1.3 0-2.4-.5-2.4-1 0-.6-1.3-1-3-1-1.6 0-3 .3-3 .6 0 1.5 5.7 5.4 7.8 5.4 1.2 0 2.2.4 2.2 1s3.3 1 8 1 8-.4 8-1 .9-1 2-1c1.3 0 2 .7 2 2 0 1.1.5 2 1 2 .6 0 1 .9 1 2s.5 2 1 2c.6 0 1 1.3 1 3 0 1.6.5 3 1 3 .6 0 1 .6 1 1.2 0 2.8 4.7 6.8 7.9 6.8 3.4 0 8.1-3.7 8.1-6.5 0-.8.5-1.5 1-1.5.6 0 1-.9 1-2s.4-2 .8-2c.5 0 1.5-2.3 2.2-5 .7-2.8 1.7-5 2.2-5 .4 0 .8-.9.8-2s.5-2 1-2c.6 0 1-.9 1-2s.5-2 1-2c.6 0 1-.7 1-1.6 0-2 2.4-4.4 4.4-4.4 1.4 0 1.6 2.2 1.6 17 0 10.7-.4 17-1 17-.5 0-1 1.3-1 3 0 1.6-.4 3-1 3-.5 0-1 .9-1 2s-.4 2-1 2c-.5 0-1 .9-1 2s-.4 2-1 2c-.5 0-1 1.1-1 2.4 0 1.4-.4 2.8-1 3.1-.5.3-1 2.4-1 4.6 0 2.1.5 3.9 1 3.9.6 0 1 1.3 1 3 0 1.6.5 3 1 3 .6 0 1 .9 1 2s.5 2 1 2c.6 0 1 .9 1 1.9 0 1.1-.4 2.3-1 2.6-.5.3-1 2.2-1 4.1 0 1.9-.4 3.4-1 3.4-.5 0-1 1.3-1 3 0 1.6-.4 3-1 3-.5 0-1 2.2-1 5 0 2.7-.4 5-1 5-.5 0-1 1.8-1 4s-.2 4-.6 4c-.3 0-3.2-2.7-6.4-6s-6.4-6-7-6c-.6 0-2.9-1.8-5-4s-4.5-4-5.4-4c-1.3 0-1.6-2.7-2-17.8-.5-19.5-1.3-28.2-2.7-28.2-.5 0-.9-1.4-.9-3 0-1.7-.4-3-1-3-.5 0-1-.7-1-1.5 0-1.9-10.4-12.5-12.3-12.5-.7 0-1.9-.9-2.7-2-.8-1.1-2.1-2-3-2-.9 0-2.2-.9-3-2-.8-1.1-2-2-2.7-2-1.9 0-10.3-8.6-10.3-10.5 0-.8-.4-1.5-1-1.5-.5 0-1-2-1-4.4 0-2.5-.4-4.8-1-5.1-.6-.4-1-6.3-1-14.5s-.4-14.1-1-14.5c-.5-.3-1-2.2-1-4.1 0-1.9-.4-3.4-1-3.4-.5 0-1-1.4-1-3 0-1.7-.4-3-1-3-.5 0-1-.9-1-2s-.4-2-1-2c-.5 0-1-.9-1-2s-.4-2-1-2-1-3.9-1-9.6c0-9.8.9-12.4 4.4-12.4.9 0 1.6-.5 1.6-1 0-.6 1.8-1 4-1s4 .4 4 1c0 .5.7 1 1.5 1 1.8 0 5.1 1.8 7.9 4.2 1.1 1 2.4 1.8 3 1.8 1.9 0 5.6-4.4 5.6-6.7 0-2.7-4.1-7.3-6.5-7.3-.8 0-1.5-.9-1.5-2s-.4-2-1-2c-.5 0-1-2.1-1-4.6 0-4.7-1.6-7.4-4.4-7.4-.9 0-1.6-.5-1.6-1 0-.6-1.1-1-2.5-1-3.4 0-4.3-2.6-1.6-4.9 1.1-1 2.1-2.6 2.1-3.5 0-.9.5-1.6 1-1.6.6 0 1-1.5 1-3.4s.5-3.8 1-4.1c.6-.3 1-2.4 1-4.6 0-2.1.5-3.9 1-3.9.6 0 1-2.1 1-4.6 0-4.6 1.6-7.4 4.2-7.4.8 0 2-.9 2.8-2 .8-1.1 2-2 2.7-2 1.6 0 14.3-12.5 14.3-14.1 0-3.5 7.4-5.9 18.6-6 4.9 0 9.8-.4 10.9-.9 2.9-1.3 98.5-1.3 98.5 0zm-168.2 37.9c2.3 1.9 3 5.1 1.2 5.1-.5 0-1 .7-1 1.6 0 1.5-2.3 4.4-3.4 4.4-.3 0-.6-2.9-.6-6.5s.4-6.5.8-6.5c.5 0 1.9.8 3 1.9zM444 295c0 2.7.5 5 1 5 .6 0 1 .4 1 1 0 1.5-2.9 1.2-4.6-.4-2.6-2.6-1.2-10.4 1.9-10.6.4 0 .7 2.2.7 5zm-94 289c0 1.1.5 2 1 2 .6 0 1 .7 1 1.6 0 .9 1.2 2.8 2.8 4.2 1.5 1.5 3.3 3.9 4.1 5.4.8 1.6 1.8 2.8 2.3 2.8.4 0 .8 2.7.8 6s-.4 6-1 6c-.5 0-1 1.6-1 3.6 0 1.9-.7 4.2-1.5 5-1.3 1.3-2 1-6-3l-4.5-4.5v-15.6c0-9.7.4-15.5 1-15.5s1 .9 1 2zm-38 10c0 4.7.4 8 1 8s1 4.9 1 12.6c0 12.6-.7 15.4-4 15.4-1.6 0-6-4.7-6-6.5 0-.8-.4-1.5-1-1.5-1.4 0-1.3-22.6.2-25.3.6-1.2 2.4-3.4 4-4.9 1.5-1.4 2.8-3.3 2.8-4.2 0-.9.5-1.6 1-1.6.6 0 1 3.3 1 8z"/><path d="M254.5 319.7c.4 4.3 1 12.6 1.4 18.4.8 13.8 2.1 15.9 9.9 15.9 3.3 0 5.9-.5 6.8-1.4 1.6-1.6 1.9-8.6.4-8.6-.5 0-1-.9-1-2s-.4-2-1-2c-.5 0-1-1.4-1-3 0-1.7-.4-3-1-3-.5 0-1-.6-1-1.3 0-.7-.9-3.2-2-5.5-1.1-2.2-2-4.8-2-5.7 0-.8-.4-1.5-1-1.5-.5 0-1-.7-1-1.5 0-2.1-4.5-6.5-6.6-6.5-1.5 0-1.6.9-.9 7.7zm146.8-6.2c-.7.8-1.3 1.9-1.3 2.5 0 .6-.9 2-2 3.2-1.1 1.2-2 2.8-2 3.5 0 .7-.4 1.3-1 1.3-.5 0-1 .6-1 1.3 0 .7-.9 2.3-2 3.5-1.1 1.2-2 2.8-2 3.7 0 .8-.4 1.5-1 1.5-.5 0-1 .9-1 2s-.4 2-1 2c-.5 0-1 1.6-1 3.5 0 2.7.8 4.4 3.5 7 4.1 4.2 7.3 4.5 10.3 1 2-2.2 2.2-3.7 2.2-13 0-6.3.4-10.5 1-10.5s1-1.8 1-4 .5-4 1-4c.6 0 1-1.4 1-3 0-3.3-2.5-4.1-4.7-1.5zM372 344c0 1.1-.4 2-1 2-.5 0-1 1.3-1 3 0 1.6-.4 3-1 3s-1 3-1 7-.4 7-1 7c-.5 0-1 1.8-1 4s.5 4 1 4c.6 0 1 1.8 1 4s.5 4 1 4c.6 0 1 .9 1 2s.5 2 1 2c.6 0 1 1.1 1 2.6 0 1.8-1.8 4.2-6 8.4-3.3 3.2-6 6.6-6 7.4 0 .9-.4 1.6-1 1.6-.5 0-1 .9-1 1.9 0 1.1-.6 2.1-1.2 2.4-1 .3-.8.9.4 2.3 1.7 1.7 1.8 1.7 3.3-.1.8-1.1 1.5-2.8 1.5-3.7 0-.9 3.2-4.8 7-8.7 5.3-5.4 7-7.8 7-9.9 0-3-2-8.2-3.2-8.2-.5 0-.8-1.4-.8-3 0-1.7-.4-3-1-3s-1-3-1-7 .4-7 1-7 1-2.2 1-4.9c0-2.8.5-5.3 1-5.6.6-.3 1-1.7 1-3.1 0-1.3.3-2.4.6-2.4 1 0 3.4 2.8 3.4 4 0 .6.9 2 2 3.2 1.1 1.2 2 2.8 2 3.5 0 .7.5 1.3 1 1.3.6 0 1 .7 1 1.6 0 2.9 7 8.4 10.6 8.4 1.8 0 3.6-.5 3.9-1 .3-.6 1.7-1 3.1-1 1.7 0 2.4-.5 2.4-2 0-1.7-.7-2-4-2-2.2 0-4 .4-4 1 0 2.1-3.2.9-6.5-2.5-1.9-1.9-3.5-4.1-3.5-5 0-.8-.4-1.5-1-1.5-.5 0-1-.9-1-2s-.4-2-1-2c-.5 0-1-.9-1-2s-.4-2-1-2c-.5 0-1-.9-1-2 0-1.7-.7-2-4-2s-4 .3-4 2zm-151 9.7c-1 1.2-1.1 1.8-.2 2.1.7.2 1.2 1.7 1.2 3.3 0 1.6.5 2.9 1 2.9.6 0 1 1.3 1 3 0 1.6.5 3 1 3 .6 0 1 1.3 1 3 0 1.6.5 3 1 3 .6 0 1 6.3 1 17s.4 17 1 17 1 1.3 1 3c0 1.6.5 3 1 3 .6 0 1 .9 1 2s.5 2 1 2c.6 0 1 .7 1 1.5 0 2 4.5 6.5 6.5 6.5.8 0 1.5.4 1.5.8 0 1.2 4.6 3.2 7.3 3.2 1.3 0 2.8.5 3.5 1.2.9.9 1.5.9 2.4 0 .7-.7 1.8-1.2 2.6-1.2 3.4 0 4.2-2.7 4.2-13.4 0-6.4.4-10.6 1-10.6s1-.8 1-1.8.9-2.4 2-3.2c1.1-.8 2-2.2 2-3.2s.5-1.8 1-1.8c.6 0 1-.6 1-1.3 0-.7.9-2.3 2-3.5 1.5-1.6 2-3.5 2-8.2 0-8.7-.5-9-14.2-9-10.2 0-11.5-.2-12.8-2-.8-1.1-2-2-2.7-2-.7 0-2.7-1.4-4.5-3-1.7-1.7-3.5-3-4-3-1.3 0-5.1-4.1-6.7-7.1-.7-1.5-2.4-3.2-3.8-3.8-2.9-1.3-2.5-1.4-4.3.6zM360 421c0 1.6.5 3 1 3 .6 0 1-.5 1-1 0-1.4 2.9-1.2 4.3.3 1.9 2.1 3.7 5.6 3.7 7.2 0 .8.5 1.5 1 1.5.6 0 1 1.3 1 3 0 1.6.5 3 1 3 .6 0 1 1.3 1 3 0 1.6.5 3 1 3 .6 0 1 .9 1 2s.5 2 1 2c.6 0 1 .9 1 2s.5 2 1 2c.6 0 1 .7 1 1.5 0 .9.7 1.8 1.4 2.1 1.7.7 8.6-5.8 8.6-8 0-.8.5-1.8 1-2.1.6-.3 1-1.4 1-2.3 0-2.8 4.5-7.2 7.4-7.2 1.9 0 2.6-.5 2.6-2 0-1.6-.7-2-3.5-2-3.8 0-8.5 3.6-8.5 6.5 0 .8-.4 1.5-1 1.5-.5 0-1 .9-1 2s-.4 2-1 2c-.5 0-1 .9-1 2s-.4 2-1 2c-.5 0-1 .7-1 1.5s-.4 1.5-1 1.5c-.5 0-1-.7-1-1.5s-.4-1.5-1-1.5c-.5 0-1-1.4-1-3 0-1.7-.4-3-1-3-.5 0-1-.9-1-2s-.4-2-1-2c-.5 0-1-1.4-1-3 0-1.7-.4-3-1-3-.5 0-1-1.4-1-3 0-1.7-.4-3-1-3-.5 0-1-.7-1-1.5 0-2.9-4.7-6.5-8.5-6.5-3.2 0-3.5.2-3.5 3z"/></g><path d="M406.3 79.7c.9.2 2.5.2 3.5 0 .9-.3.1-.5-1.8-.5-1.9 0-2.7.2-1.7.5zm-5.1 8.3c0 1.9.2 2.7.5 1.7.2-.9.2-2.5 0-3.5-.3-.9-.5-.1-.5 1.8zm-141 7.5c0 1.6.2 2.2.5 1.2.2-.9.2-2.3 0-3-.3-.6-.5.1-.5 1.8zm139.2 14c0 8.2.2 11.5.3 7.2.2-4.3.2-11 0-15-.1-4-.3-.5-.3 7.8zm-137 .5c0 5.2.1 7.4.3 4.7.2-2.6.2-6.8 0-9.5-.2-2.6-.3-.4-.3 4.8zm-2.2 15.5c0 1.6.2 2.2.5 1.2.2-.9.2-2.3 0-3-.3-.6-.5.1-.5 1.8zm141 4.5c0 1.9.2 2.7.5 1.7.2-.9.2-2.5 0-3.5-.3-.9-.5-.1-.5 1.8zm71.1 3.7c.9.2 2.5.2 3.5 0 .9-.3.1-.5-1.8-.5-1.9 0-2.7.2-1.7.5zm-300.5 6c.6.2 1.8.2 2.5 0 .6-.3.1-.5-1.3-.5-1.4 0-1.9.2-1.2.5zm-18 6c.6.2 1.8.2 2.5 0 .6-.3.1-.5-1.3-.5-1.4 0-1.9.2-1.2.5zm336 13c.6.2 1.8.2 2.5 0 .6-.3.1-.5-1.3-.5-1.4 0-1.9.2-1.2.5zm-350.7 39.9c0 1.1.3 1.4.6.6.3-.7.2-1.6-.1-1.9-.3-.4-.6.2-.5 1.3zm385.1 4.4c0 1.4.2 1.9.5 1.2.2-.6.2-1.8 0-2.5-.3-.6-.5-.1-.5 1.3zm-386.9 7c0 4.1.2 5.8.4 3.7.2-2 .2-5.4 0-7.5-.2-2-.4-.3-.4 3.8zm23 5c0 4.7.2 6.6.4 4.2.2-2.3.2-6.1 0-8.5-.2-2.3-.4-.4-.4 4.3zm366.1 1.5c0 5.5.1 7.6.3 4.7.2-2.9.2-7.4 0-10-.2-2.6-.3-.2-.3 5.3zm-426.3-5.9c0 1.1.3 1.4.6.6.3-.7.2-1.6-.1-1.9-.3-.4-.6.2-.5 1.3zm-28.9 6.9c0 1.6.2 2.2.5 1.2.2-.9.2-2.3 0-3-.3-.6-.5.1-.5 1.8zm27 .5c0 1.9.2 2.7.5 1.7.2-.9.2-2.5 0-3.5-.3-.9-.5-.1-.5 1.8zm404.9-1.4c0 1.1.3 1.4.6.6.3-.7.2-1.6-.1-1.9-.3-.4-.6.2-.5 1.3zm62 2c0 1.1.3 1.4.6.6.3-.7.2-1.6-.1-1.9-.3-.4-.6.2-.5 1.3zM139.2 223c0 1.4.2 1.9.5 1.2.2-.6.2-1.8 0-2.5-.3-.6-.5-.1-.5 1.3zm-69.9 4.5c0 2.7.2 3.8.4 2.2.2-1.5.2-3.7 0-5-.2-1.2-.4 0-.4 2.8zm498-.5c0 2.5.2 3.5.4 2.2.2-1.2.2-3.2 0-4.5-.2-1.2-.4-.2-.4 2.3zm-470.9 8c0 5.8.1 8.1.3 5.2.2-2.8.2-7.6 0-10.5-.2-2.8-.3-.5-.3 5.3zm496 4c0 5.8.1 8.1.3 5.2.2-2.8.2-7.6 0-10.5-.2-2.8-.3-.5-.3 5.3zm-254.2-3.3c5.9.2 15.8.2 22 0 6.2-.1 1.4-.3-10.7-.3s-17.2.2-11.3.3zM67.3 242c0 3 .2 4.3.4 2.7.2-1.5.2-3.9 0-5.5-.2-1.5-.4-.2-.4 2.8zm130.5-.3c.6.2 1.8.2 2.5 0 .6-.3.1-.5-1.3-.5-1.4 0-1.9.2-1.2.5zm66.5 0c.9.2 2.5.2 3.5 0 .9-.3.1-.5-1.8-.5-1.9 0-2.7.2-1.7.5zm133.5 0c.6.2 1.8.2 2.5 0 .6-.3.1-.5-1.3-.5-1.4 0-1.9.2-1.2.5zm52.5 0c2 .2 5.4.2 7.5 0 2-.2.3-.4-3.8-.4s-5.8.2-3.7.4zm117 6.3c0 3 .2 4.3.4 2.7.2-1.5.2-3.9 0-5.5-.2-1.5-.4-.2-.4 2.8zm-344.9 9c0 5.8.1 8.1.3 5.2.2-2.8.2-7.6 0-10.5-.2-2.8-.3-.5-.3 5.3zm-124.1-4.5c0 2.2.2 3 .4 1.7.2-1.2.2-3 0-4-.3-.9-.5.1-.4 2.3zm340.9-1c0 1.6.2 2.2.5 1.2.2-.9.2-2.3 0-3-.3-.6-.5.1-.5 1.8zm-369.9 5c0 3.3.2 4.5.4 2.7.2-1.8.2-4.5 0-6s-.4 0-.4 3.3zm520.9-.5c0 1.9.2 2.7.5 1.7.2-.9.2-2.5 0-3.5-.3-.9-.5-.1-.5 1.8zm-319.4-1.3c2.3.2 6.1.2 8.5 0 2.3-.2.4-.4-4.3-.4s-6.6.2-4.2.4zm117 0c.6.2 1.8.2 2.5 0 .6-.3.1-.5-1.3-.5-1.4 0-1.9.2-1.2.5zm49.4 4.8c0 1.6.2 2.2.5 1.2.2-.9.2-2.3 0-3-.3-.6-.5.1-.5 1.8zm-337.1 1.1c0 1.1.3 1.4.6.6.3-.7.2-1.6-.1-1.9-.3-.4-.6.2-.5 1.3zm76.7.1c3.4.2 9 .2 12.5 0 3.4-.2.6-.3-6.3-.3-6.9 0-9.7.1-6.2.3zm300.5 0c1.5.2 3.9.2 5.5 0 1.5-.2.2-.4-2.8-.4s-4.3.2-2.7.4zM71.2 268c0 1.9.2 2.7.5 1.7.2-.9.2-2.5 0-3.5-.3-.9-.5-.1-.5 1.8zm128.1 1c0 2.5.2 3.5.4 2.2.2-1.2.2-3.2 0-4.5-.2-1.2-.4-.2-.4 2.3zm260.9 7c0 1.9.2 2.7.5 1.7.2-.9.2-2.5 0-3.5-.3-.9-.5-.1-.5 1.8zm-387.1-.4c0 1.1.3 1.4.6.6.3-.7.2-1.6-.1-1.9-.3-.4-.6.2-.5 1.3zm124.1 4.4c0 1.9.2 2.7.5 1.7.2-.9.2-2.5 0-3.5-.3-.9-.5-.1-.5 1.8zm223.7-1.3c3.1.3 4.1.9 4.5 2.6.4 1.8.4 1.8.3-.3-.2-2.2-.7-2.5-4.5-2.6l-4.2-.1 3.9.4zM234.3 285c0 2.5.2 3.5.4 2.2.2-1.2.2-3.2 0-4.5-.2-1.2-.4-.2-.4 2.3zm227.8-.4c0 1.1.3 1.4.6.6.3-.7.2-1.6-.1-1.9-.3-.4-.6.2-.5 1.3zM195.2 287c0 1.4.2 1.9.5 1.2.2-.6.2-1.8 0-2.5-.3-.6-.5-.1-.5 1.3zm122 0c0 1.4.2 1.9.5 1.2.2-.6.2-1.8 0-2.5-.3-.6-.5-.1-.5 1.3zm15 0c0 1.4.2 1.9.5 1.2.2-.6.2-1.8 0-2.5-.3-.6-.5-.1-.5 1.3zm95.1 4c0 2.5.2 3.5.4 2.2.2-1.2.2-3.2 0-4.5-.2-1.2-.4-.2-.4 2.3zm-234.1 2c0 1.4.2 1.9.5 1.2.2-.6.2-1.8 0-2.5-.3-.6-.5-.1-.5 1.3zm21.1 2c0 2.5.2 3.5.4 2.2.2-1.2.2-3.2 0-4.5-.2-1.2-.4-.2-.4 2.3zm17.9-1.5c0 1.6.2 2.2.5 1.2.2-.9.2-2.3 0-3-.3-.6-.5.1-.5 1.8zm98.1 1.5c0 2.5.2 3.5.4 2.2.2-1.2.2-3.2 0-4.5-.2-1.2-.4-.2-.4 2.3zm113-.5c0 2.2.2 3 .4 1.7.2-1.2.2-3 0-4-.3-.9-.5.1-.4 2.3zm-3.1 1c0 1.6.2 2.2.5 1.2.2-.9.2-2.3 0-3-.3-.6-.5.1-.5 1.8zm-118.9 4c0 2.7.2 3.8.4 2.2.2-1.5.2-3.7 0-5-.2-1.2-.4 0-.4 2.8zm107.9 1.5c0 1.4.2 1.9.5 1.2.2-.6.2-1.8 0-2.5-.3-.6-.5-.1-.5 1.3zm-285.4.7c.6.2 1.8.2 2.5 0 .6-.3.1-.5-1.3-.5-1.4 0-1.9.2-1.2.5zm184.6 26.8c0 14.3.2 20 .3 12.7.2-7.3.2-19 0-26-.1-7-.3-1-.3 13.3zm153.4-20.8c1.7.2 4.7.2 6.5 0 1.7-.2.3-.4-3.3-.4-3.6 0-5 .2-3.2.4zM323.4 334c0 14 .2 19.8.3 12.7.2-7 .2-18.4 0-25.5-.1-7-.3-1.2-.3 12.8zm-70.1-16c0 3 .2 4.3.4 2.7.2-1.5.2-3.9 0-5.5-.2-1.5-.4-.2-.4 2.8zm152.8-3.4c0 1.1.3 1.4.6.6.3-.7.2-1.6-.1-1.9-.3-.4-.6.2-.5 1.3zm-1.9 6.4c0 1.4.2 1.9.5 1.2.2-.6.2-1.8 0-2.5-.3-.6-.5-.1-.5 1.3zm-167.9 3.5c0 2.2.2 3 .4 1.7.2-1.2.2-3 0-4-.3-.9-.5.1-.4 2.3zm166.1 12c0 5.5.1 7.6.3 4.7.2-2.9.2-7.4 0-10-.2-2.6-.3-.2-.3 5.3zM255.3 339c0 4.7.2 6.6.4 4.2.2-2.3.2-6.1 0-8.5-.2-2.3-.4-.4-.4 4.3zm14.8-2.4c0 1.1.3 1.4.6.6.3-.7.2-1.6-.1-1.9-.3-.4-.6.2-.5 1.3zm188 2c0 1.1.3 1.4.6.6.3-.7.2-1.6-.1-1.9-.3-.4-.6.2-.5 1.3zm-310.3.1c.6.2 1.8.2 2.5 0 .6-.3.1-.5-1.3-.5-1.4 0-1.9.2-1.2.5zm352 0c.6.2 1.8.2 2.5 0 .6-.3.1-.5-1.3-.5-1.4 0-1.9.2-1.2.5zM246.2 341c0 1.4.2 1.9.5 1.2.2-.6.2-1.8 0-2.5-.3-.6-.5-.1-.5 1.3zm139 .5c0 1.6.2 2.2.5 1.2.2-.9.2-2.3 0-3-.3-.6-.5.1-.5 1.8zm30-.5c0 1.4.2 1.9.5 1.2.2-.6.2-1.8 0-2.5-.3-.6-.5-.1-.5 1.3zm-213.9 6c0 3.6.2 5 .4 3.2.2-1.7.2-4.7 0-6.5-.2-1.7-.4-.3-.4 3.3zm88.8-2.4c0 1.1.3 1.4.6.6.3-.7.2-1.6-.1-1.9-.3-.4-.6.2-.5 1.3zm170.1.4c0 1.4.2 1.9.5 1.2.2-.6.2-1.8 0-2.5-.3-.6-.5-.1-.5 1.3zm-287.4-.3c2.3.2 6.1.2 8.5 0 2.3-.2.4-.4-4.3-.4s-6.6.2-4.2.4zm272.9 0c.6.5 1.4 3.1 1.6 5.8l.4 5-.1-5.4c-.1-3.9-.5-5.6-1.6-5.8-1-.3-1.1-.2-.3.4zm-231.3 8.8c0 4.9.1 7.1.3 4.8.2-2.3.2-6.4 0-9-.2-2.6-.3-.8-.3 4.2zm59.8-6c0 1.6.2 2.2.5 1.2.2-.9.2-2.3 0-3-.3-.6-.5.1-.5 1.8zm94.9 1.1c0 1.1.3 1.4.6.6.3-.7.2-1.6-.1-1.9-.3-.4-.6.2-.5 1.3zm-82 2c0 1.1.3 1.4.6.6.3-.7.2-1.6-.1-1.9-.3-.4-.6.2-.5 1.3zm80.2 7.9c0 3.3.2 4.5.4 2.7.2-1.8.2-4.5 0-6s-.4 0-.4 3.3zm5-1.5c0 2.5.2 3.5.4 2.2.2-1.2.2-3.2 0-4.5-.2-1.2-.4-.2-.4 2.3zm67.8-.4c0 1.1.3 1.4.6.6.3-.7.2-1.6-.1-1.9-.3-.4-.6.2-.5 1.3zm20.2 1.9c0 2.2.2 3 .4 1.7.2-1.2.2-3 0-4-.3-.9-.5.1-.4 2.3zm-261 4c0 3.3.2 4.5.4 2.7.2-1.8.2-4.5 0-6s-.4 0-.4 3.3zm21.9-3.5c0 1.4.2 1.9.5 1.2.2-.6.2-1.8 0-2.5-.3-.6-.5-.1-.5 1.3zm223.9 1.6c0 1.1.3 1.4.6.6.3-.7.2-1.6-.1-1.9-.3-.4-.6.2-.5 1.3zm-182.3 1.1c1.8.2 4.5.2 6 0s0-.4-3.3-.4-4.5.2-2.7.4zm67.6 8.3c0 5.2.1 7.4.3 4.7.2-2.6.2-6.8 0-9.5-.2-2.6-.3-.4-.3 4.8zm67.9-8.3c.9.2 2.5.2 3.5 0 .9-.3.1-.5-1.8-.5-1.9 0-2.7.2-1.7.5zm39.8.9c0 1.1.3 1.4.6.6.3-.7.2-1.6-.1-1.9-.3-.4-.6.2-.5 1.3zM223.2 365c0 1.4.2 1.9.5 1.2.2-.6.2-1.8 0-2.5-.3-.6-.5-.1-.5 1.3zm70 0c0 1.4.2 1.9.5 1.2.2-.6.2-1.8 0-2.5-.3-.6-.5-.1-.5 1.3zm5 0c0 1.4.2 1.9.5 1.2.2-.6.2-1.8 0-2.5-.3-.6-.5-.1-.5 1.3zm72.1 3.5c0 3.3.2 4.5.4 2.7.2-1.8.2-4.5 0-6s-.4 0-.4 3.3zm-44.9 5c0 4.9.1 7.1.3 4.8.2-2.3.2-6.4 0-9-.2-2.6-.3-.8-.3 4.2zm132.8-6c0 1.6.2 2.2.5 1.2.2-.9.2-2.3 0-3-.3-.6-.5.1-.5 1.8zm-93 2.5c0 1.9.2 2.7.5 1.7.2-.9.2-2.5 0-3.5-.3-.9-.5-.1-.5 1.8zm70.9-1.4c0 1.1.3 1.4.6.6.3-.7.2-1.6-.1-1.9-.3-.4-.6.2-.5 1.3zm-42.3.1c.6.2 1.8.2 2.5 0 .6-.3.1-.5-1.3-.5-1.4 0-1.9.2-1.2.5zM225.2 371c0 1.4.2 1.9.5 1.2.2-.6.2-1.8 0-2.5-.3-.6-.5-.1-.5 1.3zm70 0c0 1.4.2 1.9.5 1.2.2-.6.2-1.8 0-2.5-.3-.6-.5-.1-.5 1.3zm-75.1 3.6c0 1.1.3 1.4.6.6.3-.7.2-1.6-.1-1.9-.3-.4-.6.2-.5 1.3zm34.2-.9c3.1.2 8.3.2 11.5 0 3.1-.2.5-.3-5.8-.3s-8.9.1-5.7.3zm141.5 0c.6.2 1.8.2 2.5 0 .6-.3.1-.5-1.3-.5-1.4 0-1.9.2-1.2.5zm38.3.9c0 1.1.3 1.4.6.6.3-.7.2-1.6-.1-1.9-.3-.4-.6.2-.5 1.3zM227.4 390c0 8.5.2 12 .3 7.7.2-4.2.2-11.2 0-15.5-.1-4.2-.3-.7-.3 7.8zm65.8-13c0 1.4.2 1.9.5 1.2.2-.6.2-1.8 0-2.5-.3-.6-.5-.1-.5 1.3zm5 0c0 1.4.2 1.9.5 1.2.2-.6.2-1.8 0-2.5-.3-.6-.5-.1-.5 1.3zm141.1 4.5c0 3.8.2 5.3.4 3.2.2-2 .2-5.2 0-7-.2-1.7-.4-.1-.4 3.8zm-165 1c0 3.3.2 4.5.4 2.7.2-1.8.2-4.5 0-6s-.4 0-.4 3.3zm92.8-3.9c0 1.1.3 1.4.6.6.3-.7.2-1.6-.1-1.9-.3-.4-.6.2-.5 1.3zm5 0c0 1.1.3 1.4.6.6.3-.7.2-1.6-.1-1.9-.3-.4-.6.2-.5 1.3zM222.2 381c0 1.4.2 1.9.5 1.2.2-.6.2-1.8 0-2.5-.3-.6-.5-.1-.5 1.3zm163.1 3.5c0 2.2.2 3 .4 1.7.2-1.2.2-3 0-4-.3-.9-.5.1-.4 2.3zm47 4.5c0 4.7.2 6.6.4 4.2.2-2.3.2-6.1 0-8.5-.2-2.3-.4-.4-.4 4.3zm-100.1-3.5c0 1.6.2 2.2.5 1.2.2-.9.2-2.3 0-3-.3-.6-.5.1-.5 1.8zm-125.1 1.1c0 1.1.3 1.4.6.6.3-.7.2-1.6-.1-1.9-.3-.4-.6.2-.5 1.3zm82.2 1.9c0 2.2.2 3 .4 1.7.2-1.2.2-3 0-4-.3-.9-.5.1-.4 2.3zm5 0c0 2.2.2 3 .4 1.7.2-1.2.2-3 0-4-.3-.9-.5.1-.4 2.3zm32.8-1.9c0 1.1.3 1.4.6.6.3-.7.2-1.6-.1-1.9-.3-.4-.6.2-.5 1.3zm-102.7 12.9c0 7.1.1 9.9.3 6.2.2-3.7.2-9.6 0-13-.2-3.4-.3-.4-.3 6.8zM371.2 389c0 1.4.2 1.9.5 1.2.2-.6.2-1.8 0-2.5-.3-.6-.5-.1-.5 1.3zm5 .5c0 1.6.2 2.2.5 1.2.2-.9.2-2.3 0-3-.3-.6-.5.1-.5 1.8zm74-.5c0 1.4.2 1.9.5 1.2.2-.6.2-1.8 0-2.5-.3-.6-.5-.1-.5 1.3zm-241.1 3.6c0 1.1.3 1.4.6.6.3-.7.2-1.6-.1-1.9-.3-.4-.6.2-.5 1.3zm82 4c0 1.1.3 1.4.6.6.3-.7.2-1.6-.1-1.9-.3-.4-.6.2-.5 1.3zm5 0c0 1.1.3 1.4.6.6.3-.7.2-1.6-.1-1.9-.3-.4-.6.2-.5 1.3zm36.3 23.4c0 14 .2 19.8.3 12.7.2-7 .2-18.4 0-25.5-.1-7-.3-1.2-.3 12.8zm116-11.5c0 7.7.2 10.7.3 6.7.2-4 .2-10.3 0-14-.2-3.7-.3-.4-.3 7.3zm-237.1-8c0 2.2.2 3 .4 1.7.2-1.2.2-3 0-4-.3-.9-.5.1-.4 2.3zM327.4 415c0 10.2.2 14.3.3 9.2.2-5 .2-13.4 0-18.5-.1-5-.3-.9-.3 9.3zm-114.2-5c0 1.9.2 2.7.5 1.7.2-.9.2-2.5 0-3.5-.3-.9-.5-.1-.5 1.8zm49.1 1c0 2.5.2 3.5.4 2.2.2-1.2.2-3.2 0-4.5-.2-1.2-.4-.2-.4 2.3zm137 3c0 4.1.2 5.8.4 3.7.2-2 .2-5.4 0-7.5-.2-2-.4-.3-.4 3.8zm33.5.2c.5 10.8 1 11.5 1.1 1.5 0-4.8-.3-8.7-.7-8.7-.4 0-.6 3.3-.4 7.2zm-203.7-3.6c0 1.1.3 1.4.6.6.3-.7.2-1.6-.1-1.9-.3-.4-.6.2-.5 1.3zm-17.9 8.4c0 1.4.2 1.9.5 1.2.2-.6.2-1.8 0-2.5-.3-.6-.5-.1-.5 1.3zm15 .5c0 1.6.2 2.2.5 1.2.2-.9.2-2.3 0-3-.3-.6-.5.1-.5 1.8zm132.9 1.1c0 1.1.3 1.4.6.6.3-.7.2-1.6-.1-1.9-.3-.4-.6.2-.5 1.3zm-96.9 3.4c0 1.9.2 2.7.5 1.7.2-.9.2-2.5 0-3.5-.3-.9-.5-.1-.5 1.8zm89 0c0 1.9.2 2.7.5 1.7.2-.9.2-2.5 0-3.5-.3-.9-.5-.1-.5 1.8zm5.1.5c0 2.2.2 3 .4 1.7.2-1.2.2-3 0-4-.3-.9-.5.1-.4 2.3zm-51 4.5c0 3.6.2 5 .4 3.2.2-1.7.2-4.7 0-6.5-.2-1.7-.4-.3-.4 3.3zm5-1c0 3 .2 4.3.4 2.7.2-1.5.2-3.9 0-5.5-.2-1.5-.4-.2-.4 2.8zm-97.1-.5c0 1.6.2 2.2.5 1.2.2-.9.2-2.3 0-3-.3-.6-.5.1-.5 1.8zm160.9 1.1c0 1.1.3 1.4.6.6.3-.7.2-1.6-.1-1.9-.3-.4-.6.2-.5 1.3zm72.1 1.4c0 1.9.2 2.7.5 1.7.2-.9.2-2.5 0-3.5-.3-.9-.5-.1-.5 1.8zm-96.8 7.5c0 4.9.1 7.1.3 4.8.2-2.3.2-6.4 0-9-.2-2.6-.3-.8-.3 4.2zm-58.3-4.9c0 1.1.3 1.4.6.6.3-.7.2-1.6-.1-1.9-.3-.4-.6.2-.5 1.3zm-39.8 1.1c1.5.2 3.9.2 5.5 0 1.5-.2.2-.4-2.8-.4s-4.3.2-2.7.4zm103 5.8c0 3.8.2 5.3.4 3.2.2-2 .2-5.2 0-7-.2-1.7-.4-.1-.4 3.8zm16.8-4.9c0 1.1.3 1.4.6.6.3-.7.2-1.6-.1-1.9-.3-.4-.6.2-.5 1.3zm5 0c0 1.1.3 1.4.6.6.3-.7.2-1.6-.1-1.9-.3-.4-.6.2-.5 1.3zM270.2 437c0 1.4.2 1.9.5 1.2.2-.6.2-1.8 0-2.5-.3-.6-.5-.1-.5 1.3zm137.6 3.7c.6.2 1.8.2 2.5 0 .6-.3.1-.5-1.3-.5-1.4 0-1.9.2-1.2.5zM287.2 443c0 1.4.2 1.9.5 1.2.2-.6.2-1.8 0-2.5-.3-.6-.5-.1-.5 1.3zm18.1 5c0 3.6.2 5 .4 3.2.2-1.7.2-4.7 0-6.5-.2-1.7-.4-.3-.4 3.3zm19.9-2c0 1.9.2 2.7.5 1.7.2-.9.2-2.5 0-3.5-.3-.9-.5-.1-.5 1.8zm54.9-1.4c0 1.1.3 1.4.6.6.3-.7.2-1.6-.1-1.9-.3-.4-.6.2-.5 1.3zm-111 2c0 1.1.3 1.4.6.6.3-.7.2-1.6-.1-1.9-.3-.4-.6.2-.5 1.3zm41.2 4.4c0 3.6.2 5 .4 3.2.2-1.7.2-4.7 0-6.5-.2-1.7-.4-.3-.4 3.3zm22.1 9c0 6.3.1 8.9.3 5.7.2-3.1.2-8.3 0-11.5-.2-3.1-.3-.5-.3 5.8zm66.9-7c0 2.5.2 3.5.4 2.2.2-1.2.2-3.2 0-4.5-.2-1.2-.4-.2-.4 2.3zm-96.2 5.6c0 1.1.3 1.4.6.6.3-.7.2-1.6-.1-1.9-.3-.4-.6.2-.5 1.3zm52.1 1.4c0 1.9.2 2.7.5 1.7.2-.9.2-2.5 0-3.5-.3-.9-.5-.1-.5 1.8zm5 0c0 1.9.2 2.7.5 1.7.2-.9.2-2.5 0-3.5-.3-.9-.5-.1-.5 1.8zm-81.9-1.3c.9.2 2.5.2 3.5 0 .9-.3.1-.5-1.8-.5-1.9 0-2.7.2-1.7.5zm-14.1 2.3c0 1.4.2 1.9.5 1.2.2-.6.2-1.8 0-2.5-.3-.6-.5-.1-.5 1.3zm2 7c0 1.9.2 2.7.5 1.7.2-.9.2-2.5 0-3.5-.3-.9-.5-.1-.5 1.8zm91.1 4c0 4.1.2 5.8.4 3.7.2-2 .2-5.4 0-7.5-.2-2-.4-.3-.4 3.8zm5 1c0 4.7.2 6.6.4 4.2.2-2.3.2-6.1 0-8.5-.2-2.3-.4-.4-.4 4.3zm-36.9 16.5c0 12.1.2 16.9.3 10.7.2-6.2.2-16.1 0-22-.1-5.9-.3-.8-.3 11.3zm67.7-18.9c0 1.1.3 1.4.6.6.3-.7.2-1.6-.1-1.9-.3-.4-.6.2-.5 1.3zm-143.9 2.9c0 1.6.2 2.2.5 1.2.2-.9.2-2.3 0-3-.3-.6-.5.1-.5 1.8zm142.1 8c0 3.8.2 5.3.4 3.2.2-2 .2-5.2 0-7-.2-1.7-.4-.1-.4 3.8zm-122.9 11c0 8.8.2 12.3.3 7.7.2-4.6.2-11.8 0-16-.1-4.2-.3-.5-.3 8.3zm26.8-13c0 1.6.2 2.2.5 1.2.2-.9.2-2.3 0-3-.3-.6-.5.1-.5 1.8zm5 0c0 1.6.2 2.2.5 1.2.2-.9.2-2.3 0-3-.3-.6-.5.1-.5 1.8zm-48.8 22c0 12.6.2 17.7.3 11.2.2-6.5.2-16.8 0-23-.1-6.2-.3-.9-.3 11.8zm78.9-14.5c0 4.7.2 6.6.4 4.2.2-2.3.2-6.1 0-8.5-.2-2.3-.4-.4-.4 4.3zm77.9-3c0 1.9.2 2.7.5 1.7.2-.9.2-2.5 0-3.5-.3-.9-.5-.1-.5 1.8zm-111.1 2.6c0 1.1.3 1.4.6.6.3-.7.2-1.6-.1-1.9-.3-.4-.6.2-.5 1.3zm63.1.9c0 1.6.2 2.2.5 1.2.2-.9.2-2.3 0-3-.3-.6-.5.1-.5 1.8zm-5 3.5c0 1.4.2 1.9.5 1.2.2-.6.2-1.8 0-2.5-.3-.6-.5-.1-.5 1.3zm51.1 4c0 2.5.2 3.5.4 2.2.2-1.2.2-3.2 0-4.5-.2-1.2-.4-.2-.4 2.3zm-44.2-.4c0 1.1.3 1.4.6.6.3-.7.2-1.6-.1-1.9-.3-.4-.6.2-.5 1.3zm27.3 7.4c0 5.2.1 7.4.3 4.7.2-2.6.2-6.8 0-9.5-.2-2.6-.3-.4-.3 4.8zm-83.2-5c0 1.4.2 1.9.5 1.2.2-.6.2-1.8 0-2.5-.3-.6-.5-.1-.5 1.3zm58.3 14.2c0 12.1 0 12.3 2.3 12.4 1.8.1 1.8.1.2-.3-1.8-.4-2-1.4-2.3-12.4l-.3-11.9.1 12.2zm-65.3-8.2c0 1.4.2 1.9.5 1.2.2-.6.2-1.8 0-2.5-.3-.6-.5-.1-.5 1.3zm60.2 9.5c0 6.6.1 9.2.3 5.7.2-3.4.2-8.8 0-12-.2-3.1-.3-.3-.3 6.3zm-55.3-7.9c0 1.1.3 1.4.6.6.3-.7.2-1.6-.1-1.9-.3-.4-.6.2-.5 1.3zm28.3 29.9c0 17.6.2 24.7.3 15.7.2-9 .2-23.4 0-32-.1-8.6-.3-1.3-.3 16.3zm76-27.6c.1 3 .6 4.6 1.6 4.8 1 .3 1.1.2.3-.4-.6-.4-1.3-2.6-1.6-4.8-.4-4-.4-4-.3.4zM297.2 509c0 1.4.2 1.9.5 1.2.2-.6.2-1.8 0-2.5-.3-.6-.5-.1-.5 1.3zm4.9 1.6c0 1.1.3 1.4.6.6.3-.7.2-1.6-.1-1.9-.3-.4-.6.2-.5 1.3zm110.2 7.4c0 3 .2 4.3.4 2.7.2-1.5.2-3.9 0-5.5-.2-1.5-.4-.2-.4 2.8zm-117.1-1.5c0 1.6.2 2.2.5 1.2.2-.9.2-2.3 0-3-.3-.6-.5.1-.5 1.8zm5 1c0 1.6.2 2.2.5 1.2.2-.9.2-2.3 0-3-.3-.6-.5.1-.5 1.8zm27.2 24.5c0 12.9.2 18.2.3 11.7.2-6.4.2-17 0-23.5-.1-6.4-.3-1.1-.3 11.8zm61.7-19.4c0 1.1.3 1.4.6.6.3-.7.2-1.6-.1-1.9-.3-.4-.6.2-.5 1.3zm-95.9 3.4c0 1.9.2 2.7.5 1.7.2-.9.2-2.5 0-3.5-.3-.9-.5-.1-.5 1.8zm5.1 1.5c0 2.7.2 3.8.4 2.2.2-1.5.2-3.7 0-5-.2-1.2-.4 0-.4 2.8zm-28.1 2c0 1.6.2 2.2.5 1.2.2-.9.2-2.3 0-3-.3-.6-.5.1-.5 1.8zm106.1 5.5c0 2.5.2 3.5.4 2.2.2-1.2.2-3.2 0-4.5-.2-1.2-.4-.2-.4 2.3zm-23 7c0 3 .2 4.3.4 2.7.2-1.5.2-3.9 0-5.5-.2-1.5-.4-.2-.4 2.8zm27.9-3c0 1.4.2 1.9.5 1.2.2-.6.2-1.8 0-2.5-.3-.6-.5-.1-.5 1.3zm-102.8 12.5c0 6 .1 8.4.3 5.2.2-3.2.2-8.1 0-11-.2-2.9-.3-.3-.3 5.8zm-13.2-6.5c0 1.4.2 1.9.5 1.2.2-.6.2-1.8 0-2.5-.3-.6-.5-.1-.5 1.3zm114 1c0 1.9.2 2.7.5 1.7.2-.9.2-2.5 0-3.5-.3-.9-.5-.1-.5 1.8zm-1.8 19.5c0 7.1.1 9.9.3 6.2.2-3.7.2-9.6 0-13-.2-3.4-.3-.4-.3 6.8zM265.2 560c0 1.9.2 2.7.5 1.7.2-.9.2-2.5 0-3.5-.3-.9-.5-.1-.5 1.8zm129-1c0 1.4.2 1.9.5 1.2.2-.6.2-1.8 0-2.5-.3-.6-.5-.1-.5 1.3zm-98.9 7c0 4.1.2 5.8.4 3.7.2-2 .2-5.4 0-7.5-.2-2-.4-.3-.4 3.8zm71.1 6c0 6.3.1 8.9.3 5.7.2-3.1.2-8.3 0-11.5-.2-3.1-.3-.5-.3 5.8zm-86.3-5.4c0 1.1.3 1.4.6.6.3-.7.2-1.6-.1-1.9-.3-.4-.6.2-.5 1.3zm112.2 4.9c0 3.8.2 5.3.4 3.2.2-2 .2-5.2 0-7-.2-1.7-.4-.1-.4 3.8zM267.2 569c0 1.4.2 1.9.5 1.2.2-.6.2-1.8 0-2.5-.3-.6-.5-.1-.5 1.3zm59.2 18c0 11.3.2 15.9.3 10.2.2-5.6.2-14.8 0-20.5-.1-5.6-.3-1-.3 10.3zm6.8-12c0 1.4.2 1.9.5 1.2.2-.6.2-1.8 0-2.5-.3-.6-.5-.1-.5 1.3zm-48.9 4c0 2.5.2 3.5.4 2.2.2-1.2.2-3.2 0-4.5-.2-1.2-.4-.2-.4 2.3zm12.8-.4c0 1.1.3 1.4.6.6.3-.7.2-1.6-.1-1.9-.3-.4-.6.2-.5 1.3zm-29.9 2.4c0 1.4.2 1.9.5 1.2.2-.6.2-1.8 0-2.5-.3-.6-.5-.1-.5 1.3zm64.1 6c0 4.7.2 6.6.4 4.2.2-2.3.2-6.1 0-8.5-.2-2.3-.4-.4-.4 4.3zm16.9 11.2c.2 15.5.6 13.7 1-5 .2-5.6 0-10.2-.4-10.2-.5 0-.7 6.9-.6 15.2zm30.9-13.6c0 1.1.3 1.4.6.6.3-.7.2-1.6-.1-1.9-.3-.4-.6.2-.5 1.3zm15.1 1.4c0 1.9.2 2.7.5 1.7.2-.9.2-2.5 0-3.5-.3-.9-.5-.1-.5 1.8zm-128.9 6c0 4.1.2 5.8.4 3.7.2-2 .2-5.4 0-7.5-.2-2-.4-.3-.4 3.8zm102.9-5c0 1.4.2 1.9.5 1.2.2-.6.2-1.8 0-2.5-.3-.6-.5-.1-.5 1.3zm-57.4 6.2c.5 9 1 9.5 1.1 1 .1-3.9-.3-7.2-.7-7.2-.5 0-.7 2.8-.4 6.2zm-19.7-2.6c0 1.1.3 1.4.6.6.3-.7.2-1.6-.1-1.9-.3-.4-.6.2-.5 1.3zm-14.8 7.9c0 3.3.2 4.5.4 2.7.2-1.8.2-4.5 0-6s-.4 0-.4 3.3zm107-1c0 2.7.2 3.8.4 2.2.2-1.5.2-3.7 0-5-.2-1.2-.4 0-.4 2.8zm-94.1.5c0 1.9.2 2.7.5 1.7.2-.9.2-2.5 0-3.5-.3-.9-.5-.1-.5 1.8zm109.1 3.5c0 3.8.2 5.3.4 3.2.2-2 .2-5.2 0-7-.2-1.7-.4-.1-.4 3.8zm-95.9 8c0 6 .1 8.4.3 5.2.2-3.2.2-8.1 0-11-.2-2.9-.3-.3-.3 5.8zm69.7-8.9c0 1.1.3 1.4.6.6.3-.7.2-1.6-.1-1.9-.3-.4-.6.2-.5 1.3zm-38.7 13.9c0 7.7.2 10.7.3 6.7.2-4 .2-10.3 0-14-.2-3.7-.3-.4-.3 7.3zm27.9-9c0 2.7.2 3.8.4 2.2.2-1.5.2-3.7 0-5-.2-1.2-.4 0-.4 2.8zm-94 3.5c0 3.6.2 5 .4 3.2.2-1.7.2-4.7 0-6.5-.2-1.7-.4-.3-.4 3.3zm20.1 5c0 6.3.1 8.9.3 5.7.2-3.1.2-8.3 0-11.5-.2-3.1-.3-.5-.3 5.8zm26 .5c0 6.6.1 9.2.3 5.7.2-3.4.2-8.8 0-12-.2-3.1-.3-.3-.3 6.3zm61 2c0 5.5.1 7.6.3 4.7.2-2.9.2-7.4 0-10-.2-2.6-.3-.2-.3 5.3zm-50 8c0 8.8.2 12.3.3 7.7.2-4.6.2-11.8 0-16-.1-4.2-.3-.5-.3 8.3zm34.8-8.5c0 1.9.2 2.7.5 1.7.2-.9.2-2.5 0-3.5-.3-.9-.5-.1-.5 1.8zm-74.9 2.5c0 2.2.2 3 .4 1.7.2-1.2.2-3 0-4-.3-.9-.5.1-.4 2.3zm93 0c0 2.2.2 3 .4 1.7.2-1.2.2-3 0-4-.3-.9-.5.1-.4 2.3zm16.9 1c0 1.6.2 2.2.5 1.2.2-.9.2-2.3 0-3-.3-.6-.5.1-.5 1.8zm-15.1 7.1c0 1.1.3 1.4.6.6.3-.7.2-1.6-.1-1.9-.3-.4-.6.2-.5 1.3zm17 0c0 1.1.3 1.4.6.6.3-.7.2-1.6-.1-1.9-.3-.4-.6.2-.5 1.3zM265.2 629c0 1.4.2 1.9.5 1.2.2-.6.2-1.8 0-2.5-.3-.6-.5-.1-.5 1.3zm17 0c0 1.4.2 1.9.5 1.2.2-.6.2-1.8 0-2.5-.3-.6-.5-.1-.5 1.3zm90 2.5c0 1.6.2 2.2.5 1.2.2-.9.2-2.3 0-3-.3-.6-.5.1-.5 1.8zm9.1 4.5c0 3 .2 4.3.4 2.7.2-1.5.2-3.9 0-5.5-.2-1.5-.4-.2-.4 2.8zm17 1c0 3.6.2 5 .4 3.2.2-1.7.2-4.7 0-6.5-.2-1.7-.4-.3-.4 3.3zm-135-.5c0 2.2.2 3 .4 1.7.2-1.2.2-3 0-4-.3-.9-.5.1-.4 2.3zm17 1.5c0 3 .2 4.3.4 2.7.2-1.5.2-3.9 0-5.5-.2-1.5-.4-.2-.4 2.8zm55 0c0 3 .2 4.3.4 2.7.2-1.5.2-3.9 0-5.5-.2-1.5-.4-.2-.4 2.8zm34.8.6c0 1.1.3 1.4.6.6.3-.7.2-1.6-.1-1.9-.3-.4-.6.2-.5 1.3zm-32.3 6.1c.6.2 1.8.2 2.5 0 .6-.3.1-.5-1.3-.5-1.4 0-1.9.2-1.2.5zm-9 5c1.2.2 3.2.2 4.5 0 1.2-.2.2-.4-2.3-.4s-3.5.2-2.2.4zm-18 1c1.2.2 3.2.2 4.5 0 1.2-.2.2-.4-2.3-.4s-3.5.2-2.2.4zm-6 17c1.2.2 3.2.2 4.5 0 1.2-.2.2-.4-2.3-.4s-3.5.2-2.2.4z" fill="#FFF" fill-opacity=".25"/><path d="M325.2 460.5c0 1.6.2 2.2.5 1.2.2-.9.2-2.3 0-3-.3-.6-.5.1-.5 1.8z" fill="#FFF" fill-opacity=".11"/><path d="M326.2 460.5c0 1.6.2 2.2.5 1.2.2-.9.2-2.3 0-3-.3-.6-.5.1-.5 1.8z" fill="#FFF" fill-opacity=".33"/><path d="M325.1 514.6c0 1.1.3 1.4.6.6.3-.7.2-1.6-.1-1.9-.3-.4-.6.2-.5 1.3z" fill="#FFF" fill-opacity=".11"/><path d="M326.1 514.6c0 1.1.3 1.4.6.6.3-.7.2-1.6-.1-1.9-.3-.4-.6.2-.5 1.3z" fill="#FFF" fill-opacity=".34"/><path d="M461.8 148.7c.6.2 1.8.2 2.5 0 .6-.3.1-.5-1.3-.5-1.4 0-1.9.2-1.2.5zm6 2c.6.2 1.8.2 2.5 0 .6-.3.1-.5-1.3-.5-1.4 0-1.9.2-1.2.5zm16 6c.6.2 1.8.2 2.5 0 .6-.3.1-.5-1.3-.5-1.4 0-1.9.2-1.2.5zm-168 96c12.7.2 33.7.2 46.5 0 12.7-.1 2.3-.2-23.3-.2s-36 .1-23.2.2zm178 4c.6.2 1.8.2 2.5 0 .6-.3.1-.5-1.3-.5-1.4 0-1.9.2-1.2.5zm-6 2c.6.2 1.8.2 2.5 0 .6-.3.1-.5-1.3-.5-1.4 0-1.9.2-1.2.5zm-18 4c.6.2 1.8.2 2.5 0 .6-.3.1-.5-1.3-.5-1.4 0-1.9.2-1.2.5zm-124 12c.6.2 1.8.2 2.5 0 .6-.3.1-.5-1.3-.5-1.4 0-1.9.2-1.2.5zm-45 2c1.2.2 3.2.2 4.5 0 1.2-.2.2-.4-2.3-.4s-3.5.2-2.2.4zm-165 58c.6.2 1.8.2 2.5 0 .6-.3.1-.5-1.3-.5-1.4 0-1.9.2-1.2.5zm6 2c.6.2 1.8.2 2.5 0 .6-.3.1-.5-1.3-.5-1.4 0-1.9.2-1.2.5zm364 0c.6.2 1.8.2 2.5 0 .6-.3.1-.5-1.3-.5-1.4 0-1.9.2-1.2.5zm-351.5 4c.9.2 2.5.2 3.5 0 .9-.3.1-.5-1.8-.5-1.9 0-2.7.2-1.7.5zm68 0c.9.2 2.5.2 3.5 0 .9-.3.1-.5-1.8-.5-1.9 0-2.7.2-1.7.5zm271.5 0c.6.2 1.8.2 2.5 0 .6-.3.1-.5-1.3-.5-1.4 0-1.9.2-1.2.5zm-331.5 2c.9.2 2.5.2 3.5 0 .9-.3.1-.5-1.8-.5-1.9 0-2.7.2-1.7.5zm277.5 0c.6.2 1.8.2 2.5 0 .6-.3.1-.5-1.3-.5-1.4 0-1.9.2-1.2.5zm34 0c.6.2 1.8.2 2.5 0 .6-.3.1-.5-1.3-.5-1.4 0-1.9.2-1.2.5zm11 0c1.2.2 3.2.2 4.5 0 1.2-.2.2-.4-2.3-.4s-3.5.2-2.2.4zm-65 6c.6.2 1.8.2 2.5 0 .6-.3.1-.5-1.3-.5-1.4 0-1.9.2-1.2.5zm-26 4c.6.2 1.8.2 2.5 0 .6-.3.1-.5-1.3-.5-1.4 0-1.9.2-1.2.5zm-132 2c.6.2 1.8.2 2.5 0 .6-.3.1-.5-1.3-.5-1.4 0-1.9.2-1.2.5zm2.5 12c2 .2 5.4.2 7.5 0 2-.2.3-.4-3.8-.4s-5.8.2-3.7.4zm133.5 70c.6.2 1.8.2 2.5 0 .6-.3.1-.5-1.3-.5-1.4 0-1.9.2-1.2.5zm-149.5 2c.9.2 2.5.2 3.5 0 .9-.3.1-.5-1.8-.5-1.9 0-2.7.2-1.7.5zm9.5 0c.6.2 1.8.2 2.5 0 .6-.3.1-.5-1.3-.5-1.4 0-1.9.2-1.2.5zm88 208c.6.2 1.8.2 2.5 0 .6-.3.1-.5-1.3-.5-1.4 0-1.9.2-1.2.5zm8.5 2c2 .2 5.4.2 7.5 0 2-.2.3-.4-3.8-.4s-5.8.2-3.7.4zm-28.5 22c.6.2 1.8.2 2.5 0 .6-.3.1-.5-1.3-.5-1.4 0-1.9.2-1.2.5zm-25 12c1.2.2 3.2.2 4.5 0 1.2-.2.2-.4-2.3-.4s-3.5.2-2.2.4zm50.5 0c1.5.2 3.9.2 5.5 0 1.5-.2.2-.4-2.8-.4s-4.3.2-2.7.4z" fill="#FFF" fill-opacity=".25"/><path d="M254 440.4c.7.7 1.3.7 2 0 .6-.6.3-1-1-1s-1.6.4-1 1z" fill="#FFF" fill-opacity=".04"/><path d="M408.5 143c1 1.1 2 2 2.3 2 .3 0-.3-.9-1.3-2s-2-2-2.3-2c-.3 0 .3.9 1.3 2zm6 6c1 1.1 2 2 2.3 2 .3 0-.3-.9-1.3-2s-2-2-2.3-2c-.3 0 .3.9 1.3 2zm-176.1 6.2-1.9 2.3 2.3-1.9c2.1-1.8 2.7-2.6 1.9-2.6-.2 0-1.2 1-2.3 2.2zM538.5 185c1 1.1 2 2 2.3 2 .3 0-.3-.9-1.3-2s-2-2-2.3-2c-.3 0 .3.9 1.3 2zm-364.1 6.2-1.9 2.3 2.3-1.9c2.1-1.8 2.7-2.6 1.9-2.6-.2 0-1.2 1-2.3 2.2zm370.1-.2c1 1.1 2 2 2.3 2 .3 0-.3-.9-1.3-2s-2-2-2.3-2c-.3 0 .3.9 1.3 2zm-376.1 6.2-1.9 2.3 2.3-1.9c1.2-1.1 2.2-2.1 2.2-2.3 0-.8-.8-.2-2.6 1.9zm382.1-.2c1 1.1 2 2 2.3 2 .3 0-.3-.9-1.3-2s-2-2-2.3-2c-.3 0 .3.9 1.3 2zm-446.1 6.2-1.9 2.3 2.3-1.9c2.1-1.8 2.7-2.6 1.9-2.6-.2 0-1.2 1-2.3 2.2zm50.1 47.8c1 1.1 2 2 2.3 2 .3 0-.3-.9-1.3-2s-2-2-2.3-2c-.3 0 .3.9 1.3 2zm42 12c1 1.1 2 2 2.3 2 .3 0-.3-.9-1.3-2s-2-2-2.3-2c-.3 0 .3.9 1.3 2zm59.9.2-1.9 2.3 2.3-1.9c2.1-1.8 2.7-2.6 1.9-2.6-.2 0-1.2 1-2.3 2.2zm146.1-.2c1 1.1 2 2 2.3 2 .3 0-.3-.9-1.3-2s-2-2-2.3-2c-.3 0 .3.9 1.3 2zm-152.1 6.2-1.9 2.3 2.3-1.9c2.1-1.8 2.7-2.6 1.9-2.6-.2 0-1.2 1-2.3 2.2zm46.1 5.8c1 1.1 2 2 2.3 2 .3 0-.3-.9-1.3-2s-2-2-2.3-2c-.3 0 .3.9 1.3 2zm-210 24c1 1.1 2 2 2.3 2 .3 0-.3-.9-1.3-2s-2-2-2.3-2c-.3 0 .3.9 1.3 2zm6 6c1 1.1 2 2 2.3 2 .3 0-.3-.9-1.3-2s-2-2-2.3-2c-.3 0 .3.9 1.3 2zm6 6c1 1.1 2 2 2.3 2 .3 0-.3-.9-1.3-2s-2-2-2.3-2c-.3 0 .3.9 1.3 2zm127.9.2-1.9 2.3 2.3-1.9c2.1-1.8 2.7-2.6 1.9-2.6-.2 0-1.2 1-2.3 2.2zm327 1-2.9 3.3 3.3-2.9c3-2.8 3.7-3.6 2.9-3.6-.2 0-1.6 1.5-3.3 3.2zm-7 5-1.9 2.3 2.3-1.9c2.1-1.8 2.7-2.6 1.9-2.6-.2 0-1.2 1-2.3 2.2zm-96.8 6.6c-.2.4.4.8 1.4.8 1 0 1.6-.4 1.4-.8-.3-.4-.9-.8-1.4-.8-.5 0-1.1.4-1.4.8zm-245.2 5.4-1.9 2.3 2.3-1.9c2.1-1.8 2.7-2.6 1.9-2.6-.2 0-1.2 1-2.3 2.2zm252.1-.2c1 1.1 2 2 2.3 2 .3 0-.3-.9-1.3-2s-2-2-2.3-2c-.3 0 .3.9 1.3 2zm6 6c1 1.1 2 2 2.3 2 .3 0-.3-.9-1.3-2s-2-2-2.3-2c-.3 0 .3.9 1.3 2zm-76 12c1 1.1 2 2 2.3 2 .3 0-.3-.9-1.3-2s-2-2-2.3-2c-.3 0 .3.9 1.3 2zm37.9.2-1.9 2.3 2.3-1.9c2.1-1.8 2.7-2.6 1.9-2.6-.2 0-1.2 1-2.3 2.2zM258.5 353c1 1.1 2 2 2.3 2 .3 0-.3-.9-1.3-2s-2-2-2.3-2c-.3 0 .3.9 1.3 2zm13.9.2-1.9 2.3 2.3-1.9c2.1-1.8 2.7-2.6 1.9-2.6-.2 0-1.2 1-2.3 2.2zm-15 8.9c-.3.6.4 2.1 1.7 3.3l2.3 2.1-1.8-2.2c-1-1.2-1.5-2.7-1.1-3.2.3-.6.4-1.1.1-1.1-.3 0-.8.5-1.2 1.1zm19 3.1-1.9 2.3 2.3-1.9c2.1-1.8 2.7-2.6 1.9-2.6-.2 0-1.2 1-2.3 2.2zm110.1-.2c1 1.1 2 2 2.3 2 .3 0-.3-.9-1.3-2s-2-2-2.3-2c-.3 0 .3.9 1.3 2zm-12.1 30.2-1.9 2.3 2.3-1.9c1.2-1.1 2.2-2.1 2.2-2.3 0-.8-.8-.2-2.6 1.9zm-108 6-1.9 2.3 2.3-1.9c1.2-1.1 2.2-2.1 2.2-2.3 0-.8-.8-.2-2.6 1.9zm102 0-1.9 2.3 2.3-1.9c1.2-1.1 2.2-2.1 2.2-2.3 0-.8-.8-.2-2.6 1.9zm26.1-.2c1 1.1 2 2 2.3 2 .3 0-.3-.9-1.3-2s-2-2-2.3-2c-.3 0 .3.9 1.3 2zm-48 12c1 1.1 2 2 2.3 2 .3 0-.3-.9-1.3-2s-2-2-2.3-2c-.3 0 .3.9 1.3 2zm-34.1 6.2-1.9 2.3 2.3-1.9c2.1-1.8 2.7-2.6 1.9-2.6-.2 0-1.2 1-2.3 2.2zm-75.9 5.8c1 1.1 2 2 2.3 2 .3 0-.3-.9-1.3-2s-2-2-2.3-2c-.3 0 .3.9 1.3 2zm123.5-.6c.7.7 1.3.7 2 0 .6-.6.3-1-1-1s-1.6.4-1 1zM220.5 443c1 1.1 2 2 2.3 2 .3 0-.3-.9-1.3-2s-2-2-2.3-2c-.3 0 .3.9 1.3 2zm219.9.2-1.9 2.3 2.3-1.9c1.2-1.1 2.2-2.1 2.2-2.3 0-.8-.8-.2-2.6 1.9zM226.5 449c1 1.1 2 2 2.3 2 .3 0-.3-.9-1.3-2s-2-2-2.3-2c-.3 0 .3.9 1.3 2zm59.9 6.2-1.9 2.3 2.3-1.9c2.1-1.8 2.7-2.6 1.9-2.6-.2 0-1.2 1-2.3 2.2zm98 0-1.9 2.3 2.3-1.9c2.1-1.8 2.7-2.6 1.9-2.6-.2 0-1.2 1-2.3 2.2zm42 0-1.9 2.3 2.3-1.9c2.1-1.8 2.7-2.6 1.9-2.6-.2 0-1.2 1-2.3 2.2zM242.5 461c1 1.1 2 2 2.3 2 .3 0-.3-.9-1.3-2s-2-2-2.3-2c-.3 0 .3.9 1.3 2zm177.9.2-1.9 2.3 2.3-1.9c2.1-1.8 2.7-2.6 1.9-2.6-.2 0-1.2 1-2.3 2.2zM256.5 533c1 1.1 2 2 2.3 2 .3 0-.3-.9-1.3-2s-2-2-2.3-2c-.3 0 .3.9 1.3 2zm20 0c1 1.1 2 2 2.3 2 .3 0-.3-.9-1.3-2s-2-2-2.3-2c-.3 0 .3.9 1.3 2zm-16 6c1 1.1 2 2 2.3 2 .3 0-.3-.9-1.3-2s-2-2-2.3-2c-.3 0 .3.9 1.3 2zm26 6c1 1.1 2 2 2.3 2 .3 0-.3-.9-1.3-2s-2-2-2.3-2c-.3 0 .3.9 1.3 2zm-6.1 42.2-1.9 2.3 2.3-1.9c1.2-1.1 2.2-2.1 2.2-2.3 0-.8-.8-.2-2.6 1.9zm26 6-1.9 2.3 2.3-1.9c2.1-1.8 2.7-2.6 1.9-2.6-.2 0-1.2 1-2.3 2.2zm48.1-.2c1 1.1 2 2 2.3 2 .3 0-.3-.9-1.3-2s-2-2-2.3-2c-.3 0 .3.9 1.3 2zm-58 48c1 1.1 2 2 2.3 2 .3 0-.3-.9-1.3-2s-2-2-2.3-2c-.3 0 .3.9 1.3 2zm6 6c1 1.1 2 2 2.3 2 .3 0-.3-.9-1.3-2s-2-2-2.3-2c-.3 0 .3.9 1.3 2zm17.9.2-1.9 2.3 2.3-1.9c2.1-1.8 2.7-2.6 1.9-2.6-.2 0-1.2 1-2.3 2.2zm46 0-1.9 2.3 2.3-1.9c2.1-1.8 2.7-2.6 1.9-2.6-.2 0-1.2 1-2.3 2.2zm22 12-1.9 2.3 2.3-1.9c2.1-1.8 2.7-2.6 1.9-2.6-.2 0-1.2 1-2.3 2.2zm-4 6-1.9 2.3 2.3-1.9c2.1-1.8 2.7-2.6 1.9-2.6-.2 0-1.2 1-2.3 2.2zM280.5 671c1 1.1 2 2 2.3 2 .3 0-.3-.9-1.3-2s-2-2-2.3-2c-.3 0 .3.9 1.3 2zm97.9.2-1.9 2.3 2.3-1.9c2.1-1.8 2.7-2.6 1.9-2.6-.2 0-1.2 1-2.3 2.2zm-89.9 5.8c1 1.1 2 2 2.3 2 .3 0-.3-.9-1.3-2s-2-2-2.3-2c-.3 0 .3.9 1.3 2zm50 0c1 1.1 2 2 2.3 2 .3 0-.3-.9-1.3-2s-2-2-2.3-2c-.3 0 .3.9 1.3 2z" fill="#FFF" fill-opacity=".18"/><path d="M266 356.4c.7.7 1.3.7 2 0 .6-.6.3-1-1-1s-1.6.4-1 1z" fill="#FFF" fill-opacity=".05"/></svg>