<svg version="1.0" xmlns="http://www.w3.org/2000/svg" viewBox="0 0 594 592"><path d="M526 219.4c0 .2.8 1 1.8 1.7 1.5 1.3 1.6 1.2.3-.4s-2.1-2.1-2.1-1.3zM59.9 244.7c-1.3 1.6-1.2 1.7.4.4.9-.7 1.7-1.5 1.7-1.7 0-.8-.8-.3-2.1 1.3zm4 42c-1.3 1.6-1.2 1.7.4.4.9-.7 1.7-1.5 1.7-1.7 0-.8-.8-.3-2.1 1.3zM299 502.4c0 .2.8 1 1.8 1.7 1.5 1.3 1.6 1.2.3-.4s-2.1-2.1-2.1-1.3z" fill="#FFF" fill-opacity=".06"/><path d="M502 94.4c0 .2.8 1 1.8 1.7 1.5 1.3 1.6 1.2.3-.4s-2.1-2.1-2.1-1.3zm26 18c0 .2.8 1 1.8 1.7 1.5 1.3 1.6 1.2.3-.4s-2.1-2.1-2.1-1.3zm14 30c0 .2.8 1 1.8 1.7 1.5 1.3 1.6 1.2.3-.4s-2.1-2.1-2.1-1.3zm-314.5 37.7c-.3.4.2.6 1 .5 2.1-.3 2.8-1.3 1-1.3-.9 0-1.8.4-2 .8zM33.9 239.7c-1.3 1.6-1.2 1.7.4.4.9-.7 1.7-1.5 1.7-1.7 0-.8-.8-.3-2.1 1.3zm-2 24c-1.3 1.6-1.2 1.7.4.4.9-.7 1.7-1.5 1.7-1.7 0-.8-.8-.3-2.1 1.3zM257 281.4c0 .2.8 1 1.8 1.7 1.5 1.3 1.6 1.2.3-.4s-2.1-2.1-2.1-1.3zm230.6 36.4c-.2.4.4.8 1.4.8 1 0 1.6-.4 1.4-.8-.3-.4-.9-.8-1.4-.8-.5 0-1.1.4-1.4.8zm-391.7 5.9c-1.3 1.6-1.2 1.7.4.4.9-.7 1.7-1.5 1.7-1.7 0-.8-.8-.3-2.1 1.3zm154 6c-1.3 1.6-1.2 1.7.4.4.9-.7 1.7-1.5 1.7-1.7 0-.8-.8-.3-2.1 1.3zm-156 6c-1.3 1.6-1.2 1.7.4.4.9-.7 1.7-1.5 1.7-1.7 0-.8-.8-.3-2.1 1.3zm152 0c-1.3 1.6-1.2 1.7.4.4.9-.7 1.7-1.5 1.7-1.7 0-.8-.8-.3-2.1 1.3zm114 0c-1.3 1.6-1.2 1.7.4.4 1.6-1.3 2.1-2.1 1.3-2.1-.2 0-1 .8-1.7 1.7zm-242 6c-1.3 1.6-1.2 1.7.4.4.9-.7 1.7-1.5 1.7-1.7 0-.8-.8-.3-2.1 1.3zM454 352.4c0 .2.8 1 1.8 1.7 1.5 1.3 1.6 1.2.3-.4s-2.1-2.1-2.1-1.3zm-188.1 49.3c-1.3 1.6-1.2 1.7.4.4.9-.7 1.7-1.5 1.7-1.7 0-.8-.8-.3-2.1 1.3zm20.1 6.7c.7.7 1.3.7 2 0 .6-.6.3-1-1-1s-1.6.4-1 1zm13.4 95.4c.4.3 1.4.7 2.2.8.9.1 1.3 0 1-.4-.4-.3-1.4-.7-2.2-.8-.9-.1-1.3 0-1 .4zm-7.5 5.9c-1.3 1.6-1.2 1.7.4.4.9-.7 1.7-1.5 1.7-1.7 0-.8-.8-.3-2.1 1.3z" fill="#FFF" fill-opacity=".19"/><path d="M138.3 71.7c3.1.2 8.3.2 11.5 0 3.1-.2.5-.3-5.8-.3s-8.9.1-5.7.3zm303.5 0c1.7.2 4.7.2 6.5 0 1.7-.2.3-.4-3.3-.4-3.6 0-5 .2-3.2.4zm-19.5 6c.9.2 2.5.2 3.5 0 .9-.3.1-.5-1.8-.5-1.9 0-2.7.2-1.7.5zm-322.5 6c.6.2 1.8.2 2.5 0 .6-.3.1-.5-1.3-.5-1.4 0-1.9.2-1.2.5zm43.2.7c0 .2 1.1.6 2.5.8 1.3.3 2.2.1 1.9-.3-.5-.9-4.4-1.3-4.4-.5zm30.8 6.3c.6.2 1.8.2 2.5 0 .6-.3.1-.5-1.3-.5-1.4 0-1.9.2-1.2.5zm7.2-.3c0 .2.7.7 1.6 1 .8.3 1.2.2.9-.4-.6-1-2.5-1.4-2.5-.6zm36.1 6.2c0 1.1.3 1.4.6.6.3-.7.2-1.6-.1-1.9-.3-.4-.6.2-.5 1.3zM98.3 106c0 4.1.2 5.8.4 3.7.2-2 .2-5.4 0-7.5-.2-2-.4-.3-.4 3.8zm388 0c0 4.1.2 5.8.4 3.7.2-2 .2-5.4 0-7.5-.2-2-.4-.3-.4 3.8zm5 1c0 3.6.2 5 .4 3.2.2-1.7.2-4.7 0-6.5-.2-1.7-.4-.3-.4 3.3zm-384.1 6.7c-.1 7.8-.6 11.3-1.4 11.6-1 .4-1 .6 0 .6 2 .1 2.3-1.8 1.9-13l-.3-10.4-.2 11.2zm18.9-1.5c0 4.3.2 7.8.7 7.8.4 0 .6-2.4.4-5.2-.5-9.5-.9-10.4-1.1-2.6zm393.7-4.5c.6.2 1.8.2 2.5 0 .6-.3.1-.5-1.3-.5-1.4 0-1.9.2-1.2.5zm-363.7 4.9c0 1.1.3 1.4.6.6.3-.7.2-1.6-.1-1.9-.3-.4-.6.2-.5 1.3zm279 0c0 1.1.3 1.4.6.6.3-.7.2-1.6-.1-1.9-.3-.4-.6.2-.5 1.3zm-82.3 2.1c1.2.2 3.2.2 4.5 0 1.2-.2.2-.4-2.3-.4s-3.5.2-2.2.4zM100.2 117c0 1.4.2 1.9.5 1.2.2-.6.2-1.8 0-2.5-.3-.6-.5-.1-.5 1.3zm389 .5c0 1.6.2 2.2.5 1.2.2-.9.2-2.3 0-3-.3-.6-.5.1-.5 1.8zm-52.1 1.1c0 1.1.3 1.4.6.6.3-.7.2-1.6-.1-1.9-.3-.4-.6.2-.5 1.3zm28.1.9c0 1.6.2 2.2.5 1.2.2-.9.2-2.3 0-3-.3-.6-.5.1-.5 1.8zm19.1 3c0 3.3.2 4.5.4 2.7.2-1.8.2-4.5 0-6s-.4 0-.4 3.3zm47.8-1.9c0 1.1.3 1.4.6.6.3-.7.2-1.6-.1-1.9-.3-.4-.6.2-.5 1.3zm-474.9 2.9c0 1.6.2 2.2.5 1.2.2-.9.2-2.3 0-3-.3-.6-.5.1-.5 1.8zm14.9 1.1c0 1.1.3 1.4.6.6.3-.7.2-1.6-.1-1.9-.3-.4-.6.2-.5 1.3zm79.9-.6c0 .5.5 1 1 1 .6 0 1-.5 1-1 0-.6-.4-1-1-1-.5 0-1 .4-1 1zm335.1.6c0 1.1.3 1.4.6.6.3-.7.2-1.6-.1-1.9-.3-.4-.6.2-.5 1.3zM272.2 127c0 1.4.2 1.9.5 1.2.2-.6.2-1.8 0-2.5-.3-.6-.5-.1-.5 1.3zm47.1 1.5c0 2.2.2 3 .4 1.7.2-1.2.2-3 0-4-.3-.9-.5.1-.4 2.3zm214.9-.5c0 1.9.2 2.7.5 1.7.2-.9.2-2.5 0-3.5-.3-.9-.5-.1-.5 1.8zm-479.1 4.6c0 1.1.3 1.4.6.6.3-.7.2-1.6-.1-1.9-.3-.4-.6.2-.5 1.3zm453 4c0 1.1.3 1.4.6.6.3-.7.2-1.6-.1-1.9-.3-.4-.6.2-.5 1.3zm-334 2c0 1.1.3 1.4.6.6.3-.7.2-1.6-.1-1.9-.3-.4-.6.2-.5 1.3zm3 0c0 1.1.3 1.4.6.6.3-.7.2-1.6-.1-1.9-.3-.4-.6.2-.5 1.3zm154.7 5.1c.6.2 1.8.2 2.5 0 .6-.3.1-.5-1.3-.5-1.4 0-1.9.2-1.2.5zm12 1c.6.2 1.8.2 2.5 0 .6-.3.1-.5-1.3-.5-1.4 0-1.9.2-1.2.5zM194.2 149c0 1.4.2 1.9.5 1.2.2-.6.2-1.8 0-2.5-.3-.6-.5-.1-.5 1.3zm351.9 1.6c0 1.1.3 1.4.6.6.3-.7.2-1.6-.1-1.9-.3-.4-.6.2-.5 1.3zM43.2 153c0 1.4.2 1.9.5 1.2.2-.6.2-1.8 0-2.5-.3-.6-.5-.1-.5 1.3zm10.9 3.6c0 1.1.3 1.4.6.6.3-.7.2-1.6-.1-1.9-.3-.4-.6.2-.5 1.3zm17.7-.9c.6.2 1.8.2 2.5 0 .6-.3.1-.5-1.3-.5-1.4 0-1.9.2-1.2.5zm158.4 2.3c0 1.9.2 2.7.5 1.7.2-.9.2-2.5 0-3.5-.3-.9-.5-.1-.5 1.8zm286.6-2.3c1.2.2 3.2.2 4.5 0 1.2-.2.2-.4-2.3-.4s-3.5.2-2.2.4zm31.5 2.8c0 2.2.2 3 .4 1.7.2-1.2.2-3 0-4-.3-.9-.5.1-.4 2.3zm-276.5-1.8c.6.2 1.8.2 2.5 0 .6-.3.1-.5-1.3-.5-1.4 0-1.9.2-1.2.5zm46 0c.6.2 1.8.2 2.5 0 .6-.3.1-.5-1.3-.5-1.4 0-1.9.2-1.2.5zM41.3 162c0 3 .2 4.3.4 2.7.2-1.5.2-3.9 0-5.5-.2-1.5-.4-.2-.4 2.8zm315.9-3c0 1.4.2 1.9.5 1.2.2-.6.2-1.8 0-2.5-.3-.6-.5-.1-.5 1.3zm113.6 3.7c3.4.2 9 .2 12.5 0 3.4-.2.6-.3-6.3-.3-6.9 0-9.7.1-6.2.3zM228.3 171c0 4.7.2 6.6.4 4.2.2-2.3.2-6.1 0-8.5-.2-2.3-.4-.4-.4 4.3zm4.8-4.4c0 1.1.3 1.4.6.6.3-.7.2-1.6-.1-1.9-.3-.4-.6.2-.5 1.3zm125.5 1.8c-.4 2.1-.5 4-.2 4.3.7.8 1.8-4.2 1.4-6.4-.3-1.1-.7-.3-1.2 2.1zm187.7.6c0 2.5.2 3.5.4 2.2.2-1.2.2-3.2 0-4.5-.2-1.2-.4-.2-.4 2.3zm-454.5-.3c.6.2 1.8.2 2.5 0 .6-.3.1-.5-1.3-.5-1.4 0-1.9.2-1.2.5zm195.6 8.8c0 4.9.1 7.1.3 4.8.2-2.3.2-6.4 0-9-.2-2.6-.3-.8-.3 4.2zm-199.6-3.8c.6.2 1.8.2 2.5 0 .6-.3.1-.5-1.3-.5-1.4 0-1.9.2-1.2.5zm143.4 2.3c0 1.9.2 2.7.5 1.7.2-.9.2-2.5 0-3.5-.3-.9-.5-.1-.5 1.8zm16.9-1.4c0 1.1.3 1.4.6.6.3-.7.2-1.6-.1-1.9-.3-.4-.6.2-.5 1.3zm52.1.4c0 1.4.2 1.9.5 1.2.2-.6.2-1.8 0-2.5-.3-.6-.5-.1-.5 1.3zm59.8 2.5c0 1.4.2 2.5.4 2.5s.6-1.1.8-2.5c.3-1.4.1-2.5-.3-2.5-.5 0-.9 1.1-.9 2.5zm-220.2 2.2c.6.2 1.8.2 2.5 0 .6-.3.1-.5-1.3-.5-1.4 0-1.9.2-1.2.5zm106.4 2.3c0 1.9.2 2.7.5 1.7.2-.9.2-2.5 0-3.5-.3-.9-.5-.1-.5 1.8zm-17 1c0 1.4.2 1.9.5 1.2.2-.6.2-1.8 0-2.5-.3-.6-.5-.1-.5 1.3zm73 1c0 1.9.2 2.7.5 1.7.2-.9.2-2.5 0-3.5-.3-.9-.5-.1-.5 1.8zm42.9.6c0 1.1.3 1.4.6.6.3-.7.2-1.6-.1-1.9-.3-.4-.6.2-.5 1.3zm17 0c0 1.1.3 1.4.6.6.3-.7.2-1.6-.1-1.9-.3-.4-.6.2-.5 1.3zm113.9-.7c0 1 1.9 2.5 2.5 2 .1-.2-.3-1-1.1-1.7s-1.4-.8-1.4-.3zm-392.2 2.8c.6.2 1.8.2 2.5 0 .6-.3.1-.5-1.3-.5-1.4 0-1.9.2-1.2.5zm424 0c.6.2 1.8.2 2.5 0 .6-.3.1-.5-1.3-.5-1.4 0-1.9.2-1.2.5zM244.2 191c0 1.9.2 2.7.5 1.7.2-.9.2-2.5 0-3.5-.3-.9-.5-.1-.5 1.8zm-210.9 2c0 2.5.2 3.5.4 2.2.2-1.2.2-3.2 0-4.5-.2-1.2-.4-.2-.4 2.3zm252 .5c0 2.7.2 3.8.4 2.2.2-1.5.2-3.7 0-5-.2-1.2-.4 0-.4 2.8zm61.9-2c0 1.6.2 2.2.5 1.2.2-.9.2-2.3 0-3-.3-.6-.5.1-.5 1.8zm-46.8 9c0 5.5.1 7.6.3 4.7.2-2.9.2-7.4 0-10-.2-2.6-.3-.2-.3 5.3zm-162.6-7.8c1.7.2 4.7.2 6.5 0 1.7-.2.3-.4-3.3-.4-3.6 0-5 .2-3.2.4zm304.5 0c.9.2 2.5.2 3.5 0 .9-.3.1-.5-1.8-.5-1.9 0-2.7.2-1.7.5zm-4 6.3c0 2.5.2 3.5.4 2.2.2-1.2.2-3.2 0-4.5-.2-1.2-.4-.2-.4 2.3zm-224-1.3c.9.2 2.5.2 3.5 0 .9-.3.1-.5-1.8-.5-1.9 0-2.7.2-1.7.5zm27.8.9c0 1.1.3 1.4.6.6.3-.7.2-1.6-.1-1.9-.3-.4-.6.2-.5 1.3zm107 0c0 1.1.3 1.4.6.6.3-.7.2-1.6-.1-1.9-.3-.4-.6.2-.5 1.3zm-148.8.1c.9.2 2.5.2 3.5 0 .9-.3.1-.5-1.8-.5-1.9 0-2.7.2-1.7.5zm-165 4.3c0 2.5.2 3.5.4 2.2.2-1.2.2-3.2 0-4.5-.2-1.2-.4-.2-.4 2.3zm158.5.7c.6.2 1.8.2 2.5 0 .6-.3.1-.5-1.3-.5-1.4 0-1.9.2-1.2.5zm194 0c.6.2 1.8.2 2.5 0 .6-.3.1-.5-1.3-.5-1.4 0-1.9.2-1.2.5zm-309.5 1c.9.2 2.5.2 3.5 0 .9-.3.1-.5-1.8-.5-1.9 0-2.7.2-1.7.5zm323.5 0c.6.2 1.8.2 2.5 0 .6-.3.1-.5-1.3-.5-1.4 0-1.9.2-1.2.5zm99.5 0c.9.2 2.3.2 3 0 .6-.3-.1-.5-1.8-.5-1.6 0-2.2.2-1.2.5zM289.4 215c0 5.8.1 8.1.3 5.2.2-2.8.2-7.6 0-10.5-.2-2.8-.3-.5-.3 5.3zm146.8-8c0 1.4.2 1.9.5 1.2.2-.6.2-1.8 0-2.5-.3-.6-.5-.1-.5 1.3zm-353.9 2.7c.9.2 2.5.2 3.5 0 .9-.3.1-.5-1.8-.5-1.9 0-2.7.2-1.7.5zm138.5 7c.7.3 1.6.2 1.9-.1.4-.3-.2-.6-1.3-.5-1.1 0-1.4.3-.6.6zm197 0c.6.2 1.8.2 2.5 0 .6-.3.1-.5-1.3-.5-1.4 0-1.9.2-1.2.5zm8 0c.6.2 1.8.2 2.5 0 .6-.3.1-.5-1.3-.5-1.4 0-1.9.2-1.2.5zm-127.4 21.8c0 11.5.2 16.1.3 10.2.2-5.9.2-15.4 0-21-.1-5.6-.3-.8-.3 10.8zM29.3 223c0 2.5.2 3.5.4 2.2.2-1.2.2-3.2 0-4.5-.2-1.2-.4-.2-.4 2.3zm28.9 0c0 1.4.2 1.9.5 1.2.2-.6.2-1.8 0-2.5-.3-.6-.5-.1-.5 1.3zm355.9-.4c0 1.1.3 1.4.6.6.3-.7.2-1.6-.1-1.9-.3-.4-.6.2-.5 1.3zm144.2 2.9c0 2.7.2 3.8.4 2.2.2-1.5.2-3.7 0-5-.2-1.2-.4 0-.4 2.8zM90 222.7c1.3.6 1.3 4 0 4.6-.6.3-.5.4.2.3.7-.2 1.3-1.3 1.3-2.6s-.6-2.4-1.3-2.6c-.7-.1-.8 0-.2.3zm281.8 0c.6.2 1.8.2 2.5 0 .6-.3.1-.5-1.3-.5-1.4 0-1.9.2-1.2.5zM108.2 225c0 1.4.2 1.9.5 1.2.2-.6.2-1.8 0-2.5-.3-.6-.5-.1-.5 1.3zm374.9 1.6c0 1.1.3 1.4.6.6.3-.7.2-1.6-.1-1.9-.3-.4-.6.2-.5 1.3zm-83.8 4.4c0 2.5.2 3.5.4 2.2.2-1.2.2-3.2 0-4.5-.2-1.2-.4-.2-.4 2.3zm-293 4c0 2.5.2 3.5.4 2.2.2-1.2.2-3.2 0-4.5-.2-1.2-.4-.2-.4 2.3zm181.1 13.5c0 9.9.2 13.8.3 8.7.2-5.1.2-13.2 0-18-.1-4.8-.3-.6-.3 9.3zM485.2 234c0 1.9.2 2.7.5 1.7.2-.9.2-2.5 0-3.5-.3-.9-.5-.1-.5 1.8zm69 3c0 1.4.2 1.9.5 1.2.2-.6.2-1.8 0-2.5-.3-.6-.5-.1-.5 1.3zm-392.9 7c0 3 .2 4.3.4 2.7.2-1.5.2-3.9 0-5.5-.2-1.5-.4-.2-.4 2.8zm337.1-2.5c-.3.8-.4 2-.1 2.7.3.7.6.3.6-.9.1-1.4.9-2.3 2.4-2.6l2.2-.4-2.3-.2c-1.2 0-2.5.6-2.8 1.4zM33.3 245c0 2.5.2 3.5.4 2.2.2-1.2.2-3.2 0-4.5-.2-1.2-.4-.2-.4 2.3zm71 1.5c0 3.3.2 4.5.4 2.7.2-1.8.2-4.5 0-6s-.4 0-.4 3.3zm383.1 7.5c0 7.4.1 10.5.3 6.7.2-3.7.2-9.7 0-13.5-.2-3.7-.3-.6-.3 6.8zm68.8-8.5c0 1.6.2 2.2.5 1.2.2-.9.2-2.3 0-3-.3-.6-.5.1-.5 1.8zm-125.9 6c0 3.8.2 5.3.4 3.2.2-2 .2-5.2 0-7-.2-1.7-.4-.1-.4 3.8zm104.9 0c0 1.6.2 2.2.5 1.2.2-.9.2-2.3 0-3-.3-.6-.5.1-.5 1.8zm-31.4.2c.6.2 1.8.2 2.5 0 .6-.3.1-.5-1.3-.5-1.4 0-1.9.2-1.2.5zm-468.5 4.8c0 2.2.2 3 .4 1.7.2-1.2.2-3 0-4-.3-.9-.5.1-.4 2.3zM163.4 270c0 9.6.2 13.6.3 8.7.2-4.8.2-12.6 0-17.5-.1-4.8-.3-.8-.3 8.8zm38.8-14.5c0 1.6.2 2.2.5 1.2.2-.9.2-2.3 0-3-.3-.6-.5.1-.5 1.8zm-19.9 7.5c0 4.7.2 6.6.4 4.2.2-2.3.2-6.1 0-8.5-.2-2.3-.4-.4-.4 4.3zm5.1.5c0 4.9.1 7.1.3 4.8.2-2.3.2-6.4 0-9-.2-2.6-.3-.8-.3 4.2zm150.7-6.9c0 1.1.3 1.4.6.6.3-.7.2-1.6-.1-1.9-.3-.4-.6.2-.5 1.3zm75.2 3.9c0 3.3.2 4.5.4 2.7.2-1.8.2-4.5 0-6s-.4 0-.4 3.3zm-311 4c0 4.4.2 6.1.4 3.7.2-2.3.2-5.9 0-8-.2-2-.4-.1-.4 4.3zm224.9-4.5c0 1.9.2 2.7.5 1.7.2-.9.2-2.5 0-3.5-.3-.9-.5-.1-.5 1.8zm-65 1c0 1.4.2 1.9.5 1.2.2-.6.2-1.8 0-2.5-.3-.6-.5-.1-.5 1.3zm166.1 5.5c0 3.3.2 4.5.4 2.7.2-1.8.2-4.5 0-6s-.4 0-.4 3.3zm-60.5-2.8c.6.2 1.8.2 2.5 0 .6-.3.1-.5-1.3-.5-1.4 0-1.9.2-1.2.5zm30.5 4.3c0 3 .2 4.3.4 2.7.2-1.5.2-3.9 0-5.5-.2-1.5-.4-.2-.4 2.8zm-147.1-.5c0 1.6.2 2.2.5 1.2.2-.9.2-2.3 0-3-.3-.6-.5.1-.5 1.8zm13-.5c0 1.4.2 1.9.5 1.2.2-.6.2-1.8 0-2.5-.3-.6-.5-.1-.5 1.3zm70 0c0 1.4.2 1.9.5 1.2.2-.6.2-1.8 0-2.5-.3-.6-.5-.1-.5 1.3zm224.1 4c0 2.5.2 3.5.4 2.2.2-1.2.2-3.2 0-4.5-.2-1.2-.4-.2-.4 2.3zm-500.2-.4c0 1.1.3 1.4.6.6.3-.7.2-1.6-.1-1.9-.3-.4-.6.2-.5 1.3zm353.2 1.9c0 2.2.2 3 .4 1.7.2-1.2.2-3 0-4-.3-.9-.5.1-.4 2.3zm-79.1.5c0 1.4.2 1.9.5 1.2.2-.6.2-1.8 0-2.5-.3-.6-.5-.1-.5 1.3zm-301 2c0 1.4.2 1.9.5 1.2.2-.6.2-1.8 0-2.5-.3-.6-.5-.1-.5 1.3zm198.9-.4c0 1.1.3 1.4.6.6.3-.7.2-1.6-.1-1.9-.3-.4-.6.2-.5 1.3zm127 0c0 1.1.3 1.4.6.6.3-.7.2-1.6-.1-1.9-.3-.4-.6.2-.5 1.3zm-247.3 1.1c.6.2 1.8.2 2.5 0 .6-.3.1-.5-1.3-.5-1.4 0-1.9.2-1.2.5zm75 .6c-.5 1-.7 5.3-.7 9.5l.2 7.7.9-7c1-8 .8-13.2-.4-10.2zm129-.6c.6.2 1.8.2 2.5 0 .6-.3.1-.5-1.3-.5-1.4 0-1.9.2-1.2.5zm112.5 2.8c0 2.2.2 3 .4 1.7.2-1.2.2-3 0-4-.3-.9-.5.1-.4 2.3zm108.8-1.9c0 1.1.3 1.4.6.6.3-.7.2-1.6-.1-1.9-.3-.4-.6.2-.5 1.3zm-302.9 4.9c0 1.6.2 2.2.5 1.2.2-.9.2-2.3 0-3-.3-.6-.5.1-.5 1.8zm123 0c0 1.6.2 2.2.5 1.2.2-.9.2-2.3 0-3-.3-.6-.5.1-.5 1.8zm53.9-.9c0 1.1.3 1.4.6.6.3-.7.2-1.6-.1-1.9-.3-.4-.6.2-.5 1.3zm-273.3 1.1c.6.2 1.8.2 2.5 0 .6-.3.1-.5-1.3-.5-1.4 0-1.9.2-1.2.5zm266.5 3.8c0 2.7.2 3.8.4 2.2.2-1.5.2-3.7 0-5-.2-1.2-.4 0-.4 2.8zm61.5-3.8c.6.2 1.8.2 2.5 0 .6-.3.1-.5-1.3-.5-1.4 0-1.9.2-1.2.5zM287.4 319c0 19 .2 26.7.3 17.2.2-9.4.2-25 0-34.5-.1-9.4-.3-1.7-.3 17.3zm136.8-31.5c0 1.6.2 2.2.5 1.2.2-.9.2-2.3 0-3-.3-.6-.5.1-.5 1.8zm-160.9 5c0 2.2.2 3 .4 1.7.2-1.2.2-3 0-4-.3-.9-.5.1-.4 2.3zm35.1 26c0 16.5.2 23.4.3 15.3.2-8.1.2-21.6 0-30-.1-8.4-.3-1.8-.3 14.7zm249.9-23c0 3.8.2 5.3.4 3.2.2-2 .2-5.2 0-7-.2-1.7-.4-.1-.4 3.8zm-383 .5c0 3 .2 4.3.4 2.7.2-1.5.2-3.9 0-5.5-.2-1.5-.4-.2-.4 2.8zm365.9-2c0 1.9.2 2.7.5 1.7.2-.9.2-2.5 0-3.5-.3-.9-.5-.1-.5 1.8zm-126.1.6c0 1.1.3 1.4.6.6.3-.7.2-1.6-.1-1.9-.3-.4-.6.2-.5 1.3zm17.1 1.4c0 1.9.2 2.7.5 1.7.2-.9.2-2.5 0-3.5-.3-.9-.5-.1-.5 1.8zm-381 1c0 1.4.2 1.9.5 1.2.2-.6.2-1.8 0-2.5-.3-.6-.5-.1-.5 1.3zm287 2.5c0 1.6.2 2.2.5 1.2.2-.9.2-2.3 0-3-.3-.6-.5.1-.5 1.8zm74.9 1.1c0 1.1.3 1.4.6.6.3-.7.2-1.6-.1-1.9-.3-.4-.6.2-.5 1.3zM39.2 304c0 1.9.2 2.7.5 1.7.2-.9.2-2.5 0-3.5-.3-.9-.5-.1-.5 1.8zm222.1 2c0 3 .2 4.3.4 2.7.2-1.5.2-3.9 0-5.5-.2-1.5-.4-.2-.4 2.8zm9 1.5c0 3.8.2 5.3.4 3.2.2-2 .2-5.2 0-7-.2-1.7-.4-.1-.4 3.8zm149.9-4.5c0 1.4.2 1.9.5 1.2.2-.6.2-1.8 0-2.5-.3-.6-.5-.1-.5 1.3zm-99 5c0 1.9.2 2.7.5 1.7.2-.9.2-2.5 0-3.5-.3-.9-.5-.1-.5 1.8zm9.1.5c0 2.2.2 3 .4 1.7.2-1.2.2-3 0-4-.3-.9-.5.1-.4 2.3zm-116-1.8c.9.2 2.5.2 3.5 0 .9-.3.1-.5-1.8-.5-1.9 0-2.7.2-1.7.5zm142.5 0c1.2.2 3.2.2 4.5 0 1.2-.2.2-.4-2.3-.4s-3.5.2-2.2.4zm193.4 1.8c0 1.6.2 2.2.5 1.2.2-.9.2-2.3 0-3-.3-.6-.5.1-.5 1.8zm-213.1 2.1c0 1.1.3 1.4.6.6.3-.7.2-1.6-.1-1.9-.3-.4-.6.2-.5 1.3zm190.2 3.4c0 3 .2 4.3.4 2.7.2-1.5.2-3.9 0-5.5-.2-1.5-.4-.2-.4 2.8zm-268.1 1c0 1.4.2 1.9.5 1.2.2-.6.2-1.8 0-2.5-.3-.6-.5-.1-.5 1.3zm293 .5c0 1.6.2 2.2.5 1.2.2-.9.2-2.3 0-3-.3-.6-.5.1-.5 1.8zm-513.1 1.1c0 1.1.3 1.4.6.6.3-.7.2-1.6-.1-1.9-.3-.4-.6.2-.5 1.3zm206 0c0 1.1.3 1.4.6.6.3-.7.2-1.6-.1-1.9-.3-.4-.6.2-.5 1.3zm78.1.9c0 1.6.2 2.2.5 1.2.2-.9.2-2.3 0-3-.3-.6-.5.1-.5 1.8zm8.9-.9c0 1.1.3 1.4.6.6.3-.7.2-1.6-.1-1.9-.3-.4-.6.2-.5 1.3zm3 0c0 1.1.3 1.4.6.6.3-.7.2-1.6-.1-1.9-.3-.4-.6.2-.5 1.3zm-67 2c0 1.1.3 1.4.6.6.3-.7.2-1.6-.1-1.9-.3-.4-.6.2-.5 1.3zm-196 12.6c-.1 2.7.3 4.8.7 4.8.4 0 .6-1.7.4-3.8-.5-5.8-1-6.2-1.1-1zm447.1-1.7c0 1.6.2 2.2.5 1.2.2-.9.2-2.3 0-3-.3-.6-.5.1-.5 1.8zm-263 5.5c0 1.4.2 1.9.5 1.2.2-.6.2-1.8 0-2.5-.3-.6-.5-.1-.5 1.3zm286.1 5c0 4.1.2 5.8.4 3.7.2-2 .2-5.4 0-7.5-.2-2-.4-.3-.4 3.8zM119 336.4c0 .2.7.7 1.6 1 .8.3 1.2.2.9-.4-.6-1-2.5-1.4-2.5-.6zM51.3 343c0 3.6.2 5 .4 3.2.2-1.7.2-4.7 0-6.5-.2-1.7-.4-.3-.4 3.3zm140.8-2.4c0 1.1.3 1.4.6.6.3-.7.2-1.6-.1-1.9-.3-.4-.6.2-.5 1.3zM342 344c0 1.6.2 3 .4 3s.6-1.4.8-3c.3-1.7.1-3-.4-3-.4 0-.8 1.3-.8 3zm57.1-1.4c0 1.1.3 1.4.6.6.3-.7.2-1.6-.1-1.9-.3-.4-.6.2-.5 1.3zm54.7.1c.6.2 1.8.2 2.5 0 .6-.3.1-.5-1.3-.5-1.4 0-1.9.2-1.2.5zM249.2 345c0 1.4.2 1.9.5 1.2.2-.6.2-1.8 0-2.5-.3-.6-.5-.1-.5 1.3zm-13.1 1.6c0 1.1.3 1.4.6.6.3-.7.2-1.6-.1-1.9-.3-.4-.6.2-.5 1.3zm93 0c0 1.1.3 1.4.6.6.3-.7.2-1.6-.1-1.9-.3-.4-.6.2-.5 1.3zm16.2 3.9c0 3.3.2 4.5.4 2.7.2-1.8.2-4.5 0-6s-.4 0-.4 3.3zm5 0c0 3.3.2 4.5.4 2.7.2-1.8.2-4.5 0-6s-.4 0-.4 3.3zm-137.2-1.9c0 1.1.3 1.4.6.6.3-.7.2-1.6-.1-1.9-.3-.4-.6.2-.5 1.3zm184.2 1.9c0 2.2.2 3 .4 1.7.2-1.2.2-3 0-4-.3-.9-.5.1-.4 2.3zm142.9.5c0 1.4.2 1.9.5 1.2.2-.6.2-1.8 0-2.5-.3-.6-.5-.1-.5 1.3zm-344.1 1.6c0 1.1.3 1.4.6.6.3-.7.2-1.6-.1-1.9-.3-.4-.6.2-.5 1.3zm131 0c0 1.1.3 1.4.6.6.3-.7.2-1.6-.1-1.9-.3-.4-.6.2-.5 1.3zm51 0c0 1.1.3 1.4.6.6.3-.7.2-1.6-.1-1.9-.3-.4-.6.2-.5 1.3zm-325 2c0 1.1.3 1.4.6.6.3-.7.2-1.6-.1-1.9-.3-.4-.6.2-.5 1.3zm162.2 4.9c0 3.8.2 5.3.4 3.2.2-2 .2-5.2 0-7-.2-1.7-.4-.1-.4 3.8zm137.6-3.3c-.2 1.8-.1 6.7.2 10.8.5 7.3.5 7.2.7-3.3.2-10.5-.2-13.9-.9-7.5zm-201.5 8.3c0 5.5.1 7.6.3 4.7.2-2.9.2-7.4 0-10-.2-2.6-.3-.2-.3 5.3zm86.9-4.5c0 3 .2 4.3.4 2.7.2-1.5.2-3.9 0-5.5-.2-1.5-.4-.2-.4 2.8zm200 3c0 4.7.2 6.6.4 4.2.2-2.3.2-6.1 0-8.5-.2-2.3-.4-.4-.4 4.3zm-239.9 5.5c0 6.6.1 9.2.3 5.7.2-3.4.2-8.8 0-12-.2-3.1-.3-.3-.3 6.3zm56.7-9.9c0 1.1.3 1.4.6.6.3-.7.2-1.6-.1-1.9-.3-.4-.6.2-.5 1.3zm70 0c0 1.1.3 1.4.6.6.3-.7.2-1.6-.1-1.9-.3-.4-.6.2-.5 1.3zm51.1 1.4c0 1.9.2 2.7.5 1.7.2-.9.2-2.5 0-3.5-.3-.9-.5-.1-.5 1.8zm19.1 4c0 4.1.2 5.8.4 3.7.2-2 .2-5.4 0-7.5-.2-2-.4-.3-.4 3.8zm97.8-5.4c0 1.1.3 1.4.6.6.3-.7.2-1.6-.1-1.9-.3-.4-.6.2-.5 1.3zM96.2 362c0 1.9.2 2.7.5 1.7.2-.9.2-2.5 0-3.5-.3-.9-.5-.1-.5 1.8zm170.1 1.5c0 2.7.2 3.8.4 2.2.2-1.5.2-3.7 0-5-.2-1.2-.4 0-.4 2.8zm-139.2 3.1c0 1.1.3 1.4.6.6.3-.7.2-1.6-.1-1.9-.3-.4-.6.2-.5 1.3zm348 0c0 1.1.3 1.4.6.6.3-.7.2-1.6-.1-1.9-.3-.4-.6.2-.5 1.3zM142.2 369c0 1.4.2 1.9.5 1.2.2-.6.2-1.8 0-2.5-.3-.6-.5-.1-.5 1.3zm190.1 1.5c0 2.2.2 3 .4 1.7.2-1.2.2-3 0-4-.3-.9-.5.1-.4 2.3zm42 2c0 3.3.2 4.5.4 2.7.2-1.8.2-4.5 0-6s-.4 0-.4 3.3zm88 0c0 3.3.2 4.5.4 2.7.2-1.8.2-4.5 0-6s-.4 0-.4 3.3zm-344 .5c0 2.5.2 3.5.4 2.2.2-1.2.2-3.2 0-4.5-.2-1.2-.4-.2-.4 2.3zm94.8-2.4c0 1.1.3 1.4.6.6.3-.7.2-1.6-.1-1.9-.3-.4-.6.2-.5 1.3zm23.1.4c0 1.4.2 1.9.5 1.2.2-.6.2-1.8 0-2.5-.3-.6-.5-.1-.5 1.3zm249.9-.4c0 1.1.3 1.4.6.6.3-.7.2-1.6-.1-1.9-.3-.4-.6.2-.5 1.3zm-360.8 3.9c0 2.2.2 3 .4 1.7.2-1.2.2-3 0-4-.3-.9-.5.1-.4 2.3zm327.9-.5c0 1.9.2 2.7.5 1.7.2-.9.2-2.5 0-3.5-.3-.9-.5-.1-.5 1.8zm23.9-1.4c0 1.1.3 1.4.6.6.3-.7.2-1.6-.1-1.9-.3-.4-.6.2-.5 1.3zm-336.8 3.9c0 2.2.2 3 .4 1.7.2-1.2.2-3 0-4-.3-.9-.5.1-.4 2.3zm257 0c0 2.2.2 3 .4 1.7.2-1.2.2-3 0-4-.3-.9-.5.1-.4 2.3zm-186 2.5c0 2.5.2 3.5.4 2.2.2-1.2.2-3.2 0-4.5-.2-1.2-.4-.2-.4 2.3zm46 3.5c0 4.4.2 6.1.4 3.7.2-2.3.2-5.9 0-8-.2-2-.4-.1-.4 4.3zm98-2c0 2.2.2 3 .4 1.7.2-1.2.2-3 0-4-.3-.9-.5.1-.4 2.3zm-123.2 2.1c0 1.1.3 1.4.6.6.3-.7.2-1.6-.1-1.9-.3-.4-.6.2-.5 1.3zm29.9 3.1c0 2.5.2 4.4.4 4.2.8-1 1.3-8.9.5-8.9-.5 0-.9 2.1-.9 4.7zm-65.9-1.1c0 1.1.3 1.4.6.6.3-.7.2-1.6-.1-1.9-.3-.4-.6.2-.5 1.3zm180.2 4.4c0 3.6.2 5 .4 3.2.2-1.7.2-4.7 0-6.5-.2-1.7-.4-.3-.4 3.3zm-166.9 5c0 5.2.1 7.4.3 4.7.2-2.6.2-6.8 0-9.5-.2-2.6-.3-.4-.3 4.8zm117.8-7c0 1.4.2 1.9.5 1.2.2-.6.2-1.8 0-2.5-.3-.6-.5-.1-.5 1.3zm5 0c0 1.4.2 1.9.5 1.2.2-.6.2-1.8 0-2.5-.3-.6-.5-.1-.5 1.3zm-102.1 1.6c0 1.1.3 1.4.6.6.3-.7.2-1.6-.1-1.9-.3-.4-.6.2-.5 1.3zm127.1.9c0 1.6.2 2.2.5 1.2.2-.9.2-2.3 0-3-.3-.6-.5.1-.5 1.8zM301.3 400c0 4.1.2 5.8.4 3.7.2-2 .2-5.4 0-7.5-.2-2-.4-.3-.4 3.8zm-13 1c0 3.6.2 5 .4 3.2.2-1.7.2-4.7 0-6.5-.2-1.7-.4-.3-.4 3.3zm70.9-3c0 1.9.2 2.7.5 1.7.2-.9.2-2.5 0-3.5-.3-.9-.5-.1-.5 1.8zm17 3.5c0 1.6.2 2.2.5 1.2.2-.9.2-2.3 0-3-.3-.6-.5.1-.5 1.8zm-70 3.5c0 1.4.2 1.9.5 1.2.2-.6.2-1.8 0-2.5-.3-.6-.5-.1-.5 1.3zm-26.1 1.6c0 1.1.3 1.4.6.6.3-.7.2-1.6-.1-1.9-.3-.4-.6.2-.5 1.3zm2.3 30.9c0 14.8.2 21.1.3 13.8.2-7.2.2-19.4 0-27-.1-7.6-.3-1.7-.3 13.2zm21 .5c0 12.9.2 18.2.3 11.7.2-6.4.2-17 0-23.5-.1-6.4-.3-1.1-.3 11.8zm41.8-16c0 1.9.2 2.7.5 1.7.2-.9.2-2.5 0-3.5-.3-.9-.5-.1-.5 1.8zm-219.4-1.3c.6.2 1.8.2 2.5 0 .6-.3.1-.5-1.3-.5-1.4 0-1.9.2-1.2.5zm316 0c2.8.2 7.6.2 10.5 0 2.8-.2.5-.3-5.3-.3s-8.1.1-5.2.3zm-195.7 3.9c0 1.1.3 1.4.6.6.3-.7.2-1.6-.1-1.9-.3-.4-.6.2-.5 1.3zm88.1.9c0 1.6.2 2.2.5 1.2.2-.9.2-2.3 0-3-.3-.6-.5.1-.5 1.8zm-85.5 2.9c-.4 1-.7 3.4-.6 5.4l.1 3.7.9-4.5c1-4.8.7-7.5-.4-4.6zm94.6 6.6c0 3.6.2 5 .4 3.2.2-1.7.2-4.7 0-6.5-.2-1.7-.4-.3-.4 3.3zm16.8-4.4c0 1.1.3 1.4.6.6.3-.7.2-1.6-.1-1.9-.3-.4-.6.2-.5 1.3zm-128.9 4.9c0 1.6.2 2.2.5 1.2.2-.9.2-2.3 0-3-.3-.6-.5.1-.5 1.8zm127.2 14c0 8.2.2 11.5.3 7.2.2-4.3.2-11 0-15-.1-4-.3-.5-.3 7.8zm-28.3-10.9c0 1.1.3 1.4.6.6.3-.7.2-1.6-.1-1.9-.3-.4-.6.2-.5 1.3zM246.4 450c0 6.3.1 8.9.3 5.7.2-3.1.2-8.3 0-11.5-.2-3.1-.3-.5-.3 5.8zm-13 1.5c0 6 .1 8.4.3 5.2.2-3.2.2-8.1 0-11-.2-2.9-.3-.3-.3 5.8zm95 1c0 5.5.1 7.6.3 4.7.2-2.9.2-7.4 0-10-.2-2.6-.3-.2-.3 5.3zm-69 3.5c0 6.3.1 8.9.3 5.7.2-3.1.2-8.3 0-11.5-.2-3.1-.3-.5-.3 5.8zm81.9-7.5c0 2.2.2 3 .4 1.7.2-1.2.2-3 0-4-.3-.9-.5.1-.4 2.3zm-2 11c0 2.7.2 3.8.4 2.2.2-1.5.2-3.7 0-5-.2-1.2-.4 0-.4 2.8zm-91.1 5.5c0 1.4.2 1.9.5 1.2.2-.6.2-1.8 0-2.5-.3-.6-.5-.1-.5 1.3zm53 0c0 1.4.2 1.9.5 1.2.2-.6.2-1.8 0-2.5-.3-.6-.5-.1-.5 1.3zm-66.1 1.6c0 1.1.3 1.4.6.6.3-.7.2-1.6-.1-1.9-.3-.4-.6.2-.5 1.3zm49.2 4.9c0 2.7.2 3.8.4 2.2.2-1.5.2-3.7 0-5-.2-1.2-.4 0-.4 2.8zm52.8-2.9c0 1.1.3 1.4.6.6.3-.7.2-1.6-.1-1.9-.3-.4-.6.2-.5 1.3zm19.1 1.4c0 1.9.2 2.7.5 1.7.2-.9.2-2.5 0-3.5-.3-.9-.5-.1-.5 1.8zm-119.1 2.6c0 1.1.3 1.4.6.6.3-.7.2-1.6-.1-1.9-.3-.4-.6.2-.5 1.3zm62.3 12.9c0 8.2.2 11.5.3 7.2.2-4.3.2-11 0-15-.1-4-.3-.5-.3 7.8zm54.8-8.5c0 1.4.2 1.9.5 1.2.2-.6.2-1.8 0-2.5-.3-.6-.5-.1-.5 1.3zm-67.9 5.5c0 2.2.2 3 .4 1.7.2-1.2.2-3 0-4-.3-.9-.5.1-.4 2.3zm2 12c0 3.3.2 4.5.4 2.7.2-1.8.2-4.5 0-6s-.4 0-.4 3.3zm21.9-2.5c0 1.9.2 2.7.5 1.7.2-.9.2-2.5 0-3.5-.3-.9-.5-.1-.5 1.8zm-39.9 14.5c0 2.2.2 3 .4 1.7.2-1.2.2-3 0-4-.3-.9-.5.1-.4 2.3zm47 3c0 3.8.2 5.3.4 3.2.2-2 .2-5.2 0-7-.2-1.7-.4-.1-.4 3.8zm-17.1-2.5c0 1.4.2 1.9.5 1.2.2-.6.2-1.8 0-2.5-.3-.6-.5-.1-.5 1.3zm-45.1 3.6c0 1.1.3 1.4.6.6.3-.7.2-1.6-.1-1.9-.3-.4-.6.2-.5 1.3zm17.2 6.4c0 2.5.2 3.5.4 2.2.2-1.2.2-3.2 0-4.5-.2-1.2-.4-.2-.4 2.3zm64 1.5c0 3.3.2 4.5.4 2.7.2-1.8.2-4.5 0-6s-.4 0-.4 3.3zm-78.9 5.5c0 5.2.1 7.4.3 4.7.2-2.6.2-6.8 0-9.5-.2-2.6-.3-.4-.3 4.8zm51-3.8c.2.8 1.7 1.3 3.6 1.3 1.9 0 3.4-.5 3.6-1.3.1-.7 0-.8-.3-.2-.2.5-1.7 1-3.3 1-1.6 0-3.1-.5-3.3-1-.3-.6-.4-.5-.3.2zm25.9 10.3c0 2.2.2 3 .4 1.7.2-1.2.2-3 0-4-.3-.9-.5.1-.4 2.3zm-60 16.2c2 .2 5.4.2 7.5 0 2-.2.3-.4-3.8-.4s-5.8.2-3.7.4zm35.5 0c1.7.2 4.7.2 6.5 0 1.7-.2.3-.4-3.3-.4-3.6 0-5 .2-3.2.4z" fill="#FFF" fill-opacity=".25"/><path d="M128.8 72.7c.7.3 1.6.2 1.9-.1.4-.3-.2-.6-1.3-.5-1.1 0-1.4.3-.6.6zm30.5 0c1.5.2 3.7.2 5 0 1.2-.2 0-.4-2.8-.4-2.7 0-3.8.2-2.2.4zm18 0c2 .2 5.4.2 7.5 0 2-.2.3-.4-3.8-.4s-5.8.2-3.7.4zm231 0c1.5.2 3.9.2 5.5 0 1.5-.2.2-.4-2.8-.4s-4.3.2-2.7.4zm25 0c.9.2 2.3.2 3 0 .6-.3-.1-.5-1.8-.5-1.6 0-2.2.2-1.2.5zm20.5 0c.7.3 1.6.2 1.9-.1.4-.3-.2-.6-1.3-.5-1.1 0-1.4.3-.6.6zm-286 2c.6.2 1.8.2 2.5 0 .6-.3.1-.5-1.3-.5-1.4 0-1.9.2-1.2.5zm22.5 0c.9.2 2.3.2 3 0 .6-.3-.1-.5-1.8-.5-1.6 0-2.2.2-1.2.5zm212.5 0c.7.3 1.6.2 1.9-.1.4-.3-.2-.6-1.3-.5-1.1 0-1.4.3-.6.6zm15 0c.7.3 1.6.2 1.9-.1.4-.3-.2-.6-1.3-.5-1.1 0-1.4.3-.6.6zm11 0c.7.3 1.6.2 1.9-.1.4-.3-.2-.6-1.3-.5-1.1 0-1.4.3-.6.6zm29 0c.7.3 1.6.2 1.9-.1.4-.3-.2-.6-1.3-.5-1.1 0-1.4.3-.6.6zm-339 4c.7.3 1.6.2 1.9-.1.4-.3-.2-.6-1.3-.5-1.1 0-1.4.3-.6.6zm81 0c.7.3 1.6.2 1.9-.1.4-.3-.2-.6-1.3-.5-1.1 0-1.4.3-.6.6zm8.5 0c1.5.2 3.9.2 5.5 0 1.5-.2.2-.4-2.8-.4s-4.3.2-2.7.4zm163.5 0c1.2.2 3.2.2 4.5 0 1.2-.2.2-.4-2.3-.4s-3.5.2-2.2.4zm23 0c.7.3 1.6.2 1.9-.1.4-.3-.2-.6-1.3-.5-1.1 0-1.4.3-.6.6zm71 0c.7.3 1.6.2 1.9-.1.4-.3-.2-.6-1.3-.5-1.1 0-1.4.3-.6.6zm-359.1 2c1.8.2 5 .2 7 0 2.1-.2.7-.4-3.2-.4-3.8 0-5.5.2-3.8.4zm111.6 0c.9.2 2.3.2 3 0 .6-.3-.1-.5-1.8-.5-1.6 0-2.2.2-1.2.5zm147 0c.9.2 2.3.2 3 0 .6-.3-.1-.5-1.8-.5-1.6 0-2.2.2-1.2.5zm16.5 0c1.7.2 4.7.2 6.5 0 1.7-.2.3-.4-3.3-.4-3.6 0-5 .2-3.2.4zm95.1 3.6c.4.5 3.2.7 6.2.5l5.4-.3-6.2-.5c-3.4-.3-5.8-.1-5.4.3zM92.8 86.7c.7.3 1.6.2 1.9-.1.4-.3-.2-.6-1.3-.5-1.1 0-1.4.3-.6.6zm137 0c.7.3 1.6.2 1.9-.1.4-.3-.2-.6-1.3-.5-1.1 0-1.4.3-.6.6zm260.5 0c.9.2 2.3.2 3 0 .6-.3-.1-.5-1.8-.5-1.6 0-2.2.2-1.2.5zm-315.5 10c.7.3 1.6.2 1.9-.1.4-.3-.2-.6-1.3-.5-1.1 0-1.4.3-.6.6zm65.5 0c.9.2 2.3.2 3 0 .6-.3-.1-.5-1.8-.5-1.6 0-2.2.2-1.2.5zm5.5 2c.7.3 1.6.2 1.9-.1.4-.3-.2-.6-1.3-.5-1.1 0-1.4.3-.6.6zm96 0c1.2.2 3 .2 4 0 .9-.3-.1-.5-2.3-.4-2.2 0-3 .2-1.7.4zm42 6c.7.3 1.6.2 1.9-.1.4-.3-.2-.6-1.3-.5-1.1 0-1.4.3-.6.6zm129 0c1.2.2 3 .2 4 0 .9-.3-.1-.5-2.3-.4-2.2 0-3 .2-1.7.4zm-121 6c.7.3 1.6.2 1.9-.1.4-.3-.2-.6-1.3-.5-1.1 0-1.4.3-.6.6zm-38 10c.7.3 1.6.2 1.9-.1.4-.3-.2-.6-1.3-.5-1.1 0-1.4.3-.6.6zm-121 2c.7.3 1.6.2 1.9-.1.4-.3-.2-.6-1.3-.5-1.1 0-1.4.3-.6.6zm125 0c.7.3 1.6.2 1.9-.1.4-.3-.2-.6-1.3-.5-1.1 0-1.4.3-.6.6zm-133 4c.7.3 1.6.2 1.9-.1.4-.3-.2-.6-1.3-.5-1.1 0-1.4.3-.6.6zm139 0c.7.3 1.6.2 1.9-.1.4-.3-.2-.6-1.3-.5-1.1 0-1.4.3-.6.6zm-143 2c.7.3 1.6.2 1.9-.1.4-.3-.2-.6-1.3-.5-1.1 0-1.4.3-.6.6zm147 0c.7.3 1.6.2 1.9-.1.4-.3-.2-.6-1.3-.5-1.1 0-1.4.3-.6.6zm6 4c.7.3 1.6.2 1.9-.1.4-.3-.2-.6-1.3-.5-1.1 0-1.4.3-.6.6zm-163 2c.7.3 1.6.2 1.9-.1.4-.3-.2-.6-1.3-.5-1.1 0-1.4.3-.6.6zm70.5 4c6.4.2 17 .2 23.5 0 6.4-.1 1.1-.3-11.8-.3s-18.2.2-11.7.3zm-20 2c1.5.2 3.9.2 5.5 0 1.5-.2.2-.4-2.8-.4s-4.3.2-2.7.4zm58.5 0c1.7.2 4.7.2 6.5 0 1.7-.2.3-.4-3.3-.4-3.6 0-5 .2-3.2.4zm-69 4c.7.3 1.6.2 1.9-.1.4-.3-.2-.6-1.3-.5-1.1 0-1.4.3-.6.6zm87 0c.7.3 1.6.2 1.9-.1.4-.3-.2-.6-1.3-.5-1.1 0-1.4.3-.6.6zm-276.5 12c.9.2 2.3.2 3 0 .6-.3-.1-.5-1.8-.5-1.6 0-2.2.2-1.2.5zm467 0c.9.2 2.3.2 3 0 .6-.3-.1-.5-1.8-.5-1.6 0-2.2.2-1.2.5zm-472.5 2c.6.2 1.8.2 2.5 0 .6-.3.1-.5-1.3-.5-1.4 0-1.9.2-1.2.5zm53.5 10c2 .2 5.4.2 7.5 0 2-.2.3-.4-3.8-.4s-5.8.2-3.7.4zm361 0c1.5.2 3.7.2 5 0 1.2-.2 0-.4-2.8-.4-2.7 0-3.8.2-2.2.4zm13.4 0c1.8.2 5 .2 7 0 2.1-.2.7-.4-3.2-.4-3.8 0-5.5.2-3.8.4zm-388.9 2c1.8.2 4.5.2 6 0s0-.4-3.3-.4-4.5.2-2.7.4zm27.5 0c.9.2 2.3.2 3 0 .6-.3-.1-.5-1.8-.5-1.6 0-2.2.2-1.2.5zm342.5 0c.7.3 1.6.2 1.9-.1.4-.3-.2-.6-1.3-.5-1.1 0-1.4.3-.6.6zm32 0c1.2.2 3.2.2 4.5 0 1.2-.2.2-.4-2.3-.4s-3.5.2-2.2.4zm-365 4c.7.3 1.6.2 1.9-.1.4-.3-.2-.6-1.3-.5-1.1 0-1.4.3-.6.6zm323 0c.7.3 1.6.2 1.9-.1.4-.3-.2-.6-1.3-.5-1.1 0-1.4.3-.6.6zm-319 2c.7.3 1.6.2 1.9-.1.4-.3-.2-.6-1.3-.5-1.1 0-1.4.3-.6.6zm315 0c.7.3 1.6.2 1.9-.1.4-.3-.2-.6-1.3-.5-1.1 0-1.4.3-.6.6zm-414 6c.7.3 1.6.2 1.9-.1.4-.3-.2-.6-1.3-.5-1.1 0-1.4.3-.6.6zm58.5 4c.9.2 2.5.2 3.5 0 .9-.3.1-.5-1.8-.5-1.9 0-2.7.2-1.7.5zm17.5 0c.7.3 1.6.2 1.9-.1.4-.3-.2-.6-1.3-.5-1.1 0-1.4.3-.6.6zm372 0c2.3.2 5.9.2 8 0 2-.2.1-.4-4.3-.4-4.4 0-6.1.2-3.7.4zm-400.5 2c.9.2 2.5.2 3.5 0 .9-.3.1-.5-1.8-.5-1.9 0-2.7.2-1.7.5zm20.5 0c1.2.2 3.2.2 4.5 0 1.2-.2.2-.4-2.3-.4s-3.5.2-2.2.4zm398.5 0c1.5.2 3.7.2 5 0 1.2-.2 0-.4-2.8-.4-2.7 0-3.8.2-2.2.4zm-282.5 6c.7.3 1.6.2 1.9-.1.4-.3-.2-.6-1.3-.5-1.1 0-1.4.3-.6.6zm-13 4c.6.2 1.8.2 2.5 0 .6-.3.1-.5-1.3-.5-1.4 0-1.9.2-1.2.5zm166 0c.7.3 1.6.2 1.9-.1.4-.3-.2-.6-1.3-.5-1.1 0-1.4.3-.6.6zm-173.5 2c.9.2 2.5.2 3.5 0 .9-.3.1-.5-1.8-.5-1.9 0-2.7.2-1.7.5zm177.5 0c.6.2 1.8.2 2.5 0 .6-.3.1-.5-1.3-.5-1.4 0-1.9.2-1.2.5zm-279 4c.7.3 1.6.2 1.9-.1.4-.3-.2-.6-1.3-.5-1.1 0-1.4.3-.6.6zm295.5 0c.9.2 2.3.2 3 0 .6-.3-.1-.5-1.8-.5-1.6 0-2.2.2-1.2.5zm-304 2c1.5.2 3.7.2 5 0 1.2-.2 0-.4-2.8-.4-2.7 0-3.8.2-2.2.4zm309.5 0c.7.3 1.6.2 1.9-.1.4-.3-.2-.6-1.3-.5-1.1 0-1.4.3-.6.6zm102 0c.7.3 1.6.2 1.9-.1.4-.3-.2-.6-1.3-.5-1.1 0-1.4.3-.6.6zm-425 4c.7.3 1.6.2 1.9-.1.4-.3-.2-.6-1.3-.5-1.1 0-1.4.3-.6.6zm435 0c.7.3 1.6.2 1.9-.1.4-.3-.2-.6-1.3-.5-1.1 0-1.4.3-.6.6zm-439 2c.7.3 1.6.2 1.9-.1.4-.3-.2-.6-1.3-.5-1.1 0-1.4.3-.6.6zm443 0c.7.3 1.6.2 1.9-.1.4-.3-.2-.6-1.3-.5-1.1 0-1.4.3-.6.6zm-155 4c.7.3 1.6.2 1.9-.1.4-.3-.2-.6-1.3-.5-1.1 0-1.4.3-.6.6zm-139 2c.7.3 1.6.2 1.9-.1.4-.3-.2-.6-1.3-.5-1.1 0-1.4.3-.6.6zm-138.5 10c.9.2 2.3.2 3 0 .6-.3-.1-.5-1.8-.5-1.6 0-2.2.2-1.2.5zm422.5 0c.7.3 1.6.2 1.9-.1.4-.3-.2-.6-1.3-.5-1.1 0-1.4.3-.6.6zm-427 2c.7.3 1.6.2 1.9-.1.4-.3-.2-.6-1.3-.5-1.1 0-1.4.3-.6.6zm431 0c.7.3 1.6.2 1.9-.1.4-.3-.2-.6-1.3-.5-1.1 0-1.4.3-.6.6zm8 6c.7.3 1.6.2 1.9-.1.4-.3-.2-.6-1.3-.5-1.1 0-1.4.3-.6.6zm-433 12c.7.3 1.6.2 1.9-.1.4-.3-.2-.6-1.3-.5-1.1 0-1.4.3-.6.6zm425 4c.7.3 1.6.2 1.9-.1.4-.3-.2-.6-1.3-.5-1.1 0-1.4.3-.6.6zm-435 2c.7.3 1.6.2 1.9-.1.4-.3-.2-.6-1.3-.5-1.1 0-1.4.3-.6.6zm134.5 6c2.6.2 6.7.2 9 0s.2-.3-4.8-.3c-4.9 0-6.8.1-4.2.3zm164.5 0c1.2.2 3 .2 4 0 .9-.3-.1-.5-2.3-.4-2.2 0-3 .2-1.7.4zm-11 4c.7.3 1.6.2 1.9-.1.4-.3-.2-.6-1.3-.5-1.1 0-1.4.3-.6.6zm-78 2c.7.3 1.6.2 1.9-.1.4-.3-.2-.6-1.3-.5-1.1 0-1.4.3-.6.6zm17 0c.7.3 1.6.2 1.9-.1.4-.3-.2-.6-1.3-.5-1.1 0-1.4.3-.6.6zm-23 4c.7.3 1.6.2 1.9-.1.4-.3-.2-.6-1.3-.5-1.1 0-1.4.3-.6.6zm29 0c.7.3 1.6.2 1.9-.1.4-.3-.2-.6-1.3-.5-1.1 0-1.4.3-.6.6zm13 0c.7.3 1.6.2 1.9-.1.4-.3-.2-.6-1.3-.5-1.1 0-1.4.3-.6.6zm-216.5 2c.9.2 2.3.2 3 0 .6-.3-.1-.5-1.8-.5-1.6 0-2.2.2-1.2.5zm401.5 0c.7.3 1.6.2 1.9-.1.4-.3-.2-.6-1.3-.5-1.1 0-1.4.3-.6.6zm-388.9 3.6c.5.5 2.8.7 5.2.5l4.4-.3-5.2-.5c-2.9-.3-4.8-.1-4.4.3zm-42.1.4c.7.3 1.6.2 1.9-.1.4-.3-.2-.6-1.3-.5-1.1 0-1.4.3-.6.6zm400.5 0c.9.2 2.3.2 3 0 .6-.3-.1-.5-1.8-.5-1.6 0-2.2.2-1.2.5zm-346.5 2c1.2.2 3 .2 4 0 .9-.3-.1-.5-2.3-.4-2.2 0-3 .2-1.7.4zm340.5 0c.9.2 2.3.2 3 0 .6-.3-.1-.5-1.8-.5-1.6 0-2.2.2-1.2.5zm-327.5 4c.7.3 1.6.2 1.9-.1.4-.3-.2-.6-1.3-.5-1.1 0-1.4.3-.6.6zm317 0c.7.3 1.6.2 1.9-.1.4-.3-.2-.6-1.3-.5-1.1 0-1.4.3-.6.6zm-313 2c.7.3 1.6.2 1.9-.1.4-.3-.2-.6-1.3-.5-1.1 0-1.4.3-.6.6zm309 0c.7.3 1.6.2 1.9-.1.4-.3-.2-.6-1.3-.5-1.1 0-1.4.3-.6.6zm-303 4c.7.3 1.6.2 1.9-.1.4-.3-.2-.6-1.3-.5-1.1 0-1.4.3-.6.6zm295 0c.7.3 1.6.2 1.9-.1.4-.3-.2-.6-1.3-.5-1.1 0-1.4.3-.6.6zm-259 8c.7.3 1.6.2 1.9-.1.4-.3-.2-.6-1.3-.5-1.1 0-1.4.3-.6.6zm247 0c.7.3 1.6.2 1.9-.1.4-.3-.2-.6-1.3-.5-1.1 0-1.4.3-.6.6zm-229 10c.7.3 1.6.2 1.9-.1.4-.3-.2-.6-1.3-.5-1.1 0-1.4.3-.6.6zm191 0c.7.3 1.6.2 1.9-.1.4-.3-.2-.6-1.3-.5-1.1 0-1.4.3-.6.6zm-4 2c.7.3 1.6.2 1.9-.1.4-.3-.2-.6-1.3-.5-1.1 0-1.4.3-.6.6zm-8 4c.7.3 1.6.2 1.9-.1.4-.3-.2-.6-1.3-.5-1.1 0-1.4.3-.6.6zm-263 6c.7.3 1.6.2 1.9-.1.4-.3-.2-.6-1.3-.5-1.1 0-1.4.3-.6.6zm251 2c.7.3 1.6.2 1.9-.1.4-.3-.2-.6-1.3-.5-1.1 0-1.4.3-.6.6zm88 4c.7.3 1.6.2 1.9-.1.4-.3-.2-.6-1.3-.5-1.1 0-1.4.3-.6.6zm-327 2c.7.3 1.6.2 1.9-.1.4-.3-.2-.6-1.3-.5-1.1 0-1.4.3-.6.6zm317 4c.7.3 1.6.2 1.9-.1.4-.3-.2-.6-1.3-.5-1.1 0-1.4.3-.6.6zm40 38c.7.3 1.6.2 1.9-.1.4-.3-.2-.6-1.3-.5-1.1 0-1.4.3-.6.6zm-16 6c.7.3 1.6.2 1.9-.1.4-.3-.2-.6-1.3-.5-1.1 0-1.4.3-.6.6zm-353 4c.6.2 1.8.2 2.5 0 .6-.3.1-.5-1.3-.5-1.4 0-1.9.2-1.2.5zm342.5 0c.9.2 2.5.2 3.5 0 .9-.3.1-.5-1.8-.5-1.9 0-2.7.2-1.7.5zm-322.5 2c.6.2 1.8.2 2.5 0 .6-.3.1-.5-1.3-.5-1.4 0-1.9.2-1.2.5zm128 18c1.2.2 3.2.2 4.5 0 1.2-.2.2-.4-2.3-.4s-3.5.2-2.2.4z" fill="none"/><path d="M467 79.4c0 .2.8 1 1.8 1.7 1.5 1.3 1.6 1.2.3-.4s-2.1-2.1-2.1-1.3zM95.9 85.7c-1.3 1.6-1.2 1.7.4.4.9-.7 1.7-1.5 1.7-1.7 0-.8-.8-.3-2.1 1.3zM226 84.4c0 .2.8 1 1.8 1.7 1.5 1.3 1.6 1.2.3-.4s-2.1-2.1-2.1-1.3zM499.5 92c1 1.1 2 2 2.3 2 .3 0-.3-.9-1.3-2s-2-2-2.3-2c-.3 0 .3.9 1.3 2zm-146.6.7c-1.3 1.6-1.2 1.7.4.4 1.6-1.3 2.1-2.1 1.3-2.1-.2 0-1 .8-1.7 1.7zM83.4 98.2l-1.9 2.3 2.3-1.9c2.1-1.8 2.7-2.6 1.9-2.6-.2 0-1.2 1-2.3 2.2zm56 0-1.9 2.3 2.3-1.9c2.1-1.8 2.7-2.6 1.9-2.6-.2 0-1.2 1-2.3 2.2zm208.5-.5c-1.3 1.6-1.2 1.7.4.4 1.6-1.3 2.1-2.1 1.3-2.1-.2 0-1 .8-1.7 1.7zm69.1-.3c0 .2.8 1 1.8 1.7 1.5 1.3 1.6 1.2.3-.4s-2.1-2.1-2.1-1.3zm-249.6 6.8-1.9 2.3 2.3-1.9c2.1-1.8 2.7-2.6 1.9-2.6-.2 0-1.2 1-2.3 2.2zm82.6-1.8c0 .2.8 1 1.8 1.7 1.5 1.3 1.6 1.2.3-.4s-2.1-2.1-2.1-1.3zm83.4 1.8-1.9 2.3 2.3-1.9c1.2-1.1 2.2-2.1 2.2-2.3 0-.8-.8-.2-2.6 1.9zm46.6-1.8c0 .2.8 1 1.8 1.7 1.5 1.3 1.6 1.2.3-.4s-2.1-2.1-2.1-1.3zm42 0c0 .2.8 1 1.8 1.7 1.5 1.3 1.6 1.2.3-.4s-2.1-2.1-2.1-1.3zm86 0c0 .2.8 1 1.8 1.7 1.5 1.3 1.6 1.2.3-.4s-2.1-2.1-2.1-1.3zm-304.6 7.8-1.9 2.3 2.3-1.9c2.1-1.8 2.7-2.6 1.9-2.6-.2 0-1.2 1-2.3 2.2zm184.6-1.8c0 .2.8 1 1.8 1.7 1.5 1.3 1.6 1.2.3-.4s-2.1-2.1-2.1-1.3zm137.5 1.6c1 1.1 2 2 2.3 2 .3 0-.3-.9-1.3-2s-2-2-2.3-2c-.3 0 .3.9 1.3 2zm-266.5-.6c0 .2.8 1 1.8 1.7 1.5 1.3 1.6 1.2.3-.4s-2.1-2.1-2.1-1.3zm168 0c0 .2.8 1 1.8 1.7 1.5 1.3 1.6 1.2.3-.4s-2.1-2.1-2.1-1.3zm-29.5 6.6c1 1.1 2 2 2.3 2 .3 0-.3-.9-1.3-2s-2-2-2.3-2c-.3 0 .3.9 1.3 2zm-202.6.7c-1.3 1.6-1.2 1.7.4.4.9-.7 1.7-1.5 1.7-1.7 0-.8-.8-.3-2.1 1.3zm46 0c-1.3 1.6-1.2 1.7.4.4.9-.7 1.7-1.5 1.7-1.7 0-.8-.8-.3-2.1 1.3zm-51.5 5.5-1.9 2.3 2.3-1.9c2.1-1.8 2.7-2.6 1.9-2.6-.2 0-1.2 1-2.3 2.2zm46.5-.5c-1.3 1.6-1.2 1.7.4.4.9-.7 1.7-1.5 1.7-1.7 0-.8-.8-.3-2.1 1.3zm33.6.3c1 1.1 2 2 2.3 2 .3 0-.3-.9-1.3-2s-2-2-2.3-2c-.3 0 .3.9 1.3 2zm134 0c1 1.1 2 2 2.3 2 .3 0-.3-.9-1.3-2s-2-2-2.3-2c-.3 0 .3.9 1.3 2zm3.5 5.4c0 .2.8 1 1.8 1.7 1.5 1.3 1.6 1.2.3-.4s-2.1-2.1-2.1-1.3zm-227.6 6.8-1.9 2.3 2.3-1.9c2.1-1.8 2.7-2.6 1.9-2.6-.2 0-1.2 1-2.3 2.2zm195.6-.8c0 .2.8 1 1.8 1.7 1.5 1.3 1.6 1.2.3-.4s-2.1-2.1-2.1-1.3zm137.9 1.3c-1.3 1.6-1.2 1.7.4.4 1.6-1.3 2.1-2.1 1.3-2.1-.2 0-1 .8-1.7 1.7zm-463 5c-1.3 1.6-1.2 1.7.4.4.9-.7 1.7-1.5 1.7-1.7 0-.8-.8-.3-2.1 1.3zm153.5.5-1.9 2.3 2.3-1.9c2.1-1.8 2.7-2.6 1.9-2.6-.2 0-1.2 1-2.3 2.2zm335.6-.8c0 .2.8 1 1.8 1.7 1.5 1.3 1.6 1.2.3-.4s-2.1-2.1-2.1-1.3zm-290.1 7.3c-1.3 1.6-1.2 1.7.4.4.9-.7 1.7-1.5 1.7-1.7 0-.8-.8-.3-2.1 1.3zm90.1-1.3c0 .2.8 1 1.8 1.7 1.5 1.3 1.6 1.2.3-.4s-2.1-2.1-2.1-1.3zm50 0c0 .2.8 1 1.8 1.7 1.5 1.3 1.6 1.2.3-.4s-2.1-2.1-2.1-1.3zm-43.5 6.6c1 1.1 2 2 2.3 2 .3 0-.3-.9-1.3-2s-2-2-2.3-2c-.3 0 .3.9 1.3 2zm-52.2 5.5c1.7 1.9 1.7 1.9 3.5 0 1.6-1.8 1.6-1.8 0-.6-1.5 1.1-2.1 1.1-3.5 0-1.7-1.2-1.7-1.2 0 .6zm58.2.5c1 1.1 2 2 2.3 2 .3 0-.3-.9-1.3-2s-2-2-2.3-2c-.3 0 .3.9 1.3 2zm182.5-1.1c0 .8-.7 1.1-1.7.6-1.5-.5-1.6-.4-.5.6.9 1 1.5 1 2.4.1.6-.6.9-1.5.5-1.9-.4-.3-.7-.1-.7.6zm-297.1 1.8c-1.3 1.6-1.2 1.7.4.4.9-.7 1.7-1.5 1.7-1.7 0-.8-.8-.3-2.1 1.3zM549.5 176c1 1.1 2 2 2.3 2 .3 0-.3-.9-1.3-2s-2-2-2.3-2c-.3 0 .3.9 1.3 2zM363 187.4c0 .2.8 1 1.8 1.7 1.5 1.3 1.6 1.2.3-.4s-2.1-2.1-2.1-1.3zm4 6c0 .2.8 1 1.8 1.7 1.5 1.3 1.6 1.2.3-.4s-2.1-2.1-2.1-1.3zm-185.6 18.8-1.9 2.3 2.3-1.9c2.1-1.8 2.7-2.6 1.9-2.6-.2 0-1.2 1-2.3 2.2zm-114 6-1.9 2.3 2.3-1.9c1.2-1.1 2.2-2.1 2.2-2.3 0-.8-.8-.2-2.6 1.9zm344.1-.2c1 1.1 2 2 2.3 2 .3 0-.3-.9-1.3-2s-2-2-2.3-2c-.3 0 .3.9 1.3 2zm-52.6.7c-1.3 1.6-1.2 1.7.4.4.9-.7 1.7-1.5 1.7-1.7 0-.8-.8-.3-2.1 1.3zm164.1-1.3c0 .2.8 1 1.8 1.7 1.5 1.3 1.6 1.2.3-.4s-2.1-2.1-2.1-1.3zm32 0c0 .2.8 1 1.8 1.7 1.5 1.3 1.6 1.2.3-.4s-2.1-2.1-2.1-1.3zm-383.6 6.8-1.9 2.3 2.3-1.9c2.1-1.8 2.7-2.6 1.9-2.6-.2 0-1.2 1-2.3 2.2zm58.1-.2c1 1.1 2 2 2.3 2 .3 0-.3-.9-1.3-2s-2-2-2.3-2c-.3 0 .3.9 1.3 2zm267.5-1.3c0 .6.8 1.7 1.8 2.4 1.6 1.3 1.6 1.3.2-.6-.8-1.1-1.6-2.2-1.7-2.4-.2-.2-.3 0-.3.6zm-331.6 7.5-1.9 2.3 2.3-1.9c2.1-1.8 2.7-2.6 1.9-2.6-.2 0-1.2 1-2.3 2.2zm70.1-.2c1 1.1 2 2 2.3 2 .3 0-.3-.9-1.3-2s-2-2-2.3-2c-.3 0 .3.9 1.3 2zm113.9.2-1.9 2.3 2.3-1.9c2.1-1.8 2.7-2.6 1.9-2.6-.2 0-1.2 1-2.3 2.2zm67.6-.8c0 .2.8 1 1.8 1.7 1.5 1.3 1.6 1.2.3-.4s-2.1-2.1-2.1-1.3zM241.5 236c1 1.1 2 2 2.3 2 .3 0-.3-.9-1.3-2s-2-2-2.3-2c-.3 0 .3.9 1.3 2zm184 0c1 1.1 2 2 2.3 2 .3 0-.3-.9-1.3-2s-2-2-2.3-2c-.3 0 .3.9 1.3 2zm88.5-1.6c0 .2.8 1 1.8 1.7 1.5 1.3 1.6 1.2.3-.4s-2.1-2.1-2.1-1.3zm-323 1c0 .2.8 1 1.8 1.7 1.5 1.3 1.6 1.2.3-.4s-2.1-2.1-2.1-1.3zm-127.6 6.8-1.9 2.3 2.3-1.9c2.1-1.8 2.7-2.6 1.9-2.6-.2 0-1.2 1-2.3 2.2zm184.1-.2c1 1.1 2 2 2.3 2 .3 0-.3-.9-1.3-2s-2-2-2.3-2c-.3 0 .3.9 1.3 2zm145.9.2-1.9 2.3 2.3-1.9c1.2-1.1 2.2-2.1 2.2-2.3 0-.8-.8-.2-2.6 1.9zm130.1-.2c1 1.1 2 2 2.3 2 .3 0-.3-.9-1.3-2s-2-2-2.3-2c-.3 0 .3.9 1.3 2zm-270 6c1 1.1 2 2 2.3 2 .3 0-.3-.9-1.3-2s-2-2-2.3-2c-.3 0 .3.9 1.3 2zm-175.6 5.7c-1.3 1.6-1.2 1.7.4.4.9-.7 1.7-1.5 1.7-1.7 0-.8-.8-.3-2.1 1.3zm454.1-1.3c0 .2.8 1 1.8 1.7 1.5 1.3 1.6 1.2.3-.4s-2.1-2.1-2.1-1.3zm-462.6 7.8-1.9 2.3 2.3-1.9c1.2-1.1 2.2-2.1 2.2-2.3 0-.8-.8-.2-2.6 1.9zm310.5-.5c-1.3 1.6-1.2 1.7.4.4 1.6-1.3 2.1-2.1 1.3-2.1-.2 0-1 .8-1.7 1.7zm137.6.3c1 1.1 2 2 2.3 2 .3 0-.3-.9-1.3-2s-2-2-2.3-2c-.3 0 .3.9 1.3 2zm-454.1 6.2-1.9 2.3 2.3-1.9c2.1-1.8 2.7-2.6 1.9-2.6-.2 0-1.2 1-2.3 2.2zm162.1-.2c1 1.1 2 2 2.3 2 .3 0-.3-.9-1.3-2s-2-2-2.3-2c-.3 0 .3.9 1.3 2zm135.4.7c-1.3 1.6-1.2 1.7.4.4.9-.7 1.7-1.5 1.7-1.7 0-.8-.8-.3-2.1 1.3zm-279.5 5.5-1.9 2.3 2.3-1.9c2.1-1.8 2.7-2.6 1.9-2.6-.2 0-1.2 1-2.3 2.2zm420.6-1.8c0 .2.8 1 1.8 1.7 1.5 1.3 1.6 1.2.3-.4s-2.1-2.1-2.1-1.3zm25.5 1.6c1 1.1 2 2 2.3 2 .3 0-.3-.9-1.3-2s-2-2-2.3-2c-.3 0 .3.9 1.3 2zm-250.6.7c-1.3 1.6-1.2 1.7.4.4 1.6-1.3 2.1-2.1 1.3-2.1-.2 0-1 .8-1.7 1.7zm32.1-1.3c0 .2.8 1 1.8 1.7 1.5 1.3 1.6 1.2.3-.4s-2.1-2.1-2.1-1.3zm202.5 6.6c1 1.1 2 2 2.3 2 .3 0-.3-.9-1.3-2s-2-2-2.3-2c-.3 0 .3.9 1.3 2zm20.5-1.6c0 .2.8 1 1.8 1.7 1.5 1.3 1.6 1.2.3-.4s-2.1-2.1-2.1-1.3zm-464.6 7.8-1.9 2.3 2.3-1.9c2.1-1.8 2.7-2.6 1.9-2.6-.2 0-1.2 1-2.3 2.2zm167.6 5.2c0 .2.8 1 1.8 1.7 1.5 1.3 1.6 1.2.3-.4s-2.1-2.1-2.1-1.3zm115.9 1.3c-1.3 1.6-1.2 1.7.4.4 1.6-1.3 2.1-2.1 1.3-2.1-.2 0-1 .8-1.7 1.7zm94 0c-1.3 1.6-1.2 1.7.4.4 1.6-1.3 2.1-2.1 1.3-2.1-.2 0-1 .8-1.7 1.7zm78.1-1.3c0 .2.8 1 1.8 1.7 1.5 1.3 1.6 1.2.3-.4s-2.1-2.1-2.1-1.3zM159.5 296c1 1.1 2 2 2.3 2 .3 0-.3-.9-1.3-2s-2-2-2.3-2c-.3 0 .3.9 1.3 2zm278.4-.3c-1.3 1.6-1.2 1.7.4.4 1.6-1.3 2.1-2.1 1.3-2.1-.2 0-1 .8-1.7 1.7zm90.1-1.3c0 .2.8 1 1.8 1.7 1.5 1.3 1.6 1.2.3-.4s-2.1-2.1-2.1-1.3zm-289 1c0 .2.8 1 1.8 1.7 1.5 1.3 1.6 1.2.3-.4s-2.1-2.1-2.1-1.3zm-161.6 6.8-1.9 2.3 2.3-1.9c2.1-1.8 2.7-2.6 1.9-2.6-.2 0-1.2 1-2.3 2.2zm352 0-1.9 2.3 2.3-1.9c2.1-1.8 2.7-2.6 1.9-2.6-.2 0-1.2 1-2.3 2.2zm78.1-.2c1 1.1 2 2 2.3 2 .3 0-.3-.9-1.3-2s-2-2-2.3-2c-.3 0 .3.9 1.3 2zm-310.5-.6c0 .2.8 1 1.8 1.7 1.5 1.3 1.6 1.2.3-.4s-2.1-2.1-2.1-1.3zm46 0c0 .2.8 1 1.8 1.7 1.5 1.3 1.6 1.2.3-.4s-2.1-2.1-2.1-1.3zm180.4 6.8-1.9 2.3 2.3-1.9c2.1-1.8 2.7-2.6 1.9-2.6-.2 0-1.2 1-2.3 2.2zm90.1-.2c1 1.1 2 2 2.3 2 .3 0-.3-.9-1.3-2s-2-2-2.3-2c-.3 0 .3.9 1.3 2zm-420.6.7c-1.3 1.6-1.2 1.7.4.4.9-.7 1.7-1.5 1.7-1.7 0-.8-.8-.3-2.1 1.3zm114.1-1.3c0 .2.8 1 1.8 1.7 1.5 1.3 1.6 1.2.3-.4s-2.1-2.1-2.1-1.3zm-139.6 6.8-1.9 2.3 2.3-1.9c2.1-1.8 2.7-2.6 1.9-2.6-.2 0-1.2 1-2.3 2.2zm20 0-1.9 2.3 2.3-1.9c2.1-1.8 2.7-2.6 1.9-2.6-.2 0-1.2 1-2.3 2.2zm126.1-.2c1 1.1 2 2 2.3 2 .3 0-.3-.9-1.3-2s-2-2-2.3-2c-.3 0 .3.9 1.3 2zm204.4-.3c-1.3 1.6-1.2 1.7.4.4.9-.7 1.7-1.5 1.7-1.7 0-.8-.8-.3-2.1 1.3zm79.6.3c1 1.1 2 2 2.3 2 .3 0-.3-.9-1.3-2s-2-2-2.3-2c-.3 0 .3.9 1.3 2zm-24.6.7c-1.3 1.6-1.2 1.7.4.4.9-.7 1.7-1.5 1.7-1.7 0-.8-.8-.3-2.1 1.3zM181.5 320c1 1.1 2 2 2.3 2 .3 0-.3-.9-1.3-2s-2-2-2.3-2c-.3 0 .3.9 1.3 2zm38 0c1 1.1 2 2 2.3 2 .3 0-.3-.9-1.3-2s-2-2-2.3-2c-.3 0 .3.9 1.3 2zm156.4-.3c-1.3 1.6-1.2 1.7.4.4 1.6-1.3 2.1-2.1 1.3-2.1-.2 0-1 .8-1.7 1.7zm91.5.5-1.9 2.3 2.3-1.9c2.1-1.8 2.7-2.6 1.9-2.6-.2 0-1.2 1-2.3 2.2zm36.1-.2c1 1.1 2 2 2.3 2 .3 0-.3-.9-1.3-2s-2-2-2.3-2c-.3 0 .3.9 1.3 2zm-90.6.7c-1.3 1.6-1.2 1.7.4.4.9-.7 1.7-1.5 1.7-1.7 0-.8-.8-.3-2.1 1.3zm-309.5 5.5-1.9 2.3 2.3-1.9c2.1-1.8 2.7-2.6 1.9-2.6-.2 0-1.2 1-2.3 2.2zm26.6-1.8c0 .2.8 1 1.8 1.7 1.5 1.3 1.6 1.2.3-.4s-2.1-2.1-2.1-1.3zm207.5 1.6c1 1.1 2 2 2.3 2 .3 0-.3-.9-1.3-2s-2-2-2.3-2c-.3 0 .3.9 1.3 2zm70.4-.3c-1.3 1.6-1.2 1.7.4.4 1.6-1.3 2.1-2.1 1.3-2.1-.2 0-1 .8-1.7 1.7zm73.6.3c1 1.1 2 2 2.3 2 .3 0-.3-.9-1.3-2s-2-2-2.3-2c-.3 0 .3.9 1.3 2zm26.5-1.6c0 .2.8 1 1.8 1.7 1.5 1.3 1.6 1.2.3-.4s-2.1-2.1-2.1-1.3zm-255.1 2.3c-1.3 1.6-1.2 1.7.4.4 1.6-1.3 2.1-2.1 1.3-2.1-.2 0-1 .8-1.7 1.7zm206 0c-1.3 1.6-1.2 1.7.4.4 1.6-1.3 2.1-2.1 1.3-2.1-.2 0-1 .8-1.7 1.7zm-361.5 5.5-1.9 2.3 2.3-1.9c2.1-1.8 2.7-2.6 1.9-2.6-.2 0-1.2 1-2.3 2.2zm266 0-1.9 2.3 2.3-1.9c2.1-1.8 2.7-2.6 1.9-2.6-.2 0-1.2 1-2.3 2.2zm124.1-.2c1 1.1 2 2 2.3 2 .3 0-.3-.9-1.3-2s-2-2-2.3-2c-.3 0 .3.9 1.3 2zm-84.6.7c-1.3 1.6-1.2 1.7.4.4.9-.7 1.7-1.5 1.7-1.7 0-.8-.8-.3-2.1 1.3zm110.1-1.3c0 .2.8 1 1.8 1.7 1.5 1.3 1.6 1.2.3-.4s-2.1-2.1-2.1-1.3zm-19.5 6.6c1 1.1 2 2 2.3 2 .3 0-.3-.9-1.3-2s-2-2-2.3-2c-.3 0 .3.9 1.3 2zM451 349.4c0 .2.8 1 1.8 1.7 1.5 1.3 1.6 1.2.3-.4s-2.1-2.1-2.1-1.3zm24 0c0 .2.8 1 1.8 1.7 1.5 1.3 1.6 1.2.3-.4s-2.1-2.1-2.1-1.3zm26 0c0 .2.8 1 1.8 1.7 1.5 1.3 1.6 1.2.3-.4s-2.1-2.1-2.1-1.3zm-22 6c0 .2.8 1 1.8 1.7 1.5 1.3 1.6 1.2.3-.4s-2.1-2.1-2.1-1.3zM99.2 367.5c1.5 1.6 2 1.7 3 .6 1.1-1.1 1-1.3 0-.7-.7.4-2.1.2-3-.5-1.5-1.2-1.5-1.1 0 .6zm216.2 6.7-1.9 2.3 2.3-1.9c1.2-1.1 2.2-2.1 2.2-2.3 0-.8-.8-.2-2.6 1.9zm126.1-.2c1 1.1 2 2 2.3 2 .3 0-.3-.9-1.3-2s-2-2-2.3-2c-.3 0 .3.9 1.3 2zm-172.5-.6c0 .2.8 1 1.8 1.7 1.5 1.3 1.6 1.2.3-.4s-2.1-2.1-2.1-1.3zm-123.1 6.3c-1.3 1.6-1.2 1.7.4.4.9-.7 1.7-1.5 1.7-1.7 0-.8-.8-.3-2.1 1.3zm131.6.3c1 1.1 2 2 2.3 2 .3 0-.3-.9-1.3-2s-2-2-2.3-2c-.3 0 .3.9 1.3 2zm4.5 4.4c0 .2.8 1 1.8 1.7 1.5 1.3 1.6 1.2.3-.4s-2.1-2.1-2.1-1.3zm23.4 1.8-1.9 2.3 2.3-1.9c1.2-1.1 2.2-2.1 2.2-2.3 0-.8-.8-.2-2.6 1.9zm14.1 17.8c1 1.1 2 2 2.3 2 .3 0-.3-.9-1.3-2s-2-2-2.3-2c-.3 0 .3.9 1.3 2zm35.9.2-1.9 2.3 2.3-1.9c1.2-1.1 2.2-2.1 2.2-2.3 0-.8-.8-.2-2.6 1.9zm-126.4-.8c0 .2.8 1 1.8 1.7 1.5 1.3 1.6 1.2.3-.4s-2.1-2.1-2.1-1.3zm6.5 6.6c1 1.1 2 2 2.3 2 .3 0-.3-.9-1.3-2s-2-2-2.3-2c-.3 0 .3.9 1.3 2zm6 6c1 1.1 2 2 2.3 2 .3 0-.3-.9-1.3-2s-2-2-2.3-2c-.3 0 .3.9 1.3 2zm88 0c1 1.1 2 2 2.3 2 .3 0-.3-.9-1.3-2s-2-2-2.3-2c-.3 0 .3.9 1.3 2zm-72 66c1 1.1 2 2 2.3 2 .3 0-.3-.9-1.3-2s-2-2-2.3-2c-.3 0 .3.9 1.3 2zm68.4 5.7c-1.3 1.6-1.2 1.7.4.4 1.6-1.3 2.1-2.1 1.3-2.1-.2 0-1 .8-1.7 1.7zm-64.9-.3c0 .2.8 1 1.8 1.7 1.5 1.3 1.6 1.2.3-.4s-2.1-2.1-2.1-1.3zm42.5 24.6c1 1.1 2 2 2.3 2 .3 0-.3-.9-1.3-2s-2-2-2.3-2c-.3 0 .3.9 1.3 2zM274 522.4c0 .2.8 1 1.8 1.7 1.5 1.3 1.6 1.2.3-.4s-2.1-2.1-2.1-1.3zm5.9 1.3c-1.3 1.6-1.2 1.7.4.4.9-.7 1.7-1.5 1.7-1.7 0-.8-.8-.3-2.1 1.3z" fill="#FFF" fill-opacity=".19"/><g fill="#FFF" stroke-width="0"><path d="M132 73c0 .5-.7 1-1.5 1-.9 0-2.5.9-3.7 2-1.2 1.1-2.8 2-3.5 2-.7 0-1.3.4-1.3 1 0 .5-.9 1-2 1s-2 .4-2 1-3 1-7 1-7 .4-7 1c0 .5-1.3 1-2.8 1-1.6 0-3.4.8-4.2 2-.8 1.1-2 2-2.8 2-1.6 0-4.2 2.4-4.2 3.8 0 1.9-10.1 11.2-14 12.9-2.2 1-4 2.1-4 2.5 0 .5-.7.8-1.5.8-2.1 0-10.5 8.3-10.5 10.4 0 .9-.4 1.6-1 1.6-.5 0-1 1.8-1 3.9 0 2.2-.4 4.3-1 4.6-.5.3-1 1.9-1 3.6 0 2-1.2 4.1-4 7-2.2 2.3-4 4.8-4 5.5 0 .8-.4 1.4-1 1.4-.5 0-1 .9-1 2s-.4 2-1 2c-.5 0-1 1.3-1 3 0 1.6-.4 3-1 3-1.3 0-1.3 11.7 0 12.5 1.3.8 1.3 5.2 0 6-.5.3-1 1.7-1 3.1 0 1.3-.4 2.4-1 2.4-.5 0-1 .9-1 2 0 1.2-.7 2-1.7 2s-2.4 1.2-3 2.7c-1.5 3.2-1.7 11.3-.3 11.3.6 0 1 2.7 1 6s-.4 6-1 6c-.5 0-1 .9-1 2s-.3 2-.7 2c-.5 0-1.4 1.2-2 2.7-1.5 3.2-1.7 11.3-.3 11.3.6 0 1 .7 1 1.6 0 2 2.4 4.4 4.4 4.4 2.3 0 2 3.3-.4 5-1.6 1.2-2 2.6-2 7.2 0 3.2.4 5.8 1 5.8s1 2.1 1 4.6c0 3.5-.5 5.1-2.1 6.5-1.8 1.5-2.1 2.9-2.1 8.5 0 3.7.5 7.1 1.1 7.7.6.6 1.1 1.7 1.1 2.4 0 .8.9 2.3 2 3.5 1.1 1.2 2 2.8 2 3.5 0 .7.5 1.3 1 1.3.6 0 1 .9 1 2s.5 2 1 2c.6 0 1 1.3 1 3 0 1.6-.4 3-1 3-.5 0-1 1.9-1 4.3s-.5 4.8-1.2 5.5c-.9.9-.9 1.5 0 2.4.7.7 1.2 2.7 1.2 4.5 0 1.8.5 3.3 1 3.3.6 0 1 .9 1 2s.5 2 1 2c.6 0 1 .7 1 1.6 0 .9 1.2 2.8 2.7 4.3 4.5 4.3 5.3 6.6 5.3 14.6 0 4.3.4 7.5 1 7.5s1 1.3 1 3c0 1.6.5 3 1 3 .6 0 1 .9 1 2s.5 2 1 2c.6 0 1 .7 1 1.5s2.7 4.2 6 7.6c3.3 3.3 6 6.7 6 7.5 0 .8.6 1.4 1.4 1.4.8 0 6.5 4.9 12.6 11 6.1 6 11.6 11 12.2 11 .5 0 2.7 1.8 4.8 4 2.1 2.2 4.6 4 5.4 4 .9 0 1.6.4 1.6 1 0 .5.8 1 1.8 1s2.4.9 3.2 2c.8 1.1 2.2 2 3.2 2s1.8.4 1.8 1c0 .5 1.4 1 3 1 1.7 0 3 .4 3 1 0 .5 1.4 1 3 1 1.7 0 3 .4 3 1 0 .5 2.3 1 5 1 2.8 0 5-.5 5-1 0-.6.9-1 1.9-1 1.1 0 2.3-.5 2.6-1 .3-.6 4-1 8.1-1 4.3 0 7.4-.4 7.4-1s1.4-1 3-1c1.7 0 3-.5 3-1 0-.6.9-1 2-1s2-.5 2-1c0-.6.9-1 2-1s2-.5 2-1c0-.6.7-1 1.5-1 2.1 0 16.5-14.4 16.5-16.5 0-.8.5-1.5 1-1.5.6 0 1-.9 1-2s.5-2 1-2c.6 0 1-1.4 1-3 0-1.7.5-3 1-3 .6 0 1-5 1-13s-.4-13-1-13c-.5 0-1-1.4-1-3 0-1.7-.4-3-1-3-.5 0-1-1.4-1-3 0-1.7-.4-3-1-3-.5 0-1-1.4-1-3 0-1.7-.4-3-1-3-.5 0-1-.9-1-2s-.4-2-1-2c-.5 0-1-.9-1-2s-.4-2-1-2c-.5 0-1-.9-1-2s-.4-2-1-2c-.5 0-1-.7-1-1.6 0-.9-1.4-2.9-3-4.4-1.7-1.5-3-3.2-3-3.7s-1.6-2.6-3.5-4.7c-3.9-4.3-4.2-4.8-2-4 .8.4 1.5 1 1.5 1.5s.9.9 2 .9 2 .4 2 1c0 .5.8 1 1.8 1s2.4.9 3.2 2c.8 1.1 2 2 2.7 2 .7 0 2.7 1.3 4.5 3 1.7 1.6 3.5 3 4.1 3 1.1 0 7.7 7 7.7 8.3 0 .5 1.3 2.2 3 3.7 1.6 1.5 3 3.4 3 4.2 0 .7.9 2 2 2.8 1.1.8 2 2.2 2 3.2s.5 1.8 1 1.8c.6 0 1 1.3 1 3 0 1.6.5 3 1 3 .6 0 1 3.3 1 8s-.4 8-1 8c-.5 0-1 1.3-1 3 0 1.6-.4 3-1 3-.5 0-1 2.2-1 5 0 2.7-.4 5-1 5s-1 4.1-1 10.3c0 8.9.3 10.6 2 12.5 1.1 1.2 2 2.6 2 3.3 0 .6 1.3 2.4 3 3.9s3 3.3 3 3.9c0 .6 1.3 2.5 3 4.3 1.7 1.7 3 3.5 3 4 0 .6 1.3 2.3 3 3.8 2.3 2.1 3 3.7 3 6.4 0 2 .5 3.6 1 3.6.6 0 1 4.7 1 12s.4 12 1 12 1 1.3 1 3c0 1.6.5 3 1 3 .6 0 1 1.3 1 3 0 1.6.5 3 1 3 .6 0 1 .9 1 1.9 0 1.1.5 2.3 1 2.6.6.3 1 1.7 1 3.1 0 1.3.5 2.4 1 2.4.6 0 1 .9 1 2s.5 2 1 2c.6 0 1 .9 1 2s.5 2 1 2c.6 0 1 .8 1 1.8s.9 2.4 2 3.2c1.1.8 2 2.2 2 3.2s.5 1.8 1 1.8c.6 0 1 .9 1 2s.5 2 1 2c.6 0 1 1.3 1 3 0 1.6.5 3 1 3 .6 0 1 4 1 10s.4 10 1 10 1 .7 1 1.5c0 2 6.5 8.5 8.5 8.5.8 0 1.5.4 1.5 1s3.3 1 8 1 8-.4 8-1 .8-1 1.8-1 2.4-.9 3.2-2c1.5-2.1 5-2.8 5-1 0 .5.9 1 1.9 1 1.1 0 2.3.5 2.6 1 .3.6 1.7 1 3.1 1 1.3 0 2.4.4 2.4 1s3 1 7 1 7-.4 7-1 1.1-1 2.5-1c1.7 0 4.1-1.5 7-4.4 4-3.9 4.5-4.9 4.5-9 0-2.5.5-4.6 1-4.6.6 0 1-2.8 1-6.5 0-3.6.4-7.3.9-8.3.5-.9 1.5-3.7 2.2-6.2.8-2.5 2.1-5.4 3.1-6.4 1-1.1 1.8-2.6 1.8-3.3 0-.7.5-1.3 1-1.3.6 0 1-.9 1-2s.5-2 1-2c.6 0 1-.9 1-2s.5-2 1-2c.6 0 1-.6 1-1.3 0-.7.9-2.3 2-3.5 1.1-1.2 2-3.3 2-4.7 0-1.4.5-2.5 1-2.5.6 0 1-1.8 1-4s.5-4 1-4c.6 0 1-6 1-16s.4-16 1-16 1-1.4 1-3c0-1.7.5-3 1-3 .6 0 1-.7 1-1.6 0-.9 1.4-2.9 3-4.4 1.7-1.5 3-3.4 3-4.2 0-.7.9-2 2-2.8 1.1-.8 2-2.2 2-3.2s.5-1.8 1-1.8c.6 0 1-.9 1-2s.5-2 1-2c.6 0 1-4.8 1-12.4 0-7.3-.4-12.7-1-13.1-.5-.3-1-3.7-1-7.5s.5-7.2 1-7.5c.6-.3 1-2.6 1-5.1 0-2.4.5-4.4 1-4.4.6 0 1-1.4 1-3 0-1.7.5-3 1-3 .6 0 1-.9 1-2s.5-2 1-2c.6 0 1-1.4 1-3 0-1.7.5-3 1-3 .6 0 1-.9 1-2s.5-2 1-2c.6 0 1-.7 1-1.5 0-.9 2-3.6 4.5-6 2.4-2.5 5.1-4.5 6-4.5.8 0 1.5-.5 1.5-1 0-.6.9-1 2-1s2-.5 2-1c0-.6 1.1-1 2.5-1 2.8 0 13.5-9.9 13.5-12.5 0-.8.5-1.5 1-1.5.6 0 1-1.4 1-3 0-1.7.5-3 1-3 .6 0 1-1.8 1-4s.5-4 1-4c.6 0 1-1.8 1-4s.5-4 1-4c.6 0 1-2.3 1-5 0-2.8.5-5 1-5 .6 0 1-3 1-7s.4-7 1-7 1-3.5 1-8.4c0-4.7-.4-8.8-1-9.1-.5-.3-1-1.3-1-2.1 0-1.7-4.4-6.4-6-6.4-1.6 0-6-4.7-6-6.5 0-.8-.4-1.5-1-1.5-.5 0-1-1.1-1-2.5 0-2.9-11.7-15.5-14.4-15.5-.9 0-1.6-.5-1.6-1 0-.6-1.3-1-3-1-1.6 0-3-.5-3-1 0-.6-1.3-1-3-1-1.6 0-3-.5-3-1 0-.6-2.2-1-5-1-2.7 0-5-.5-5-1 0-.6-.7-1-1.5-1-1.9 0-8.5-6.4-8.5-8.2 0-.8-.9-2-2-2.8-1.2-.8-2-2.6-2-4.2 0-1.5-.4-2.8-1-2.8-.5 0-1-1.8-1-4s-.4-4-1-4c-.5 0-1-1.4-1-3 0-1.7-.4-3-1-3-.5 0-1-.9-1-2s-.4-2-1-2c-.5 0-1-.7-1-1.5 0-.9-3.4-4.9-7.5-9s-8.1-7.5-9-7.5c-.8 0-1.5-.5-1.5-1 0-.6-1.3-1-3-1-1.6 0-3-.5-3-1 0-.6-3-1-7-1s-7-.4-7-1-8.3-1-23-1-23 .4-23 1c0 .5-2.4 1-5.4 1-3 0-5.8.4-6.1 1-.3.5-1.5 1-2.6 1-1 0-1.9.4-1.9 1 0 .5-.7 1-1.5 1-.9 0-2.7 1.1-4 2.4-1.3 1.4-3.4 2.7-4.5 3.1-1.1.3-2 1.2-2 1.9s-1.3 2.7-3 4.4c-1.6 1.8-3 3.9-3 4.7 0 .8-.4 1.5-1 1.5-.5 0-1 1.3-1 3 0 1.6-.4 3-1 3-.5 0-1 2.2-1 5 0 2.7-.4 5-1 5-.5 0-1 1.3-1 3 0 1.6-.4 3-1 3-.5 0-1 .7-1 1.5 0 3.2-4 8.5-6.4 8.5-.9 0-1.6.4-1.6 1 0 .5-1.8 1-4 1s-4 .4-4 1c0 .5-1.3 1-3 1-1.6 0-3 .4-3 1 0 .5-1.8 1-4 1s-4 .4-4 1c0 .5-1.3 1-3 1-1.6 0-3 .4-3 1 0 .5-.6 1-1.4 1-1.7 0-14.6 12.4-14.6 14 0 .6-3.2 4.3-7.1 8.1-5.7 5.6-6.9 7.3-5.8 8.1 1.1.7 1.1 1.1.2 1.5-1.6.6-1.8 12.9-.3 13.8.6.4 1 7.7 1 18.5s.4 18.1 1 18.5c.6.3 1 3.5 1 7 0 4.2.4 6.5 1.3 6.8.6.2.9.7.5 1.1-.3.4-3.8-2.4-7.8-6.3-3.9-3.9-7.7-7.1-8.4-7.1-.6 0-1.8-.9-2.6-2s-2.2-2-3.2-2-1.8-.5-1.8-1c0-.6-.9-1-2-1s-2-.5-2-1c0-.6-1.3-1-3-1-1.6 0-3-.5-3-1 0-.6-1.8-1-4-1s-4-.5-4-1c0-.6-2.7-1-6-1s-6-.4-6-1-1.3-1-3-1c-1.6 0-3-.5-3-1 0-.6-1.3-1-3-1h-3v-9.4c0-5.3.4-9.8 1-10.1.5-.3 1-3.7 1-7.6 0-3.8.4-6.9.9-6.9s1.2-2.4 1.4-5.3c.9-8 1.8-12.7 2.8-13.3.5-.3.9-1.6.9-3 0-1.3.5-2.4 1-2.4.6 0 1-.9 1-2s.5-2 1-2c.6 0 1-.6 1-1.4 0-1.9 12.5-14.6 14.4-14.6.9 0 1.6-.5 1.6-1 0-.6.9-1 2-1s2-.5 2-1c0-.6 2.8-1 6.5-1 5.7 0 6.9.3 9 2.5 1.4 1.3 2.5 3.1 2.5 4 0 .8.5 1.5 1 1.5.6 0 1 .9 1 2s.5 2 1 2c.6 0 1 .9 1 2s.5 2 1 2c.6 0 1 .7 1 1.5 0 2 4.5 6.5 6.5 6.5.8 0 1.5.4 1.5 1 0 .5.9 1 2 1s2-.5 2-1c0-.6.6-1 1.4-1 .8 0 4.6-3.2 8.5-7 5-4.9 7.9-7 9.6-7 1.4 0 2.5-.5 2.5-1 0-.6 1.4-1 3-1 1.7 0 3-.5 3-1 0-.6 1.8-1 4-1s4-.5 4-1c0-.6 1.4-1 3-1 1.7 0 3-.5 3-1 0-.6.8-1 1.8-1s2.4-.9 3.2-2c.8-1.1 2.2-2 3.2-2s1.8-.6 1.8-1.3c0-.7.9-2.3 2-3.5 1.1-1.2 2-2.8 2-3.7 0-.8.5-1.5 1-1.5.6 0 1-3.7 1-9s.4-9 1-9 1-1.6 1-3.5c0-2.7.8-4.3 3.3-6.8 3.5-3.4 8-6.5 11-7.4.9-.3 1.7-.9 1.7-1.4 0-.5 1.1-.9 2.4-.9 1.4 0 2.8-.5 3.1-1 .3-.6 1.9-1 3.6-1 1.6 0 2.9-.5 2.9-1 0-.6.9-1 2-1s2-.5 2-1c0-.6 1.2-1 2.6-1 3.4 0 7.4-4.5 7.4-8.3 0-1.9-1-3.9-3-5.7-1.6-1.5-3-3.3-3-3.9 0-1.5-8.6-10.1-10.1-10.1-.6 0-2.8-1.8-4.9-4-2.1-2.2-4.6-4-5.4-4-.9 0-1.6-.5-1.6-1 0-.6-1.1-1-2.5-1-2.8 0-7.5-4-7.5-6.3 0-.7-1.2-2-2.7-2.8-1.6-.8-3.5-2.2-4.4-3.1-.9-1-2.4-1.8-3.3-1.8-.9 0-1.6-.5-1.6-1 0-.6-1.3-1-3-1-1.6 0-3-.5-3-1 0-1.4-8.6-1.2-11.1.2-1.7 1-2.3 1-2.6 0-.3-.6-1.3-1.2-2.4-1.2-1 0-1.9-.5-1.9-1 0-.6-.9-1-2-1s-2-.5-2-1c0-.6-1.3-1-3-1-1.6 0-3-.5-3-1 0-.6-3-1-6.9-1-3.9 0-7.3.4-7.6 1-.3.5-2.2 1-4.1 1-1.9 0-3.4-.5-3.4-1 0-.6-2.2-1-5-1-2.7 0-5-.5-5-1 0-.6-4.7-1-12-1s-12 .4-12 1zm16 13c0 1.1-.4 2-1 2-.5 0-1 .9-1 2s-.4 2-1 2c-.5 0-1 .7-1 1.6 0 .9-1.3 2.9-3 4.4-1.6 1.5-3 3.4-3 4.2 0 .7-.9 2-2 2.8-1.1.8-2 2.2-2 3.2s-.4 1.8-1 1.8c-.5 0-1 .9-1 2s-.4 2-1 2c-.5 0-1 .9-1 2s-.4 2-1 2c-.5 0-1 .9-1 2s-.4 2-1 2-1-3.7-1-9 .4-9 1-9 1-.9 1-2 .4-2 .8-2c.5 0 1.5-1.2 2.3-2.8 2.6-5.1 11.2-13.1 14.2-13.1 2.1-.1 2.7.4 2.7 1.9zm36 5.6c0 2-2.4 4.4-4.4 4.4-.9 0-1.6.4-1.6 1 0 .5-.6 1-1.4 1-1.8 0-14.6 12.4-14.6 14.2 0 .7-.9 2-2 2.8-1.1.8-2 2.1-2 3 0 .9-.9 2.2-2 3-1.1.8-2 2-2 2.8 0 1.8-2.9 4.6-3.8 3.7-.4-.4-.1-1 .6-1.2.6-.3 1.2-1.5 1.2-2.8 0-1.3.5-2.7 1-3 .6-.3 1-1.5 1-2.6 0-1 .5-1.9 1-1.9.6 0 1-1.4 1-3 0-1.7.5-3 1-3 .6 0 1-.9 1-2s.5-2 1-2c.6 0 1-.9 1-2s.5-2 1-2c.6 0 1-.7 1-1.6 0-.9 2.1-3.6 4.7-6 4.5-4.2 4.8-4.4 11-4.4 5.1 0 6.3.3 6.3 1.6zm34 4.9c0 2.8-2.3 5.5-8 9.5-1.9 1.4-5.2 4.2-7.4 6.2-2.1 2.1-4.3 3.8-4.8 3.8-1.2 0-11.8 10.9-11.8 12.2 0 .5-1.8 2.7-4 4.8-2.6 2.5-4 4.7-4 6.4 0 1.9-.5 2.6-2 2.6-1.6 0-2-.7-2-3 0-1.7.5-3 1-3 .6 0 1-.6 1-1.3 0-.7.9-2.3 2-3.5 1.1-1.2 2-2.8 2-3.7 0-.8.5-1.5 1-1.5.6 0 1-.8 1-1.8s.9-2.4 2-3.2c1.1-.8 2-2.1 2-2.8 0-.8 1.4-2.7 3-4.2 1.7-1.5 3-3.3 3-3.9 0-1.3 9.7-11 12.8-12.9 1.2-.6 2.9-1.2 3.7-1.2.8 0 1.5-.5 1.5-1 0-.6 1.8-1 4-1 3.6 0 4 .2 4 2.5zm-113.4.9c.8.8 1.4 2.2 1.4 3 0 .9.5 1.6 1 1.6.6 0 1 4.7 1 12 0 11.2-.1 12-1.9 12-1.2 0-2.5-1.2-3.3-3-.7-1.7-1.6-3-2-3-.5 0-.8-1.4-.8-3 0-1.7-.4-3-1-3-1.5 0-1.3-14.8.3-16.5 1.6-1.8 3.5-1.9 5.3-.1zM244 113.5c0 2-8.5 10.5-10.5 10.5-.8 0-1.5.4-1.5 1 0 .5-.9 1-2 1s-2 .4-2 1c0 .5-.9 1-2 1s-2 .4-2 1c0 .5-.9 1-2 1s-2 .4-2 .9-1.3 1.4-3 2.1c-1.6.7-3 1.6-3 2.1s-.9.9-2 .9-2 .4-2 1c0 .5-.7 1-1.6 1-1.9 0-7 5.2-7.9 8.1-.4 1-1.1 1.9-1.6 1.9s-.9.9-.9 1.9c0 1.9-2.3 3.5-3.4 2.4-1-1-.7-5.3.5-7.5 1.5-2.7 19.6-20.8 20.9-20.8.5 0 2.9-1.8 5.1-4 2.3-2.2 4.8-4 5.5-4 .8 0 1.4-.5 1.4-1 0-.6.9-1 2-1s2-.5 2-1c0-.6 2.7-1 6-1 4.7 0 6 .3 6 1.5zM78 123.8c0 1 .9 2.4 2 3.2 1.1.8 2 2.1 2 3 0 .9.9 2.2 2 3 1.1.8 2 2.2 2 3.2s.5 1.8 1 1.8c.6 0 1 .9 1 2s.5 2 1 2c.6 0 1 .4 1 1 0 .5-.9 1-2 1s-2-.5-2-1c0-.6-.7-1-1.5-1-2 0-8.5-6.5-8.5-8.5 0-.8-.3-1.5-.7-1.5-1.2 0-3.3-5.1-3.3-7.7 0-1.9.5-2.3 3-2.3 2.2 0 3 .5 3 1.8zM68 149c0 .5.7 1 1.5 1 1.4 0 6.5 4.2 6.5 5.4 0 .2-1.9.6-4.2 1-8.5 1-11.8 1.8-11.8 2.7 0 .5-1.3.9-3 .9-2.5 0-3-.4-3-2.5 0-1.5 1.3-4 3.3-6 2.5-2.6 4-3.4 7-3.4 2-.1 3.7.3 3.7.9zm232 5.5c0 .3-1.1 1.7-2.5 3.1l-2.5 2.5-2.5-2.5c-1.4-1.4-2.5-2.8-2.5-3.1 0-.3 2.3-.5 5-.5 2.8 0 5 .2 5 .5zm-22 4.5c1.5 1.6 3.4 3 4.2 3 .7 0 2 .9 2.8 2 .8 1.1 2.2 2 3.2 2s1.8.4 1.8 1c0 .5-.4 1-1 1s-1 4-1 10-.4 10-1 10-1 2.7-1 6 .4 6 1 6 1 .9 1 2 .5 2 1 2c.6 0 1 4.6 1 11.9 0 6.9-.4 12.2-1 12.6-.6.4-1 8.2-1 20.1 0 17.9-.1 19.4-1.8 19.4-1 0-2.4.9-3.2 2-.8 1.1-2.1 2-3 2-.9 0-2.2.9-3 2-.8 1.1-2.2 2-3.2 2s-1.8.4-1.8 1c0 .5-.9 1-2 1-1.3 0-2-.7-2-2 0-1.1-.4-2-1-2-.5 0-1-.9-1-2s-.4-2-1-2c-.5 0-1-1.4-1-3 0-1.7-.4-3-1-3-.5 0-1-1.4-1-3 0-1.7-.4-3-1-3-.5 0-1-.7-1-1.5 0-2-32.5-34.5-34.5-34.5-.8 0-1.5-.5-1.5-1 0-.6-.9-1-2-1s-2-.5-2-1c0-.6-.9-1-2-1s-2-.5-2-1c0-.6 1.8-1 4-1s4-.5 4-1c0-.6.8-1 1.8-1s2.4-.9 3.2-2c.8-1.1 2-2 2.7-2 2.5 0 10.3-8.8 10.3-11.5 0-1.4.5-2.5 1-2.5.6 0 1-2.3 1-5 0-2.8.5-5 1-5 .6 0 1-1.8 1-4s.5-4 1-4c.6 0 1-1.4 1-3 0-1.7.5-3 1-3 .6 0 1-.7 1-1.5 0-2.6 8.6-10.5 11.5-10.5 1.4 0 2.5-.5 2.5-1 0-.6 1.4-1 3-1 1.7 0 3-.5 3-1 0-2.2 5.3-.9 8 2zm45.2-1.8c1.2.7 2.8 1.9 3.6 2.5.7.7 1.7 1.3 2.2 1.3 1.5 0 13 11.8 13 13.4 0 .8.5 1.8 1 2.1.6.3 1 1.7 1 3.1 0 1.3.5 2.4 1 2.4.6 0 1 1.3 1 3 0 1.6.5 3 1 3 .6 0 1 1.8 1 4s.5 4 1 4c.6 0 1 1.3 1 3 0 1.6.5 3 1 3 .6 0 1 .7 1 1.5 0 .9 1.1 2.7 2.5 4 1.3 1.4 3.1 2.5 4 2.5.8 0 1.5.4 1.5 1 0 .5.9 1 2 1s2 .4 2 1c0 .5.9 1 2 1s2 .4 2 1c0 .5-.9 1-2 1s-2 .4-2 1c0 .5-.7 1-1.6 1-1.7 0-4.4 2.3-4.4 3.8S347.3 234 345.8 234c-.7 0-2 .9-2.8 2-.8 1.1-2 2-2.8 2-1.8 0-6.2 4.6-6.2 6.5 0 .8-.4 1.5-1 1.5-.5 0-1 .9-1 2s-.4 2-1 2c-.5 0-1 1.3-1 3 0 1.6-.4 3-1 3-.5 0-1 1.8-1 4s-.4 4-1 4c-.5 0-1 .9-1 2s-.4 2-1 2c-.5 0-1 .9-1 2s-.6 2-1.3 2c-.7 0-2.3.9-3.5 2-1.2 1.1-3.2 2-4.4 2-1.3 0-3-.9-3.8-2-.8-1.1-2.1-2-3-2-.9 0-2.2-.9-3-2-.8-1.1-2-2-2.8-2-3.9 0-4.2-2-4.2-27.4 0-15.2.4-24.7 1-25.1.6-.4 1-5.8 1-13s.4-12.6 1-13c.6-.3 1-2.6 1-5.1 0-2.4-.4-4.4-1-4.4-1.4 0-1.2-6.6.3-9.2 2-3.6 11.5-12.8 13.2-12.8.8 0 1.5-.5 1.5-1 0-1.4 4.6-1.2 7.2.2zM126 165c0 .5 1.4 1 3 1 1.7 0 3 .4 3 1 0 .5.6 1 1.3 1 .7 0 2.2.8 3.3 1.8 1 1 2.7 2.1 3.7 2.5.9.3 1.7 1.2 1.7 1.9 0 .8.9 2 2 2.8 3 2.2 2.4 3-2 3-2.2 0-4-.5-4-1 0-.6-.9-1-2-1s-2-.5-2-1c0-.6-.9-1-2-1s-2-.5-2-1c0-.6-.9-1-2-1s-2-.5-2-1c0-.6-1.3-1-3-1-1.6 0-3-.5-3-1.1 0-1-3.4-.9-21.2.7-3.8.3-6.8 1-6.8 1.5s-1.3.9-3 .9c-1.6 0-3-.2-3-.5 0-1.6 5.2-5.5 7.4-5.5 1.4 0 2.8-.5 3.1-1 .3-.6 2.8-1 5.5-1s5.2-.5 5.5-1c.3-.6 4.6-1 9.6-1 5.3 0 8.9.4 8.9 1zm-10 21c0 1.3-.7 2-2 2-1.1 0-2 .5-2 1.1 0 .8-1.9.9-6.2.5-10.4-1.2-23.8-.3-23.8 1.5 0 .5-.9.9-2 .9s-2 .4-2 1c0 .5-.9 1-2 1s-2 .4-2 1c0 .5-.9 1-1.9 1-1.1 0-2.1.6-2.4 1.2-.2.7-.8 1-1.2.6-.9-.9 6.3-7.8 8.2-7.8.7 0 1.3-.5 1.3-1 0-.6.9-1 2-1s2-.5 2-1c0-.6 1.4-1 3-1 1.7 0 3-.5 3-1 0-.6 5.3-1 14-1 13.3 0 14 .1 14 2zm-14 18c0 1.3-.7 2-2 2-1.1 0-2 .4-2 1 0 .5-2.2 1-5 1-2.7 0-5 .4-5 1 0 .5-1.8 1-4 1s-4 .4-4 1c0 .5-.9 1-2 1s-2 .4-2 1c0 .5-.7 1-1.5 1s-3.8 2.2-6.6 5c-2.8 2.7-5.7 5-6.5 5-.8 0-1.4.4-1.4 1 0 .5-.4 1-1 1-.5 0-1-1.1-1-2.5 0-1.8 1.9-4.5 6.5-9 3.5-3.6 7-6.5 7.8-6.5.7 0 1.9-.9 2.7-2 1-1.4 2.6-2 5.2-2 2.1 0 3.8-.5 3.8-1 0-.6 3.7-1 9-1 8.3 0 9 .1 9 2zm104 15c0 .5.7 1 1.6 1 .8 0 3.7 2.2 6.4 5 2.7 2.7 5.3 5 5.8 5s1.8 1.2 2.8 2.7c2.4 3.8 4 5.3 5.6 5.3.8 0 2 .9 2.8 2 .8 1.1 2.2 2 3.2 2s1.8.4 1.8 1c0 .5.7 1 1.5 1 1.6 0 8.5 6.3 8.5 7.7 0 .4.9 1.9 2 3.3s2 3.5 2 4.7c0 1.2.5 2.5 1 2.8.6.3 1 2.6 1 5.1 0 2.4.5 4.4 1 4.4.6 0 1 .7 1 1.5 0 2.2 2 5.5 5.3 8.6 1.5 1.5 2.7 3.4 2.7 4.3 0 .9.5 1.6 1 1.6.6 0 1 2.2 1 4.9 0 2.8-.4 5.3-1 5.6-.5.3-1 3.5-1 7.1 0 3.6-.4 6.4-1 6.4-.5 0-1 1.3-1 3 0 1.6-.4 3-1 3-.5 0-1 .9-1 2s-.4 2-1 2c-.5 0-1 .7-1 1.6 0 .9-1.3 2.9-3 4.4-1.6 1.5-3 3.4-3 4 0 .7-.8 2-1.8 2.9-.9.9-2.3 2.8-3.1 4.3-.8 1.6-1.8 2.8-2.3 2.8-.4 0-.8.7-.8 1.5 0 1.6-3.9 6.5-5.2 6.5-.4 0-.8-1.4-.8-3 0-1.7-.4-3-1-3-.5 0-1-.6-1-1.3 0-1.8-2.4-6.7-3.2-6.7-.5 0-.8-.8-.8-1.8s-.9-2.4-2-3.2c-1.1-.8-2-2-2-2.7 0-1.9-18.6-20.3-20.5-20.3-.8 0-1.5-.5-1.5-1 0-.6-.8-1-1.8-1s-2.4-.9-3.2-2c-.8-1.1-2.2-2-3.2-2s-1.8-.5-1.8-1c0-.6-.9-1-2-1s-2-.5-2-1c0-.6-.9-1-2-1-1.3 0-2-.7-2-2 0-1.1-.4-2-.9-2-.6 0-1.2-4.6-1.5-10.3-1.4-25-1.8-29.7-2.7-29.7-.5 0-.9-.9-.9-2 0-2.7 2.6-2.5 5.5.5 2.3 2.2 2.5 3.2 2.5 12 0 5.7-.4 9.5-1 9.5s-1 2.7-1 6 .4 6 1 6 1 .7 1 1.5c0 3.7 16 16.5 20.6 16.5.8 0 1.4.4 1.4 1 0 .5 2.3 1 5 1 2.8 0 5-.5 5-1 0-.6 3.3-1 8-1s8 .4 8 1c0 .5.7 1 1.5 1 2 0 6.5 4.5 6.5 6.5 0 .8.5 1.5 1 1.5.6 0 1 1.3 1 3 0 2.7.3 3 3 3 2.3 0 3-.4 3-2 0-1.1-.4-2-1-2-.5 0-1-.9-1-2s-.4-2-1-2c-.5 0-1-.9-1-2s-.4-2-1-2c-.5 0-1-.8-1-1.8s-.9-2.4-2-3.2c-1.1-.8-2-2.1-2-3 0-.9-.9-2.2-2-3-1.1-.8-2-2.1-2-3 0-.9-.9-2.2-2-3-1.1-.8-2-2.2-2-3.2s-.4-1.8-1-1.8c-.5 0-1-1.8-1-4s-.4-4-1-4c-.5 0-1-1.4-1-3 0-1.7-.4-3-1-3-.5 0-1-.7-1-1.5 0-.9-1.6-3.1-3.5-5-3.4-3.4-3.6-3.5-11.5-3.5-9.3 0-11-1-11-6.4 0-2-.4-3.6-1-3.6-.5 0-1-1.1-1-2.4 0-1.4-.4-2.8-1-3.1-.5-.3-1-1.3-1-2.1 0-.9-1.8-3.3-4-5.4-3.7-3.5-4-4.3-4-9 0-4.3.3-5.3 2-5.7 1.1-.3 2-.9 2-1.4 0-.5.9-.9 2-.9s2-.5 2-1c0-.6 1.4-1 3-1 1.7 0 3-.5 3-1 0-.6.5-1 1-1 .6 0 1 .4 1 1zm184 2c.3.4 1.7 1 3.1 1.3 4.9 1.2 6.9 4 6.9 9.6 0 5-.2 5.4-6 11.1-3.3 3.2-6 6.5-6 7.2 0 .8-.9 2-2 2.8-1.1.8-2 2-2 2.8 0 2.7-4.8 6.2-8.5 6.2-1.9 0-3.5.4-3.5 1 0 .5-1.3 1-3 1-1.6 0-3 .4-3 1 0 .5-.7 1-1.6 1-2 0-4.4 2.4-4.4 4.4 0 .9-.4 1.6-1 1.6-.5 0-1 1.3-1 3 0 1.6-.4 3-1 3-.5 0-1 1.8-1 4s-.4 4-1 4c-.5 0-1 .7-1 1.5s-1.3 2.9-3 4.7c-1.6 1.7-3 3.4-3 3.9 0 .4-1.8 2.5-4 4.7-2.2 2.1-4 4.6-4 5.5 0 1-.4 1.7-1 1.7-.5 0-1 1.3-1 3 0 1.6-.4 3-1 3-.5 0-1 1.3-1 3s.5 3 1.3 3c1.7 0 6.7-4.4 6.7-5.9 0-1.7 2.6-4.1 4.4-4.1.9 0 1.6-.4 1.6-.8 0-2.6 13.3-4.5 15.6-2.2 1.5 1.5 19.7 1.7 20.2.2.2-.7 1.2-1.2 2.3-1.2 1 0 1.9-.5 1.9-1 0-.6.7-1 1.5-1 2 0 6.5-4.5 6.5-6.5 0-.8.5-1.5 1-1.5.6 0 1-.9 1-2s.5-2 1-2c.6 0 1-2.7 1-6s-.3-6-.8-6c-1.3 0-3.2-7.9-3.2-13.6 0-5.3 1.4-8.4 3.8-8.4.5 0 2.3-1.4 4-3 5.7-5.4 8.2-3.5 8.2 6.2 0 3.9-.4 6.8-1 6.8-.5 0-1 2.2-1 5 0 2.7-.4 5-1 5-.5 0-1 1.3-1 2.9 0 1.7-.4 3.3-1 3.6-.5.3-1 1.9-1 3.5s-.4 3.2-1 3.5c-.5.3-1 1.9-1 3.6 0 1.6-.4 2.9-1 2.9-.5 0-1 1.3-1 2.8 0 3-3.8 7.2-6.5 7.2-.8 0-1.5.4-1.5 1 0 .5-.9 1-1.9 1-1.1 0-2.1.3-2.3.7-.1.5-2.4 1.9-5 3.2-2.7 1.3-4.8 2.8-4.8 3.3 0 .4-.7.8-1.6.8-.9 0-2.4.8-3.3 1.8-.9.9-2.8 2.3-4.3 3.1-1.5.8-3 2.3-3.4 3.3-.3 1.1-2.6 3.9-5 6.3-2.4 2.5-4.4 5.1-4.4 6 0 .8-.4 1.5-1 1.5-.5 0-1 .9-1 2s-.4 2-1 2c-.5 0-1 1.5-1 3.4s-.4 3.8-1 4.1c-.6.4-1 5.7-1 12.6 0 7.3.4 11.9 1 11.9s1 2.2 1 5c0 2.7.5 5 1 5 .6 0 1 1.8 1 4s.5 4 1 4c.6 0 1 1.6 1 3.6 0 2.8-.8 4.3-4 7.4-2.2 2.1-4 4.3-4 4.9 0 .6-1.3 2.5-2.9 4.2-2.2 2.2-3.1 4.3-3.5 8.2-.4 2.9-1.1 8.8-1.6 13.2-.6 4.4-1.3 10.4-1.6 13.2-.3 2.9-1 5.3-1.5 5.3s-.9 2.7-.9 6-.4 6-1 6c-.5 0-1 1.3-1 3 0 1.6-.4 3-1 3-.5 0-1 .9-1 2s-.4 2-1 2c-.5 0-1 .8-1 1.8s-.9 2.4-2 3.2c-1.1.8-2 2-2 2.7 0 .7-1.3 2.7-3 4.5-1.6 1.7-3 3.7-3 4.4 0 .8-.4 1.4-1 1.4-.5 0-1 .9-1 2s-.4 2-1 2c-.5 0-1 .9-1 2s-.4 2-1 2-1 3.3-1 8-.4 8-1 8c-.5 0-1 .9-1 2 0 1.7-.7 2-4 2s-4-.3-4-2c0-1.1-.4-2-1-2-.5 0-1-.7-1-1.6 0-.9-1.4-2.9-3-4.4-1.8-1.7-3-3.8-3-5.4 0-1.9-.5-2.6-2-2.6-1.3 0-2 .7-2 1.8 0 1-.9 2.4-2 3.2-1.1.8-2 2.1-2 2.8 0 .8-1.3 2.6-2.8 4-1.6 1.5-3.1 3.5-3.5 4.4-.3 1-1.2 1.8-1.9 1.8-.8 0-2 .9-2.8 2-1.9 2.6-3.6 2.5-6.5-.5-1.9-1.8-2.5-3.5-2.5-7 0-2.5-.4-4.5-1-4.5-.5 0-1-2.3-1-5 0-2.8-.4-5-1-5-.5 0-1-.7-1-1.6 0-2.1-4-9.4-6.2-11.5-1-.9-1.8-2.2-1.8-2.9 0-.6-1.4-2.5-3-4-1.7-1.5-3-3.5-3-4.4 0-.9-.4-1.6-1-1.6-.5 0-1-.9-1-2s-.4-2-1-2c-.5 0-1-.9-1-2s-.4-2-1-2c-.5 0-1-1.4-1-3 0-1.7-.4-3-1-3s-1-4.7-1-12 .4-12 1-12 1-2.3 1-5c0-2.8-.4-5-1-5-.5 0-1-1.4-1-3 0-1.7-.4-3-1-3-.5 0-1-.7-1-1.5 0-.9-4-5.6-9-10.5-6.6-6.6-9-9.6-9-11.5 0-1.4.5-2.5 1-2.5.6 0 1-.9 1-2s.5-2 1-2c.6 0 1-1.4 1-3 0-1.7.5-3 1-3 .6 0 1-1.4 1-3 0-1.7.5-3 1-3 .6 0 1-.9 1-1.9 0-1.1.5-2.3 1-2.6.6-.3 1-2.4 1-4.5s.5-4.2 1-4.5c.6-.3 1-3.1 1-6.2 0-4.8.4-5.8 3-8.3 1.7-1.5 3-3.3 3-3.9 0-1.2 4.4-6.1 5.5-6.1.3 0 .5 1.3.5 3 0 1.6.5 3 1 3 .6 0 1 .9 1 2s.5 2 1 2c.6 0 1 .9 1 2s.5 2 1 2c.6 0 1 1.3 1 3 0 1.6.5 3 1 3 .6 0 1 .7 1 1.5s.5 2.4 1.2 3.5c1 1.5 1 2.6 0 5.3-.7 1.8-1.2 7-1.2 11.5 0 7.5.2 8.2 2 8.2s2-.7 2-6c0-3.3.4-6 1-6s1 .7 1 1.5c0 2 4.5 6.5 6.5 6.5.8 0 1.5.4 1.5 1 0 .5.7 1 1.6 1 2.4 0 8.4 7 8.4 9.7 0 1.3.5 2.3 1 2.3.6 0 1 .7 1 1.6 0 1.5 2.3 4.4 3.4 4.4.3 0 .6-3.2.6-7 0-4-.4-7-1-7-.5 0-1-1.1-1-2.4 0-2.4-9.8-13.6-12-13.6-1.3 0-5-3.7-6.7-6.8-.7-1.2-1.3-4.7-1.3-7.7s-.4-5.5-1-5.5c-.5 0-1-.9-1-2s-.4-2-1-2c-.5 0-1-.9-1-2s-.4-2-1-2c-.5 0-1-.9-1-2s-.4-2-1-2c-.5 0-1-1.4-1-3 0-1.7-.4-3-1-3-.5 0-1-1.7-1-3.8 0-3.2.5-4.1 2.8-5.3 3.7-1.9 7.2-5.5 7.2-7.4 0-.8.5-1.5 1-1.5.6 0 1-1.4 1-3 0-1.7.5-3 1-3 .6 0 1-3.3 1-7.9 0-4.4.5-8.3 1-8.6.6-.3 1-1.5 1-2.7 0-2.3 8.1-10.8 10.4-10.8.8 0 1.8-.5 2.1-1 .3-.6 1.3-1 2.1-1 1.2 0 1.4 5.1 1.4 34.6 0 30.9.2 34.7 1.7 36.2 1.2 1.2 1.8 1.3 2.1.4.2-.6 1.2-1.2 2.3-1.2 1.2 0 1.9-.7 1.9-2 0-1.1.5-2 1-2 1.1 0 1-62.9 0-66-.4-1.1.3-1.6 2.3-1.8 1.5-.2 2.7.1 2.7.7s.7 1.1 1.5 1.1c.9 0 4.5 2.9 8 6.5 3.6 3.5 6.5 7.1 6.5 8 0 .8.5 1.5 1 1.5.6 0 1 .9 1 2s.5 2 1 2c.6 0 1 1.8 1 3.9 0 2.2.5 4.3 1 4.6.6.3 1 2.6 1 5.1 0 2.4.5 4.4 1 4.4.6 0 1 .7 1 1.5 0 1.9 2 5.5 4.3 7.6.9.9 1.7 2.4 1.7 3.3 0 .9.5 1.6 1 1.6.6 0 1 .6 1 1.3 0 1.8-2.4 6.7-3.2 6.7-.5 0-.8 1.3-.8 3 0 1.6-.4 3-1 3-.5 0-1 1.3-1 3 0 1.6-.4 3-1 3-.5 0-1 1.3-1 3 0 1.6-.4 3-1 3-.5 0-1 .9-1 2s-.4 2-1 2c-.5 0-1 .7-1 1.5s-2.7 4.2-6 7.6c-3.3 3.3-6 6.5-6 7s-1.8 2.8-4 5l-4 4.1v8.4c0 7.7.2 8.4 2 8.4 1.5 0 2-.7 2-2.8 0-1.6.8-3.4 2-4.2 1.1-.8 2-2 2-2.7 0-.7 3.4-4.7 7.6-8.9 6.2-6.2 7.8-7.3 9-6.4.8.7 1.4 2.8 1.4 4.7 0 3.7 1.8 6.3 4.4 6.3.9 0 1.6-.8 1.6-2 0-1.1-.4-2-1-2-.5 0-1-1.3-1-2.9 0-1.7-.4-3.3-1-3.6-.5-.3-1-1.9-1-3.5s.5-3.2 1-3.5c.6-.3 1-2.8 1-5.6 0-2.7.4-5.7.9-6.7.5-.9 1.6-3.2 2.3-5 .7-1.7 1.6-3.2 2-3.2.5 0 .8-.9.8-2s.5-2 1-2c.6 0 1-.9 1-2s.5-2 1-2c.6 0 1-1.8 1-4s.5-4 1-4c.6 0 1 .9 1 2s.5 2 1 2c.6 0 1 3 1 7s.4 7 1 7 1 .9 1 2c0 1.3.7 2 2 2s2-.7 2-2c0-1.1-.4-2-1-2s-1-3-1-7-.4-7-1-7c-.5 0-1-.9-1-2s-.4-2-1-2c-.5 0-1-.9-1-2s-.4-2-1-2c-.5 0-1-.7-1-1.6 0-.8-2.2-3.7-5-6.4-2.7-2.7-5-5.6-5-6.4 0-.9-.4-1.6-1-1.6-.5 0-1-1.4-1-3 0-1.7-.4-3-1-3-.5 0-1-2.3-1-5 0-2.8-.4-5-1-5-.5 0-1-1.8-1-4s-.4-4-1-4c-.5 0-1-.9-1-2s-.4-2-1-2c-.5 0-1-1.4-1-3 0-1.7.5-3 1-3 .6 0 1-.8 1-1.8s.9-2.4 2-3.2c1.1-.8 2-2.2 2-3.2s.5-1.8 1-1.8c.6 0 1-1.4 1-3 0-1.7.5-3 1-3 .6 0 1-1.4 1-3 0-1.7.5-3 1-3 .6 0 1-.9 1-2s.5-2 1-2c.6 0 1-1.3 1-2.8 0-1.6.8-3.4 2-4.2 1.1-.8 2-2 2-2.8 0-1.7 2.4-4.2 4-4.2.7 0 2.5-1.4 4-3 1.5-1.7 3.4-3 4-3 .7 0 2-.8 2.9-1.8.9-1 2.4-2.1 3.4-2.5.9-.3 1.7-1.3 1.7-2.2 0-.8.5-1.5 1-1.5.6 0 1-.9 1-2s.5-2 1-2c.6 0 1-.9 1-2 0-1.3.7-2 2-2 1.1 0 2-.5 2-1 0-.6 1.4-1 3-1 1.7 0 3-.4 3-.9 0-1.9 12.7-1.9 14-.1zm-298 4c0 2.3-.4 3-2 3-1.1 0-2 .4-2 1 0 .5-1.3 1-3 1-1.6 0-3 .4-3 1 0 .5-.9 1-2 1s-2 .4-2 .9-1.3 1.4-3 2.1c-1.6.7-3 1.6-3 2 0 .3-1.2 1.3-2.7 2.1-3.8 1.9-11.3 9.5-11.3 11.4 0 .8-.4 1.5-1 1.5-.5 0-1-.9-1-2s.5-2 1-2c.6 0 1-.9 1-2s.5-2 1-2c.6 0 1-.7 1-1.5 0-2 10.5-12.5 12.5-12.5.8 0 1.5-.5 1.5-1 0-.6.9-1 2-1s2-.5 2-1c0-.6.9-1 2-1s2-.5 2-1c0-.6 1.4-1 3-1 1.7 0 3-.5 3-1 0-.6.9-1 2-1 1.6 0 2 .7 2 3zm0 20c0 2.3-.4 3-2 3-1.1 0-2 .4-2 1 0 .5-.9 1-2 1s-2 .4-2 1c0 .5-.8 1-1.8 1s-2.4.9-3.2 2c-.8 1.1-2 2-2.8 2-1.8 0-16.2 14.8-16.2 16.6 0 .8-.4 1.4-1 1.4-.5 0-1-1.4-1-3 0-1.7.4-3 .9-3s1.3-.9 1.6-2c.8-2.6 16-18 17.7-18 .8 0 2-.9 2.8-2 .8-1.1 2.2-2 3.2-2s1.8-.5 1.8-1c0-.6 1.4-1 3-1 2.7 0 3 .3 3 3zm-4 20.5c0 1.7-10.3 12.5-11.9 12.5-.5 0-3.7 2.7-7 6-3.4 3.3-6.3 6-6.6 6-1.4 0-.2-3.7 1.5-5 1.1-.8 2-2 2-2.6 0-1.4 9.6-11.4 10.9-11.4.6 0 2.1-1.1 3.5-2.5s3.2-2.5 4.1-2.5c.8 0 1.5-.5 1.5-1 0-.6.5-1 1-1 .6 0 1 .7 1 1.5zm-1.4 25.9c.8.8 1.4 2 1.4 2.6 0 1.5-2.5 4-4 4-1.4 0-12 10.6-12 12.1 0 .6-1.3 2.4-3 3.9-1.6 1.5-3 3.3-3 3.9 0 1.3-.3 1.3-2.4.5-1.7-.6-2.3-4.4-.7-4.4.5 0 1.1-1.3 1.4-2.9.3-1.6 1.3-3.6 2.2-4.4.8-.9 1.5-2 1.5-2.6 0-.6 2.8-4 6.3-7.5 6.4-6.6 9.5-7.9 12.3-5.2zM112 303c0 .5.8 1 1.8 1s2.4.9 3.2 2c.8 1.1 2.1 2 3 2 .9 0 2.2.9 3 2 .8 1.1 2 2 2.6 2 1.8 0 12.4 10.6 12.4 12.4 0 .9.5 1.6 1 1.6.6 0 1 .9 1 2 0 1.3-.7 2-2 2-1.1 0-2-.5-2-1 0-.6-.8-1-1.8-1s-2.4-.9-3.2-2c-.8-1.1-2.2-2-3.2-2s-1.8-.4-1.8-.8c0-.5-1.2-1.5-2.7-2.3-3.7-1.8-5.3-3.4-5.3-5.1 0-.8-.9-2-2-2.8-1.1-.8-2-2.2-2-3.2s-.4-1.8-1-1.8c-.5 0-1-.9-1-2s-.4-2-1-2c-.5 0-1-.5-1-1 0-.6.5-1 1-1 .6 0 1 .4 1 1zm-16 2.5c0 .9-3.1 4.7-7 8.5-3.8 3.8-7 7.5-7 8.2 0 .8-.9 2-2 2.8-1.1.8-2 2.2-2 3.2s-.4 1.8-1 1.8c-.5 0-1 .9-1 2s-.4 2-1 2c-.5 0-1 .9-1 2s-.4 2-1 2-1-2.7-1-6 .4-6 1-6 1-.7 1-1.5c0-2 16.5-18.5 18.5-18.5.8 0 1.5-.5 1.5-1 0-.6.5-1 1-1 .6 0 1 .7 1 1.5zm10.3 14.1c3 1.1 1.9 3.3-5.3 10.4-3.8 3.8-7 7.4-7 8 0 .5-1.3 2.4-3 4.2-1.6 1.7-3 3.5-3 4.1 0 1.1-3.9 4.7-5.2 4.7-.4 0-.8-2-.8-4.5s.5-4.5 1-4.5c.6 0 1-.9 1-2s.5-2 1-2c.6 0 1-.8 1-1.8s.9-2.4 2-3.2c1.1-.8 2-2 2-2.7 0-1.9 8.6-10.3 10.5-10.3.8 0 1.5-.5 1.5-1.1 0-.6.6-.8 1.3-.5.6.3 2 .9 3 1.2zM118 335c0 .5.9 1 2 1 1.3 0 2 .7 2 1.8 0 1-.9 2.4-2 3.2-1.1.8-2 2-2 2.6 0 .6-1.3 2.5-3 4.2-1.6 1.8-3 3.8-3 4.5 0 .7-.9 1.9-2 2.7-1.1.8-2 2.2-2 3.2s-.4 1.8-1 1.8c-.5 0-1 .9-1 2s-.4 2-1 2c-.5 0-1 .7-1 1.6 0 .8-.7 2.2-1.5 3-1.3 1.3-1.8 1.2-4-1-1.7-1.7-2.5-3.6-2.5-6.1 0-1.9.5-3.5 1-3.5.6 0 1-.6 1-1.3 0-1.8 2.4-6.7 3.3-6.7.4 0 .7-.7.7-1.6 0-.9 1.3-2.8 2.8-4.2 1.6-1.5 3.7-3.9 4.6-5.5 1-1.5 2.5-2.7 3.2-2.7.8 0 1.4-.5 1.4-1 0-.6.9-1 2-1s2 .4 2 1zm20 13c0 1.1-.4 2-1 2-.5 0-1 .8-1 1.8s-.9 2.4-2 3.2c-1.1.8-2 2.2-2 3.2s-.4 1.8-1 1.8c-.5 0-1 .9-1 2s-.4 2-1 2c-.5 0-1 1.3-1 3 0 1.6-.4 3-1 3-.5 0-1 2.2-1 5 0 4.7-.2 5-2.6 5-1.4 0-3.2-.6-4-1.4-1.6-1.7-2-10.6-.4-10.6.6 0 1-.9 1-2s.5-2 1-2c.6 0 1-.9 1-2s.5-2 1-2c.6 0 1-.8 1-1.8s.9-2.4 2-3.2c1.1-.8 2-2 2-2.8 0-2.3 4.4-6.1 7.3-6.1 2.1-.1 2.7.4 2.7 1.9zm12.6 5.4c1 1.1 1.4 4.1 1.4 11.6v10.1l-3.5 3.4c-2.1 2.2-4.4 3.5-6 3.5-2.3 0-2.5-.3-2.5-5 0-2.8.5-5 1-5 .6 0 1-1.4 1-3 0-1.7.5-3 1-3 .6 0 1-.9 1-1.9 0-1.1.5-2.3 1-2.6.6-.3 1-1.7 1-3.1 0-1.3.5-2.4 1-2.4.6 0 1-.9 1-2 0-2.4.6-2.5 2.6-.6z"/><path d="M267.2 401.5c-.6.8-1.7 2.6-2.4 4-.6 1.4-1.5 2.5-2 2.5-.4 0-.8.6-.8 1.2 0 .7-1.4 2.9-3 4.8s-3 4-3 4.5c0 .6-.9 1.7-2 2.5s-2 2.2-2 3.2-.4 1.8-1 1.8c-.5 0-1 1.3-1 3 0 1.6.5 3 1 3 .6 0 1 .7 1 1.6 0 .9 1.2 2.8 2.8 4.3 4.7 4.6 5.2 6.4 5.2 18.6 0 7 .4 11.5 1 11.5s1 .7 1 1.5c0 1.8 4.3 6.5 5.9 6.5.5 0 1.8 1.3 2.8 3 .9 1.6 2.1 3 2.5 3 .4 0 .8.9.8 2s.5 2 1 2c.6 0 1 .9 1 2s.5 2 1 2c.6 0 1 .9 1 2s.5 2 1 2c.6 0 1 1 1 2.2.1 3.3 2.3 5.8 5.4 5.8 2.6 0 2.6-.1 2.6-7 0-4-.4-7-1-7-.5 0-1-2.3-1-5 0-2.8-.4-5-1-5s-1-2.7-1-6-.4-6-1-6-1-10-1-28-.4-28-1-28c-.5 0-1-1.1-1-2.5 0-5.7-9.2-10-12.8-6zm43.1 4.9c-2.4 2.4-4.3 5.1-4.3 6 0 .9-.4 1.6-1 1.6s-1 8.7-1 24-.4 24-1 24c-.5 0-1 1.5-1 3.4s-.4 3.8-1 4.1c-.6.4-1 6.9-1 16.1 0 15.7.6 18.4 4 18.4 1.7 0 4-2.6 4-4.4 0-.9.5-1.6 1-1.6.6 0 1-2.3 1-5 0-2.8.5-5 1-5 .6 0 1-.8 1-1.8s.9-2.4 2-3.2c1.1-.8 2-2 2-2.6 0-.6 1.8-3 4-5.3 2.2-2.2 4-4.8 4-5.6 0-.8.5-1.5 1-1.5.6 0 1-.9 1-2s.5-2 1-2c.6 0 1-4.3 1-11s.4-11 1-11 1-1.4 1-3c0-1.7.5-3 1-3 .6 0 1-1.4 1-3 0-1.7.5-3 1-3 .6 0 1-1.8 1-4s-.4-4-1-4c-.5 0-1-.7-1-1.6 0-.9-1.3-2.9-3-4.4-1.6-1.5-3-3.2-3-3.7 0-1.6-8.7-10.3-10.2-10.3-.7 0-3.2 2-5.5 4.4zM438 73c0 .5-1.3 1-3 1-1.6 0-3 .4-3 1 0 .5-.9 1-2 1s-2 .4-2 1c0 .5-1.8 1-4 1s-4-.5-4-1c0-.6-.9-1-2-1s-2-.5-2-1c0-.6-2.2-1-5-1-2.7 0-5 .4-5 1 0 .5-.9 1-2 1s-2 .4-2 1c0 .5-.9 1-2 1s-2 .4-2 1c0 .5-.9 1-1.9 1-1.1 0-2.3.4-2.6 1-.3.5-4 1-8.1 1-4.3 0-7.4-.4-7.4-1s-1.8-1-4-1-4 .4-4 1c0 .5-1.3 1-3 1-1.6 0-3 .4-3 .9s-1.3 1.4-3 2.1c-1.6.7-3 1.8-3 2.5s-2.4 3.8-5.4 6.9c-4.3 4.4-6.1 5.6-8.5 5.6-1.6 0-3.3.4-3.6 1-.3.5-1.3 1-2.1 1-1.8 0-10.4 8.5-10.4 10.3 0 .7-.9 1.9-2 2.7-1.1.8-2 2.2-2 3.2s-.4 1.8-1 1.8c-.5 0-1 .9-1 2s-.4 2-1 2c-.5 0-1 2.2-1 4.9 0 4.5.2 5 3 6.1 1.7.7 3 1.6 3 2.1s.9.9 2 .9 2 .4 2 1c0 .5.9 1 2 1s2 .4 2 1c0 .5 1.8 1 4 1s4 .4 4 1c0 .5 1.1 1 2.5 1 2.9 0 11.5 7.9 11.5 10.5 0 .8.5 1.5 1 1.5.6 0 1 1.3 1 2.9 0 1.7.5 3.3 1 3.6.6.3 1 3.1 1 6.1 0 3 .5 5.4 1 5.4.6 0 1 .6 1 1.3 0 1.8 2.4 6.7 3.3 6.7.4 0 .7.7.7 1.5 0 2 12.5 14.5 14.5 14.5.8 0 1.5.4 1.5 1 0 .5 1.4 1 3 1 1.7 0 3 .4 3 1s2.7 1 6 1 6 .4 6 1c0 .5 1.4 1 3 1 1.7 0 3 .4 3 1 0 .5.9 1 2 1s2 .7 2 1.5c0 2.5 6.6 8.5 9.4 8.5 1.3 0 2.7.6 3 1.2.5 1 .7 1 1.2 0 .3-.6 1.7-1.2 3.1-1.2 3.4 0 9.3-6 9.3-9.4 0-1.4.5-2.6 1-2.6.6 0 1-2.1 1-4.6 0-5.5 1.6-7.4 6.4-7.4 2 0 3.6-.5 3.6-1 0-.6 2.7-1 6-1s6 .4 6 1c0 .5.9 1 2 1s2 .4 2 1c0 .5.7 1 1.5 1 1.9 0 6.5 4.4 6.5 6.2 0 .8.9 2 2 2.8 1.1.8 2 2.2 2 3.2s.5 1.8 1 1.8c.6 0 1 .9 1 2s.5 2 1 2c.6 0 1 .9 1 1.9 0 1.1.5 2.3 1 2.6.6.3 1 1.7 1 3.1 0 1.3.5 2.4 1 2.4.6 0 1 1.8 1 4s.5 4 1 4c.6 0 1 2 1 4.4 0 2.5.5 4.8 1 5.1.6.4 1 6.5 1 15s-.4 14.6-1 15c-.5.3-1 1.3-1 2.1 0 2-2.4 4.4-4.4 4.4-.9 0-1.6.4-1.6 1 0 .5-1.3 1-3 1-1.6 0-3 .4-3 1 0 .5-1.3 1-3 1-1.6 0-3 .4-3 1 0 .5-1.3 1-3 1-1.6 0-3 .4-3 1 0 .5-.9 1-2 1s-2 .4-2 1c0 .5-.9 1-2 1s-2 .4-2 1c0 .5-.9 1-2 1s-2 .4-2 1c0 .5-.8 1-1.8 1s-2.4.9-3.2 2c-.8 1.1-2.1 2-3 2-.9 0-2.2.9-3 2-.8 1.1-2 2-2.7 2-1.4 0-20.3 18.6-20.3 20 0 .6-2.2 3.3-5 6.1-2.7 2.8-5 5.6-5 6.3 0 .6-.9 1.8-2 2.6s-2 2.2-2 3.2-.4 1.8-1 1.8c-.5 0-1 1.8-1 4s-.4 4-1 4c-.5 0-1 2.2-1 5 0 2.7-.4 5-1 5s-1 3.3-1 8 .4 8 1 8 1 2.2 1 4.9c0 2.8.5 5.3 1 5.6.6.3 1 1.7 1 3.1 0 1.3.5 2.4 1 2.4.6 0 1 .9 1 2s.5 2 1 2c.6 0 1 .7 1 1.5 0 1.9 15.5 17.4 19.3 19.4 1.5.8 2.7 1.8 2.7 2.3 0 .4.9.8 2 .8s2 .3 2 .8c0 .4 1.8 1.3 4 2 4.8 1.5 24 1.6 24 .2 0-.6 1.4-1 3-1 1.7 0 3-.5 3-1 0-.6 1.1-1 2.4-1 1.4 0 2.8-.5 3.1-1 .3-.6 1.5-1 2.6-1 1 0 1.9-.5 1.9-1 0-.6.9-1 2-1s2-.5 2-1c0-.6.8-1 1.8-1s2.4-.9 3.2-2c.8-1.1 2.2-2 3.2-2s1.8-.5 1.8-1c0-.6.8-1 1.8-1s2.4-.9 3.2-2c.8-1.1 2.1-2 3-2 .9 0 2.2-.9 3-2 .8-1.1 2-2 2.7-2 1.6 0 18.3-16.5 18.3-18.1 0-.6 1.8-2.8 4-4.9 2.2-2.1 4-4.3 4-4.8 0-.6 2.3-3.3 5-6.1 2.8-2.8 5-5.8 5-6.6 0-.8.5-1.5 1-1.5.6 0 1-1.4 1-3 0-1.7.5-3 1-3 .6 0 1-3.2 1-7.5 0-7 .2-7.7 3-10.7 1.6-1.7 3-3.7 3-4.4 0-.8.3-1.4.8-1.4 1.2 0 3.2-5.3 3.2-8.7 0-1.8-.4-3.3-1-3.3-.5 0-1-1.8-1-4s-.4-4-1-4-1-3.3-1-7.9c0-4.4.5-8.3 1-8.6.6-.3 1-1.5 1-2.6s1.8-3.8 4-5.9c3.5-3.4 4-4.4 4-8.4 0-2.5-.4-4.6-.8-4.6-1.2 0-5.2-7.8-5.2-10.1 0-1 .5-1.9 1-1.9.6 0 1-.9 1-2s.5-2 1-2c.6 0 1-2.3 1-5 0-2.8-.4-5-1-5-1.8 0-1.1-5.5 1-7 1.6-1.1 2-2.6 2-7s-.4-5.9-2-7c-1.1-.8-2-2.2-2-3.2s-.4-1.8-1-1.8c-.5 0-1-1-1-2.3 0-1.3-.6-2.9-1.2-3.6-1-1.1-1-1.4 0-1.8.6-.3 1.2-1.2 1.2-2.2 0-.9.9-2.3 2-3.1 1.1-.8 2-2.4 2-3.7 0-1.2.5-2.5 1-2.8.6-.3 1-1.5 1-2.6 0-1-.4-1.9-1-1.9-.5 0-1-.6-1-1.3 0-1.8-2.4-6.7-3.2-6.7-.5 0-.8-.7-.8-1.6 0-.9-1.3-2.9-3-4.4-2.5-2.3-3-3.6-3-7.4 0-2.5.5-4.6 1-4.6.6 0 1-2.3 1-5 0-2.8-.4-5-1-5-.5 0-1-1.4-1-3 0-1.7-.4-3-1-3-.5 0-1-.7-1-1.5 0-.9-1.5-3.1-3.4-5s-3.7-4.3-4.1-5.5c-.3-1.1-1.1-2-1.6-2s-.9-2.3-.9-5c0-2.8-.4-5-1-5-.5 0-1-1.4-1-3 0-1.7-.4-3-1-3-.5 0-1-.7-1-1.5 0-2.6-6.6-8.5-9.5-8.5-1.4 0-2.5-.5-2.5-1 0-.6-1.6-1-3.5-1-2.7 0-4.4-.8-7-3.5-1.9-1.9-3.5-3.9-3.5-4.5 0-1.6-6.7-8-8.5-8-.8 0-1.5-.5-1.5-1 0-.6-1.3-1-3-1-1.6 0-3-.5-3-1 0-.6-3-1-7-1s-7-.4-7-1-.8-1-1.8-1-2.4-.9-3.2-2c-.8-1.1-2.2-2-3.2-2s-1.8-.5-1.8-1c0-.6-.9-1-2-1s-2-.5-2-1c0-.6-.9-1-2-1s-2-.5-2-1c0-.6-.9-1-2-1s-2-.5-2-1c0-.6-3-1-7-1s-7 .4-7 1zm11.5 13.5c1.4 1.3 2.5 2.8 2.5 3.3 0 .4.8 1.7 1.8 2.8.9 1 2.3 3.1 3.1 4.6.8 1.6 1.8 2.8 2.3 2.8.4 0 .8.9.8 2s.5 2 1 2c.6 0 1 1.1 1 2.4 0 1.4.5 2.8 1 3.1.6.3 1 1.9 1 3.6 0 1.6.5 2.9 1 2.9.6 0 1 1.8 1 4s-.3 4-.6 4c-1.4 0-3.4-3.1-3.4-5.4 0-1.4-.4-2.6-1-2.6-.5 0-1-.9-1-2s-.4-2-1-2c-.5 0-1-.9-1-2s-.4-2-1-2c-.5 0-1-.9-1-2s-.4-2-1-2c-.5 0-1-.7-1-1.5 0-.9-.9-2.5-2-3.7-1.1-1.2-2-2.8-2-3.5 0-.7-.4-1.3-1-1.3-.5 0-1-.9-1-2s-.4-2-.9-2c-1.3 0-2.1-2.7-1.5-4.5.8-2 1.1-1.9 3.9 1zM417 92c.8 1.1 2 2 2.7 2 .8 0 3.8 2.5 6.8 5.5s5.5 6 5.5 6.8c0 .7.9 1.9 2 2.7 1.2.8 2 2.6 2 4.2 0 1.5.5 2.8 1 2.8.6 0 1 1.3 1 3 0 1.6-.3 3-.6 3-1 0-3.4-2.8-3.4-4 0-.6-1.8-2.9-4-5s-4-4.3-4-4.8c0-.6-2.7-3.8-6-7.1-3.3-3.4-6-6.8-6-7.6 0-.8-.4-1.5-1-1.5-.5 0-1-.5-1-1 0-1.8 3.5-1.1 5 1zm-37 5c0 .5.9 1 2 1s2 .4 2 1c0 .5.8 1 1.8 1s2.4.9 3.2 2c.8 1.1 2 2 2.7 2 1.7 0 14.3 12.6 14.3 14.3 0 .7.9 1.9 2 2.7 1.1.8 2 2.2 2 3.2 0 .9.5 2 1 2.3.6.3 1 1.7 1 3.1 0 1.3.5 2.4 1 2.4.6 0 1 .9 1 2s-.4 2-1 2c-.5 0-1-.6-1-1.4 0-.7-1.3-2.7-3-4.4-1.6-1.8-3-3.6-3-4.2 0-1.4-12.7-14-14.1-14-.6 0-2.4-1.4-3.9-3-1.5-1.7-3.4-3-4-3-.7 0-2-.8-2.9-1.8-.9-1-2.4-2.1-3.3-2.5-2.6-.9-2.4-5.7.2-5.7 1.1 0 2 .4 2 1zm110.6 2.4c1.6 1.7 2 14.6.4 14.6-.5 0-1 1.8-1 4s-.4 4-1 4c-.5 0-1 1.2-1 2.6 0 2.3-2 5.4-3.5 5.4-.4 0-.4-3.5-.1-7.8.4-4.2.9-11.4 1.2-16 .6-8.6 1.7-10.1 5-6.8zM360 115c0 .5 1.4 1 3 1 1.7 0 3 .4 3 1 0 .5.8 1 1.8 1s2.4.9 3.2 2c.8 1.1 2 2 2.7 2 1.6 0 20.3 18.5 20.3 20 0 .6.9 2 2 3.2 1.8 1.9 2.8 6.8 1.5 6.8-1.2 0-5.1-2.7-7.5-5-1.4-1.4-4.1-3.7-6-5-1.9-1.3-4.7-3.7-6.2-5.2-1.4-1.5-3.2-2.8-4-2.8-.7 0-2-.9-2.8-2-.8-1.1-2.2-2-3.2-2s-1.8-.5-1.8-1c0-.6-.7-1-1.5-1-.9 0-2.5-.9-3.7-2-1.2-1.1-2.8-2-3.5-2-.7 0-1.3-.5-1.3-1 0-.6-.7-1-1.5-1-.9 0-2.7-1.1-4.1-2.5-2.1-2.1-2.3-2.7-1.2-4 1.5-1.6 10.8-2.1 10.8-.5zm158 6.9c0 1.1.6 2.2 1.3 2.5 1 .5 1 .7 0 1.2-.7.3-1.3 1.4-1.3 2.5 0 1-.4 1.9-1 1.9-.5 0-1 .7-1 1.6 0 .9-.8 2.4-1.8 3.3-.9.9-2.3 2.8-3.1 4.3-1.4 2.7-5.1 3.9-5.1 1.8 0-.6.5-1 1-1 .6 0 1-1.4 1-3 0-1.7.5-3 1-3 .6 0 1-.9 1-2s.5-2 1-2c.6 0 1-.9 1-2s.3-2 .8-2c.4 0 1.3-1.4 2-3 1.5-3.4 3.2-4 3.2-1.1zm15.6 32.6c2.4 2.4 2.4 2.6.8 4.3-1.3 1.2-1.9 1.3-2.2.4-.2-.6-1.7-1.2-3.2-1.2-1.6 0-3.2-.5-3.5-1-.3-.6-3.1-1-6.1-1-3 0-5.4-.5-5.4-1 0-.6.9-1 2-1s2-.5 2-1c0-.6 2.8-1 6.5-1 5.7 0 6.9.3 9.1 2.5zM490 163c0 .5 1.4 1 3 1 1.7 0 3 .4 3 1 0 .5.9 1 2 1s2 .4 2 1c0 .5.7 1 1.5 1 .9 0 2.5.9 3.7 2 1.2 1.1 2.8 2 3.5 2 .7 0 1.3.4 1.3 1 0 .5-1.1 1-2.4 1-1.4 0-2.8-.5-3.1-1-.3-.6-2.8-1-5.6-1-2.7 0-4.9-.5-4.9-1 0-.6-5-1-13-1s-13 .4-13 1c0 .5-.9 1-2 1s-2 .4-2 1c0 .5-1.3 1-3 1-1.6 0-3 .4-3 1 0 .5-.9 1-2 1s-2 .4-2 1c0 .5-.9 1-1.9 1-1.1 0-2.3.4-2.6 1-.6 1-5.5 1.4-5.5.5 0-1.2 11-11.5 12.3-11.5.7 0 1.9-.9 2.7-2 .8-1.1 2.2-2 3.2-2s1.8-.5 1.8-1c0-.6 5-1 13-1s13 .4 13 1zm2 20c0 .6 2.8 1 6.4 1 3.6 0 6.8.4 7.1 1 .3.5 1.7 1 3.1 1 1.4 0 3.6 1.1 5 2.5s2.9 2.5 3.4 2.5c1.3 0 9.3 8 8.7 8.6-.3.3-1.6-.3-2.8-1.5-1.3-1.2-2.9-2.1-3.6-2.1-.7 0-1.3-.5-1.3-1 0-.6-.9-1-2-1s-2-.5-2-1c0-.6-.8-1-1.8-1s-2.2-.4-2.7-.9c-1.1-1-7.8-1.8-21.2-2.7-4.6-.3-8.3-1-8.3-1.5s-.9-.9-2-.9c-1.3 0-2-.7-2-2 0-1.8.7-2 8-2 4.7 0 8 .4 8 1zm6 20c0 .5 1.8 1 4 1s4 .4 4 1c0 .5 1.4 1 3 1 1.7 0 3 .4 3 1 0 .5.9 1 2 1s2 .4 2 1c0 .5.7 1 1.6 1 1.9 0 14.4 12.4 14.4 14.4 0 .8.6 1.6 1.3 1.9.6.2.9.7.6 1.1-.4.4-3-1.6-5.7-4.3-2.8-2.8-5.7-5.1-6.4-5.1-.8 0-2-.9-2.8-2-.8-1.1-2.2-2-3.2-2s-1.8-.5-1.8-1c0-.6-.9-1-1.9-1-1.1 0-2.3-.5-2.6-1-.3-.6-1.7-1-3.1-1-1.3 0-2.4-.5-2.4-1 0-.6-.9-1-1.9-1-1.1 0-2.3-.5-2.6-1-.3-.6-1.5-1-2.6-1-1.9 0-4.9-2.1-4.9-3.4 0-.3 1.4-.6 3-.6 1.7 0 3 .4 3 1zm6 18c0 .5.9 1 2 1s2 .4 2 1c0 .5.9 1 2 1s2 .4 2 1c0 .5.8 1 1.8 1s2.4.9 3.2 2c.8 1.1 2 2 2.6 2 1.3 0 12.4 10.4 12.4 11.7 0 .4.9 1.9 2 3.3 1.8 2.3 2.9 11 1.5 11-1 0-5.5-4.9-5.5-6 0-1.4-10.6-12-12.1-12-.6 0-2.4-1.4-3.9-3-1.5-1.7-3.5-3-4.4-3-.9 0-1.6-.5-1.6-1 0-.6-.9-1-2-1s-2-.5-2-1c0-.6-.7-1-1.5-1-.9 0-2.7-1.1-4.1-2.5-2.1-2.1-2.3-2.7-1.2-4 1.5-1.6 6.8-2 6.8-.5zm0 19.8c0 .5 1.2 1.5 2.8 2.3 1.5.8 3.4 2.2 4.3 3.1.9 1 2.2 1.8 2.8 1.8 1.6 0 16.1 14.7 16.1 16.3 0 .7.9 1.9 2 2.7 1.2.8 2 2.6 2 4.2 0 1.5.5 2.8 1 2.8.6 0 1 1.3 1 3 0 1.6-.2 3-.5 3-1 0-11.5-11-11.5-12.1 0-1.5-13-13.9-14.6-13.9-.8 0-1.4-.5-1.4-1 0-.6-1.2-1-2.6-1-2.9 0-5.4-2.1-5.4-4.4 0-.9-.4-1.6-1-1.6-.5 0-1-1.4-1-3 0-2.7.3-3 3-3 1.7 0 3 .4 3 .8zm0 20.2c0 .5.7 1 1.6 1 .9 0 2.9 1.3 4.4 3 1.5 1.6 3.3 3 4 3 1.3 0 9 7.7 9 9 0 .5 1.5 2.4 3.3 4.2 1.7 1.8 3.8 4.9 4.5 6.9 1.2 3.5 1.7 9.9.7 9.9-.2 0-5.8-5.4-12.4-12-6.6-6.6-12.5-12-13.1-12-1.3 0-5-3.7-6.7-6.8-1.9-3.2-1.6-5.2.7-5.2 1.1 0 2-.5 2-1 0-.6.5-1 1-1 .6 0 1 .4 1 1zm9 28.9c2.7 2.7 5 5.3 5 5.9 0 .5 1.2 2.2 2.8 3.8 1.5 1.6 3.3 4.2 4.1 5.7.8 1.5 1.8 2.7 2.3 2.7 1.3 0 .9 12.3-.6 14.2-1.7 2.3-2.6 2.3-2.6 0 0-1-.9-2.4-2-3.2-1.1-.8-2-2-2-2.7 0-1.6-14.5-16.3-16.1-16.3-1.5 0-3.9-2.6-3.9-4.3 0-.9-.6-1.7-1.2-2-1.3-.4 6.6-8.7 8.3-8.7.5 0 3.1 2.2 5.9 4.9zM501 306c2.1 2.2 4.4 4 5 4 1.6 0 10 9 10 10.7 0 .7.5 1.3 1 1.3.6 0 1 .9 1 2s.5 2 1 2c.6 0 1 1.8 1 4s-.4 4-1 4c-.5 0-1 .9-1 2s-.4 2-1 2c-.5 0-1-.8-1-1.8s-.9-2.4-2-3.2c-1.1-.8-2-2-2-2.7 0-.7-4.9-6.2-11-12.2-6-6-11-11.5-11-12.1 0-1.9 2.4-3.9 4.8-4 1.5 0 3.8 1.5 6.2 4zm-21 0c0 1.1-.4 2-1 2-.5 0-1 .6-1 1.4 0 1.8-14.4 16.6-16.2 16.6-.8 0-2 .9-2.8 2-.8 1.1-2.2 2-3.2 2s-1.8.4-1.8 1c0 .5-.9 1-2 1s-2 .4-2 1c0 .5-.9 1-2 1s-2-.5-2-1c0-.6.5-1 1-1 .6 0 1-.9 1-2s.4-2 .8-2c.5 0 1.5-1.2 2.3-2.8 1.8-3.5 13.7-15.2 15.5-15.2.8 0 1.4-.5 1.4-1 0-.6.9-1 2-1s2-.5 2-1c0-.6.9-1 2-1s2-.5 2-1c0-.6.9-1 2-1 1.3 0 2 .7 2 2zm15.5 16.5c3.6 3.5 6.5 6.9 6.5 7.5 0 .6.9 2 2 3.2 1.1 1.2 2 2.8 2 3.5 0 .7.5 1.3 1 1.3.6 0 1 .9 1 2s.5 2 1 2c.6 0 1 .9 1 2s.5 2 1 2c2.2 0 .7 4.6-2.9 9.1-1.6 2-4.1 1.4-4.1-1 0-.9-.9-2.3-2-3.1-1.1-.8-2-2.1-2-3 0-.9-.9-2.2-2-3-1.1-.8-2-2-2-2.8 0-.7-4.1-5.3-9.1-10.3-8-7.9-8.8-9.1-7.5-10.4.8-.8 2.2-1.5 3-1.5.9 0 1.6-.5 1.6-1 0-.6.9-1 2-1s2-.5 2-1c0-1.8.9-1.1 7.5 5.5zM476 333c0 .5.7 1 1.5 1 1.7 0 6.5 4.3 6.5 5.8 0 .4.9 1.8 2 3 2.8 3 6 8.9 6 11.2 0 1.1.5 2 1 2 .6 0 1 1.3 1 3 0 1.6.5 3 1 3 .6 0 1 .9 1 2s-.4 2-1 2c-.5 0-1 .9-1 2 0 1.3-.7 2-1.8 2-1 0-2.4.9-3.2 2-2 2.8-3 2.5-3-1 0-1.7-.4-3-1-3-.5 0-1-1.1-1-2.4 0-1.4-.4-2.8-1-3.1-.5-.3-1-1.4-1-2.3 0-1-.9-2.4-2-3.2-1.1-.8-2-2-2-2.8 0-.7-1.1-2.4-2.5-3.8s-2.5-2.9-2.5-3.4-1.6-2.5-3.5-4.4c-1.9-2-3.5-4-3.5-4.6 0-1.7 2.6-4 4.4-4 .9 0 1.6-.5 1.6-1 0-.6.9-1 2-1s2 .4 2 1zm-13.5 14.5c3 3 5.5 6 5.5 6.6 0 .6 1.4 2.4 3 3.9 1.7 1.5 3 3.5 3 4.4 0 .9.5 1.6 1 1.6.6 0 1 1.3 1 3 0 1.6.5 3 1 3 .6 0 1 1.3 1 3 0 2.3-.4 3-2 3-1.1 0-2 .4-2 1 0 .5-.9 1-2 1s-2 .4-2 1c0 .5-1.8 1-4 1h-4v-7.4c0-4.1-.4-7.8-1-8.1-.5-.3-1-1.5-1-2.6 0-1-.4-1.9-.8-1.9-.5 0-1.5-1.2-2.3-2.8-.8-1.5-2.6-3.9-4.1-5.4-1.6-1.4-2.8-3.3-2.8-4.1 0-.9-.6-1.7-1.2-2-2.1-.8 2.3-3.6 5.5-3.7 2 0 4.2 1.4 8.2 5.5zm-18.7 5.4c1.2 1 2.2 2.6 2.2 3.5 0 .9.5 1.6 1 1.6.6 0 1 .9 1 2s.5 2 1 2c.6 0 1 .7 1 1.5 0 .9.9 2.5 2 3.7 2.4 2.6 2.7 9.2.6 11.4-1.7 1.6-4.6 1.9-4.6.4 0-.6-.7-1-1.5-1-.9 0-3.1-1.6-5-3.5-3.4-3.4-3.5-3.6-3.5-11.6 0-6.3.4-8.7 1.7-10.1 2-2.2 1.5-2.2 4.1.1z"/></g><path d="M158.8 73.7c1.2.2 3.2.2 4.5 0 1.2-.2.2-.4-2.3-.4s-3.5.2-2.2.4zm19 0c1.7.2 4.7.2 6.5 0 1.7-.2.3-.4-3.3-.4-3.6 0-5 .2-3.2.4zm231 0c1.2.2 3.2.2 4.5 0 1.2-.2.2-.4-2.3-.4s-3.5.2-2.2.4zm25 0c.6.2 1.8.2 2.5 0 .6-.3.1-.5-1.3-.5-1.4 0-1.9.2-1.2.5zm-266 2c.6.2 1.8.2 2.5 0 .6-.3.1-.5-1.3-.5-1.4 0-1.9.2-1.2.5zm22 0c.6.2 1.8.2 2.5 0 .6-.3.1-.5-1.3-.5-1.4 0-1.9.2-1.2.5zm19 4c1.2.2 3.2.2 4.5 0 1.2-.2.2-.4-2.3-.4s-3.5.2-2.2.4zm163.5 0c.9.2 2.5.2 3.5 0 .9-.3.1-.5-1.8-.5-1.9 0-2.7.2-1.7.5zm-264.5 2c1.7.2 4.7.2 6.5 0 1.7-.2.3-.4-3.3-.4-3.6 0-5 .2-3.2.4zm110 0c.6.2 1.8.2 2.5 0 .6-.3.1-.5-1.3-.5-1.4 0-1.9.2-1.2.5zm148 0c.6.2 1.8.2 2.5 0 .6-.3.1-.5-1.3-.5-1.4 0-1.9.2-1.2.5zm16 0c1.7.2 4.7.2 6.5 0 1.7-.2.3-.4-3.3-.4-3.6 0-5 .2-3.2.4zm97.5 4c1.5.2 3.9.2 5.5 0 1.5-.2.2-.4-2.8-.4s-4.3.2-2.7.4zm10.5 2c.6.2 1.8.2 2.5 0 .6-.3.1-.5-1.3-.5-1.4 0-1.9.2-1.2.5zm-250 10c.6.2 1.8.2 2.5 0 .6-.3.1-.5-1.3-.5-1.4 0-1.9.2-1.2.5zm104 2c.6.2 1.8.2 2.5 0 .6-.3.1-.5-1.3-.5-1.4 0-1.9.2-1.2.5zm168.5 6c.9.2 2.5.2 3.5 0 .9-.3.1-.5-1.8-.5-1.9 0-2.7.2-1.7.5zm-230.5 34c6.1.2 16.3.2 22.5 0 6.1-.1 1.1-.3-11.3-.3s-17.4.2-11.2.3zM175 141.4c.7.7 1.3.7 2 0 .6-.6.3-1-1-1s-1.6.4-1 1zm87.8.3c1.2.2 3.2.2 4.5 0 1.2-.2.2-.4-2.3-.4s-3.5.2-2.2.4zm57 0c1.7.2 4.7.2 6.5 0 1.7-.2.3-.4-3.3-.4-3.6 0-5 .2-3.2.4zm-258 16c.6.2 1.8.2 2.5 0 .6-.3.1-.5-1.3-.5-1.4 0-1.9.2-1.2.5zm466 0c.6.2 1.8.2 2.5 0 .6-.3.1-.5-1.3-.5-1.4 0-1.9.2-1.2.5zm-473 1.5c.6.6 1.8.8 2.8.6 1.4-.3 1.2-.5-.9-1-1.9-.3-2.5-.2-1.9.4zm55 10.5c1.7.2 4.7.2 6.5 0 1.7-.2.3-.4-3.3-.4-3.6 0-5 .2-3.2.4zm361 0c1.2.2 3.2.2 4.5 0 1.2-.2.2-.4-2.3-.4s-3.5.2-2.2.4zm13 0c1.7.2 4.7.2 6.5 0 1.7-.2.3-.4-3.3-.4-3.6 0-5 .2-3.2.4zm-388.5 2c1.5.2 3.9.2 5.5 0 1.5-.2.2-.4-2.8-.4s-4.3.2-2.7.4zm26.5 0c.6.2 1.8.2 2.5 0 .6-.3.1-.5-1.3-.5-1.4 0-1.9.2-1.2.5zm375 0c1.2.2 3.2.2 4.5 0 1.2-.2.2-.4-2.3-.4s-3.5.2-2.2.4zM114 187c-.9.6-1 1-.3 1 .6 0 1.5-.5 1.8-1 .8-1.2.4-1.2-1.5 0zm369.8.7c1.7.2 4.7.2 6.5 0 1.7-.2.3-.4-3.3-.4-3.6 0-5 .2-3.2.4zm-399.5 2c.9.2 2.5.2 3.5 0 .9-.3.1-.5-1.8-.5-1.9 0-2.7.2-1.7.5zm20.5 0c1.2.2 3.2.2 4.5 0 1.2-.2.2-.4-2.3-.4s-3.5.2-2.2.4zm397.5 0c.9.2 2.5.2 3.5 0 .9-.3.1-.5-1.8-.5-1.9 0-2.7.2-1.7.5zm-294.5 10c.6.2 1.8.2 2.5 0 .6-.3.1-.5-1.3-.5-1.4 0-1.9.2-1.2.5zM380 201l-3.5.7 4.3.2c2.3 0 4.2-.4 4.2-.9 0-.6-.3-.9-.7-.9-.5.1-2.4.5-4.3.9zm-179.7.7c.9.2 2.5.2 3.5 0 .9-.3.1-.5-1.8-.5-1.9 0-2.7.2-1.7.5zM100 205c-.9.6-1 1-.3 1 .6 0 1.5-.5 1.8-1 .8-1.2.4-1.2-1.5 0zm293.8.7c.6.2 1.8.2 2.5 0 .6-.3.1-.5-1.3-.5-1.4 0-1.9.2-1.2.5zm-303 2c1.2.2 3.2.2 4.5 0 1.2-.2.2-.4-2.3-.4s-3.5.2-2.2.4zM217 217c0 .5.4 1 .9 1 .6 0 1.3-.5 1.6-1 .3-.6-.1-1-.9-1-.9 0-1.6.4-1.6 1zM83.8 229.7c.6.2 1.8.2 2.5 0 .6-.3.1-.5-1.3-.5-1.4 0-1.9.2-1.2.5zm125 32c2.3.2 6.1.2 8.5 0 2.3-.2.4-.4-4.3-.4s-6.6.2-4.2.4zm165.5 0c.9.2 2.5.2 3.5 0 .9-.3.1-.5-1.8-.5-1.9 0-2.7.2-1.7.5zM286 267c-.9.6-1 1-.3 1 .6 0 1.5-.5 1.8-1 .8-1.2.4-1.2-1.5 0zm-183.2 6.2c.6.6 1.8.8 2.8.6 1.4-.3 1.2-.5-.9-1-1.9-.3-2.5-.2-1.9.4zm165.9 3.9c.7.7 1.5 1 1.8.7.3-.3-.2-.9-1.2-1.2-1.4-.6-1.5-.5-.6.5zm-149.9.6c1.2.2 3.2.2 4.5 0 1.2-.2.2-.4-2.3-.4s-3.5.2-2.2.4zm357 0c.6.2 1.8.2 2.5 0 .6-.3.1-.5-1.3-.5-1.4 0-1.9.2-1.2.5zm-347.5 2c.9.2 2.5.2 3.5 0 .9-.3.1-.5-1.8-.5-1.9 0-2.7.2-1.7.5zm341.5 0c.6.2 1.8.2 2.5 0 .6-.3.1-.5-1.3-.5-1.4 0-1.9.2-1.2.5zm-283.1 17.4c.7.7 1.5 1 1.8.7.3-.3-.2-.9-1.2-1.2-1.4-.6-1.5-.5-.6.5zM492 369c-.9.6-1 1-.3 1 .6 0 1.5-.5 1.8-1 .8-1.2.4-1.2-1.5 0zm-16 6c-.9.6-1 1-.3 1 .6 0 1.5-.5 1.8-1 .8-1.2.4-1.2-1.5 0zm-353 4c-2.3.7-2.3.8-.3.9 1.2.1 2.5-.4 2.8-.9.3-.6.5-1 .3-.9-.2.1-1.4.5-2.8.9zm339.9.3c.5.5 2.1.7 3.7.5 2.7-.3 2.6-.4-.8-.9-2.2-.3-3.4-.1-2.9.4zm-322.1 1.9c.6.6 1.8.8 2.8.6 1.4-.3 1.2-.5-.9-1-1.9-.3-2.5-.2-1.9.4zm129.5 18.5c.9.2 2.5.2 3.5 0 .9-.3.1-.5-1.8-.5-1.9 0-2.7.2-1.7.5z" fill="#FFF" fill-opacity=".25"/><path d="M150 127c0 .5.5 1 1.1 1 .5 0 .7-.5.4-1-.3-.6-.8-1-1.1-1-.2 0-.4.4-.4 1zm374.5 72c-.3.5-.1 1 .4 1 .6 0 1.1-.5 1.1-1 0-.6-.2-1-.4-1-.3 0-.8.4-1.1 1z" fill="#FFF" fill-opacity=".44"/><path d="M448.5 87c1 1.1 2 2 2.3 2 .3 0-.3-.9-1.3-2s-2-2-2.3-2c-.3 0 .3.9 1.3 2zm-32 6c1 1.1 2 2 2.3 2 .3 0-.3-.9-1.3-2s-2-2-2.3-2c-.3 0 .3.9 1.3 2zm8 6c1 1.1 2 2 2.3 2 .3 0-.3-.9-1.3-2s-2-2-2.3-2c-.3 0 .3.9 1.3 2zm-228.1 6.2-1.9 2.3 2.3-1.9c2.1-1.8 2.7-2.6 1.9-2.6-.2 0-1.2 1-2.3 2.2zm202.1 5.8c1 1.1 2 2 2.3 2 .3 0-.3-.9-1.3-2s-2-2-2.3-2c-.3 0 .3.9 1.3 2zm-180.1 12.2-1.9 2.3 2.3-1.9c2.1-1.8 2.7-2.6 1.9-2.6-.2 0-1.2 1-2.3 2.2zm-8 6-1.9 2.3 2.3-1.9c2.1-1.8 2.7-2.6 1.9-2.6-.2 0-1.2 1-2.3 2.2zm-6 6-1.9 2.3 2.3-1.9c2.1-1.8 2.7-2.6 1.9-2.6-.2 0-1.2 1-2.3 2.2zm64 0-1.9 2.3 2.3-1.9c1.2-1.1 2.2-2.1 2.2-2.3 0-.8-.8-.2-2.6 1.9zm118.1-.2c1 1.1 2 2 2.3 2 .3 0-.3-.9-1.3-2s-2-2-2.3-2c-.3 0 .3.9 1.3 2zm-188.1 6.2-1.9 2.3 2.3-1.9c2.1-1.8 2.7-2.6 1.9-2.6-.2 0-1.2 1-2.3 2.2zm-142 12-1.9 2.3 2.3-1.9c2.1-1.8 2.7-2.6 1.9-2.6-.2 0-1.2 1-2.3 2.2zm16.1-.2c1 1.1 2 2 2.3 2 .3 0-.3-.9-1.3-2s-2-2-2.3-2c-.3 0 .3.9 1.3 2zm159.9.2-1.9 2.3 2.3-1.9c2.1-1.8 2.7-2.6 1.9-2.6-.2 0-1.2 1-2.3 2.2zm44.1 5.8c1 1.1 2 2 2.3 2 .3 0-.3-.9-1.3-2s-2-2-2.3-2c-.3 0 .3.9 1.3 2zm-22.1 6.2-1.9 2.3 2.3-1.9c1.2-1.1 2.2-2.1 2.2-2.3 0-.8-.8-.2-2.6 1.9zm30.1-.2c1 1.1 2 2 2.3 2 .3 0-.3-.9-1.3-2s-2-2-2.3-2c-.3 0 .3.9 1.3 2zm21.9.2-1.9 2.3 2.3-1.9c1.2-1.1 2.2-2.1 2.2-2.3 0-.8-.8-.2-2.6 1.9zm26.1-.2c1 1.1 2 2 2.3 2 .3 0-.3-.9-1.3-2s-2-2-2.3-2c-.3 0 .3.9 1.3 2zm-244.1 6.2-1.9 2.3 2.3-1.9c2.1-1.8 2.7-2.6 1.9-2.6-.2 0-1.2 1-2.3 2.2zm250.1-.2c1 1.1 2 2 2.3 2 .3 0-.3-.9-1.3-2s-2-2-2.3-2c-.3 0 .3.9 1.3 2zm113.9.2-1.9 2.3 2.3-1.9c2.1-1.8 2.7-2.6 1.9-2.6-.2 0-1.2 1-2.3 2.2zm-6 6-1.9 2.3 2.3-1.9c1.2-1.1 2.2-2.1 2.2-2.3 0-.8-.8-.2-2.6 1.9zM368.5 189c1 1.1 2 2 2.3 2 .3 0-.3-.9-1.3-2s-2-2-2.3-2c-.3 0 .3.9 1.3 2zm144 0c1 1.1 2 2 2.3 2 .3 0-.3-.9-1.3-2s-2-2-2.3-2c-.3 0 .3.9 1.3 2zm-364 6c1 1.1 2 2 2.3 2 .3 0-.3-.9-1.3-2s-2-2-2.3-2c-.3 0 .3.9 1.3 2zm226 0c1 1.1 2 2 2.3 2 .3 0-.3-.9-1.3-2s-2-2-2.3-2c-.3 0 .3.9 1.3 2zm-252.1 6.2-1.9 2.3 2.3-1.9c2.1-1.8 2.7-2.6 1.9-2.6-.2 0-1.2 1-2.3 2.2zm-48 6-1.9 2.3 2.3-1.9c2.1-1.8 2.7-2.6 1.9-2.6-.2 0-1.2 1-2.3 2.2zm108 0-1.9 2.3 2.3-1.9c2.1-1.8 2.7-2.6 1.9-2.6-.2 0-1.2 1-2.3 2.2zm54 0-1.9 2.3 2.3-1.9c2.1-1.8 2.7-2.6 1.9-2.6-.2 0-1.2 1-2.3 2.2zm116.1-.2c1 1.1 2 2 2.3 2 .3 0-.3-.9-1.3-2s-2-2-2.3-2c-.3 0 .3.9 1.3 2zm-286.1 6.2-1.9 2.3 2.3-1.9c2.1-1.8 2.7-2.6 1.9-2.6-.2 0-1.2 1-2.3 2.2zm92.1-.2c1 1.1 2 2 2.3 2 .3 0-.3-.9-1.3-2s-2-2-2.3-2c-.3 0 .3.9 1.3 2zm17.9.2-1.9 2.3 2.3-1.9c2.1-1.8 2.7-2.6 1.9-2.6-.2 0-1.2 1-2.3 2.2zm52 0-1.9 2.3 2.3-1.9c2.1-1.8 2.7-2.6 1.9-2.6-.2 0-1.2 1-2.3 2.2zm184.1-.2c1 1.1 2 2 2.3 2 .3 0-.3-.9-1.3-2s-2-2-2.3-2c-.3 0 .3.9 1.3 2zm-352.1 6.2-1.9 2.3 2.3-1.9c1.2-1.1 2.2-2.1 2.2-2.3 0-.8-.8-.2-2.6 1.9zm143.2.6c-.2.4.4.8 1.4.8 1 0 1.6-.4 1.4-.8-.3-.4-.9-.8-1.4-.8-.5 0-1.1.4-1.4.8zm8.9 5.2c1 1.1 2 2 2.3 2 .3 0-.3-.9-1.3-2s-2-2-2.3-2c-.3 0 .3.9 1.3 2zm12 12c1 1.1 2 2 2.3 2 .3 0-.3-.9-1.3-2s-2-2-2.3-2c-.3 0 .3.9 1.3 2zm302 0c1 1.1 2 2 2.3 2 .3 0-.3-.9-1.3-2s-2-2-2.3-2c-.3 0 .3.9 1.3 2zm-176.1 6.2-1.9 2.3 2.3-1.9c1.2-1.1 2.2-2.1 2.2-2.3 0-.8-.8-.2-2.6 1.9zM242.5 249c1 1.1 2 2 2.3 2 .3 0-.3-.9-1.3-2s-2-2-2.3-2c-.3 0 .3.9 1.3 2zm-172.1 6.2-1.9 2.3 2.3-1.9c2.1-1.8 2.7-2.6 1.9-2.6-.2 0-1.2 1-2.3 2.2zm336 0-1.9 2.3 2.3-1.9c2.1-1.8 2.7-2.6 1.9-2.6-.2 0-1.2 1-2.3 2.2zm-342 6-1.9 2.3 2.3-1.9c2.1-1.8 2.7-2.6 1.9-2.6-.2 0-1.2 1-2.3 2.2zm462.1-.2c1 1.1 2 2 2.3 2 .3 0-.3-.9-1.3-2s-2-2-2.3-2c-.3 0 .3.9 1.3 2zm-24.9.8c-.2.4.4.8 1.4.8 1 0 1.6-.4 1.4-.8-.3-.4-.9-.8-1.4-.8-.5 0-1.1.4-1.4.8zm16.9 11.2c1 1.1 2 2 2.3 2 .3 0-.3-.9-1.3-2s-2-2-2.3-2c-.3 0 .3.9 1.3 2zm35.9 6.2-1.9 2.3 2.3-1.9c1.2-1.1 2.2-2.1 2.2-2.3 0-.8-.8-.2-2.6 1.9zM188.5 291c1 1.1 2 2 2.3 2 .3 0-.3-.9-1.3-2s-2-2-2.3-2c-.3 0 .3.9 1.3 2zm122 0c1 1.1 2 2 2.3 2 .3 0-.3-.9-1.3-2s-2-2-2.3-2c-.3 0 .3.9 1.3 2zm189.9.2-1.9 2.3 2.3-1.9c2.1-1.8 2.7-2.6 1.9-2.6-.2 0-1.2 1-2.3 2.2zm-426 6-1.9 2.3 2.3-1.9c2.1-1.8 2.7-2.6 1.9-2.6-.2 0-1.2 1-2.3 2.2zm120.1-.2c1 1.1 2 2 2.3 2 .3 0-.3-.9-1.3-2s-2-2-2.3-2c-.3 0 .3.9 1.3 2zm199.9 6.2-1.9 2.3 2.3-1.9c1.2-1.1 2.2-2.1 2.2-2.3 0-.8-.8-.2-2.6 1.9zm-306 6-1.9 2.3 2.3-1.9c2.1-1.8 2.7-2.6 1.9-2.6-.2 0-1.2 1-2.3 2.2zm152.1-.2c1 1.1 2 2 2.3 2 .3 0-.3-.9-1.3-2s-2-2-2.3-2c-.3 0 .3.9 1.3 2zm-158.1 6.2-1.9 2.3 2.3-1.9c2.1-1.8 2.7-2.6 1.9-2.6-.2 0-1.2 1-2.3 2.2zm100.1-.2c1 1.1 2 2 2.3 2 .3 0-.3-.9-1.3-2s-2-2-2.3-2c-.3 0 .3.9 1.3 2zm229.9.2-1.9 2.3 2.3-1.9c2.1-1.8 2.7-2.6 1.9-2.6-.2 0-1.2 1-2.3 2.2zm48 0-1.9 2.3 2.3-1.9c2.1-1.8 2.7-2.6 1.9-2.6-.2 0-1.2 1-2.3 2.2zm50.1-.2c1 1.1 2 2 2.3 2 .3 0-.3-.9-1.3-2s-2-2-2.3-2c-.3 0 .3.9 1.3 2zm-434.1 6.2-1.9 2.3 2.3-1.9c2.1-1.8 2.7-2.6 1.9-2.6-.2 0-1.2 1-2.3 2.2zm58.1-.2c1 1.1 2 2 2.3 2 .3 0-.3-.9-1.3-2s-2-2-2.3-2c-.3 0 .3.9 1.3 2zm319.9.2-1.9 2.3 2.3-1.9c2.1-1.8 2.7-2.6 1.9-2.6-.2 0-1.2 1-2.3 2.2zm38.1-.2c1 1.1 2 2 2.3 2 .3 0-.3-.9-1.3-2s-2-2-2.3-2c-.3 0 .3.9 1.3 2zm-400.1 6.2-1.9 2.3 2.3-1.9c2.1-1.8 2.7-2.6 1.9-2.6-.2 0-1.2 1-2.3 2.2zm172 0-1.9 2.3 2.3-1.9c1.2-1.1 2.2-2.1 2.2-2.3 0-.8-.8-.2-2.6 1.9zm128 0-1.9 2.3 2.3-1.9c1.2-1.1 2.2-2.1 2.2-2.3 0-.8-.8-.2-2.6 1.9zm-304 6-1.9 2.3 2.3-1.9c2.1-1.8 2.7-2.6 1.9-2.6-.2 0-1.2 1-2.3 2.2zm114.1-.2c1 1.1 2 2 2.3 2 .3 0-.3-.9-1.3-2s-2-2-2.3-2c-.3 0 .3.9 1.3 2zm-98.1 12.2-1.9 2.3 2.3-1.9c2.1-1.8 2.7-2.6 1.9-2.6-.2 0-1.2 1-2.3 2.2zm354.1-.2c1 1.1 2 2 2.3 2 .3 0-.3-.9-1.3-2s-2-2-2.3-2c-.3 0 .3.9 1.3 2zm-216.1 6.2-1.9 2.3 2.3-1.9c2.1-1.8 2.7-2.6 1.9-2.6-.2 0-1.2 1-2.3 2.2zm222.1-.2c1 1.1 2 2 2.3 2 .3 0-.3-.9-1.3-2s-2-2-2.3-2c-.3 0 .3.9 1.3 2zM290 356.4c.7.7 1.3.7 2 0 .6-.6.3-1-1-1s-1.6.4-1 1zm242.4 6.8-1.9 2.3 2.3-1.9c1.2-1.1 2.2-2.1 2.2-2.3 0-.8-.8-.2-2.6 1.9zM60.5 369c1 1.1 2 2 2.3 2 .3 0-.3-.9-1.3-2s-2-2-2.3-2c-.3 0 .3.9 1.3 2zm461.9 6.2-1.9 2.3 2.3-1.9c1.2-1.1 2.2-2.1 2.2-2.3 0-.8-.8-.2-2.6 1.9zM78.5 387c1 1.1 2 2 2.3 2 .3 0-.3-.9-1.3-2s-2-2-2.3-2c-.3 0 .3.9 1.3 2zm188 0c1 1.1 2 2 2.3 2 .3 0-.3-.9-1.3-2s-2-2-2.3-2c-.3 0 .3.9 1.3 2zm53.9.2-1.9 2.3 2.3-1.9c1.2-1.1 2.2-2.1 2.2-2.3 0-.8-.8-.2-2.6 1.9zm192 0-1.9 2.3 2.3-1.9c1.2-1.1 2.2-2.1 2.2-2.3 0-.8-.8-.2-2.6 1.9zM84.5 393c1 1.1 2 2 2.3 2 .3 0-.3-.9-1.3-2s-2-2-2.3-2c-.3 0 .3.9 1.3 2zm192 0c1 1.1 2 2 2.3 2 .3 0-.3-.9-1.3-2s-2-2-2.3-2c-.3 0 .3.9 1.3 2zm37.9.2-1.9 2.3 2.3-1.9c1.2-1.1 2.2-2.1 2.2-2.3 0-.8-.8-.2-2.6 1.9zm192 0-1.9 2.3 2.3-1.9c1.2-1.1 2.2-2.1 2.2-2.3 0-.8-.8-.2-2.6 1.9zM90.5 399c1 1.1 2 2 2.3 2 .3 0-.3-.9-1.3-2s-2-2-2.3-2c-.3 0 .3.9 1.3 2zm97.9.2-1.9 2.3 2.3-1.9c2.1-1.8 2.7-2.6 1.9-2.6-.2 0-1.2 1-2.3 2.2zm218.1-.2c1 1.1 2 2 2.3 2 .3 0-.3-.9-1.3-2s-2-2-2.3-2c-.3 0 .3.9 1.3 2zm91.9.2-1.9 2.3 2.3-1.9c1.2-1.1 2.2-2.1 2.2-2.3 0-.8-.8-.2-2.6 1.9zM98.5 405c1 1.1 2 2 2.3 2 .3 0-.3-.9-1.3-2s-2-2-2.3-2c-.3 0 .3.9 1.3 2zm314 0c1 1.1 2 2 2.3 2 .3 0-.3-.9-1.3-2s-2-2-2.3-2c-.3 0 .3.9 1.3 2zm6 6c1 1.1 2 2 2.3 2 .3 0-.3-.9-1.3-2s-2-2-2.3-2c-.3 0 .3.9 1.3 2zm-54.1 12.2-1.9 2.3 2.3-1.9c1.2-1.1 2.2-2.1 2.2-2.3 0-.8-.8-.2-2.6 1.9zM226.5 429c1 1.1 2 2 2.3 2 .3 0-.3-.9-1.3-2s-2-2-2.3-2c-.3 0 .3.9 1.3 2zm87.9 54.2-1.9 2.3 2.3-1.9c2.1-1.8 2.7-2.6 1.9-2.6-.2 0-1.2 1-2.3 2.2zM264.5 543c1 1.1 2 2 2.3 2 .3 0-.3-.9-1.3-2s-2-2-2.3-2c-.3 0 .3.9 1.3 2zm25.9.2-1.9 2.3 2.3-1.9c1.2-1.1 2.2-2.1 2.2-2.3 0-.8-.8-.2-2.6 1.9zm36 0-1.9 2.3 2.3-1.9c1.2-1.1 2.2-2.1 2.2-2.3 0-.8-.8-.2-2.6 1.9z" fill="#FFF" fill-opacity=".18"/><path d="M248 322.4c.7.7 1.3.7 2 0 .6-.6.3-1-1-1s-1.6.4-1 1zM377.4 397c0 1.3.4 1.6 1 1 .7-.7.7-1.3 0-2-.6-.6-1-.3-1 1z" fill="#FFF" fill-opacity=".04"/><path d="M212.3 94.7c.9.2 2.5.2 3.5 0 .9-.3.1-.5-1.8-.5-1.9 0-2.7.2-1.7.5zm23 18c1.5.2 3.9.2 5.5 0 1.5-.2.2-.4-2.8-.4s-4.3.2-2.7.4zm-161.5 10c.6.2 1.8.2 2.5 0 .6-.3.1-.5-1.3-.5-1.4 0-1.9.2-1.2.5zm190 14c.6.2 1.8.2 2.5 0 .6-.3.1-.5-1.3-.5-1.4 0-1.9.2-1.2.5zm-10 4c.7.3 1.6.2 1.9-.1.4-.3-.2-.6-1.3-.5-1.1 0-1.4.3-.6.6zm82.5 2c.9.2 2.5.2 3.5 0 .9-.3.1-.5-1.8-.5-1.9 0-2.7.2-1.7.5zm-274 6c.9.2 2.5.2 3.5 0 .9-.3.1-.5-1.8-.5-1.9 0-2.7.2-1.7.5zm459.5 4c1.7.2 4.7.2 6.5 0 1.7-.2.3-.4-3.3-.4-3.6 0-5 .2-3.2.4zm-229 2c1.2.2 3.2.2 4.5 0 1.2-.2.2-.4-2.3-.4s-3.5.2-2.2.4zm-27 4c.6.2 1.8.2 2.5 0 .6-.3.1-.5-1.3-.5-1.4 0-1.9.2-1.2.5zm-6 2c.6.2 1.8.2 2.5 0 .6-.3.1-.5-1.3-.5-1.4 0-1.9.2-1.2.5zm-147 4c2.3.2 6.1.2 8.5 0 2.3-.2.4-.4-4.3-.4s-6.6.2-4.2.4zm379 0c.6.2 1.8.2 2.5 0 .6-.3.1-.5-1.3-.5-1.4 0-1.9.2-1.2.5zm-391.5 2c.9.2 2.5.2 3.5 0 .9-.3.1-.5-1.8-.5-1.9 0-2.7.2-1.7.5zm27.5 0c.6.2 1.8.2 2.5 0 .6-.3.1-.5-1.3-.5-1.4 0-1.9.2-1.2.5zm352.5 16c2 .2 5.4.2 7.5 0 2-.2.3-.4-3.8-.4s-5.8.2-3.7.4zm-385 2c3.7.2 9.7.2 13.5 0 3.7-.2.6-.3-6.8-.3-7.4 0-10.5.1-6.7.3zm400 0c1.5.2 3.9.2 5.5 0 1.5-.2.2-.4-2.8-.4s-4.3.2-2.7.4zm-44 6c1.5.2 3.9.2 5.5 0 1.5-.2.2-.4-2.8-.4s-4.3.2-2.7.4zm-243.5 6c.6.2 1.8.2 2.5 0 .6-.3.1-.5-1.3-.5-1.4 0-1.9.2-1.2.5zm-14 4c.6.2 1.8.2 2.5 0 .6-.3.1-.5-1.3-.5-1.4 0-1.9.2-1.2.5zm-105 2c2.3.2 6.1.2 8.5 0 2.3-.2.4-.4-4.3-.4s-6.6.2-4.2.4zm302.5 0c1.5.2 3.9.2 5.5 0 1.5-.2.2-.4-2.8-.4s-4.3.2-2.7.4zm102.5 0c.6.2 1.8.2 2.5 0 .6-.3.1-.5-1.3-.5-1.4 0-1.9.2-1.2.5zm14 4c.6.2 1.8.2 2.5 0 .6-.3.1-.5-1.3-.5-1.4 0-1.9.2-1.2.5zm-308 14c.6.2 1.8.2 2.5 0 .6-.3.1-.5-1.3-.5-1.4 0-1.9.2-1.2.5zm178.5 0c.9.2 2.5.2 3.5 0 .9-.3.1-.5-1.8-.5-1.9 0-2.7.2-1.7.5zm121.5 0c.6.2 1.8.2 2.5 0 .6-.3.1-.5-1.3-.5-1.4 0-1.9.2-1.2.5zm-412 22c.6.2 1.8.2 2.5 0 .6-.3.1-.5-1.3-.5-1.4 0-1.9.2-1.2.5zm-6 48c.6.2 1.8.2 2.5 0 .6-.3.1-.5-1.3-.5-1.4 0-1.9.2-1.2.5zm412 12c.6.2 1.8.2 2.5 0 .6-.3.1-.5-1.3-.5-1.4 0-1.9.2-1.2.5zm-269.5 2c2 .2 5.4.2 7.5 0 2-.2.3-.4-3.8-.4s-5.8.2-3.7.4zm144.5 4c1.2.2 3.2.2 4.5 0 1.2-.2.2-.4-2.3-.4s-3.5.2-2.2.4zm35 12c.6.2 1.8.2 2.5 0 .6-.3.1-.5-1.3-.5-1.4 0-1.9.2-1.2.5zm-270 26c.6.2 1.8.2 2.5 0 .6-.3.1-.5-1.3-.5-1.4 0-1.9.2-1.2.5zm28 70c.6.2 1.8.2 2.5 0 .6-.3.1-.5-1.3-.5-1.4 0-1.9.2-1.2.5zm-42 2c.6.2 1.8.2 2.5 0 .6-.3.1-.5-1.3-.5-1.4 0-1.9.2-1.2.5zm30 0c1.7.2 4.7.2 6.5 0 1.7-.2.3-.4-3.3-.4-3.6 0-5 .2-3.2.4zm310 0c.6.2 1.8.2 2.5 0 .6-.3.1-.5-1.3-.5-1.4 0-1.9.2-1.2.5zm-327 4c1.2.2 3.2.2 4.5 0 1.2-.2.2-.4-2.3-.4s-3.5.2-2.2.4zm151 80c.6.2 1.8.2 2.5 0 .6-.3.1-.5-1.3-.5-1.4 0-1.9.2-1.2.5zm38 42c.6.2 1.8.2 2.5 0 .6-.3.1-.5-1.3-.5-1.4 0-1.9.2-1.2.5z" fill="#FFF" fill-opacity=".25"/><path d="M422 218.4c.7.7 1.3.7 2 0 .6-.6.3-1-1-1s-1.6.4-1 1z" fill="#FFF" fill-opacity=".17"/></svg>